<?xml version="1.0" encoding="utf-8"?>
<svg xmlns="http://www.w3.org/2000/svg" viewBox="71.746 181.431 721.23 384.359" preserveAspectRatio="none"><path d="M 234.301 212.439 L 234.301 220.057 C 234.301 221.778 234.301 223.543 234.301 225.35 C 234.301 227.157 234.344 229.051 234.43 231.031 L 234.43 242.65 L 234.43 252.462 C 234.43 260.381 232.365 266.922 228.233 272.086 C 226.254 274.582 223.865 276.562 221.068 278.025 C 218.271 279.488 215.151 280.22 211.708 280.22 L 184.337 280.22 C 184.251 280.048 184.294 279.746 184.467 279.316 C 184.639 278.628 185.198 278.283 186.145 278.283 C 186.661 278.283 187.092 277.767 187.436 276.734 C 187.694 275.787 187.888 274.711 188.017 273.506 C 188.146 272.301 188.254 271.182 188.34 270.15 L 188.34 268.342 L 188.34 195.268 L 188.34 193.461 C 188.254 192.428 188.146 191.309 188.017 190.104 C 187.888 188.899 187.694 187.78 187.436 186.747 C 187.006 185.801 186.575 185.327 186.145 185.327 C 185.112 185.327 184.553 185.026 184.467 184.424 C 184.294 183.907 184.251 183.563 184.337 183.391 L 201.379 183.391 C 205.941 183.391 210.245 183.95 214.29 185.069 C 218.335 186.188 221.821 187.909 224.748 190.233 C 227.76 192.557 230.105 195.548 231.784 199.206 C 233.462 202.864 234.301 207.275 234.301 212.439 Z M 204.349 275.185 C 207.017 275.185 209.405 274.518 211.514 273.184 C 213.623 271.85 215.409 270.107 216.872 267.955 C 218.335 265.889 219.454 263.544 220.229 260.919 C 221.003 258.293 221.391 255.69 221.391 253.108 L 221.391 243.037 L 221.391 230.902 C 221.305 228.922 221.262 226.985 221.262 225.092 C 221.262 223.198 221.262 221.391 221.262 219.669 L 221.262 212.439 C 221.262 208.48 220.982 205.102 220.423 202.305 C 219.863 199.507 218.852 197.205 217.389 195.397 C 214.548 191.869 209.212 190.061 201.379 189.975 L 201.379 274.927 C 201.896 275.013 202.391 275.077 202.864 275.12 C 203.338 275.163 203.832 275.185 204.349 275.185 Z M 255.733 271.312 C 256.249 271.312 256.615 271.419 256.83 271.634 C 257.045 271.85 257.239 272.086 257.411 272.344 C 257.497 272.603 257.54 272.904 257.54 273.248 L 236.367 273.248 C 236.281 273.076 236.324 272.775 236.496 272.344 C 236.668 271.656 237.228 271.312 238.175 271.312 C 238.691 271.312 239.121 270.795 239.466 269.762 C 239.724 268.816 239.917 267.74 240.047 266.535 C 240.176 265.33 240.283 264.211 240.369 263.178 L 240.369 261.37 L 240.369 202.24 L 240.369 200.433 C 240.283 199.4 240.176 198.281 240.047 197.076 C 239.917 195.871 239.724 194.752 239.466 193.719 C 239.035 192.772 238.605 192.299 238.175 192.299 C 237.142 192.299 236.582 191.998 236.496 191.395 C 236.324 190.879 236.281 190.535 236.367 190.362 L 257.54 190.362 C 257.54 191.051 257.325 191.61 256.895 192.041 C 256.551 192.213 256.163 192.299 255.733 192.299 C 255.13 192.299 254.7 192.837 254.442 193.913 C 254.184 194.989 253.968 196.129 253.796 197.334 L 253.409 202.369 L 253.409 261.37 C 253.495 263.264 253.624 264.878 253.796 266.212 C 253.968 267.546 254.184 268.729 254.442 269.762 C 254.7 270.795 255.13 271.312 255.733 271.312 Z M 300.92 243.683 C 300.145 246.007 299.607 248.524 299.306 251.236 C 299.005 253.947 298.897 257.11 298.983 260.725 C 299.069 264.426 299.715 268.6 300.92 273.248 L 259.09 273.248 C 259.004 273.076 259.047 272.775 259.219 272.344 C 259.391 271.656 259.95 271.312 260.897 271.312 C 261.327 271.312 261.758 270.838 262.188 269.891 C 262.446 268.945 262.64 267.869 262.769 266.664 C 262.898 265.459 263.006 264.297 263.092 263.178 L 263.092 261.37 L 263.092 202.24 L 263.092 200.304 C 263.006 199.271 262.898 198.152 262.769 196.947 C 262.64 195.742 262.446 194.666 262.188 193.719 C 261.758 192.772 261.327 192.299 260.897 192.299 C 259.864 192.299 259.305 191.998 259.219 191.395 C 259.047 190.879 259.004 190.535 259.09 190.362 L 300.016 190.362 C 300.016 191.912 299.693 193.934 299.048 196.43 C 298.402 198.926 297.692 201.465 296.918 204.048 C 296.143 206.716 295.411 209.255 294.723 211.665 C 294.034 214.075 293.647 216.011 293.561 217.475 C 293.475 218.507 293.733 219.196 294.335 219.54 L 294.335 219.282 C 294.335 218.421 294.637 217.69 295.239 217.087 C 295.842 216.485 296.573 216.183 297.434 216.183 C 298.209 216.183 298.897 216.485 299.5 217.087 C 300.102 217.69 300.403 218.421 300.403 219.282 C 300.403 221.262 299.198 222.768 296.788 223.801 C 295.842 224.145 294.766 224.274 293.561 224.188 C 292.356 224.102 291.28 223.586 290.333 222.639 C 288.956 221.434 288.138 219.906 287.88 218.056 C 287.622 216.205 287.579 214.247 287.751 212.181 C 287.837 211.234 287.966 210.245 288.138 209.212 C 288.311 208.179 288.483 207.146 288.655 206.113 C 289.085 204.134 289.236 202.348 289.107 200.755 C 288.978 199.163 288.526 197.85 287.751 196.818 C 286.976 195.871 285.556 195.311 283.491 195.139 L 276.132 195.139 L 276.132 241.617 C 276.476 241.617 277.207 241.596 278.326 241.553 C 279.445 241.51 280.564 241.402 281.683 241.23 C 282.888 241.058 283.921 240.8 284.782 240.455 C 285.642 240.197 286.073 239.81 286.073 239.293 C 286.073 238.433 286.309 237.938 286.783 237.809 C 287.256 237.68 287.665 237.615 288.009 237.615 L 288.009 250.526 C 287.665 250.526 287.256 250.461 286.783 250.332 C 286.309 250.203 286.073 249.708 286.073 248.847 C 286.073 248.331 285.642 247.9 284.782 247.556 C 283.921 247.298 282.888 247.083 281.683 246.911 C 280.478 246.738 279.359 246.609 278.326 246.523 L 276.132 246.523 L 276.132 268.471 L 283.103 268.471 C 285.599 268.385 287.622 267.46 289.171 265.695 C 290.721 263.931 291.925 261.887 292.786 259.563 C 293.647 257.239 294.228 254.958 294.529 252.72 C 294.83 250.483 294.981 248.847 294.981 247.814 C 294.981 246.351 295.282 245.34 295.885 244.78 C 296.487 244.221 297.176 243.855 297.95 243.683 C 298.811 243.597 299.801 243.597 300.92 243.683 Z" style="text-wrap-mode: nowrap; stroke: rgb(0, 0, 0); stroke-linejoin: round; stroke-linecap: round; vector-effect: non-scaling-stroke; stroke-width: 2px;"/><path d="M 124.088 333.003 C 125.096 333.003 125.992 333.395 126.777 334.178 C 127.561 334.962 127.953 335.915 127.953 337.035 C 127.953 339.611 126.384 341.572 123.248 342.916 C 122.016 343.363 120.615 343.531 119.048 343.419 C 117.479 343.307 116.079 342.635 114.847 341.403 C 113.055 339.835 111.991 337.847 111.654 335.438 C 111.318 333.03 111.262 330.481 111.486 327.793 C 111.598 326.562 111.766 325.274 111.991 323.93 C 112.215 322.585 112.438 321.24 112.662 319.896 C 113.222 317.321 113.419 314.996 113.251 312.923 C 113.083 310.851 112.495 309.143 111.486 307.799 C 110.479 306.567 108.631 305.839 105.942 305.615 L 96.365 305.615 L 96.365 375.175 C 96.813 375.175 97.765 375.147 99.221 375.091 C 100.677 375.035 102.133 374.895 103.589 374.671 C 104.373 374.559 105.101 374.419 105.773 374.251 C 106.445 374.083 107.062 373.943 107.622 373.831 C 108.742 373.495 109.302 372.99 109.302 372.318 C 109.302 371.646 109.414 371.17 109.638 370.891 C 109.862 370.611 110.143 370.359 110.478 370.134 C 110.815 370.022 111.262 369.967 111.822 369.967 L 111.822 386.769 C 111.374 386.769 110.843 386.685 110.226 386.517 C 109.61 386.349 109.302 385.705 109.302 384.585 C 109.302 383.912 108.742 383.352 107.622 382.904 C 106.502 382.568 105.158 382.288 103.589 382.064 C 102.021 381.84 100.565 381.672 99.221 381.56 L 96.365 381.56 L 96.365 409.956 C 96.477 412.42 96.645 414.52 96.868 416.256 C 97.093 417.993 97.373 419.533 97.709 420.877 C 98.045 422.221 98.605 422.893 99.389 422.893 C 100.061 422.893 100.537 423.033 100.817 423.313 C 101.097 423.593 101.349 423.901 101.573 424.237 C 101.685 424.573 101.741 424.965 101.741 425.413 L 74.186 425.413 C 74.074 425.189 74.13 424.797 74.354 424.237 C 74.578 423.341 75.306 422.893 76.538 422.893 C 77.211 422.893 77.77 422.221 78.218 420.877 C 78.554 419.645 78.806 418.245 78.974 416.676 C 79.143 415.108 79.283 413.652 79.395 412.308 L 79.395 409.956 L 79.395 314.856 L 79.395 312.504 C 79.283 311.16 79.143 309.704 78.974 308.136 C 78.806 306.567 78.554 305.111 78.218 303.767 C 77.658 302.534 77.099 301.918 76.538 301.918 C 75.194 301.918 74.466 301.526 74.354 300.742 C 74.13 300.07 74.074 299.622 74.186 299.399 L 127.448 299.399 C 127.448 301.415 127.028 304.047 126.188 307.295 C 125.348 310.544 124.424 313.848 123.416 317.209 C 122.408 320.681 121.456 323.985 120.559 327.122 C 119.663 330.258 119.159 332.778 119.048 334.682 C 118.936 336.026 119.272 336.922 120.056 337.371 L 120.056 337.035 C 120.056 335.915 120.448 334.962 121.232 334.178 C 122.016 333.395 122.968 333.003 124.088 333.003 Z M 182.721 377.864 C 181.714 380.888 181.014 384.165 180.621 387.693 C 180.23 391.221 180.09 395.338 180.202 400.043 C 180.314 404.859 181.153 410.292 182.721 416.34 L 128.283 416.34 C 128.171 416.116 128.227 415.724 128.451 415.164 C 128.675 414.268 129.404 413.819 130.636 413.819 C 131.196 413.819 131.756 413.204 132.315 411.972 C 132.652 410.74 132.904 409.339 133.072 407.771 C 133.239 406.203 133.38 404.691 133.492 403.235 L 133.492 400.882 L 133.492 323.93 L 133.492 321.409 C 133.38 320.065 133.239 318.609 133.072 317.041 C 132.904 315.472 132.652 314.072 132.315 312.839 C 131.756 311.607 131.196 310.991 130.636 310.991 C 129.292 310.991 128.563 310.599 128.451 309.815 C 128.227 309.143 128.171 308.695 128.283 308.471 L 181.545 308.471 C 181.545 310.488 181.125 313.12 180.286 316.368 C 179.446 319.617 178.521 322.921 177.513 326.282 C 176.505 329.754 175.553 333.058 174.657 336.195 C 173.761 339.331 173.257 341.852 173.145 343.756 C 173.032 345.1 173.368 345.996 174.153 346.444 L 174.153 346.108 C 174.153 344.987 174.545 344.035 175.329 343.251 C 176.113 342.467 177.065 342.075 178.185 342.075 C 179.193 342.075 180.089 342.467 180.873 343.251 C 181.658 344.035 182.05 344.987 182.05 346.108 C 182.05 348.684 180.482 350.644 177.345 351.989 C 176.113 352.437 174.713 352.605 173.145 352.492 C 171.576 352.38 170.176 351.708 168.944 350.476 C 167.152 348.908 166.088 346.92 165.752 344.511 C 165.416 342.103 165.36 339.555 165.584 336.867 C 165.696 335.635 165.864 334.347 166.088 333.003 C 166.312 331.658 166.536 330.314 166.76 328.97 C 167.32 326.394 167.516 324.07 167.348 321.997 C 167.18 319.925 166.592 318.216 165.584 316.872 C 164.575 315.64 162.727 314.912 160.039 314.688 L 150.462 314.688 L 150.462 375.175 C 150.91 375.175 151.862 375.147 153.319 375.091 C 154.775 375.035 156.231 374.895 157.687 374.671 C 159.255 374.448 160.599 374.112 161.719 373.663 C 162.839 373.327 163.4 372.823 163.4 372.151 C 163.4 371.031 163.708 370.387 164.324 370.218 C 164.94 370.05 165.472 369.967 165.919 369.967 L 165.919 386.769 C 165.472 386.769 164.94 386.685 164.324 386.517 C 163.708 386.349 163.4 385.705 163.4 384.585 C 163.4 383.912 162.839 383.352 161.719 382.904 C 160.599 382.568 159.255 382.288 157.687 382.064 C 156.119 381.84 154.663 381.672 153.319 381.56 L 150.462 381.56 L 150.462 410.124 L 159.535 410.124 C 162.784 410.012 165.416 408.808 167.432 406.511 C 169.448 404.215 171.017 401.555 172.137 398.53 C 173.256 395.505 174.012 392.537 174.405 389.625 C 174.797 386.713 174.993 384.585 174.993 383.241 C 174.993 381.336 175.385 380.02 176.169 379.292 C 176.953 378.564 177.849 378.087 178.857 377.864 C 179.977 377.752 181.265 377.752 182.721 377.864 Z M 251.1 308.471 C 251.212 308.695 251.156 309.143 250.932 309.815 C 250.484 310.599 249.756 310.991 248.747 310.991 C 247.963 310.991 247.403 311.692 247.068 313.092 C 246.731 314.492 246.451 315.976 246.227 317.544 L 245.723 324.097 L 245.723 390.297 C 245.723 393.882 245.023 397.214 243.623 400.295 C 242.223 403.374 240.29 406.091 237.826 408.443 C 235.362 410.796 232.45 412.672 229.09 414.072 C 225.729 415.472 222.144 416.228 218.336 416.34 C 214.528 416.228 210.971 415.472 207.667 414.072 C 204.362 412.672 201.478 410.796 199.013 408.443 C 196.549 406.091 194.589 403.374 193.133 400.295 C 191.677 397.214 190.949 393.882 190.949 390.297 L 190.949 323.93 L 190.949 321.577 C 190.837 320.233 190.697 318.777 190.529 317.209 C 190.36 315.64 190.108 314.184 189.773 312.839 C 189.213 311.607 188.652 310.991 188.092 310.991 C 186.748 310.991 186.02 310.599 185.908 309.815 C 185.684 309.143 185.628 308.695 185.74 308.471 L 213.296 308.471 C 213.296 309.367 213.016 310.095 212.455 310.655 C 212.007 310.879 211.503 310.991 210.943 310.991 C 210.159 310.991 209.599 311.692 209.263 313.092 C 208.927 314.492 208.647 315.976 208.423 317.544 L 207.918 324.097 L 207.918 390.297 C 207.918 394.218 208.871 397.718 210.775 400.798 C 212.679 403.879 215.2 406.315 218.336 408.108 C 221.585 406.315 224.133 403.879 225.98 400.798 C 227.829 397.718 228.753 394.218 228.753 390.297 L 228.753 323.93 L 228.753 321.577 C 228.641 320.233 228.501 318.777 228.333 317.209 C 228.165 315.64 227.857 314.184 227.409 312.839 C 226.849 311.607 226.289 310.991 225.729 310.991 C 224.608 310.991 223.964 310.683 223.796 310.067 C 223.628 309.452 223.545 308.92 223.545 308.471 L 251.1 308.471 Z M 308.221 377.864 C 307.213 380.888 306.513 384.165 306.121 387.693 C 305.728 391.221 305.588 395.338 305.701 400.043 C 305.813 404.859 306.653 410.292 308.221 416.34 L 253.782 416.34 C 253.67 416.116 253.726 415.724 253.95 415.164 C 254.175 414.268 254.903 413.819 256.134 413.819 C 256.694 413.819 257.254 413.204 257.815 411.972 C 258.151 410.74 258.403 409.339 258.571 407.771 C 258.739 406.203 258.879 404.691 258.991 403.235 L 258.991 400.882 L 258.991 323.93 L 258.991 321.409 C 258.879 320.065 258.739 318.609 258.571 317.041 C 258.403 315.472 258.151 314.072 257.815 312.839 C 257.254 311.607 256.694 310.991 256.134 310.991 C 254.79 310.991 254.062 310.599 253.95 309.815 C 253.726 309.143 253.67 308.695 253.782 308.471 L 307.045 308.471 C 307.045 310.488 306.625 313.12 305.785 316.368 C 304.944 319.617 304.02 322.921 303.012 326.282 C 302.004 329.754 301.052 333.058 300.156 336.195 C 299.26 339.331 298.756 341.852 298.643 343.756 C 298.531 345.1 298.867 345.996 299.651 346.444 L 299.651 346.108 C 299.651 344.987 300.044 344.035 300.828 343.251 C 301.612 342.467 302.564 342.075 303.685 342.075 C 304.692 342.075 305.588 342.467 306.372 343.251 C 307.156 344.035 307.548 344.987 307.548 346.108 C 307.548 348.684 305.98 350.644 302.844 351.989 C 301.612 352.437 300.212 352.605 298.643 352.492 C 297.075 352.38 295.675 351.708 294.443 350.476 C 292.651 348.908 291.587 346.92 291.251 344.511 C 290.914 342.103 290.858 339.555 291.083 336.867 C 291.195 335.635 291.363 334.347 291.586 333.003 C 291.811 331.658 292.035 330.314 292.259 328.97 C 292.819 326.394 293.015 324.07 292.847 321.997 C 292.679 319.925 292.091 318.216 291.083 316.872 C 290.074 315.64 288.226 314.912 285.538 314.688 L 275.961 314.688 L 275.961 375.175 C 276.409 375.175 277.361 375.147 278.817 375.091 C 280.274 375.035 281.73 374.895 283.186 374.671 C 284.754 374.448 286.098 374.112 287.218 373.663 C 288.339 373.327 288.899 372.823 288.899 372.151 C 288.899 371.031 289.207 370.387 289.823 370.218 C 290.438 370.05 290.97 369.967 291.419 369.967 L 291.419 386.769 C 290.97 386.769 290.438 386.685 289.823 386.517 C 289.207 386.349 288.899 385.705 288.899 384.585 C 288.899 383.912 288.339 383.352 287.218 382.904 C 286.098 382.568 284.754 382.288 283.186 382.064 C 281.617 381.84 280.161 381.672 278.817 381.56 L 275.961 381.56 L 275.961 410.124 L 285.034 410.124 C 288.283 410.012 290.915 408.808 292.931 406.511 C 294.947 404.215 296.515 401.555 297.635 398.53 C 298.755 395.505 299.512 392.537 299.904 389.625 C 300.296 386.713 300.492 384.585 300.492 383.241 C 300.492 381.336 300.884 380.02 301.669 379.292 C 302.452 378.564 303.348 378.087 304.356 377.864 C 305.476 377.752 306.765 377.752 308.221 377.864 Z M 377.607 413.819 L 377.775 414.996 C 378.447 414.996 379.007 415.136 379.456 415.416 C 379.903 415.696 380.295 416.004 380.632 416.34 C 381.192 416.9 381.528 417.292 381.64 417.516 L 354.252 417.516 C 353.916 417.18 353.664 416.677 353.496 416.005 C 353.328 415.332 353.804 414.996 354.925 414.996 C 355.597 414.996 355.764 414.324 355.428 412.98 C 354.981 411.748 354.365 410.348 353.581 408.779 C 352.796 407.211 352.012 405.755 351.228 404.411 C 350.78 403.739 350.472 403.207 350.304 402.814 C 350.136 402.423 349.996 402.171 349.884 402.059 C 348.092 399.146 346.523 396.626 345.179 394.498 C 343.835 392.37 342.603 390.633 341.483 389.289 C 339.354 386.601 336.946 385.257 334.258 385.257 L 334.258 402.059 C 334.258 402.171 334.258 402.423 334.258 402.814 C 334.258 403.207 334.314 403.739 334.426 404.411 C 334.426 407.436 334.874 410.292 335.771 412.98 C 336.106 414.324 336.61 414.996 337.282 414.996 C 337.954 414.996 338.431 415.136 338.711 415.416 C 338.991 415.696 339.243 416.004 339.466 416.34 L 311.911 416.34 C 311.799 416.116 311.855 415.724 312.08 415.164 C 312.304 414.268 313.032 413.819 314.264 413.819 C 314.824 413.819 315.384 413.204 315.943 411.972 C 316.28 410.74 316.532 409.339 316.7 407.771 C 316.868 406.203 317.008 404.691 317.12 403.235 L 317.12 400.882 L 317.12 323.93 L 317.12 321.409 C 317.008 320.065 316.868 318.609 316.7 317.041 C 316.532 315.472 316.28 314.072 315.943 312.839 C 315.384 311.607 314.824 310.991 314.264 310.991 C 312.92 310.991 312.192 310.599 312.08 309.815 C 311.855 309.143 311.799 308.695 311.911 308.471 L 342.155 308.471 C 347.308 308.471 352.18 309.479 356.773 311.496 C 361.366 313.512 365.398 316.2 368.87 319.56 C 372.23 323.033 374.891 327.093 376.851 331.742 C 378.811 336.39 379.791 341.347 379.791 346.611 C 379.791 354.901 377.523 362.266 372.986 368.707 C 368.45 375.148 362.597 379.768 355.428 382.568 L 366.686 400.882 C 368.254 403.346 369.71 405.447 371.054 407.183 C 372.398 408.919 373.631 410.459 374.751 411.803 C 375.983 413.147 376.935 413.819 377.607 413.819 Z M 334.258 379.376 L 335.771 379.376 C 339.467 379.376 342.995 378.508 346.355 376.771 C 349.716 375.035 352.628 372.767 355.092 369.967 C 357.669 367.055 359.685 363.694 361.141 359.886 C 362.597 356.077 363.325 351.988 363.325 347.619 C 363.325 343.251 362.625 339.107 361.225 335.187 C 359.825 331.266 357.837 327.906 355.26 325.106 C 352.796 322.193 349.884 319.925 346.523 318.301 C 343.163 316.676 339.579 315.864 335.771 315.864 C 334.986 315.864 334.482 315.92 334.258 316.033 L 334.258 379.376 Z M 428.175 383.241 C 428.175 381.336 428.567 380.02 429.351 379.292 C 430.135 378.564 431.031 378.087 432.039 377.864 C 433.16 377.752 434.448 377.752 435.904 377.864 C 434.895 380.888 434.195 384.165 433.804 387.693 C 433.411 391.221 433.271 395.338 433.383 400.043 C 433.496 404.859 434.336 410.292 435.904 416.34 L 384.825 416.34 L 419.942 314.688 L 407.508 314.688 C 404.82 314.8 402.972 315.528 401.964 316.872 C 400.956 318.216 400.396 319.896 400.284 321.912 C 400.172 324.041 400.34 326.394 400.787 328.97 C 401.235 331.658 401.572 334.319 401.795 336.951 C 402.02 339.583 401.964 342.075 401.627 344.427 C 401.292 346.892 400.396 348.824 398.94 350.224 C 397.483 351.624 395.971 352.38 394.403 352.492 C 391.266 352.717 388.802 351.765 387.009 349.637 C 386.002 348.628 385.498 347.452 385.498 346.108 C 385.498 344.987 385.862 344.035 386.59 343.251 C 387.318 342.467 388.242 342.075 389.362 342.075 C 390.483 342.075 391.407 342.467 392.135 343.251 C 392.863 344.035 393.227 344.987 393.227 346.108 L 393.227 346.444 C 394.123 346.108 394.515 345.212 394.403 343.756 C 394.291 341.852 393.787 339.331 392.89 336.195 C 391.994 333.058 391.043 329.754 390.035 326.282 C 388.915 322.921 387.934 319.617 387.094 316.368 C 386.254 313.12 385.834 310.488 385.834 308.471 L 439.096 308.471 L 403.98 410.124 L 412.717 410.124 C 415.965 410.012 418.597 408.808 420.614 406.511 C 422.63 404.215 424.199 401.555 425.318 398.53 C 426.439 395.505 427.195 392.537 427.587 389.625 C 427.979 386.713 428.175 384.585 428.175 383.241 Z M 508.987 413.819 C 509.995 413.819 510.779 414.268 511.339 415.164 C 511.564 415.836 511.676 416.228 511.676 416.34 L 484.288 416.34 C 484.065 415.892 484.009 415.5 484.121 415.164 C 484.344 414.268 485.016 413.819 486.137 413.819 C 486.921 413.819 487.369 413.147 487.481 411.803 C 487.817 409.115 487.705 406.259 487.145 403.235 L 486.808 400.882 L 484.961 390.465 C 480.256 388.897 476.335 388.309 473.199 388.701 C 470.063 389.093 467.542 390.017 465.638 391.473 C 463.734 392.929 462.306 394.61 461.354 396.514 C 460.401 398.418 459.757 400.042 459.422 401.387 C 459.31 402.059 459.141 403.067 458.917 404.411 C 458.357 407.211 458.189 409.787 458.413 412.14 C 458.525 413.26 458.861 413.819 459.422 413.819 C 460.094 413.819 460.542 413.96 460.765 414.24 C 460.989 414.52 461.157 414.828 461.27 415.164 C 461.382 415.612 461.382 416.004 461.27 416.34 L 439.763 416.34 L 440.267 415.164 C 440.827 414.268 441.611 413.819 442.62 413.819 C 443.292 413.819 443.992 413.175 444.72 411.887 C 445.448 410.6 446.092 409.172 446.652 407.603 L 448.164 403.235 C 448.5 401.891 448.668 401.106 448.668 400.882 L 466.31 323.93 L 466.814 321.577 C 467.038 320.233 467.235 318.777 467.402 317.209 C 467.57 315.64 467.598 314.184 467.486 312.839 C 467.263 311.607 466.871 310.991 466.31 310.991 C 465.302 310.991 464.686 310.599 464.462 309.815 C 464.35 309.479 464.406 309.032 464.63 308.471 L 492.689 308.471 C 492.913 309.367 492.746 310.095 492.185 310.655 C 491.962 310.879 491.514 310.991 490.842 310.991 C 490.281 310.991 489.889 311.663 489.665 313.007 C 489.553 314.351 489.553 315.808 489.665 317.376 C 489.777 318.944 489.889 320.4 490.001 321.745 C 490.113 322.417 490.169 322.921 490.169 323.257 C 490.169 323.593 490.169 323.817 490.169 323.93 L 500.418 381.728 C 501.426 381.056 501.959 380.272 502.015 379.376 C 502.071 378.48 501.987 377.639 501.763 376.855 C 501.426 375.848 500.922 374.896 500.25 373.999 C 502.938 373.999 505.067 374.811 506.636 376.436 C 508.203 378.06 509.155 379.936 509.491 382.064 C 509.715 384.193 509.267 386.265 508.147 388.281 C 507.027 390.297 505.067 391.698 502.266 392.481 L 503.779 400.882 L 504.283 403.067 C 504.506 404.411 504.842 405.895 505.291 407.519 C 505.739 409.144 506.299 410.572 506.971 411.803 C 507.643 413.147 508.315 413.819 508.987 413.819 Z M 474.879 333.843 L 463.117 385.088 C 467.374 382.96 471.127 381.84 474.375 381.728 C 477.624 381.616 480.648 381.84 483.448 382.4 L 474.879 333.843 Z M 576.02 413.819 L 576.524 415.836 C 577.196 415.836 577.672 415.976 577.952 416.256 C 578.232 416.536 578.484 416.844 578.708 417.18 C 578.82 417.516 578.877 417.908 578.877 418.356 L 556.529 418.356 L 530.99 342.411 L 530.99 402.73 C 531.102 405.195 531.27 407.323 531.495 409.116 C 531.719 410.907 531.998 412.475 532.334 413.819 C 532.67 415.164 533.231 415.836 534.014 415.836 C 534.911 415.836 535.639 416.284 536.199 417.18 C 536.423 417.741 536.479 418.133 536.367 418.356 L 514.861 418.356 C 514.749 418.133 514.805 417.741 515.028 417.18 C 516.149 416.957 516.709 416.341 516.709 415.332 C 516.709 413.876 516.849 412.952 517.129 412.56 C 517.408 412.168 517.828 411.972 518.388 411.972 C 518.725 410.74 518.977 409.339 519.145 407.771 C 519.313 406.203 519.453 404.691 519.565 403.235 L 519.565 400.882 L 519.565 323.93 L 519.565 321.409 C 519.453 320.065 519.313 318.609 519.145 317.041 C 518.977 315.472 518.725 314.072 518.388 312.839 C 517.828 311.607 517.268 310.991 516.709 310.991 C 515.365 310.991 514.636 310.599 514.524 309.815 C 514.3 309.143 514.244 308.695 514.356 308.471 L 536.703 308.471 L 556.025 366.102 L 556.025 323.93 L 556.025 321.409 C 555.913 320.065 555.773 318.609 555.605 317.041 C 555.437 315.472 555.185 314.072 554.849 312.839 C 554.289 311.607 553.729 310.991 553.169 310.991 C 551.825 310.991 551.096 310.599 550.984 309.815 C 550.761 309.143 550.705 308.695 550.817 308.471 L 578.372 308.471 C 578.372 309.367 578.092 310.095 577.532 310.655 C 577.084 310.879 576.58 310.991 576.02 310.991 C 575.348 310.991 574.844 311.607 574.507 312.839 C 573.612 315.752 573.164 318.665 573.164 321.577 C 573.052 322.249 572.996 322.781 572.996 323.173 C 572.996 323.565 572.996 323.817 572.996 323.93 L 572.996 400.882 C 572.996 400.995 572.996 401.247 572.996 401.638 C 572.996 402.031 573.052 402.563 573.164 403.235 C 573.164 406.259 573.612 409.115 574.507 411.803 C 574.844 413.147 575.348 413.819 576.02 413.819 Z M 633.141 378.199 C 632.469 379.32 632.021 381.588 631.797 385.004 C 631.573 388.42 631.517 392.033 631.629 395.841 C 631.629 399.65 631.853 403.207 632.3 406.511 C 632.749 409.815 633.309 411.86 633.981 412.643 C 632.861 413.764 631.012 414.548 628.436 414.996 C 625.86 415.444 623.228 415.78 620.539 416.005 C 618.971 416.116 617.319 416.2 615.582 416.256 C 613.847 416.312 612.027 416.34 610.122 416.34 C 606.202 416.34 602.533 415.668 599.117 414.324 C 595.701 412.98 592.704 411.132 590.128 408.779 C 584.639 403.851 581.894 397.69 581.894 390.297 L 581.894 334.514 C 581.894 327.121 584.639 320.961 590.128 316.033 C 592.704 313.68 595.701 311.832 599.117 310.488 C 602.533 309.143 606.202 308.471 610.122 308.471 L 632.805 308.471 C 632.805 310.488 632.385 313.12 631.545 316.368 C 630.705 319.617 629.78 322.921 628.773 326.282 C 627.652 329.754 626.644 333.058 625.748 336.195 C 624.852 339.331 624.348 341.852 624.236 343.756 C 624.124 345.212 624.516 346.108 625.412 346.444 L 625.412 346.108 C 625.412 344.987 625.776 344.035 626.505 343.251 C 627.233 342.467 628.157 342.075 629.276 342.075 C 630.396 342.075 631.321 342.467 632.049 343.251 C 632.777 344.035 633.141 344.987 633.141 346.108 C 633.141 347.34 632.693 348.488 631.797 349.552 C 630.901 350.616 629.781 351.428 628.436 351.989 C 627.204 352.437 625.832 352.605 624.32 352.492 C 622.808 352.38 621.38 351.708 620.035 350.476 C 618.355 348.908 617.319 346.92 616.927 344.511 C 616.535 342.103 616.395 339.555 616.507 336.867 C 616.619 335.635 616.731 334.347 616.843 333.003 C 616.955 331.658 617.123 330.314 617.347 328.97 C 617.683 326.282 617.795 323.901 617.684 321.828 C 617.571 319.756 617.067 318.048 616.171 316.704 C 615.387 315.36 613.707 314.688 611.13 314.688 C 609.226 314.688 607.49 315.332 605.922 316.62 C 604.353 317.908 603.065 319.56 602.057 321.577 C 600.937 323.593 600.097 325.749 599.537 328.046 C 598.976 330.342 598.696 332.498 598.696 334.514 L 598.696 390.297 C 598.696 394.666 599.341 398.026 600.629 400.378 C 601.917 402.73 603.457 404.522 605.25 405.755 C 607.042 406.875 608.946 407.603 610.963 407.94 C 612.979 408.275 614.715 408.443 616.171 408.443 L 616.171 393.657 L 616.171 391.306 C 616.059 389.961 615.919 388.505 615.751 386.936 C 615.583 385.368 615.275 383.912 614.827 382.568 C 614.267 381.336 613.707 380.72 613.147 380.72 C 612.026 380.72 611.382 380.412 611.214 379.796 C 611.046 379.18 610.963 378.647 610.963 378.199 L 633.141 378.199 Z M 691.606 377.864 C 690.598 380.888 689.898 384.165 689.506 387.693 C 689.114 391.221 688.974 395.338 689.086 400.043 C 689.198 404.859 690.038 410.292 691.606 416.34 L 637.168 416.34 C 637.056 416.116 637.112 415.724 637.336 415.164 C 637.56 414.268 638.288 413.819 639.52 413.819 C 640.08 413.819 640.64 413.204 641.2 411.972 C 641.537 410.74 641.789 409.339 641.956 407.771 C 642.124 406.203 642.264 404.691 642.376 403.235 L 642.376 400.882 L 642.376 323.93 L 642.376 321.409 C 642.264 320.065 642.124 318.609 641.956 317.041 C 641.789 315.472 641.537 314.072 641.2 312.839 C 640.64 311.607 640.08 310.991 639.52 310.991 C 638.175 310.991 637.447 310.599 637.336 309.815 C 637.112 309.143 637.056 308.695 637.168 308.471 L 690.43 308.471 C 690.43 310.488 690.01 313.12 689.17 316.368 C 688.33 319.617 687.406 322.921 686.398 326.282 C 685.389 329.754 684.437 333.058 683.541 336.195 C 682.646 339.331 682.141 341.852 682.029 343.756 C 681.917 345.1 682.253 345.996 683.038 346.444 L 683.038 346.108 C 683.038 344.987 683.43 344.035 684.214 343.251 C 684.998 342.467 685.95 342.075 687.07 342.075 C 688.078 342.075 688.974 342.467 689.758 343.251 C 690.542 344.035 690.934 344.987 690.934 346.108 C 690.934 348.684 689.366 350.644 686.23 351.989 C 684.998 352.437 683.597 352.605 682.029 352.492 C 680.461 352.38 679.061 351.708 677.828 350.476 C 676.037 348.908 674.973 346.92 674.636 344.511 C 674.3 342.103 674.244 339.555 674.468 336.867 C 674.58 335.635 674.748 334.347 674.972 333.003 C 675.196 331.658 675.421 330.314 675.644 328.97 C 676.205 326.394 676.401 324.07 676.233 321.997 C 676.064 319.925 675.476 318.216 674.468 316.872 C 673.46 315.64 671.612 314.912 668.923 314.688 L 659.347 314.688 L 659.347 375.175 C 659.795 375.175 660.746 375.147 662.202 375.091 C 663.659 375.035 665.116 374.895 666.572 374.671 C 668.139 374.448 669.484 374.112 670.604 373.663 C 671.724 373.327 672.284 372.823 672.284 372.151 C 672.284 371.031 672.593 370.387 673.209 370.218 C 673.824 370.05 674.356 369.967 674.804 369.967 L 674.804 386.769 C 674.356 386.769 673.824 386.685 673.209 386.517 C 672.593 386.349 672.284 385.705 672.284 384.585 C 672.284 383.912 671.724 383.352 670.604 382.904 C 669.484 382.568 668.139 382.288 666.572 382.064 C 665.003 381.84 663.547 381.672 662.202 381.56 L 659.347 381.56 L 659.347 410.124 L 668.42 410.124 C 671.668 410.012 674.301 408.808 676.317 406.511 C 678.333 404.215 679.901 401.555 681.021 398.53 C 682.141 395.505 682.897 392.537 683.29 389.625 C 683.681 386.713 683.877 384.585 683.877 383.241 C 683.877 381.336 684.269 380.02 685.054 379.292 C 685.838 378.564 686.734 378.087 687.742 377.864 C 688.862 377.752 690.15 377.752 691.606 377.864 Z M 756.793 413.819 L 757.296 415.836 C 757.968 415.836 758.445 415.976 758.725 416.256 C 759.005 416.536 759.256 416.844 759.48 417.18 C 759.593 417.516 759.649 417.908 759.649 418.356 L 737.302 418.356 L 711.763 342.411 L 711.763 402.73 C 711.875 405.195 712.043 407.323 712.267 409.116 C 712.491 410.907 712.771 412.475 713.107 413.819 C 713.443 415.164 714.003 415.836 714.787 415.836 C 715.683 415.836 716.411 416.284 716.971 417.18 C 717.196 417.741 717.252 418.133 717.14 418.356 L 695.633 418.356 C 695.521 418.133 695.577 417.741 695.801 417.18 C 696.921 416.957 697.482 416.341 697.482 415.332 C 697.482 413.876 697.621 412.952 697.901 412.56 C 698.181 412.168 698.601 411.972 699.161 411.972 C 699.497 410.74 699.75 409.339 699.917 407.771 C 700.085 406.203 700.225 404.691 700.338 403.235 L 700.338 400.882 L 700.338 323.93 L 700.338 321.409 C 700.225 320.065 700.085 318.609 699.917 317.041 C 699.75 315.472 699.497 314.072 699.161 312.839 C 698.601 311.607 698.041 310.991 697.482 310.991 C 696.137 310.991 695.409 310.599 695.296 309.815 C 695.073 309.143 695.017 308.695 695.129 308.471 L 717.476 308.471 L 736.797 366.102 L 736.797 323.93 L 736.797 321.409 C 736.686 320.065 736.546 318.609 736.378 317.041 C 736.21 315.472 735.958 314.072 735.622 312.839 C 735.061 311.607 734.502 310.991 733.942 310.991 C 732.597 310.991 731.869 310.599 731.757 309.815 C 731.533 309.143 731.477 308.695 731.589 308.471 L 759.145 308.471 C 759.145 309.367 758.864 310.095 758.304 310.655 C 757.856 310.879 757.352 310.991 756.793 310.991 C 756.121 310.991 755.616 311.607 755.28 312.839 C 754.384 315.752 753.936 318.665 753.936 321.577 C 753.824 322.249 753.768 322.781 753.768 323.173 C 753.768 323.565 753.768 323.817 753.768 323.93 L 753.768 400.882 C 753.768 400.995 753.768 401.247 753.768 401.638 C 753.768 402.031 753.824 402.563 753.936 403.235 C 753.936 406.259 754.384 409.115 755.28 411.803 C 755.616 413.147 756.121 413.819 756.793 413.819 Z" style="text-wrap-mode: nowrap; stroke: rgb(0, 0, 0); stroke-linejoin: round; stroke-linecap: round; vector-effect: non-scaling-stroke; stroke-width: 2px;"/><path d="M 327.211 503.417 C 332.363 506.105 336.508 509.941 339.643 514.926 C 342.78 519.911 344.348 525.483 344.348 531.644 C 344.348 536.124 343.508 540.297 341.829 544.161 C 340.148 548.026 337.852 551.414 334.94 554.326 C 332.027 557.239 328.61 559.535 324.69 561.215 C 320.769 562.896 316.625 563.736 312.257 563.736 L 276.468 563.736 C 276.356 563.512 276.412 563.12 276.637 562.56 C 276.861 561.663 277.589 561.215 278.821 561.215 C 279.493 561.215 280.053 560.543 280.5 559.199 C 280.837 557.967 281.089 556.567 281.257 554.999 C 281.425 553.431 281.565 551.975 281.677 550.63 L 281.677 548.278 L 281.677 471.325 L 281.677 468.972 C 281.565 467.628 281.425 466.172 281.257 464.604 C 281.089 463.036 280.837 461.579 280.5 460.235 C 279.941 459.003 279.381 458.387 278.821 458.387 C 277.477 458.387 276.749 457.995 276.637 457.211 C 276.412 456.539 276.356 456.091 276.468 455.867 L 311.249 455.867 C 315.057 455.867 318.725 456.539 322.254 457.883 C 325.782 459.227 328.779 461.076 331.243 463.428 C 333.819 465.78 335.836 468.552 337.292 471.745 C 338.748 474.937 339.476 478.326 339.476 481.91 C 339.476 486.39 338.356 490.507 336.116 494.26 C 333.875 498.012 330.907 501.064 327.211 503.417 Z M 298.647 462.251 L 298.647 502.073 C 299.767 501.848 300.887 501.624 302.007 501.4 C 303.127 501.177 304.248 501.008 305.368 500.896 C 307.608 500.672 309.708 500.28 311.668 499.72 C 313.629 499.16 315.281 498.32 316.625 497.2 C 319.425 494.736 321.217 491.543 322.001 487.623 C 322.226 486.727 322.394 485.775 322.506 484.766 C 322.618 483.758 322.674 482.806 322.674 481.91 C 322.674 479.11 322.142 476.477 321.078 474.013 C 320.014 471.548 318.585 469.42 316.793 467.628 C 313.097 463.708 308.448 461.748 302.847 461.748 C 301.391 461.748 299.991 461.916 298.647 462.251 Z M 302.679 557.183 C 309.512 557.183 315.337 554.774 320.154 549.958 C 324.97 545.142 327.378 539.317 327.378 532.484 C 327.378 525.651 324.97 519.827 320.154 515.01 C 315.337 510.193 309.512 507.785 302.679 507.785 L 300.663 507.785 C 300.327 507.785 299.991 507.813 299.655 507.869 C 299.319 507.925 298.983 508.009 298.647 508.121 L 298.647 556.847 C 299.319 556.959 299.991 557.043 300.663 557.099 C 301.335 557.155 302.007 557.183 302.679 557.183 Z M 374.585 455.867 L 374.754 455.867 C 382.482 456.427 388.867 459.059 393.908 463.764 C 396.372 466.116 398.304 468.86 399.704 471.997 C 401.105 475.133 401.805 478.437 401.805 481.91 L 401.805 537.693 C 401.805 541.277 401.105 544.61 399.704 547.69 C 398.304 550.77 396.316 553.43 393.74 555.671 C 388.587 560.375 382.146 563.064 374.417 563.736 C 370.609 563.624 367.053 562.868 363.749 561.468 C 360.444 560.068 357.56 558.191 355.095 555.839 C 352.631 553.486 350.671 550.77 349.215 547.69 C 347.758 544.61 347.03 541.277 347.03 537.693 L 347.03 481.91 C 347.03 478.326 347.758 474.965 349.215 471.829 C 350.671 468.692 352.631 465.948 355.095 463.596 C 360.248 458.667 366.745 456.091 374.585 455.867 Z M 384.835 537.693 L 384.835 481.91 C 384.835 477.989 383.883 474.489 381.978 471.409 C 380.074 468.329 377.554 465.892 374.417 464.1 C 371.281 465.892 368.761 468.329 366.857 471.409 C 364.952 474.489 364 477.989 364 481.91 L 364 537.693 C 364 541.614 364.952 545.114 366.857 548.194 C 368.761 551.274 371.281 553.711 374.417 555.503 C 377.554 553.711 380.074 551.274 381.978 548.194 C 383.883 545.114 384.835 541.614 384.835 537.693 Z M 499.418 455.867 L 520.757 455.867 L 520.254 457.211 C 519.805 457.995 519.021 458.387 517.901 458.387 C 517.229 458.387 516.557 459.031 515.884 460.319 C 515.212 461.607 514.596 463.036 514.036 464.604 C 513.812 465.388 513.589 466.144 513.365 466.872 C 513.14 467.6 512.916 468.3 512.692 468.972 C 512.244 470.428 511.964 471.213 511.852 471.325 L 494.21 548.278 L 493.874 550.63 C 493.09 553.654 492.81 556.511 493.034 559.199 C 493.258 560.543 493.65 561.215 494.21 561.215 C 495.218 561.215 495.834 561.663 496.058 562.56 C 496.17 562.896 496.114 563.287 495.89 563.736 L 472.872 563.736 L 461.446 497.536 L 449.684 548.278 L 449.349 550.63 C 448.565 553.654 448.285 556.511 448.509 559.199 C 448.732 560.543 449.124 561.215 449.684 561.215 C 450.693 561.215 451.309 561.663 451.533 562.56 C 451.645 562.896 451.589 563.287 451.365 563.736 L 423.305 563.736 C 423.081 562.952 423.249 562.224 423.81 561.552 C 424.033 561.327 424.481 561.215 425.153 561.215 C 425.938 561.215 426.386 560.543 426.498 559.199 C 426.834 556.511 426.722 553.598 426.161 550.463 L 425.826 548.278 L 412.384 471.325 L 411.88 469.14 C 411.544 467.796 411.152 466.34 410.704 464.772 C 410.256 463.203 409.696 461.747 409.024 460.403 C 408.352 459.059 407.68 458.387 407.008 458.387 C 405.775 458.387 404.991 457.995 404.656 457.211 C 404.543 456.987 404.459 456.763 404.403 456.539 C 404.347 456.315 404.319 456.091 404.319 455.867 L 431.874 455.867 C 431.986 456.315 431.958 456.847 431.79 457.462 C 431.623 458.079 431.034 458.387 430.026 458.387 C 429.354 458.387 428.906 459.003 428.682 460.235 C 428.458 461.579 428.403 463.036 428.514 464.604 C 428.626 466.172 428.794 467.628 429.018 468.972 L 429.355 471.325 L 441.115 538.364 L 448.844 504.76 C 449.404 502.632 449.909 500.56 450.357 498.544 C 450.804 496.528 451.252 494.456 451.701 492.327 C 452.597 488.295 453.438 484.683 454.221 481.49 C 455.005 478.298 455.622 475.693 456.07 473.677 C 456.629 471.773 456.853 470.652 456.741 470.316 C 456.629 469.98 456.406 469.14 456.07 467.796 C 455.733 466.452 455.341 465.08 454.893 463.68 C 454.445 462.28 453.941 461.02 453.381 459.899 C 452.933 458.891 452.317 458.387 451.533 458.387 C 450.301 458.387 449.517 457.995 449.181 457.211 C 449.068 456.987 448.984 456.763 448.928 456.539 C 448.872 456.315 448.844 456.091 448.844 455.867 L 471.023 455.867 L 485.641 538.364 L 501.099 471.325 L 501.434 469.14 C 501.994 466.116 502.275 463.204 502.275 460.403 C 502.163 459.059 501.771 458.387 501.099 458.387 C 499.866 458.387 499.222 458.079 499.166 457.462 C 499.11 456.847 499.194 456.315 499.418 455.867 Z M 577.033 525.259 C 576.025 528.284 575.325 531.56 574.933 535.088 C 574.541 538.616 574.401 542.733 574.513 547.438 C 574.625 552.255 575.465 557.687 577.033 563.736 L 522.595 563.736 C 522.483 563.512 522.539 563.12 522.763 562.56 C 522.987 561.663 523.715 561.215 524.947 561.215 C 525.619 561.215 526.179 560.543 526.627 559.199 C 526.964 557.855 527.244 556.315 527.467 554.579 C 527.691 552.842 527.803 550.742 527.803 548.278 L 527.803 471.493 C 527.803 469.14 527.691 467.068 527.467 465.276 C 527.244 463.484 526.964 461.86 526.627 460.403 C 526.179 459.059 525.619 458.387 524.947 458.387 C 523.602 458.387 522.874 457.995 522.763 457.211 C 522.539 456.539 522.483 456.091 522.595 455.867 L 550.15 455.867 C 550.262 456.091 550.206 456.539 549.982 457.211 C 549.534 457.995 548.806 458.387 547.798 458.387 C 547.126 458.387 546.622 458.947 546.286 460.067 C 545.95 461.188 545.67 462.504 545.445 464.016 C 545.222 465.528 545.054 466.956 544.942 468.3 C 544.83 469.085 544.774 469.701 544.774 470.148 C 544.774 470.596 544.774 470.933 544.774 471.156 L 544.774 557.519 L 553.847 557.519 C 557.095 557.407 559.728 556.203 561.744 553.907 C 563.76 551.611 565.328 548.95 566.448 545.926 C 567.568 542.901 568.324 539.933 568.717 537.021 C 569.108 534.109 569.304 531.98 569.304 530.636 C 569.304 528.732 569.696 527.416 570.481 526.688 C 571.265 525.959 572.161 525.483 573.169 525.259 C 574.289 525.147 575.577 525.147 577.033 525.259 Z M 631.971 525.259 C 630.963 528.284 630.263 531.56 629.871 535.088 C 629.478 538.616 629.339 542.733 629.451 547.438 C 629.563 552.255 630.403 557.687 631.971 563.736 L 577.532 563.736 C 577.421 563.512 577.476 563.12 577.7 562.56 C 577.925 561.663 578.653 561.215 579.884 561.215 C 580.444 561.215 581.005 560.599 581.565 559.368 C 581.901 558.135 582.153 556.735 582.321 555.166 C 582.489 553.598 582.629 552.087 582.741 550.63 L 582.741 548.278 L 582.741 471.325 L 582.741 468.804 C 582.629 467.46 582.489 466.004 582.321 464.436 C 582.153 462.868 581.901 461.467 581.565 460.235 C 581.005 459.003 580.444 458.387 579.884 458.387 C 578.54 458.387 577.812 457.995 577.7 457.211 C 577.476 456.539 577.421 456.091 577.532 455.867 L 630.795 455.867 C 630.795 457.883 630.375 460.515 629.535 463.764 C 628.694 467.012 627.77 470.317 626.763 473.677 C 625.754 477.149 624.802 480.454 623.906 483.59 C 623.01 486.727 622.506 489.247 622.393 491.152 C 622.281 492.496 622.618 493.392 623.401 493.839 L 623.401 493.503 C 623.401 492.383 623.794 491.431 624.578 490.647 C 625.362 489.863 626.315 489.471 627.435 489.471 C 628.443 489.471 629.339 489.863 630.122 490.647 C 630.906 491.431 631.298 492.383 631.298 493.503 C 631.298 496.08 629.731 498.04 626.595 499.384 C 625.362 499.832 623.962 500 622.393 499.888 C 620.825 499.776 619.425 499.104 618.193 497.871 C 616.401 496.304 615.337 494.315 615.001 491.907 C 614.665 489.499 614.609 486.951 614.833 484.263 C 614.945 483.03 615.113 481.742 615.337 480.398 C 615.561 479.054 615.785 477.71 616.009 476.366 C 616.569 473.789 616.765 471.465 616.598 469.393 C 616.429 467.32 615.841 465.612 614.833 464.267 C 613.825 463.035 611.976 462.307 609.288 462.083 L 599.711 462.083 L 599.711 522.57 C 600.159 522.57 601.111 522.542 602.567 522.487 C 604.024 522.431 605.48 522.291 606.936 522.067 C 608.504 521.843 609.848 521.507 610.969 521.059 C 612.089 520.722 612.649 520.218 612.649 519.546 C 612.649 518.427 612.957 517.782 613.573 517.614 C 614.189 517.446 614.721 517.362 615.169 517.362 L 615.169 534.164 C 614.721 534.164 614.189 534.08 613.573 533.912 C 612.957 533.745 612.649 533.1 612.649 531.98 C 612.649 531.308 612.089 530.748 610.969 530.3 C 609.848 529.964 608.504 529.684 606.936 529.459 C 605.368 529.236 603.911 529.068 602.567 528.956 L 599.711 528.956 L 599.711 557.519 L 608.785 557.519 C 612.033 557.407 614.665 556.203 616.682 553.907 C 618.698 551.611 620.266 548.95 621.385 545.926 C 622.506 542.901 623.262 539.933 623.654 537.021 C 624.046 534.109 624.242 531.98 624.242 530.636 C 624.242 528.732 624.634 527.416 625.419 526.688 C 626.203 525.959 627.099 525.483 628.106 525.259 C 629.227 525.147 630.515 525.147 631.971 525.259 Z" style="text-wrap-mode: nowrap; stroke: rgb(0, 0, 0); stroke-linecap: round; stroke-linejoin: round; vector-effect: non-scaling-stroke; stroke-width: 2px;"/><path d="M 790.758 363.977 L 764.513 363.977 L 764.513 361.285 L 790.758 361.285 L 790.758 363.977 Z" style="text-wrap-mode: nowrap; stroke: rgb(0, 0, 0); stroke-linecap: round; stroke-linejoin: round; vector-effect: non-scaling-stroke; stroke-width: 4px;"/></svg>
