<?xml version="1.0" encoding="utf-8"?>
<svg xmlns="http://www.w3.org/2000/svg" viewBox="114.303 315.517 641.374 254.172">
  <path d="M 151.681 424.208 C 149.248 423.266 147.089 421.932 145.205 420.205 C 143.242 418.399 142.025 416.633 141.554 414.905 C 141.24 413.806 141.24 412.433 141.554 410.784 C 141.79 409.214 142.261 407.84 142.967 406.662 C 143.831 405.328 145.205 403.718 147.089 401.834 C 149.052 399.95 150.268 399.008 150.739 399.008 C 151.289 399.008 152.545 399.793 154.508 401.363 C 156.549 402.855 157.569 403.797 157.569 404.189 C 157.569 404.268 157.295 404.66 156.745 405.367 C 156.196 405.995 155.528 406.741 154.743 407.604 C 153.173 409.174 151.956 410.705 151.093 412.197 C 150.229 413.767 149.64 415.298 149.326 416.79 C 149.169 417.81 149.13 418.36 149.209 418.438 C 149.366 418.595 149.915 418.595 150.857 418.438 C 153.605 417.889 156.392 416.436 159.218 414.081 C 162.044 411.804 164.046 409.331 165.224 406.662 C 166.009 404.857 166.441 402.658 166.519 400.068 C 166.519 397.399 166.166 395.318 165.459 393.826 C 164.282 391.628 162.829 389.98 161.102 388.881 C 159.375 387.781 155.685 386.172 150.033 384.052 C 145.401 382.325 141.868 380.755 139.434 379.342 C 137.001 377.929 134.567 376.045 132.133 373.69 C 130.092 371.648 128.64 369.686 127.776 367.802 C 126.913 365.917 126.481 363.759 126.481 361.325 C 126.481 357.007 128.051 352.022 131.191 346.369 C 134.41 340.638 138.335 335.339 142.967 330.472 C 145.479 327.881 148.109 325.526 150.857 323.406 C 153.605 321.287 156.353 319.559 159.1 318.225 C 160.827 317.44 162.201 316.929 163.222 316.694 C 164.243 316.458 165.813 316.341 167.932 316.341 C 170.052 316.341 171.622 316.458 172.643 316.694 C 173.585 316.851 174.802 317.283 176.293 317.989 C 177.157 318.46 178.256 319.167 179.591 320.109 C 180.925 321.13 182.063 322.072 183.006 322.935 C 184.34 324.27 185.282 325.369 185.832 326.232 C 186.381 327.096 186.852 328.195 187.245 329.53 C 187.716 331.021 187.951 332.552 187.951 334.122 C 187.951 335.535 187.794 337.027 187.48 338.597 C 186.774 341.894 185.361 345.467 183.241 349.313 C 182.535 350.569 181.71 351.865 180.768 353.199 C 179.826 354.534 178.805 355.869 177.706 357.203 C 175.822 359.637 173.938 361.757 172.054 363.562 C 170.17 365.289 168.835 366.153 168.05 366.153 C 167.501 366.153 166.48 365.682 164.988 364.74 C 163.497 363.719 162.398 362.777 161.691 361.914 C 161.299 361.521 161.338 361.011 161.809 360.383 C 162.201 359.755 163.418 358.381 165.459 356.261 C 168.207 353.435 170.327 351.001 171.818 348.96 C 173.389 346.84 174.88 344.407 176.293 341.659 C 178.099 338.126 179.237 334.711 179.708 331.414 C 180.179 328.117 179.905 325.526 178.884 323.642 C 178.491 322.778 177.157 322.346 174.88 322.346 C 172.682 322.346 170.484 322.778 168.286 323.642 C 165.145 324.819 161.416 327.135 157.098 330.59 C 152.781 334.122 149.052 337.812 145.911 341.659 C 140.808 348.096 137.393 354.377 135.666 360.5 C 133.939 366.624 134.292 371.217 136.726 374.278 C 137.04 374.592 138.021 375.142 139.67 375.927 C 141.24 376.712 143.164 377.497 145.44 378.282 C 150.308 380.166 153.958 381.736 156.392 382.993 C 158.826 384.17 161.456 385.819 164.282 387.938 C 169.149 391.55 172.289 395.436 173.703 399.597 C 175.194 403.758 174.919 408.115 172.878 412.668 C 171.073 416.75 167.932 420.008 163.457 422.442 C 160.474 424.012 157.766 424.797 155.332 424.797 C 154.076 424.797 152.859 424.601 151.681 424.208 Z M 198.5 414.434 C 197.872 414.12 196.97 413.532 195.792 412.668 C 194.693 411.804 193.672 410.902 192.73 409.96 C 190.453 407.84 188.962 405.72 188.255 403.601 C 187.784 401.952 187.549 399.871 187.549 397.359 C 187.549 396.496 187.588 395.554 187.666 394.533 C 187.824 391.471 188.295 388.527 189.08 385.701 C 189.943 382.875 191.16 379.97 192.73 376.987 C 195.399 371.727 198.422 367.723 201.798 364.975 C 204.545 362.699 207.175 361.56 209.688 361.56 C 210.237 361.56 210.747 361.6 211.218 361.678 C 212.553 361.914 214.398 362.895 216.753 364.622 C 219.03 366.271 220.561 367.762 221.346 369.097 C 221.738 369.725 222.092 370.549 222.406 371.57 C 222.72 372.512 222.916 373.415 222.994 374.278 C 223.151 376.006 223.151 377.968 222.994 380.166 C 222.759 382.365 222.445 383.778 222.052 384.406 C 221.66 385.034 220.953 385.152 219.933 384.759 C 218.912 384.366 217.695 383.542 216.282 382.286 L 213.809 380.166 C 213.966 379.381 214.202 378.243 214.516 376.751 C 214.908 374.553 215.105 372.708 215.105 371.217 C 215.105 369.725 214.908 368.861 214.516 368.626 C 213.966 368.312 212.71 368.822 210.747 370.157 C 208.863 371.57 207.175 373.179 205.684 374.985 C 204.035 377.026 202.347 379.813 200.62 383.346 C 198.814 386.8 197.558 389.862 196.852 392.531 C 196.381 394.494 196.067 397.163 195.91 400.539 C 195.753 403.915 195.87 406.309 196.263 407.722 C 196.42 408.272 196.655 408.664 196.97 408.9 C 197.205 409.135 197.637 409.253 198.265 409.253 C 200.62 409.253 203.525 407.801 206.979 404.896 C 210.512 401.991 213.652 398.419 216.4 394.18 C 217.499 392.531 218.441 391.275 219.226 390.411 C 219.933 389.548 220.443 389.116 220.757 389.116 C 221.621 389.116 222.916 389.823 224.643 391.236 C 226.37 392.649 227.234 393.709 227.234 394.415 C 227.234 395.436 226.135 397.556 223.936 400.774 C 221.738 403.993 219.579 406.623 217.46 408.664 C 214.084 411.961 210.826 414.081 207.686 415.023 C 206.43 415.416 205.134 415.612 203.8 415.612 C 202.072 415.612 200.306 415.219 198.5 414.434 Z M 237.312 417.614 C 236.763 417.378 236.135 417.025 235.428 416.554 C 234.643 416.005 233.976 415.494 233.426 415.023 C 233.034 414.631 232.366 414.042 231.424 413.257 L 232.131 404.072 C 232.523 397.32 233.308 389.234 234.486 379.813 C 235.585 370.392 236.763 361.325 238.019 352.611 C 238.725 347.9 239.432 343.504 240.139 339.422 C 240.845 335.418 241.512 331.924 242.14 328.941 C 243.161 324.231 243.868 321.365 244.26 320.344 C 244.653 319.245 245.163 318.657 245.791 318.578 L 245.909 318.578 C 246.772 318.578 248.107 319.206 249.913 320.462 C 251.718 321.797 252.621 322.817 252.621 323.524 C 252.7 323.838 252.582 324.78 252.268 326.35 C 252.032 327.999 251.679 329.726 251.208 331.532 C 250.658 334.201 249.991 337.577 249.206 341.659 C 248.499 345.82 247.793 350.138 247.086 354.613 C 245.987 361.286 245.084 367.488 244.378 373.219 C 243.593 378.871 243.318 382.051 243.554 382.757 C 243.632 383.071 243.868 383.032 244.26 382.639 C 244.653 382.247 245.241 381.383 246.027 380.049 C 249.01 375.495 252.229 371.531 255.683 368.155 C 259.137 364.858 261.885 363.13 263.926 362.973 C 265.182 362.895 266.713 363.327 268.519 364.269 C 270.324 365.132 271.894 366.231 273.229 367.566 C 274.014 368.43 274.485 369.175 274.642 369.804 C 274.878 370.353 274.995 371.57 274.995 373.454 C 274.995 374.632 274.799 376.398 274.407 378.753 C 274.093 381.187 273.661 383.542 273.111 385.819 C 272.012 390.686 271.266 394.612 270.874 397.595 C 270.403 400.578 270.128 403.483 270.049 406.309 C 270.049 408.036 269.971 409.174 269.814 409.724 C 269.657 410.274 269.382 410.548 268.99 410.548 C 268.362 410.627 267.184 410.156 265.457 409.135 C 263.808 408.115 262.788 407.212 262.395 406.427 C 261.61 405.171 261.375 402.501 261.689 398.419 C 262.003 394.337 262.827 389.077 264.162 382.639 C 264.711 380.363 265.104 378.282 265.339 376.398 C 265.653 374.514 265.771 373.415 265.692 373.101 C 265.614 372.551 265.339 372.433 264.868 372.747 C 264.397 373.14 263.298 374.239 261.571 376.045 C 260.55 377.222 259.333 378.714 257.92 380.52 C 256.507 382.404 255.369 384.052 254.505 385.466 C 253.249 387.507 251.875 390.176 250.384 393.473 C 248.892 396.692 247.518 399.911 246.262 403.129 C 245.555 404.935 244.927 406.623 244.378 408.193 C 243.828 409.842 243.397 411.333 243.083 412.668 C 242.297 415.73 241.591 417.496 240.963 417.967 C 240.806 418.203 240.492 418.32 240.021 418.32 C 239.393 418.32 238.49 418.085 237.312 417.614 Z M 283.661 414.905 C 282.091 413.885 281.031 412.982 280.481 412.197 C 280.167 411.647 280.01 411.019 280.01 410.313 C 280.01 409.999 280.049 409.685 280.128 409.371 C 280.206 409.057 280.363 407.644 280.599 405.131 C 280.913 402.619 281.227 399.675 281.541 396.299 C 281.777 394.572 282.012 392.806 282.248 391 C 282.405 389.116 282.601 387.389 282.836 385.819 C 283.229 382.443 283.543 379.578 283.778 377.222 C 284.092 374.867 284.328 372.905 284.485 371.334 C 284.956 367.645 285.309 365.564 285.545 365.093 C 285.78 364.622 286.134 364.387 286.605 364.387 C 287.468 364.387 288.724 365.054 290.373 366.388 C 292.1 367.645 293.042 368.626 293.199 369.332 C 293.278 369.725 293.317 370.471 293.317 371.57 C 293.238 372.669 293.121 373.847 292.964 375.103 C 292.414 379.028 292.257 381.305 292.493 381.933 C 292.728 382.561 293.474 381.854 294.73 379.813 C 296.143 377.615 298.106 375.142 300.618 372.394 C 303.13 369.568 305.054 367.802 306.388 367.095 C 308.115 365.996 309.607 365.525 310.863 365.682 C 312.198 365.839 313.925 366.624 316.045 368.037 C 317.379 368.979 318.439 369.843 319.224 370.628 C 319.931 371.413 320.559 372.316 321.108 373.336 C 321.815 374.671 322.207 375.888 322.286 376.987 C 322.443 377.929 322.521 379.97 322.521 383.11 L 322.521 384.052 C 322.521 386.094 322.364 388.567 322.05 391.471 C 321.736 394.298 321.305 397.163 320.755 400.068 C 320.048 404.464 319.224 408.389 318.282 411.844 C 317.34 415.298 316.594 417.025 316.045 417.025 C 315.652 417.025 314.553 416.397 312.747 415.141 C 310.942 413.806 309.921 412.904 309.686 412.432 C 309.45 412.04 309.411 411.216 309.568 409.96 C 309.725 408.703 310.039 406.819 310.51 404.307 C 310.902 402.58 311.295 400.46 311.687 397.948 C 312.08 395.436 312.473 392.845 312.865 390.176 C 313.415 386.172 313.886 382.522 314.278 379.224 C 314.592 375.927 314.592 374.2 314.278 374.043 C 313.729 373.65 312.787 374.043 311.452 375.22 C 310.117 376.398 308.469 378.243 306.506 380.755 C 304.072 383.895 301.913 387.193 300.029 390.647 C 298.145 394.18 295.79 398.655 292.964 404.072 C 291.629 406.584 290.412 409.292 289.313 412.197 C 288.214 415.102 287.547 416.554 287.311 416.554 C 287.076 416.633 286.605 416.515 285.898 416.201 C 285.192 415.887 284.446 415.455 283.661 414.905 Z M 352.501 363.444 C 353.836 363.759 355.72 364.701 358.154 366.271 C 360.509 367.762 362.079 369.136 362.864 370.392 C 363.335 370.942 363.688 371.648 363.924 372.512 C 364.238 373.376 364.434 374.357 364.513 375.456 L 364.513 376.28 C 364.513 378.007 364.159 379.695 363.453 381.344 C 362.668 383.307 361.372 385.309 359.567 387.35 C 357.761 389.548 355.092 391.746 351.559 393.944 C 348.105 396.142 345.593 397.242 344.023 397.242 C 343.708 397.242 343.159 397.045 342.374 396.653 C 341.589 396.26 340.843 395.789 340.136 395.24 C 338.331 393.826 337.192 393.395 336.721 393.944 C 336.25 394.415 335.976 396.26 335.897 399.479 C 335.74 402.855 335.976 405.21 336.604 406.545 C 337.232 407.879 338.37 408.586 340.019 408.664 C 341.667 408.821 343.277 408.625 344.847 408.075 C 346.417 407.526 348.301 406.505 350.499 405.014 C 351.834 404.072 352.894 403.444 353.679 403.129 C 354.464 402.737 355.092 402.58 355.563 402.658 C 356.269 402.815 357.447 403.601 359.096 405.014 C 360.823 406.427 361.686 407.33 361.686 407.722 C 361.686 408.193 360.941 409.017 359.449 410.195 C 357.957 411.451 356.387 412.472 354.739 413.257 C 353.561 413.885 352.462 414.317 351.441 414.552 C 350.342 414.788 349.047 414.945 347.555 415.023 L 345.907 415.023 C 344.886 415.023 344.101 414.984 343.551 414.905 C 342.766 414.748 341.589 414.277 340.019 413.492 C 337.585 412.236 335.387 410.705 333.424 408.9 C 331.461 407.094 330.009 405.249 329.067 403.365 C 328.046 401.245 327.536 398.655 327.536 395.593 C 327.536 394.651 327.575 393.669 327.654 392.649 C 328.125 388.331 329.381 384.013 331.422 379.695 C 333.856 374.828 336.957 370.863 340.725 367.802 C 344.258 364.897 347.634 363.405 350.853 363.327 L 351.206 363.327 C 351.441 363.405 351.677 363.444 351.912 363.444 L 352.501 363.444 Z M 344.14 378.164 C 342.806 379.892 341.471 382.051 340.136 384.641 C 338.723 387.153 338.017 388.763 338.017 389.469 C 338.017 390.176 338.37 390.411 339.077 390.176 C 339.783 390.019 341.157 389.352 343.198 388.174 C 346.652 386.211 349.596 383.738 352.03 380.755 C 354.385 377.85 355.798 375.024 356.27 372.276 C 356.427 371.334 356.466 370.746 356.387 370.51 C 356.23 370.353 355.838 370.275 355.21 370.275 C 354.111 370.275 352.344 371.138 349.91 372.865 C 347.477 374.592 345.553 376.359 344.14 378.164 Z M 394.022 363.444 C 395.356 363.759 397.24 364.701 399.674 366.271 C 402.029 367.762 403.6 369.136 404.385 370.392 C 404.856 370.942 405.209 371.648 405.444 372.512 C 405.758 373.376 405.955 374.357 406.033 375.456 L 406.033 376.28 C 406.033 378.007 405.68 379.695 404.973 381.344 C 404.188 383.307 402.893 385.309 401.087 387.35 C 399.282 389.548 396.612 391.746 393.08 393.944 C 389.625 396.142 387.113 397.242 385.543 397.242 C 385.229 397.242 384.679 397.045 383.894 396.653 C 383.109 396.26 382.363 395.789 381.657 395.24 C 379.851 393.826 378.713 393.395 378.242 393.944 C 377.771 394.415 377.496 396.26 377.418 399.479 C 377.261 402.855 377.496 405.21 378.124 406.545 C 378.752 407.879 379.891 408.586 381.539 408.664 C 383.188 408.821 384.797 408.625 386.367 408.075 C 387.937 407.526 389.822 406.505 392.02 405.014 C 393.354 404.072 394.414 403.444 395.199 403.129 C 395.984 402.737 396.612 402.58 397.083 402.658 C 397.79 402.815 398.968 403.601 400.616 405.014 C 402.343 406.427 403.207 407.33 403.207 407.722 C 403.207 408.193 402.461 409.017 400.97 410.195 C 399.478 411.451 397.908 412.472 396.259 413.257 C 395.082 413.885 393.982 414.317 392.962 414.552 C 391.863 414.788 390.567 414.945 389.076 415.023 L 387.427 415.023 C 386.407 415.023 385.622 414.984 385.072 414.905 C 384.287 414.748 383.109 414.277 381.539 413.492 C 379.105 412.236 376.907 410.705 374.945 408.9 C 372.982 407.094 371.53 405.249 370.588 403.365 C 369.567 401.245 369.057 398.655 369.057 395.593 C 369.057 394.651 369.096 393.669 369.174 392.649 C 369.645 388.331 370.902 384.013 372.943 379.695 C 375.376 374.828 378.477 370.863 382.246 367.802 C 385.779 364.897 389.154 363.405 392.373 363.327 L 392.726 363.327 C 392.962 363.405 393.197 363.444 393.433 363.444 L 394.022 363.444 Z M 385.661 378.164 C 384.326 379.892 382.992 382.051 381.657 384.641 C 380.244 387.153 379.537 388.763 379.537 389.469 C 379.537 390.176 379.891 390.411 380.597 390.176 C 381.304 390.019 382.678 389.352 384.719 388.174 C 388.173 386.211 391.117 383.738 393.551 380.755 C 395.906 377.85 397.319 375.024 397.79 372.276 C 397.947 371.334 397.986 370.746 397.908 370.51 C 397.751 370.353 397.358 370.275 396.73 370.275 C 395.631 370.275 393.865 371.138 391.431 372.865 C 388.997 374.592 387.074 376.359 385.661 378.164 Z M 450.851 414.317 C 448.339 413.375 445.67 411.569 442.843 408.9 C 440.096 406.309 438.094 403.718 436.838 401.128 C 436.445 400.343 436.131 399.557 435.895 398.772 C 435.581 398.066 435.424 397.595 435.424 397.359 C 435.424 396.731 435.15 396.613 434.6 397.006 C 434.051 397.399 433.226 398.341 432.127 399.832 C 429.772 402.894 427.652 404.66 425.768 405.131 C 423.806 405.524 421.45 404.778 418.703 402.894 C 415.484 400.696 413.286 397.987 412.108 394.769 C 411.323 392.727 410.93 390.294 410.93 387.467 C 410.93 385.976 411.048 384.406 411.284 382.757 C 411.598 380.088 412.03 377.576 412.579 375.22 C 413.129 372.944 413.639 371.609 414.11 371.217 C 414.502 370.746 415.209 370.706 416.23 371.099 C 417.172 371.413 418.271 372.08 419.527 373.101 C 420.783 374.2 421.45 375.181 421.529 376.045 C 421.607 376.987 421.176 379.381 420.233 383.228 C 419.684 385.583 419.409 388.488 419.409 391.942 C 419.331 395.397 419.527 397.281 419.998 397.595 C 420.547 397.987 421.529 397.32 422.942 395.593 C 424.277 393.866 425.69 391.668 427.181 388.998 C 427.966 387.507 428.712 385.976 429.419 384.406 C 430.204 382.757 430.871 381.108 431.421 379.46 C 431.892 378.282 432.363 377.222 432.834 376.28 C 433.305 375.26 433.658 374.671 433.894 374.514 C 434.443 374.2 435.189 374.278 436.131 374.749 C 437.073 375.22 438.251 376.084 439.664 377.34 C 440.135 377.733 440.802 378.321 441.666 379.107 C 441.744 381.148 441.862 384.131 442.019 388.056 C 442.255 394.572 442.922 399.597 444.021 403.129 C 445.12 406.662 446.572 408.507 448.378 408.664 C 451.283 409.057 454.109 407.918 456.857 405.249 C 459.604 402.58 461.881 399.047 463.687 394.651 C 464.707 392.217 465.571 389.626 466.277 386.879 C 466.906 384.131 467.337 381.265 467.573 378.282 C 467.808 374.749 467.573 371.531 466.866 368.626 C 466.16 365.8 464.904 362.934 463.098 360.029 C 462.391 358.852 462.352 358.185 462.98 358.028 L 463.216 358.028 C 463.922 358.028 464.943 358.459 466.277 359.323 C 468.868 361.05 471.027 363.641 472.754 367.095 C 474.403 370.471 475.345 374.2 475.581 378.282 C 475.659 379.303 475.698 380.284 475.698 381.226 C 475.698 384.995 475.227 388.841 474.285 392.767 C 473.108 397.634 471.42 401.913 469.221 405.602 C 468.122 407.565 466.866 409.253 465.453 410.666 C 464.119 412.158 462.705 413.257 461.214 413.963 C 459.801 414.67 458.113 415.062 456.15 415.141 L 455.679 415.141 C 453.952 415.141 452.343 414.866 450.851 414.317 Z M 497.081 339.068 C 498.101 339.775 498.847 340.364 499.318 340.835 C 499.711 341.384 499.946 341.934 500.025 342.483 L 500.025 342.601 C 500.025 343.072 499.868 344.289 499.554 346.252 C 499.24 348.371 498.886 350.491 498.494 352.611 C 498.18 354.102 497.905 355.437 497.669 356.614 C 497.355 357.871 497.12 358.773 496.963 359.323 C 496.727 360.186 496.413 360.658 496.021 360.736 C 495.707 360.815 494.883 360.5 493.548 359.794 C 491.899 358.93 490.682 358.106 489.897 357.321 C 489.112 356.536 488.72 355.751 488.72 354.966 C 488.641 354.573 488.759 353.435 489.073 351.551 C 489.387 349.745 489.78 347.743 490.251 345.545 C 490.879 342.719 491.389 340.678 491.782 339.422 C 492.174 338.165 492.724 337.498 493.43 337.42 L 493.548 337.42 C 493.94 337.42 494.372 337.577 494.843 337.891 C 495.471 338.126 496.217 338.519 497.081 339.068 Z M 492.959 369.568 C 493.509 369.961 494.372 370.628 495.55 371.57 C 495.236 373.219 494.804 375.731 494.254 379.107 C 492.763 387.271 492.017 394.298 492.017 400.185 C 492.096 406.152 492.881 410.705 494.372 413.846 C 495.236 415.73 495.668 416.79 495.668 417.025 C 495.668 417.261 495.236 417.418 494.372 417.496 C 493.901 417.496 493.312 417.3 492.606 416.907 C 491.821 416.436 490.957 415.808 490.015 415.023 C 488.759 414.003 487.856 413.061 487.307 412.197 C 486.757 411.333 486.168 410.117 485.54 408.546 C 484.284 405.092 483.617 400.5 483.538 394.769 C 483.538 388.959 484.206 382.365 485.54 374.985 C 485.776 373.258 486.051 371.688 486.365 370.275 C 486.679 368.861 486.914 368.037 487.071 367.802 C 487.15 367.645 487.228 367.527 487.307 367.448 C 487.464 367.291 487.621 367.213 487.778 367.213 C 488.327 367.056 489.034 367.174 489.897 367.566 C 490.839 368.037 491.86 368.704 492.959 369.568 Z M 515.286 428.683 C 512.067 426.25 509.751 423.306 508.338 419.851 C 506.846 416.319 506.14 411.412 506.218 405.131 C 506.297 401.756 506.571 397.87 507.042 393.473 C 507.514 389.077 508.142 384.052 508.927 378.4 C 509.398 375.495 509.751 372.944 509.986 370.746 C 510.222 368.547 510.3 367.37 510.222 367.213 C 510.065 367.056 509.672 367.017 509.044 367.095 C 508.338 367.174 507.474 367.331 506.454 367.566 C 505.198 367.88 504.216 368.076 503.51 368.155 C 502.803 368.155 502.214 368.076 501.743 367.919 C 500.801 367.448 499.663 366.624 498.328 365.446 C 496.994 364.19 496.326 363.327 496.326 362.856 C 496.326 362.463 497.19 361.953 498.917 361.325 C 500.723 360.775 503.392 360.108 506.925 359.323 C 508.652 358.93 509.869 358.577 510.575 358.263 C 511.282 358.028 511.753 357.674 511.988 357.203 C 512.067 356.889 512.302 355.751 512.695 353.788 C 513.087 351.904 513.48 349.745 513.873 347.311 C 515.443 338.519 516.542 332.748 517.17 330.001 C 517.798 327.332 518.465 325.958 519.172 325.879 L 519.407 325.879 C 520.271 325.879 521.448 326.468 522.94 327.646 C 524.589 328.98 525.492 330.119 525.649 331.061 C 525.649 331.453 525.452 332.905 525.06 335.418 C 524.746 337.93 524.275 340.756 523.647 343.896 C 523.097 347.194 522.665 349.981 522.351 352.257 C 522.037 354.456 521.959 355.633 522.116 355.79 C 522.273 355.947 522.862 356.026 523.882 356.026 C 524.981 356.026 526.277 355.947 527.768 355.79 C 530.594 355.476 532.518 355.476 533.538 355.79 C 534.637 356.026 536.051 356.85 537.778 358.263 C 538.877 359.284 539.426 360.069 539.426 360.618 C 539.426 361.168 538.838 361.521 537.66 361.678 C 537.189 361.757 536.051 361.914 534.245 362.149 C 532.439 362.385 530.516 362.659 528.475 362.973 C 526.434 363.209 524.628 363.484 523.058 363.798 C 521.488 364.19 520.624 364.465 520.467 364.622 C 520.31 364.858 519.918 366.702 519.289 370.157 C 518.661 373.69 518.033 377.733 517.405 382.286 C 517.013 384.72 516.62 387.193 516.228 389.705 C 515.914 392.296 515.6 394.69 515.286 396.888 C 515.129 398.458 514.972 400.617 514.815 403.365 C 514.658 406.191 514.579 408.743 514.579 411.019 C 514.579 415.573 514.815 418.909 515.286 421.029 C 515.678 423.07 516.66 425.229 518.23 427.506 C 519.486 429.311 519.8 430.332 519.172 430.567 C 519.093 430.646 518.975 430.685 518.818 430.685 C 518.112 430.685 516.934 430.018 515.286 428.683 Z M 547.15 428.683 C 543.932 426.25 541.616 423.306 540.202 419.851 C 538.711 416.319 538.004 411.412 538.083 405.131 C 538.161 401.756 538.436 397.87 538.907 393.473 C 539.378 389.077 540.006 384.052 540.791 378.4 C 541.262 375.495 541.616 372.944 541.851 370.746 C 542.087 368.547 542.165 367.37 542.087 367.213 C 541.93 367.056 541.537 367.017 540.909 367.095 C 540.202 367.174 539.339 367.331 538.318 367.566 C 537.062 367.88 536.081 368.076 535.374 368.155 C 534.668 368.155 534.079 368.076 533.608 367.919 C 532.666 367.448 531.527 366.624 530.193 365.446 C 528.858 364.19 528.191 363.327 528.191 362.856 C 528.191 362.463 529.055 361.953 530.782 361.325 C 532.587 360.775 535.257 360.108 538.789 359.323 C 540.517 358.93 541.733 358.577 542.44 358.263 C 543.146 358.028 543.618 357.674 543.853 357.203 C 543.932 356.889 544.167 355.751 544.56 353.788 C 544.952 351.904 545.345 349.745 545.737 347.311 C 547.307 338.519 548.406 332.748 549.034 330.001 C 549.662 327.332 550.33 325.958 551.036 325.879 L 551.272 325.879 C 552.135 325.879 553.313 326.468 554.805 327.646 C 556.453 328.98 557.356 330.119 557.513 331.061 C 557.513 331.453 557.317 332.905 556.924 335.418 C 556.61 337.93 556.139 340.756 555.511 343.896 C 554.962 347.194 554.53 349.981 554.216 352.257 C 553.902 354.456 553.823 355.633 553.98 355.79 C 554.137 355.947 554.726 356.026 555.747 356.026 C 556.846 356.026 558.141 355.947 559.633 355.79 C 562.459 355.476 564.382 355.476 565.403 355.79 C 566.502 356.026 567.915 356.85 569.642 358.263 C 570.741 359.284 571.291 360.069 571.291 360.618 C 571.291 361.168 570.702 361.521 569.525 361.678 C 569.054 361.757 567.915 361.914 566.11 362.149 C 564.304 362.385 562.381 362.659 560.339 362.973 C 558.298 363.209 556.493 363.484 554.922 363.798 C 553.352 364.19 552.489 364.465 552.332 364.622 C 552.175 364.858 551.782 366.702 551.154 370.157 C 550.526 373.69 549.898 377.733 549.27 382.286 C 548.877 384.72 548.485 387.193 548.092 389.705 C 547.778 392.296 547.464 394.69 547.15 396.888 C 546.993 398.458 546.836 400.617 546.679 403.365 C 546.522 406.191 546.444 408.743 546.444 411.019 C 546.444 415.573 546.679 418.909 547.15 421.029 C 547.543 423.07 548.524 425.229 550.094 427.506 C 551.35 429.311 551.664 430.332 551.036 430.567 C 550.958 430.646 550.84 430.685 550.683 430.685 C 549.977 430.685 548.799 430.018 547.15 428.683 Z M 575.953 414.434 C 575.325 414.12 574.422 413.532 573.245 412.668 C 572.146 411.804 571.125 410.902 570.183 409.96 C 567.906 407.84 566.415 405.72 565.708 403.601 C 565.237 401.952 565.001 399.871 565.001 397.359 C 565.001 396.496 565.041 395.554 565.119 394.533 C 565.276 391.471 565.747 388.527 566.532 385.701 C 567.396 382.875 568.613 379.97 570.183 376.987 C 572.852 371.727 575.875 367.723 579.25 364.975 C 581.998 362.699 584.628 361.56 587.14 361.56 C 587.69 361.56 588.2 361.6 588.671 361.678 C 590.006 361.914 591.851 362.895 594.206 364.622 C 596.483 366.271 598.013 367.762 598.799 369.097 C 599.191 369.725 599.544 370.549 599.858 371.57 C 600.172 372.512 600.369 373.415 600.447 374.278 C 600.604 376.006 600.604 377.968 600.447 380.166 C 600.212 382.365 599.898 383.778 599.505 384.406 C 599.113 385.034 598.406 385.152 597.385 384.759 C 596.365 384.366 595.148 383.542 593.735 382.286 L 591.262 380.166 C 591.419 379.381 591.654 378.243 591.968 376.751 C 592.361 374.553 592.557 372.708 592.557 371.217 C 592.557 369.725 592.361 368.861 591.968 368.626 C 591.419 368.312 590.163 368.822 588.2 370.157 C 586.316 371.57 584.628 373.179 583.137 374.985 C 581.488 377.026 579.8 379.813 578.073 383.346 C 576.267 386.8 575.011 389.862 574.305 392.531 C 573.833 394.494 573.519 397.163 573.362 400.539 C 573.205 403.915 573.323 406.309 573.716 407.722 C 573.873 408.272 574.108 408.664 574.422 408.9 C 574.658 409.135 575.09 409.253 575.718 409.253 C 578.073 409.253 580.978 407.801 584.432 404.896 C 587.965 401.991 591.105 398.419 593.853 394.18 C 594.952 392.531 595.894 391.275 596.679 390.411 C 597.385 389.548 597.896 389.116 598.21 389.116 C 599.073 389.116 600.369 389.823 602.096 391.236 C 603.823 392.649 604.687 393.709 604.687 394.415 C 604.687 395.436 603.587 397.556 601.389 400.774 C 599.191 403.993 597.032 406.623 594.912 408.664 C 591.537 411.961 588.279 414.081 585.138 415.023 C 583.882 415.416 582.587 415.612 581.252 415.612 C 579.525 415.612 577.759 415.219 575.953 414.434 Z M 614.765 417.614 C 614.216 417.378 613.587 417.025 612.881 416.554 C 612.096 416.005 611.429 415.494 610.879 415.023 C 610.486 414.631 609.819 414.042 608.877 413.257 L 609.584 404.072 C 609.976 397.32 610.761 389.234 611.939 379.813 C 613.038 370.392 614.216 361.325 615.472 352.611 C 616.178 347.9 616.885 343.504 617.591 339.422 C 618.298 335.418 618.965 331.924 619.593 328.941 C 620.614 324.231 621.32 321.365 621.713 320.344 C 622.105 319.245 622.616 318.657 623.244 318.578 L 623.362 318.578 C 624.225 318.578 625.56 319.206 627.365 320.462 C 629.171 321.797 630.074 322.817 630.074 323.524 C 630.152 323.838 630.035 324.78 629.721 326.35 C 629.485 327.999 629.132 329.726 628.661 331.532 C 628.111 334.201 627.444 337.577 626.659 341.659 C 625.952 345.82 625.246 350.138 624.539 354.613 C 623.44 361.286 622.537 367.488 621.831 373.219 C 621.046 378.871 620.771 382.051 621.006 382.757 C 621.085 383.071 621.32 383.032 621.713 382.639 C 622.105 382.247 622.694 381.383 623.479 380.049 C 626.463 375.495 629.681 371.531 633.136 368.155 C 636.59 364.858 639.338 363.13 641.379 362.973 C 642.635 362.895 644.166 363.327 645.971 364.269 C 647.777 365.132 649.347 366.231 650.682 367.566 C 651.467 368.43 651.938 369.175 652.095 369.804 C 652.33 370.353 652.448 371.57 652.448 373.454 C 652.448 374.632 652.252 376.398 651.859 378.753 C 651.545 381.187 651.114 383.542 650.564 385.819 C 649.465 390.686 648.719 394.612 648.327 397.595 C 647.856 400.578 647.581 403.483 647.502 406.309 C 647.502 408.036 647.424 409.174 647.267 409.724 C 647.11 410.274 646.835 410.548 646.442 410.548 C 645.814 410.627 644.637 410.156 642.91 409.135 C 641.261 408.115 640.24 407.212 639.848 406.427 C 639.063 405.171 638.827 402.501 639.141 398.419 C 639.455 394.337 640.28 389.077 641.614 382.639 C 642.164 380.363 642.556 378.282 642.792 376.398 C 643.106 374.514 643.224 373.415 643.145 373.101 C 643.067 372.551 642.792 372.433 642.321 372.747 C 641.85 373.14 640.751 374.239 639.024 376.045 C 638.003 377.222 636.786 378.714 635.373 380.52 C 633.96 382.404 632.822 384.052 631.958 385.466 C 630.702 387.507 629.328 390.176 627.836 393.473 C 626.345 396.692 624.971 399.911 623.715 403.129 C 623.008 404.935 622.38 406.623 621.831 408.193 C 621.281 409.842 620.849 411.333 620.535 412.668 C 619.75 415.73 619.044 417.496 618.416 417.967 C 618.259 418.203 617.945 418.32 617.474 418.32 C 616.845 418.32 615.943 418.085 614.765 417.614 Z M 682.781 363.444 C 684.116 363.759 686 364.701 688.434 366.271 C 690.789 367.762 692.359 369.136 693.144 370.392 C 693.615 370.942 693.968 371.648 694.204 372.512 C 694.518 373.376 694.714 374.357 694.793 375.456 L 694.793 376.28 C 694.793 378.007 694.439 379.695 693.733 381.344 C 692.948 383.307 691.652 385.309 689.847 387.35 C 688.041 389.548 685.372 391.746 681.839 393.944 C 678.385 396.142 675.873 397.242 674.303 397.242 C 673.988 397.242 673.439 397.045 672.654 396.653 C 671.869 396.26 671.123 395.789 670.416 395.24 C 668.611 393.826 667.472 393.395 667.001 393.944 C 666.53 394.415 666.256 396.26 666.177 399.479 C 666.02 402.855 666.256 405.21 666.884 406.545 C 667.512 407.879 668.65 408.586 670.299 408.664 C 671.947 408.821 673.557 408.625 675.127 408.075 C 676.697 407.526 678.581 406.505 680.779 405.014 C 682.114 404.072 683.174 403.444 683.959 403.129 C 684.744 402.737 685.372 402.58 685.843 402.658 C 686.55 402.815 687.727 403.601 689.376 405.014 C 691.103 406.427 691.966 407.33 691.966 407.722 C 691.966 408.193 691.221 409.017 689.729 410.195 C 688.237 411.451 686.667 412.472 685.019 413.257 C 683.841 413.885 682.742 414.317 681.721 414.552 C 680.622 414.788 679.327 414.945 677.835 415.023 L 676.187 415.023 C 675.166 415.023 674.381 414.984 673.831 414.905 C 673.046 414.748 671.869 414.277 670.299 413.492 C 667.865 412.236 665.667 410.705 663.704 408.9 C 661.741 407.094 660.289 405.249 659.347 403.365 C 658.326 401.245 657.816 398.655 657.816 395.593 C 657.816 394.651 657.855 393.669 657.934 392.649 C 658.405 388.331 659.661 384.013 661.702 379.695 C 664.136 374.828 667.237 370.863 671.005 367.802 C 674.538 364.897 677.914 363.405 681.133 363.327 L 681.486 363.327 C 681.721 363.405 681.957 363.444 682.192 363.444 L 682.781 363.444 Z M 674.42 378.164 C 673.086 379.892 671.751 382.051 670.416 384.641 C 669.003 387.153 668.297 388.763 668.297 389.469 C 668.297 390.176 668.65 390.411 669.357 390.176 C 670.063 390.019 671.437 389.352 673.478 388.174 C 676.932 386.211 679.876 383.738 682.31 380.755 C 684.665 377.85 686.078 375.024 686.55 372.276 C 686.707 371.334 686.746 370.746 686.667 370.51 C 686.51 370.353 686.118 370.275 685.49 370.275 C 684.391 370.275 682.624 371.138 680.19 372.865 C 677.757 374.592 675.833 376.359 674.42 378.164 Z M 702.634 414.905 C 701.064 413.885 700.004 412.982 699.454 412.197 C 699.14 411.647 698.983 411.019 698.983 410.313 C 698.983 409.999 699.023 409.685 699.101 409.371 C 699.18 409.057 699.337 407.644 699.572 405.131 C 699.886 402.619 700.2 399.675 700.514 396.299 C 700.75 394.572 700.985 392.806 701.221 391 C 701.378 389.116 701.574 387.389 701.81 385.819 C 702.202 382.443 702.516 379.578 702.752 377.222 C 703.066 374.867 703.301 372.905 703.458 371.334 C 703.929 367.645 704.283 365.564 704.518 365.093 C 704.754 364.622 705.107 364.387 705.578 364.387 C 706.441 364.387 707.698 365.054 709.346 366.388 C 711.073 367.645 712.015 368.626 712.172 369.332 C 712.251 369.725 712.29 370.471 712.29 371.57 C 712.212 372.669 712.094 373.847 711.937 375.103 C 711.387 379.028 711.23 381.305 711.466 381.933 C 711.701 382.561 712.447 381.854 713.703 379.813 C 715.116 377.615 717.079 375.142 719.591 372.394 C 722.104 369.568 724.027 367.802 725.362 367.095 C 727.089 365.996 728.58 365.525 729.836 365.682 C 731.171 365.839 732.898 366.624 735.018 368.037 C 736.352 368.979 737.412 369.843 738.197 370.628 C 738.904 371.413 739.532 372.316 740.082 373.336 C 740.788 374.671 741.181 375.888 741.259 376.987 C 741.416 377.929 741.495 379.97 741.495 383.11 L 741.495 384.052 C 741.495 386.094 741.338 388.567 741.024 391.471 C 740.71 394.298 740.278 397.163 739.728 400.068 C 739.022 404.464 738.197 408.389 737.255 411.844 C 736.313 415.298 735.567 417.025 735.018 417.025 C 734.625 417.025 733.526 416.397 731.721 415.141 C 729.915 413.806 728.894 412.904 728.659 412.432 C 728.423 412.04 728.384 411.216 728.541 409.96 C 728.698 408.703 729.012 406.819 729.483 404.307 C 729.876 402.58 730.268 400.46 730.661 397.948 C 731.053 395.436 731.446 392.845 731.838 390.176 C 732.388 386.172 732.859 382.522 733.251 379.224 C 733.565 375.927 733.565 374.2 733.251 374.043 C 732.702 373.65 731.76 374.043 730.425 375.22 C 729.091 376.398 727.442 378.243 725.479 380.755 C 723.046 383.895 720.887 387.193 719.003 390.647 C 717.118 394.18 714.763 398.655 711.937 404.072 C 710.602 406.584 709.385 409.292 708.286 412.197 C 707.187 415.102 706.52 416.554 706.284 416.554 C 706.049 416.633 705.578 416.515 704.871 416.201 C 704.165 415.887 703.419 415.455 702.634 414.905 Z"/>
  <path d="M 136.377 462.231 C 136.133 462.231 135.898 462.358 135.771 462.592 C 134.092 465.629 132.051 469.077 130.498 469.994 C 130.098 469.116 129.893 468.237 129.893 467.27 C 129.893 463.549 131.26 457.837 132.891 453.872 C 132.979 453.599 133.018 453.355 133.018 453.111 C 133.018 451.275 130.86 450.796 128.653 450.796 C 128.496 451.275 128.291 452.036 128.057 452.954 C 124.815 462.309 122.657 467.914 119.415 469.877 C 119.454 462.514 122.579 453.238 122.579 452.593 C 122.579 451.236 121.055 450.952 119.259 450.952 C 118.936 450.952 118.536 450.992 118.253 451.07 C 117.374 453.316 114.737 461.069 114.737 467.914 C 114.737 468.549 114.855 469.194 115.372 469.789 C 116.339 470.873 118.018 472.592 119.737 472.592 C 121.895 472.592 124.737 468.276 126.211 464.712 C 126.377 467.553 126.534 470.112 129.619 471.869 C 130.098 472.153 130.615 472.27 131.094 472.27 C 133.018 472.27 135.654 467.397 137.539 463.432 C 137.773 462.876 137.012 462.231 136.377 462.231 Z M 158.13 462.27 C 157.896 462.27 157.652 462.358 157.535 462.592 C 156.294 464.917 154.332 468.149 152.213 469.594 C 151.773 468.715 151.695 468.032 151.695 467.036 C 151.695 462.309 153.531 458.472 153.531 454.595 C 153.531 452.837 151.373 451.158 150.133 451.158 C 147.535 451.158 144.293 454.79 141.93 459.39 C 142.291 457.397 142.77 454.273 142.77 453.95 C 142.77 452.437 141.139 451.597 139.137 451.597 C 138.297 455.679 136.217 463.637 136.217 467.709 C 136.217 468.51 136.217 469.516 136.53 470.073 C 137.213 471.274 138.532 471.869 139.772 471.869 C 140.651 471.869 140.973 471.518 140.973 470.434 C 140.973 469.955 141.012 469.389 141.09 468.95 C 142.614 461.87 146.178 455.034 149.059 453.872 C 149.059 454.595 146.891 460.317 146.891 466.43 C 146.891 468.95 149.293 472.035 152.369 472.035 C 154.654 472.035 157.613 467.153 159.292 463.432 C 159.536 462.798 158.775 462.27 158.13 462.27 Z M 181.49 462.309 C 181.256 462.309 181.05 462.358 180.972 462.514 C 179.576 465.229 177.535 468.91 175.094 470.473 C 174.732 469.711 174.615 468.91 174.615 468.149 C 174.615 463.549 178.853 447.632 180.855 441.158 C 181.011 440.631 181.129 440.113 181.129 439.557 C 181.129 438.277 179.332 437.115 177.33 436.998 C 177.008 437.799 176.812 438.434 176.529 439.312 C 175.729 441.793 173.209 449.712 171.813 455.034 C 170.494 451.997 168.932 450.835 167.213 450.835 C 166.012 450.835 163.854 451.158 163.132 451.87 C 160.368 454.634 158.337 459.35 158.337 465.278 C 158.337 470.834 163.376 472.475 164.45 472.475 C 166.53 472.475 168.649 470.317 170.494 466.43 C 170.69 469.477 170.856 470.756 173.971 472.436 C 174.488 472.709 174.977 472.836 175.416 472.836 C 177.535 472.836 181.168 466.909 182.691 463.432 C 183.013 462.798 182.095 462.309 181.49 462.309 Z M 163.893 470.395 C 163.288 469.116 163.171 468.071 163.171 466.752 C 163.171 461.831 165.055 456.714 167.936 453.355 C 168.854 454.439 169.811 455.552 171.256 457.632 C 170.768 460.317 170.612 461.352 170.494 462.192 C 168.336 466.352 166.334 469.877 163.893 470.395 Z M 215.887 462.309 C 215.653 462.309 215.448 462.358 215.369 462.514 C 213.973 465.229 211.932 468.91 209.491 470.473 C 209.13 469.711 209.012 468.91 209.012 468.149 C 209.012 463.549 213.25 447.632 215.252 441.158 C 215.409 440.631 215.526 440.113 215.526 439.557 C 215.526 438.277 213.729 437.115 211.727 436.998 C 211.405 437.799 211.21 438.434 210.926 439.312 C 210.126 441.793 207.606 449.712 206.21 455.034 C 204.892 451.997 203.329 450.835 201.61 450.835 C 200.409 450.835 198.251 451.158 197.529 451.87 C 194.765 454.634 192.734 459.35 192.734 465.278 C 192.734 470.834 197.773 472.475 198.847 472.475 C 200.927 472.475 203.046 470.317 204.892 466.43 C 205.087 469.477 205.253 470.756 208.368 472.436 C 208.885 472.709 209.374 472.836 209.813 472.836 C 211.932 472.836 215.565 466.909 217.088 463.432 C 217.41 462.798 216.492 462.309 215.887 462.309 Z M 198.29 470.395 C 197.685 469.116 197.568 468.071 197.568 466.752 C 197.568 461.831 199.452 456.714 202.333 453.355 C 203.251 454.439 204.208 455.552 205.653 457.632 C 205.165 460.317 205.009 461.352 204.892 462.192 C 202.733 466.352 200.732 469.877 198.29 470.395 Z M 222.206 448.794 C 223.885 448.794 225.126 447.837 225.887 446.314 L 226.649 444.83 C 227.284 443.551 227.606 442.955 227.606 442.555 C 227.606 441.07 224.93 440.435 222.85 440.435 C 221.649 443.834 220.888 445.914 220.888 447.593 C 220.888 448.033 220.927 448.355 220.966 448.599 C 221.405 448.716 221.688 448.794 222.206 448.794 Z M 221.61 471.635 C 223.925 471.635 227.245 466.957 228.885 463.432 C 229.207 462.749 228.407 462.27 227.772 462.27 C 227.489 462.27 227.245 462.358 227.127 462.592 C 226.044 464.555 224.247 467.309 221.327 469.633 C 221.044 469.155 220.927 468.637 220.927 467.709 C 220.927 463.833 222.011 460.796 223.124 457.593 C 223.563 456.353 223.925 455.396 223.925 454.829 C 223.925 453.277 221.688 452.232 219.452 452.232 C 219.13 453.238 218.769 454.234 218.446 455.191 C 217.05 459.155 215.849 462.632 215.849 465.434 C 215.849 467.036 216.249 468.354 217.724 469.672 C 219.091 470.912 220.243 471.635 221.61 471.635 Z M 245.245 462.27 C 244.961 462.27 244.727 462.358 244.61 462.592 C 241.963 467.309 237.882 469.828 235.411 469.828 C 234.61 469.828 233.243 468.598 233.243 464.995 C 233.243 463.872 233.331 462.837 233.487 461.909 C 234.366 462.114 235.206 462.231 235.968 462.231 C 239.483 462.231 241.768 460.229 241.768 456.675 C 241.768 453.599 240.362 452.193 239.444 451.675 C 238.926 451.353 238.126 451.236 237.803 451.236 C 237.608 451.236 237.442 451.275 237.325 451.314 C 236.485 451.158 235.606 451.031 235.089 451.031 C 233.204 451.031 228.126 455.718 228.126 463.198 C 228.126 470.278 233.526 472.192 235.89 472.192 C 239.805 472.192 244.444 467.553 246.328 463.51 C 246.641 462.876 245.889 462.27 245.245 462.27 Z M 236.847 454.556 C 237.091 454.273 237.325 453.989 237.53 453.794 C 237.843 454.517 238.048 455.357 238.048 456.353 C 238.048 459.116 236.807 460.112 234.366 460.112 C 234.21 460.112 234.044 460.112 233.849 460.073 C 234.649 457.271 236.007 455.591 236.847 454.556 Z"/>
  <path d="M 293.578 490.634 C 296.676 472.541 300.598 450.525 300.598 449.897 C 300.598 448.034 295.615 443.505 293.405 443.245 C 279.732 467.21 267.229 478.478 249.288 490.634 C 249.461 493.927 252.039 499.084 254.445 499.084 C 255.766 499.084 271.303 498.196 282.657 497.568 C 281.054 506.43 279.905 513.191 279.905 514.339 C 279.905 516.658 284.26 519.301 288.247 519.93 C 288.616 518.413 289.049 516.116 289.418 514.079 C 289.504 513.364 290.826 506.257 292.429 496.939 C 293.036 496.939 293.491 496.853 293.838 496.853 C 298.627 496.506 303.784 494.361 304.325 491.436 C 303.155 491.175 299.255 490.829 293.578 490.634 Z M 282.05 490.46 C 275.658 490.46 268.637 490.634 261.444 490.915 C 272.906 480.71 282.05 470.59 289.764 458.955 C 288.074 467.839 285.864 479.908 283.914 490.46 L 282.05 490.46 Z"/>
  <path d="M 341.477 508.196 C 337.193 506.185 333.644 504.517 333.644 499.365 C 333.644 493.266 339.466 486.839 345.418 486.299 C 346.498 486.757 348.231 489.979 348.231 495.065 L 348.231 495.604 C 347.708 497.55 347.299 499.284 346.972 500.625 C 349.981 500.494 352.467 500.837 354.462 495.882 C 356.948 489.717 359.221 484.893 359.221 482.881 C 359.221 480.804 356.408 478.662 354.069 478.319 C 352.925 480.069 351.796 483.356 350.652 486.97 C 349.638 484.222 348.1 481.867 344.486 481.867 C 342.884 481.867 340.398 481.949 338.059 482.342 C 331.894 483.421 326.007 489.177 326.007 497.141 C 326.007 506.594 333.432 507.738 339.662 511.483 C 343.276 513.691 346.498 516.373 346.498 524.01 C 346.498 534.656 339.4 542.767 331.158 542.767 C 329.278 542.767 327.266 542.358 325.337 541.426 C 323.93 539.807 322.982 537.747 322.982 534.182 C 322.982 525.612 330.357 522.669 330.357 519.922 C 330.357 517.648 328.542 515.702 325.925 513.495 C 320.3 517.174 315.819 523.601 315.819 530.568 C 315.819 537.534 321.919 547.591 336.784 547.591 C 345.566 547.591 354.871 539.415 354.871 526.348 C 354.871 514.165 347.577 511.009 341.477 508.196 Z M 374.894 504.582 C 377.707 504.582 379.784 502.98 381.059 500.428 L 382.335 497.943 C 383.398 495.8 383.938 494.803 383.938 494.132 C 383.938 491.647 379.457 490.584 375.974 490.584 C 373.962 496.275 372.686 499.758 372.686 502.571 C 372.686 503.307 372.752 503.846 372.817 504.255 C 373.553 504.451 374.027 504.582 374.894 504.582 Z M 373.897 542.832 C 377.772 542.832 383.332 534.999 386.08 529.096 C 386.619 527.951 385.279 527.15 384.216 527.15 C 383.741 527.15 383.332 527.297 383.136 527.689 C 381.321 530.976 378.312 535.588 373.422 539.48 C 372.948 538.679 372.752 537.812 372.752 536.258 C 372.752 529.766 374.567 524.68 376.431 519.316 C 377.167 517.24 377.772 515.637 377.772 514.688 C 377.772 512.088 374.027 510.339 370.283 510.339 C 369.743 512.023 369.138 513.691 368.598 515.294 C 366.26 521.933 364.248 527.755 364.248 532.448 C 364.248 535.13 364.919 537.338 367.388 539.545 C 369.677 541.622 371.607 542.832 373.897 542.832 Z M 416.825 527.15 C 416.351 527.15 415.959 527.297 415.762 527.689 C 411.331 535.588 404.495 539.807 400.358 539.807 C 399.017 539.807 396.727 537.747 396.727 531.712 C 396.727 529.832 396.874 528.098 397.136 526.545 C 398.608 526.888 400.014 527.084 401.29 527.084 C 407.177 527.084 411.004 523.732 411.004 517.779 C 411.004 512.628 408.649 510.273 407.112 509.406 C 406.245 508.867 404.904 508.67 404.364 508.67 C 404.037 508.67 403.759 508.736 403.563 508.801 C 402.157 508.54 400.685 508.327 399.818 508.327 C 396.662 508.327 388.158 516.177 388.158 528.703 C 388.158 540.559 397.201 543.765 401.159 543.765 C 407.717 543.765 415.484 535.997 418.641 529.227 C 419.164 528.164 417.905 527.15 416.825 527.15 Z M 402.762 514.231 C 403.17 513.756 403.563 513.282 403.906 512.955 C 404.43 514.165 404.773 515.572 404.773 517.24 C 404.773 521.868 402.696 523.536 398.608 523.536 C 398.346 523.536 398.068 523.536 397.741 523.47 C 399.082 518.777 401.355 515.964 402.762 514.231 Z M 457.491 527.15 C 457.017 527.15 456.608 527.297 456.412 527.689 C 452.994 534.051 448.775 537.812 441.481 540.216 C 447.172 535.195 450.377 525.89 450.377 517.714 C 450.377 515.702 450.247 513.495 449.445 512.415 C 447.712 510.142 444.016 508.54 442.479 508.54 C 438.26 508.54 433.91 514.361 429.952 522.064 C 432.978 509.946 436.379 500.494 438.734 491.123 C 438.799 490.845 438.996 489.979 438.996 489.047 C 438.996 486.43 435.381 484.893 432.372 484.893 C 432.029 485.694 431.702 487.1 430.623 490.518 C 422.315 516.978 420.647 522.195 420.647 530.437 C 420.647 538.074 424.523 544.043 432.029 544.043 C 448.317 544.043 455.136 537.272 459.355 529.096 C 459.764 527.951 458.554 527.15 457.491 527.15 Z M 430.819 541.148 C 429.756 540.412 429.02 538.94 428.889 535.13 C 431.767 524.402 437.115 514.688 441.547 513.02 C 441.612 513.756 441.677 514.492 441.677 515.359 C 441.677 524.01 438.129 540.02 430.819 541.148 Z M 490.103 527.15 C 489.629 527.15 489.236 527.297 489.04 527.689 C 484.608 535.588 477.772 539.807 473.635 539.807 C 472.294 539.807 470.005 537.747 470.005 531.712 C 470.005 529.832 470.152 528.098 470.413 526.545 C 471.885 526.888 473.292 527.084 474.567 527.084 C 480.454 527.084 484.281 523.732 484.281 517.779 C 484.281 512.628 481.926 510.273 480.389 509.406 C 479.522 508.867 478.181 508.67 477.642 508.67 C 477.315 508.67 477.037 508.736 476.84 508.801 C 475.434 508.54 473.962 508.327 473.095 508.327 C 469.939 508.327 461.436 516.177 461.436 528.703 C 461.436 540.559 470.479 543.765 474.436 543.765 C 480.994 543.765 488.762 535.997 491.918 529.227 C 492.441 528.164 491.182 527.15 490.103 527.15 Z M 476.039 514.231 C 476.448 513.756 476.84 513.282 477.184 512.955 C 477.707 514.165 478.05 515.572 478.05 517.24 C 478.05 521.868 475.974 523.536 471.885 523.536 C 471.624 523.536 471.346 523.536 471.019 523.47 C 472.36 518.777 474.633 515.964 476.039 514.231 Z M 529.82 527.15 C 529.428 527.15 529.019 527.297 528.822 527.689 C 526.746 531.581 523.459 536.994 519.91 539.415 C 519.174 537.943 519.043 536.798 519.043 535.13 C 519.043 527.215 522.118 520.788 522.118 514.296 C 522.118 511.352 518.504 508.54 516.427 508.54 C 512.077 508.54 506.647 514.623 502.69 522.325 C 503.295 518.989 504.096 513.756 504.096 513.217 C 504.096 510.682 501.365 509.276 498.013 509.276 C 496.607 516.111 493.123 529.439 493.123 536.258 C 493.123 537.599 493.123 539.284 493.647 540.216 C 494.791 542.227 496.999 543.225 499.076 543.225 C 500.548 543.225 501.087 542.636 501.087 540.821 C 501.087 540.02 501.153 539.071 501.284 538.335 C 503.835 526.479 509.804 515.032 514.628 513.086 C 514.628 514.296 510.997 523.879 510.997 534.116 C 510.997 538.335 515.02 543.503 520.172 543.503 C 523.998 543.503 528.953 535.326 531.766 529.096 C 532.175 528.033 530.899 527.15 529.82 527.15 Z M 556.41 552.007 C 557.489 549.194 558.16 546.119 558.16 542.702 C 558.16 536.864 554.742 533.315 549.59 532.579 C 553.532 528.621 556.949 523.061 556.949 516.765 C 556.949 511.287 551.994 507.395 545.224 507.395 C 542.281 507.395 538.127 519.578 533.842 527.689 C 533.041 529.227 534.316 530.24 535.379 530.24 C 535.854 530.24 536.263 530.028 536.524 529.635 C 540.007 523.732 543.752 515.294 546.107 513.151 C 547.514 514.231 548.037 515.768 548.037 517.436 C 548.037 523.666 544.635 530.911 536.72 536.536 C 536.917 537.599 537.669 538.548 539.664 538.548 C 540.612 538.548 542.019 538.074 543.621 537.142 L 544.292 537.142 C 546.778 537.142 549.182 538.401 549.182 542.702 C 549.182 544.975 548.773 547.182 548.102 549.325 L 547.366 549.325 C 537.734 549.325 529.427 557.223 529.427 565.073 C 529.427 566.61 532.501 568.556 535.788 568.556 C 541.218 568.556 549.983 563.732 554.742 555.425 C 557.816 557.567 559.828 560.38 560.236 560.38 C 560.629 560.38 560.776 559.84 560.776 559.235 C 560.776 556.553 559.092 553.887 556.41 552.007 Z M 533.515 565.138 C 534.382 558.777 540.138 553.282 546.778 552.808 C 543.621 559.382 537.996 564.402 533.515 565.138 Z M 621.251 512.628 C 619.452 513.756 617.244 514.231 614.955 514.231 C 607.661 514.231 603.834 509.733 599.959 509.733 C 598.814 509.733 597.669 510.011 596.41 510.682 C 598.879 513.151 601.97 517.845 601.97 525.285 C 601.97 530.11 600.416 535.261 596.41 536.406 C 594.398 533.92 592.649 527.624 591.651 521.868 C 591.651 521.262 591.716 520.723 591.716 520.183 C 591.716 518.711 589.443 517.174 586.565 517.174 C 585.748 517.174 584.946 517.305 584.341 517.583 C 584.407 517.91 584.407 518.319 584.407 518.711 C 584.407 525.007 580.923 535.931 576.573 538.074 C 576.034 536.062 575.968 534.787 575.968 532.252 C 575.968 522.064 580.335 514.492 580.335 511.957 C 580.335 510.011 579.059 508.736 573.826 507.804 C 569.95 516.635 567.808 522.064 567.808 530.846 C 567.808 533.985 569.002 536.324 571.487 538.744 C 573.826 541.017 576.508 542.832 579.991 542.832 C 583.278 542.832 586.696 537.534 588.969 531.778 C 590.048 536.128 591.373 537.403 592.861 538.548 C 595.069 540.281 597.538 540.821 600.498 540.821 C 607.383 540.821 609.869 531.974 609.869 526.283 C 609.869 521.868 608.593 518.319 606.99 515.899 C 610.735 517.714 614.219 518.041 615.756 518.041 C 618.569 518.041 621.725 516.847 621.725 514.361 C 621.725 513.822 621.594 513.217 621.251 512.628 Z M 649.652 527.15 C 649.178 527.15 648.785 527.297 648.589 527.689 C 644.157 535.588 637.322 539.807 633.184 539.807 C 631.843 539.807 629.554 537.747 629.554 531.712 C 629.554 529.832 629.701 528.098 629.963 526.545 C 631.434 526.888 632.841 527.084 634.116 527.084 C 640.004 527.084 643.83 523.732 643.83 517.779 C 643.83 512.628 641.475 510.273 639.938 509.406 C 639.071 508.867 637.73 508.67 637.191 508.67 C 636.864 508.67 636.586 508.736 636.39 508.801 C 634.983 508.54 633.511 508.327 632.645 508.327 C 629.488 508.327 620.985 516.177 620.985 528.703 C 620.985 540.559 630.028 543.765 633.986 543.765 C 640.543 543.765 648.311 535.997 651.467 529.227 C 651.991 528.164 650.731 527.15 649.652 527.15 Z M 635.588 514.231 C 635.997 513.756 636.39 513.282 636.733 512.955 C 637.256 514.165 637.6 515.572 637.6 517.24 C 637.6 521.868 635.523 523.536 631.434 523.536 C 631.173 523.536 630.895 523.536 630.568 523.47 C 631.909 518.777 634.182 515.964 635.588 514.231 Z M 680.931 527.15 C 680.473 527.15 680.064 527.297 679.868 527.689 C 674.978 536.602 670.22 540.886 668.077 540.886 C 668.012 540.281 668.012 539.742 668.012 539.218 C 668.012 531.778 673.507 524.141 673.507 521.393 C 673.507 519.578 671.021 516.7 668.944 516.373 C 667.276 516.111 665.052 515.899 662.713 515.294 C 664.185 511.549 665.33 508.392 665.33 507.591 C 665.33 506.316 660.915 504.991 659.704 504.991 C 657.497 504.991 654.471 509.881 654.471 513.086 C 654.471 514.966 655.142 516.765 657.562 518.041 C 655.943 522.473 654.946 524.811 653.539 527.82 C 653.196 528.621 654.749 529.832 655.681 529.832 C 655.943 529.832 656.221 529.766 656.352 529.505 C 657.628 527.084 659.361 523.209 660.98 519.447 C 662.386 519.922 663.727 520.396 664.986 520.788 C 661.716 528.36 660.702 532.514 660.702 536.062 C 660.702 539.742 664.659 544.501 668.813 544.501 C 673.768 544.501 680.13 535.261 682.746 529.227 C 683.351 528.098 682.01 527.15 680.931 527.15 Z M 720.649 527.15 C 720.257 527.15 719.848 527.297 719.652 527.689 C 715.825 534.721 712.277 538.074 708.057 540.821 L 708.188 538.679 C 709.529 530.911 714.893 513.151 714.893 511.614 C 714.893 509.472 712.08 508 708.662 507.526 C 708.335 508.131 707.518 510.469 706.52 513.56 C 704.051 509.276 703.102 508.131 697.15 508.131 C 692.391 508.131 684.411 517.91 684.411 531.843 C 684.411 536.733 690.036 541.884 693.258 541.884 C 695.596 541.884 699.423 538.204 701.631 535.065 C 701.156 537.272 700.829 540.412 700.568 543.29 L 700.355 545.106 C 692.522 549.325 683.004 554.345 683.004 559.971 C 683.004 565.596 687.959 568.556 694.255 568.556 C 702.906 568.556 706.259 559.578 707.665 544.909 C 713.618 541.426 717.902 538.008 722.53 529.227 C 722.939 528.164 721.663 527.15 720.649 527.15 Z M 692.587 538.679 C 692.26 536.324 692.26 534.46 692.26 533.184 C 692.26 523.814 698.409 513.756 701.5 512.088 C 702.906 513.887 704.443 517.305 704.918 519.12 C 704.182 521.737 703.511 524.337 703.037 526.414 C 701.156 530.306 695.465 538.074 692.587 538.679 Z M 692.113 565.531 C 689.84 564.664 688.368 562.783 688.368 560.985 C 688.368 556.357 693.192 553.151 699.897 549.325 C 698.687 557.632 696.545 563.519 692.113 565.531 Z M 753.339 527.15 C 752.865 527.15 752.472 527.297 752.276 527.689 C 747.844 535.588 741.009 539.807 736.871 539.807 C 735.53 539.807 733.241 537.747 733.241 531.712 C 733.241 529.832 733.388 528.098 733.65 526.545 C 735.121 526.888 736.528 527.084 737.803 527.084 C 743.691 527.084 747.517 523.732 747.517 517.779 C 747.517 512.628 745.162 510.273 743.625 509.406 C 742.758 508.867 741.417 508.67 740.878 508.67 C 740.551 508.67 740.273 508.736 740.076 508.801 C 738.67 508.54 737.198 508.327 736.332 508.327 C 733.175 508.327 724.672 516.177 724.672 528.703 C 724.672 540.559 733.715 543.765 737.673 543.765 C 744.23 543.765 751.998 535.997 755.154 529.227 C 755.677 528.164 754.418 527.15 753.339 527.15 Z M 739.275 514.231 C 739.684 513.756 740.076 513.282 740.42 512.955 C 740.943 514.165 741.287 515.572 741.287 517.24 C 741.287 521.868 739.21 523.536 735.121 523.536 C 734.86 523.536 734.582 523.536 734.255 523.47 C 735.596 518.777 737.869 515.964 739.275 514.231 Z"/>
</svg>
