<?xml version="1.0" encoding="utf-8"?>
<svg viewBox="0 0 89.94 22.84" xmlns="http://www.w3.org/2000/svg">
  <defs>
    <style>.cls-1{fill:#DB723A;}</style>
  </defs>
  <g>
    <g>
      <path class="cls-1" d="M13.55.09.08.12,0,22.84H6.29V17.53l0-12.74,3.09,0c5.15,0,7.93,2,8,6.42,0,3.38-2.81,6.76-7.94,6.79H7.2v4.88h3.55c6.87,0,12.94-4.52,13-11.67C23.87,3.09,18.58.05,13.55.09"/>
      <path class="cls-1" d="M89.85,9.26H83.9l0,8.68h-4c-3.36,0-7.3-2.54-7.3-6.61,0-4.33,2.5-6.15,6.24-6.21,1.4,0,9.92,0,11.13.06V.09S82.22,0,79.16,0c-9.2,0-13,4.37-13,11.4,0,7.3,5.82,11.44,12.23,11.44,2.88,0,11.48,0,11.49,0Z"/>
      <rect class="cls-1" x="23.29" y="0.09" width="19.09" height="5.03"/>
      <rect class="cls-1" x="29.73" y="5.12" width="6.47" height="17.72"/>
      <polygon class="cls-1" points="59.66 0.05 59.66 8.63 49.74 8.63 49.74 0.09 43.39 0.09 43.39 22.83 49.74 22.83 49.74 13.66 59.66 13.66 59.66 22.83 65.79 22.83 65.79 0.05 59.66 0.05"/>
    </g>
  </g>
</svg>
