<?xml version="1.0" encoding="utf-8"?>
<svg viewBox="0 0 663 650" version="1.1" style="fill-rule:evenodd;clip-rule:evenodd;stroke-linejoin:round;stroke-miterlimit:2;" xmlns="http://www.w3.org/2000/svg">
  <g transform="matrix(4.16667,0,0,4.16667,0,0)">
    <path d="M8.504,134.843L8.504,98.46L14.753,98.46L14.753,111.914L14.853,111.914L21.405,98.46L27.653,98.46L20.901,112.015L28.509,134.843L22.161,134.843L17.071,117.91L16.969,117.91L14.753,121.942L14.753,134.843L8.504,134.843Z" style="fill:rgb(181,162,138);fill-rule:nonzero;"/>
    <path d="M31.437,98.46L37.686,98.46L37.686,125.923C37.686,128.577 38.795,129.904 41.012,129.904C43.23,129.904 44.339,128.577 44.339,125.923L44.339,98.46L50.588,98.46L50.588,125.671C50.588,128.829 49.738,131.232 48.043,132.877C46.345,134.524 44.003,135.347 41.012,135.347C38.022,135.347 35.678,134.524 33.982,132.877C32.285,131.232 31.437,128.829 31.437,125.671L31.437,98.46Z" style="fill:rgb(181,162,138);fill-rule:nonzero;"/>
    <path d="M55.547,134.843L55.547,98.46L61.795,98.46L61.795,129.4L71.622,129.4L71.622,134.843L55.547,134.843Z" style="fill:rgb(181,162,138);fill-rule:nonzero;"/>
    <path d="M77.206,103.901L71.158,103.901L71.158,98.46L89.502,98.46L89.502,103.901L83.455,103.901L83.455,134.843L77.206,134.843L77.206,103.901Z" style="fill:rgb(181,162,138);fill-rule:nonzero;"/>
    <path d="M93.383,98.46L99.631,98.46L99.631,125.923C99.631,128.577 100.739,129.904 102.957,129.904C105.175,129.904 106.283,128.577 106.283,125.923L106.283,98.46L112.532,98.46L112.532,125.671C112.532,128.829 111.683,131.232 109.987,132.877C108.29,134.524 105.947,135.347 102.957,135.347C99.967,135.347 97.623,134.524 95.926,132.877C94.23,131.232 93.383,128.829 93.383,125.671L93.383,98.46Z" style="fill:rgb(181,162,138);fill-rule:nonzero;"/>
    <path d="M123.876,114.786L126.094,114.786C126.933,114.786 127.648,114.702 128.235,114.534C128.822,114.367 129.3,114.065 129.671,113.627C130.041,113.191 130.31,112.611 130.478,111.889C130.646,111.166 130.729,110.269 130.729,109.192C130.729,107.043 130.377,105.573 129.671,104.783C128.966,103.994 127.773,103.599 126.094,103.599L123.876,103.599L123.876,114.786ZM123.876,134.843L117.627,134.843L117.627,98.46L126.396,98.46C129.889,98.46 132.527,99.283 134.308,100.928C136.088,102.574 136.979,105.33 136.979,109.192C136.979,110.672 136.853,111.932 136.601,112.972C136.349,114.014 136.013,114.896 135.593,115.618C135.172,116.34 134.702,116.92 134.182,117.357C133.661,117.793 133.131,118.13 132.594,118.364L137.886,134.843L131.536,134.843L127.102,119.775C126.698,119.843 126.202,119.885 125.615,119.901C125.027,119.919 124.447,119.927 123.876,119.927L123.876,134.843Z" style="fill:rgb(181,162,138);fill-rule:nonzero;"/>
    <path d="M47.388,62.914C47.322,62.152 47.18,61.514 46.966,61C46.75,60.486 46.485,60.08 46.17,59.782C45.854,59.483 45.515,59.268 45.151,59.135C44.786,59.003 44.437,58.936 44.107,58.936C43.113,58.936 42.35,59.244 41.82,59.856C41.29,60.47 41.024,61.339 41.024,62.466C41.024,63.494 41.331,64.439 41.944,65.299C42.557,66.162 43.328,67.024 44.256,67.885C45.183,68.748 46.195,69.618 47.289,70.496C48.383,71.374 49.393,72.343 50.321,73.404C51.249,74.464 52.019,75.632 52.633,76.909C53.246,78.185 53.552,79.635 53.552,81.258C53.552,82.75 53.312,84.068 52.832,85.211C52.351,86.354 51.688,87.316 50.843,88.094C49.998,88.874 48.97,89.461 47.761,89.859C46.55,90.257 45.233,90.456 43.808,90.456C42.383,90.456 41.106,90.19 39.981,89.661C38.854,89.13 37.9,88.41 37.122,87.499C36.342,86.586 35.738,85.535 35.307,84.34C34.877,83.148 34.628,81.872 34.561,80.513L40.427,79.668C40.56,81.491 40.958,82.849 41.621,83.745C42.284,84.639 43.113,85.086 44.107,85.086C45.168,85.086 46.029,84.805 46.692,84.242C47.355,83.678 47.686,82.867 47.686,81.805C47.686,80.613 47.38,79.552 46.766,78.624C46.153,77.696 45.383,76.801 44.455,75.939C43.527,75.078 42.516,74.216 41.423,73.354C40.328,72.493 39.317,71.547 38.389,70.52C37.462,69.493 36.691,68.333 36.078,67.04C35.465,65.748 35.158,64.24 35.158,62.516C35.158,59.632 35.986,57.42 37.644,55.878C39.3,54.337 41.654,53.567 44.704,53.567C45.963,53.567 47.09,53.783 48.085,54.213C49.079,54.645 49.931,55.25 50.644,56.028C51.357,56.807 51.937,57.727 52.384,58.788C52.832,59.848 53.122,61.008 53.255,62.267L47.388,62.914Z" style="fill:rgb(204,58,104);fill-rule:nonzero;"/>
    <path d="M62.337,59.433L56.371,59.433L56.371,54.065L74.467,54.065L74.467,59.433L68.502,59.433L68.502,89.959L62.337,89.959L62.337,59.433Z" style="fill:rgb(204,58,104);fill-rule:nonzero;"/>
    <path d="M82.168,76.635L87.139,76.635L84.703,61.223L84.603,61.223L82.168,76.635ZM80.179,89.959L74.214,89.959L80.826,54.065L88.481,54.065L95.093,89.959L89.128,89.959L88.034,82.004L81.272,82.004L80.179,89.959Z" style="fill:rgb(204,58,104);fill-rule:nonzero;"/>
    <path d="M127.343,59.433L121.377,59.433L121.377,54.065L139.475,54.065L139.475,59.433L133.508,59.433L133.508,89.959L127.343,89.959L127.343,59.433Z" style="fill:rgb(204,58,104);fill-rule:nonzero;"/>
    <path d="M105.036,70.172L107.224,70.172C108.052,70.172 108.756,70.089 109.337,69.923C109.916,69.758 110.388,69.46 110.753,69.029C111.118,68.598 111.383,68.027 111.549,67.313C111.714,66.601 111.798,65.715 111.798,64.654C111.798,62.534 111.449,61.083 110.753,60.304C110.057,59.526 108.88,59.135 107.224,59.135L105.036,59.135L105.036,70.172ZM105.036,89.959L98.871,89.959L98.871,54.065L107.522,54.065C110.969,54.065 113.569,54.877 115.327,56.501C117.084,58.125 117.962,60.843 117.962,64.654C117.962,66.113 117.838,67.356 117.589,68.382C117.34,69.411 117.009,70.28 116.595,70.993C116.18,71.706 115.717,72.278 115.203,72.708C114.689,73.138 114.166,73.47 113.637,73.702L118.858,89.959L112.593,89.959L108.218,75.094C107.82,75.161 107.331,75.202 106.751,75.218C106.171,75.236 105.599,75.243 105.036,75.243L105.036,89.959Z" style="fill:rgb(204,58,104);fill-rule:nonzero;"/>
    <path d="M72.039,45.575L72.039,9.19L77.834,9.19L85.443,30.002L85.544,30.002L85.544,9.19L91.188,9.19L91.188,45.575L85.746,45.575L77.783,22.846L77.682,22.846L77.682,45.575L72.039,45.575Z" style="fill:rgb(80,92,96);fill-rule:nonzero;"/>
    <path d="M96.308,45.575L96.308,9.19L113.039,9.19L113.039,14.632L102.557,14.632L102.557,24.005L110.62,24.005L110.62,29.449L102.557,29.449L102.557,40.131L113.744,40.131L113.744,45.575L96.308,45.575Z" style="fill:rgb(80,92,96);fill-rule:nonzero;"/>
    <path d="M118.028,9.19L124.278,9.19L124.278,36.655C124.278,39.309 125.386,40.636 127.604,40.636C129.82,40.636 130.929,39.309 130.929,36.655L130.929,9.19L137.178,9.19L137.178,36.403C137.178,39.561 136.329,41.963 134.633,43.609C132.937,45.255 130.591,46.078 127.604,46.078C124.612,46.078 122.269,45.255 120.572,43.609C118.876,41.963 118.028,39.561 118.028,36.403L118.028,9.19Z" style="fill:rgb(80,92,96);fill-rule:nonzero;"/>
    <path d="M12.628,89.946L8.504,89.953L8.504,9.166L63.496,9.166L63.496,13.205L12.628,13.205L12.628,89.946Z" style="fill:rgb(178,189,193);fill-rule:nonzero;"/>
    <path d="M150.236,147.495L8.504,147.495L8.504,143.243L145.985,143.243L145.985,9.166L150.236,9.166L150.236,147.495Z" style="fill:rgb(178,189,193);fill-rule:nonzero;"/>
  </g>
</svg>
