<svg xmlns="http://www.w3.org/2000/svg" viewBox="0 0 735 293"><defs><style>.a{fill:#bfd66a;stroke:#bfd66a;stroke-miterlimit:22.93;stroke-width:1.5px;}</style></defs><title>title</title><path class="a" d="M176.6,80.8a12.2,12.2,0,0,1-6.8,3.6,17.7,17.7,0,0,1-6.1-.2,11.7,11.7,0,0,0-4.9.3c-2,.3-3.8.9-5.6.8a11.6,11.6,0,0,1-4.7-1.4c-.5-.3-.7-1.4-.8-2.1s-2-2.9-2.9-4.5c1.4-1.4,3.4-1.1,5-2.3a4.3,4.3,0,0,1-.5-1.2,46.1,46.1,0,0,1-2.2-5.1,7.1,7.1,0,0,1,.2-2.9,5.3,5.3,0,0,0,.1-1.2c-.4-1.6.3-3.4.9-5.1s1.7-5,2.6-7.5,1.5-5.1,3.3-7.4c.1-.1.2-.2.2-.3l2.1-5.8a10.1,10.1,0,0,1,1.2-2.6c.5-1.3,1.2-2.7,1.7-4.2a34.3,34.3,0,0,1,2.8-7.3,25.7,25.7,0,0,0,2.2-7.5c.3-1.7-.2-1.9-1.8-1.2l-3.9,1.9-2.9,1c-.9.2-.9-.2-.9-.9a6.7,6.7,0,0,0,1.2-.6c0-.1-.1-.1-.1-.2a3.1,3.1,0,0,0-1.1.9,7.6,7.6,0,0,0-2,.6c-.7-1-1.5-1.9-2.1-2.8s0-2.2.9-3.5c4.9-5.6,10.9-7.9,17.2-8.7,10.4-1.1,19.7.6,27.8,5.5a31.9,31.9,0,0,1,12.6,13.6,19.3,19.3,0,0,1,1.3,5,16.7,16.7,0,0,1,.8,4c-.1,2.2-.5,4.5-.7,6.8a1,1,0,0,0-.1.3c-1.9,2.7-1.7,5.9-3.5,8.6s-3.5,5.5-5.4,8.2a84,84,0,0,1-8.3,9.6,38.9,38.9,0,0,1-9.5,7.3c-1.8,1.1-3.5,2-5.2,3.2a17.3,17.3,0,0,0-2.4,2.3c-1-.3-1.6,0-1.8,1.2l1.7-1.3C176.3,78.6,176.5,79.7,176.6,80.8ZM154.4,13.6a22.7,22.7,0,0,1,2.8-2.1l-.5-.5L154,13.1A.9.9,0,0,0,154.4,13.6Zm14.1,32.8c1.5-3,2.2-6.4,4-9.5a34.4,34.4,0,0,1-1.5,5.5c-.6,1.7-1.2,3.4-2,5.2s-.7,3.6-2.6,5.5a21.6,21.6,0,0,0,.5-2.5c-1.1,1.8-2,3.4-2,5.5l1.3-1.9h.5a16.8,16.8,0,0,0-.6,2.4c-.5,1.8-1.2,3.7-1.6,5.6a4.3,4.3,0,0,1-1.9,3.4l1.9,2.4c2-1.1,3.9-2.4,5.8-3.7l4.2-2.9a49.9,49.9,0,0,0,5.1-4c2.9-2.9,5.9-6.1,8.7-9.1a55,55,0,0,0,7.7-9.9c1.5-2.6,2.6-5.3,3.8-7.9,2.3-5.3,1.2-10.5-3.1-13a40.1,40.1,0,0,0-19.2-4.7l-2.4.2.7,2.5a13.4,13.4,0,0,1,.2,7.2,13.6,13.6,0,0,0-.2,2c0,1.6.1,3.4-1.4,5s-.9,1.4-.7,1.5c1.4,1.8,0,3.1-1.3,4.5a4.7,4.7,0,0,0-1,1c-1,3.2-2.2,6.3-3.3,9.5Zm-5,15.3-.5.8.5.2a9.4,9.4,0,0,1,.3-.9Zm4.8,8.9-.9.6c0,.1.1.2,0,.3a2.3,2.3,0,0,0,1-.5C168.4,70.8,168.4,70.7,168.3,70.6Zm17-12.4L170.6,69.4A45.3,45.3,0,0,0,185.3,58.2Zm-5.5,13.4a44.5,44.5,0,0,0,12-9.6,15.6,15.6,0,0,1,.9-1.7c-.8.6-1.2.7-1.3.9a105,105,0,0,1-13.9,11c-.3.2-.7.8-1.2,1.2a3.5,3.5,0,0,0-3,2c1.4-.6,2.5-1,3-2S178.8,72.3,179.8,71.6Zm-5.2-2.7,1.5-1.2,1.8-1.5a8.7,8.7,0,0,0,5.4-4.5c-1.8,1.5-3.6,3-5.4,4.7a10.9,10.9,0,0,0-1.7,1.3C175.6,67.7,175.1,67.7,174.6,68.9Zm15.5-2.3a21.7,21.7,0,0,0,5.5-5.4c1.9-1,2.7-2.8,3.7-4.3l-.4-.2c-1.1,1.4-2.2,2.9-3.4,4.3A31.8,31.8,0,0,0,190.1,66.6Zm12.6-14.7-.8.9c0,.1.1.1.2.3l.9-.9Q203,52.1,202.7,51.9Z"/><path class="a" d="M224.9,83.6c-2.9,1.1-5.5,1.2-7.4-.7-3.2.2-4-2.2-5-4.4a13.9,13.9,0,0,1-1-5c-.5-4.8-1.3-9.6-.4-14.6s1.9-8.1,3.1-12,2.2-7.3,3.4-10.8a25,25,0,0,1,.9-2.5c1.3-2.7,4-3.8,6.2-2.5a5.3,5.3,0,0,0,2.6.7c3.1-.2,3.8.2,4,3.3-.1.2.2.4.3.8s1-1.2,1.5-1.8c2.1,1.1,2,2.7,1.4,4.9-1.4,5.3-2.9,10.6-4.2,15.8s-2,8.4-3,12.6a30.1,30.1,0,0,0-.6,11.5C226.9,80.8,225,82,224.9,83.6Zm1.1-8.9-.5-.3c-.1.1-.3.4-.2.5l.4.3C225.7,75.1,225.7,75,226,74.7Zm-.7-57.8c.3-2.8.8-5.8,1.4-8.7a1.6,1.6,0,0,1,1.4-1.7c1.8-.7,3.7-1.8,4.9.2.2.2.9.2,1.4.2,2.4-.2,3,.3,3.1,2.7,0,.4.3.6.3.9l.7.3a16.3,16.3,0,0,1,1.1-1.7l.5.3c-.5,1.6-.8,3.1-1.2,4.8h.3c.4-.8,1-1.8,1.7-2.9-1,3.8-2.1,7.3-2.9,10.8a2.4,2.4,0,0,1-2.2,1.9h-2.6l-.8.8c-.8,1.1-1.6.9-2.1,0s-1.2-2.2-3-2.1-1.3-1.2-1.7-1.9A17.1,17.1,0,0,1,225.3,16.9Zm.9,53.2c.4-2.3.7-4.2.9-6C225.5,67.8,225.5,68,226.2,70.1Zm1.5-9.9,6.7-22.9h-.6C232.3,40.4,227.3,58.4,227.7,60.2Zm4.2-52c-.1.2,0,.5,0,.6a1.4,1.4,0,0,0,.8-.6l-.5-.3Zm5.9,13.1a27.2,27.2,0,0,1,.7-3.3C237.2,19.5,237.2,19.5,237.8,21.3Z"/><path class="a" d="M265.2,76.5c.1.4-.5.8-.8,1.2-4,3-8.2,5.8-13,6.5a10.5,10.5,0,0,1-8.3-2c-3.6-2.8-6.4-6.4-6.8-11.4a21.3,21.3,0,0,1,.9-8.9,75.9,75.9,0,0,1,4-11.6c1.1-3,3.1-5.8,4.9-8.7a10.4,10.4,0,0,1,3-3.7c1-.8,1.5-2.4,2.3-3.6a20,20,0,0,1,7-5.4,6.7,6.7,0,0,1,6.6.4,21.2,21.2,0,0,1,5.6,6,5.2,5.2,0,0,1,.6,4.6,7.8,7.8,0,0,0-.4,2.1,5.7,5.7,0,0,1-1.6,2.9,83.4,83.4,0,0,0-5.3,6.5,5.3,5.3,0,0,1-.6,1c-.3.2-1,.3-1.2.7s-2.8,2.5-4.1,3.7a4.2,4.2,0,0,0-1.2,1c-1.5,3-4.5,4-6.8,5.9s-2.4,1.5-3.6,2.2a3.3,3.3,0,0,0-1.7,2.8,21.4,21.4,0,0,0,.4,6.2c.6,2.6,1.8,2.9,4.5,1.4s6.5-4.1,8.8-7.5,3.8-4.8,5.3-7.3,1.6-3.9,2.6-6.1c.9-.6,1.6-.5,2.7.2s3.1,2,4.3,3.3a3.2,3.2,0,0,1,.9,2.7,6.4,6.4,0,0,1-2.8,5.8,6.2,6.2,0,0,0-1.6,2c-.8,1.3-1.8,2.7-2.6,4.1h.1C266.3,74.3,265.2,75.1,265.2,76.5ZM254.5,54.2c.1,0-.3-.3-.3-.6l3-3.5c-.3-.1-.4-.1-.4-.2-2.3,2.7-5.2,4.7-7.6,7.4a.5.5,0,0,1,.2.4l1.7-.8,1.7-1.3ZM250,51.5s-.3.3-.3.4a.9.9,0,0,0,.1.5c.1-.2.3-.3.6-.5S250,51.7,250,51.5Zm13.5-2.3c-4.4,4.1-8.6,8.1-12.8,11.9C255.6,58.3,262.6,51.7,263.5,49.2Zm-8-6.3a4.4,4.4,0,0,1-1.1,2.8c-.7,1.3-1.6,2.4-2.4,3.7s-.7,1.7-1,2.5,1.6-.1,2.2-.8c2.2-3.1,4.5-6,6.8-9s2.3-3.2,2.6-5c-1.7-.4-1.7-.4-3.3,1.4a5.1,5.1,0,0,0-2.4,3C256.5,42,255.5,42.7,255.5,42.9Zm2.7-11.3a13.3,13.3,0,0,0-1.9,1.4,2.9,2.9,0,0,0-1.4,2l1.7-1.7A2.5,2.5,0,0,0,258.2,31.6Zm-1.9,7.8c1.3-1.1,3-1.9,3.7-3.5A6.7,6.7,0,0,0,256.3,39.4Zm5.9,29.4c-1.7,1.9-3.5,3.8-5.2,5.5l.5.4a26,26,0,0,0,5-5.5Zm4.9,1.5c-2.2,2.6-4.7,5.2-6.9,7.6,3.4-1.6,5.2-4.3,7.3-7.2A.8.8,0,0,1,267.1,70.3Zm-5.7,1.9.7-.9h-.3l-.7.7Q261.1,72.1,261.4,72.2Z"/><path class="a" d="M345.4,24.2l-.2-.2a10.6,10.6,0,0,0-1.5,1.5,106.7,106.7,0,0,0-12.3,21,34.4,34.4,0,0,0-2.1,7.6h.5a24.4,24.4,0,0,0,1-2.4A71.3,71.3,0,0,1,341.5,30l.3-.3c0,1.2-.1,1.2-.8,2.5-3.7,6.5-7.4,13-9.5,20a34.1,34.1,0,0,0-1,14.8,6.7,6.7,0,0,0,3.4,5.1,3.4,3.4,0,0,0,2,0c1.7-.7,3-1.1,4.3.1s2.7,0,3.3-1.4,1.4-4.7,2.2-7.2a21.9,21.9,0,0,1-2.8-.3,21.4,21.4,0,0,1-3.6-.1,8.8,8.8,0,0,1-2.7-1,10.6,10.6,0,0,1-2.3-1.9,3.5,3.5,0,0,1-.5-1.2,9.1,9.1,0,0,1,1.8-.8c2.2-.6,4.5-.9,6.7-1.4l6.2-1.3a6.5,6.5,0,0,1,4.4.3l2.1.8c1.7.3,3.3.7,3.8,2.7.1.3.9.5,1.6.9L356,70.1l.5.2c.6-1.4,1.1-2.6,1.8-3.9a19.9,19.9,0,0,1,2.3-3.9,8.4,8.4,0,0,1-.6,1.4c-.8,1.6-1.6,3.3-2.3,4.9s-1.2,3.3-2.8,4.6a2.3,2.3,0,0,0-.7,2c.5,1,0,2.2-.4,3.2s-1.6,4.6-2.3,6.9a11.3,11.3,0,0,0-.1,2.6,2.1,2.1,0,0,1-1.3,2,5.7,5.7,0,0,1-2.2-.1,15.9,15.9,0,0,0-2,1.1,20.5,20.5,0,0,1-3.8-3.4c-.6-.3-.7-1.1-.9-1.7s0-2.1,0-3.1.2-2.8-2.5-2.4a21.4,21.4,0,0,1-12.6-1.9c-3.8-1.7-7.6-3.6-10.6-6.6s-4.7-5.6-4.9-9.8a16.4,16.4,0,0,0-.5-3.2c-.5-2.6.3-5.2.7-7.8A30.7,30.7,0,0,1,314,40.9c2.1-3.7,4.1-7.6,6.2-11.3a82.5,82.5,0,0,1,7.7-10.9c4.3-5.5,9.5-10.5,15.8-13.4s12.6-4,18.6-2a53.9,53.9,0,0,1,6,2.1,11.3,11.3,0,0,1,4.2,2.9c1,.7,1.1,2.1.8,3.9a3.8,3.8,0,0,0-.8-.7,2.6,2.6,0,0,0-.6,2c-1,1.3-2.1,2.4-3.1,3.6a3.2,3.2,0,0,1-.9.8c-1.4,0-1.6,1.2-2.3,2a4.2,4.2,0,0,1-.9,1.6l-1.5,1.8a13.1,13.1,0,0,0-2.2,3.2,9.9,9.9,0,0,1-3.9,5.2c-.6.3-.8,1.2-1.4,1.9a23.8,23.8,0,0,1-3,3.6c4.4-8.8,10.6-16.5,16.4-24.4l-.3-.4-.9.6a146.3,146.3,0,0,0-13.2,18.3L351.9,36c-.5.7-1.1,1.5-2.1,1.4s-1-.9-.9-1.7a.5.5,0,0,0-.2-.4c-2.8.5-3.5-.5-2.3-3.3a4.3,4.3,0,0,0,.8-2.4c-.1-.7.8-1.8,1.4-2.7s.8-.8.9-1.3a8.8,8.8,0,0,1,2.7-5.2c.9-.9,1.1-2.4,1.6-4a7,7,0,0,0-1.8,1.3c-1.9,2.2-3.6,4.5-5.5,6.7a17.1,17.1,0,0,1-2,1.8A8.8,8.8,0,0,0,345.4,24.2ZM322.8,36.8l15.6-21.6C333.3,19.1,323.5,32.9,322.8,36.8Zm2.3.3a7.6,7.6,0,0,0,.8-1.1l-.3-.2a7.6,7.6,0,0,1-.8,1.1Zm2.2-3.8,11.4-15.5C333.9,22.5,329.9,27.5,327.3,33.3Zm1.2,12.5c3-5,5.7-10,9-14.9s7.1-9.6,11-14.7C342.4,19.4,329.3,39.4,328.5,45.8Zm25.6-21.7,2-3.2q1-1.3,2.1-3l2.1-3c.6-1,1.6-1.9,1.6-3.3-2.2,2.1-8.4,11.4-10,14.9C352.8,26,352.8,26,354.1,24.1Zm9.1-12.3c-.9,1.3-1.8,2.3-2.5,3.3-1.7,2.6-3.2,5.1-5,7.6-.3.6-.7,1-1,1.6h.4l.9-1.5C358.6,19.9,362.5,14.2,363.2,11.8Z"/><path class="a" d="M395.4,76.5c.1.4-.4.8-.8,1.2-4,3-8.2,5.8-13,6.5a10.2,10.2,0,0,1-8.2-2c-3.7-2.8-6.5-6.4-6.9-11.4a21.3,21.3,0,0,1,.9-8.9,75.9,75.9,0,0,1,4-11.6c1.1-3,3.1-5.8,4.9-8.7a10.4,10.4,0,0,1,3-3.7c1.1-.8,1.5-2.4,2.3-3.6a20,20,0,0,1,7-5.4,6.7,6.7,0,0,1,6.6.4,21.2,21.2,0,0,1,5.6,6,5.2,5.2,0,0,1,.6,4.6A7.8,7.8,0,0,0,401,42a5.7,5.7,0,0,1-1.6,2.9,83.4,83.4,0,0,0-5.3,6.5l-.5,1c-.4.2-1.1.3-1.3.7s-2.8,2.5-4.1,3.7a4.2,4.2,0,0,0-1.2,1c-1.5,3-4.5,4-6.8,5.9s-2.4,1.5-3.6,2.2a3.5,3.5,0,0,0-1.7,2.8,25.6,25.6,0,0,0,.4,6.2c.6,2.6,1.8,2.9,4.5,1.4s6.5-4.1,8.8-7.5,3.8-4.8,5.3-7.3,1.6-3.9,2.6-6.1c.9-.6,1.6-.5,2.7.2s3.1,2,4.3,3.3a3.2,3.2,0,0,1,.9,2.7,6.4,6.4,0,0,1-2.8,5.8,6.2,6.2,0,0,0-1.6,2c-.8,1.3-1.8,2.7-2.6,4.1h.1C396.5,74.3,395.4,75.1,395.4,76.5ZM384.7,54.2c.1,0-.3-.3-.3-.6l3-3.5c-.3-.1-.4-.1-.4-.2-2.3,2.7-5.2,4.7-7.6,7.4.1.1.3.2.3.4a8,8,0,0,1,1.6-.8l1.7-1.3Zm-4.5-2.7s-.3.3-.3.4a.9.9,0,0,0,.1.5c.1-.2.4-.3.6-.5S380.2,51.7,380.2,51.5Zm13.5-2.3c-4.4,4.1-8.6,8.1-12.8,11.9C385.8,58.3,392.9,51.7,393.7,49.2Zm-8-6.3a4.4,4.4,0,0,1-1.1,2.8c-.7,1.3-1.6,2.4-2.4,3.7l-1,2.5c1,.5,1.6-.1,2.2-.8,2.2-3.1,4.5-6,6.8-9s2.3-3.2,2.7-5c-1.8-.4-1.8-.4-3.4,1.4a5.1,5.1,0,0,0-2.4,3C386.7,42,385.7,42.7,385.7,42.9Zm2.7-11.3a13.3,13.3,0,0,0-1.9,1.4,2.9,2.9,0,0,0-1.4,2l1.7-1.7A2.5,2.5,0,0,0,388.4,31.6Zm-1.9,7.8c1.3-1.1,3-1.9,3.7-3.5A6.7,6.7,0,0,0,386.5,39.4Zm5.9,29.4c-1.6,1.9-3.5,3.8-5.2,5.5l.5.4a26,26,0,0,0,5-5.5Zm4.9,1.5c-2.2,2.6-4.7,5.2-6.9,7.6,3.4-1.6,5.3-4.3,7.4-7.2A.7.7,0,0,1,397.3,70.3Zm-5.7,1.9.7-.9H392l-.7.7Z"/><path class="a" d="M414.2,72.4c1.1,1.4,0,2.4-.4,3.3s-.9.9-1.2,1.4-1.2,1.6-.5,2.3,1.7.2,2.4-.2a34.5,34.5,0,0,0,12.3-9.9,23.8,23.8,0,0,0,3.5-5.4c1.2-2.2.6-3.1-1.9-3.5s-6.7-.9-10-1.6a23.2,23.2,0,0,1-9.3-4.2c-2.5-1.9-3.5-4.5-1.9-7.9a21.8,21.8,0,0,1,3.6-4.7,52,52,0,0,1,14.5-11c6.9-3.8,12.3-2.7,16.4.9,2,1.8,1.7,4.8,1.4,7.6s-.7,3.7-1.1,5.6-1,1.8-2.6,1.9-2.2.8-2.6.6-.7-1.3-1.1-2-.6-.4-.9-.3-1.8-.9-1.8-2.2.3-4.4.3-6.5-.7-1.8-2-.9a79.1,79.1,0,0,0-7.3,5,22.5,22.5,0,0,0-5.7,6.6c-1.4,2.8-.8,5.3,1.9,6.3a22.3,22.3,0,0,0,4.4,1.3c4.7.8,9.6,1.1,13.6,2.8a24.4,24.4,0,0,1,2.8,1.4c1.1,1,2,2.1.5,4a3.4,3.4,0,0,0-.7,1.5c-.4,4-3.9,6.8-7.1,9.5a62.1,62.1,0,0,1-15.9,9.5c-4.9,2.2-9.1,2.2-12.8,0a3.5,3.5,0,0,1-1.8-4,55.2,55.2,0,0,1,2.7-6.7c.7-1.2,1-1.2,3.1-1.9a6.1,6.1,0,0,0,.1,1.4c-.8.7-1.8,1.4-1.4,2.5s1.6-1.2,2.1-2,1.6-1,3.1-.7l-1,2.7a4.5,4.5,0,0,0-1.4,3c.3-.4.8-.7.8-.8a11.3,11.3,0,0,0,.9-2ZM412,44.1a13.6,13.6,0,0,1-1.2,1.7l.5.2a7.5,7.5,0,0,0,1.5-1.6Zm4,3.6a26.8,26.8,0,0,1,1.8-2.8l-.7-.3c-.7,1-1.1,2-1.7,3ZM432.9,65c-.6,1-1,2-1.6,2.9l.6.2a28.2,28.2,0,0,1,1.8-2.9Zm5.8-.3-2.5,4.1a.9.9,0,0,0,.6.3,42.1,42.1,0,0,1,2.8-4Z"/><path class="a" d="M474.2,48.9l-1,.4a1.1,1.1,0,0,1-.6-1,2.1,2.1,0,0,1,.5-1.1c1.6-2.3,1.5-4.9,3-7.8a10.5,10.5,0,0,0-2.2.8,30,30,0,0,0-3.2,3c-1,1.2-1.8,2.7-2.9,3.9s-2.1,4.3-3.1,6.4a45.3,45.3,0,0,0-4.8,20.6,8.9,8.9,0,0,0,.8,2.9c.6,1,1.6.6,2.5-.1a38.5,38.5,0,0,0,4-4.1c.5-.5.7-1.3,1.3-1.6a2.2,2.2,0,0,1,1.7-.4c.5.1.5.8.2,1.4s-.9,1.8-1.5,2.7l.6.3a5.9,5.9,0,0,0,.4-.8c.6-1.5,2.4-1.7,3.3-2.8a1.8,1.8,0,0,1,1.6-.1c.4.2.3,1.1.1,1.5s-1.2,2.5-1.9,4c2.1-1.1,2.2-3.2,4-4.7-.8,3.1-1.8,5.5-3.9,7.5a18.2,18.2,0,0,1-12.5,5.7,10.1,10.1,0,0,1-2.5-.2c-3.1-1.5-6.6-2.6-8.8-5.4a16,16,0,0,1-3.7-10.5c0-2.7.4-5.5.6-8.2a17.1,17.1,0,0,1,1.9-7.1c0-.2.2-.6.2-.8,1-4.7,3.8-8.8,6.6-12.7a12.8,12.8,0,0,1,3.1-3.5A27.3,27.3,0,0,1,469.2,31c5.3-1.5,9.6-.1,14,1.3a15.9,15.9,0,0,1,3.2,1.6,2.4,2.4,0,0,1,.6.8c.6,1.3.2,3.8-.7,5.7a19.9,19.9,0,0,1,.7-2.5,3.6,3.6,0,0,0-1.5,2.4,18.3,18.3,0,0,1-3.2,6.4A14.8,14.8,0,0,1,479,50c-2.3,1.7-3.6,1-3.6-1.4.1-.5,0-.8.1-1.2a4.5,4.5,0,0,0,1.9-3h-.5c-.4,1-.9,2.1-1.4,3.1Zm-15.1-7.3c-2.3,3-4.2,6-4.9,9.6l5.5-9.2Zm-2.5,7.7a21,21,0,0,0,3.1-5,11,11,0,0,0,.9-1.4c-.1,0-.4,0-.4-.1a9.8,9.8,0,0,1-.5,1.6A8.6,8.6,0,0,0,456.6,49.3Zm3.5,6.1a102.1,102.1,0,0,1,5.3-9.7c.3-.4.3-.9.6-1.4s-.6,0-.6.1a1,1,0,0,0-.6.5,41,41,0,0,0-5.3,9.6,16,16,0,0,0-.3,2.3l-.8,1.2h.4a6.1,6.1,0,0,0,.3-1.3A12.1,12.1,0,0,0,460.1,55.4Zm5.2-6.8c-1.2,2.7-2.6,5.3-3.5,8-1.9,4.9-2.4,6.7-1.7,8.2a52.2,52.2,0,0,1,6-16.1Zm15.3-2.1v.2h.3c1.6-1.9,2.7-4,2.5-6.4C482.3,42.4,481.5,44.4,480.6,46.5Z"/><path class="a" d="M505.7,59.5c-1.1,2.2-1.9,4.4-2.8,6.6h.4c.6-1.4,1.3-2.8,2-4.2-.7,2.3-.8,4.7-3.5,6.4.7.9,1.5,1.8-.6,2.4-.6,1.2-1,2.3-1.5,3.5h.6l.9-1.4c-.3,1.4-.2,2.8-1.5,4.1a2.4,2.4,0,0,0-.2.9c.3,1.6-.1,2.6-1.8,3.5a9.1,9.1,0,0,0-1.7,1.7l-1.5-1.3H494c-1.7,1.1-2.5,1.1-2.8-.3a3.5,3.5,0,0,0-2.7-2.3,1.9,1.9,0,0,1-1.5-2.5c.4-3.4.8-6.8,1.3-10.2.1-1.2.2-2.3.4-3.5s.6-2.7,1-4,.3-1.5.5-2.3c.6-3.5,1.3-7.1,1.9-10.6.2-1,.9-1.9,1.1-2.8a51.1,51.1,0,0,0,1.3-5.3,15.5,15.5,0,0,1,.5-2.3c.7-2.1,1.6-4.2,2.1-6.3,1.9-6.9,3.7-13.7,5.5-20.6.4-.9.5-2,1-3s1.8-2,2.9-1.1.3.7.6.6c2.6-.4,2.8,2,3.9,3.2s.2,2,.2,3a4.6,4.6,0,0,1-.5,2c-1.3,2.3-.4,4.7-1.7,7a1,1,0,0,0-.2.7c.6,1.8-.5,3.3-1.3,5a16.9,16.9,0,0,0-1.3,6.6c.2,1.3.4,3-1.5,4.4a2.7,2.7,0,0,0-.1,2.2c.5.8,1.4.4,2.1-.3s.6-.5.7-.7c1.8-2.6,4.5-4.3,6.9-6.2a9.5,9.5,0,0,1,6.2-1.9,16.1,16.1,0,0,1,11.4,4.7,8.7,8.7,0,0,1,1.8,3.1c1.7,4.6,1.5,9.5-.4,14.8a4.8,4.8,0,0,0,0,1.2c-.5,1.9-.8,3.8-1.4,5.6s-.8,1-1.2,1.6.7,3.8-.7,5.8-.3,1.5-1.1,2.1a5.2,5.2,0,0,0,.5,1.9c-1,1-1.8,2-1.3,3.6s-1.8,8-4.6,10.4a3,3,0,0,0-.6-1.1c-.7.3-1.4.9-1.9.7s-1-.8-1.4-1.1a3.1,3.1,0,0,0-1.1-.9c-1.6,0-1.9-1.1-2-2.3a24.8,24.8,0,0,1,.1-4.7A170.1,170.1,0,0,1,521.9,51a64.5,64.5,0,0,0,1.5-9.5,31.6,31.6,0,0,0-.1-4.3,4.6,4.6,0,0,0-2,.9c-1.9,1.8-4.1,3.2-5.1,5.6a24.8,24.8,0,0,1-2.7,3.9l-.6-.4a9.9,9.9,0,0,1-.6,1.3c.7-.6,1.1-.8,1.2-1.1-.6,1.3-1.4,2.6-2.1,3.9a1.8,1.8,0,0,1-.8.9c-2,.5-2.3,2.3-2.7,3.7a2.4,2.4,0,0,0-.5,1A10.6,10.6,0,0,0,505.7,59.5ZM512,44.9a105.8,105.8,0,0,0-8.8,14.7,3.8,3.8,0,0,0-.6,2.7,9.3,9.3,0,0,1,1-1.5,90.4,90.4,0,0,1,11.2-18.1c.4-.7.7-1.4,1.3-2.3l1.6-1.6-.5-.2a7.5,7.5,0,0,1-1.3,1.8A28,28,0,0,0,512,44.9Zm-7.7,4.8a5.2,5.2,0,0,0-.6,1.3h.3c.1-.5.5-.8.7-1.3Zm3.9-5.8a.4.4,0,0,0,.4.2c.3-.5.8-1,1.5-1.9-.8.2-1.1.3-1.3.5a28.4,28.4,0,0,1,2.5-3.9c-3.1,2.3-7.2,7.9-7.5,10.2l4.5-5.9C508.5,43.4,508.3,43.7,508.2,43.9Zm19.3,31.8h-.2v.4h.2C527.5,75.9,527.4,75.8,527.5,75.7Z"/><path class="a" d="M553.7,83.6c-3,1.1-5.5,1.2-7.5-.7-3.2.2-4-2.2-4.9-4.4a14,14,0,0,1-1.1-5c-.4-4.8-1.3-9.6-.3-14.6s1.8-8.1,3-12,2.2-7.3,3.4-10.8a25,25,0,0,1,.9-2.5c1.3-2.7,4-3.8,6.2-2.5a5.6,5.6,0,0,0,2.6.7c3.1-.2,3.8.2,4.1,3.3-.1.2.1.4.2.8a11.9,11.9,0,0,0,1.5-1.8c2.1,1.1,2,2.7,1.4,4.9-1.4,5.3-2.9,10.6-4.2,15.8s-2,8.4-3,12.6a32.2,32.2,0,0,0-.6,11.5C555.6,80.8,553.8,82,553.7,83.6Zm1-8.9-.5-.3c-.1.1-.3.4-.2.5l.5.3C554.5,75.1,554.5,75,554.7,74.7ZM554,16.9c.4-2.8.8-5.8,1.4-8.7a1.7,1.7,0,0,1,1.4-1.7c1.9-.7,3.7-1.8,4.9.2.2.2.9.2,1.4.2,2.5-.2,3.1.3,3.2,2.7,0,.4.2.6.2.9l.7.3a17.7,17.7,0,0,1,1.2-1.7c.1.2.3.2.4.3-.4,1.6-.8,3.1-1.1,4.8h.2l1.8-2.9c-1.1,3.8-2.1,7.3-3,10.8a2.3,2.3,0,0,1-2.2,1.9h-2.6c-.2.1-.4.5-.8.8s-1.6.9-2.1,0-1.1-2.2-3-2.1-1.3-1.2-1.6-1.9A13,13,0,0,1,554,16.9Zm.9,53.2,1-6C554.2,67.8,554.2,68,554.9,70.1Zm1.6-9.9,6.6-22.9h-.6C561,40.4,556,58.4,556.5,60.2Zm4.2-52c-.2.2,0,.5,0,.6l.8-.6-.6-.3Zm5.8,13.1c.2-1.3.5-2.2.7-3.3C565.9,19.5,565.9,19.5,566.5,21.3Z"/><path class="a" d="M594.3,48.9a3,3,0,0,1-1.1.4,1.2,1.2,0,0,1-.5-1,3,3,0,0,1,.4-1.1c1.7-2.3,1.5-4.9,3.1-7.8a9.8,9.8,0,0,0-2.3.8,29.1,29.1,0,0,0-3.1,3c-1.1,1.2-1.9,2.7-2.9,3.9s-2.1,4.3-3.2,6.4a45.3,45.3,0,0,0-4.8,20.6,7,7,0,0,0,.9,2.9c.5,1,1.6.6,2.4-.1a52.9,52.9,0,0,0,4.1-4.1c.5-.5.7-1.3,1.3-1.6a1.9,1.9,0,0,1,1.6-.4c.6.1.6.8.2,1.4a18.2,18.2,0,0,1-1.5,2.7l.6.3a5.6,5.6,0,0,0,.5-.8c.6-1.5,2.3-1.7,3.2-2.8a2,2,0,0,1,1.7-.1c.3.2.2,1.1.1,1.5l-2,4c2.1-1.1,2.2-3.2,4.1-4.7a14.8,14.8,0,0,1-4,7.5,18.2,18.2,0,0,1-12.5,5.7,9.3,9.3,0,0,1-2.4-.2c-3.2-1.5-6.7-2.6-8.9-5.4a16.5,16.5,0,0,1-3.6-10.5,75.4,75.4,0,0,1,.6-8.2,18.6,18.6,0,0,1,1.8-7.1c0-.2.3-.6.3-.8.9-4.7,3.7-8.8,6.5-12.7a13.2,13.2,0,0,1,3.2-3.5A26.7,26.7,0,0,1,589.3,31c5.2-1.5,9.6-.1,14,1.3a15.3,15.3,0,0,1,3.1,1.6,1.6,1.6,0,0,1,.6.8c.6,1.3.3,3.8-.7,5.7.1-.7.5-1.5.7-2.5a4.1,4.1,0,0,0-1.5,2.4,18.1,18.1,0,0,1-3.1,6.4,17.2,17.2,0,0,1-3.3,3.3c-2.3,1.7-3.6,1-3.6-1.4.1-.5,0-.8.1-1.2a5.4,5.4,0,0,0,1.9-3H597c-.5,1-1,2.1-1.4,3.1Zm-15.2-7.3c-2.2,3-4.2,6-4.9,9.6l5.5-9.2Zm-2.4,7.7a20.7,20.7,0,0,0,3-5,5.5,5.5,0,0,0,.9-1.4c-.1,0-.3,0-.3-.1a10.4,10.4,0,0,1-.6,1.6A8,8,0,0,0,576.7,49.3Zm3.5,6.1a82.8,82.8,0,0,1,5.2-9.7c.4-.4.4-.9.6-1.4s-.6,0-.6.1-.4.4-.6.5a40.6,40.6,0,0,0-5.2,9.6c-.2.7-.2,1.5-.4,2.3a5,5,0,0,1-.8,1.2h.5c.1-.5.1-.8.2-1.3A13.4,13.4,0,0,0,580.2,55.4Zm5.1-6.8c-1.2,2.7-2.6,5.3-3.5,8-1.9,4.9-2.3,6.7-1.6,8.2a49.6,49.6,0,0,1,5.9-16.1Zm15.3-2.1v.2h.4a8.7,8.7,0,0,0,2.4-6.4C602.4,42.4,601.5,44.4,600.6,46.5Z"/><path class="a" d="M625.7,59.5c-1,2.2-1.9,4.4-2.8,6.6h.5c.6-1.4,1.3-2.8,2-4.2-.7,2.3-.9,4.7-3.5,6.4.7.9,1.5,1.8-.6,2.4a26.3,26.3,0,0,0-1.5,3.5h.5a17,17,0,0,0,1-1.4c-.4,1.4-.3,2.8-1.5,4.1s-.3.7-.3.9-.1,2.6-1.7,3.5a9.6,9.6,0,0,0-1.8,1.7,13.5,13.5,0,0,0-1.5-1.3H614c-1.6,1.1-2.4,1.1-2.8-.3a3.5,3.5,0,0,0-2.7-2.3,2,2,0,0,1-1.5-2.5c.5-3.4.8-6.8,1.3-10.2a21.1,21.1,0,0,1,.5-3.5l.9-4,.6-2.3c.6-3.5,1.3-7.1,1.9-10.6.2-1,.9-1.9,1-2.8a34.1,34.1,0,0,0,1.3-5.3,15.5,15.5,0,0,1,.6-2.3c.7-2.1,1.5-4.2,2.1-6.3,1.9-6.9,3.6-13.7,5.5-20.6a20.1,20.1,0,0,1,.9-3c.6-1.5,1.9-2,2.9-1.1s.4.7.6.6c2.7-.4,2.8,2,4,3.2s.1,2,.1,3a3.5,3.5,0,0,1-.5,2c-1.3,2.3-.3,4.7-1.6,7a1,1,0,0,0-.2.7c.5,1.8-.5,3.3-1.3,5a16.9,16.9,0,0,0-1.3,6.6c.1,1.3.3,3-1.5,4.4s-.5,1.6-.1,2.2,1.4.4,2.1-.3l.7-.7c1.7-2.6,4.4-4.3,6.9-6.2a9.1,9.1,0,0,1,6.1-1.9A16.3,16.3,0,0,1,652,35.2a8.5,8.5,0,0,1,1.7,3.1c1.8,4.6,1.6,9.5-.3,14.8a4.8,4.8,0,0,0,0,1.2c-.6,1.9-.8,3.8-1.4,5.6s-.8,1-1.3,1.6c1.1,1.8.7,3.8-.7,5.8s-.2,1.5-1.1,2.1a8.8,8.8,0,0,0,.5,1.9c-.9,1-1.7,2-1.3,3.6s-1.7,8-4.5,10.4a6,6,0,0,0-.6-1.1c-.7.3-1.4.9-2,.7s-.9-.8-1.4-1.1a2.8,2.8,0,0,0-1-.9c-1.7,0-1.9-1.1-2-2.3a24.8,24.8,0,0,1,.1-4.7A183.8,183.8,0,0,1,641.9,51a65,65,0,0,0,1.6-9.5,21.3,21.3,0,0,0-.2-4.3c-.9.3-1.5.4-1.9.9s-4.1,3.2-5.2,5.6a19.5,19.5,0,0,1-2.7,3.9l-.5-.4a5.4,5.4,0,0,0-.6,1.3c.7-.6,1-.8,1.1-1.1a37.2,37.2,0,0,1-2.1,3.9c-.2.4-.4.8-.8.9-2,.5-2.2,2.3-2.7,3.7a4.2,4.2,0,0,0-.4,1A15.1,15.1,0,0,0,625.7,59.5ZM632,44.9a96.2,96.2,0,0,0-8.7,14.7,3,3,0,0,0-.6,2.7,11.3,11.3,0,0,1,.9-1.5,95.2,95.2,0,0,1,11.2-18.1c.5-.7.7-1.4,1.3-2.3l1.6-1.6-.4-.2a11.8,11.8,0,0,1-1.3,1.8A34.7,34.7,0,0,0,632,44.9Zm-7.7,4.8a13.9,13.9,0,0,1-.6,1.3h.4a4.2,4.2,0,0,1,.7-1.3Zm4-5.8c.1.2.2.2.3.2l1.5-1.9c-.8.2-1,.3-1.2.5a41.1,41.1,0,0,1,2.4-3.9c-3,2.3-7.1,7.9-7.5,10.2,1.7-2.1,3.2-4,4.6-5.9A1.1,1.1,0,0,1,628.3,43.9Zm19.2,31.8h-.2v.4h.2C647.5,75.9,647.4,75.8,647.5,75.7Z"/><path class="a" d="M676.7,82.6c-1.7,2.2-1.7,2.1-3.3.7a3.4,3.4,0,0,0-1.9-.7c-3-.2-3.3-.1-3.5-3.5s-.4-5.7,0-8.8.3-6.6,1.5-10.1c.4-1.3.1-2.6.2-4,1.1-5.5,2.3-11,3.3-16.3.4-1.8-.1-2.5-1.7-2.8s-1.4,0-2.1-.3-4-1-4.4-3.5c-2.7.3-4.4-.6-5.3-2.7s-.4-2,.9-2.4a40.4,40.4,0,0,1,4.4-1.1l8.9-.7c2.3-.2,2.8-.7,3.4-2.8,1.4-4.8,2.9-9.4,4.2-14.2a5.4,5.4,0,0,1,4.6-3.6h.5c.7,1.3,2.3,1.1,3.7,1.1s2.1.6,1.8,2a6.4,6.4,0,0,0,0,1.4l1.9-1.3v2a4.9,4.9,0,0,0,0,1.7l.8-1.7h.4a27.9,27.9,0,0,1-1,3.9,2.2,2.2,0,0,1-.8,1.5c-2.7,2.5-1.5,5.4-3.3,7.9a1.8,1.8,0,0,0,1,.2,29.7,29.7,0,0,1,1.3-3.9h.3c-.3,1.5-.7,3-1,4.7l6.5,1.3a9,9,0,0,1,4,1.8.8.8,0,0,0,.7.7c1.6.7,1.6,2.1.1,3.5a10.5,10.5,0,0,1-4.9,2.3,59.7,59.7,0,0,1-6.1.8c-1.7.1-3.3,1.1-4.9,1.8a4,4,0,0,0-.7,1.3c-1.2,4.8-2.4,9.7-3.5,14.5s-1.8,10.6-2.6,16c-.4,2.7-.7,5.4-1,8.1a2.7,2.7,0,0,0,.6,1.2c.7,1,.7,1.6-.2,2.7a11.7,11.7,0,0,0-1.2,2Zm-4-17.6.3.2c.1-.1.2-.4.1-.4s-.1-.2-.2-.2S672.7,64.8,672.7,65Zm3-17a19.4,19.4,0,0,0,.2-2.4h-.3A21,21,0,0,1,675,48Zm4.9,5.1a5.1,5.1,0,0,0-.7,2.2,62,62,0,0,0-1.2,7.1c-.2.8-.6,1.6,0,2.4,1-4,1.8-7.8,2.6-11.6Zm3.4-15c-.8,4-2.6,7.9-2.6,11.9C682.7,46,683.9,42.1,684,38.1Z"/><path class="a" d="M723.6,76.5c.1.4-.5.8-.8,1.2-4,3-8.2,5.8-13,6.5a10.3,10.3,0,0,1-8.3-2c-3.6-2.8-6.4-6.4-6.9-11.4a23.1,23.1,0,0,1,.9-8.9,106.3,106.3,0,0,1,4-11.6c1.2-3,3.2-5.8,4.9-8.7a10.8,10.8,0,0,1,3.1-3.7c1-.8,1.5-2.4,2.3-3.6a19.2,19.2,0,0,1,7-5.4,6.5,6.5,0,0,1,6.5.4,19.9,19.9,0,0,1,5.6,6,4.9,4.9,0,0,1,.6,4.6,15.2,15.2,0,0,0-.3,2.1,5.3,5.3,0,0,1-1.7,2.9,82.2,82.2,0,0,0-5.2,6.5l-.6,1c-.3.2-1,.3-1.3.7s-2.8,2.5-4.1,3.7a5.5,5.5,0,0,0-1.1,1c-1.6,3-4.6,4-6.8,5.9l-3.6,2.2a3.6,3.6,0,0,0-1.8,2.8,21.4,21.4,0,0,0,.5,6.2c.6,2.6,1.7,2.9,4.4,1.4s6.6-4.1,8.9-7.5,3.7-4.8,5.3-7.3,1.6-3.9,2.5-6.1a2.1,2.1,0,0,1,2.7.2c1.4,1.2,3.2,2,4.3,3.3a3.3,3.3,0,0,1,1,2.7,6.4,6.4,0,0,1-2.8,5.8,8.2,8.2,0,0,0-1.7,2l-2.5,4.1h.1C724.6,74.3,723.6,75.1,723.6,76.5ZM712.8,54.2c.1,0-.2-.3-.2-.6l2.9-3.5c-.2-.1-.3-.1-.3-.2-2.4,2.7-5.3,4.7-7.6,7.4a.5.5,0,0,1,.2.4l1.6-.8,1.8-1.3A7.3,7.3,0,0,0,712.8,54.2Zm-4.4-2.7s-.4.3-.4.4a.6.6,0,0,0,.2.5c.1-.2.3-.3.5-.5S708.4,51.7,708.4,51.5Zm13.4-2.3c-4.3,4.1-8.5,8.1-12.7,11.9C714,58.3,721,51.7,721.8,49.2Zm-7.9-6.3a4,4,0,0,1-1.2,2.8c-.7,1.3-1.5,2.4-2.3,3.7s-.7,1.7-1.1,2.5c1.1.5,1.7-.1,2.2-.8l6.8-9c1.1-1.7,2.4-3.2,2.7-5-1.7-.4-1.7-.4-3.4,1.4a5,5,0,0,0-2.3,3C714.8,42,713.9,42.7,713.9,42.9Zm2.7-11.3a13.3,13.3,0,0,0-1.9,1.4,2.4,2.4,0,0,0-1.4,2l1.6-1.7A2.8,2.8,0,0,0,716.6,31.6Zm-1.9,7.8c1.3-1.1,2.9-1.9,3.6-3.5A6.8,6.8,0,0,0,714.7,39.4Zm5.8,29.4c-1.6,1.9-3.5,3.8-5.1,5.5l.5.4a26,26,0,0,0,5-5.5C720.8,69.1,720.7,68.9,720.5,68.8Zm4.9,1.5c-2.2,2.6-4.6,5.2-6.8,7.6,3.3-1.6,5.2-4.3,7.3-7.2Zm-5.7,1.9.7-.9h-.2l-.7.7Z"/><path class="a" d="M217.2,131.1a6.8,6.8,0,0,0-.2,1.4,18.9,18.9,0,0,1,2.8-2.3c.3-.3,1,.2,1.9.4-6.4,15.7-11.7,31.2-19.4,46.5a2.1,2.1,0,0,0,1.8-1.4c1.4-2.7,2.8-5.4,4-8.2l6.7-16.3c1.8-5.2,3.7-10.3,5.8-15.4a32.1,32.1,0,0,1,2.2-4.6c1.5.9,1.3,2.2.6,3.6a30.5,30.5,0,0,1-2,4.6,29.9,29.9,0,0,0,.8-3.2c-1.2,1.6-3.8,8.7-3.9,11,.3-.6.6-.9.8-1.3s.2.1.2.3a17.3,17.3,0,0,1-1.9,4.5v-1.2l-.4.2c-.6,1.2-1.8,2.5-.7,3.8s0,.9-.3,1.3l-6.6,16.6c-.5.8-.9,1.5-2,1.4-.2,4.7-3.4,7.5-7,9.7-1.3.8-3.3,1.3-4.4.9-5.8-1.2-10-3.8-11.1-10a114.4,114.4,0,0,1-1.7-13.1,63.3,63.3,0,0,1,1-13.6c.8-4.6,1.8-9.3,2.8-14,.6-2.4,2.5-3.5,4.8-2.5.5.1,1.1.5,1.6.3,2.4-.9,3.6.7,5.1,1.4a2.3,2.3,0,0,1,1.2,2.7c-.5,1.4-.4,2.9-1.9,4.1s-.3,1.5-.7,2.6l1.3-1.1c-.5,2.9-.9,5.7-1.3,8.5s-.3,3.2-.6,4.8-1,2.9-.1,4.2v.5c-1.5,2.6.6,4.1.3,6.5,1.9-1.5,2.3-3.2,2.9-4.8a74.9,74.9,0,0,1,5.2-11.6,17.9,17.9,0,0,0,1.3-3.2,5.1,5.1,0,0,1,.7-1.5,5.9,5.9,0,0,0,1.8-3.7c0-.3,0-.5.1-.6,1.7-2.1,1.9-4.5,3-6.7s2.2-3,4.8-3c-.6,1.8-1.4,3.7-2,5.6s-2.1,4-2.9,5.9c-4.3,10.1-8.7,20.1-13,30.3a2.2,2.2,0,0,0-.2,1.1,3.6,3.6,0,0,0,1.1-1,26.2,26.2,0,0,0,1.8-4.3c3.5-8.2,7-16.4,10.4-24.7,1.1-2.4,1.8-4.9,2.7-7.4S216.3,132.5,217.2,131.1Zm-20.1,14v-.8H197a3.7,3.7,0,0,1-.2.9Zm1.4-10.2c-.1.5-.1.9-.2,1.3h.3a2.5,2.5,0,0,1,.4-1.1A.6.6,0,0,0,198.5,134.9Zm.4,39.8c2.2-2.9,11.5-24.9,12-28C206.8,156.1,203,165.1,198.9,174.7Zm10.4-6.5a6.6,6.6,0,0,0-.6,2h.5a10.4,10.4,0,0,1,.8-2ZM215,155c-1.4,3.2-2.7,6.2-3.9,9.3C212.3,163,214.8,156.9,215,155Zm-2.1-12.2a1.9,1.9,0,0,1,.2-.8h-.3a2,2,0,0,1-.3.8Z"/><path class="a" d="M264.9,161.6c-1.3.3-2.4,1-2.1,2.5a3,3,0,0,1-.9,2c-4,5.3-8.6,10.2-14.4,13.7s-12.5,5.4-18.6,2.8c-4.2-1.9-7.8-4.2-9.2-8.8a16.5,16.5,0,0,1-.6-8.6c0-.1.2-.4.1-.5-.2-3.4,1.2-6.7,2.7-9.9,2.3-4.9,4.9-9.7,9.1-13.5,2.4-2.3,4.8-4.7,7.4-6.8a17.8,17.8,0,0,1,15-4.2,31.3,31.3,0,0,1,13.6,5.8c1.5,1.1,2.2,2.8,3,4.6,2.3,5.9-.5,11.8-3.5,17.7a21,21,0,0,1,.6-2.4c1.3-2,1.5-2.6,1.5-4.2a6.6,6.6,0,0,0-1.5,4.3A7.3,7.3,0,0,0,264.9,161.6Zm-31.6-17.2c-2.5,1.6-5.2,5.6-6,8.6C229.1,150.2,231.1,147.6,233.3,144.4Zm-4.1,7.9c1.7-2.2,2.8-4.2,4.2-6A11.9,11.9,0,0,0,229.2,152.3Zm11.5-9.1a57.2,57.2,0,0,0-10.2,14.9,18.1,18.1,0,0,0-.4,2.2c.4-.8.8-1.2,1-1.6,2.9-4.4,5.7-8.8,8.7-13.2l2.1-3,1.7-1.6q0-.2-.3-.3a23.1,23.1,0,0,1-1.4,1.9Zm-5.5,13-1.1,2.6c-1,3.4-2.6,6.7-3,10a9.7,9.7,0,0,0,1.4,6.2c1.4,1.8,1.6,2,4.1.6a34.3,34.3,0,0,0,10.6-9.8,49.1,49.1,0,0,0,8.3-18.2c.6-2.8,1.3-5.6.6-8.2s-2.2-3.2-4.9-1.9a32.7,32.7,0,0,0-4.8,3.5c-1.7,1.8-3.1,3.8-4.7,5.5a10.1,10.1,0,0,1-2.2,1.8,4.1,4.1,0,0,1,0,1.1c-1.3,1.8-1.7,3.9-3.8,5s-1.1,1.5-1.4,2c-2.1,3.2-3,5.6-2.5,7.6.8-2.5,1.5-5,2.3-7.6Zm20.7,2.2-4.2,7a15.6,15.6,0,0,0,4.6-6.7C256.2,158.5,256.1,158.5,255.9,158.4Zm1.5.1c-.7,1.4-1.5,2.7-2.2,4l.6.2,2.3-3.9A1.1,1.1,0,0,1,257.4,158.5Zm.1,9.1.7-.5-.2-.3-.7.7Zm7.1-13.2c-1.8,3.4-3.6,6.8-5.3,10.2l.5.2a25,25,0,0,0,5.3-10.2C265,154.6,264.9,154.4,264.6,154.4Z"/><path class="a" d="M318.2,138.9a84.9,84.9,0,0,0-7.2,11.2,60.3,60.3,0,0,0-4.6,9.6c-.9,2.8-2.4,5.6-2.8,8.5A4.2,4.2,0,0,1,300,172a21.2,21.2,0,0,1-3.3-1.1,1.8,1.8,0,0,1-1.1-1.3,52.8,52.8,0,0,1,.1-5.6l.3-3.6c.5-3.6.7-7.2,1.8-10.7s.6-5.2,1.4-7.7c.3-.7,0-1.4,0-2.4a21.7,21.7,0,0,0-3.6,4c-2.6,4.2-4.5,8.5-6.8,12.7-.9,1.7-1.4,3.4-2.2,5a17.1,17.1,0,0,0-2.1,6.5,3.9,3.9,0,0,1-.8,1.9c-.7.9-1.1,1.4-.7,2.3a6.1,6.1,0,0,1-.3,1.1c-.6,1.7-1.4,3.4-2,5.1s-3,3.5-4.7,2.8a4.4,4.4,0,0,0-1.6-.6c-2.3.1-2.5-1.3-2.4-3.3s-.4-4.3.5-6.3.1-4.7.3-6.9c.6-5.1,1.4-10.2,2.5-15.3a56.4,56.4,0,0,1,2.4-8.7c.7-1.6.6-3.2.9-4.8a11.4,11.4,0,0,1,.9-2.6c.5-1.8,1.1-2.1,2.9-1.8a1,1,0,0,0,.9.2c1.9-1.4,2.8.4,4.1.8s.5,1.5.2,2.4c-1.1,4.2-1.9,8.3-3.1,12.8a5.2,5.2,0,0,0,3-2.4,68.6,68.6,0,0,1,10.8-12.8c2.1-2.1,5.8-2.8,7.9-1.5s1.5,2.1,1.8,3.5h.9c-.2,2.5-.7,5.1-1.1,7.8,2.7-1.5,3.9-4,5.9-6a44.3,44.3,0,0,1,5.1-4.5,10.3,10.3,0,0,1,12.2.5c1.8,1.5,1.1,3.7,1.2,5.8s-1,2.1.3,2.7-.1.8-.3,1.2a24.8,24.8,0,0,0-3.5,11.9,7.3,7.3,0,0,1-.7,2.4v-2.2a33.4,33.4,0,0,0-1.4,4.1c-.1.8-1,1.7.3,2.3s-.3,1.8-.8,2.5-1.9,2.4-1.2,3.9a.8.8,0,0,1-.1.7c-2.1,1.4-1.2,3.1-1.5,4.7s-.4,1.8-.6,2.8-.3-.4-.4-.7h-.5a36.4,36.4,0,0,1-.5,4.5,5.4,5.4,0,0,1-.5,2.1l-1.6,3.4c0,.3-.4.5-1.1.7s.1-1.3.2-1.9c2.6-9.2,5.3-18.6,8-27.8.7-2.9,1.7-5.8,2.6-8.8a12.4,12.4,0,0,0,.4-3.3c-1.1,3.6-2.4,7.1-3.4,10.7-2.6,9.2-5.3,18.3-7.9,27.6-.4,1.2-.7,2.5-1.2,3.7s-1.5,1.3-2.1.5a7.4,7.4,0,0,0-.8-1.3,1.1,1.1,0,0,0-1-.4c-1.4.6-1.9-.1-2-1a5.7,5.7,0,0,1,.2-2.2c.8-3.9,1.8-7.9,2.7-11.7s1.3-5.7,2.1-8.5,1.7-5.8,2.7-8.6c1.8-5.2,3.6-10.5,5.4-15.6a12.9,12.9,0,0,0,.4-1.9l-.4-.3A24.2,24.2,0,0,0,318.2,138.9Zm-29,13.8c-.5.6-1.1,1.2-1.6,1.9a102.5,102.5,0,0,0-5.9,14.7c-.1.4,0,.9-.1,1.4,1.6-3.5,3-7,4.4-10.5l3.2-7.5c.9-2,2.1-3.9,3-5.8s1.4-.9.7-1.9c-.2.8-.5,1.4-.6,2A9.3,9.3,0,0,0,289.2,152.7Zm-6.4-5-.4.4v.4l.8-.2Zm3.2,2.8a5.4,5.4,0,0,0-.9,1.5h.2l1.2-1.4Zm0-15.1a3.4,3.4,0,0,0,0-1h-.3a4.5,4.5,0,0,1-.3,1.1Zm3.3,10.4q0-.2-.3-.3l-.4.4.3.6C289.2,146.2,289.3,146,289.3,145.8Zm3.9-5a1.1,1.1,0,0,1-.3-.5l-.2.4a.4.4,0,0,0,.1.3Zm9.8-4.7.4.2v-.2l-.2-.2Zm2.7,22.8c1.3-2.9,2.6-5.9,4-8.8h-.5a40.7,40.7,0,0,0-3.9,8.8Zm.7-16.6a1.8,1.8,0,0,1,.2-1h-.4a3.6,3.6,0,0,0-.2,1Zm2.1,2.8a6.3,6.3,0,0,1-.4.9l.6.2.3-1Zm3.2.5-1.4,2C311.5,147,311.5,147,311.7,145.6Zm-.1-3.9-.3-.2-.4.3a.5.5,0,0,0,.2.4Zm1-2,.4.2.2-.3-.2-.2A.7.7,0,0,1,312.6,139.7Zm4,28.5c-.7,2.6-1.3,5.2-1.9,7.7,0,0,.1.2.6.3l1.8-8Zm-.5,6.5v1.1a4.7,4.7,0,0,1,.5-1Zm1.9-11.1a8,8,0,0,1-.5,2.1h.4a16.6,16.6,0,0,1,.6-2.1Zm.8,2.1a1.6,1.6,0,0,1,.4-.7c0-.2-.2-.4,0-.6h-.4a3.6,3.6,0,0,1-.2,1C318.7,165.5,318.7,165.7,318.8,165.7Zm1.2-9.4c-.3,1.3-.5,2.6-.8,3.9C319.9,158.9,320.7,157.6,320,156.3Zm2.9-7.6a11.3,11.3,0,0,1,.4-1.5H323c-.1.5-.3.9-.4,1.5Zm3.3-11.2c-.1,0-.1.3-.1.3l.2.2c0-.1.1-.2.1-.4Z"/><path class="a" d="M35.9,278.1c-7.1,4.3-13.8,4.7-20,1.7a15.6,15.6,0,0,1-1.5,1.7c-1.1.7-1.8,2.3-3,1.1l-.7.2c-1.1,1.5-1.9.7-2.8,0a2.9,2.9,0,0,0-1.7-.7c-2.1-.2-2.7-.8-2.3-2.8.8-4,1.6-7.9,2.5-12s1.7-9.7,2.7-14.6,1.9-7.2,2.8-10.8c.5-1.7,1.1-3.3,1.5-5.1,0-.2.3-.5.3-.7.4-4,1.6-7.9,2.5-11.9,1.9-6.9,4-13.8,6-20.7.6-1.8,1.5-2.4,3.5-2.3s1.9-.2,2.8-.1a3.3,3.3,0,0,1,2.1.7c1.1,1.5,1.2,1.7,2.6,2.3-1.5,2-1.8,4.2-2.4,6.3s0,1.3,1.1.6c-.6,2.1-1.1,4.1-1.8,6.1-.1.3-.2.9-.4,1-2.4,1.4-1.7,3.4-1.9,5.2.2-.9.6-1.7.7-2.5h.3c-.7,2.8-1.4,5.5-2.2,8.2h-.2v-2a31.5,31.5,0,0,0-2.5,8.1l.9-1.1h1.7a7.4,7.4,0,0,0,1.5-.8c7-4.8,13.9-5,20.6-3,.9.2,1.6.7,2.4.8,2.4.3,3.3,2,3.8,3.9s1,2.4.6,3.8c1.2,1.4.4,3.5.8,5.3a4,4,0,0,0-2.7,3.6c-.1,3.7-1.6,7.3-3.2,10.9-.2.7-.3,1.5-.5,2.2s.4.9,1,.9C48.1,268.9,42.6,274.2,35.9,278.1ZM19,265.3a.6.6,0,0,1,.4.6l.7-1.1c-.6,1.2-.4,2.8-2.1,3.5a2.2,2.2,0,0,0,0,1.4,12.8,12.8,0,0,0,2.2,2.4c3-1.5,2.6-.8,6.5-5.2A37.4,37.4,0,0,0,34,256.4c1.6-3,2.1-6.3,4.3-9.1a1.8,1.8,0,0,0,.2-1c.4-1.7.7-3.4,1-5.2a4.8,4.8,0,0,0-.3-3.5l-1.9,1.2C34,241,31.8,244,29.4,247a31.2,31.2,0,0,0-2.7,4.3c-.8,1.4-1.6,2.9-2.3,4.4s-1.3,3.5-2.4,4.6-.9,2.8-1.6,4.1-.3.3-.3.4S19.2,264.7,19,265.3Zm-.4-2.9L25,249.3l-.5-.2a48.8,48.8,0,0,0-6.4,13.2Zm11.2-46.5c.1-.2.1-.6.2-.8h-.2c-.1.2-.1.6-.3.8Zm11.8,35.9c-1.1,2.3-2.1,4.5-3.3,6.7s-2.7,4.4-3.4,6.8a28.7,28.7,0,0,0,7-13.3Zm-2.1,10.4a35.3,35.3,0,0,0,4.3-10.1C41.9,254.8,39.6,260.2,39.5,262.2Zm8.5-2.6c.8-2.6,2-5.2,2.1-7.7-2.3,4.5-4.6,9-6.7,13.5,0,.3-.1.5-.1.7s.1.3.5.6A23.4,23.4,0,0,0,48,259.6Zm-.2,5.2-.9,1.6h.4a8.9,8.9,0,0,0,.8-1.7Zm5.9-28a1.3,1.3,0,0,1-.3-.5l-.4.4.3.2Z"/><path class="a" d="M62.2,282c-.1-1-.9-1-1.8-1.3a22.5,22.5,0,0,1-1.2,2.1c-2.6-.7-3-2.6-2.7-5.1.6-4.2.8-8.3,1.2-12.5.2-1.2.2-2.5.5-3.8.5-3.3,1.2-6.7,1.9-10.1s1.7-7.5,2.7-11.2c2.3-8.1,4.4-16.1,6.7-24.2.9-3.3,1.9-6.6,2.9-9.9a11.9,11.9,0,0,1,2.1-3.8c1.4-1.6,2.3-1.7,4.1-1s1.2-.1,1.5.1.1.8.2,1.3c3.1-3,3.9-2.7,5.3,1.6l1.6-1,1.3,1.3c-.6,1.6-1.1,2.9-1.5,4.3-.9,3.6-1.4,7.2-2.4,10.8-1.8,7.1-3.9,13.9-5.9,20.9a58.5,58.5,0,0,0-1.2,7.1c1.4-5,3-9.9,4.4-14.8h.6c-.4,1.1-.5,2-.9,3.1s-.6,2.3-.8,3.5c-2,7.2-4,14.6-6.1,21.9-.5,2.4-1,4.6-1.6,6.9-.1.3-.1.6-.3.8-2.5,2.1-2.3,4.8-3,7.4s-.8,3.1-1.4,5.3c-1-1.3-.5-2.4-.4-3.3,2.1-8.9,3.8-17.8,6-26.6s5.4-20.4,8-30.4a51.6,51.6,0,0,0,1.3-7.7c-2.4,7.7-4.7,15.4-6.8,23.1s-3.9,15.4-6,23.2-2.3,15.5-5.1,23.2C63.5,283.6,62.4,283.3,62.2,282Zm-.9-8.6a10.1,10.1,0,0,0-.2,1.9h.3a14.6,14.6,0,0,1,.5-2C61.7,273.2,61.4,273.2,61.3,273.4Zm1.3-5.6-.6.2c0,.1.1.3.2.3s.3-.1.4-.1Zm.2-4.1v.9a2.5,2.5,0,0,0,.4-.9Zm1.6-4.7a.9.9,0,0,1-.6-.4,9.7,9.7,0,0,0-.2,1.2A2.8,2.8,0,0,1,64.4,259Zm.4-3.3c2-8.1,4-15.7,5.9-23.4C67.9,238.1,64.2,252.9,64.8,255.7Zm4.1-12.4c-.7,3.2-1.3,6.4-2,9.5h.5c.7-3.3,1.4-6.4,2-9.6Zm2.2-7.4c-.2,1.1-.6,2.3-.8,3.5h.2c.3-1.2.6-2.4.9-3.4Zm3.4,21.2c-.3,1.7-.7,3.3-1,4.9C73.9,260.4,75.2,258.6,74.5,257.1Zm1.9-5.8c-.1.1.1.2.2.2l.2-.4-.2-.3C76.4,250.9,76.4,251.2,76.4,251.3Zm8-43.5a14.6,14.6,0,0,0-.5,2,1.5,1.5,0,0,0,1.2-.9c.2-.4,0-.7.2-1.1Z"/><path class="a" d="M107,241.6l-.5.2c-2,1.3-2.3,1.3-3.4-.2a1.9,1.9,0,0,0-1.7-1.2c-1.5,0-1.7-1.3-.6-2.4a28.2,28.2,0,0,1,11.9-7.7,22.1,22.1,0,0,1,4.2-1.2,19.3,19.3,0,0,1,15.9,3.3,6.5,6.5,0,0,1,3.1,6.2,49.1,49.1,0,0,1-.9,6.7,5.9,5.9,0,0,1-1.3,1.8,16.1,16.1,0,0,1,0,2.2,1.7,1.7,0,0,1-1.2,2c-.2,0-.7.9-.5.9s.3,1.3-.5,1.9-.5.5-.6.7l-2.4,7.4-.5.9c-.4.9-.9,1.9-1.2,2.7-.4,2.8-2,5.5-1.8,8.3,0,.2-.2.4-.2.5s-2.2,3-4,3.8l-.4.2c-.9-1-2.1.5-3,.4s-4.2.7-6.3,1.2a75.4,75.4,0,0,1-13.7,2.3c-3.2.1-6.2-.3-8.5-1.9a37.5,37.5,0,0,1-5-3.6c-2.8-2.6-3.1-6.2-1.3-10.4,3.1-6.9,8.5-11.8,15.3-15.2a32.1,32.1,0,0,1,14.4-3.3,30.1,30.1,0,0,1,8.1,2l1.1.4c1,.3,1.4.1,1.7-1a60.3,60.3,0,0,0,2.1-11.6c.4-2-.2-2.6-2.3-2.1a38.2,38.2,0,0,0-12.4,5.2l-3.7,2.2A9.7,9.7,0,0,0,107,241.6ZM91.6,260.2c-1.9,1.6-3.8,3.5-4.5,5.9A36.8,36.8,0,0,0,91.6,260.2Zm-1.7,3.6-.6,1.2h.4a3.4,3.4,0,0,1,.6-1.2Zm2.7,5.2c1.8-2.4,3.4-4.7,5.4-7.6C94.5,264,92.4,267.1,92.6,269Zm3.5-1a3.1,3.1,0,0,1-.5,1.3c-.2,1.3-.8,2.4-.9,3.7s.2,2.7,2.5,2.5a80.2,80.2,0,0,0,15.7-3.4,4.2,4.2,0,0,0,2.5-2.4c1.9-3.6,2.2-7.4,3.4-11.2a3.3,3.3,0,0,0,0-1.7c-.3-1.7-.7-2.1-2.5-2.1a20.4,20.4,0,0,0-3.4.3c-5.7,1.3-10.2,4.7-14,9.4-.5.7-1,1.6-1.6,1.7-2.6.7-2.5,2.6-3.2,4.1h.4c.6-.8.9-1.6,1.4-2.4S96.1,267.9,96.1,268Z"/><path class="a" d="M150.2,270.7a219.9,219.9,0,0,0,12.9-20.5,63.5,63.5,0,0,0,5.1-12.1c.3-1.5.4-2.9.7-4.4s1.5-3,3.4-2.4l5.3,1.7a2.6,2.6,0,0,1,1.9,3.1c-.1,1.8.5,3.6-1.1,5.4,0,0-.2.1-.1.2,1.2,2.9-2.4,5.6-2.3,8.5a39.9,39.9,0,0,1-1.2,5.8c-.1.7.3,1.2.4,1.8a4.3,4.3,0,0,1-.7,4,2.7,2.7,0,0,0-.5,3.5,2.9,2.9,0,0,1,.1,2.7,9.3,9.3,0,0,0-.4,3.3c.4,3.1.3,6.4,2.1,8.7a4.6,4.6,0,0,1-3,2.5c-2.6.7-6.7-1-7.4-3.3s-1.2-4.9-1.8-7.4a12,12,0,0,0-.5-2.3,15,15,0,0,0-3.6,3.5c-2.1,2.9-4.3,5.8-7.6,7.8s-5.8,2.5-8.5,1.3l-2.9-1.1c-2.8-1.3-3.5-4-4.1-6.8a35.7,35.7,0,0,1-.7-8.7c.1-3.8.6-7.7.9-11.6,1.6-2.4.9-4.8,1.8-7.3s1.2-5,2.1-7.5,2.7-6.3,4.3-9.3,1.8-2,3.4-1.5l2.1.6c2.8.3,2.9.4,2.8,3.6a13.2,13.2,0,0,1,1.2-1.6c.1.3.3.4.3.5-1.4,4.4-2.9,8.6-4.2,12.8-.8,2.5-1.7,5.2-2.4,7.8-.3,1,.2,2.1-.2,3.3s-.7,2.6-.8,4,1.1,2.3-.2,3.9a2.2,2.2,0,0,0-.4,1.8l.9,6.4a10.4,10.4,0,0,1,.5,1.6A10.7,10.7,0,0,0,150.2,270.7Zm-8.4-21.6c0,.1.2.1.2.2a.4.4,0,0,0,.1-.5c0-.1-.1-.1-.1-.2A1.1,1.1,0,0,0,141.8,249.1Zm.9-5.5c1.8-1,1.6-2.1,1.4-3.9C143.5,241.2,143.2,242.3,142.7,243.6Zm5.8-.8-1.2,4.5A4.3,4.3,0,0,0,148.5,242.8ZM163.8,255c-1.5,1.3-4.4,6.2-5.2,8.4a7.8,7.8,0,0,0-1.8,2.5l.6.2c.4-.9.7-1.7,1.2-2.7C161,261,162.3,257.9,163.8,255Z"/><path class="a" d="M212.1,274.6c.1.4-.5.9-.8,1.2-4,3-8.2,5.9-13,6.6a11.1,11.1,0,0,1-8.3-2c-3.6-2.8-6.4-6.5-6.9-11.5a21.5,21.5,0,0,1,1-8.9,87.9,87.9,0,0,1,3.9-11.6,76.3,76.3,0,0,1,4.9-8.7A11.8,11.8,0,0,1,196,236c1-.8,1.5-2.3,2.3-3.6a19.2,19.2,0,0,1,7-5.4,6.2,6.2,0,0,1,6.5.5,18.5,18.5,0,0,1,5.6,5.9,4.9,4.9,0,0,1,.6,4.6,15.2,15.2,0,0,0-.3,2.1A5.3,5.3,0,0,1,216,243a82.2,82.2,0,0,0-5.2,6.5l-.6,1c-.3.2-1,.3-1.3.7s-2.8,2.5-4.1,3.7-.9.7-1.1,1.1c-1.5,2.9-4.6,3.9-6.8,5.8l-3.6,2.2a3.6,3.6,0,0,0-1.8,2.8,21.4,21.4,0,0,0,.5,6.2c.6,2.6,1.7,2.9,4.4,1.4s6.6-4.1,8.9-7.5,3.7-4.7,5.3-7.3,1.6-3.9,2.5-6.1a2.1,2.1,0,0,1,2.7.2c1.4,1.2,3.2,2,4.3,3.3a3.3,3.3,0,0,1,1,2.7,6.4,6.4,0,0,1-2.8,5.8,8.2,8.2,0,0,0-1.7,2l-2.5,4.1h.1C213.1,272.4,212.1,273.2,212.1,274.6Zm-10.8-22.3c.1,0-.2-.3-.2-.5s1.9-2.4,2.9-3.5l-.3-.3c-2.4,2.7-5.3,4.7-7.6,7.4a.5.5,0,0,1,.2.4l1.6-.8a14,14,0,0,0,1.8-1.3A7.3,7.3,0,0,0,201.3,252.3Zm-4.4-2.6-.4.3c0,.2,0,.4.2.5l.5-.5Q196.9,249.9,196.9,249.7Zm13.4-2.4c-4.3,4.1-8.5,8.1-12.7,11.9C202.5,256.4,209.5,249.8,210.3,247.3Zm-7.9-6.3a4,4,0,0,1-1.2,2.8c-.7,1.3-1.5,2.5-2.3,3.8a25.6,25.6,0,0,0-1.1,2.4c1.1.5,1.7-.1,2.2-.8l6.8-9c1.1-1.6,2.4-3.2,2.7-5-1.7-.4-1.7-.4-3.4,1.4a5,5,0,0,0-2.3,3C203.3,240.1,202.4,240.8,202.4,241Zm2.7-11.3-1.9,1.4c-.6.5-1.3.8-1.4,2l1.6-1.7A2.8,2.8,0,0,0,205.1,229.7Zm-1.9,7.8c1.3-1,2.9-1.9,3.6-3.5A6.8,6.8,0,0,0,203.2,237.5Zm5.8,29.4c-1.6,1.9-3.5,3.8-5.1,5.5a1.1,1.1,0,0,0,.5.4,23.7,23.7,0,0,0,5-5.5Zm4.9,1.6-6.8,7.5c3.3-1.6,5.2-4.3,7.3-7.2Zm-5.7,1.8.7-.9h-.2a4.6,4.6,0,0,0-.7.7C208,270.1,208.1,270.2,208.2,270.3Z"/><path class="a" d="M236,233.2c4-2,4-2,5.2.7l1.5-.9c1.6.9,1.3,2.8.9,4.5-.7,3.2-1.5,6.3-2.2,9.5a16.5,16.5,0,0,0-.6,2.4c.9-.7,1.4-.9,1.9-1.4s2.9-3.2,4.3-5a52.6,52.6,0,0,1,13-11.9,12.7,12.7,0,0,1,6.8-2.2c2.1,0,4.2.2,6.4.4l1.4.9c.5.3.8.9,1.5,1.1,2.3,1,2.9,2.2,2.1,5.2l-.3.2c1.1,2.8-1.1,5.7-1.5,8.5s-1.4,6-2.2,9-1.6,6-2.5,8.9-1.1,5.2-1.7,7.9-1.6,7-2.3,10.5a13,13,0,0,1-1.1,1.9l-1-.9-1.4,1.8c-1.8-.4-1.8-.4-2.8-2.9-.4.5-.5,1-.7,1.2s-2.6,1-2.4-.6c.3-3.3-1-6.2.5-9.8.8-1.8.6-3.7.9-5.7a3.7,3.7,0,0,1,.3-1.5c.9-3.3,2.3-6.6,2.4-9.7.6-5.1,2.9-10,3.4-14.9.2-1.3.2-2.5.3-4.4-1.8,1.3-3.1,2.1-4.2,3a76.9,76.9,0,0,0-11.5,13.5c-1.7,2.5-3.4,5-4.9,7.4a3.1,3.1,0,0,0-.6,1.3c-.8,1.4-1.8,2.8-2.5,4.3a33.5,33.5,0,0,0-1.5,3.5c-.4,2.4-.7,4.7-2.9,6.7a5.7,5.7,0,0,0-.3,1.5h.2c.2-.1.2-.2.2-.2h.7a12,12,0,0,1-1.5,3,6.9,6.9,0,0,1-6.9,2.5,15.7,15.7,0,0,0-3.4-.7c-1.3-.4-2.3-.8-2.4-2.4s-.3-4.8-.1-7.1a70.3,70.3,0,0,1,1-9.1c.4-2.9,1.1-5.8,1.6-8.9s1.2-6.5,2-9.8,1.9-7.1,3.1-10.7c.5-2,.8-2,3.3-2.4A7,7,0,0,1,236,233.2Zm1.3,20.3c0-1.2.1-2.4.2-3.6C236.6,251.3,236.4,252.5,237.3,253.5Zm.5,19.2,2.5-5.8a61.1,61.1,0,0,0,2.7-5.8c.8-1.9,2.5-3.5,2.7-5.5-3.3,5.5-6.9,10.9-8.6,16.8Zm1.4-29a4.1,4.1,0,0,0,.1-1.1h-.4a4.3,4.3,0,0,1-.2,1.1Zm1,5.1c.6-2.5,1.1-5,1.7-7.6h-.3c-.6,2.6-1,5.1-1.6,7.6Zm2.6-11.4.3-1.5h-.3c-.1.4-.2.9-.4,1.5Zm23.8,41.8c1.2-5.5,2.3-11,3.5-16.3C268.5,268.2,266.8,273.7,266.6,279.2Zm.7-29.3-.2.3c-.1.2,0,.3,0,.5l.4-.2A.8.8,0,0,0,267.3,249.9Zm5.1,2.4c-.5,2.1-1,4-1.6,5.8C272.6,255.6,272.8,254.7,272.4,252.3Zm1.9-6.7a20.2,20.2,0,0,1-.7,2.3,17.7,17.7,0,0,1-.4,2h.3c.6-1.4.9-2.8,1.4-4.2Z"/><path class="a" d="M366.6,249.2a32,32,0,0,1-6.8,6.4,11.8,11.8,0,0,1,.6-1.9c-1.1,1.1-2,1.6-2.2,2.1-.7,2.1-2.7,3-4.5,3.9l-10.7,5c-3.2,1.4-3.3,1.4-3.8,4.6s-.7,4.5-1.1,6.9a2,2,0,0,1-.4,1.4c-.8,1.7-.9,1.7-.1,2.9a18.9,18.9,0,0,0-2,2.7l-1.6-1-1.3,1.8-3.4-1.1.3-.3h-.5c-2.3,1-3.4.7-3.6-1.5a43.9,43.9,0,0,1-.3-8.1c0-2.3.2-2.3-2.2-2.3a7.9,7.9,0,0,1-4.3-.8,6.6,6.6,0,0,1-2-2.1,19.6,19.6,0,0,0-1.3-2.5c-.7-1-.6-1.6,1-2.2a12.9,12.9,0,0,1,2.6-.8l5.8-1.9a3,3,0,0,0,2.3-2.9c.6-2.6,1.1-5.3,1.5-7.8a3.6,3.6,0,0,0-1.3-4c-5-3.8-7.7-9.2-9.5-15.2a16.1,16.1,0,0,1-.2-9.5c.4-1,.6-2.2.9-3.2,1.7-6.3,6.9-10,12.3-13s13.4-4.4,20.2-3.7c10.7,1.1,18.3,6.5,24.2,14.1,1.8,2.2,2.4,5,2.9,7.9-.1.3-.1.4,0,.5,1.2,4.1-.7,8.3-2.1,12.5-.1.6-.2,1.5-1.4,1.4s-.7,1.1-1,1.5h.1c-1.1,1.4-2,2.9-2.9,4.3l-6.4,7.1-2.3,2.1.4.3,2.2-2.2ZM328,210.1a10.9,10.9,0,0,0-4.4,4.4l1.8-1a17.1,17.1,0,0,1,1.8-2Zm9.8,2c-2.1.4-2.3.7-3.9,1.9a17.9,17.9,0,0,1-2.6,2,4.9,4.9,0,0,0-2.4,4.5,1.7,1.7,0,0,1-.3,1.1c-2,4.1-1.3,8-.7,11.7.4,1.5.8,3.2,2.7,4.3C332.9,228.9,335.4,220.5,337.8,212.1Zm-8.9,4.5c1.2-1.4,2.6-2.8,3.9-4.2-1.8.8-3.6,1.9-4.4,3.7A.8.8,0,0,0,328.9,216.6Zm1.4-8.5-.4.2.2.4.4-.4Zm7.8,60.7a54.2,54.2,0,0,0-.8,5.4c.7-1.8,1.5-3.6,1.4-5.4Zm1.4-19.8c-.1.7-.4,1.4-.5,2.1s-.8,1.1-.1,2.2c.5-1.8.9-3.1,1.2-4.3Zm1.3-3.7c-.3.2-.4.4-.4.5s.1.5.1.7a2.1,2.1,0,0,0,.4-1S340.8,245.5,340.8,245.3Zm5.2,3.9c6.4-4.8,12.8-9.7,17.4-16.4,2.7-3.6,4.9-7.4,5.4-11.8a9.2,9.2,0,0,0-2.3-7.1c-4.9-4.8-11.4-6.2-19-5.2l-1.2.8,2.5.3c2.2.5,2.6,1.2,1.8,3.4s-.8,1.4.1,2l2.3-3h.5c-4.1,12.8-8.8,25.7-11.9,38.6l.6.2c.7-2.4,1.4-4.6,2.1-6.8h.3c-.3,2-.8,3.8-1.3,6.4C344.5,250,345.3,249.7,346,249.2Zm-2.1-14.7-.2.2c-.1.1-.1.4-.1.5l.3-.3C344,234.8,344,234.7,343.9,234.5Zm7,16.8,9.1-7.8a18.3,18.3,0,0,0,1.3-1.6,1.1,1.1,0,0,0-.9.4c-3.5,2.9-7.1,5.8-10.5,8.8a15.4,15.4,0,0,0-1.9,1.7,14.7,14.7,0,0,1-1.4.6.4.4,0,0,1,.1.3,3.4,3.4,0,0,0,1.2-.9A16.8,16.8,0,0,0,350.9,251.3Zm17.8-8.9c-5.6,5.6-11.4,11.2-17.8,15.5C358.4,254.6,364.1,249.2,368.7,242.4Zm-15.3,8.4a29.3,29.3,0,0,0,5.6-4.4l2.3-2.4-.4-.3-2.3,2.3C356.8,247.6,354.8,248.8,353.4,250.8Z"/><path class="a" d="M382.8,282c-.1-1-.9-1-1.9-1.3a21.2,21.2,0,0,1-1.1,2.1c-2.6-.7-3.1-2.6-2.7-5.1.6-4.2.8-8.3,1.2-12.5.2-1.2.2-2.5.4-3.8.6-3.3,1.3-6.7,2-10.1a113.8,113.8,0,0,1,2.7-11.2c2.2-8.1,4.3-16.1,6.7-24.2.9-3.3,1.8-6.6,2.9-9.9a9,9,0,0,1,2.1-3.8c1.4-1.6,2.3-1.7,4.1-1s1.1-.1,1.5.1.1.8.2,1.3c3-3,3.9-2.7,5.3,1.6l1.6-1c.5.4.9,1,1.3,1.3a31.8,31.8,0,0,0-1.5,4.3c-1,3.6-1.4,7.2-2.5,10.8-1.7,7.1-3.8,13.9-5.8,20.9a43.9,43.9,0,0,0-1.2,7.1c1.4-5,2.9-9.9,4.3-14.8h.6l-.8,3.1c-.2,1.1-.6,2.3-.8,3.5-2,7.2-4,14.6-6.1,21.9-.6,2.4-1,4.6-1.6,6.9-.1.3-.1.6-.4.8-2.4,2.1-2.2,4.8-2.9,7.4s-.8,3.1-1.4,5.3c-1.1-1.3-.6-2.4-.5-3.3,2.1-8.9,3.9-17.8,6.1-26.6s5.4-20.4,7.9-30.4a41.3,41.3,0,0,0,1.3-7.7c-2.3,7.7-4.6,15.4-6.7,23.1s-3.9,15.4-6,23.2-2.3,15.5-5.1,23.2C384.1,283.6,382.9,283.3,382.8,282Zm-.9-8.6a9.5,9.5,0,0,0-.3,1.9h.4a7.3,7.3,0,0,1,.5-2C382.2,273.2,382,273.2,381.9,273.4Zm1.3-5.6-.6.2c0,.1.1.3.2.3s.2-.1.4-.1Zm.2-4.1v.9a2.4,2.4,0,0,0,.3-.9Zm1.5-4.7c-.2-.1-.5-.2-.6-.4s-.1.6-.1,1.2Zm.5-3.3,5.8-23.4C388.4,238.1,384.8,252.9,385.4,255.7Zm4.1-12.4c-.7,3.2-1.3,6.4-2,9.5h.4c.7-3.3,1.4-6.4,2-9.6Zm2.2-7.4c-.2,1.1-.6,2.3-.8,3.5h.2c.2-1.2.6-2.4.8-3.4Zm3.4,21.2L394,262C394.5,260.4,395.8,258.6,395.1,257.1Zm1.8-5.8c-.1.1.2.2.3.2l.2-.4-.2-.3A.5.5,0,0,0,396.9,251.3Zm8.1-43.5a15.2,15.2,0,0,0-.6,2,1.7,1.7,0,0,0,1.3-.9c.1-.4,0-.7.1-1.1Z"/><path class="a" d="M427.5,241.6l-.4.2c-2,1.3-2.4,1.3-3.4-.2a2,2,0,0,0-1.8-1.2c-1.5,0-1.6-1.3-.6-2.4a28.5,28.5,0,0,1,12-7.7,22.1,22.1,0,0,1,4.2-1.2,19,19,0,0,1,15.8,3.3,6.7,6.7,0,0,1,3.2,6.2c-.2,2.3-.5,4.5-.9,6.7a14,14,0,0,1-1.3,1.8,16.1,16.1,0,0,1,0,2.2,1.7,1.7,0,0,1-1.2,2c-.2,0-.7.9-.6.9s.4,1.3-.4,1.9-.5.5-.6.7c-.8,2.4-1.7,4.9-2.5,7.4l-.4.9a20.5,20.5,0,0,0-1.2,2.7c-.5,2.8-2,5.5-1.9,8.3a4.3,4.3,0,0,1-.1.5c-1.4,1.2-2.2,3-4.1,3.8l-.3.2c-1-1-2.1.5-3.1.4s-4.2.7-6.3,1.2a73,73,0,0,1-13.6,2.3c-3.2.1-6.2-.3-8.6-1.9a45.4,45.4,0,0,1-5-3.6c-2.8-2.6-3-6.2-1.3-10.4,3.2-6.9,8.6-11.8,15.3-15.2a32.2,32.2,0,0,1,14.5-3.3,31,31,0,0,1,8.1,2l1,.4c1.1.3,1.4.1,1.8-1a81,81,0,0,0,2.1-11.6c.3-2-.3-2.6-2.4-2.1a36.8,36.8,0,0,0-12.3,5.2l-3.8,2.2A9.7,9.7,0,0,0,427.5,241.6Zm-15.4,18.6c-1.8,1.6-3.7,3.5-4.4,5.9A43.1,43.1,0,0,0,412.1,260.2Zm-1.6,3.6a4.5,4.5,0,0,0-.6,1.2h.4a6.1,6.1,0,0,1,.5-1.2Zm2.7,5.2c1.7-2.4,3.4-4.7,5.3-7.6C415,264,412.9,267.1,413.2,269Zm3.5-1a5.5,5.5,0,0,1-.5,1.3c-.2,1.3-.8,2.4-.9,3.7s.2,2.7,2.4,2.5a81.2,81.2,0,0,0,15.8-3.4,3.8,3.8,0,0,0,2.4-2.4c1.9-3.6,2.3-7.4,3.4-11.2a2.5,2.5,0,0,0,0-1.7c-.2-1.7-.7-2.1-2.4-2.1a18.7,18.7,0,0,0-3.4.3c-5.7,1.3-10.3,4.7-14,9.4-.5.7-1.1,1.6-1.7,1.7-2.5.7-2.4,2.6-3.1,4.1h.3a14.9,14.9,0,0,0,1.4-2.4C416.6,267.9,416.7,267.9,416.7,268Z"/><path class="a" d="M468.4,233.2c4-2,4-2,5.1.7l1.6-.9c1.6.9,1.3,2.8.9,4.5-.7,3.2-1.5,6.3-2.2,9.5a9.2,9.2,0,0,0-.6,2.4c.9-.7,1.4-.9,1.9-1.4s2.9-3.2,4.3-5a52.1,52.1,0,0,1,12.9-11.9,13.3,13.3,0,0,1,6.9-2.2c2.1,0,4.2.2,6.3.4a6.7,6.7,0,0,1,1.4.9c.6.3.9.9,1.6,1.1,2.3,1,2.9,2.2,2.1,5.2l-.3.2c1.1,2.8-1.1,5.7-1.5,8.5s-1.4,6-2.2,9-1.6,6-2.5,8.9-1.1,5.2-1.7,7.9-1.6,7-2.3,10.5a13,13,0,0,1-1.1,1.9l-1-.9-1.4,1.8c-1.8-.4-1.8-.4-2.8-2.9-.4.5-.5,1-.7,1.2s-2.6,1-2.4-.6c.2-3.3-1-6.2.5-9.8.8-1.8.6-3.7.9-5.7a6.8,6.8,0,0,1,.2-1.5c1-3.3,2.4-6.6,2.5-9.7.6-5.1,2.9-10,3.4-14.9.2-1.3.2-2.5.3-4.4-1.8,1.3-3.1,2.1-4.2,3a76.9,76.9,0,0,0-11.5,13.5c-1.7,2.5-3.4,5-4.9,7.4a3.1,3.1,0,0,0-.6,1.3c-.8,1.4-1.8,2.8-2.5,4.3a14.8,14.8,0,0,0-1.5,3.5c-.5,2.4-.7,4.7-2.9,6.7a15.5,15.5,0,0,0-.4,1.5h.3c.2-.1.2-.2.2-.2h.7a16.8,16.8,0,0,1-1.5,3,6.9,6.9,0,0,1-6.9,2.5,15.7,15.7,0,0,0-3.4-.7c-1.3-.4-2.3-.8-2.4-2.4s-.3-4.8-.1-7.1a70.3,70.3,0,0,1,1-9.1c.4-2.9,1.1-5.8,1.6-8.9s1.2-6.5,2-9.8,1.9-7.1,3.1-10.7c.5-2,.8-2,3.3-2.4A7,7,0,0,1,468.4,233.2Zm1.3,20.3c0-1.2.1-2.4.2-3.6C469,251.3,468.8,252.5,469.7,253.5Zm.5,19.2,2.5-5.8a61.1,61.1,0,0,0,2.7-5.8c.8-1.9,2.5-3.5,2.7-5.5-3.3,5.5-6.9,10.9-8.6,16.8Zm1.4-29a4.1,4.1,0,0,0,.1-1.1h-.4a4.3,4.3,0,0,1-.2,1.1Zm1,5.1c.6-2.5,1.1-5,1.6-7.6H474c-.6,2.6-1,5.1-1.6,7.6Zm2.6-11.4c.1-.5.2-1.1.3-1.5h-.3c-.1.4-.2.9-.4,1.5ZM499,279.2c1.2-5.5,2.3-11,3.5-16.3C500.9,268.2,499.2,273.7,499,279.2Zm.7-29.3-.2.3c-.1.2,0,.3,0,.5l.4-.2A.8.8,0,0,0,499.7,249.9Zm5.1,2.4c-.5,2.1-1,4-1.6,5.8C505,255.6,505.2,254.7,504.8,252.3Zm1.9-6.7c-.2.8-.5,1.5-.7,2.3a8.4,8.4,0,0,1-.5,2h.4c.6-1.4.9-2.8,1.4-4.2Z"/><path class="a" d="M537.5,274.6c.2.4-.4.9-.8,1.2-3.9,3-8.1,5.9-12.9,6.6a11.1,11.1,0,0,1-8.3-2c-3.6-2.8-6.4-6.5-6.9-11.5a21.3,21.3,0,0,1,.9-8.9,106.3,106.3,0,0,1,4-11.6,63.6,63.6,0,0,1,4.9-8.7,11.4,11.4,0,0,1,3-3.7c1.1-.8,1.5-2.3,2.4-3.6a18.4,18.4,0,0,1,7-5.4,6.3,6.3,0,0,1,6.5.5,19.6,19.6,0,0,1,5.6,5.9,5.2,5.2,0,0,1,.6,4.6c-.2.7-.2,1.4-.4,2.1a5.7,5.7,0,0,1-1.6,2.9,64.4,64.4,0,0,0-5.2,6.5l-.6,1c-.4.2-1.1.3-1.3.7s-2.8,2.5-4.1,3.7a6.5,6.5,0,0,0-1.2,1.1c-1.5,2.9-4.5,3.9-6.7,5.8l-3.7,2.2a3.5,3.5,0,0,0-1.7,2.8,21.4,21.4,0,0,0,.5,6.2c.5,2.6,1.7,2.9,4.4,1.4s6.5-4.1,8.9-7.5,3.7-4.7,5.2-7.3a48.6,48.6,0,0,0,2.6-6.1c.9-.6,1.6-.5,2.7.2s3.1,2,4.3,3.3a2.9,2.9,0,0,1,.9,2.7c0,2.1-.4,4.2-2.8,5.8a7.8,7.8,0,0,0-1.6,2c-.8,1.3-1.8,2.7-2.6,4.1h.1C538.6,272.4,537.5,273.2,537.5,274.6Zm-10.7-22.3c.1,0-.2-.3-.2-.5a31.7,31.7,0,0,1,2.9-3.5l-.4-.3c-2.3,2.7-5.2,4.7-7.6,7.4.2.1.3.2.3.4l1.6-.8a14,14,0,0,0,1.8-1.3Zm-4.4-2.6-.4.3a.7.7,0,0,0,.1.5l.6-.5Q522.4,249.9,522.4,249.7Zm13.4-2.4c-4.3,4.1-8.5,8.1-12.7,11.9C528,256.4,535,249.8,535.8,247.3Zm-7.9-6.3a4,4,0,0,1-1.2,2.8,39.8,39.8,0,0,1-2.4,3.8,24.4,24.4,0,0,0-1,2.4c1,.5,1.6-.1,2.2-.8l6.8-9c1-1.6,2.3-3.2,2.7-5-1.8-.4-1.8-.4-3.4,1.4a4.6,4.6,0,0,0-2.3,3C528.8,240.1,527.9,240.8,527.9,241Zm2.6-11.3-1.8,1.4c-.6.5-1.3.8-1.4,2l1.6-1.7A2.5,2.5,0,0,0,530.5,229.7Zm-1.8,7.8c1.3-1,2.9-1.9,3.6-3.5A6.8,6.8,0,0,0,528.7,237.5Zm5.8,29.4c-1.6,1.9-3.5,3.8-5.1,5.5l.4.4a24.2,24.2,0,0,0,5.1-5.5A.8.8,0,0,1,534.5,266.9Zm4.9,1.6c-2.2,2.5-4.7,5.1-6.9,7.5,3.4-1.6,5.3-4.3,7.4-7.2Zm-5.7,1.8.7-.9h-.2l-.7.7C533.5,270.1,533.6,270.2,533.7,270.3Z"/><path class="a" d="M563.9,280.7c-1.7,2.2-1.7,2.1-3.4.7a3.6,3.6,0,0,0-1.8-.7c-3.1-.2-3.3-.1-3.5-3.5s-.4-5.7,0-8.7.3-6.7,1.5-10.2a26.1,26.1,0,0,0,.2-4c1.1-5.5,2.2-11,3.3-16.3.3-1.8-.1-2.5-1.8-2.8a7.6,7.6,0,0,1-2.1-.3c-1.9-.4-3.9-1-4.3-3.5-2.7.3-4.4-.5-5.4-2.6s-.3-2,1-2.5a40.4,40.4,0,0,1,4.4-1.1l8.9-.7c2.3-.2,2.8-.7,3.4-2.8,1.4-4.7,2.9-9.4,4.2-14.2a5.4,5.4,0,0,1,4.5-3.6h.6c.7,1.3,2.2,1.2,3.6,1.2s2.1.5,1.9,1.9a6.4,6.4,0,0,0,0,1.4l1.9-1.2v2c0,.5-.3,1,0,1.6a6,6,0,0,1,.8-1.6h.3a18.9,18.9,0,0,1-.9,3.8,2.2,2.2,0,0,1-.8,1.5c-2.7,2.5-1.5,5.4-3.3,8h1c.3-1.3.8-2.6,1.2-3.9h.4c-.4,1.5-.7,3.1-1.1,4.7l6.6,1.3a8.2,8.2,0,0,1,4,1.9,1.2,1.2,0,0,0,.7.7c1.6.7,1.6,2.1.1,3.5a11.4,11.4,0,0,1-4.9,2.2,59.7,59.7,0,0,1-6.1.8c-1.8.1-3.3,1.2-4.9,1.9a2.7,2.7,0,0,0-.7,1.2c-1.2,4.8-2.5,9.7-3.5,14.5s-1.8,10.7-2.6,16c-.5,2.7-.7,5.4-1,8.1a6.9,6.9,0,0,0,.5,1.3c.7.9.7,1.5-.1,2.6a23.6,23.6,0,0,0-1.3,2Zm-4.1-17.6.4.2c.1-.1.2-.3.1-.3s-.1-.3-.2-.3S559.8,263,559.8,263.1Zm3.1-16.9a22.9,22.9,0,0,0,.2-2.5h-.3l-.6,2.5Zm4.9,5a5.1,5.1,0,0,0-.7,2.2,45.8,45.8,0,0,0-1.2,7.1c-.2.8-.6,1.7,0,2.5.9-4.1,1.8-7.9,2.6-11.7Zm3.4-15c-.8,4-2.6,8-2.6,11.9A41.7,41.7,0,0,0,571.2,236.2Z"/><path class="a" d="M610.8,274.6c.1.4-.5.9-.9,1.2-3.9,3-8.1,5.9-12.9,6.6a11.1,11.1,0,0,1-8.3-2c-3.6-2.8-6.4-6.5-6.9-11.5a21.3,21.3,0,0,1,.9-8.9,106.3,106.3,0,0,1,4-11.6,76.3,76.3,0,0,1,4.9-8.7,11.4,11.4,0,0,1,3-3.7c1.1-.8,1.6-2.3,2.4-3.6a18.4,18.4,0,0,1,7-5.4,6.3,6.3,0,0,1,6.5.5,18.5,18.5,0,0,1,5.6,5.9,5.2,5.2,0,0,1,.6,4.6,15.2,15.2,0,0,0-.3,2.1,5.9,5.9,0,0,1-1.7,2.9,64.4,64.4,0,0,0-5.2,6.5l-.6,1c-.4.2-1.1.3-1.3.7s-2.8,2.5-4.1,3.7-.9.7-1.1,1.1c-1.6,2.9-4.6,3.9-6.8,5.8L592,264a3.4,3.4,0,0,0-1.8,2.8,21.4,21.4,0,0,0,.5,6.2c.6,2.6,1.7,2.9,4.4,1.4s6.6-4.1,8.9-7.5,3.7-4.7,5.2-7.3a48.6,48.6,0,0,0,2.6-6.1c.9-.6,1.6-.5,2.7.2s3.1,2,4.3,3.3a3.3,3.3,0,0,1,1,2.7,6.3,6.3,0,0,1-2.9,5.8,7.8,7.8,0,0,0-1.6,2l-2.6,4.1h.2C611.8,272.4,610.8,273.2,610.8,274.6ZM600,252.3c.1,0-.2-.3-.2-.5s1.9-2.4,2.9-3.5l-.3-.3c-2.4,2.7-5.3,4.7-7.6,7.4a.5.5,0,0,1,.2.4l1.6-.8a14,14,0,0,0,1.8-1.3A10.7,10.7,0,0,0,600,252.3Zm-4.4-2.6-.4.3a.7.7,0,0,0,.1.5l.6-.5Q595.6,249.9,595.6,249.7Zm13.4-2.4c-4.3,4.1-8.5,8.1-12.7,11.9C601.2,256.4,608.2,249.8,609,247.3Zm-7.9-6.3a4,4,0,0,1-1.2,2.8c-.7,1.3-1.5,2.5-2.3,3.8a25.6,25.6,0,0,0-1.1,2.4c1.1.5,1.6-.1,2.2-.8l6.8-9a15.3,15.3,0,0,0,2.7-5c-1.8-.4-1.8-.4-3.4,1.4a4.6,4.6,0,0,0-2.3,3C602,240.1,601.1,240.8,601.1,241Zm2.7-11.3-1.9,1.4c-.6.5-1.3.8-1.4,2l1.6-1.7A2.8,2.8,0,0,0,603.8,229.7Zm-1.9,7.8c1.3-1,2.9-1.9,3.6-3.5A6.8,6.8,0,0,0,601.9,237.5Zm5.8,29.4c-1.6,1.9-3.5,3.8-5.1,5.5a1.1,1.1,0,0,0,.5.4,26.2,26.2,0,0,0,5-5.5C608,267.2,607.8,267.1,607.7,266.9Zm4.9,1.6c-2.2,2.5-4.6,5.1-6.9,7.5,3.4-1.6,5.3-4.3,7.4-7.2Zm-5.7,1.8.7-.9h-.2l-.7.7C606.7,270.1,606.8,270.2,606.9,270.3Z"/><path class="a" d="M634.7,233.2c4-2,4-2,5.1.7l1.6-.9c1.6.9,1.2,2.8.9,4.5-.7,3.2-1.5,6.3-2.2,9.5a9.2,9.2,0,0,0-.6,2.4c.9-.7,1.4-.9,1.9-1.4s2.9-3.2,4.3-5a52.1,52.1,0,0,1,12.9-11.9,13.3,13.3,0,0,1,6.9-2.2c2.1,0,4.2.2,6.3.4a6.7,6.7,0,0,1,1.4.9c.6.3.9.9,1.6,1.1,2.3,1,2.9,2.2,2.1,5.2l-.3.2c1.1,2.8-1.1,5.7-1.5,8.5s-1.4,6-2.2,9l-2.5,8.9c-.7,2.7-1.1,5.2-1.7,7.9s-1.7,7-2.4,10.5a7,7,0,0,1-1,1.9l-1.1-.9a12.4,12.4,0,0,1-1.4,1.8c-1.7-.4-1.7-.4-2.8-2.9-.3.5-.4,1-.7,1.2s-2.5,1-2.3-.6c.2-3.3-1-6.2.5-9.8.8-1.8.6-3.7.9-5.7a6.8,6.8,0,0,1,.2-1.5c1-3.3,2.4-6.6,2.5-9.7.6-5.1,2.9-10,3.4-14.9.2-1.3.2-2.5.3-4.4-1.8,1.3-3.1,2.1-4.2,3a76.9,76.9,0,0,0-11.5,13.5c-1.7,2.5-3.4,5-4.9,7.4a3.1,3.1,0,0,0-.6,1.3c-.8,1.4-1.8,2.8-2.5,4.3a14.8,14.8,0,0,0-1.5,3.5c-.5,2.4-.7,4.7-2.9,6.7a15.5,15.5,0,0,0-.4,1.5h.3c.2-.1.2-.2.2-.2h.7a16.8,16.8,0,0,1-1.5,3,6.9,6.9,0,0,1-6.9,2.5,15.7,15.7,0,0,0-3.4-.7c-1.3-.4-2.3-.8-2.4-2.4s-.3-4.8-.2-7.1.5-6.1,1.1-9.1,1-5.8,1.6-8.9,1.2-6.5,2-9.8,1.9-7.1,3-10.7c.6-2,.9-2,3.4-2.4A7,7,0,0,1,634.7,233.2Zm1.3,20.3c0-1.2.1-2.4.2-3.6C635.3,251.3,635,252.5,636,253.5Zm.5,19.2,2.5-5.8a61.1,61.1,0,0,0,2.7-5.8c.8-1.9,2.5-3.5,2.7-5.5-3.3,5.5-6.9,10.9-8.7,16.8Zm1.4-29a4.1,4.1,0,0,0,.1-1.1h-.4a4.3,4.3,0,0,1-.2,1.1Zm1,5.1c.6-2.5,1.1-5,1.6-7.6h-.2c-.6,2.6-1,5.1-1.6,7.6Zm2.6-11.4.3-1.5h-.3a15.5,15.5,0,0,0-.4,1.5Zm23.8,41.8c1.2-5.5,2.3-11,3.5-16.3C667.2,268.2,665.5,273.7,665.3,279.2Zm.7-29.3-.2.3c-.2.2,0,.3,0,.5l.4-.2A.8.8,0,0,0,666,249.9Zm5.1,2.4c-.6,2.1-1,4-1.6,5.8C671.2,255.6,671.5,254.7,671.1,252.3Zm1.9-6.7c-.2.8-.5,1.5-.7,2.3a8.4,8.4,0,0,1-.5,2h.4c.6-1.4.9-2.8,1.4-4.2Z"/></svg>