<svg id="Ebene_1" data-name="Ebene 1" xmlns="http://www.w3.org/2000/svg" xmlns:xlink="http://www.w3.org/1999/xlink" width="307.84" height="660.47" viewBox="0 0 307.84 660.47"><defs><style>.cls-1{fill:none;}.cls-2{clip-path:url(#clip-path);}.cls-3{fill:#a81e1c;}.cls-4{fill:#f6ece1;}.cls-5{fill:#1d1d1b;}.cls-6{fill:#d7a825;}</style><clipPath id="clip-path" transform="translate(0 -0.53)"><rect class="cls-1" x="0.06" y="0.53" width="307.78" height="660.41"/></clipPath></defs><title>luther2017</title><g class="cls-2"><rect class="cls-3" x="0.06" width="307.78" height="660.41"/><path class="cls-4" d="M264.68,399.57c-15.6-10.8-27.53-51-32.79-56.63-2.61-2.79-4.15-3-4.89-1.76,1.6-8.3.23-14.8.33-17.68a8.45,8.45,0,0,1,.76-3.37,6.31,6.31,0,0,0,2.17-1.3,4.42,4.42,0,0,0,3.08,1.08c1.27-.08,1.67-4.09,2.44-5.92,2.23-5.57,3.77-13,2.17-18.45,4-3.61,7.38-12.73,6.12-13.68a12.86,12.86,0,0,1-4.29-6.45c-.56-2.36-4.47.27-5.8.17a2.59,2.59,0,0,1-2.57-2.89c.25-3.4,10.6-4.52,17.58-8.95s10.26-11.07,10.5-20.84-5.28-19.72-13.09-23.66-50.57-13.79-58.09-17.8a82.83,82.83,0,0,0-13.36-5.12c-16-3.94-48.71-3-66.94,3.5-4.47,1.59-19.58,3.93-28.14,5.62A35.2,35.2,0,0,0,74.65,207a18.45,18.45,0,0,0-3.54,1.86C54.94,220.1,36,222.9,20,235.82c-6.54,6.14-9.4,14.69-8.44,23.78a27.16,27.16,0,0,0,17.32,21.77c7.23,2.57,11.45.93,13.76,6.41-2.58,2.8-5.46,4.2-5.86,8.95s3.28,14.83,10.08,19c-3.55,3.47-7,7.8-3,14.69,2.45,4.16-.61,5.17-.68,9s1.08,7.09,7.34,9.46,5.12,8.18,13.64,7.83c4,3,6.33,2.16,8.46,2.08.15,1.21.36,1.93.65,2l.81,1.72C55.64,386.14,10.21,409.66,0,434.29V661H307.83V443.08c-5.87-13.1-27.56-32.71-43.17-43.5" transform="translate(0 -0.53)"/></g><path class="cls-5" d="M108.68,356c-.79.2-1,.53-1,1.24,0,2,2.86,1.67,2.75-.11-.05-.81-.52-1.43-1.72-1.12" transform="translate(0 -0.53)"/><path class="cls-5" d="M109.95,364.75c.47,0,.72-.12.69-.57a.49.49,0,1,0-.92.34c.13,0,.18.12.23.23" transform="translate(0 -0.53)"/><path class="cls-5" d="M110.52,357.67c-.82,3.16,3.87,2.53,3.21,0a1.59,1.59,0,0,0-2.18-.9,1.47,1.47,0,0,0-1,.9" transform="translate(0 -0.53)"/><path class="cls-5" d="M102.61,328c-.05-.48-.4-.9-1.15-.68-2.23.66,1.38,2.92,1.15.68" transform="translate(0 -0.53)"/><path class="cls-5" d="M112.47,361.83a1.34,1.34,0,0,0-1.84-1.69c-2.44,1,1.13,3.75,1.84,1.69" transform="translate(0 -0.53)"/><path class="cls-5" d="M101.92,305.19a.59.59,0,0,0,1.15-.23.59.59,0,0,0-1.15.23" transform="translate(0 -0.53)"/><path class="cls-5" d="M111.55,394.2c-.08-.56-.46-1.1-1.49-.79-2.83.86,2,3.83,1.49.79" transform="translate(0 -0.53)"/><path class="cls-5" d="M106,343.51c.6,1.88,2.93-.8,1.26-1.23a1.15,1.15,0,0,0-.69.11c-.49.2-.83.3-.57,1.12" transform="translate(0 -0.53)"/><path class="cls-5" d="M106.85,336.09c-.05-.61-.4-1.13-1.38-.79-2.37.83,1.59,3.36,1.38.79" transform="translate(0 -0.53)"/><path class="cls-5" d="M108.11,339.8a.77.77,0,0,0-.57.12c-.24,1,1.18.49.57-.12" transform="translate(0 -0.53)"/><path class="cls-5" d="M109.26,312.72c-1.58.53-.86,2.58,0,2.81,2.66.73,2.76-3.73,0-2.81" transform="translate(0 -0.53)"/><path class="cls-5" d="M104.9,331.71a1.15,1.15,0,0,0-1.61-.56.93.93,0,0,0-.69.78c-.3,2.05,2.85,1.62,2.3-.22" transform="translate(0 -0.53)"/><path class="cls-5" d="M111.78,350.7a.73.73,0,0,0-.8-.22c-.75.17-.72.45-.69.79.09,1,2.31.71,1.49-.56" transform="translate(0 -0.53)"/><path class="cls-5" d="M108.11,293.83c-.14,2.49,3.34,1.87,3-.23-.12-.71-.67-1.37-1.95-1a1.23,1.23,0,0,0-1,1.24" transform="translate(0 -0.53)"/><path class="cls-5" d="M113.16,292a.59.59,0,0,0,1.15-.22.59.59,0,0,0-1.15.22" transform="translate(0 -0.53)"/><path class="cls-5" d="M111.44,287.2c-1.87.66,1.26,2.56,1,.56-.07-.58-.52-.74-1-.56" transform="translate(0 -0.53)"/><path class="cls-5" d="M112.36,293.95c-2.37.83,1.59,3.36,1.37.79,0-.61-.4-1.13-1.37-.79" transform="translate(0 -0.53)"/><path class="cls-5" d="M115.33,318.11a1.15,1.15,0,0,0-.69.11c-.48.2-.84.3-.58,1.12.59,1.88,2.92-.8,1.26-1.24" transform="translate(0 -0.53)"/><path class="cls-5" d="M114,395.09a.56.56,0,0,0-.8.79c.67.13.94-.13.8-.79" transform="translate(0 -0.53)"/><path class="cls-5" d="M118,372.73c-.68-.31-1.47,0-1.26.9a.77.77,0,1,0,1.26-.9" transform="translate(0 -0.53)"/><path class="cls-5" d="M115.11,358.34c-2,.36-.24,2.54.8,1.68a1,1,0,0,0-.8-1.68" transform="translate(0 -0.53)"/><path class="cls-5" d="M103.18,301.48c-1.18.9.86,1.9,1,.68a.66.66,0,0,0-1-.68" transform="translate(0 -0.53)"/><path class="cls-5" d="M111.89,290.8a1.14,1.14,0,0,0-1.6-1c-3.1.84,1.82,4.23,1.6,1" transform="translate(0 -0.53)"/><path class="cls-5" d="M105.93,293a.62.62,0,0,0,1.15,0,.58.58,0,1,0-1.15,0" transform="translate(0 -0.53)"/><path class="cls-5" d="M104,299.12a.59.59,0,0,0,1.15-.23.59.59,0,0,0-1.15.23" transform="translate(0 -0.53)"/><path class="cls-5" d="M105,276.41q1.1.18.92-.9c-.61-.74-1.68.31-.92.9" transform="translate(0 -0.53)"/><path class="cls-5" d="M109.83,272.93a1.17,1.17,0,0,0-.69.11c-.48.2-.84.3-.57,1.12.6,1.88,2.92-.8,1.26-1.24" transform="translate(0 -0.53)"/><path class="cls-5" d="M108.34,391c.91,0,.85-1.68-.23-1.24a.63.63,0,0,0,.23,1.24" transform="translate(0 -0.53)"/><path class="cls-5" d="M105.82,296.19v-.45h-.46c-.09.39.06.54.46.45" transform="translate(0 -0.53)"/><path class="cls-5" d="M104.21,394c1.77,0,2.06-3.22-.23-2.81-1.92.34-1.22,2.81.23,2.81" transform="translate(0 -0.53)"/><path class="cls-5" d="M162.24,259.33a1.12,1.12,0,0,0-.69,0,1.1,1.1,0,0,0-.92,1.57c.79,1.57,3.32-.74,1.61-1.57" transform="translate(0 -0.53)"/><path class="cls-5" d="M152.72,260.34a1.14,1.14,0,0,0-1.61-1c-3.1.84,1.82,4.23,1.61,1" transform="translate(0 -0.53)"/><path class="cls-5" d="M166.36,258.43a.57.57,0,1,0-1.15,0,.61.61,0,0,0,1.15,0" transform="translate(0 -0.53)"/><path class="cls-5" d="M144.69,261a.65.65,0,0,0-.92.9.65.65,0,0,0,.92-.9" transform="translate(0 -0.53)"/><path class="cls-5" d="M140,263.94c.47,0,.72-.12.69-.56a.49.49,0,1,0-.92.34c.13,0,.18.12.23.22" transform="translate(0 -0.53)"/><path class="cls-5" d="M148.94,260a1.49,1.49,0,0,0,0-1.12c-.85-.46-1.62.3-1.15,1.12a1.55,1.55,0,0,0,1.15,0" transform="translate(0 -0.53)"/><path class="cls-5" d="M169.46,259c-.6-.74-1.68.31-.91.9.73.12,1-.18.91-.9" transform="translate(0 -0.53)"/><path class="cls-5" d="M127.38,296.08c.08-.57-.21-.78-.35-1.13-2.18-1.54-3.08,2.43-.69,2.13.46-.06.68-.4,1-.79-.59,2.45,2.87,2.58,3.33,1.46-.48,1.16-.18,2,.07,1.94a10.92,10.92,0,0,1,1.4-.35c.13.39,1,.07,2.33-.52a.91.91,0,0,0,.1.51.89.89,0,0,0,1.38-1.12s-.06,0-.09,0l2.11-1c.47,1.72,3.62,1,2.84-1.15l.69-.24a.6.6,0,0,1,.41.49c-.33.38-.54.32-.62.71-.42,2.11,3.34,1.8,2.37-.29.14.3.56,0,.89-.09,0,.34.54.45.34.68-1.54,1.76,1.87,3.14,2.33,1.93-.5,1.31,1.71,2.2,2.89,1.27a1.9,1.9,0,0,0,2.69,1.63c.1.69,1.56,1.29,3,1.24-.4,0,.34.41.34.79-1.62.81-.18,3.65,1.61,2.92-.59.24.26,1.61.69,1.35-1.25.77.7,3.14,2.16,2-.81.62,1,1.51,1.61,1.92a12.32,12.32,0,0,0,2.84,3.42c.58,1.19.8,2.05,3.12,1.53a2.46,2.46,0,0,1,1.14,1.29,1.54,1.54,0,0,0-.33.06c-1.61.57-.3,1.89.64,1.88a4.88,4.88,0,0,0,.53,2.11,4.76,4.76,0,0,0,1,1.18l0,0c1,1,2.27,1.65,2.47,3.15.52,4-3.07,4.66-2.17,9.88,2.7,1.4,4.19,1.85,5.13,4.18,2.09,5.17-7.14,8.85-7.43,13.1-3.18-.68-5.71-2-6.29-5.26,1.6.82,2.61-2.77.27-2.28a1.34,1.34,0,0,0-.39.19c.47-1-.45-1.42-1.75-1.23a1.57,1.57,0,0,0-1.19-.08c-.67.2-.83.51-.88.76a4.68,4.68,0,0,0-2.63,3.05c-1,5.28,5.32,5.63,6.43,11.16,1.07-.08,4.4-.61,6.57,1.08a2,2,0,0,0,2.84-2.54c1.45-7.29,5.69,1,9.9,0a3.16,3.16,0,0,0,1.64-1.11c.29.18,2.49-4.09,4.34-4.85a1.16,1.16,0,0,0,2.15-.26,7.3,7.3,0,0,1,1.69.39.5.5,0,0,0-.28.53.59.59,0,0,0,1.15-.22.57.57,0,0,0-.75-.37c.9-1.67,1.88-3.24,1.74-5.93a4.47,4.47,0,0,1,1.43-1.45,7.25,7.25,0,0,0,1.82-.94,1.08,1.08,0,0,0-.12.49c-.36,2.89,4.5,1.26,2.41-.79a1.54,1.54,0,0,0-1.49-.22,1.79,1.79,0,0,0-.44.2,2.73,2.73,0,0,0,.54-.49,12,12,0,0,0-.17-3c-.17-.75-.74-1.27-1.88-1h0c-1.9,0-2.57,4-3.37,5.92-1.85,1.23-4.49,1.68-7.83,1.45a.69.69,0,0,0-.11-.18c0-4.64-5.26-6.64-5.92-10-1-5.09,4.52-4.65,4-10.67-1.66-1.44-4.47-1.76-5.44-3.88a8.33,8.33,0,0,0-2.48-4.68c.32-1-.72-1.72-1.62-1.66a13.37,13.37,0,0,1-1.48-1.8c.63,0,1.16-.38.8-1.36a1.09,1.09,0,0,0-1.49-.45c-.08,0-.09.1-.15.14a5.89,5.89,0,0,0-1.25-2.71c-.1-.1-.8-1.26-.9-1.2l-.71-.43a1.75,1.75,0,0,0-2.41-1.58l-.29-.24a.51.51,0,0,1-.14-.39c.33-.32.6-.69.92-1a2.15,2.15,0,0,0,.35,1.12,1.51,1.51,0,0,0,1.84,0c1.35-1.32-1.37-3.25-2.18-1.23a1.88,1.88,0,0,0-2.62-2.18c0-.08,0-.14,0-.23.53-.84.38-1.29-.32-1.56a.41.41,0,0,1,.11-.08c.54-2.41-2.45-1.59-2.18-.27l-.59,0a5.82,5.82,0,0,1-.82-.28c2.39-1.59-2.1-3.31-1.74-.82a4.25,4.25,0,0,1-.57-.57,1.49,1.49,0,0,0-1.07-2.07c-.26-1,.15-1.3-.2-2.86-.3-1.35-2.36-2.2-3.72-2.92.09-.31.2-.49-.1-.81a.66.66,0,0,0-1.14.24,17.4,17.4,0,0,0-1.9-.4,1.42,1.42,0,0,0-.08-.7.8.8,0,0,0-1.24.42c-4.07-.85-9.45,1.92-9.06,2.73-.42-.88-3.1,1.65-3.68,1.72-.6-3.52-5.59,0-2.64,1.8-.72-.06-1.19.71-1.49.67.42-2.25-2.89-2.4-3.44-.9m33.18,12.67a4,4,0,0,1,.37.48,1.2,1.2,0,0,0-.41.45c-.24-.1,0-.63-.34-.68A.6.6,0,0,1,160.56,308.75Zm-9.77-10.31.24-.29c.3,0,.16.44.46.45a3.59,3.59,0,0,1-.93.65c.08-.34-.3-.42-.22-.76C150.63,298.44,150.63,298.62,150.79,298.44Zm-3.23-1,.31-.1a.31.31,0,0,0,.23.34c0,.52-.65.48-.69,1-.28-.17-.12-.87-.51-.94C147,297.53,147.21,297.53,147.55,297.49Z" transform="translate(0 -0.53)"/><path class="cls-5" d="M187.58,324.63c-2.5.65,1.48,3.42,1.26.78a.92.92,0,0,0-1.26-.78" transform="translate(0 -0.53)"/><path class="cls-5" d="M188.5,311.93a.63.63,0,0,0,.23,1.23c.9,0,.84-1.68-.23-1.23" transform="translate(0 -0.53)"/><path class="cls-5" d="M108.34,359.92a.78.78,0,0,0-.57.11c-.24,1,1.18.5.57-.11" transform="translate(0 -0.53)"/><path class="cls-5" d="M190.33,316.54c1.26,1.17.7-1.63,0,0" transform="translate(0 -0.53)"/><path class="cls-5" d="M172.33,259.45a1.16,1.16,0,0,0-.69.11c-.48.2-.83.3-.57,1.12.6,1.88,2.93-.8,1.26-1.23" transform="translate(0 -0.53)"/><path class="cls-5" d="M189.76,328.56a1.07,1.07,0,0,0-1,.9c-.19,2.21,3.15.91,2.06-.56a1.11,1.11,0,0,0-1-.34" transform="translate(0 -0.53)"/><path class="cls-5" d="M113.62,363.74c2.73.88,3-3.74.11-2.81-1.2.38-1.36,2.41-.11,2.81" transform="translate(0 -0.53)"/><path class="cls-5" d="M103.87,389.25c-.36,2.89,4.5,1.26,2.4-.79a1.52,1.52,0,0,0-1.49-.22c-.93.28-.89.76-.92,1" transform="translate(0 -0.53)"/><path class="cls-5" d="M101.57,389.92c2.66.73,2.76-3.73,0-2.81-1.59.53-.86,2.58,0,2.81" transform="translate(0 -0.53)"/><path class="cls-5" d="M106.5,386.11a.75.75,0,0,0-.57.11c-.24,1,1.18.49.57-.11" transform="translate(0 -0.53)"/><path class="cls-5" d="M105.93,355.54c-.75.17-.72.45-.69.79.1,1,2.31.71,1.49-.56a.73.73,0,0,0-.8-.22" transform="translate(0 -0.53)"/><path class="cls-5" d="M106.85,391.95c-2.06.54-.91,2.91.23,3,2.22.23,2.57-3.77-.23-3" transform="translate(0 -0.53)"/><path class="cls-5" d="M106.28,397.79a1.44,1.44,0,0,0,1.38-1.35,1.25,1.25,0,0,0-1.61-1.24,1.3,1.3,0,0,0,.23,2.58" transform="translate(0 -0.53)"/><path class="cls-5" d="M119.12,399.93a.65.65,0,0,0-.92.9.65.65,0,0,0,.92-.9" transform="translate(0 -0.53)"/><path class="cls-5" d="M120.26,302.94a1.15,1.15,0,0,0-.68.11c-.49.2-.83.31-.57,1.12.6,1.88,2.93-.8,1.26-1.24" transform="translate(0 -0.53)"/><path class="cls-5" d="M119.23,370.14c-.07-.58-.52-.74-1-.56-1.87.66,1.27,2.56,1,.56" transform="translate(0 -0.53)"/><path class="cls-5" d="M128.64,265.74c-2.37.83,1.59,3.36,1.38.78-.05-.61-.4-1.13-1.37-.78" transform="translate(0 -0.53)"/><path class="cls-5" d="M129,293.83a1.15,1.15,0,0,0,2.29-.23c0-.67-.48-1.21-1.49-.9a1,1,0,0,0-.81,1.13" transform="translate(0 -0.53)"/><path class="cls-5" d="M109.6,400.15c-.12-.58-.58-1.17-1.72-.79-.64.22-1,.5-.8,1.46a1.3,1.3,0,0,0,2.52-.67" transform="translate(0 -0.53)"/><path class="cls-5" d="M114.07,398.24c-.13-1.27-2.15-1.63-2.87-.9-.23-.52-.18-.82-.46-1.12-2.43-2.62-4.87,3.19-1.27,3,.58,0,.87-.3,1.38-.79a1.61,1.61,0,1,0,3.21-.23" transform="translate(0 -0.53)"/><path class="cls-5" d="M126.44,574.38h-.08c-.33,1.13-.75,2.34-1.16,3.6l-4.12,11.14h10.68l-4.13-11.06c-.46-1.34-.86-2.55-1.2-3.68" transform="translate(0 -0.53)"/><path class="cls-5" d="M184.14,417.46a.63.63,0,0,0,.23,1.24c.91,0,.85-1.68-.23-1.24" transform="translate(0 -0.53)"/><path class="cls-5" d="M176,421.17c-2.51.65,1.48,3.42,1.26.79a.91.91,0,0,0-1.26-.79" transform="translate(0 -0.53)"/><path class="cls-5" d="M162.13,413.3a1.19,1.19,0,0,0-.7.11c-.48.2-.83.3-.57,1.12.59,1.87,2.93-.8,1.26-1.24" transform="translate(0 -0.53)"/><path class="cls-5" d="M185.29,413.41c-.49,0-.92.56-1.26.56-.07-1.79-2.36-2-3.32-.9a1.53,1.53,0,0,0-2.07-1.46c-1.39.38-.93,2.5-.23,2.92-.46-.08-.65.11-1,.11,0-.64-.45-.91-.69-1.35,2.46-1.09-1.09-4.14-2-1.69a6.8,6.8,0,0,0,.11,1.35c-.35-.08-.42.11-.68.11a9.17,9.17,0,0,1-.69-.9c3.09-1.74-2.65-3.8-1.37-.34a5.34,5.34,0,0,0-1.27.34c-.13-.51-.6-.68-.92-1,3.36-.48-.83-3.89-1-1.24-.05.65.26.54.45,1.12a3.36,3.36,0,0,0-1.49.23c-.12-.42-.51-.56-.69-.9,3.07-1-1.31-4.08-1.49-1.35,0,.52.14.54.34,1-.65-.07-.89.25-1.38.34-.29-1.27-2.55-1.43-3.44-.56-.22-.54-.51-1-.92-1.12-3.14-.86-2.31,4.54.57,2.58-.06,1.49,1.62,2.2,3,1.57a3.85,3.85,0,0,0,.8,1.12c-.48.21-.83.42-.91.79-.49,2.12,3.33,1.74,2.06-.45.65.08.89-.25,1.38-.34.05.47.54.52.69.9-3.3.81,1.17,4.21,1.37,1.35,0-.55-.17-.6-.34-1.12.51.09.68-.15,1.14-.11.14.43.51.63.69,1-2.86,1.06,1.43,3.91,1.61,1.24,0-.42-.08-.47-.22-.9.46,0,.68-.22,1.14-.22.05.48.46.59.69.9-.58.23-.88.46-.92,1-.15,1.9,3.23,1.4,2.07-.68a3.84,3.84,0,0,0,1.72-.56c.32,1.3,2.85,1.1,3.1-.11-.08.45.11.64.11,1a1.68,1.68,0,0,0,2,.56c2.09-1-.9-4.15-2.07-1.69a2.14,2.14,0,0,0-.8-2c.88.26,1.15-.67,1.49-.56,0,1.86,2.51,1.87,3.21,1a3.94,3.94,0,0,0,.46,1.13c2.54,1.94,3.91-2.84,1-2.7" transform="translate(0 -0.53)"/><path class="cls-5" d="M212,298.21c-1.14.17-.74-.75-1.49-2-.61-1-2.29-1.53-3.57-2.29a3.32,3.32,0,0,0-1.74,0c-.8.33-.29.9-.06,1.49,1.27.89,3.1,1.71,3.43,2,.63.61-2.87,0-6.24-.26a38.24,38.24,0,0,0-7,.25c-3,.49-4.88,2.85-6.76,5.07-.85,1-1.33,0-1.33,0a2.91,2.91,0,0,0-.53-2.94l.82-.93c-.07-.62,0-1.38-.49-1.78a1.8,1.8,0,0,0,1.72-.34c1.51-1.49-.66-3-1.93-2.5a2.65,2.65,0,0,1,.14-.28,1.62,1.62,0,0,1,.53-.36,1.55,1.55,0,0,0,2.62-.85l.42-.12a1.5,1.5,0,0,0,1.32,2.3,1.57,1.57,0,0,0,.81-2.7c.87.1,1.16-.36,1.6-.67a1.5,1.5,0,0,0,3-.23,1.6,1.6,0,0,0-2-1.24l.8-.43a1.74,1.74,0,0,0,1.9-.58l.25,0a1.69,1.69,0,0,0,1.67,2.06,1.64,1.64,0,0,0,1.58-1.88l.78.14a1.08,1.08,0,0,0-.64,1,1.38,1.38,0,0,0,2.75.22,1.22,1.22,0,0,0-.3-.94c.59,0,1,0,1-.28a2.91,2.91,0,0,0,0-.59,1.38,1.38,0,0,1,.28-.1c0,.85.63,1,1,1.46,4.1.7,2.28-5.26-.68-2.92-.22-.64-.26-.89-.57-1.12a1.58,1.58,0,0,0-1.38-.33,3.88,3.88,0,0,0-1.89-1.08,21.3,21.3,0,0,0-9.13.81,19.51,19.51,0,0,0-4.18,1.71c-1.88,1-5.06-.27-8.31,2.91-2.19,2.15-.58,8.44.82,13-.76.47-.21,1.14.4,1.32.31,1,.57,1.82.76,2.47a1.52,1.52,0,0,0-.14.73,1.32,1.32,0,0,0,1.4,1.41,9.39,9.39,0,0,0,1.66,1.41,1.25,1.25,0,0,0-1,1.23c0,2,3.09,1.83,3-.11A1.71,1.71,0,0,0,187,311c.07,0,0-.37,0-.53-.5-1.11-1.94-3.14-.56-3.51s2,1.3,3.14.69-.64-1.82-.89-2.8,1.69-1,2.19,0a5.51,5.51,0,0,0,6.62,1.84c4.74-1.73,2.81-7.57,2.81-7.57s2.4-.08,4.15-.21,3.34,1.84,4.59,2.71-1,1.77-1.3,2.49c0,0-.14,3.6,4.33-2,.9-1.13-1.17-1.9.7-2.15s1.66-2.12-.79-1.75m-17.44-7.92A1.49,1.49,0,0,1,195,290l-.48.27-.07.06h0Zm4.07,12c-.74.85-2.12.86-2-.37s.25-2,.25-2c.5.12,1.87-.61,2.24,0A2,2,0,0,1,198.61,302.24Z" transform="translate(0 -0.53)"/><path class="cls-5" d="M139.65,387.45c.13,0,.18.13.23.22.47,0,.72-.11.69-.56a.49.49,0,1,0-.92.34" transform="translate(0 -0.53)"/><path class="cls-5" d="M211.09,397.34a1.44,1.44,0,0,0,1.72.11,1.6,1.6,0,0,0,.11-1.46,1.14,1.14,0,0,0-1.83,1.35" transform="translate(0 -0.53)"/><path class="cls-5" d="M127.61,402.74a.63.63,0,0,0,.22,1.24c.91,0,.85-1.68-.22-1.24" transform="translate(0 -0.53)"/><path class="cls-5" d="M134.83,411.61c-1.66.81,1.39,2.5,1.15.57a.74.74,0,0,0-1.15-.57" transform="translate(0 -0.53)"/><path class="cls-5" d="M123.71,404.42c-.51.08-.8.23-.92.45-.8,1.5,2.35,2.53,2.18.45-.07-.81-.63-1-1.26-.9" transform="translate(0 -0.53)"/><path class="cls-5" d="M215.79,293.27c-.27.07-.83-.14-.92.11-.43.13-.52.61-.45,1.23.87,1.35,2.75-.49,1.37-1.35" transform="translate(0 -0.53)"/><rect class="cls-5" x="139.76" y="396.37" width="0.69" height="0.67"/><path class="cls-5" d="M139.42,399.93a.76.76,0,0,0-.58.11c-.24,1,1.18.49.58-.11" transform="translate(0 -0.53)"/><path class="cls-5" d="M142,308.09c-.29-1.74.65-1.65,2-1.37a14.17,14.17,0,0,1,5,2.75c.85.87,1.47,1.51,4.68,2.3,7.46,1.82,2.87-1.08,2.15-1.84s-3.65-1.83-4.73-2.16a19.67,19.67,0,0,1-4.31-2.21c-2.34-1.38-6.84-1.24-9.65-1s-6.89,3.23-8,4.1-1.87-.67-.89-2.06c.51-.73,2.17-3.73,3.16-3.92.82-.15,6-1.62.71-2.33-1.35-.18-2.3,1-6,3s-3.25,4.57-3.24,5.79c0,2.89-2.56,1.56-2.25,4,.14,1.13,1.41,1.31,3.61,1.35,2.52.05.73,1.07,2.88,2.45s4.37.88,4.46-.16,1.72-.93.23-2c-2.09-1.47-3.9-.38-2.53-2s2.91,2.15,7.58,1.71c5.37-.5,5.45-4.74,5.17-6.5m-3.62,1a12.22,12.22,0,0,1,.38-2.2s2.62-1,2.5.24.62,1.47-.38,2.45S138.26,310.45,138.39,309.1Z" transform="translate(0 -0.53)"/><path class="cls-5" d="M137.7,413.41a.62.62,0,0,0,1.15,0,.58.58,0,1,0-1.15,0" transform="translate(0 -0.53)"/><path class="cls-5" d="M129.67,406.45c-2.37.83,1.59,3.36,1.37.79,0-.61-.4-1.13-1.37-.79" transform="translate(0 -0.53)"/><path class="cls-5" d="M53.09,573.2c-3.76,0-6.6,3.15-6.6,11.39,0,7.89,2.27,11.48,6.56,11.48,3.71,0,6.56-3.11,6.56-11.31,0-7.88-2.27-11.55-6.52-11.55" transform="translate(0 -0.53)"/><path class="cls-5" d="M78.17,573.2c-3.75,0-6.6,3.15-6.6,11.39,0,7.89,2.27,11.48,6.56,11.48,3.71,0,6.56-3.11,6.56-11.31,0-7.88-2.26-11.55-6.52-11.55" transform="translate(0 -0.53)"/><path class="cls-5" d="M98.92,610.87c-4.81,0-8.76,3.78-8.76,10.52,0,6.54,2.84,10.93,8.72,10.93,4.82,0,8.77-3.76,8.77-10.48,0-6.52-2.89-11-8.73-11" transform="translate(0 -0.53)"/><path class="cls-5" d="M220.61,383.18a1.44,1.44,0,0,0,0-1.12.81.81,0,0,0-1.15,1.12,1.54,1.54,0,0,0,1.15,0" transform="translate(0 -0.53)"/><path class="cls-5" d="M129.74,615.43c0-3.27-2.1-4.56-6.13-4.56-.95,0-1.78,0-2.52.08v9.26c.41,0,1.25.08,2.36.08,4,0,6.29-2,6.29-4.87" transform="translate(0 -0.53)"/><path class="cls-5" d="M124.48,556c9.21,0,15-8.15,15-20.89,0-15.57-6.51-25.83-16.45-25.83-9.58,0-15.36,8.31-15.36,21.94,0,15,6.5,24.78,16.81,24.78" transform="translate(0 -0.53)"/><path class="cls-5" d="M36.11,615.43c0-3.27-2.11-4.56-6.14-4.56-.95,0-1.77,0-2.51.08v9.26c.41,0,1.24.08,2.35.08,4,0,6.3-2,6.3-4.87" transform="translate(0 -0.53)"/><path class="cls-5" d="M180.13,573.36a25.87,25.87,0,0,0-2.68.13v9.82c.45,0,1.28.08,2.51.08,4.3,0,6.77-2.14,6.77-5.17,0-3.56-2.31-4.86-6.59-4.86" transform="translate(0 -0.53)"/><path class="cls-5" d="M187.58,314.18c-1,.19-1.19.74-1.15,1.35.11,1.59,2.88,1.68,2.76-.23a1.23,1.23,0,0,0-1.61-1.12" transform="translate(0 -0.53)"/><g class="cls-2"><path class="cls-5" d="M218,387.79c-2.46.47,1.27,3,1,.67,0-.44-.34-.8-1-.67" transform="translate(0 -0.53)"/><path class="cls-5" d="M264.68,399.57c-15.6-10.8-27.53-51-32.79-56.63-3.38-3.62-5-3-5.34-.26,0,.17,0,.5-.05.91-.18-.2-.33-.46-.52-.63a1,1,0,0,0-1.58.77,1.47,1.47,0,0,0,.8,1.91c-2.7,0-2,4,.57,3.26a.6.6,0,0,1-.11.79c-.87.1-.71-.67-1.72-.67-2.37,0-1.34,3.63.81,2.58.61.84-.3,1-.57,1.57-.4-.56-.48-.9-1.26-.9a1.13,1.13,0,1,0,.68,2c.27.37.19,1.1.58,1.35a2.2,2.2,0,0,0-.35,3.37c-2.35.06-1.41,4,1,2.81.37.73-.29.74-.46,1.24a1.44,1.44,0,0,0-2.75.45c0,1.12,1.22,1.48,2.29,1.24.42.93-.49.84-.69,1.46-.51-.48-.68-.92-1.49-.79-1.56.26-.73,2.9.92,1.8a7.54,7.54,0,0,0,.68,1.8c-1.32.2-1.29,2.59-.11,2.92-2.74.06-1.63,4,.69,2.92.33.8-.21.85-.46,1.35-.6-1.31-2.63-1.11-2.63.34,0,1,1.08,1.46,2.07,1.13.68,1.12-.27,1.19-.69,2-.29-.6-.4-1.07-1-1.12-2.16-.17-.65,3.2.81,1.69a2,2,0,0,0,.46,1.58,2,2,0,0,0-.58,3c-1.41,0-1.84,1.8-1.15,2.92a1.77,1.77,0,0,0-1.14,2.7c-.52.24-.86.66-1.38.9a1.12,1.12,0,0,0-1-1c-2.17-.14-1.35,3.58.8,2.13,0,.78.43,1.14-.23,1.46-.76-.33-.85-.9-1.72-.9a1.53,1.53,0,0,0-1.15,2.59,2.11,2.11,0,0,0-1.6,3c-.35,0-.45.24-.69.33-.48-.15-.75-.86-1.49-.9a1.55,1.55,0,0,0-1.26,2.58,2.3,2.3,0,0,0-1.72,3c-.35,0-.44.24-.68.34-.59,0-.73-.74-1.49-.79a1.54,1.54,0,0,0-.92,2.81c-1.75-.35-2.44,2.13-1.26,2.92a1.91,1.91,0,0,0-1,3.15c-.92,0-1.22.6-1.6,1.12a5,5,0,0,0,.11,1.46c-.47.18-1,.3-1.14.79-.41-.46-.47-.79-1-.9-2.52-.47-1.73,3.66.34,2.25.18.29.46.91.23,1.24-1.08-1.82-4.57-.74-3.44,1.69a2.29,2.29,0,0,0-.92.45c-1-1.85-4.08-.39-3.1,1.57a1.12,1.12,0,0,0-.92.45c-1-1.73-4.12-.69-3.33,1.57-.56.44-.57-.44-1-.45.39-.51.88-.59.92-1.24.14-2-3.44-1.52-2.29.67a4.17,4.17,0,0,0-1.6.56c-.85-1.92-4-.48-3.1,1.57-.54.33-.66-.2-.92-.45.11-.58.81-.71.81-1.46a1.42,1.42,0,0,0-2.76-.34c-.07.52.18.72.23,1.12-.3.12-.77.07-.92.34a2.69,2.69,0,0,0-3.67-.56c-.67-2.21-4-.57-3,1.35-.46.26-.72,0-.92-.34.16-.55.8-.71.8-1.46,0-2.15-3.66-1.37-2.63.79-.86.59-1-.29-1.61-.56.49-.45.92-.51.92-1.24,0-1.8-3.19-1.23-2.06.79a2.11,2.11,0,0,0-1.37.45c-.46-1-2.45-1.57-3.21-.45-.19-1.5-2.56-1.74-3.32-.56.4-1.91-2.63-2-3-.68-.13.55.22,1.21,0,1.46-1.81.08-.11-1-.11-1.91,0-2.32-3.94-1.51-2.87.9-.63.27-.76-.11-1-.45.17-.49.79-.79.69-1.69-.22-1.91-3.67-1.32-2.63,1.13-.58.1-.86.15-1-.34,0-.7.69-.66.69-1.57,0-2.31-3.7-1.32-2.64.79-.37.15-1,.41-1.15-.11s.8-.77.8-1.57c0-2.12-3.82-1.7-2.75.79-.74.24-1.23.65-1.6-.11,2.87-1,.09-4.68-1.72-2.47.39-1.68-1.84-2.33-2.75-1.35a2.08,2.08,0,0,0-3-1.46c-.11-.49-.56-.65-.69-1.12,2.44-.76-.15-3.81-1.6-2,.12-1.62-1.43-2.41-2.87-1.8a1.25,1.25,0,0,0-.57-.9c3.12-1.34-1.32-4.79-1.95-2-.13.57.08.85.22,1.35a2.09,2.09,0,0,0-1,.45,2,2,0,0,0-3.1-.68c-.29-1.48-2.89-1.44-3.44-.56a1.5,1.5,0,0,0-3-.11c-.08,1.42,1.83,2,2.87.9-.39,1.72,1.89,2.49,2.87,1.46.35.51.52,1.22,1.26,1.35-.43.18-1.07.15-1.38.45-1.48,3.51,4.36,1.87,1.61-.22.29-.27,1.19,0,1.37-.34.31.23.28.78.69.9-2.35.83-.38,4.42,1.72,2.7a1.7,1.7,0,0,0,1.15,1.57,1.44,1.44,0,0,0-1.15,2.47c-.39,0-.8,0-.92.23-.44-.2-.35-.94-.92-1,2.49-.82-.72-4.23-1.72-1.91-.22.52.15.74,0,1.46-.57.09-.76.15-1-.22,0-.73.76-.69.81-1.57.08-1.55-1.81-1.94-2.75-1.12a1.92,1.92,0,0,0-2.75-1.46c-.18-.46-.3-1-.81-1.12.49-.43.83-.49.92-1.12.29-2.19-3.48-1.75-2.29.45-.3.17-1.06.54-1.26.11-.15-.6.69-.75.8-1.46.22-1.37-1.07-2.43-2.64-1.69,0-.65-.51-.84-.69-1.35.57-.21.83-.42.92-.9.47-2.41-3.69-1.86-2.3.56-.79,0-1,.38-1.37-.23,1.89-.89.74-4.31-1.61-3.15a1.83,1.83,0,0,0-.57-1.12c1.75-.88.23-4-1.61-2.58-.11-.75-.62-1.12-.92-1.69,2.54-.53.08-3.91-1.49-2A1.47,1.47,0,0,0,101,393c2.88-.41.71-4.19-1.15-2.25.22-1-.68-1.43-.69-1.8,2.6-.26.77-4.26-1.15-2.47a11.21,11.21,0,0,1-.57-1.35c.36-.18.75-.31.92-.68.3,2.1,3.23,1.9,3.33.11.07-1.47-2-2.2-3.1-1,.19-.79-.66-1.15-.57-1.46,2.77,0,1.49-4.42-1-2.92a1.71,1.71,0,0,0-.46-1c1.79-.82.82-4.2-1.37-3.15-.25-.24-.21-.77-.57-.9,1.21-.68,1.3-3-.23-3.37-.54-.13-1.27.28-1.6,0-.4-.81.82-.78.8-1.57.22.73.38,1.25,1,1.35,2.66.39.72-4-.8-1.57a3.76,3.76,0,0,0-.92-2.25c2.23-.12,1-3.51-.91-2.36a5,5,0,0,0-.58-1.46c2-.83.49-3.87-1.6-3-.41-.66.41-.69.57-1.12.44.48.5.82,1.15.9,2.39.3,1.67-3.62-.8-2.25a1.61,1.61,0,0,0-.58-1.35c1.08-.34,1.31-2,.58-2.92.92,0,1.22-.6,1.6-1.12.13-.55-.22-1.2,0-1.46.6-.56,1,0,1.26.56-.72.13-1.07.45-1.15,1-.32,2.41,3.84,1.45,2.18-.78.62.05.89-.39,1.26.11s-.68.77-.8,1.57c-.44,3.07,4.62,2.31,3.33-.56.79-.86,1.2.51,2.06.67a1.76,1.76,0,0,0,1.83-.67c.1,1.51,2.39,1.55,3,.79-.11,1.81,2.25,2.24,3.21,1.12a1.5,1.5,0,0,0,1,1.46c3.62.9,2-5.21-.68-2.58a9.42,9.42,0,0,0-1-1.57c3,.33,1.15-4.42-1-2.25a1.71,1.71,0,0,0-1.15-1.8c2.38.3,1.78-3.61-.35-2.36-.3-.31-.19-1-.57-1.24,1.11-.48,1.59-2.57.34-3.26,2.24-.32,1.32-4.05-1-2.81a1,1,0,0,0-.34-.9c1.16-.6,1.33-3.19-.35-3.6-1-.24-1.39.36-1.72-.22s.88-1.18.92-1.91a1.85,1.85,0,0,0-2.76-1.68,2.26,2.26,0,0,0-.46-.9c0-.57.69-.77.69-1.46,0-2-3.47-1.55-2.75.79-.5,0-.88.27-1-.23,0-.65.8-.78.8-1.57,0-2.28-3.92-1.47-2.86.9-.18,0-.44-.05-.46.11-1.25-.47.23-1.2.23-2,0-2.08-3.76-1.73-2.76.67-.16.3-.25-.41-.68-.23-.09-.32.65-1,.46-1.91-.13-.62-.58-.8-1-1.12a3.9,3.9,0,0,0-1.37.11,2.28,2.28,0,0,0-.46-.9,1.78,1.78,0,0,0-1.46-3.19c0-.23,0-.46,0-.68a.54.54,0,0,0,.31-.4c.44.48.5.82,1.15.9,2.41.3,1.56-3.46-.57-2.36-.48-.84.08-1.06.46-1.57.67.35.52.79,1.38.79a1.13,1.13,0,1,0-.68-2c-.33-.57-.5-1.37.22-1.57.51.08.62.74,1.38.79a1.4,1.4,0,0,0,.57-2.7c-.47,0-.93,0-1.14.22-.23-.21-.45-.83-.23-1.12.75,0,1,.84,2,.79a1.67,1.67,0,0,0,.92-2.92c1.73.26,2.29-2.34,1-3,1.64,0,2.22-2.66.58-3.15,2.7.14,2-3.85-.46-3-.41-.64.38-.65.46-1.12.43.44.71.9,1.37.9,2.21,0,1.33-3.58-.92-2.59-.41-.93.49-.84.69-1.46.5.4.55.9,1.26.9,1.86,0,1.07-3.21-.69-1.91-.25-.43-.17-1.19-.57-1.46.9-.48,1.57-2.49.34-3.15,2.34-.35,1.48-4.24-1-3,0-.48-.27-.86.23-1,.55.06,1,.84,1.95.67a1.45,1.45,0,0,0,.23-2.7c-.58-.11-1.2.18-1.49,0-.35-.84.32-.84.57-1.35,1,2.28,4.13-.56,1.72-1.57-.56-.1-.76.15-1.15.23-.41-.91,0-1,.46-1.57.87,1.93,3.9.12,2.29-1.57a1.78,1.78,0,0,0,1.6-.67c.47,1.85,3.77,1,2.64-1a2.7,2.7,0,0,0,1.49-.67c.7,1.7,3.9.77,2.86-1.46a1.15,1.15,0,0,0,1-.45c1,2,4.31.54,3.32-1.57.87-.62.91.59,1.72.67-.79.22-1.32.38-1.37,1.12-.19,2.49,4,.53,1.6-.9.83-.17,1.75-.24,2.06-.9.41,1.71,3.58,1.25,2.76-.9a2.92,2.92,0,0,0,1.37-.68c1.06,1.71,3.81.23,2.87-1.57a1.14,1.14,0,0,0,1-.45c1,1.73,4.12.69,3.33-1.57.76-.89,1.13.62,2.29.67,1.42.06,2.2-1.14,1.83-2.7.86-.7,1,.7,1.83.67-.88.16-1.45.23-1.6.9a1.2,1.2,0,0,0,2.29.68c.14-.61-.22-1-.46-1.46a2,2,0,0,0,2.06-1c.08,2.39,3.92,1.07,2.29-.9.91.07,1.24-.44,1.84-.67.36,1.83,3.68.54,2.41-1.12.49-.31,1.25-.35,1.49-.9.67,1.78,3.81.75,2.75-1.24a3,3,0,0,0,1.38-.67c.7,1.7,3.9.77,2.86-1.46a1.85,1.85,0,0,0,1.15-.56c.12.72.93.88,1.68.83.38.25.77.49,1.18.71-.25.14-.61.17-.68.49-1.37-3.06-4.88,1.29-2.06,1.91a2.37,2.37,0,0,0,1.38-.22,1.91,1.91,0,0,0,.8,1.35c-.52.45-.94.54-1,1.24-.3,2.42,3.87,1.83,2.53-.68a1.34,1.34,0,0,0,.91-.34c.54.18.61.83,1.26.9-.79.22-1.32.38-1.38,1.12-.18,2.49,4,.53,1.61-.9,1.68,0,2.81-1.1,2.29-2.92.35,0,.44-.24.68-.34.53,0,.78.75,1.49.79a1.68,1.68,0,0,0,1.26-2.81c.81.12.91-.46,1.49-.56-.11,1.34,2.32,1.7,2.75.56a1.92,1.92,0,0,0,3,1.57c.21,1.19,1.4,1.87,2.87,1.46.2.36.35.78.8.9-.39.52-.8.52-.8,1.24,0,1.81,3.2,1.22,2.06-.79,1-.46,1.26.09,1.83.56-.32.56-.8.57-.8,1.23,0,1.84,3.27,1,1.94-.67.38-.27,1.12-.18,1.38-.56.55,1.07,2.88,1.46,3.44.11.46,3.11,4.58.27,2.06-1.24a1.7,1.7,0,0,0,2.14-2,1.31,1.31,0,0,0,.67-.3,4.87,4.87,0,0,1-.08-1.17,1.71,1.71,0,0,0,.52-1.6,3.73,3.73,0,0,1,1.14-1.05c.76,1.47,3.05.07,2.3-1.33a.51.51,0,0,0-.12-.44,1.51,1.51,0,0,0,1.44-.65c.52,2.22,4.07.95,3-1.12.49,0,.88-.27,1,.22s-.8.78-.8,1.58c0,2.33,3.91,1.42,2.86-.9.18,0,.44.05.46-.11,1.26.44-.23,1.09-.23,2,0,2.34,4,1.55,2.87-.9.35.08.34-.19.69-.11.57.7-.49,1-.57,1.8a1.56,1.56,0,0,0,2.52,1.46c.35.55.54,1.26,1.26,1.46-.71.26-1.2.42-1.26,1.12-.18,2.35,3.61.75,1.95-.9.74,0,1.14-.48,1.38.23,0,.67-.77.85-.81,1.68a1.74,1.74,0,0,0,2.64,1.57,1.09,1.09,0,0,0,.46.9c-1.86.93-.74,4.27,1.61,3.14.77.9-.64,1.32-.69,2.36-.06,1.42,1.29,2.15,2.75,1.8.45.59-.59.5-.57,1-.55-.39-.57-.85-1.26-.9-2.1-.14-1.56,3.4.68,2.25a2.46,2.46,0,0,0,.69,1.57A1.59,1.59,0,1,0,216,275.4c.41.92-.16.88-.57,1.46-.46-.48-.51-.9-1.26-.9-1.83,0-1.25,3.13.8,2-.07.89.45,1.21.69,1.8-2.07.76-.51,3.59,1.5,2.81.45.69-.53.58-.57,1.13-.62-1.18-2.64-1.06-2.64.34a1.2,1.2,0,0,0,1.94.9,10.16,10.16,0,0,0,.69,1.68c-2,.83-.49,3.87,1.61,3,.33.53-.2.64-.46.9-.55,0-.7-.79-1.49-.79-2.11,0-1.52,3.59.8,2.47.12.41.16.89.46,1.13a2,2,0,0,0,1.84,3.6c.48.53-.38.93-.8,1.24,0-.78-.37-1-.92-1.13-2.75-.38-.68,3.84.92,1.8a1.89,1.89,0,0,0,1,1.91c-2.44.08-1.09,3.85.92,2.25a2,2,0,0,0,.8,1.68c-1.87.37-1.08,3.71.92,2.58.32.36.32,1,.69,1.35-1.54.79-.53,3.79,1.37,2.69.4.21.22,1,.69,1.13-1.65.88-.92,4.16,1.6,3.15.48.83-.18,1-.57,1.57-.26-.66-.39-1-1-1.12-2.61-.37-.92,3.66.8,1.91a1.86,1.86,0,0,0,.92,1.91c.15.08.76.46,1,.34a5.9,5.9,0,0,0,2.54-1.42,4.42,4.42,0,0,0,3.08,1.08c1.27-.08,1.67-4.09,2.44-5.92,2.23-5.57,3.77-13,2.17-18.45,4-3.61,7.38-12.73,6.12-13.68a12.87,12.87,0,0,1-4.29-6.45c-.56-2.36-4.47.27-5.8.17a2.59,2.59,0,0,1-2.57-2.89c.25-3.4,10.6-4.52,17.58-8.95s10.26-11.07,10.5-20.84-5.28-19.72-13.09-23.66-50.57-13.79-58.09-17.8a82.83,82.83,0,0,0-13.36-5.12c-16-3.94-48.71-3-66.94,3.5-4.47,1.59-19.58,3.93-28.14,5.62A35,35,0,0,0,74.65,207a18.44,18.44,0,0,0-3.54,1.86C54.94,220.1,36,222.9,20,235.83c-6.54,6.14-9.4,14.69-8.44,23.78a27.16,27.16,0,0,0,17.32,21.77c7.23,2.57,11.45.93,13.76,6.41-2.58,2.8-5.46,4.19-5.86,8.95s3.28,14.83,10.08,19c-3.55,3.47-7,7.8-3,14.69,2.45,4.16-.61,5.17-.68,9s1.08,7.09,7.34,9.46,5.12,8.18,13.64,7.83c4,3,6.33,2.16,8.46,2.08.15,1.21.36,1.93.65,2l.81,1.72C55.64,386.14,10.21,409.66,0,434.29V661H307.83V443.08c-5.87-13.1-27.56-32.71-43.17-43.51M106.39,350.25c.36.36.36,1.07.92,1.24-.76.2-1.56.34-1.83,1a5.83,5.83,0,0,0-.57-1.46A1.53,1.53,0,0,0,106.39,350.25Zm-1.83-3.71c.37.2.39.74.92.79a3.31,3.31,0,0,1-1.6.11C103.78,346.83,104.58,347.09,104.56,346.54Zm-.68-6.4c-.2.26-.65.26-1,.34C102.85,339.92,103.69,339.58,103.87,340.14Zm-.81,9.89c.36.13.5.49.69.79a1.1,1.1,0,0,0-.92.45c-.24-.14-.07-.68-.34-.79C102.53,350.17,103,350.28,103.07,350ZM223.58,305c.08.56-.58.4-.68.79-.14-.17-.33-.27-.35-.56A8.31,8.31,0,0,0,223.58,305Zm-2.29-4.16c.23.08.3.3.35.56-.29.21-.65.34-.8.67-.22-.31-.29-.77-.69-.9C220.39,300.89,221.15,301.14,221.29,300.8ZM206.85,253c0,.13,0,.2.11.23l-.46.45c-.32,0-.1-.42-.34-.45A.94.94,0,0,1,206.85,253Zm-11.93-3.37c-.08.22-.3.3-.58.34.09-.42-.14-.54-.11-.9C194.74,249,194.62,249.54,194.92,249.67Zm-26,4.61c-.09.35.31.22.22.56-.41,0-.42.48-.8.56.08-.45-.11-.64-.11-1C168.55,254.47,168.54,254.19,168.89,254.27Zm-3.35-.83.11-.12c.24.09.26.4.49.5,0,.27-.35.25-.46.45A1.43,1.43,0,0,1,165.54,253.45Zm-20.85,3.75c-.13,0-.21,0-.23.11-.23-.15-.26-.5-.35-.79C144.51,256.55,144.62,256.86,144.69,257.2Zm-4.59,1.23a1.65,1.65,0,0,1,.57.79c-.2,0-.24.14-.46.11C140.22,259,139.84,258.7,140.1,258.43Zm-4,2c.49.08.47.66.91.79-.32.21-.78.29-.91.67-.26-.23,0-1-.35-1.12C135.71,260.53,136.08,260.67,136.09,260.46Zm-19.73,7.3c.51-.09.4.44.69.56-.15.19-.24.44-.57.45C116.64,268.24,116.12,268,116.37,267.76Zm-14.57,5.73c-.07.22-.3.3-.57.34.09-.42-.14-.54-.12-.9C101.58,272.89,101.47,273.41,101.8,273.49Zm-4.36,1.24c.31.14.33.57.69.67-.07.27-.43.25-.69.34a2.85,2.85,0,0,1-.23-.9C97.35,274.86,97.42,274.82,97.44,274.73Zm-3.21,12.36c-.14.24-.69.07-.8.34a.55.55,0,0,1-.23-.56C93.68,286.52,94,286.71,94.23,287.09ZM92.29,300c.29,0,.4-.21.57-.34.31.23.35.71.92.68-.38.19-1,.1-1.38.33C92.48,300.35,92.2,300.36,92.29,300Zm-.46,2.7c.14.24.43.33.46.67-.43-.09-.55.14-.92.11,0-.13,0-.2-.12-.23C91.25,302.9,91.71,303,91.83,302.71ZM90.22,306a.32.32,0,0,0,.35-.22c.31.14.33.57.68.67a1.56,1.56,0,0,1-.92.23C90.42,306.3,90.14,306.32,90.22,306ZM211.89,401c-.09.39.17.43.11.79-.5,0-.6-.31-.69-.67C211.6,401.21,211.57,401,211.89,401ZM206.5,406c.34.18.45.91.12,1.13a3.56,3.56,0,0,0-.8-.79C205.91,406.09,206.4,406.24,206.5,406Zm-.68,3.37c-.05.27.2.24.11.56-.35-.08-.22.31-.57.23.06-.4-.41-.28-.35-.67C205.41,409.57,205.46,409.31,205.82,409.37Zm-1,2.93c-.08.34.19.33.11.67a.31.31,0,0,0-.34.22c-.31-.08-.24-.51-.58-.56C204,412.31,204.53,412.42,204.78,412.29Zm-13.07,92.78,10.12-.89,2.35,3.36c-1.08,13.1-1.26,17.34-1.26,23.54,0,9.73.91,22.47,1.81,23.71.36.71,1.44,1.07,3.43,1.07h7.05V559H169.3v-3.18l13.2-.88,1.81-.19c1.08,0,1.45-.35,1.63-1.24.36-1.94.73-11.5.73-22.3,0-12.92-.55-16.63-2-16.63-.54,0-.9.17-2.53.87a84.92,84.92,0,0,1-12.83,3.72l-1.08-2.48C179.43,512,181.06,511.25,191.72,505.07ZM211.64,583v2.51H201.33v10.23h10.85v2.58h-14V571h14v2.51H201.33V583Zm-27.85,5.33,8,10h-4.09l-9.78-12.6h-.49v12.6h-3.18V571c1.77-.08,3.59-.12,6.56-.12,5.25,0,9.21,1.78,9.21,6.87,0,4.85-4.09,7.51-8.71,7.71C182.14,586.41,183.09,587.42,183.79,588.31ZM162,582.86V571h3.13v27.27H162V585.44H146.87v12.85h-3.17V571h3.17v11.84ZM138.73,417a3.62,3.62,0,0,0,.57,1.57c-.8-.15-.92.37-1.49.45.08-.63-.52-.62-.57-1.12A1.4,1.4,0,0,0,138.73,417Zm-3.32-.45c.47.14.3.9.8,1a7.86,7.86,0,0,0-1.61.9,1.24,1.24,0,0,0-.45-1.24C134.53,417,135.24,417,135.4,416.56Zm-1,2.58c.23.52.24,1.26.81,1.46a3.87,3.87,0,0,0-.84.42l-.66.15c0-.71-.53-.83-.68-1.36C133.7,419.84,134.23,419.69,134.37,419.15Zm-3.21-2.58c.9-.22,1.54-.74,1.84.34-1.69-.17-1.68,2.33-.69,2.92-.44-.23-1.06.21-1.49.34a1.58,1.58,0,0,0-.8-1.24A1.54,1.54,0,0,0,131.16,416.56Zm-4.81-4.38c0-.28,0-.55-.23-.57.22-.3.83-.23,1-.56.27,0,.26.35.46.45A4.9,4.9,0,0,1,126.35,412.18Zm1.15,3.14c.23-.29,1.16.09,1.26-.34.5.15.4.89.92,1a1.71,1.71,0,0,0-.58,2.7,1.19,1.19,0,0,0-1,.34c-.44-.32-.48-1-1-1.23C128.17,417.7,128.65,415.78,127.49,415.32Zm-27.87-24a7.16,7.16,0,0,0,.69,1.46c-.28.07-.83-.14-.92.11-.31,0-.21-.47-.46-.56C99,391.76,99.59,391.8,99.62,391.27Zm-.46,122.46a43.31,43.31,0,0,1,25.13-8.5,40.38,40.38,0,0,1,23.14,7.44c6.51,4.59,9.95,11.5,9.95,20.53,0,15.22-14.83,26.91-34.35,26.91-20.25,0-33.62-10.44-33.62-26.56A24.79,24.79,0,0,1,99.17,513.74ZM110.47,571v20.36c0,4.57-1.85,7.19-6.72,7.19a15.79,15.79,0,0,1-3-.32v-2.79a9.36,9.36,0,0,0,3,.49c2.31,0,3.59-.93,3.59-4.8V571ZM26.81,584.35c-.62,0-1.49,0-2.19.08V571H37.08v2.92H27.55v7.91c7.64-.08,11.1,2.83,11.1,7.56,0,5.49-4.57,9.16-10.89,9.16a19.11,19.11,0,0,1-4.13-.4l.41-2.78a14.44,14.44,0,0,0,4,.52c4.54,0,7.35-2.38,7.35-6.1C35.39,586.26,32.79,584.35,26.81,584.35Zm10.25,50.87L28,623h-.5v12.18H23.67V608c1.9-.13,3.91-.16,7-.16,5.48,0,9.42,1.89,9.42,7.1,0,4.63-3.75,7.33-8.14,7.66.82,1,1.69,2,2.39,2.9l7.56,9.71Zm24.51-24.14H51.08v8.62h10v3h-10v9.43H61.57v3.11H47.29V608H61.57Zm-8.81-12.46c-5.53,0-9.57-3.44-9.57-13.7,0-9.78,4.5-14.22,10.15-14.22s9.57,3.44,9.57,13.7C62.91,594.17,58.41,598.62,52.75,598.62Zm9.17-36.91a3.45,3.45,0,0,0,.18-1.24c0-1.07-.54-1.42-2.53-1.42H22.88l-1.62-5c16.08-7.62,21-10.81,26.38-16.46,5.78-6.2,9-13.28,9-19.47,0-5.85-3.61-9.21-9.76-9.21-5.61,0-8.32,2.48-8.32,7.79a17.28,17.28,0,0,0,.19,3c.18,1.07.35,2.13.35,2.47,0,2.84-2.52,4.26-7.41,4.26-4.15,0-6.15-1.77-6.15-5.32,0-9.91,10.49-16.63,25.5-16.63,13.91,0,23.32,6.2,23.32,15,0,5.3-3.25,10.62-9.22,15.39-5.24,4.08-8.85,6.21-20.43,12.75h23a78.37,78.37,0,0,1,10.67-7.61l1.27,1.07A156.87,156.87,0,0,0,65.9,561.71Zm20.47,49.37H72v8.82h9.83v3H72v12.34H68.23V608H82.39Zm-4.55-12.46c-5.53,0-9.57-3.44-9.57-13.7,0-9.78,4.5-14.22,10.15-14.22S88,574.13,88,584.39C88,594.17,83.49,598.62,77.84,598.62Zm20.68,37c-8.36,0-12.39-5.44-12.39-13.67,0-9.1,5.93-14.35,13.17-14.35,8.36,0,12.39,5.44,12.39,13.67C111.69,630.37,105.72,635.62,98.51,635.62Zm32.17-.4L121.6,623h-.5v12.18h-3.78V608c1.89-.13,3.9-.16,6.95-.16,5.48,0,9.43,1.89,9.43,7.1,0,4.63-3.74,7.33-8.15,7.66.82,1,1.69,2,2.39,2.9l7.57,9.71ZM135,598.29l-2.4-6.71H120.21l-2.48,6.71h-3.26L124.79,571h3.51l10.32,27.27Zm32.61,36.93-2.34-15.76c-.41-2.94-.7-5.28-.86-6.89h-.08c-.32,1.32-.78,3.14-1.44,5.12L157,635.22h-4l-5.63-16.41a60.69,60.69,0,0,1-1.78-6.24h-.07c-.13,2.25-.37,4.55-.75,7.21l-1.89,15.44H139L143,608h4.6l5.89,17.17c.49,1.37,1.11,3.54,1.61,5.4h0c.49-1.9,1-3.58,1.52-5.16l6-17.4h4.69l4.2,27.2Zm26.83,0-2.31-6.37H180.35L178,635.22h-3.87L184.25,608h4.29l10.16,27.2Zm22.46-24.1h-8v24.1h-3.8v-24.1h-8V608h19.8Zm-.57-215c.32.09.3-.16.57-.11-.09.39.17.43.12.78C216.55,396.82,216.45,396.47,216.36,396.11Zm7.34-23.83c.21-.24.89,0,1-.33.35,0,.28.39.34.67-.29,0-.4.2-.57.34C224.1,372.86,224.21,372.27,223.7,372.28ZM221.54,608h3.79v27.2h-3.79Zm3.88-248.21c-.27,0-.25-.35-.46-.45.13-.24.69-.07.8-.34a.5.5,0,0,1,.23.45C225.7,359.48,225.6,359.67,225.42,359.81Zm17.92,275.81c-8.36,0-12.38-5.44-12.38-13.67,0-9.1,5.91-14.35,13.17-14.35,8.35,0,12.39,5.44,12.39,13.67C256.51,630.37,250.54,635.62,243.34,635.62Zm40.91-.4h-5l-10.79-17.45a46.3,46.3,0,0,1-2.91-5.36c.16,2.86.28,10.61.28,15.23v7.59h-3.66V608h5l10.66,17.12c1.07,1.78,2.14,3.71,3.06,5.53-.13-3.39-.3-11-.3-15.71V608h3.66ZM283,525.77c-30,47.78-26.4,42-30.74,49.59-4.7,9-7.19,13.45-9.94,21.9l-16.11.07c6.15-14.69,17.37-30.15,49-73.33-6-.36-8.68-.36-14.64-.36-13.74,0-18.62.36-20.24,1.24-2,1.24-4.52,4.79-10.85,15.58h-3.07c4.33-16.81,5.06-19.29,11.21-35h4.87c.37,3.36.55,3.54,4.34,3.54H294C288,517.63,287.13,518.69,283,525.77Z" transform="translate(0 -0.53)"/></g><path class="cls-5" d="M219.46,386.22a1.12,1.12,0,0,0,.12-1,1.2,1.2,0,0,0-1-.11.73.73,0,0,0,.91,1.13" transform="translate(0 -0.53)"/><path class="cls-5" d="M186.28,612h-.09c-.33,1.17-.7,2.38-1.15,3.63l-3.74,10.28h9.88l-3.7-10.2c-.5-1.33-.87-2.54-1.19-3.71" transform="translate(0 -0.53)"/><path class="cls-5" d="M243.76,610.87c-4.82,0-8.78,3.78-8.78,10.52,0,6.54,2.84,10.93,8.73,10.93,4.82,0,8.77-3.76,8.77-10.48,0-6.52-2.89-11-8.72-11" transform="translate(0 -0.53)"/><path class="cls-5" d="M115.11,366.55a1.31,1.31,0,0,0,2.52-.68c-.11-.57-.58-1.17-1.72-.79-.64.22-1,.51-.8,1.46" transform="translate(0 -0.53)"/><path class="cls-5" d="M104.67,328.9c0,.07,0,.13-.12.11v.22c.07,0,.14,0,.12.11h.23c0-.07,0-.13.11-.11V329c-.07,0-.13,0-.11-.11h-.23" transform="translate(0 -0.53)"/><path class="cls-5" d="M114,314.85a.91.91,0,0,0-1.26-.79c-2.51.65,1.48,3.42,1.26.79" transform="translate(0 -0.53)"/><path class="cls-5" d="M103.07,312.15a.61.61,0,0,0,1.14,0,.57.57,0,1,0-1.14,0" transform="translate(0 -0.53)"/><path class="cls-5" d="M105.93,315.75a.76.76,0,0,0-.57.11c-.24,1,1.18.5.57-.11" transform="translate(0 -0.53)"/><path class="cls-5" d="M116.71,368.68a1.42,1.42,0,0,0-1.95-.68,1.27,1.27,0,0,0-.81.68c-.85,2.8,3.44,2.27,2.75,0" transform="translate(0 -0.53)"/><path class="cls-5" d="M109.48,311c.75,3.48,4.37-1.17,1.27-1.23-.5,0-.71.38-1,.34,0-.86-.46-1.2-.68-1.8,3.58-1.24-1.86-4.69-1.84-1.35,0,.48.18.51.35,1a3,3,0,0,0-1.61.79c-.36-2.14-3.78-.44-2.18,1.24a2,2,0,0,0,1.83,0c0,.86.54,1.19.8,1.8-3.14,1.16,1.51,4.25,1.72,1.35,0-.57-.32-.82-.35-1.12a2.49,2.49,0,0,0,1.72-1" transform="translate(0 -0.53)"/><path class="cls-5" d="M114.65,400a1.44,1.44,0,0,0,1.72.11,1.58,1.58,0,0,0,.12-1.46,1.14,1.14,0,0,0-1.83,1.35" transform="translate(0 -0.53)"/><path class="cls-5" d="M111.78,300.8a.92.92,0,0,0-1.26-.79c-2.51.65,1.48,3.42,1.26.79" transform="translate(0 -0.53)"/><path class="cls-5" d="M112.93,317.89a.92.92,0,0,0-1.26-.79c-2.51.66,1.48,3.42,1.26.79" transform="translate(0 -0.53)"/><path class="cls-5" d="M108.68,304.63c.65,1.06,3,.25,2.07-1.35a1.18,1.18,0,0,0-1.38-.34,1,1,0,0,0-.69,1.69" transform="translate(0 -0.53)"/><rect class="cls-5" x="111.44" y="307.13" width="0.69" height="0.67"/><path class="cls-5" d="M114.19,355.09a.92.92,0,0,0-1.26-.79c-2.51.65,1.48,3.42,1.26.79" transform="translate(0 -0.53)"/><path class="cls-5" d="M118,363.29a.66.66,0,0,0-1-.67c-1.19.9.87,1.9,1,.67" transform="translate(0 -0.53)"/><path class="cls-5" d="M111.44,297c-.83.22-.84.63-.81,1,.12,1.44,2.91,1,1.95-.67a1,1,0,0,0-1.14-.34" transform="translate(0 -0.53)"/><path class="cls-5" d="M96.07,366.66v-.45h-.46c-.09.38.06.54.46.45" transform="translate(0 -0.53)"/><path class="cls-5" d="M95.84,373.52c.12,1.44,2.91,1,2-.68a1,1,0,0,0-1.15-.34c-.83.22-.83.63-.8,1" transform="translate(0 -0.53)"/><path class="cls-5" d="M111.89,364.64c-1,2.61,3.65,2.45,2.76,0a1.4,1.4,0,0,0-1.49-.79c-1,.11-1.15.48-1.26.79" transform="translate(0 -0.53)"/><path class="cls-5" d="M99.17,357.45a.35.35,0,1,0-.69,0c.13,0,.18.13.23.23.31.08.23-.22.46-.23" transform="translate(0 -0.53)"/><path class="cls-5" d="M101.11,354.52c.09-.64-.05-1.27-.8-1.46a1.27,1.27,0,0,0-1.72,1,1.28,1.28,0,0,0,2.52.45" transform="translate(0 -0.53)"/><path class="cls-5" d="M113.16,404.42c-2.83.86,2,3.83,1.49.78-.09-.56-.47-1.1-1.49-.78" transform="translate(0 -0.53)"/><path class="cls-5" d="M96.53,357.11a1.59,1.59,0,0,0,.11-1.46A1.14,1.14,0,0,0,94.81,357a1.44,1.44,0,0,0,1.72.11" transform="translate(0 -0.53)"/><path class="cls-5" d="M116.48,404.65c2.84,1.84,3.94-3.27.8-2.81-.38.06-.46.27-.92.45,0-1.77-2.46-2.11-3.44-1-.18-.62-.47-1.11-.92-1.24-3.27-.91-2.08,4.79.69,2.47,0,1.67,2.27,2.13,3.33,1.12,0,.45.31.67.46,1" transform="translate(0 -0.53)"/><path class="cls-5" d="M99.62,378.24a1.6,1.6,0,0,0,.12-1.46,1.06,1.06,0,0,0-1.6,1.35,1.68,1.68,0,0,0,1.49.11" transform="translate(0 -0.53)"/><path class="cls-5" d="M108.57,316.42a.63.63,0,0,0,.23,1.24c.91,0,.85-1.68-.23-1.24" transform="translate(0 -0.53)"/><path class="cls-5" d="M108.68,347c-.24,1,1.18.49.58-.11a.76.76,0,0,0-.58.11" transform="translate(0 -0.53)"/><path class="cls-5" d="M106.5,301.14a1.88,1.88,0,0,0-1,3.26,1.6,1.6,0,1,0,.57,3.15c1.16-.25,1.42-2.09.69-2.81a1.87,1.87,0,0,0,1-3.26c1.69.1,1.91-2.45.69-3,.56.1.76-.15,1.15-.22,2.45-2.32-2.88-4.11-2.41-.9.06.42.6.69.57,1-1.68-.22-2.15,1.84-1.26,2.81" transform="translate(0 -0.53)"/><path class="cls-5" d="M102.15,386.11c.65,1.05,3,.25,2.06-1.35a1.17,1.17,0,0,0-1.37-.34,1,1,0,0,0-.69,1.69" transform="translate(0 -0.53)"/><path class="cls-5" d="M103.18,355a.75.75,0,0,0-.57.11c-.24,1,1.18.49.57-.11" transform="translate(0 -0.53)"/><path class="cls-5" d="M101.8,382.17a1,1,0,0,0-.8-1.68c-2,.36-.24,2.54.8,1.68" transform="translate(0 -0.53)"/><path class="cls-5" d="M163.84,421.05c0-.44-.34-.8-1-.67-2.46.47,1.27,3,1,.67" transform="translate(0 -0.53)"/><path class="cls-5" d="M184.25,385.88a1.89,1.89,0,0,0,1.95-.11,1.79,1.79,0,0,0-.11-1.91,1.89,1.89,0,0,0-1.95.11,1.79,1.79,0,0,0,.11,1.91" transform="translate(0 -0.53)"/><path class="cls-5" d="M185.86,380.37a1.33,1.33,0,0,0-1.26,1.46c0,2.23,3.32,2,3.21-.11,0-.93-.65-1.63-2-1.35" transform="translate(0 -0.53)"/><path class="cls-5" d="M187.81,382.73c-.13,2.49,3.34,1.87,3-.23-.12-.71-.67-1.37-1.95-1a1.23,1.23,0,0,0-1,1.24" transform="translate(0 -0.53)"/><path class="cls-5" d="M183.34,411.61c.91,0,.85-1.68-.23-1.23a.63.63,0,0,0,.23,1.23" transform="translate(0 -0.53)"/><path class="cls-5" d="M183.91,401a.66.66,0,0,0-1-.67c-1.18.9.87,1.9,1,.67" transform="translate(0 -0.53)"/><path class="cls-5" d="M182.07,403.3c-1.87.66,1.27,2.56,1,.56-.07-.58-.52-.74-1-.56" transform="translate(0 -0.53)"/><path class="cls-5" d="M191.37,409.82c-.07-.58-.52-.74-1-.56-1.87.66,1.27,2.55,1,.56" transform="translate(0 -0.53)"/><path class="cls-5" d="M190.22,400.38c.47,0,.72-.11.69-.56a.49.49,0,1,0-.92.34c.13,0,.18.13.23.22" transform="translate(0 -0.53)"/><path class="cls-5" d="M192.28,406.78a.73.73,0,0,0-1.15-.56c-1.66.81,1.39,2.5,1.15.56" transform="translate(0 -0.53)"/><path class="cls-5" d="M188.84,385.43a1.2,1.2,0,0,0-1-.11.73.73,0,0,0,.92,1.12,1.15,1.15,0,0,0,.11-1" transform="translate(0 -0.53)"/><path class="cls-5" d="M190,378.91c-2.37.83,1.59,3.36,1.38.79-.05-.61-.4-1.13-1.38-.79" transform="translate(0 -0.53)"/><path class="cls-5" d="M93.55,354.64a1.12,1.12,0,0,0-1-.34,1.08,1.08,0,0,0-1,.9c-.18,2.21,3.15.91,2.06-.56" transform="translate(0 -0.53)"/><path class="cls-5" d="M178.52,381.95c-2.43,1.57,2.39,2.94,1.49.45a1.08,1.08,0,0,0-1.49-.45" transform="translate(0 -0.53)"/><path class="cls-5" d="M119.81,410.38c-.07-.81-.69-1.06-1.38-.9s-.92.66-.92,1c0,1.43,2.43,1.53,2.29-.11" transform="translate(0 -0.53)"/><path class="cls-5" d="M178.75,386a.66.66,0,0,0-1-.67c-1.18.9.87,1.9,1,.67" transform="translate(0 -0.53)"/><path class="cls-5" d="M181.73,387a.57.57,0,1,0-1.15,0,.61.61,0,0,0,1.15,0" transform="translate(0 -0.53)"/><path class="cls-5" d="M183,379.81a1.08,1.08,0,0,0-1,.9c-.18,2.21,3.15.91,2.06-.56a1.12,1.12,0,0,0-1-.33" transform="translate(0 -0.53)"/><path class="cls-5" d="M180.59,383.74c-.13,2.49,3.34,1.87,3-.22-.12-.71-.67-1.37-2-1a1.23,1.23,0,0,0-1,1.24" transform="translate(0 -0.53)"/><path class="cls-5" d="M179.78,400.49q1.1.18.92-.9c-.6-.74-1.68.31-.92.9" transform="translate(0 -0.53)"/><path class="cls-5" d="M178.18,402.06a1.8,1.8,0,0,0,.11,1.91,1.89,1.89,0,0,0,2-.12,1.79,1.79,0,0,0-.12-1.91,1.89,1.89,0,0,0-1.95.11" transform="translate(0 -0.53)"/><path class="cls-5" d="M163.39,407.23c-2.43,1.57,2.39,2.94,1.49.45a1.08,1.08,0,0,0-1.49-.45" transform="translate(0 -0.53)"/><path class="cls-5" d="M163.39,386.89c-3.1.84,1.82,4.23,1.6,1a1.14,1.14,0,0,0-1.6-1" transform="translate(0 -0.53)"/><path class="cls-5" d="M162.24,380c-2.37.83,1.6,3.36,1.38.79-.05-.61-.4-1.13-1.38-.79" transform="translate(0 -0.53)"/><path class="cls-5" d="M160.4,407.68c.73.12,1-.18.92-.9-.61-.74-1.68.31-.92.9" transform="translate(0 -0.53)"/><path class="cls-5" d="M161,382.84c-2.44,1,1.13,3.75,1.84,1.69a1.34,1.34,0,0,0-1.84-1.69" transform="translate(0 -0.53)"/><path class="cls-5" d="M94.46,362.5a.66.66,0,0,0-1-.67c-1.18.9.87,1.9,1,.67" transform="translate(0 -0.53)"/><path class="cls-5" d="M166.48,388.13c-2.51.65,1.48,3.42,1.26.79a.92.92,0,0,0-1.26-.79" transform="translate(0 -0.53)"/><path class="cls-5" d="M164.3,384a1,1,0,0,0-.69,1.69c.65,1.06,3,.25,2.07-1.35a1.17,1.17,0,0,0-1.38-.34" transform="translate(0 -0.53)"/><path class="cls-5" d="M167.51,386.44c.47,0,.72-.12.69-.56a.49.49,0,1,0-.92.34c.13,0,.18.13.23.22" transform="translate(0 -0.53)"/><path class="cls-5" d="M165.22,382.17c.13,0,.18.13.23.23.47,0,.72-.12.69-.56a.49.49,0,1,0-.92.33" transform="translate(0 -0.53)"/><path class="cls-5" d="M192.74,380.93a.59.59,0,0,0,1.14-.23.59.59,0,0,0-1.14.23" transform="translate(0 -0.53)"/><path class="cls-5" d="M195.15,377.68c-.06-.58-.51-.74-1-.56-1.87.66,1.26,2.55,1,.56" transform="translate(0 -0.53)"/><path class="cls-5" d="M190.1,403.64c1.52-1.49-2.68-2.39-1.37,0a1.21,1.21,0,0,0,1.37,0" transform="translate(0 -0.53)"/><path class="cls-5" d="M192.05,384.31c.73.12,1-.18.92-.9-.6-.75-1.68.31-.92.9" transform="translate(0 -0.53)"/><path class="cls-5" d="M191.25,404a1.27,1.27,0,1,0,2.52-.34c-.09-.65-.51-1.19-1.61-.9-.72.19-1,.44-.92,1.24" transform="translate(0 -0.53)"/><path class="cls-5" d="M177.14,401.84c-.05-.61-.4-1.13-1.37-.79-2.37.83,1.59,3.36,1.37.79" transform="translate(0 -0.53)"/><path class="cls-5" d="M161.21,386.89a.59.59,0,0,0-1.15.22.59.59,0,0,0,1.15-.22" transform="translate(0 -0.53)"/><path class="cls-5" d="M176,404.87c0-.48-.39-.9-1.15-.67-2.23.66,1.38,2.92,1.15.67" transform="translate(0 -0.53)"/><path class="cls-5" d="M193.2,400.6c-.24,1,1.18.5.57-.11a.77.77,0,0,0-.57.11" transform="translate(0 -0.53)"/><path class="cls-5" d="M192.51,410a1.78,1.78,0,0,0,.11,1.91,1.89,1.89,0,0,0,1.95-.11,1.8,1.8,0,0,0-.12-1.91,1.89,1.89,0,0,0-1.95.11" transform="translate(0 -0.53)"/><path class="cls-5" d="M198.82,408.81c-.06-.81-.68-1.06-1.37-.9s-.92.66-.92,1c0,1.43,2.43,1.53,2.29-.11" transform="translate(0 -0.53)"/><path class="cls-5" d="M203.41,369.25a1.43,1.43,0,0,0-1.26.78c-.86,2.3,3,2.67,2.87.45,0-.7-.4-1.37-1.6-1.24" transform="translate(0 -0.53)"/><path class="cls-5" d="M202.6,406.22a1.05,1.05,0,0,0-1.6,1.35,1.68,1.68,0,0,0,1.49.11,1.58,1.58,0,0,0,.11-1.46" transform="translate(0 -0.53)"/><path class="cls-5" d="M202.95,372.73a1.16,1.16,0,0,0-.69.11c-.49.2-.83.3-.57,1.13.6,1.88,2.93-.8,1.26-1.24" transform="translate(0 -0.53)"/><path class="cls-5" d="M210.74,286.75c.74.12,1-.18.92-.9-.6-.75-1.68.31-.92.9" transform="translate(0 -0.53)"/><path class="cls-5" d="M199.62,375.2a.92.92,0,0,0-.62-.61l.38-.22a1.72,1.72,0,0,0,1.85-1.64,1.7,1.7,0,0,0-2.14-1.55,4.42,4.42,0,0,0-1.9-1.55c1,.1,1.52-2.21-.09-1.73a.89.89,0,0,0-.46,1.46.91.91,0,0,0,.24.14,14.29,14.29,0,0,0-4.93-.76c-1.68.95-1.9,3.32-4.46,3.4a6.3,6.3,0,0,1-2.88-1.22c0-.08-.09-.14-.13-.22a.58.58,0,0,0,0-.1,1.49,1.49,0,0,0-1.7-1.25,1.33,1.33,0,0,0-.69.31,5.61,5.61,0,0,0-1.05-.12c-.31-1.07-2.49-1.25-2.27.48,0,0,0,0,0,.08a4.67,4.67,0,0,1-.78,1.1c-.26.16-.49.35-.75.52-.21-2.18-3.8-1-2.52,1-.82,0-1.13.54-1.72.79-.43-2.08-3.57-.46-2.39,1.18-.59.23-1.15.48-1.69.74-1-2.36-3.29.35-2.25,1.4a4.83,4.83,0,0,0-.52.6c-.35.16-.55.49-1.06.8.45-1.7-2.15-2.29-3-1,.43-2.1-2.66-2.26-3.21-.9a4.08,4.08,0,0,0-.12-1.12c-2.29-2.65-4.53,2.71-.92,2.25.45-.12.56-.58,1-.68-.15.9.37,1.14.57,1.69-.52-.1-.65.19-1,.22-2.6,2.28,3.1,4.67,2.64.9-.11-.42-.47-.59-.58-1,.81.19,1.17-.65,1.5-.56,0,1.69,2.42,2,3.09.68.13.68.14,1,.46,1.35a1.3,1.3,0,0,0,1.92.19,13.43,13.43,0,0,0,1.69.57,1.55,1.55,0,0,0,1.22.28,16.78,16.78,0,0,0,2.92.34,13.74,13.74,0,0,0,2.29-.07c1.68-2.73,2.06-6.71,7.92-5.33l5.44-2.43a5,5,0,0,1,2,.26c.28,1.54,1.5,1.38,2.21.66.31.09.61.18.92.26a1.53,1.53,0,0,0,.33,1,1.89,1.89,0,0,0,1.95-.11,1.52,1.52,0,0,0,.18-.52,6.31,6.31,0,0,0,.86-.05,1,1,0,0,0-.12.35c-.3,2.06,2.85,1.62,2.29-.22" transform="translate(0 -0.53)"/><path class="cls-5" d="M204.44,380.26a1,1,0,0,0-1.26-.22c-1.55,1.17,1.81,2.43,1.26.22" transform="translate(0 -0.53)"/><path class="cls-5" d="M201.11,408.92a1.18,1.18,0,0,0-.69.11c-.48.2-.84.3-.57,1.12.6,1.87,2.93-.8,1.26-1.24" transform="translate(0 -0.53)"/><path class="cls-5" d="M212,266c-.05-.61-.4-1.13-1.38-.79-2.37.83,1.59,3.36,1.38.79" transform="translate(0 -0.53)"/><path class="cls-5" d="M200.42,412.29a.89.89,0,0,0-1.37,1.12.89.89,0,0,0,1.38-1.12" transform="translate(0 -0.53)"/><path class="cls-5" d="M204.32,367.11a.63.63,0,0,0,.23,1.23c.91,0,.85-1.68-.23-1.23" transform="translate(0 -0.53)"/><path class="cls-5" d="M208.22,368.24c-.6-.75-1.68.31-.92.9q1.1.18.92-.9" transform="translate(0 -0.53)"/><path class="cls-5" d="M207.76,401.16a1,1,0,0,0-1.15-.34c-.83.22-.84.63-.8,1,.12,1.44,2.9,1,1.94-.67" transform="translate(0 -0.53)"/><path class="cls-5" d="M205.82,283.72a1,1,0,0,0-1.26-.23c-1.56,1.17,1.8,2.44,1.26.23" transform="translate(0 -0.53)"/><path class="cls-5" d="M207.76,371.15a1.14,1.14,0,0,0-1.6-.56.92.92,0,0,0-.68.79c-.31,2.05,2.84,1.62,2.29-.23" transform="translate(0 -0.53)"/><path class="cls-5" d="M182,262.82a1,1,0,0,0-1.26-.22c-1.56,1.17,1.8,2.43,1.26.22" transform="translate(0 -0.53)"/><path class="cls-5" d="M204.44,377.11a.63.63,0,0,0,.23,1.24c.91,0,.85-1.68-.23-1.24" transform="translate(0 -0.53)"/><path class="cls-5" d="M205.82,374.3a.79.79,0,0,0-.58.11c-.24,1,1.18.5.58-.11" transform="translate(0 -0.53)"/><path class="cls-5" d="M190.1,255.4a.89.89,0,0,0-.46,1.46c1.35,1.26,2.36-2,.46-1.46" transform="translate(0 -0.53)"/><path class="cls-5" d="M185.4,318.22c-.35,2.89,4.51,1.26,2.41-.79a1.53,1.53,0,0,0-1.49-.23c-.93.28-.89.76-.93,1" transform="translate(0 -0.53)"/><path class="cls-5" d="M98.82,287.09a.58.58,0,1,0-1.15,0,.62.62,0,0,0,1.15,0" transform="translate(0 -0.53)"/><path class="cls-5" d="M93.89,309.34c.13,0,.18.12.23.23.47,0,.72-.11.69-.56a.49.49,0,1,0-.92.34" transform="translate(0 -0.53)"/><path class="cls-5" d="M95.38,306.76c.91,0,.85-1.68-.22-1.24a.63.63,0,0,0,.22,1.24" transform="translate(0 -0.53)"/><path class="cls-5" d="M191,412.52c-.2-.89-1-1.17-1.95-.9a1.39,1.39,0,0,0-1,.9c-.63,2.78,3.51,2.31,3,0" transform="translate(0 -0.53)"/><path class="cls-5" d="M96.64,290.58A.89.89,0,0,0,98,289.45a.89.89,0,0,0-1.38,1.13" transform="translate(0 -0.53)"/><path class="cls-5" d="M187.58,411.5a1.15,1.15,0,0,0-1.6-.56.93.93,0,0,0-.69.79c-.3,2.05,2.85,1.62,2.29-.23" transform="translate(0 -0.53)"/><path class="cls-5" d="M89.65,321.7A.89.89,0,0,0,91,320.58a.89.89,0,0,0-1.37,1.12" transform="translate(0 -0.53)"/><path class="cls-5" d="M190.91,419.15a1.18,1.18,0,0,0-.69.11c-.48.2-.84.3-.57,1.13.6,1.87,2.93-.8,1.26-1.24" transform="translate(0 -0.53)"/><path class="cls-5" d="M189.19,416.79a1,1,0,0,0-.81-1.69c-2,.36-.24,2.54.81,1.69" transform="translate(0 -0.53)"/><path class="cls-5" d="M96.87,302.71a.56.56,0,0,0-.8.79q1,.19.8-.79" transform="translate(0 -0.53)"/><path class="cls-5" d="M198.59,291.47c-2.23.66,1.38,2.92,1.15.68,0-.49-.4-.9-1.15-.68" transform="translate(0 -0.53)"/><path class="cls-5" d="M197.9,411.84a1.15,1.15,0,0,0-1.61-1c-3.09.84,1.83,4.23,1.61,1" transform="translate(0 -0.53)"/><path class="cls-5" d="M209.37,261.13c-.27.07-.83-.14-.92.11-.44.13-.52.61-.46,1.24.87,1.35,2.75-.49,1.37-1.35" transform="translate(0 -0.53)"/><path class="cls-5" d="M209,289c-.19,2.21,3.15.91,2.06-.56a1.11,1.11,0,0,0-1-.34c-.71.11-1,.54-1,.9" transform="translate(0 -0.53)"/><path class="cls-5" d="M208.68,286a1,1,0,0,0-.8-1.69c-2,.36-.24,2.54.8,1.69" transform="translate(0 -0.53)"/><path class="cls-5" d="M160.29,419.71a.65.65,0,0,0-.92.9.65.65,0,0,0,.92-.9" transform="translate(0 -0.53)"/><path class="cls-5" d="M193.2,415.1a1.21,1.21,0,0,0-.69-2.25c-2.08.28-.85,2.93.69,2.25" transform="translate(0 -0.53)"/><path class="cls-5" d="M205.82,290.46a.89.89,0,0,0-.46,1.46c1.34,1.26,2.35-2,.46-1.46" transform="translate(0 -0.53)"/><path class="cls-5" d="M177.49,406.67c1.35,1.26,2.36-2,.46-1.47a.9.9,0,0,0-.46,1.47" transform="translate(0 -0.53)"/><path class="cls-5" d="M195,417a1.19,1.19,0,0,0-.69.11c-.48.2-.83.3-.57,1.13.6,1.87,2.93-.8,1.26-1.24" transform="translate(0 -0.53)"/><path class="cls-5" d="M161.09,374.41a.65.65,0,0,0,.92-.9.65.65,0,0,0-.92.9" transform="translate(0 -0.53)"/><path class="cls-5" d="M156.28,377.68c-3.32.37.33,4.6,1.49,2a1.44,1.44,0,0,0-1.49-2" transform="translate(0 -0.53)"/><path class="cls-5" d="M153.41,370.82c-.09-.56-.46-1.1-1.49-.79-2.83.86,2,3.83,1.49.79" transform="translate(0 -0.53)"/><path class="cls-5" d="M156,371.49a.73.73,0,0,0-.8-.23c-.75.17-.72.45-.69.79.09,1,2.31.71,1.49-.56" transform="translate(0 -0.53)"/><path class="cls-5" d="M164,375.54a.89.89,0,0,0,1.38-1.13.89.89,0,0,0-1.38,1.13" transform="translate(0 -0.53)"/><path class="cls-5" d="M159.71,383c-.05-.66-.48-1.2-1.49-.9a1,1,0,0,0-.8,1.12,1.15,1.15,0,0,0,2.29-.23" transform="translate(0 -0.53)"/><path class="cls-5" d="M188.73,259.67a.89.89,0,0,0,1.37-1.12.89.89,0,0,0-1.37,1.12" transform="translate(0 -0.53)"/><path class="cls-5" d="M181.73,363.07c-1.87.66,1.26,2.56,1,.56-.07-.58-.52-.74-1-.56" transform="translate(0 -0.53)"/><path class="cls-5" d="M177.14,368.46a.75.75,0,0,0-.57.11c-.24,1,1.18.49.57-.11" transform="translate(0 -0.53)"/><path class="cls-5" d="M168.32,373.4q1,.19.8-.79a.56.56,0,0,0-.8.79" transform="translate(0 -0.53)"/><path class="cls-5" d="M172.44,371.27c.67.13.93-.14.8-.79a.56.56,0,0,0-.8.79" transform="translate(0 -0.53)"/><path class="cls-5" d="M157.54,368.91c-.07-.81-.69-1.05-1.38-.9s-.91.66-.91,1c0,1.43,2.43,1.53,2.29-.11" transform="translate(0 -0.53)"/><path class="cls-5" d="M160.4,344.74c1.83,1.79,3.22-2.55.68-2a1.19,1.19,0,0,0-.68,2" transform="translate(0 -0.53)"/><path class="cls-5" d="M163.15,340.7a.73.73,0,0,0-1.15-.56c-1.67.81,1.39,2.5,1.15.56" transform="translate(0 -0.53)"/><path class="cls-5" d="M159,372.62c-.6-.75-1.68.31-.92.9.73.12,1-.18.92-.9" transform="translate(0 -0.53)"/><path class="cls-5" d="M165,340.7c-2.83.86,2,3.82,1.49.78-.09-.56-.46-1.1-1.49-.78" transform="translate(0 -0.53)"/><path class="cls-5" d="M157.76,365.54a.65.65,0,0,0-.92.9.65.65,0,0,0,.92-.9" transform="translate(0 -0.53)"/><path class="cls-5" d="M150.65,374.64a1.55,1.55,0,0,0,1.14,0,1.43,1.43,0,0,0,0-1.12.81.81,0,0,0-1.14,1.12" transform="translate(0 -0.53)"/><path class="cls-5" d="M153.64,367.11a1.17,1.17,0,0,0-.69.11c-.48.2-.83.3-.57,1.12.6,1.88,2.92-.8,1.26-1.23" transform="translate(0 -0.53)"/><path class="cls-5" d="M154.9,375.09a.57.57,0,1,0-1.15,0,.61.61,0,0,0,1.15,0" transform="translate(0 -0.53)"/><path class="cls-5" d="M189.3,365.65c-.07-.81-.69-1.06-1.38-.9s-.92.65-.92,1c0,1.43,2.43,1.53,2.3-.11" transform="translate(0 -0.53)"/><path class="cls-5" d="M184.37,313.5c-2.83.86,2,3.83,1.49.79-.08-.56-.46-1.1-1.49-.79" transform="translate(0 -0.53)"/><path class="cls-5" d="M202,376.33a.56.56,0,0,0-.8.79c.66.13.94-.13.8-.79" transform="translate(0 -0.53)"/><path class="cls-5" d="M199.16,382.51c-.24,1,1.18.49.57-.11a.77.77,0,0,0-.57.11" transform="translate(0 -0.53)"/><path class="cls-5" d="M201.57,369.47c-.08-.56-.46-1.1-1.49-.79-2.83.86,2,3.83,1.49.79" transform="translate(0 -0.53)"/><path class="cls-5" d="M201.92,346.21c-.61-.74-1.68.3-.92.9.73.12,1-.18.92-.9" transform="translate(0 -0.53)"/><path class="cls-5" d="M185.4,320.81c-1.66.81,1.4,2.5,1.15.56a.73.73,0,0,0-1.15-.56" transform="translate(0 -0.53)"/><path class="cls-5" d="M199.85,350a.65.65,0,0,0,.92-.9.65.65,0,0,0-.92.9" transform="translate(0 -0.53)"/><path class="cls-5" d="M201.23,379.81a.66.66,0,0,0-1-.68c-1.18.9.86,1.9,1,.68" transform="translate(0 -0.53)"/><path class="cls-5" d="M166.94,339.35a1.49,1.49,0,0,0,0-1.12c-.84-.46-1.62.3-1.15,1.12a1.56,1.56,0,0,0,1.15,0" transform="translate(0 -0.53)"/><path class="cls-5" d="M182.19,309.57c-2.36.83,1.6,3.36,1.38.79-.05-.61-.4-1.13-1.38-.79" transform="translate(0 -0.53)"/><path class="cls-5" d="M194.23,366.88c-2.45.47,1.27,3,1,.68,0-.43-.34-.81-1-.68" transform="translate(0 -0.53)"/><path class="cls-5" d="M186.32,365.31a1.34,1.34,0,0,0-1.84-1.68c-2.44,1,1.13,3.75,1.84,1.68" transform="translate(0 -0.53)"/><path class="cls-5" d="M190.91,367.22c.73.12,1-.18.91-.9-.6-.74-1.68.31-.91.9" transform="translate(0 -0.53)"/><path class="cls-5" d="M183.68,368.24q1,.19.8-.79a.56.56,0,0,0-.8.79" transform="translate(0 -0.53)"/><path class="cls-5" d="M197,347.22c-2.08.36-1.1,2.89.34,2.81,1.87-.11,1.85-3.19-.34-2.81" transform="translate(0 -0.53)"/><path class="cls-5" d="M197.33,351.15a1.14,1.14,0,0,0-1.6-.56.92.92,0,0,0-.69.79c-.3,2.05,2.85,1.62,2.3-.23" transform="translate(0 -0.53)"/><path class="cls-5" d="M188.15,368.68c0-.61-.4-1.13-1.37-.79-2.37.83,1.6,3.36,1.38.79" transform="translate(0 -0.53)"/><path class="cls-5" d="M200.42,339.13a.75.75,0,0,0-.57.11c-.24,1,1.18.49.57-.11" transform="translate(0 -0.53)"/><path class="cls-5" d="M196.87,337.89c-1.67.81,1.39,2.5,1.14.56a.73.73,0,0,0-1.14-.56" transform="translate(0 -0.53)"/><path class="cls-5" d="M198.93,341.37c-3.1.84,1.82,4.23,1.61,1a1.14,1.14,0,0,0-1.61-1" transform="translate(0 -0.53)"/><path class="cls-5" d="M148.82,406.11a1.23,1.23,0,0,0-1.61-1.13c-1,.18-1.19.74-1.14,1.35.1,1.59,2.88,1.68,2.75-.22" transform="translate(0 -0.53)"/><path class="cls-5" d="M141.13,404.65c.32.08.23-.22.46-.22a.35.35,0,1,0-.69,0c.13,0,.18.13.23.22" transform="translate(0 -0.53)"/><path class="cls-5" d="M149.62,369.7a.56.56,0,0,0-.8.79c.67.13.93-.13.8-.79" transform="translate(0 -0.53)"/><path class="cls-5" d="M148.48,372.17a1.17,1.17,0,0,0-.69.11c-.49.2-.83.31-.57,1.12.6,1.87,2.93-.8,1.26-1.24" transform="translate(0 -0.53)"/><path class="cls-5" d="M141.94,384.08c-.07-.58-.51-.74-1-.56-1.87.66,1.27,2.55,1,.56" transform="translate(0 -0.53)"/><path class="cls-5" d="M148,403.86c.93.21,1.23-.57.92-1.24a.77.77,0,1,0-.92,1.24" transform="translate(0 -0.53)"/><path class="cls-5" d="M146.87,388.8c-.6-.74-1.68.31-.92.9.73.12,1-.18.92-.9" transform="translate(0 -0.53)"/><path class="cls-5" d="M145.61,391.27a1.15,1.15,0,0,0-.69.11c-.48.2-.84.3-.57,1.12.6,1.88,2.92-.8,1.26-1.23" transform="translate(0 -0.53)"/><path class="cls-5" d="M147.33,378.69a1.14,1.14,0,0,0-1.6-.56.92.92,0,0,0-.69.79c-.3,2.05,2.85,1.62,2.29-.23" transform="translate(0 -0.53)"/><path class="cls-5" d="M148.13,375.43a1.15,1.15,0,0,0-1.84,1.35,1.45,1.45,0,0,0,1.72.11,1.59,1.59,0,0,0,.12-1.46" transform="translate(0 -0.53)"/><path class="cls-5" d="M155.7,412.85c.9,0,.85-1.68-.23-1.24a.63.63,0,0,0,.23,1.24" transform="translate(0 -0.53)"/><path class="cls-5" d="M150.2,409.82a.73.73,0,0,0-.8-.23c-.75.17-.72.46-.69.79.1,1,2.31.71,1.49-.56" transform="translate(0 -0.53)"/><path class="cls-5" d="M143.43,401.16c-.07-.81-.68-1.06-1.38-.9s-.92.65-.92,1c0,1.43,2.43,1.53,2.29-.11" transform="translate(0 -0.53)"/><path class="cls-5" d="M156.28,381.95c-.07-.58-.52-.74-1-.56-1.87.66,1.26,2.55,1,.56" transform="translate(0 -0.53)"/><path class="cls-5" d="M153.41,411.05a.73.73,0,0,0-1.14-.56c-1.67.81,1.39,2.5,1.14.56" transform="translate(0 -0.53)"/><path class="cls-5" d="M150.31,406a1.3,1.3,0,0,0,.23,2.59c1.63,0,1.85-3-.23-2.59" transform="translate(0 -0.53)"/><path class="cls-5" d="M146.41,401.73a1.14,1.14,0,0,0-1.6-.56.93.93,0,0,0-.69.79c-.3,2.05,2.85,1.62,2.29-.22" transform="translate(0 -0.53)"/><path class="cls-5" d="M145,406a1,1,0,0,0-.8-1.68c-2,.36-.24,2.54.8,1.68" transform="translate(0 -0.53)"/><path class="cls-5" d="M159.37,412.74a.73.73,0,0,0-.8-.22c-.75.17-.72.45-.69.78.1,1,2.32.71,1.49-.56" transform="translate(0 -0.53)"/><path class="cls-5" d="M146.64,408.92a.77.77,0,0,0-.57.11c-.25,1,1.18.49.57-.11" transform="translate(0 -0.53)"/><path class="cls-5" d="M141.83,380.6a.63.63,0,0,0,.23,1.24c.91,0,.85-1.68-.23-1.24" transform="translate(0 -0.53)"/><path class="cls-5" d="M120.38,271.24q1.1.18.92-.9c-.6-.75-1.68.31-.92.9" transform="translate(0 -0.53)"/><path class="cls-5" d="M121.53,296.76c-.64.22-1,.5-.8,1.46a1.31,1.31,0,0,0,2.53-.67c-.11-.58-.58-1.17-1.72-.79" transform="translate(0 -0.53)"/><path class="cls-5" d="M123.14,302.49a1.44,1.44,0,0,0,1.72.11,1.59,1.59,0,0,0,.12-1.46,1.14,1.14,0,0,0-1.83,1.35" transform="translate(0 -0.53)"/><path class="cls-5" d="M144.12,395.54c.31.08.23-.22.46-.23a.35.35,0,1,0-.69,0c.13,0,.18.13.23.23" transform="translate(0 -0.53)"/><path class="cls-5" d="M124.4,268c-1.56,1.17,1.81,2.44,1.26.23a1,1,0,0,0-1.26-.23" transform="translate(0 -0.53)"/><path class="cls-5" d="M122,405a1.34,1.34,0,0,0-1.84-1.68c-2.44,1,1.13,3.75,1.84,1.68" transform="translate(0 -0.53)"/><path class="cls-5" d="M127.95,298.67c-.72.15-1,.55-1,1.13,0,1.79,2.63,1.49,2.53-.11,0-.68-.51-1.22-1.49-1" transform="translate(0 -0.53)"/><path class="cls-5" d="M123.47,298.22c-.82,3.16,3.87,2.53,3.21,0a1.59,1.59,0,0,0-2.18-.9,1.47,1.47,0,0,0-1,.9" transform="translate(0 -0.53)"/><path class="cls-5" d="M165.45,344.63c0-.61-.4-1.13-1.37-.79-2.37.83,1.59,3.36,1.37.79" transform="translate(0 -0.53)"/><path class="cls-5" d="M119.35,300.92c0,2.12,3.32,2,3.21-.11a1.43,1.43,0,0,0-1.83-1.35c-.89.14-1.38.6-1.38,1.46" transform="translate(0 -0.53)"/><path class="cls-5" d="M142.63,378.35c.13,0,.18.13.23.22.47,0,.72-.11.69-.56a.49.49,0,1,0-.92.34" transform="translate(0 -0.53)"/><path class="cls-5" d="M157.88,409a1.14,1.14,0,0,0-1.6-1c-3.1.84,1.82,4.23,1.6,1" transform="translate(0 -0.53)"/><path class="cls-5" d="M142.74,385.21c.1,1.59,2.88,1.68,2.75-.23a1.22,1.22,0,0,0-1.6-1.12c-1,.18-1.19.74-1.15,1.35" transform="translate(0 -0.53)"/><path class="cls-5" d="M143.66,398.8a1.14,1.14,0,0,0,.11-1,1.2,1.2,0,0,0-1-.11.73.73,0,0,0,.92,1.12" transform="translate(0 -0.53)"/><path class="cls-5" d="M154.67,407.79a1.15,1.15,0,0,0-1.61-.56.92.92,0,0,0-.69.79c-.3,2.05,2.85,1.62,2.29-.22" transform="translate(0 -0.53)"/><path class="cls-5" d="M144.46,388.69a1.33,1.33,0,0,0-1.83-1.68c-2.44,1,1.13,3.75,1.83,1.68" transform="translate(0 -0.53)"/><path class="cls-5" d="M144.35,375.32v-.45h-.46c-.09.39.06.54.46.45" transform="translate(0 -0.53)"/><path class="cls-5" d="M143.08,390.49a1.14,1.14,0,0,0-1.83,1.35,1.44,1.44,0,0,0,1.72.11,1.58,1.58,0,0,0,.12-1.46" transform="translate(0 -0.53)"/><path class="cls-5" d="M143.89,382.51a1.3,1.3,0,0,0,2.52-.67c-.11-.58-.58-1.17-1.72-.79-.64.22-1,.5-.8,1.46" transform="translate(0 -0.53)"/><path class="cls-6" d="M23.54,494.25V443.09H35.62v40.7H51.4v10.45H23.54M144.6,453.17V443.09H107.52v10.08h12.54v41.08h12V453.17Zm50.93,41.08V443.09H183.46v19.63H164.34V443.09H152.26v51.15h12.08V473h19.12v21.29Zm42,0V484.09H220.21V472.8h16.42v-9.62H220.21V453h17.34v-9.92H208.15v51.15Zm25.94-41.83c5.64,0,8.05,2.43,8.05,6.44,0,4.32-3.25,7-8.36,7a29.7,29.7,0,0,1-3-.16V452.56c.69-.07,2.09-.15,3.33-.15m24.23,41.83L276.88,477.8c-1.16-1.91-2.55-3.79-4-5.76a14.54,14.54,0,0,0,11.31-14.18c0-10.82-7.44-15.15-19.74-15.15-6.27,0-11.92.09-16.33.39v51.15h12.08v-20h.69l12.15,20Zm-209.15,1c13.85,0,22.14-6.67,22.14-21.07V443.09H88.79v31.76c0,7.65-2.64,10.45-9.45,10.45-7.43,0-9.36-3.79-9.36-9.77V443.09H57.91v33.12c0,10.23,4,19,20.66,19" transform="translate(0 -0.53)"/><path class="cls-4" d="M40.83,65.52l-.89-6H29.14l-3.18,6H21.4l14.75-27.2h4.8l4.51,27.2H40.83M38,47.06c-.2-1.25-.32-2.58-.4-3.75h-.08c-.48,1.13-1,2.42-1.73,3.71l-4.88,9h8.54Z" transform="translate(0 -0.53)"/><path class="cls-4" d="M78.87,65.52H74.39L75,51.17c.08-2.58.24-4.71.4-6.77h0A55.25,55.25,0,0,1,73,49.72l-8,15.8H60.57L58.64,50.81a52.53,52.53,0,0,1-.48-6.41h0c-.61,2.26-1.29,4.51-2.06,7.05L51.67,65.52H47.15l9.15-27.2h5L63.43,54a45.32,45.32,0,0,1,.4,5.56h.08c.69-1.73,1.53-3.51,2.5-5.4L74.6,38.31h5.32l-1,27.2" transform="translate(0 -0.53)"/><path class="cls-4" d="M108.45,65.52l-.89-6H96.76l-3.18,6H89l14.75-27.2h4.8l4.51,27.2h-4.63m-2.82-18.46c-.2-1.25-.32-2.58-.4-3.75h-.08c-.48,1.13-1,2.42-1.73,3.71l-4.88,9h8.54Z" transform="translate(0 -0.53)"/><path class="cls-4" d="M137.38,65.52h-5l-6.17-15.27a55.73,55.73,0,0,1-2-5.84c-.36,2.9-.89,6-1.49,9.07l-2.26,12h-4.19l5.16-27.2h5.08l6.09,14.75c.81,2.05,1.49,4.19,2.1,6.16.4-2.7.93-6,1.49-9l2.18-11.93h4.23l-5.2,27.2" transform="translate(0 -0.53)"/><polyline class="cls-4" points="161.6 41.49 152.05 41.49 150.52 49.47 159.59 49.47 158.9 53.06 149.84 53.06 147.58 64.99 143.27 64.99 148.43 37.79 162.33 37.79 161.6 41.49"/><path class="cls-4" d="M176.55,65.52l-.89-6h-10.8l-3.18,6h-4.55l14.75-27.2h4.79l4.51,27.2h-4.63m-2.82-18.46c-.2-1.25-.32-2.58-.4-3.75h-.08c-.48,1.13-1,2.42-1.73,3.71l-4.88,9h8.54Z" transform="translate(0 -0.53)"/><path class="cls-4" d="M205.49,65.52h-5l-6.16-15.27a55.29,55.29,0,0,1-2-5.84c-.36,2.9-.89,6-1.49,9.07l-2.26,12h-4.19l5.16-27.2h5.08l6.09,14.75c.81,2.05,1.49,4.19,2.1,6.16.4-2.7.93-6,1.49-9l2.18-11.93h4.23l-5.2,27.2" transform="translate(0 -0.53)"/><path class="cls-4" d="M235.67,43.23a17.62,17.62,0,0,0-6.77-1.45c-7.29,0-12,6.08-12,13.22,0,3.55,1.93,7,7.29,7a16,16,0,0,0,4.6-.68l1.89-9.83h4.31l-2.5,12.85a27.36,27.36,0,0,1-9.07,1.57c-7.62,0-11.2-4.31-11.2-10.44,0-10.2,7.42-17.53,17.17-17.53A25.76,25.76,0,0,1,237,39l-1.29,4.19" transform="translate(0 -0.53)"/><path class="cls-4" d="M46.71,99.52H41.39l-1.33-16.8a43.12,43.12,0,0,1,0-5.12h0a42.75,42.75,0,0,1-1.93,5l-7.7,16.89H25.23l-1.69-27.2h4.39l1,16.56a46.65,46.65,0,0,1,0,5.32h0c.65-1.73,1.29-3.51,2.06-5.2l7.7-16.68h4.76L45,89a41.77,41.77,0,0,1,.08,5.08h0c.56-1.69,1.13-3.18,1.81-4.8l7.42-17h4.51L46.71,99.52" transform="translate(0 -0.53)"/><path class="cls-4" d="M71.54,99.52l-.89-6H59.85l-3.18,6H52.11l14.75-27.2h4.8l4.51,27.2H71.54M68.71,81.06c-.2-1.25-.32-2.58-.4-3.75h-.08c-.48,1.13-1,2.42-1.73,3.71l-4.88,9h8.54Z" transform="translate(0 -0.53)"/><path class="cls-4" d="M90.8,87.27c.57,1,1,1.93,1.53,2.94l5,9.31H92.17l-5.8-11.77h-.48L83.67,99.52H79.35l5.16-27.2c2-.12,4.19-.16,7-.16,5.72,0,8.26,2.22,8.26,6.08,0,5-4,8.22-8.95,9m0-11.53c-1.09,0-2,0-2.62.08l-1.61,8.62c.4,0,1.09.08,2,.08,3.79,0,6.69-2.1,6.69-5.56C95.19,76.79,93.9,75.74,90.76,75.74Z" transform="translate(0 -0.53)"/><path class="cls-4" d="M116.31,99.68c-3.06,0-5.2-.12-7.29-.16l5.16-27.16c2.1,0,5.32-.16,8.14-.16,8.06,0,11.57,3.75,11.57,9.83,0,9-5.68,17.65-17.57,17.65m5.32-23.86c-1.49,0-2.9,0-3.83.12L114,95.73a25.12,25.12,0,0,0,2.9.2c9,0,12.33-7.54,12.33-13.46C129.24,78.56,127.43,75.82,121.63,75.82Z" transform="translate(0 -0.53)"/><path class="cls-4" d="M150.64,99.52l-.89-6H139l-3.18,6h-4.55L146,72.31h4.8l4.51,27.2h-4.63m-2.82-18.46c-.2-1.25-.32-2.58-.4-3.75h-.08c-.48,1.13-1,2.42-1.73,3.71l-4.88,9h8.54Z" transform="translate(0 -0.53)"/><path class="cls-4" d="M174.5,76.18a12.65,12.65,0,0,0-3.79-.64c-3.83,0-5.44,2.05-5.44,4.07,0,4.55,8.1,4.67,8.1,11.16,0,5.16-4.55,9.15-11,9.15a16.29,16.29,0,0,1-4.71-.56l.81-4.19a11.34,11.34,0,0,0,4.23.89c3.87,0,6-1.77,6-4.55,0-4.35-8-4.39-8-10.88,0-4.72,3.55-8.71,10.32-8.71a22.39,22.39,0,0,1,4.27.36l-.77,3.91" transform="translate(0 -0.53)"/><path class="cls-4" d="M209.88,99.52h-5.32l-1.33-16.8a43.13,43.13,0,0,1,0-5.12h0a43.11,43.11,0,0,1-1.94,5l-7.7,16.89H188.4l-1.69-27.2h4.39l1,16.56a47.12,47.12,0,0,1,0,5.32h0c.64-1.73,1.29-3.51,2.06-5.2l7.7-16.68h4.76L208.15,89a41.76,41.76,0,0,1,.08,5.08h0c.56-1.69,1.13-3.18,1.81-4.8l7.41-17H222l-12.13,27.2" transform="translate(0 -0.53)"/><path class="cls-4" d="M229.75,99.92c-6.69,0-9.87-3.71-9.87-9.91,0-9.83,6.81-18.09,15.72-18.09,6.45,0,9.91,3.59,9.91,9.91,0,10.4-7.09,18.09-15.76,18.09m5.16-24.14c-6.17,0-10.36,6.41-10.36,13.54,0,4.15,2,6.69,5.8,6.69,5.88,0,10.52-6.13,10.52-13.7C240.88,78.36,239,75.78,234.91,75.78Z" transform="translate(0 -0.53)"/><path class="cls-4" d="M257.56,87.27c.56,1,1,1.93,1.53,2.94l5,9.31h-5.12l-5.8-11.77h-.48l-2.22,11.77h-4.31l5.16-27.2c2-.12,4.19-.16,7-.16,5.72,0,8.26,2.22,8.26,6.08,0,5-4,8.22-8.95,9m0-11.53c-1.09,0-2,0-2.62.08l-1.61,8.62c.4,0,1.09.08,2,.08,3.79,0,6.69-2.1,6.69-5.56C262,76.79,260.66,75.74,257.52,75.74Z" transform="translate(0 -0.53)"/><polyline class="cls-4" points="287.86 75.5 280.52 75.5 276.05 98.99 271.74 98.99 276.21 75.5 268.88 75.5 269.56 71.79 288.54 71.79 287.86 75.5"/></svg>