<svg id="Ebene_1" data-name="Ebene 1" xmlns="http://www.w3.org/2000/svg" width="259.56" height="85.34" viewBox="0 0 259.56 85.34"><defs><style>.cls-1{stroke:#000;stroke-miterlimit:10;stroke-width:0.5px;}</style></defs><title>ticket_header</title><path class="cls-1" d="M98.31,16a4.61,4.61,0,0,0,1.56-2.89q0-1.3-1.68-1.95a4,4,0,0,0-1-.29,6.94,6.94,0,0,0-.84-.06,10.48,10.48,0,0,0-2.21,0,13.44,13.44,0,0,0-2.15.41Q83.59,14,73.24,34.33a88.29,88.29,0,0,0-5.36,11.86,26.22,26.22,0,0,0-1.75,8.2,9.64,9.64,0,0,0,.75,3,8.12,8.12,0,0,1,.81,2.83c0,.35-.31.61-.94.77s-1.14-.26-1.93-1.12a8,8,0,0,1-2.74-6,23.37,23.37,0,0,1,.19-3,25.31,25.31,0,0,1,.59-3.07,31.66,31.66,0,0,1,1.06-3.33q.65-1.74,1.53-3.81,1.25-2.83,2.53-5.25T70.5,31a75.81,75.81,0,0,1,9-11.95,33.77,33.77,0,0,1,9.17-7.11,24.3,24.3,0,0,0-6.24,2.65,73.43,73.43,0,0,0-10,7.4A105.19,105.19,0,0,0,63,31.5q-3,3.36-7.45,9.17T44.87,54.87q.37-2.07,1.12-5t2-6.64q1.18-3.89,2-6.79t1.18-4.72q2.49-12.8,12-17.94a1.51,1.51,0,0,0-.5-.12h-.31a16.25,16.25,0,0,0-9.67,5.07,39.15,39.15,0,0,0-2.77,4q-1.9,3-4.71,8.05L40.5,39.35q-6.67,12-12.29,15.16-5,2.71-13.72,2.71Q3,57.23,2.21,47.43a9.44,9.44,0,0,1,4.05-8.61A13.62,13.62,0,0,1,16,36.1q10.35.77,11.23,8.38L26.1,43.07A11.24,11.24,0,0,0,16,38.23a12.86,12.86,0,0,0-7.61,2.48A8.64,8.64,0,0,0,5.74,43.6,6.73,6.73,0,0,0,5,47.32q.31,8.44,10.66,8.61,9.73-1,18-12,3-4.13,5.21-7.32T42.37,31q2.43-4.43,4.33-7.32t3.15-4.42Q55.22,13,60.77,12.74A83.27,83.27,0,0,0,31.21,8.49q-10.1.3-10.1,8.85a7.63,7.63,0,0,0,3.55,6.55A13.91,13.91,0,0,0,32.46,26q6.67-.18,9.92-5.13l1-1.53q-.56,7.73-10.85,8.79-.62.06-1.06.06h-.62A13.27,13.27,0,0,1,22,25.31a9.36,9.36,0,0,1-3.55-8.08Q18.68,7.2,32,6.78a75.19,75.19,0,0,1,10.38.68q5.77.74,12.75,2.33a37,37,0,0,1,4.55,1.45q2.37.92,5.05,2.21.44.12.19.53l-.16.18a2.29,2.29,0,0,1-.22.24q-3.62.47-6.24,8.85a6.52,6.52,0,0,1-.37,1.62q-.44,1.5-1.19,3.72T55,33.36q-.94,2.57-1.81,4.9t-1.56,4.07q-.69,1.74-.94,2.27,3.49-4.72,6.17-8.23t4.74-5.87a84.75,84.75,0,0,1,9.42-9.35,80.41,80.41,0,0,1,10.41-7.46q1.06-.59,2.4-1.18T87,11.33A23.71,23.71,0,0,1,95.69,10q4.74.41,4.74,2.6Q100.43,14,98.31,16Z" transform="translate(-1.93 -0.63)"/><path class="cls-1" d="M95.38,50.09Q92.76,53.81,90,53.8q-3.62,0-4-3.3a10.09,10.09,0,0,1-6.49,2.83q-4.55,0-4.55-5.31,0-6.2,5.86-11.74,3.74-3.54,7.42-3.54a3.86,3.86,0,0,1,4.18,3l.37-.35a6,6,0,0,1,4.61-1.06q-2.81,4.07-4.71,7.43a48.12,48.12,0,0,0-3,6.08q-1.25,3.07-.75,4.25a.93.93,0,0,0,.94.65q2.68,0,8.67-9a.54.54,0,0,1,.87-.06.56.56,0,0,1,0,.88ZM87.65,34.16q-2.43,0-5.05,3.36-4.8,6-4.8,11.39,0,3,2.18,3,4.24,0,7.73-8.5a17.71,17.71,0,0,0,1.68-6.67Q89.4,34.16,87.65,34.16Z" transform="translate(-1.93 -0.63)"/><path class="cls-1" d="M113.34,43.6l-.56,1.12q-.5,1-1.37,2.89Q91.58,85.72,66.88,85.72q-13,0-13.78-9.79A9.33,9.33,0,0,1,57,67.43a13.89,13.89,0,0,1,9.54-2.77q10.17.77,11,7.67a4.91,4.91,0,0,0-.81-1.18q-3.24-4.9-10.23-4.6A13,13,0,0,0,58.9,69,8.47,8.47,0,0,0,56.25,72a7,7,0,0,0-.78,3.78,8.08,8.08,0,0,0,3.12,6.46A12,12,0,0,0,66,84.43Q80.1,84.19,91.76,70.5a96.62,96.62,0,0,0,6.11-8q2.93-4.25,5.86-9a7.61,7.61,0,0,1-2.43.47q-4.61,0-4.61-5.31,0-6.19,6-11.8,3.93-3.6,7.3-3.6,4.61,0,4.61,5.31A12.4,12.4,0,0,1,113.34,43.6Zm-3.93-8.85q-2.24,0-5.05,3.36a26.88,26.88,0,0,0-3.49,5.81,14.1,14.1,0,0,0-1.18,5.52q0,3,2.18,2.95a5,5,0,0,0,3.43-1.59q2.81-4.78,5.43-10.09a11.53,11.53,0,0,0,.56-3.36Q111.28,34.75,109.41,34.75Z" transform="translate(-1.93 -0.63)"/><path class="cls-1" d="M184.31,19.17a13,13,0,0,1-9.54,2.66q-10.17-.65-11-7.61a4.42,4.42,0,0,0,.75,1.18,12.27,12.27,0,0,0,10.23,4.66,13.89,13.89,0,0,0,4.15-.71,13.19,13.19,0,0,0,3.52-1.83,9.2,9.2,0,0,0,2.65-3,6.74,6.74,0,0,0,.78-3.72,8.17,8.17,0,0,0-3.09-6.52,11.68,11.68,0,0,0-7.45-2.15q-14.53.18-27.69,16.11Q140.47,27,132.49,42.12a20.35,20.35,0,0,1-1.62,3.6q-.19.65-.53,1.56a20.21,20.21,0,0,0-.65,2.15q-.31,2.42,1.12,3.19,2.87-.65,8.29-8.85.44-.47.75-.06.56.41.13.88l-4.12,5.49q-2.74,3.72-5.36,3.72-3.37,0-3.93-2.95Q123.13,54,119.76,54q-4.62,0-4.61-5.31,0-6.19,5.92-11.8,3.8-3.6,7.36-3.6A4.09,4.09,0,0,1,132.17,35Q151.13.88,174.46.88q13.22,0,13.84,9.79A9.31,9.31,0,0,1,184.31,19.17ZM127.87,34.75q-2.24,0-5.05,3.36a26.86,26.86,0,0,0-3.49,5.81,14.1,14.1,0,0,0-1.19,5.52q0,3,2.06,2.95,3.74,0,7-6.84a24.3,24.3,0,0,1,.81-2.39q.5-1.27,1.12-2.63a12.86,12.86,0,0,0,.5-3.19Q129.68,34.75,127.87,34.75Z" transform="translate(-1.93 -0.63)"/><path class="cls-1" d="M158,50.09q-2.62,3.72-5.43,3.72-3.62,0-4-3.3a10.09,10.09,0,0,1-6.49,2.83q-4.55,0-4.55-5.31,0-6.2,5.86-11.74,3.74-3.54,7.42-3.54a3.86,3.86,0,0,1,4.18,3l.37-.35A6,6,0,0,1,160,34.33q-2.81,4.07-4.71,7.43a48.12,48.12,0,0,0-3,6.08q-1.25,3.07-.75,4.25a.93.93,0,0,0,.94.65q2.68,0,8.67-9a.54.54,0,0,1,.87-.06.56.56,0,0,1,0,.88Zm-7.73-15.93q-2.43,0-5.05,3.36-4.8,6-4.8,11.39,0,3,2.18,3,4.24,0,7.73-8.5A17.71,17.71,0,0,0,152,36.69Q152,34.16,150.26,34.16Z" transform="translate(-1.93 -0.63)"/><path class="cls-1" d="M216.36,19.88a13.45,13.45,0,0,1-9.6,2.66q-10.17-.53-11-7.61c.17.32.31.57.44.77l.31.47a12,12,0,0,0,10.23,4.6,14.76,14.76,0,0,0,4.21-.68,12.56,12.56,0,0,0,3.52-1.8A7.91,7.91,0,0,0,218,11.56,8.39,8.39,0,0,0,214.87,5a11.77,11.77,0,0,0-7.55-2.15q-14.47.18-27.69,16.22a103,103,0,0,0-8.51,12q-4.27,6.93-8.7,16a12.25,12.25,0,0,0-.75,3.72q0,1.95,1.56,1.95t4.05-2.66l1.37-1.71q1.18-1.47,3.37-4.31.5-.53.87-.18a.32.32,0,0,1,.25.35.5.5,0,0,1-.19.35,26,26,0,0,1-4.3,5.66Q165.16,54,162.86,54a3.69,3.69,0,0,1-3-1.36,4.73,4.73,0,0,1-1-3.25,14.12,14.12,0,0,1,.78-4.25A33,33,0,0,1,162,39.7Q181.81,1.59,206.57,1.59q13.1,0,13.72,9.79A9,9,0,0,1,216.36,19.88Z" transform="translate(-1.93 -0.63)"/><path class="cls-1" d="M189.73,44.42l-.12.24q-5.93,9.2-11.54,9.2a5.46,5.46,0,0,1-4.43-1.95,7,7,0,0,1-1.62-4.6q0-6.08,7-11.21,3.3-2.42,5.8-2.42,3.18,0,3.18,2.83t-5.67,5.84q-1.12.65-2.59,1.56t-3.21,2.15q-.94.88-.94,3.83t2.49,3q4.3,0,9.17-6.9l1.87-2.42q.69,0,.69.65A.44.44,0,0,1,189.73,44.42Zm-3.24-8.67q-.06.18-.56-.83a.79.79,0,0,1-.44-.18.86.86,0,0,0-.5-.18q-1.68,0-4.68,4.19a21.35,21.35,0,0,0-3.24,5.66q1.43-.88,3.4-2.3t4.46-3.48A6.2,6.2,0,0,0,186.49,35.75Z" transform="translate(-1.93 -0.63)"/><path class="cls-1" d="M202.58,54.22Q199,54.22,199,51a9.54,9.54,0,0,1,.25-2.77,28.77,28.77,0,0,0,4.3-11q.5-2.54-1.5-2.54-3.31,0-7.67,6-1.19,2.24-2.87,5.6t-4.05,7.91q-.69,0-1.12-1.06a29.15,29.15,0,0,1,.75-4.78,8.79,8.79,0,0,1,.65-1.71q.53-1.12,1.4-2.77h-.06a31.4,31.4,0,0,1,2.06-3.36,8.36,8.36,0,0,0,1.37-3,4.49,4.49,0,0,0-1-2.42.19.19,0,0,1-.12-.18q0-.88,4.61-.88a4,4,0,0,0-.16.94c0,.35-.07.79-.16,1.3q3.74-3,7.23-3,3.93,0,3.93,4,0,3.42-3.49,10.44a.72.72,0,0,1-.25.53,14.47,14.47,0,0,0-1.43,3.66.71.71,0,0,0,.13.71q.06.59.81.59,2.49,0,9.92-9a.52.52,0,0,1,.87,0,.75.75,0,0,1,0,.83Q205.57,54.22,202.58,54.22Z" transform="translate(-1.93 -0.63)"/><path class="cls-1" d="M231.33,50.09q-2.62,3.72-5.43,3.72-3.62,0-4-3.3a10.09,10.09,0,0,1-6.49,2.83q-4.55,0-4.55-5.31,0-6.2,5.86-11.74,3.74-3.54,7.42-3.54a3.86,3.86,0,0,1,4.18,3l.37-.35a6,6,0,0,1,4.61-1.06q-2.81,4.07-4.71,7.43a48.12,48.12,0,0,0-3,6.08q-1.25,3.07-.75,4.25a.93.93,0,0,0,.94.65q2.68,0,8.67-9a.54.54,0,0,1,.87-.06.56.56,0,0,1,0,.88Zm-7.73-15.93q-2.43,0-5.05,3.36-4.8,6-4.8,11.39,0,3,2.18,3,4.24,0,7.73-8.5a17.71,17.71,0,0,0,1.68-6.67Q225.34,34.16,223.59,34.16Z" transform="translate(-1.93 -0.63)"/><path d="M112,65.83h8.84q.3-1.6.44-2.7a13.94,13.94,0,0,0,.15-1.74,4.58,4.58,0,0,0,0-.67,5.91,5.91,0,0,0-.13-.63,7.25,7.25,0,0,1,.91-.38,2.27,2.27,0,0,1,.7-.12.7.7,0,0,1,.57.24,1,1,0,0,1,.2.68,13.88,13.88,0,0,1-.4,2.17q-.26,1.17-.41,1.89-.57,2.6-.88,4.68a23,23,0,0,0-.31,3.11,5.12,5.12,0,0,0,0,.62c0,.23.08.51.15.86a6.76,6.76,0,0,1-.95.38,2.52,2.52,0,0,1-.71.12.74.74,0,0,1-.6-.24,1.05,1.05,0,0,1-.21-.7,19.12,19.12,0,0,1,.46-2.46q.46-2.07.75-3.73h-8.85q-.36,1.89-.55,3.25a16.19,16.19,0,0,0-.19,2,4,4,0,0,0,.05.62q.05.34.14.73a6.33,6.33,0,0,1-.94.38,2.5,2.5,0,0,1-.7.12.83.83,0,0,1-.65-.24,1,1,0,0,1-.22-.71,12.53,12.53,0,0,1,.4-2.15l.25-1.09q.67-2.94,1.06-5.28a23.71,23.71,0,0,0,.38-3.48,4.05,4.05,0,0,0-.05-.63c0-.22-.08-.45-.14-.67a5.25,5.25,0,0,1,.88-.38,2.42,2.42,0,0,1,.71-.12.88.88,0,0,1,.66.24,1,1,0,0,1,.23.69,19,19,0,0,1-.46,2.51Q112.19,64.73,112,65.83Z" transform="translate(-1.93 -0.63)"/><path d="M127.29,73.89a7.14,7.14,0,0,1-.87.34,2.2,2.2,0,0,1-.61.1.63.63,0,0,1-.49-.21.8.8,0,0,1-.18-.55,10.57,10.57,0,0,1,.37-2l.13-.55q.42-1.76.65-3.22a15.25,15.25,0,0,0,.23-2.13,3.69,3.69,0,0,0,0-.55,3.25,3.25,0,0,0-.13-.54,6,6,0,0,1,.86-.33,2.33,2.33,0,0,1,.63-.11.74.74,0,0,1,.57.21.88.88,0,0,1,.19.62,9.92,9.92,0,0,1-.35,1.72q-.17.65-.25,1-.41,1.7-.63,3a12.63,12.63,0,0,0-.22,2,5.65,5.65,0,0,0,0,.67A3.89,3.89,0,0,0,127.29,73.89Zm1.17-14a1.15,1.15,0,0,1,.83.3,1,1,0,0,1,.31.79,1.4,1.4,0,0,1-1.44,1.44,1.19,1.19,0,0,1-.85-.3,1,1,0,0,1-.32-.79,1.34,1.34,0,0,1,.44-1A1.44,1.44,0,0,1,128.46,59.85Z" transform="translate(-1.93 -0.63)"/><path d="M139.25,66a8.22,8.22,0,0,1,1.9-1.48,3.81,3.81,0,0,1,1.77-.45,2.77,2.77,0,0,1,2.15.89,3.36,3.36,0,0,1,.81,2.36,16,16,0,0,1-.35,2.7,16.18,16.18,0,0,0-.35,2.76,3.19,3.19,0,0,0,0,.55,2.76,2.76,0,0,0,.14.51,5.13,5.13,0,0,1-.79.36,1.75,1.75,0,0,1-.54.11.75.75,0,0,1-.56-.2.8.8,0,0,1-.19-.58,10.92,10.92,0,0,1,.29-1.66c.06-.25.11-.45.14-.58q.39-1.79.51-2.52a7.76,7.76,0,0,0,.12-1.17,2.51,2.51,0,0,0-.47-1.64,1.68,1.68,0,0,0-1.36-.56,3.18,3.18,0,0,0-1.44.36A7.44,7.44,0,0,0,139.46,67c0,.06,0,.14,0,.22s0,.14,0,.16a15.22,15.22,0,0,1-.35,2.6,15.32,15.32,0,0,0-.35,2.73,5.21,5.21,0,0,0,0,.64,4.63,4.63,0,0,0,.11.58,9,9,0,0,1-.85.34,1.69,1.69,0,0,1-.51.1.67.67,0,0,1-.51-.21.8.8,0,0,1-.2-.57,11,11,0,0,1,.3-1.66c.06-.25.1-.45.14-.58q.39-1.79.51-2.52a7.71,7.71,0,0,0,.12-1.17,2.52,2.52,0,0,0-.47-1.62,1.58,1.58,0,0,0-1.3-.58,2.83,2.83,0,0,0-1.31.36A7.83,7.83,0,0,0,133.26,67q-.5,2.18-.74,3.58a13.62,13.62,0,0,0-.24,2.11,4.93,4.93,0,0,0,0,.65,4.74,4.74,0,0,0,.12.59,6.66,6.66,0,0,1-.8.33,1.86,1.86,0,0,1-.56.11.7.7,0,0,1-.53-.2.79.79,0,0,1-.18-.56,9.28,9.28,0,0,1,.34-1.83q.13-.48.18-.73.51-2.1.74-3.5a14.48,14.48,0,0,0,.23-2.26,3.41,3.41,0,0,0,0-.44q0-.24-.09-.55l.41-.11a1.84,1.84,0,0,1,.33,0,1,1,0,0,1,.74.26,1,1,0,0,1,.25.75c0,.13,0,.24,0,.32s0,.16,0,.25A7.43,7.43,0,0,1,135,64.49a3.24,3.24,0,0,1,1.49-.4A2.74,2.74,0,0,1,139.25,66Z" transform="translate(-1.93 -0.63)"/><path d="M157.15,66a8.22,8.22,0,0,1,1.9-1.48,3.81,3.81,0,0,1,1.77-.45A2.77,2.77,0,0,1,163,65a3.36,3.36,0,0,1,.81,2.36,16,16,0,0,1-.35,2.7,16.18,16.18,0,0,0-.35,2.76,3.19,3.19,0,0,0,0,.55,2.76,2.76,0,0,0,.14.51,5.13,5.13,0,0,1-.79.36,1.75,1.75,0,0,1-.54.11.75.75,0,0,1-.56-.2.8.8,0,0,1-.19-.58,10.92,10.92,0,0,1,.29-1.66c.06-.25.11-.45.14-.58q.39-1.79.51-2.52a7.76,7.76,0,0,0,.12-1.17,2.51,2.51,0,0,0-.47-1.64,1.68,1.68,0,0,0-1.36-.56,3.18,3.18,0,0,0-1.44.36A7.44,7.44,0,0,0,157.36,67c0,.06,0,.14,0,.22s0,.14,0,.16a15.22,15.22,0,0,1-.35,2.6,15.32,15.32,0,0,0-.35,2.73,5.21,5.21,0,0,0,0,.64,4.63,4.63,0,0,0,.11.58,9,9,0,0,1-.85.34,1.69,1.69,0,0,1-.51.1.67.67,0,0,1-.51-.21.8.8,0,0,1-.2-.57,11,11,0,0,1,.3-1.66c.06-.25.1-.45.14-.58q.39-1.79.51-2.52a7.71,7.71,0,0,0,.12-1.17,2.52,2.52,0,0,0-.47-1.62,1.58,1.58,0,0,0-1.3-.58,2.83,2.83,0,0,0-1.31.36A7.83,7.83,0,0,0,151.15,67q-.5,2.18-.74,3.58a13.62,13.62,0,0,0-.24,2.11,4.93,4.93,0,0,0,0,.65,4.74,4.74,0,0,0,.12.59,6.66,6.66,0,0,1-.8.33,1.86,1.86,0,0,1-.56.11.7.7,0,0,1-.53-.2.79.79,0,0,1-.18-.56,9.28,9.28,0,0,1,.34-1.83q.13-.48.18-.73.51-2.1.74-3.5a14.48,14.48,0,0,0,.23-2.26,3.41,3.41,0,0,0,0-.44q0-.24-.09-.55l.41-.11a1.84,1.84,0,0,1,.33,0,1,1,0,0,1,.74.26,1,1,0,0,1,.25.75c0,.13,0,.24,0,.32s0,.16,0,.25a7.43,7.43,0,0,1,1.64-1.21,3.24,3.24,0,0,1,1.49-.4A2.74,2.74,0,0,1,157.15,66Z" transform="translate(-1.93 -0.63)"/><path d="M168,69.08q-.05.26-.08.47a3.54,3.54,0,0,0,0,.43,3.28,3.28,0,0,0,.82,2.34,2.85,2.85,0,0,0,2.19.87,3.43,3.43,0,0,0,1.4-.29,3.21,3.21,0,0,0,1.14-.84,1.12,1.12,0,0,1,.39.38,1,1,0,0,1,.13.52q0,.64-.92,1.12a4.89,4.89,0,0,1-2.28.48,4.52,4.52,0,0,1-3.31-1.22,4.36,4.36,0,0,1-1.24-3.26,6.43,6.43,0,0,1,.34-2.08,6.57,6.57,0,0,1,1-1.87,5.61,5.61,0,0,1,1.91-1.61,5.07,5.07,0,0,1,2.35-.57,3.78,3.78,0,0,1,2.49.77,2.53,2.53,0,0,1,.93,2,2.2,2.2,0,0,1-1,2,5.87,5.87,0,0,1-3.12.67,14.21,14.21,0,0,1-1.61-.09A12,12,0,0,1,168,69.08Zm.28-1.14a8.17,8.17,0,0,0,1.28.23,14.77,14.77,0,0,0,1.5.07,4.4,4.4,0,0,0,2-.33,1.09,1.09,0,0,0,.63-1,1.43,1.43,0,0,0-.56-1.17,2.28,2.28,0,0,0-1.48-.45,3.09,3.09,0,0,0-2,.71A4.48,4.48,0,0,0,168.25,67.95Z" transform="translate(-1.93 -0.63)"/><path d="M181.93,65.94a2.29,2.29,0,0,0-.63-.33,2.19,2.19,0,0,0-.69-.11,2,2,0,0,0-1.31.45,1.34,1.34,0,0,0-.55,1.06,3.28,3.28,0,0,0,1,1.79c.21.23.37.41.47.54a4.56,4.56,0,0,1,.73,1.1,2.58,2.58,0,0,1,.2,1,2.79,2.79,0,0,1-1.1,2.22,4.08,4.08,0,0,1-2.69.91,1.82,1.82,0,0,1-1-.23.79.79,0,0,1-.34-.7,1.29,1.29,0,0,1,.08-.43,3,3,0,0,1,.26-.53,2.49,2.49,0,0,0,.72.33,3.13,3.13,0,0,0,.85.11,2.22,2.22,0,0,0,1.34-.36,1.15,1.15,0,0,0,.5-1,3.39,3.39,0,0,0-1.05-1.8l-.28-.32a6.07,6.07,0,0,1-1-1.31,2.31,2.31,0,0,1-.21-1,2.63,2.63,0,0,1,.44-1.41,4,4,0,0,1,1.2-1.2,4.56,4.56,0,0,1,1.16-.56,4,4,0,0,1,1.2-.19,1.39,1.39,0,0,1,.84.21.74.74,0,0,1,.28.63,1.23,1.23,0,0,1-.11.46A3.64,3.64,0,0,1,181.93,65.94Z" transform="translate(-1.93 -0.63)"/><path d="M187.34,64.78l1-.06.6,0a1.08,1.08,0,0,1,.62.14.49.49,0,0,1,.19.43,1,1,0,0,1-.08.35,2.56,2.56,0,0,1-.26.47,3,3,0,0,0-.5-.12,3.76,3.76,0,0,0-.58,0h-.76L187,66q-.48,2.11-.75,3.68a15.15,15.15,0,0,0-.27,2.24,1.52,1.52,0,0,0,.2.88.71.71,0,0,0,.62.28,1.1,1.1,0,0,0,.39-.08,1.66,1.66,0,0,0,.4-.23.5.5,0,0,1,.09.19.92.92,0,0,1,0,.22,1.12,1.12,0,0,1-.44.94,2,2,0,0,1-1.22.34,1.69,1.69,0,0,1-1.32-.52,2.12,2.12,0,0,1-.47-1.47,33.27,33.27,0,0,1,.75-4.35q.27-1.3.41-2h-.61a1.51,1.51,0,0,1-.72-.12.45.45,0,0,1-.21-.42,1,1,0,0,1,.06-.31,2.61,2.61,0,0,1,.17-.38l.52.07.38,0h.25l.44,0q.13-.82.18-1.33c0-.34.05-.63.05-.85a2.37,2.37,0,0,0,0-.37,3.34,3.34,0,0,0-.09-.42,4.33,4.33,0,0,1,.7-.26,2.37,2.37,0,0,1,.58-.08.81.81,0,0,1,.56.17.63.63,0,0,1,.19.5,9,9,0,0,1-.24,1.24Z" transform="translate(-1.93 -0.63)"/><path d="M197.66,71q.42-1.88.63-3.23a14.8,14.8,0,0,0,.21-2.16,3.47,3.47,0,0,0,0-.58,3.26,3.26,0,0,0-.14-.55,4.72,4.72,0,0,1,.72-.27,2.09,2.09,0,0,1,.55-.09.84.84,0,0,1,.61.21.79.79,0,0,1,.21.59,10.62,10.62,0,0,1-.29,1.73l-.05.19q-.55,2.46-.77,3.73a12.24,12.24,0,0,0-.22,1.9,4,4,0,0,0,.06.76,2.38,2.38,0,0,0,.2.61,5.55,5.55,0,0,1-.76.35,1.74,1.74,0,0,1-.57.11.62.62,0,0,1-.5-.21.84.84,0,0,1-.18-.57,2.91,2.91,0,0,1,0-.45q0-.26.12-.58A6.83,6.83,0,0,1,195.62,74a4.16,4.16,0,0,1-1.93.48,2.88,2.88,0,0,1-2.06-.74,2.55,2.55,0,0,1-.79-1.94,15.76,15.76,0,0,1,.46-3,15.88,15.88,0,0,0,.46-3.16,3.11,3.11,0,0,0,0-.52,5.5,5.5,0,0,0-.14-.6,4.54,4.54,0,0,1,.72-.29,2,2,0,0,1,.54-.09.86.86,0,0,1,.6.21.71.71,0,0,1,.22.54,9,9,0,0,1-.25,1.46l-.2.88q-.41,1.84-.57,2.75a8.93,8.93,0,0,0-.16,1.38,1.93,1.93,0,0,0,.43,1.36,1.61,1.61,0,0,0,1.24.47,3.3,3.3,0,0,0,1.72-.54A7.46,7.46,0,0,0,197.66,71Zm-2.48-10.91a1.21,1.21,0,0,1,.83.27.93.93,0,0,1,.31.73,1.21,1.21,0,0,1-.38.91,1.35,1.35,0,0,1-1,.37,1.22,1.22,0,0,1-.85-.29,1,1,0,0,1-.32-.77,1.12,1.12,0,0,1,.41-.87A1.44,1.44,0,0,1,195.19,60.12Zm3.63,0a1.25,1.25,0,0,1,.84.27.92.92,0,0,1,.32.73,1.2,1.2,0,0,1-.4.91,1.39,1.39,0,0,1-1,.37,1.16,1.16,0,0,1-.83-.29,1,1,0,0,1-.31-.77,1.14,1.14,0,0,1,.39-.87A1.38,1.38,0,0,1,198.81,60.12Z" transform="translate(-1.93 -0.63)"/><path d="M208.41,66.64a1.27,1.27,0,0,0-.26-.64.67.67,0,0,0-.52-.19,2,2,0,0,0-1.21.62A9.1,9.1,0,0,0,205,68.2q-.34,1.36-.52,2.48a11.36,11.36,0,0,0-.18,1.75,5,5,0,0,0,.06.8,3.44,3.44,0,0,0,.17.67,4.56,4.56,0,0,1-.77.33,2.11,2.11,0,0,1-.63.11.77.77,0,0,1-.86-.86,10.62,10.62,0,0,1,.36-1.73l.18-.73q.53-2.19.76-3.54a13.19,13.19,0,0,0,.24-2.19c0-.15,0-.31,0-.48a4.73,4.73,0,0,0-.11-.53l.45-.11.29,0a1.12,1.12,0,0,1,.75.24.83.83,0,0,1,.28.66,7.47,7.47,0,0,1-.21,1.35c0,.19-.07.32-.08.4a9.6,9.6,0,0,1,1.7-2,2.41,2.41,0,0,1,1.5-.66,1.21,1.21,0,0,1,.86.32,1.07,1.07,0,0,1,.34.81,1.27,1.27,0,0,1-.28.78A2.06,2.06,0,0,1,208.41,66.64Z" transform="translate(-1.93 -0.63)"/><path d="M219.1,66a8.22,8.22,0,0,1,1.9-1.48,3.81,3.81,0,0,1,1.77-.45,2.77,2.77,0,0,1,2.15.89,3.36,3.36,0,0,1,.81,2.36,16,16,0,0,1-.35,2.7A16.18,16.18,0,0,0,225,72.8a3.19,3.19,0,0,0,0,.55,2.76,2.76,0,0,0,.14.51,5.13,5.13,0,0,1-.79.36,1.75,1.75,0,0,1-.54.11.75.75,0,0,1-.56-.2.8.8,0,0,1-.19-.58,10.92,10.92,0,0,1,.29-1.66c.06-.25.11-.45.14-.58q.39-1.79.51-2.52a7.76,7.76,0,0,0,.12-1.17,2.51,2.51,0,0,0-.47-1.64,1.68,1.68,0,0,0-1.36-.56,3.18,3.18,0,0,0-1.44.36A7.44,7.44,0,0,0,219.31,67c0,.06,0,.14,0,.22s0,.14,0,.16a15.22,15.22,0,0,1-.35,2.6,15.32,15.32,0,0,0-.35,2.73,5.21,5.21,0,0,0,0,.64,4.63,4.63,0,0,0,.11.58,9,9,0,0,1-.85.34,1.69,1.69,0,0,1-.51.1.67.67,0,0,1-.51-.21.8.8,0,0,1-.2-.57,11,11,0,0,1,.3-1.66c.06-.25.1-.45.14-.58q.39-1.79.51-2.52a7.71,7.71,0,0,0,.12-1.17,2.52,2.52,0,0,0-.47-1.62,1.58,1.58,0,0,0-1.3-.58,2.83,2.83,0,0,0-1.31.36A7.83,7.83,0,0,0,213.1,67q-.5,2.18-.74,3.58a13.62,13.62,0,0,0-.24,2.11,4.93,4.93,0,0,0,0,.65,4.74,4.74,0,0,0,.12.59,6.66,6.66,0,0,1-.8.33,1.86,1.86,0,0,1-.56.11.7.7,0,0,1-.53-.2.79.79,0,0,1-.18-.56,9.28,9.28,0,0,1,.34-1.83q.13-.48.18-.73.51-2.1.74-3.5a14.48,14.48,0,0,0,.23-2.26,3.41,3.41,0,0,0,0-.44q0-.24-.09-.55l.41-.11a1.84,1.84,0,0,1,.33,0,1,1,0,0,1,.74.26,1,1,0,0,1,.25.75c0,.13,0,.24,0,.32s0,.16,0,.25a7.43,7.43,0,0,1,1.64-1.21,3.24,3.24,0,0,1,1.49-.4A2.74,2.74,0,0,1,219.1,66Z" transform="translate(-1.93 -0.63)"/><path d="M229.91,69.08q-.05.26-.08.47a3.54,3.54,0,0,0,0,.43,3.28,3.28,0,0,0,.82,2.34,2.85,2.85,0,0,0,2.19.87,3.43,3.43,0,0,0,1.4-.29,3.21,3.21,0,0,0,1.14-.84,1.12,1.12,0,0,1,.39.38,1,1,0,0,1,.13.52q0,.64-.92,1.12a4.89,4.89,0,0,1-2.28.48,4.52,4.52,0,0,1-3.31-1.22,4.36,4.36,0,0,1-1.24-3.26,6.43,6.43,0,0,1,.34-2.08,6.57,6.57,0,0,1,1-1.87,5.61,5.61,0,0,1,1.91-1.61,5.07,5.07,0,0,1,2.35-.57,3.78,3.78,0,0,1,2.49.77,2.53,2.53,0,0,1,.93,2,2.2,2.2,0,0,1-1,2,5.87,5.87,0,0,1-3.12.67,14.21,14.21,0,0,1-1.61-.09A12,12,0,0,1,229.91,69.08Zm.28-1.14a8.17,8.17,0,0,0,1.28.23,14.77,14.77,0,0,0,1.5.07,4.4,4.4,0,0,0,2-.33,1.09,1.09,0,0,0,.63-1,1.43,1.43,0,0,0-.56-1.17,2.28,2.28,0,0,0-1.48-.45,3.09,3.09,0,0,0-2,.71A4.48,4.48,0,0,0,230.2,67.95Z" transform="translate(-1.93 -0.63)"/><path d="M244.7,66.64a1.27,1.27,0,0,0-.26-.64.67.67,0,0,0-.52-.19,2,2,0,0,0-1.21.62,9.1,9.1,0,0,0-1.44,1.77q-.34,1.36-.52,2.48a11.36,11.36,0,0,0-.18,1.75,5,5,0,0,0,.06.8,3.44,3.44,0,0,0,.17.67,4.56,4.56,0,0,1-.77.33,2.11,2.11,0,0,1-.63.11.77.77,0,0,1-.86-.86,10.62,10.62,0,0,1,.36-1.73l.18-.73q.53-2.19.76-3.54a13.19,13.19,0,0,0,.24-2.19c0-.15,0-.31,0-.48a4.73,4.73,0,0,0-.11-.53l.45-.11.29,0a1.12,1.12,0,0,1,.75.24.83.83,0,0,1,.28.66,7.47,7.47,0,0,1-.21,1.35c0,.19-.07.32-.08.4a9.6,9.6,0,0,1,1.7-2,2.41,2.41,0,0,1,1.5-.66,1.21,1.21,0,0,1,.86.32,1.07,1.07,0,0,1,.34.81,1.27,1.27,0,0,1-.28.78A2.06,2.06,0,0,1,244.7,66.64Z" transform="translate(-1.93 -0.63)"/><path d="M248.71,73.89a7.14,7.14,0,0,1-.87.34,2.2,2.2,0,0,1-.61.1.63.63,0,0,1-.49-.21.8.8,0,0,1-.18-.55,10.57,10.57,0,0,1,.37-2L247,71q.42-1.76.65-3.22a15.25,15.25,0,0,0,.23-2.13,3.69,3.69,0,0,0,0-.55,3.25,3.25,0,0,0-.13-.54,6,6,0,0,1,.86-.33,2.33,2.33,0,0,1,.63-.11.74.74,0,0,1,.57.21A.88.88,0,0,1,250,65a9.92,9.92,0,0,1-.35,1.72q-.17.65-.25,1-.41,1.7-.63,3a12.63,12.63,0,0,0-.22,2,5.65,5.65,0,0,0,0,.67A3.89,3.89,0,0,0,248.71,73.89Zm1.17-14a1.15,1.15,0,0,1,.83.3,1,1,0,0,1,.31.79,1.4,1.4,0,0,1-1.44,1.44,1.19,1.19,0,0,1-.85-.3,1,1,0,0,1-.32-.79,1.34,1.34,0,0,1,.44-1A1.44,1.44,0,0,1,249.88,59.85Z" transform="translate(-1.93 -0.63)"/><path d="M254.87,65.76a7.77,7.77,0,0,1,1.84-1.23,4.26,4.26,0,0,1,1.76-.41,2.89,2.89,0,0,1,2.19.87,3.19,3.19,0,0,1,.83,2.3,15.88,15.88,0,0,1-.36,2.7,15.9,15.9,0,0,0-.36,2.79,3.15,3.15,0,0,0,0,.55,2.8,2.8,0,0,0,.14.51,8.2,8.2,0,0,1-.86.36,1.73,1.73,0,0,1-.51.11.75.75,0,0,1-.56-.2.79.79,0,0,1-.2-.58,10.11,10.11,0,0,1,.31-1.69l.13-.55q.39-1.67.52-2.43a8.13,8.13,0,0,0,.13-1.3,2.29,2.29,0,0,0-.48-1.59,1.84,1.84,0,0,0-1.43-.53,3.67,3.67,0,0,0-1.57.39A7.29,7.29,0,0,0,254.74,67q-.5,2-.74,3.46a13.67,13.67,0,0,0-.25,2.19,5.69,5.69,0,0,0,0,.67,3.52,3.52,0,0,0,.11.57,8,8,0,0,1-.84.33,1.94,1.94,0,0,1-.56.11.7.7,0,0,1-.53-.2.79.79,0,0,1-.18-.56,9.28,9.28,0,0,1,.34-1.83q.13-.48.18-.73.52-2.15.74-3.48a13.28,13.28,0,0,0,.23-2.11,5.08,5.08,0,0,0,0-.55q0-.29-.09-.6l.38-.11a1.48,1.48,0,0,1,.29,0,1.2,1.2,0,0,1,.83.26,1,1,0,0,1,.29.74c0,.08,0,.17,0,.27S254.89,65.63,254.87,65.76Z" transform="translate(-1.93 -0.63)"/></svg>