<?xml version="1.0" encoding="utf-8"?>
<!-- Generator: Adobe Illustrator 21.0.2, SVG Export Plug-In . SVG Version: 6.00 Build 0)  -->
<svg version="1.1" id="Ebene_1" xmlns="http://www.w3.org/2000/svg" xmlns:xlink="http://www.w3.org/1999/xlink" x="0px" y="0px"
	 viewBox="0 0 600 86" style="enable-background:new 0 0 600 86;" xml:space="preserve">
<style type="text/css">
	.st0{fill-rule:evenodd;clip-rule:evenodd;}
</style>
<g>
	<g>
		<path class="st0" d="M235.6,43.3c-0.4-0.3-0.5-0.4-1.3-0.4c-2.9,2.4-4.4,8.7-9,9c-0.1-0.2-0.2-0.3-0.3-0.5c-0.7-1.8,1-4.7,1.7-5.9
			c1.1-2.2,2.3-4.3,3.4-6.5c1.1-1.7,2.3-3.5,3.4-5.2c-2.2-0.4-4,0.3-5.3,1c-1.3-3.8-7-2.7-9.7-1c-7.1,4.5-7.8,15-15.8,18.5
			c-0.3,0-0.6-0.1-0.9-0.1c-0.6-4.4,6.4-10,5.1-16.4c-1.1-5.5-8.3-2.1-11-0.6c0-0.6,0.1-1.1,0.1-1.7c-1.9,0-3.5,0.1-5,0.5
			c-0.8,1.5,1.2,2.5,0.4,4.5c-1.6,3.7-9.9,15.7-15.3,13.2c-3.9-10.1,13.8-8.1,11.6-16.8c-1.5-3.4-6.9-1-8.9,0.3
			c-5,3.3-8.4,9.6-12.1,14.3c-0.8,1-3.5,3.6-5,1.9c-0.6-3.8,1.8-6.6,3.1-9c2.2-4.1,4.3-8,6.6-12c1.8-2.6,3.7-5.3,5.5-7.9
			c1-0.5,2.6-0.5,3.7-0.9c4.4-1.7,7.7-4.8,7.6-10.8c2.1-1.6,4.4-3.4,6.9-4.5c6.5-2.8,19.2-5.2,21.8,2.9c4,12.3-17.9,14.9-21.7,4.6
			c-0.1,0-0.2-0.1-0.3-0.1c-1.9,6.5,8.4,10.4,14.9,9.2c5.3-1,11.7-4.6,10.4-12c-1.9-10.7-15.8-11.2-25.7-7.4
			c-2.4,1.2-4.8,2.5-7.1,3.7c-1.8-5.7-8.9-6.5-16.7-6.4c-1.1,0.2-2.1,0.3-3.2,0.5c-2.5,0.8-4.9,1.6-7.4,2.4
			c-10,4.4-15.9,12.7-22.3,20.8c-2.1,2.7-5,6.3-6.1,9.7c-1.3-0.6-2.5-1.9-5-1.4c-5.5,1-14.1,9.5-12.5,17.3c1.3,6.5,8.5,3.3,11.6,1
			c0.3,1.3,1,1.8,2,2.3c4.6,2,6.6-2.7,8.7-4.6v-0.3c1.4,3.4,2.7,6.4,7.9,4.3c1.1-0.6,2.3-1.3,3.4-1.9c1,5.3,8.6,2,9.8-1
			c0.9,0.7,1.1,2.8,2.4,3.6c4.5,2.6,8.9-4.6,11-6.2V47c1,2.6,0.7,4.3,2.7,5.7c5,3.7,9.8-1.7,12.4-3.7c-0.5,1.3-0.8,3.1-0.4,4.5
			c0.5,0.3,0.7,0.5,1.4,0.6c0.5-0.9,0.9-1.8,1.4-2.7c2.5-4.3,4.4-10.5,8.2-13.6c1.4-1.1,2.8-3.5,5.5-2.8h0.3c2.6,4.4-6,12-4.1,17.2
			c2.3,6.3,10.4-2.7,11.7-3.8c0.1,4,3.8,6.1,7.8,4.5c1.1-0.6,2.3-1.3,3.4-1.9c0.4,2.1,2.9,3.5,5.7,2.7
			C229.1,53.1,235.9,45.2,235.6,43.3z M184.4,34.8h0.4c0.3,0.3,0.7,0.6,1,0.9c-1.4,3.4-5.2,5.8-8.3,7.5
			C179.2,39.9,181.3,36.8,184.4,34.8z M180.8,18c1.3-1.4,2.5-2.7,3.8-4.1C185.3,14.4,181.7,17.5,180.8,18z M118.7,51.2
			c-2.4-6.3,4.2-14.1,8-16.2h1.4c0.2,0.2,0.4,0.4,0.6,0.6C129.9,40.7,123.8,53.6,118.7,51.2z M141,50.7c-2.2-6.8,4-14,8.3-16.3h1.3
			c0.2,0.3,0.4,0.5,0.6,0.8C152.2,40.9,146.4,52.5,141,50.7z M159.6,42.9c-1.6,3.5-3.2,8.8-7.8,9c-1.8-5.1,7.3-14.2,8.4-18.1
			c-2.2-0.4-4,0.3-5.3,1c-1.3-3.9-7-2.7-9.7-1c-2.3,1.4-4.7,3.9-6.1,6.2c-2.9,4.7-3.2,9.3-8.5,11.7c-3-2.7,4.4-13.9,5.6-16.2
			c6-11.4,14.2-23.1,25.3-29.3c2.3-0.9,4.6-1.9,6.9-2.8c1.5-0.3,3.1-0.5,4.6-0.8c6.2-0.1,11.1,1.1,12,6.1c-1.1,0.8-2.1,1.7-3.2,2.5
			c-2.7,2.1-5.6,5.3-7.6,8.2c-4.8,0.1-10.1-2.7-10.7-6.6c-0.1-0.1-0.3-0.2-0.4-0.3c0.1,5.6,3.8,9,9.2,9.2c-1.9,2.8-3.8,5.5-5.7,8.3
			C164.1,34.5,161.8,38.7,159.6,42.9z M219.3,49.2c-0.8,0.8-2.9,2.9-4.7,1.7c-1.3-0.9-0.7-4.4-0.3-5.9c1.5-4.7,4.3-8.4,8.3-10.6h1.3
			c0.2,0.3,0.4,0.5,0.6,0.8C225.5,40,221.5,46.9,219.3,49.2z M84.3,13.9c-2.1,1.9-4.2,3.8-6.4,5.7c-5.8,7-10.7,14.7-14.5,23.7
			c-2.9,6.7-3.2,13.9,2.5,17.6c0.5-0.1,0.9-0.3,1.4-0.4c1.1-1.9-1-4.3-1.3-6.2c0.3-1.9,0.6-3.7,0.9-5.6c3.3-10.9,9.2-19.8,14.8-28.5
			c2-3.2,6-7.3,9.8-8.5c2.1-0.7,7.2-0.7,7.6,1.3c0.3,1.2-1,2.2-1.4,3.1v0.1c0.1,0.1,0.3,0.2,0.4,0.3c1.1-0.8,2.8-2.5,2.2-4.5
			c-2-4.3-13.8-1.2-16.8,0.3C73.9,16.7,65.8,24,59.6,32c-2.3,2.9-5.9,6-7.4,9.4c-0.1,0-0.2,0.1-0.3,0.1c1.8-4.8,3.6-9.5,5.3-14.3
			c1.4-3.6,1.6-7.4,3.7-10.2c1-1.4,2.5-1.8,3.9-2.8v-0.6c-1.1-1.7-5.2-2.4-7.3-3.2c-7.5-2.6-17.1-4.1-27-3.9c-3,1.1-5.8,0.8-8.4,2.2
			c-4.6,2.5-6,10.9-2.4,15.5c4.2,5.4,17.7,5.6,21.9,0c1.1-1.5,1.5-3.5,1.8-5.9c-1.2,0.6-1.7,2.3-2.4,3.3c-1.2,1.6-3.4,2.8-5.5,3.4
			c-8.3,2.5-18.7-4.2-13.4-12.6c4.9-7.6,29.5-1.7,36.4,0.1c-1.9,0.9-3.8,1.3-5.3,2.4C47.6,19.2,44.7,26,41,32.1
			C37.3,38,31.4,47,25.8,50.8c-4.5,3.1-15.3,7.4-19.6,0.8C1.3,44,10,36.7,18.4,38.5c3.6,0.8,6.9,3.2,8.3,6.2
			c0.2,0.1,0.3,0.3,0.5,0.4h0.1C26.8,29-5.7,34.6,2.5,51.2c0.8,1.6,1.6,2.8,2.9,3.8c5.5,3.9,17.9,2,22.9-0.9
			c8.6-4.9,14.2-18.9,19.4-27.5c3.1-5.2,6.1-11.5,13.5-12.4c-1.9,2-4.3,3.2-6,5.5c-3.5,4.7-4.2,10.9-6.1,17.3
			c-1.7,5.8-4.7,11.8-5.2,18.5H44c3.1-4.2,6.3-8.3,9.4-12.5C62.4,32.5,71,19.9,84.3,13.9z M113.4,34.2c-2.1-2.6-7-1-9,0.4
			c-3.1,2-5.7,5.1-7.4,8.5c-1.6,3.1-3.7,8.7-7.8,8.9c-0.1-0.2-0.2-0.3-0.3-0.5c-0.7-1.7,0.8-4.2,1.4-5.3c2.1-4.5,4.6-8.2,7.3-12.1
			v-0.1c-2.4-0.3-4,0.2-5.5,1c-0.6-2-2.3-2.7-5-2.7c-0.8,0.2-1.7,0.3-2.5,0.5c-4.3,1.7-8,6-9.7,10.3c-1.7,4.3-1,11.3,5,10.3
			c2.3-0.4,3.8-1.6,5.5-2.5c0.2,1.4,0.9,2.1,2,2.5c4.4,2,6.5-2.3,8.4-4.1v-0.3c1.1,2.9,2.2,6.2,6.8,4.6C96,64.5,88.5,75.9,76.2,81
			c-4.4,1.8-12.8,3.7-17.3,0.6c-9.6-6.4,0.7-18.2,12.2-14.8c3.7,1.1,4.7,3.9,6.5,7c0,0.1,0.1,0.2,0.1,0.3c-0.1-0.8-0.2-1.7-0.3-2.5
			c-1.2-5.9-7.6-9.3-15.5-7.6c-5.1,1.1-11.2,5.5-9.6,12.7c0.4,1.6,1.1,3.2,1.9,4.3c3.6,5,15.3,5.2,22.2,2.8
			c15.1-5.3,24.8-18.2,32.1-31.3C110.5,49.1,117.4,39.1,113.4,34.2z M88.1,40.1c-1.1,3.3-5.2,13.5-9.9,10.3
			c-1.8-6.9,4.2-13.6,8.4-16c0.4,0,0.8,0.1,1.3,0.1C89.3,35.4,88.6,38.6,88.1,40.1z M100.8,51.6c-4.8-4.6,4.5-15,7.4-16.6
			c0.6,0,1.2,0.1,1.8,0.1c1.8,3.1-3.7,13.7-5.5,15.3C103.7,51.2,102.5,51.6,100.8,51.6z M176.9,58.4c-0.3,0.1-0.6,0.3-0.9,0.4
			c0.1,5.7-2,9.9-1.9,15.5c0.1,0.1,0.3,0.2,0.4,0.3c0.7,0.3,1.2-0.1,1.8-0.3c0.5-2.6,0.3-5.5,0.8-8.3c0.4-2.4,1.3-4.6,1.3-7.3
			c-0.1-0.1-0.3-0.2-0.4-0.3C177.6,58.4,177.2,58.4,176.9,58.4z M122.6,58.7c-0.6-0.1-1.3-0.1-1.8,0.3c-0.1,0-0.3,0.1-0.4,0.1
			c0.1,2.3-0.3,4.1-0.4,6.2h-8.4c0.5-1.3,1.5-4.8,0.9-6.2c-0.2-0.2-0.3-0.3-0.5-0.5c-0.6,0.1-1.1,0.2-1.7,0.3
			c-0.2,0.4-2.1,15-2,15.2v0.3c0.9,0.6,1.6,0.2,2.5-0.1c-0.2-2.5,0.3-4.8,0.5-7.3h8.4c-0.6,1.8-1.6,5.4-1.1,7.1v0.3
			c0.7,0.5,1.6,0.4,2.3-0.1c0-1.3,0.1-2.6,0.1-3.9c0.4-1.9,2.3-9.5,1.7-11.1C122.7,59,122.7,58.9,122.6,58.7z M128,59
			c-0.3,0-0.7-0.1-1-0.1c-0.6,0.6-1,0.9-1,2.2c0.3,0.3,0.7,0.5,1,0.8c0.3-0.1,0.7-0.2,1-0.3c0.5-0.3,0.6-0.5,0.6-1.1
			c0-0.4-0.1-0.8-0.1-1.1C128.3,59.2,128.1,59.1,128,59z M250.5,59c-0.3,0-0.7-0.1-1-0.1l-0.8,0.6c-0.1,0.5-0.2,1-0.3,1.5
			c0.4,0.4,0.6,0.7,1.4,0.8c0.3-0.1,0.6-0.2,0.9-0.3c0.2-0.3,0.3-0.7,0.5-1c-0.1-0.4-0.2-0.8-0.3-1.3
			C250.8,59.2,250.7,59.1,250.5,59z M198,61.5c0.1-0.2,0.2-0.3,0.3-0.5c0.4-0.8,0-1.4-0.5-1.8c-0.3,0-0.6-0.1-0.9-0.1
			c-0.7,0.5-1.2,0.8-1,1.9C196.2,62,197.2,61.8,198,61.5z M201.1,61.7l0.6-0.6v-1.3c-0.3-0.5-0.6-0.6-1.4-0.6
			c-0.3,0.3-0.6,0.6-0.9,0.9c-0.4,0.7,0,1.3,0.4,1.7H201.1z M189.7,64.1c0.3-0.8,0.7-2.2,0.4-3.2c-0.8-0.1-1.3,0-2,0.1
			c0,1.1-0.1,2.1-0.1,3.2h-1.5c-0.2,0.5-0.2,0.8-0.1,1.4c0.5,0,0.9,0.1,1.4,0.1c-0.5,2.7-1.9,6.5-0.4,8.8c0.7,0.2,1.4,0.4,2,0
			l0.8-0.8v-1c-0.4,0.1-0.8,0.2-1.3,0.3c-0.1-0.1-0.2-0.3-0.3-0.4c-0.8-2.2,0.6-4.9,0.8-7c0.8,0,1.6,0.1,2.4,0.1
			c0-0.4,0.1-0.8,0.1-1.3C191.6,63.9,190.6,64,189.7,64.1z M168.6,63.3c-1.3,0.7-2.5,0.9-3.3,2c-3.3,4.4-0.9,11.1,5.5,9
			c0.5-0.6,0.8-0.7,0.8-1.9c-1-0.8-6.7,3.2-5.7-3.4c2.2,0.8,5.9,0.4,6.8-1.3C174,65,171.3,63.2,168.6,63.3z M170.9,67
			c-0.8,1.3-3.2,0.8-4.8,0.6c0.5-1.5,1.4-2,2.7-2.8c0.6,0.1,1.2,0.3,1.8,0.4c0.2,0.3,0.3,0.6,0.5,0.9C171,66.4,170.9,66.7,170.9,67z
			 M233.7,63.3c-0.8,0.4-1.7,0.8-2.5,1.1c-2.3,1.9-3.3,7.6-0.5,9.7c1.5,1.1,5.1,1,5.9-0.6c0-0.3,0.1-0.7,0.1-1
			c-1-0.8-2.2,1.1-4.1,0.5c-1-0.4-2.3-2.2-1.7-3.7v-0.3c2,0.7,5.5,0.5,6.5-0.9C239.2,65.5,236.6,63.2,233.7,63.3z M231.1,67.7
			c0.6-1.5,1.3-2,2.7-2.8c1.2,0,1.8,0.3,2.2,1.1c0,0.3,0.1,0.7,0.1,1C234.8,68,233.1,67.9,231.1,67.7z M126.8,63.5
			c-0.5,0.2-1,0.3-1.5,0.5c0.2,2.2-1.3,10.2-0.8,10.6v0.1c0.6-0.1,1.3-0.3,1.9-0.4C126.4,71.4,128.4,64.1,126.8,63.5z M138,65.4
			c-1.5-2.4-3.5-2-5.6-0.5c-0.1-0.4-0.2-0.8-0.3-1.1c-0.3-0.1-0.6-0.2-0.9-0.3c-0.2,0-0.3,0.1-0.5,0.1c0,1-0.1,2-0.1,2.9
			c-0.4,2.6-1.4,4.9-1.4,7.8c0.1,0.1,0.3,0.2,0.4,0.3c0.5,0.2,1,0,1.5-0.1c0.1,0,0.2-0.1,0.3-0.1c-0.4-3.9,0-9.2,4.1-9.2
			c0.3,0.3,0.5,0.5,0.8,0.8c0.6,2.6-1.4,6.4-0.5,8.4c0.1,0.1,0.2,0.2,0.3,0.3c0.6,0.2,1.1-0.1,1.7-0.3c0.4-2.3,0.6-5.2,0.6-7.6
			c1-0.8,1.5-1.6,3.4-1.5c2.1,2.1,0.1,6,0,9.2c0.8,0.5,1.3,0.3,2.2,0c0.5-2.5,0.9-7.4-0.1-9.9C141.5,62.9,139.5,63.7,138,65.4z
			 M155.2,65.4c-0.6-2.9-4-1.7-5.5-0.5c-0.1-0.4-0.2-0.8-0.3-1.1c-0.3-0.1-0.6-0.2-0.9-0.3c-0.2,0-0.4,0.1-0.6,0.1
			c0,1-0.1,2-0.1,3.1c-0.5,2.5-1.3,4.8-1.3,7.6c0.1,0.1,0.3,0.2,0.4,0.3c0.7,0.3,1.2-0.1,1.8-0.3c-0.3-3.9,0-9.2,4.1-9.2
			c2.1,2.1,0.1,5.9,0,9v0.1c0.8,0.5,1.3,0.3,2.2,0c0.2-2.5,0.3-5,0.5-7.5c1.1-0.9,1.5-1.7,3.6-1.7c2.1,2.1,0.1,6,0,9.2
			c0.7,0.4,1.1,0.4,1.9,0.1c0.3-0.8,0-2.5,0.3-3.7C162.5,64.4,160.2,61.3,155.2,65.4z M182.9,63.5c-6.8,4.2-1,4.4-0.6,8.8
			c-0.2,0.2-0.3,0.4-0.5,0.6c-1.1,0.3-1.9,0.2-2.8-0.3c-0.1,0.5-0.3,0.9-0.4,1.4c0.1,0.2,0.2,0.4,0.3,0.6c2.5,0.6,5.8-0.8,5-4.1
			c-0.8-1.2-1.5-2.5-2.3-3.7c0.1-0.8,0.3-1,0.6-1.5c1-0.2,1.5-0.2,2.3,0.3c0.4-0.4,0.5-0.8,0.6-1.4
			C184.6,63.5,184.1,63.4,182.9,63.5z M202.2,63.8c-0.7-0.3-1.3-0.2-2,0c0.4,4.2-0.2,9.3-4.6,9.3c-0.2-0.2-0.4-0.3-0.6-0.5
			c-0.7-3,0.8-5.5,0.9-8.5V64c-0.3-0.2-0.7-0.3-1-0.5c-0.3,0.1-0.6,0.3-0.9,0.4h-0.3c-1.1,5.3-1.9,15.1,5.5,9.3
			c0,0.4,0.1,0.8,0.1,1.1c0.1,0.1,0.2,0.2,0.3,0.3c0.7,0.3,1.3-0.1,1.8-0.4C200.8,70.6,202.8,67.1,202.2,63.8z M207.2,65.6
			c-0.1,0-0.2,0.1-0.3,0.1c0-0.6,0.1-1.2,0.1-1.8c-0.4-0.2-0.8-0.3-1.1-0.5c-0.2,0-0.3,0.1-0.5,0.1c-0.3,1.2-1.5,10.3-1.3,10.7
			c0.1,0.1,0.2,0.2,0.3,0.3c0.7,0.3,1.3-0.1,1.9-0.3c-0.4-3.9,0.4-6.9,2.7-8.8h0.5c0.1,0.3,0.3,0.6,0.4,0.9h0.4
			c0.5-0.6,0.9-0.8,0.9-2C209.8,62.9,207.8,64,207.2,65.6z M220.3,65.4c-0.7-2.8-4-1.7-5.5-0.5c0-0.3-0.1-0.6-0.1-0.9
			c-0.3-0.2-0.7-0.3-1-0.5c-0.2,0-0.4,0.1-0.6,0.1c-0.1,1.3-0.2,2.5-0.3,3.8c-0.4,2.2-1.2,4.4-1.1,6.9c0.1,0.1,0.3,0.2,0.4,0.3
			c0.7,0.3,1.2-0.1,1.8-0.3c-0.3-2.9,0.6-5.1,0.8-7.6c1-0.8,1.7-1.8,3.6-1.4c1.6,2.6-0.4,6.1-0.3,9c0.8,0.5,1.3,0.3,2.2,0
			c0.2-2.5,0.3-5.1,0.5-7.6c1.1-0.8,1.8-1.8,3.8-1.4c1.6,2.6-0.2,5.8-0.3,9c0.8,0.5,1.2,0.3,2,0c0.6-3,0.9-7.4-0.1-9.9
			C223.7,62.7,222,64,220.3,65.4z M242.2,65.5v0.3h-0.1v-1.7c-0.3-0.5-0.5-0.5-1-0.6c-0.2,0-0.4,0.1-0.6,0.1c0,1.1-0.1,2.1-0.1,3.2
			c-0.5,2.4-1.3,4.7-1.3,7.5c0.7,0.4,1.2,0.4,2,0.1c0.1,0,0.2-0.1,0.3-0.1c-0.3-4.2,0.4-6.9,2.7-8.8c0.2,0,0.3,0.1,0.5,0.1
			c0.3,0.2,0.3,0.4,0.4,0.8c0.6-0.2,0.8-0.4,1.1-0.9c0-0.4,0.1-0.8,0.1-1.1v-0.1C244.3,62.8,243.4,64.2,242.2,65.5z M249.4,63.5
			c-0.5,0.2-1,0.3-1.5,0.5c0.2,2.1-1.3,10.2-0.8,10.6v0.1c0.6-0.1,1.3-0.3,1.9-0.4c-0.1-3.3,1.8-8.4,1.1-10.6
			C249.9,63.6,249.6,63.5,249.4,63.5z M255.8,64.2c-0.2,0.2-0.4,0.4-0.6,0.6c-0.2-0.4-0.3-0.8-0.5-1.1c-0.3-0.1-0.6-0.2-0.9-0.3
			c-0.2,0-0.4,0.1-0.6,0.1c-0.1,1.5-0.2,3.1-0.3,4.6c-0.4,2-1.2,3.7-1.1,6v0.1c0.7,0.4,1.1,0.4,1.9,0.1c0.1,0,0.2-0.1,0.3-0.1
			c-0.2-3.5,0.2-10.3,4.6-9c3,1.5-0.7,6.4,0.1,8.9c0,0.1,0.1,0.3,0.1,0.4c0.8,0.2,1.4,0.1,1.9-0.4c0.1-1.3,0.2-2.5,0.3-3.8
			C262.3,64.8,260.5,62.7,255.8,64.2z"/>
	</g>
</g>
</svg>
