<?xml version="1.0" encoding="utf-8"?>
<svg viewBox="95.0187 352.363 694.7014 107.2152" xmlns="http://www.w3.org/2000/svg">
  <path d="M 130.4 397.125 L 130.4 354.507 C 130.4 353.078 131.114 352.363 132.544 352.363 L 146.348 352.363 C 147.867 352.363 148.626 353.078 148.626 354.507 L 148.626 457.434 C 148.626 458.863 147.867 459.578 146.348 459.578 L 132.544 459.578 C 131.114 459.578 130.4 458.863 130.4 457.434 L 130.4 414.816 L 113.245 414.816 L 113.245 457.434 C 113.245 458.863 112.531 459.578 111.101 459.578 L 97.297 459.578 C 95.778 459.578 95.019 458.863 95.019 457.434 L 95.019 354.507 C 95.019 353.078 95.778 352.363 97.297 352.363 L 111.101 352.363 C 112.531 352.363 113.245 353.078 113.245 354.507 L 113.245 397.125 L 130.4 397.125 Z" style=""/>
  <path d="M 215.496 367.909 L 215.496 381.311 C 215.496 382.83 214.782 383.589 213.352 383.589 L 180.25 383.589 L 180.25 404.229 L 205.445 404.229 C 206.874 404.229 207.589 404.988 207.589 406.507 L 207.589 419.775 C 207.589 421.294 206.874 422.053 205.445 422.053 L 180.25 422.053 L 180.25 441.888 L 213.352 441.888 C 214.782 441.888 215.496 442.603 215.496 444.032 L 215.496 457.434 C 215.496 458.863 214.782 459.578 213.352 459.578 L 164.033 459.578 C 162.693 459.578 162.023 458.863 162.023 457.434 L 162.023 367.909 C 162.023 366.48 162.693 365.765 164.033 365.765 L 213.352 365.765 C 214.782 365.765 215.496 366.48 215.496 367.909 Z" style=""/>
  <path d="M 231.036 459.578 L 244.975 459.578 C 246.404 459.578 247.119 458.863 247.119 457.434 L 247.119 367.909 C 247.119 366.48 246.404 365.765 244.975 365.765 L 231.036 365.765 C 229.607 365.765 228.892 366.48 228.892 367.909 L 228.892 457.434 C 228.892 458.863 229.607 459.578 231.036 459.578 Z" style=""/>
  <path d="M 278.745 441.888 L 278.745 367.909 C 278.745 366.48 278.03 365.765 276.601 365.765 L 262.662 365.765 C 261.233 365.765 260.518 366.48 260.518 367.909 L 260.518 457.434 C 260.518 458.863 261.233 459.578 262.662 459.578 L 305.281 459.578 C 306.71 459.578 307.425 458.863 307.425 457.434 L 307.425 444.032 C 307.425 442.603 306.71 441.888 305.281 441.888 L 278.745 441.888 Z" style=""/>
  <path d="M 322.966 459.578 L 336.904 459.578 C 338.333 459.578 339.048 458.863 339.048 457.434 L 339.048 367.909 C 339.048 366.48 338.333 365.765 336.904 365.765 L 322.966 365.765 C 321.536 365.765 320.822 366.48 320.822 367.909 L 320.822 457.434 C 320.822 458.863 321.536 459.578 322.966 459.578 Z" style=""/>
  <path d="M 352.448 440.28 L 352.448 385.063 C 352.448 378.72 354.101 373.918 357.407 370.656 C 360.712 367.395 365.492 365.765 371.746 365.765 L 386.757 365.765 C 393.011 365.765 397.791 367.395 401.096 370.656 C 404.402 373.918 406.055 378.72 406.055 385.063 L 406.055 394.981 C 406.055 396.411 405.341 397.125 403.911 397.125 L 391.314 397.125 C 389.884 397.125 389.169 396.411 389.169 394.981 L 389.169 388.414 C 389.169 384.84 387.382 383.054 383.808 383.054 L 375.231 383.054 C 371.657 383.054 369.87 384.84 369.87 388.414 L 369.87 436.929 C 369.87 440.503 371.657 442.289 375.231 442.289 L 383.808 442.289 C 387.382 442.289 389.169 440.503 389.169 436.929 L 389.169 425.269 L 382.2 425.269 C 380.771 425.269 380.056 424.554 380.056 423.125 L 380.056 409.723 C 380.056 408.294 380.771 407.579 382.2 407.579 L 403.911 407.579 C 405.341 407.579 406.055 408.294 406.055 409.723 L 406.055 440.28 C 406.055 446.534 404.402 451.314 401.096 454.619 C 397.791 457.925 393.011 459.578 386.757 459.578 L 371.746 459.578 C 365.492 459.578 360.712 457.925 357.407 454.619 C 354.101 451.314 352.448 446.534 352.448 440.28 Z" style=""/>
  <path d="M 517.55 459.578 L 503.345 459.578 C 502.183 459.578 501.468 458.953 501.2 457.702 L 497.448 438.135 L 473.593 438.135 L 469.974 457.702 C 469.706 458.953 468.991 459.578 467.83 459.578 L 453.49 459.578 C 451.882 459.578 451.301 458.819 451.747 457.3 L 473.994 354.239 C 474.262 352.988 475.022 352.363 476.273 352.363 L 494.901 352.363 C 496.152 352.363 496.912 352.988 497.18 354.239 L 519.427 457.3 C 519.695 458.819 519.069 459.578 517.55 459.578 Z M 494.097 422.589 L 485.521 375.816 L 476.943 422.589 L 494.097 422.589 Z" style=""/>
  <path d="M 585.224 385.063 L 585.224 403.156 C 585.224 405.658 584.42 407.757 582.811 409.455 C 581.203 411.153 579.193 412.225 576.78 412.672 L 576.78 412.939 C 579.193 413.297 581.203 414.347 582.811 416.089 C 584.42 417.831 585.224 419.953 585.224 422.455 L 585.224 440.28 C 585.224 446.534 583.571 451.314 580.265 454.619 C 576.959 457.925 572.134 459.578 565.791 459.578 L 533.626 459.578 C 532.197 459.578 531.482 458.863 531.482 457.434 L 531.482 367.909 C 531.482 366.48 532.197 365.765 533.626 365.765 L 565.791 365.765 C 572.134 365.765 576.959 367.395 580.265 370.656 C 583.571 373.918 585.224 378.72 585.224 385.063 Z M 568.203 398.733 L 568.203 388.012 C 568.203 384.438 566.416 382.652 562.843 382.652 L 548.1 382.652 L 548.1 403.96 L 562.843 403.96 C 566.416 403.96 568.203 402.218 568.203 398.733 Z M 568.203 437.331 L 568.203 427.011 C 568.203 423.438 566.416 421.651 562.843 421.651 L 548.1 421.651 L 548.1 442.691 L 562.843 442.691 C 566.416 442.691 568.203 440.905 568.203 437.331 Z" style=""/>
  <path d="M 652.093 367.909 L 652.093 381.311 C 652.093 382.83 651.378 383.589 649.949 383.589 L 616.846 383.589 L 616.846 404.229 L 642.042 404.229 C 643.472 404.229 644.187 404.988 644.187 406.507 L 644.187 419.775 C 644.187 421.294 643.472 422.053 642.042 422.053 L 616.846 422.053 L 616.846 441.888 L 649.949 441.888 C 651.378 441.888 652.093 442.603 652.093 444.032 L 652.093 457.434 C 652.093 458.863 651.378 459.578 649.949 459.578 L 600.63 459.578 C 599.29 459.578 598.62 458.863 598.62 457.434 L 598.62 367.909 C 598.62 366.48 599.29 365.765 600.63 365.765 L 649.949 365.765 C 651.378 365.765 652.093 366.48 652.093 367.909 Z" style=""/>
  <path d="M 707.974 365.765 L 720.571 365.765 C 722.001 365.765 722.716 366.48 722.716 367.909 L 722.716 457.434 C 722.716 458.863 722.001 459.578 720.571 459.578 L 709.984 459.578 C 708.912 459.578 708.108 458.997 707.572 457.836 L 682.376 406.64 L 682.376 457.434 C 682.376 458.863 681.661 459.578 680.231 459.578 L 667.634 459.578 C 666.204 459.578 665.49 458.863 665.49 457.434 L 665.49 367.909 C 665.49 366.48 666.204 365.765 667.634 365.765 L 678.222 365.765 C 679.293 365.765 680.097 366.346 680.634 367.507 L 705.83 418.703 L 705.83 367.909 C 705.83 366.48 706.544 365.765 707.974 365.765 Z" style=""/>
  <path d="M 736.112 457.434 L 736.112 367.909 C 736.112 366.48 736.827 365.765 738.256 365.765 L 770.421 365.765 C 776.765 365.765 781.567 367.418 784.828 370.724 C 788.089 374.029 789.72 378.854 789.72 385.198 L 789.72 440.28 C 789.72 446.534 788.089 451.314 784.828 454.619 C 781.567 457.925 776.765 459.578 770.421 459.578 L 738.256 459.578 C 736.827 459.578 736.112 458.863 736.112 457.434 Z M 754.339 441.888 L 766.669 441.888 C 770.243 441.888 772.03 440.101 772.03 436.527 L 772.03 388.95 C 772.03 385.287 770.243 383.455 766.669 383.455 L 754.339 383.455 L 754.339 441.888 Z" style=""/>
</svg>