<?xml version="1.0" encoding="utf-8"?>
<svg xmlns="http://www.w3.org/2000/svg" viewBox="130.3 317.449 759.196 606.521"><defs/><path d="M 250.8 319.2 C 253.95 322.35 253.32 331.01 253.32 338.88 L 253.32 378.23 C 253.32 386.1 253.95 394.75 250.8 397.9 L 280.31 397.9 C 301.41 397.9 306.76 383.26 306.76 369.41 C 306.76 346.83 287.16 319.2 262.06 319.2 Z M 258.83 395.93 L 258.83 321.17 L 261.98 321.17 C 282.67 321.17 300.85 345.25 300.85 368.86 C 300.85 389.09 290.23 395.93 278.42 395.93 Z M 315.01 371.07 C 315.01 384.92 324.3 398.69 340.98 398.69 C 350.74 398.69 357.9 394.05 362.23 387.36 L 360.11 386.57 C 358.22 391.68 350.03 395.86 341.69 395.86 C 331.54 395.86 321.15 389.72 320.99 371.46 L 361.84 371.46 C 363.1 371.46 363.57 367.76 363.57 365.24 C 363.57 353.67 353.89 344.78 341.14 344.78 C 323.2 344.78 315.01 357.84 315.01 371.07 Z M 321.07 369.49 C 321.62 357.77 328.86 346.75 341.22 346.75 C 362.31 346.75 357.9 369.49 357.9 369.49 Z M 372.78 365.24 L 372.78 395.93 C 372.78 397.19 373.01 398.69 374.27 398.69 C 379.63 398.69 387.02 351 408.19 351 C 411.97 351 414.17 352.1 414.17 352.1 L 414.17 345.57 C 414.17 345.57 411.81 344.78 408.27 344.78 C 392.14 344.78 384.9 371.54 378.29 387.67 L 378.29 345.57 L 370.26 345.57 C 373.41 348.71 372.78 357.37 372.78 365.24 Z"/><path d="M 144.27 548.07 L 234.63 548.07 L 234.63 532.52 C 226.93 542.32 212.78 544.42 201.01 544.42 L 156.32 544.42 C 148.75 544.42 144.83 543.02 144.83 529.85 C 144.83 482.08 230.29 474.65 230.29 417.63 C 230.29 411.89 230.57 407.97 224.97 407.97 L 138.1 407.97 L 138.1 418.89 C 143.85 415.39 157.58 411.47 184.62 411.47 L 212.08 411.47 C 218.94 411.47 220.06 417.63 220.06 422.4 C 220.06 467.93 133.62 470.45 133.62 537.28 C 133.62 542.74 136.28 548.07 144.27 548.07 Z M 247.23 534.76 C 247.23 550.31 258.3 547.93 273.85 547.93 L 330.03 547.93 C 324.43 542.32 325.55 526.91 325.55 512.9 L 325.55 489.23 C 325.55 468.63 313.5 453.36 287.58 453.36 C 274.55 453.36 264.19 457.14 251.02 463.59 L 251.02 475.64 C 258.16 468.35 272.73 457 289.68 457 C 308.6 457 314.2 469.89 315.46 483.76 C 294.03 486.14 247.23 503.24 247.23 534.76 Z M 315.74 487.4 C 315.74 488.94 315.74 490.35 315.74 491.89 L 315.74 542.74 L 270.07 542.74 C 262.08 542.74 257.74 538.26 257.74 529.43 C 257.74 506.32 294.87 489.65 315.74 487.4 Z M 341.94 508.7 C 341.94 529.15 357.91 548.07 374.44 548.07 L 422.92 548.07 C 417.31 542.46 418.43 527.05 418.43 513.04 L 418.43 489.93 C 418.43 475.92 417.31 460.5 422.92 454.9 L 404.14 454.9 C 409.75 460.5 408.63 475.92 408.63 489.93 L 408.63 543.44 L 375.42 543.44 C 357.63 543.44 348.8 524.39 348.8 513.18 C 348.8 489.51 359.45 467.79 376.82 454.9 L 360.85 454.9 C 347.82 472.69 341.94 486.42 341.94 508.7 Z M 432.72 407.97 C 438.32 413.57 437.2 428.98 437.2 442.99 L 437.2 513.04 C 437.2 527.05 438.32 542.46 432.72 548.07 L 472.23 548.07 C 492.26 548.07 515.24 530.69 515.24 501.97 C 515.24 473.25 496.75 454.9 464.8 454.9 L 447.01 454.9 L 447.01 442.99 C 447.01 428.98 445.89 413.57 451.49 407.97 Z M 447.01 458.4 L 465.64 458.4 C 492.54 458.4 504.73 479.14 504.73 501.83 C 504.73 524.53 490.58 544.56 470.83 544.56 L 447.15 544.56 C 447.15 536.02 447.01 524.81 447.01 513.04 Z M 529.25 500.29 C 529.25 524.95 545.78 549.47 575.49 549.47 C 592.86 549.47 605.61 541.2 613.31 529.29 L 609.53 527.89 C 606.17 537 591.6 544.42 576.75 544.42 C 558.67 544.42 540.18 533.5 539.9 500.99 L 612.61 500.99 C 614.85 500.99 615.69 494.41 615.69 489.93 C 615.69 469.33 598.46 453.5 575.77 453.5 C 543.82 453.5 529.25 476.76 529.25 500.29 Z M 540.04 497.49 C 541.02 476.62 553.91 457 575.91 457 C 613.45 457 605.61 497.49 605.61 497.49 Z M 632.08 489.93 L 632.08 544.56 C 632.08 546.81 632.5 549.47 634.74 549.47 C 644.27 549.47 657.44 464.57 695.12 464.57 C 701.85 464.57 705.77 466.53 705.77 466.53 L 705.77 454.9 C 705.77 454.9 701.57 453.5 695.27 453.5 C 666.54 453.5 653.66 501.13 641.89 529.85 L 641.89 454.9 L 627.6 454.9 C 633.2 460.5 632.08 475.92 632.08 489.93 Z M 709.97 500.29 C 709.97 524.95 726.5 549.47 756.21 549.47 C 773.58 549.47 786.33 541.2 794.03 529.29 L 790.25 527.89 C 786.89 537 772.32 544.42 757.47 544.42 C 739.39 544.42 720.9 533.5 720.62 500.99 L 793.33 500.99 C 795.57 500.99 796.41 494.41 796.41 489.93 C 796.41 469.33 779.18 453.5 756.49 453.5 C 724.54 453.5 709.97 476.76 709.97 500.29 Z M 720.76 497.49 C 721.74 476.62 734.63 457 756.63 457 C 794.17 457 786.33 497.49 786.33 497.49 Z M 812.8 489.93 L 812.8 544.56 C 812.8 546.81 813.22 549.47 815.46 549.47 C 824.99 549.47 838.16 464.57 875.85 464.57 C 882.57 464.57 886.49 466.53 886.49 466.53 L 886.49 454.9 C 886.49 454.9 882.29 453.5 875.99 453.5 C 847.26 453.5 834.38 501.13 822.61 529.85 L 822.61 454.9 L 808.32 454.9 C 813.92 460.5 812.8 475.92 812.8 489.93 Z"/><path d="M 473.23 599.02 C 480.23 616.26 483.3 623.5 489.76 639.16 C 496.21 623.5 499.28 616.26 506.28 599.02 C 508.49 593.59 510.38 588.87 513.92 586.04 L 504.79 586.04 C 507.54 588.79 504.79 596.74 503.84 599.02 C 499.28 610.12 495.74 618.54 491.49 629.01 C 487.47 619.4 484.4 612.01 479.13 599.02 C 474.41 587.45 476.69 586.04 476.69 586.04 L 465.6 586.04 C 469.14 588.87 471.03 593.59 473.23 599.02 Z M 540.51 639.16 C 555.15 639.16 567.04 627.12 567.04 612.16 C 567.04 597.29 555.15 585.25 540.51 585.25 C 525.8 585.25 513.91 597.29 513.91 612.16 C 513.91 627.12 525.8 639.16 540.51 639.16 Z M 519.82 612.24 C 519.82 598.39 529.73 587.22 540.51 587.22 C 551.22 587.22 561.13 598.39 561.13 612.24 C 561.13 626.09 551.22 637.19 540.51 637.19 C 529.73 637.19 519.82 626.09 519.82 612.24 Z M 576.24 605.71 L 576.24 636.4 C 576.24 637.66 576.55 639.16 577.97 639.16 C 582.22 639.16 597.17 589.1 609.13 589.1 C 613.62 589.1 613.15 594.77 613.15 594.77 L 613.15 618.7 C 613.15 626.57 613.78 635.22 610.63 638.37 L 621.17 638.37 C 618.03 635.22 618.66 626.57 618.66 618.7 L 618.66 599.02 C 618.66 590.76 617.79 585.25 611.89 585.25 C 598.27 585.25 586.78 619.8 581.75 628.77 L 581.75 586.04 L 573.72 586.04 C 576.87 589.18 576.24 597.84 576.24 605.71 Z"/><path d="M 370.35 922.99 C 445.53 922.99 485.88 869.26 485.88 803.08 C 485.88 736.9 445.53 683.17 370.35 683.17 C 295.18 683.17 254.59 736.9 254.59 803.08 C 254.59 869.26 295.18 922.99 370.35 922.99 Z M 269.35 802.62 C 269.35 765.72 299.79 738.05 370.35 738.05 C 440.92 738.05 471.36 765.72 471.36 802.62 C 471.36 839.51 440.92 868.11 370.35 868.11 C 299.79 868.11 269.35 839.51 269.35 802.62 Z M 504.33 865.34 C 504.33 898.32 504.56 888.86 504.56 918.38 L 692.96 918.38 L 692.96 844.36 C 675.89 860.04 652.37 865.11 615.71 865.11 L 530.38 865.11 C 582.5 827.29 634.38 783.71 693.42 740.82 C 693.42 714.3 692.96 705.54 692.96 687.78 L 511.71 687.78 L 511.71 761.8 C 528.77 746.12 545.83 741.05 582.5 741.05 L 667.36 741.05 Z"/></svg>
