<?xml version="1.0" encoding="utf-8"?>
<svg version="1.1" viewBox="0 0 204.001 31.275" xmlns="http://www.w3.org/2000/svg">
  <g>
    <path d="M0.655,25.494V0.291h7.469v20.127h11.203v5.076H0.655z"/>
    <path d="M34.497,15.623v-4.305h-6.429l-0.539,1.54l-4.697,0.14c0-0.21,0.039-0.42,0.077-0.63c0.308-1.225,0.962-2.1,2.31-2.975 c0.77-0.49,1.656-0.84,3.581-1.19c1.001-0.175,2.117-0.245,3.619-0.14c2.502,0.14,3.118,0.28,4.774,0.945 c3.118,1.295,3.888,2.1,3.888,3.36c0,6.476,0,12.952,0,12.952h-6.237h0.154l-0.154-1.715c-0.154,0.14-0.308,0.28-0.462,0.385 c-0.962,0.771-1.54,1.05-2.772,1.47c-2.001,0.7-3.311,0.77-4.812,0.455c-2.887-0.63-4.196-1.645-4.812-3.22 c-0.462-1.19-0.346-2.24,0.5-3.851c0.539-0.98,1.078-1.575,2.002-2.135c0.193-0.14,0.347-0.21,0.539-0.315 c0.809-0.385,1.694-0.63,3.927-0.875C30.955,15.308,32.726,15.343,34.497,15.623z M28.221,22.063h7.276v-3.676h-7.276V22.063z"/>
    <path d="M60.599,1.341v-1.05h5.852v24.783h-5.505l-0.885-1.26c-0.27,0.21-0.578,0.42-0.886,0.595 c-1.193,0.735-2.502,1.12-3.888,1.225c-4.081,0.28-7.161-1.12-9.201-4.446c-0.462-0.77-0.847-1.61-1.04-2.45 c-0.693-2.765,0.077-5.425,2.079-7.596c0.924-1.015,2.041-1.785,3.119-2.24c2.618-1.12,3.927-1.155,8.123,0.07 c0.577,0.175,1.116,0.385,1.617,0.63c0.192,0.07,0.462,0.035,0.77-0.245c0.385-0.315,0.462-0.91-0.154-5.496V1.341z M51.628,20.803 h7.238v-7.666l-7.238-0.175V20.803z"/>
    <path d="M70.108,25.319h3.696v2.45c0.231,0.035,0.462,0.07,0.693,0.105c2.156,0.14,3.581-1.435,3.08-3.5 c-0.193-0.77-1.078-3.291-3.311-7.701c-0.346-0.665-0.693-1.33-0.693-1.33s-1.001-1.925-2.002-3.886 c-0.308-0.56-0.654-1.33-1.694-3.465h6.429l4.158,9.206l2.656-9.206h4.774l-6.814,19.392c-0.27,0.455-0.655,0.945-1.04,1.33 c-0.77,0.77-1.617,1.26-2.926,1.68c-1.501,0.49-2.541,0.56-3.503,0.385c-2.772-0.525-4.081-2.03-3.965-3.991 C69.685,26.264,69.839,25.774,70.108,25.319z"/>
    <path d="M96.673,25.319h-5.505V0.291h6.545v13.896l6.391-5.181h5.197l-4.658,5.041l5.659,11.376h-7.045l-3.465-8.086l-3.118,3.29 V25.319z"/>
    <path d="M113.497,3.931c-0.192-1.435,0.655-2.66,2.079-3.115c1.848-0.63,3.657,0.105,4.35,1.75c0.192,0.455,0.27,0.98,0.192,1.505 c-0.192,1.085-1,1.96-2.117,2.345C115.846,7.117,113.728,5.961,113.497,3.931z M119.272,25.494l-5.698-0.175V8.727l5.698-0.525 V25.494z"/>
    <path d="M130.629,25.494h-6.198V0.291h6.198V25.494z"/>
    <path d="M141.139,25.494h-6.198V0.291h6.198V25.494z"/>
    <path d="M164.314,16.918v0.525h-12.396l0.577,4.445h6.122l1.154-2.135h4.543c0,0-0.346,1.26-0.615,2.521 c-0.27,1.12-0.924,1.54-4.658,2.52c-5.043,1.295-8.585,0.595-11.242-1.995c-1.309-1.225-1.887-2.205-2.502-4.166 c-0.578-1.89-0.501-3.395,0.115-4.936c1.386-3.43,4.119-5.32,8.701-5.706c1.848-0.175,3.35,0.105,5.812,1.155 c2.85,1.19,3.85,2.485,4.273,6.056c0.039,0.385,0.076,0.77,0.115,1.155V16.918z M150.725,15.098h7.507l0.385-3.746l-7.661-0.21 L150.725,15.098z"/>
    <path d="M168.088,25.108V8.622l4.389,0.175l0.424,1.715c0.115-0.245,0.27-0.49,0.463-0.7c1.039-1.295,2.463-1.96,4.504-1.995 c1.27-0.035,2.617,0.35,3.85,1.19c0.385,0.245,0.732,0.525,1.039,0.84c1.309,1.365,1.811,3.01,1.463,5.706 c-0.037,0.28-0.076,0.56-0.076,0.56l-0.078,0.35h-5.736l-0.191-4.411h-3.811l0.615,13.056H168.088z"/>
    <path d="M186.684,19.998h5.428l0.193,1.715l6.391,0.315l0.154-2.73l-0.809-0.105l-0.502-0.105l-1.463-0.28 c0,0-0.5-0.07-0.961-0.175c-0.578-0.14-1.348-0.245-3.158-0.385c-0.27-0.035-0.654-0.105-1.5-0.455 c-0.193-0.07-0.348-0.14-0.502-0.245c-1.309-0.63-1.924-1.155-2.578-2.24c-0.463-0.77-0.654-1.575-0.617-2.345 c0.078-1.4,0.617-2.416,2.156-3.57c2.195-1.715,4.428-2.065,8.508-0.98c0.654,0.175,1.271,0.385,1.848,0.63l0.039,0.035 c0,0,0.732,0.42,1.463,0.805c0.463,0.245,0.848,0.63,1.117,1.05c0.5,0.77,0.115,1.68-0.693,1.925 c-0.424,0.14-1.039,0.14-2.311-0.035c-0.693-0.07-1.348-0.175-1.348-0.175L197,10.932l-5.08,0.49v2.275 c1.27,0,2.387,0.175,4.58,0.735c5.814,1.47,7.084,2.52,7.16,5.215c0,0.595-0.115,1.155-0.346,1.785 c-0.076,0.175-0.193,0.385-0.27,0.56c-0.848,1.47-1.693,2.03-4.428,2.73c-1.848,0.49-3.041,0.595-4.195,0.49 c-3.426-0.28-5.467-1.4-6.93-3.57C187.145,21.118,186.875,20.593,186.684,19.998z"/>
  </g>
</svg>