<?xml version="1.0" encoding="UTF-8" standalone="no"?>
<!DOCTYPE svg PUBLIC "-//W3C//DTD SVG 1.1//EN" "http://www.w3.org/Graphics/SVG/1.1/DTD/svg11.dtd">
<svg viewBox="0 0 1046 212" version="1.1" xmlns="http://www.w3.org/2000/svg" xmlns:xlink="http://www.w3.org/1999/xlink" xml:space="preserve" style="fill-rule:evenodd;clip-rule:evenodd;stroke-linejoin:round;stroke-miterlimit:2;">
    <g transform="matrix(1,0,0,1,-279,-369)">
        <g transform="matrix(266.667,0,0,266.667,281,572.26)">
            <path d="M0.248,-0.587L0.202,-0.594L0.201,-0.606L0.226,-0.632L0.236,-0.639L0.237,-0.65L0.259,-0.664L0.275,-0.663C0.279,-0.671 0.286,-0.678 0.294,-0.683C0.303,-0.689 0.316,-0.695 0.334,-0.701C0.343,-0.695 0.348,-0.677 0.35,-0.646C0.35,-0.636 0.351,-0.629 0.351,-0.623L0.35,-0.59L0.348,-0.583L0.351,-0.576L0.347,-0.552L0.345,-0.544C0.343,-0.524 0.34,-0.506 0.337,-0.487C0.333,-0.469 0.329,-0.451 0.323,-0.434L0.319,-0.428L0.321,-0.42L0.311,-0.386L0.308,-0.381L0.31,-0.373L0.303,-0.337L0.296,-0.319L0.289,-0.289L0.287,-0.272L0.28,-0.256C0.28,-0.244 0.275,-0.226 0.266,-0.205C0.258,-0.183 0.252,-0.167 0.25,-0.156L0.244,-0.152L0.245,-0.144L0.237,-0.114L0.233,-0.112L0.232,-0.091C0.227,-0.068 0.222,-0.05 0.217,-0.035C0.212,-0.021 0.206,-0.008 0.199,0.002C0.183,0.011 0.167,0.018 0.151,0.023C0.135,0.028 0.121,0.031 0.108,0.031C0.092,0.031 0.078,0.016 0.065,-0.014C0.058,-0.03 0.052,-0.042 0.047,-0.052L0.046,-0.062L0.038,-0.07L0.039,-0.082C0.035,-0.092 0.032,-0.104 0.029,-0.116C0.025,-0.128 0.021,-0.144 0.016,-0.164L0.017,-0.178L0.009,-0.186C0.007,-0.194 0.005,-0.203 0.004,-0.214C0.003,-0.224 0.003,-0.241 0.003,-0.265L0.005,-0.27L0.004,-0.278L0.017,-0.288L0.053,-0.287C0.062,-0.284 0.07,-0.278 0.076,-0.27C0.083,-0.262 0.088,-0.251 0.093,-0.238L0.111,-0.19L0.125,-0.156L0.095,-0.131L0.103,-0.125C0.106,-0.106 0.11,-0.092 0.115,-0.083C0.121,-0.074 0.127,-0.069 0.136,-0.067L0.146,-0.067L0.158,-0.092L0.157,-0.102L0.166,-0.11L0.17,-0.13L0.169,-0.14L0.191,-0.219L0.199,-0.23L0.197,-0.254C0.202,-0.268 0.206,-0.281 0.209,-0.294C0.212,-0.307 0.215,-0.319 0.216,-0.331L0.222,-0.34L0.221,-0.364C0.225,-0.384 0.229,-0.41 0.233,-0.441C0.237,-0.472 0.24,-0.493 0.242,-0.503L0.247,-0.511C0.247,-0.516 0.247,-0.522 0.246,-0.527C0.246,-0.532 0.246,-0.537 0.246,-0.542C0.246,-0.553 0.246,-0.561 0.247,-0.568C0.247,-0.574 0.247,-0.581 0.248,-0.587Z" style="fill-rule:nonzero;"/>
        </g>
        <g transform="matrix(266.667,0,0,266.667,386.599,572.26)">
            <path d="M0.121,-0.306L0.129,-0.312C0.129,-0.315 0.13,-0.319 0.133,-0.324C0.136,-0.329 0.137,-0.334 0.137,-0.34C0.137,-0.344 0.137,-0.347 0.136,-0.348C0.136,-0.348 0.135,-0.349 0.133,-0.349L0.131,-0.349L0.123,-0.344L0.104,-0.327L0.086,-0.309L0.07,-0.286C0.068,-0.282 0.066,-0.278 0.065,-0.275C0.064,-0.271 0.063,-0.268 0.063,-0.265C0.063,-0.264 0.063,-0.264 0.064,-0.264C0.064,-0.263 0.065,-0.263 0.065,-0.263C0.066,-0.263 0.067,-0.263 0.068,-0.264C0.069,-0.264 0.07,-0.265 0.072,-0.266C0.074,-0.266 0.075,-0.267 0.077,-0.267C0.078,-0.267 0.079,-0.267 0.081,-0.267C0.082,-0.267 0.083,-0.267 0.083,-0.268C0.084,-0.268 0.086,-0.27 0.088,-0.272L0.093,-0.281L0.101,-0.289L0.121,-0.306ZM-0.011,-0.156L-0.012,-0.165L-0.025,-0.156L-0.032,-0.151L-0.042,-0.143C-0.048,-0.14 -0.052,-0.137 -0.055,-0.136C-0.057,-0.134 -0.06,-0.132 -0.062,-0.131L-0.068,-0.126L-0.078,-0.121C-0.08,-0.117 -0.082,-0.114 -0.085,-0.113C-0.088,-0.111 -0.093,-0.11 -0.1,-0.11C-0.103,-0.11 -0.105,-0.111 -0.106,-0.112C-0.107,-0.112 -0.107,-0.115 -0.108,-0.119C-0.107,-0.123 -0.106,-0.127 -0.104,-0.129C-0.103,-0.131 -0.1,-0.133 -0.096,-0.135L-0.096,-0.145C-0.093,-0.148 -0.09,-0.151 -0.086,-0.155C-0.083,-0.158 -0.079,-0.163 -0.075,-0.168L-0.068,-0.178L-0.061,-0.181C-0.059,-0.186 -0.057,-0.189 -0.053,-0.192C-0.05,-0.195 -0.046,-0.198 -0.04,-0.2L-0.037,-0.207L-0.024,-0.215L-0.013,-0.224C-0.012,-0.225 -0.011,-0.226 -0.01,-0.227C-0.01,-0.229 -0.009,-0.231 -0.009,-0.233L-0.009,-0.237L-0.004,-0.246L-0.006,-0.252L-0.003,-0.26C-0.001,-0.272 0.002,-0.282 0.005,-0.289C0.007,-0.297 0.011,-0.304 0.015,-0.31L0.022,-0.314L0.02,-0.32C0.027,-0.333 0.035,-0.345 0.045,-0.357C0.055,-0.369 0.071,-0.384 0.092,-0.403L0.097,-0.403L0.101,-0.407L0.106,-0.408L0.109,-0.415C0.118,-0.422 0.126,-0.427 0.134,-0.43C0.142,-0.434 0.151,-0.435 0.16,-0.435C0.164,-0.435 0.167,-0.435 0.168,-0.435C0.17,-0.435 0.172,-0.434 0.174,-0.434L0.178,-0.432L0.198,-0.426L0.205,-0.417L0.208,-0.416C0.21,-0.411 0.211,-0.406 0.212,-0.402C0.213,-0.398 0.214,-0.396 0.214,-0.394C0.214,-0.392 0.214,-0.39 0.214,-0.389C0.213,-0.388 0.213,-0.387 0.213,-0.386L0.216,-0.379L0.215,-0.368L0.211,-0.355L0.204,-0.345L0.202,-0.334C0.2,-0.329 0.196,-0.325 0.193,-0.32C0.189,-0.316 0.184,-0.31 0.178,-0.304L0.175,-0.298C0.167,-0.288 0.158,-0.279 0.147,-0.269C0.136,-0.258 0.123,-0.247 0.106,-0.234L0.097,-0.231L0.094,-0.225L0.077,-0.214L0.07,-0.205C0.069,-0.204 0.068,-0.203 0.067,-0.202C0.066,-0.201 0.066,-0.2 0.066,-0.199C0.066,-0.196 0.066,-0.192 0.068,-0.189C0.069,-0.185 0.071,-0.18 0.073,-0.175L0.078,-0.169L0.081,-0.159C0.089,-0.153 0.097,-0.148 0.104,-0.146C0.112,-0.143 0.119,-0.141 0.127,-0.141C0.132,-0.141 0.136,-0.142 0.142,-0.144C0.147,-0.145 0.154,-0.148 0.162,-0.153L0.169,-0.155L0.186,-0.166L0.199,-0.165L0.202,-0.173C0.203,-0.174 0.207,-0.177 0.214,-0.184C0.221,-0.19 0.227,-0.195 0.233,-0.2L0.241,-0.204L0.247,-0.213C0.251,-0.216 0.256,-0.218 0.26,-0.22C0.265,-0.223 0.27,-0.224 0.275,-0.226C0.278,-0.23 0.281,-0.234 0.284,-0.236C0.288,-0.239 0.293,-0.241 0.298,-0.242L0.306,-0.25C0.309,-0.251 0.311,-0.252 0.314,-0.252C0.316,-0.253 0.318,-0.253 0.319,-0.253C0.323,-0.253 0.325,-0.252 0.327,-0.251C0.328,-0.25 0.329,-0.248 0.329,-0.245C0.329,-0.243 0.329,-0.241 0.328,-0.239C0.327,-0.236 0.326,-0.234 0.324,-0.232L0.322,-0.226C0.319,-0.222 0.316,-0.218 0.312,-0.213C0.307,-0.208 0.301,-0.203 0.294,-0.196L0.294,-0.193C0.294,-0.189 0.293,-0.186 0.291,-0.185C0.289,-0.183 0.285,-0.182 0.28,-0.182C0.276,-0.173 0.266,-0.163 0.252,-0.152L0.233,-0.136L0.228,-0.134C0.225,-0.132 0.223,-0.13 0.22,-0.127C0.217,-0.124 0.214,-0.121 0.209,-0.116L0.203,-0.109L0.191,-0.101C0.18,-0.092 0.168,-0.084 0.155,-0.078C0.142,-0.072 0.131,-0.069 0.121,-0.069L0.116,-0.069L0.105,-0.071L0.1,-0.068L0.086,-0.068C0.074,-0.068 0.064,-0.069 0.056,-0.072C0.048,-0.074 0.042,-0.078 0.038,-0.083L0.031,-0.082L0.019,-0.093L0.013,-0.104L0.008,-0.109C0.005,-0.114 0.002,-0.118 -0,-0.122C-0.002,-0.126 -0.004,-0.131 -0.006,-0.136L-0.011,-0.156Z" style="fill-rule:nonzero;"/>
        </g>
        <g transform="matrix(266.667,0,0,266.667,460.688,572.26)">
            <path d="M0.394,-0.192L0.409,-0.198L0.42,-0.205C0.423,-0.209 0.426,-0.211 0.428,-0.213C0.43,-0.215 0.433,-0.216 0.436,-0.216L0.459,-0.226L0.471,-0.239C0.475,-0.24 0.478,-0.241 0.48,-0.242C0.482,-0.243 0.484,-0.244 0.485,-0.246C0.488,-0.249 0.49,-0.251 0.493,-0.252C0.495,-0.253 0.498,-0.254 0.5,-0.254C0.502,-0.254 0.503,-0.254 0.504,-0.254C0.505,-0.253 0.506,-0.253 0.507,-0.253C0.508,-0.252 0.51,-0.25 0.51,-0.249C0.511,-0.248 0.511,-0.246 0.511,-0.245C0.511,-0.244 0.51,-0.24 0.508,-0.233C0.507,-0.231 0.507,-0.229 0.506,-0.227L0.494,-0.21L0.478,-0.195C0.477,-0.19 0.476,-0.187 0.474,-0.185C0.471,-0.183 0.467,-0.181 0.462,-0.181C0.46,-0.174 0.457,-0.169 0.454,-0.166C0.45,-0.162 0.444,-0.16 0.437,-0.158L0.433,-0.153L0.425,-0.149C0.422,-0.146 0.419,-0.144 0.417,-0.143C0.414,-0.141 0.41,-0.14 0.407,-0.14C0.407,-0.14 0.406,-0.139 0.405,-0.139C0.399,-0.134 0.394,-0.131 0.392,-0.128C0.387,-0.128 0.383,-0.127 0.38,-0.126C0.376,-0.125 0.373,-0.123 0.369,-0.121L0.362,-0.119L0.353,-0.12C0.351,-0.12 0.349,-0.12 0.347,-0.119C0.345,-0.119 0.342,-0.119 0.34,-0.119C0.333,-0.119 0.326,-0.121 0.318,-0.123C0.309,-0.126 0.3,-0.131 0.289,-0.137L0.286,-0.142C0.284,-0.144 0.281,-0.146 0.278,-0.149C0.276,-0.151 0.273,-0.155 0.271,-0.158L0.269,-0.165L0.266,-0.168C0.264,-0.172 0.261,-0.175 0.259,-0.179C0.257,-0.182 0.256,-0.186 0.254,-0.19C0.254,-0.191 0.255,-0.191 0.255,-0.192C0.256,-0.194 0.256,-0.196 0.256,-0.197C0.256,-0.199 0.255,-0.201 0.254,-0.202C0.253,-0.204 0.252,-0.205 0.249,-0.207C0.248,-0.213 0.248,-0.217 0.247,-0.22C0.246,-0.223 0.244,-0.226 0.242,-0.229L0.24,-0.241L0.235,-0.252C0.232,-0.249 0.229,-0.245 0.226,-0.241C0.222,-0.236 0.221,-0.234 0.22,-0.233C0.217,-0.231 0.214,-0.229 0.212,-0.226C0.21,-0.223 0.208,-0.22 0.207,-0.216C0.202,-0.214 0.199,-0.212 0.197,-0.209C0.195,-0.206 0.194,-0.202 0.193,-0.198L0.19,-0.191L0.168,-0.166L0.156,-0.159L0.151,-0.149L0.149,-0.147C0.135,-0.128 0.122,-0.113 0.11,-0.101L0.094,-0.091L0.084,-0.081C0.079,-0.078 0.075,-0.074 0.071,-0.071C0.067,-0.067 0.063,-0.063 0.06,-0.059L0.048,-0.054L0.035,-0.054C0.033,-0.054 0.03,-0.054 0.028,-0.053L0.02,-0.053C0.017,-0.052 0.014,-0.052 0.013,-0.051C0.011,-0.051 0.01,-0.051 0.009,-0.051C0.005,-0.051 0.002,-0.052 -0.002,-0.055C-0.006,-0.059 -0.008,-0.063 -0.01,-0.068L-0.011,-0.073L-0.013,-0.076L-0.014,-0.082L-0.016,-0.086C-0.016,-0.097 -0.015,-0.109 -0.012,-0.121C-0.009,-0.133 -0.004,-0.146 0.002,-0.162L0.006,-0.179C0,-0.175 -0.005,-0.171 -0.01,-0.167C-0.015,-0.163 -0.02,-0.158 -0.025,-0.154L-0.036,-0.149C-0.038,-0.146 -0.04,-0.143 -0.043,-0.141C-0.046,-0.14 -0.05,-0.138 -0.055,-0.137L-0.059,-0.134C-0.081,-0.117 -0.095,-0.109 -0.099,-0.109C-0.101,-0.109 -0.102,-0.109 -0.104,-0.11C-0.105,-0.111 -0.106,-0.113 -0.108,-0.116L-0.106,-0.124C-0.104,-0.127 -0.103,-0.13 -0.101,-0.131C-0.099,-0.133 -0.097,-0.133 -0.095,-0.134L-0.096,-0.145C-0.095,-0.148 -0.093,-0.15 -0.091,-0.152C-0.089,-0.154 -0.085,-0.157 -0.081,-0.159C-0.078,-0.163 -0.074,-0.167 -0.071,-0.171C-0.067,-0.174 -0.063,-0.178 -0.058,-0.181C-0.056,-0.188 -0.053,-0.192 -0.05,-0.195C-0.047,-0.198 -0.042,-0.2 -0.037,-0.201L-0.033,-0.211L-0.025,-0.214C-0.024,-0.217 -0.023,-0.22 -0.021,-0.222C-0.019,-0.224 -0.016,-0.225 -0.012,-0.227C-0.012,-0.227 -0.011,-0.227 -0.01,-0.227C-0.009,-0.226 -0.008,-0.226 -0.008,-0.226C-0.007,-0.226 -0.005,-0.227 -0.004,-0.228C-0.003,-0.229 -0.003,-0.231 -0.002,-0.234C0.004,-0.239 0.009,-0.245 0.015,-0.25C0.021,-0.255 0.027,-0.261 0.034,-0.266C0.042,-0.268 0.047,-0.271 0.049,-0.273C0.052,-0.275 0.053,-0.278 0.053,-0.281L0.053,-0.283C0.053,-0.283 0.057,-0.287 0.066,-0.295C0.074,-0.303 0.083,-0.311 0.092,-0.32L0.097,-0.326L0.112,-0.338L0.129,-0.354C0.135,-0.361 0.143,-0.369 0.154,-0.379C0.164,-0.388 0.177,-0.399 0.193,-0.412C0.197,-0.416 0.203,-0.42 0.21,-0.426C0.217,-0.431 0.225,-0.437 0.235,-0.445C0.241,-0.448 0.246,-0.45 0.25,-0.451C0.253,-0.452 0.256,-0.452 0.258,-0.452C0.26,-0.459 0.263,-0.466 0.265,-0.473C0.267,-0.481 0.269,-0.489 0.271,-0.498L0.276,-0.504C0.282,-0.525 0.289,-0.546 0.296,-0.566C0.304,-0.586 0.312,-0.605 0.321,-0.624L0.328,-0.63L0.328,-0.634C0.328,-0.639 0.329,-0.643 0.331,-0.647C0.332,-0.651 0.335,-0.654 0.338,-0.658C0.339,-0.659 0.339,-0.66 0.34,-0.66C0.344,-0.665 0.347,-0.67 0.348,-0.674L0.357,-0.684L0.36,-0.698C0.363,-0.704 0.367,-0.711 0.371,-0.717C0.376,-0.724 0.381,-0.73 0.387,-0.737L0.396,-0.749L0.406,-0.755L0.41,-0.752L0.415,-0.756C0.42,-0.755 0.424,-0.755 0.426,-0.754C0.428,-0.753 0.431,-0.753 0.433,-0.752L0.437,-0.744L0.434,-0.739L0.438,-0.734L0.438,-0.73C0.438,-0.722 0.436,-0.712 0.432,-0.698C0.431,-0.695 0.431,-0.694 0.43,-0.693L0.431,-0.683C0.43,-0.675 0.428,-0.668 0.426,-0.662C0.424,-0.655 0.421,-0.65 0.417,-0.645L0.418,-0.637C0.417,-0.63 0.415,-0.624 0.413,-0.617C0.411,-0.611 0.409,-0.605 0.406,-0.6L0.401,-0.595L0.402,-0.591L0.4,-0.585L0.399,-0.578C0.396,-0.576 0.394,-0.573 0.392,-0.57C0.391,-0.567 0.39,-0.564 0.39,-0.56C0.39,-0.559 0.39,-0.558 0.391,-0.556C0.391,-0.555 0.391,-0.553 0.391,-0.552C0.39,-0.544 0.388,-0.536 0.384,-0.528C0.381,-0.521 0.377,-0.512 0.371,-0.503C0.368,-0.501 0.367,-0.499 0.366,-0.498C0.365,-0.496 0.364,-0.495 0.364,-0.493C0.364,-0.493 0.364,-0.492 0.365,-0.49C0.365,-0.489 0.365,-0.488 0.365,-0.488C0.364,-0.484 0.362,-0.479 0.359,-0.474C0.357,-0.469 0.354,-0.464 0.351,-0.458C0.348,-0.457 0.346,-0.457 0.345,-0.456C0.344,-0.456 0.343,-0.455 0.343,-0.454C0.343,-0.453 0.343,-0.452 0.344,-0.451C0.344,-0.45 0.345,-0.448 0.346,-0.445C0.344,-0.439 0.341,-0.432 0.337,-0.423C0.333,-0.414 0.329,-0.406 0.324,-0.396L0.319,-0.385C0.317,-0.379 0.315,-0.373 0.314,-0.367C0.313,-0.361 0.313,-0.355 0.313,-0.349L0.313,-0.342L0.31,-0.331L0.313,-0.32C0.313,-0.308 0.314,-0.296 0.315,-0.284C0.317,-0.272 0.319,-0.26 0.322,-0.247C0.322,-0.246 0.321,-0.245 0.321,-0.244C0.32,-0.242 0.32,-0.241 0.32,-0.241C0.32,-0.24 0.32,-0.239 0.322,-0.237C0.323,-0.236 0.324,-0.235 0.326,-0.234L0.333,-0.219C0.335,-0.217 0.337,-0.214 0.339,-0.211C0.34,-0.208 0.342,-0.205 0.343,-0.202C0.346,-0.2 0.35,-0.198 0.353,-0.197C0.357,-0.195 0.362,-0.193 0.368,-0.191C0.368,-0.191 0.369,-0.191 0.371,-0.19C0.377,-0.189 0.381,-0.189 0.384,-0.189C0.385,-0.189 0.387,-0.189 0.389,-0.19C0.391,-0.191 0.393,-0.192 0.394,-0.192ZM0.13,-0.187L0.137,-0.199C0.145,-0.207 0.152,-0.215 0.159,-0.223C0.166,-0.232 0.173,-0.241 0.18,-0.251L0.187,-0.254L0.193,-0.265C0.2,-0.275 0.209,-0.287 0.219,-0.304C0.228,-0.32 0.235,-0.331 0.239,-0.336C0.24,-0.351 0.241,-0.361 0.241,-0.368C0.242,-0.375 0.243,-0.382 0.245,-0.388L0.235,-0.387L0.231,-0.378L0.225,-0.37L0.202,-0.345L0.197,-0.341L0.189,-0.337L0.188,-0.33C0.187,-0.328 0.184,-0.325 0.181,-0.321C0.168,-0.304 0.157,-0.289 0.146,-0.276C0.142,-0.273 0.139,-0.269 0.137,-0.265C0.135,-0.261 0.133,-0.257 0.132,-0.253C0.129,-0.25 0.126,-0.247 0.123,-0.243C0.12,-0.239 0.118,-0.235 0.117,-0.231C0.114,-0.229 0.112,-0.226 0.109,-0.223C0.107,-0.22 0.105,-0.216 0.103,-0.212C0.102,-0.208 0.101,-0.204 0.1,-0.201C0.098,-0.198 0.096,-0.195 0.092,-0.192C0.091,-0.19 0.09,-0.187 0.088,-0.183C0.086,-0.18 0.084,-0.176 0.081,-0.171C0.08,-0.169 0.079,-0.167 0.078,-0.164C0.074,-0.157 0.072,-0.15 0.072,-0.145C0.074,-0.144 0.075,-0.143 0.077,-0.143C0.078,-0.142 0.079,-0.142 0.08,-0.142C0.082,-0.142 0.084,-0.143 0.087,-0.146C0.089,-0.148 0.092,-0.151 0.095,-0.156L0.104,-0.162C0.106,-0.165 0.109,-0.169 0.113,-0.174C0.119,-0.183 0.125,-0.187 0.129,-0.187L0.13,-0.187Z" style="fill-rule:nonzero;"/>
        </g>
        <g transform="matrix(266.667,0,0,266.667,583.865,572.26)">
            <path d="M0.121,-0.306L0.129,-0.312C0.129,-0.315 0.13,-0.319 0.133,-0.324C0.136,-0.329 0.137,-0.334 0.137,-0.34C0.137,-0.344 0.137,-0.347 0.136,-0.348C0.136,-0.348 0.135,-0.349 0.133,-0.349L0.131,-0.349L0.123,-0.344L0.104,-0.327L0.086,-0.309L0.07,-0.286C0.068,-0.282 0.066,-0.278 0.065,-0.275C0.064,-0.271 0.063,-0.268 0.063,-0.265C0.063,-0.264 0.063,-0.264 0.064,-0.264C0.064,-0.263 0.065,-0.263 0.065,-0.263C0.066,-0.263 0.067,-0.263 0.068,-0.264C0.069,-0.264 0.07,-0.265 0.072,-0.266C0.074,-0.266 0.075,-0.267 0.077,-0.267C0.078,-0.267 0.079,-0.267 0.081,-0.267C0.082,-0.267 0.083,-0.267 0.083,-0.268C0.084,-0.268 0.086,-0.27 0.088,-0.272L0.093,-0.281L0.101,-0.289L0.121,-0.306ZM-0.011,-0.156L-0.012,-0.165L-0.025,-0.156L-0.032,-0.151L-0.042,-0.143C-0.048,-0.14 -0.052,-0.137 -0.055,-0.136C-0.057,-0.134 -0.06,-0.132 -0.062,-0.131L-0.068,-0.126L-0.078,-0.121C-0.08,-0.117 -0.082,-0.114 -0.085,-0.113C-0.088,-0.111 -0.093,-0.11 -0.1,-0.11C-0.103,-0.11 -0.105,-0.111 -0.106,-0.112C-0.107,-0.112 -0.107,-0.115 -0.108,-0.119C-0.107,-0.123 -0.106,-0.127 -0.104,-0.129C-0.103,-0.131 -0.1,-0.133 -0.096,-0.135L-0.096,-0.145C-0.093,-0.148 -0.09,-0.151 -0.086,-0.155C-0.083,-0.158 -0.079,-0.163 -0.075,-0.168L-0.068,-0.178L-0.061,-0.181C-0.059,-0.186 -0.057,-0.189 -0.053,-0.192C-0.05,-0.195 -0.046,-0.198 -0.04,-0.2L-0.037,-0.207L-0.024,-0.215L-0.013,-0.224C-0.012,-0.225 -0.011,-0.226 -0.01,-0.227C-0.01,-0.229 -0.009,-0.231 -0.009,-0.233L-0.009,-0.237L-0.004,-0.246L-0.006,-0.252L-0.003,-0.26C-0.001,-0.272 0.002,-0.282 0.005,-0.289C0.007,-0.297 0.011,-0.304 0.015,-0.31L0.022,-0.314L0.02,-0.32C0.027,-0.333 0.035,-0.345 0.045,-0.357C0.055,-0.369 0.071,-0.384 0.092,-0.403L0.097,-0.403L0.101,-0.407L0.106,-0.408L0.109,-0.415C0.118,-0.422 0.126,-0.427 0.134,-0.43C0.142,-0.434 0.151,-0.435 0.16,-0.435C0.164,-0.435 0.167,-0.435 0.168,-0.435C0.17,-0.435 0.172,-0.434 0.174,-0.434L0.178,-0.432L0.198,-0.426L0.205,-0.417L0.208,-0.416C0.21,-0.411 0.211,-0.406 0.212,-0.402C0.213,-0.398 0.214,-0.396 0.214,-0.394C0.214,-0.392 0.214,-0.39 0.214,-0.389C0.213,-0.388 0.213,-0.387 0.213,-0.386L0.216,-0.379L0.215,-0.368L0.211,-0.355L0.204,-0.345L0.202,-0.334C0.2,-0.329 0.196,-0.325 0.193,-0.32C0.189,-0.316 0.184,-0.31 0.178,-0.304L0.175,-0.298C0.167,-0.288 0.158,-0.279 0.147,-0.269C0.136,-0.258 0.123,-0.247 0.106,-0.234L0.097,-0.231L0.094,-0.225L0.077,-0.214L0.07,-0.205C0.069,-0.204 0.068,-0.203 0.067,-0.202C0.066,-0.201 0.066,-0.2 0.066,-0.199C0.066,-0.196 0.066,-0.192 0.068,-0.189C0.069,-0.185 0.071,-0.18 0.073,-0.175L0.078,-0.169L0.081,-0.159C0.089,-0.153 0.097,-0.148 0.104,-0.146C0.112,-0.143 0.119,-0.141 0.127,-0.141C0.132,-0.141 0.136,-0.142 0.142,-0.144C0.147,-0.145 0.154,-0.148 0.162,-0.153L0.169,-0.155L0.186,-0.166L0.199,-0.165L0.202,-0.173C0.203,-0.174 0.207,-0.177 0.214,-0.184C0.221,-0.19 0.227,-0.195 0.233,-0.2L0.241,-0.204L0.247,-0.213C0.251,-0.216 0.256,-0.218 0.26,-0.22C0.265,-0.223 0.27,-0.224 0.275,-0.226C0.278,-0.23 0.281,-0.234 0.284,-0.236C0.288,-0.239 0.293,-0.241 0.298,-0.242L0.306,-0.25C0.309,-0.251 0.311,-0.252 0.314,-0.252C0.316,-0.253 0.318,-0.253 0.319,-0.253C0.323,-0.253 0.325,-0.252 0.327,-0.251C0.328,-0.25 0.329,-0.248 0.329,-0.245C0.329,-0.243 0.329,-0.241 0.328,-0.239C0.327,-0.236 0.326,-0.234 0.324,-0.232L0.322,-0.226C0.319,-0.222 0.316,-0.218 0.312,-0.213C0.307,-0.208 0.301,-0.203 0.294,-0.196L0.294,-0.193C0.294,-0.189 0.293,-0.186 0.291,-0.185C0.289,-0.183 0.285,-0.182 0.28,-0.182C0.276,-0.173 0.266,-0.163 0.252,-0.152L0.233,-0.136L0.228,-0.134C0.225,-0.132 0.223,-0.13 0.22,-0.127C0.217,-0.124 0.214,-0.121 0.209,-0.116L0.203,-0.109L0.191,-0.101C0.18,-0.092 0.168,-0.084 0.155,-0.078C0.142,-0.072 0.131,-0.069 0.121,-0.069L0.116,-0.069L0.105,-0.071L0.1,-0.068L0.086,-0.068C0.074,-0.068 0.064,-0.069 0.056,-0.072C0.048,-0.074 0.042,-0.078 0.038,-0.083L0.031,-0.082L0.019,-0.093L0.013,-0.104L0.008,-0.109C0.005,-0.114 0.002,-0.118 -0,-0.122C-0.002,-0.126 -0.004,-0.131 -0.006,-0.136L-0.011,-0.156Z" style="fill-rule:nonzero;"/>
        </g>
        <g transform="matrix(266.667,0,0,266.667,657.953,572.26)">
            <path d="M-0.019,-0.161L-0.022,-0.156C-0.028,-0.155 -0.033,-0.152 -0.039,-0.147C-0.045,-0.141 -0.05,-0.138 -0.053,-0.137L-0.062,-0.13C-0.072,-0.126 -0.08,-0.12 -0.086,-0.114C-0.088,-0.113 -0.089,-0.112 -0.089,-0.112C-0.09,-0.112 -0.092,-0.112 -0.093,-0.112C-0.094,-0.113 -0.095,-0.113 -0.096,-0.114L-0.098,-0.117L-0.098,-0.119C-0.098,-0.123 -0.094,-0.132 -0.085,-0.144C-0.079,-0.154 -0.074,-0.162 -0.071,-0.168L-0.064,-0.175C-0.057,-0.176 -0.052,-0.181 -0.048,-0.189C-0.043,-0.197 -0.039,-0.202 -0.036,-0.205C-0.035,-0.209 -0.033,-0.213 -0.031,-0.215C-0.028,-0.218 -0.026,-0.219 -0.022,-0.221L-0.003,-0.242L-0.002,-0.251L0.032,-0.289L0.038,-0.292L0.04,-0.296L0.042,-0.308L0.051,-0.321L0.054,-0.323L0.053,-0.331L0.049,-0.341C0.049,-0.341 0.049,-0.342 0.048,-0.342C0.048,-0.343 0.048,-0.344 0.048,-0.344C0.048,-0.351 0.053,-0.359 0.063,-0.369C0.073,-0.378 0.084,-0.385 0.097,-0.389L0.108,-0.396L0.12,-0.398L0.144,-0.398L0.145,-0.396L0.152,-0.395L0.164,-0.39L0.168,-0.384L0.177,-0.378L0.187,-0.375C0.193,-0.37 0.202,-0.363 0.215,-0.354C0.227,-0.345 0.235,-0.337 0.238,-0.331L0.251,-0.317L0.253,-0.312L0.252,-0.304L0.257,-0.298L0.259,-0.29C0.261,-0.283 0.262,-0.277 0.262,-0.274C0.263,-0.27 0.263,-0.267 0.263,-0.264C0.263,-0.246 0.258,-0.221 0.248,-0.189C0.237,-0.157 0.231,-0.136 0.228,-0.124L0.235,-0.124L0.247,-0.133L0.254,-0.134L0.289,-0.16L0.296,-0.161L0.301,-0.172L0.316,-0.185L0.324,-0.189L0.329,-0.194L0.34,-0.206L0.346,-0.21C0.362,-0.219 0.375,-0.226 0.384,-0.23C0.394,-0.235 0.401,-0.237 0.405,-0.237C0.407,-0.237 0.409,-0.236 0.411,-0.235C0.412,-0.234 0.413,-0.233 0.413,-0.231C0.413,-0.229 0.411,-0.224 0.406,-0.215C0.402,-0.206 0.398,-0.201 0.394,-0.199L0.382,-0.186C0.378,-0.183 0.374,-0.178 0.369,-0.172C0.363,-0.165 0.36,-0.16 0.357,-0.158L0.352,-0.151L0.341,-0.147L0.34,-0.144L0.334,-0.138L0.324,-0.133L0.313,-0.12L0.308,-0.111L0.294,-0.108L0.291,-0.102C0.286,-0.097 0.281,-0.093 0.276,-0.089C0.27,-0.085 0.264,-0.081 0.257,-0.078L0.246,-0.07C0.242,-0.07 0.239,-0.069 0.236,-0.068C0.234,-0.067 0.232,-0.065 0.23,-0.062L0.215,-0.049L0.207,-0.05C0.206,-0.049 0.206,-0.049 0.205,-0.048C0.201,-0.046 0.198,-0.043 0.197,-0.041L0.162,-0.037L0.155,-0.04L0.15,-0.039C0.145,-0.04 0.142,-0.042 0.139,-0.045C0.137,-0.047 0.136,-0.052 0.136,-0.057C0.136,-0.062 0.137,-0.068 0.139,-0.074C0.14,-0.081 0.143,-0.088 0.147,-0.097L0.149,-0.105L0.155,-0.115L0.156,-0.122L0.172,-0.175L0.174,-0.18L0.174,-0.188C0.175,-0.196 0.176,-0.204 0.176,-0.21C0.177,-0.216 0.177,-0.221 0.177,-0.225C0.177,-0.235 0.175,-0.243 0.172,-0.25C0.169,-0.256 0.164,-0.262 0.157,-0.268L0.155,-0.276C0.149,-0.277 0.144,-0.279 0.139,-0.281C0.134,-0.284 0.128,-0.288 0.122,-0.294L0.112,-0.296L0.105,-0.284L0.082,-0.271L0.074,-0.26L0.068,-0.254L0.057,-0.241L0.049,-0.227L0.027,-0.204L0.022,-0.197L0.011,-0.193L0.008,-0.188L-0.004,-0.173C-0.006,-0.169 -0.008,-0.167 -0.01,-0.165C-0.012,-0.163 -0.015,-0.161 -0.019,-0.161Z" style="fill-rule:nonzero;"/>
        </g>
        <g transform="matrix(266.667,0,0,266.667,758.474,572.26)">
            <path d="M0.056,-0.062L0.049,-0.061C0.048,-0.061 0.046,-0.061 0.044,-0.062C0.042,-0.062 0.039,-0.063 0.036,-0.064L0.032,-0.07L0.032,-0.083L0.038,-0.102L0.038,-0.11L0.048,-0.142L0.051,-0.154L0.057,-0.164L0.057,-0.179L0.067,-0.21C0.068,-0.213 0.069,-0.216 0.07,-0.22C0.071,-0.224 0.072,-0.226 0.072,-0.227C0.072,-0.229 0.071,-0.23 0.069,-0.231C0.068,-0.232 0.066,-0.233 0.063,-0.233C0.061,-0.233 0.059,-0.232 0.057,-0.231C0.055,-0.23 0.052,-0.229 0.049,-0.227L0.039,-0.225C0.036,-0.215 0.032,-0.208 0.027,-0.202C0.022,-0.196 0.015,-0.191 0.007,-0.187L-0.001,-0.181L-0.024,-0.157C-0.027,-0.155 -0.03,-0.153 -0.033,-0.15C-0.036,-0.148 -0.038,-0.145 -0.041,-0.141C-0.046,-0.14 -0.05,-0.139 -0.054,-0.137C-0.058,-0.135 -0.062,-0.132 -0.065,-0.128C-0.068,-0.127 -0.07,-0.126 -0.072,-0.124C-0.075,-0.123 -0.078,-0.12 -0.082,-0.117C-0.085,-0.114 -0.088,-0.112 -0.091,-0.111C-0.093,-0.11 -0.097,-0.109 -0.101,-0.109C-0.103,-0.109 -0.104,-0.11 -0.106,-0.111C-0.108,-0.112 -0.109,-0.114 -0.11,-0.117C-0.11,-0.123 -0.107,-0.127 -0.101,-0.131C-0.096,-0.135 -0.093,-0.139 -0.093,-0.143C-0.093,-0.144 -0.093,-0.145 -0.094,-0.146C-0.094,-0.146 -0.094,-0.147 -0.094,-0.148L-0.093,-0.149C-0.085,-0.159 -0.078,-0.165 -0.073,-0.169C-0.071,-0.174 -0.069,-0.177 -0.067,-0.179C-0.065,-0.181 -0.062,-0.182 -0.058,-0.183C-0.056,-0.187 -0.054,-0.191 -0.052,-0.194C-0.049,-0.197 -0.045,-0.2 -0.041,-0.202L-0.035,-0.209L-0.034,-0.209C-0.032,-0.209 -0.029,-0.211 -0.027,-0.215C-0.025,-0.218 -0.023,-0.221 -0.022,-0.222L-0.014,-0.229L-0.014,-0.234C0.001,-0.249 0.02,-0.269 0.044,-0.293C0.097,-0.349 0.133,-0.377 0.153,-0.377C0.161,-0.377 0.167,-0.375 0.172,-0.37C0.176,-0.365 0.178,-0.358 0.178,-0.349C0.178,-0.339 0.177,-0.33 0.176,-0.321C0.174,-0.312 0.172,-0.303 0.169,-0.296L0.169,-0.283L0.167,-0.27L0.16,-0.247L0.159,-0.237L0.157,-0.227L0.166,-0.233L0.176,-0.244L0.214,-0.278L0.248,-0.316L0.287,-0.355L0.303,-0.375L0.316,-0.384C0.319,-0.386 0.322,-0.387 0.326,-0.388C0.33,-0.389 0.338,-0.389 0.35,-0.389L0.364,-0.39C0.365,-0.39 0.366,-0.39 0.367,-0.391C0.368,-0.391 0.368,-0.391 0.369,-0.391C0.373,-0.391 0.375,-0.389 0.377,-0.383C0.379,-0.378 0.38,-0.37 0.38,-0.358C0.38,-0.346 0.379,-0.334 0.378,-0.322C0.377,-0.309 0.375,-0.296 0.372,-0.282L0.372,-0.278L0.37,-0.271L0.369,-0.261L0.367,-0.254L0.365,-0.24L0.359,-0.223L0.355,-0.199L0.377,-0.226C0.402,-0.252 0.421,-0.27 0.434,-0.281C0.447,-0.291 0.458,-0.298 0.467,-0.302L0.476,-0.302L0.496,-0.307C0.505,-0.305 0.514,-0.3 0.522,-0.292C0.531,-0.284 0.538,-0.274 0.544,-0.262L0.547,-0.25L0.552,-0.245C0.556,-0.239 0.561,-0.23 0.566,-0.219C0.577,-0.198 0.588,-0.188 0.599,-0.188C0.602,-0.188 0.607,-0.189 0.614,-0.191C0.615,-0.192 0.616,-0.192 0.616,-0.192L0.624,-0.195L0.627,-0.204L0.639,-0.214C0.64,-0.215 0.642,-0.216 0.645,-0.217C0.653,-0.222 0.66,-0.225 0.664,-0.227C0.667,-0.231 0.671,-0.234 0.674,-0.237C0.678,-0.24 0.681,-0.242 0.685,-0.243L0.695,-0.251C0.697,-0.252 0.699,-0.253 0.701,-0.253C0.703,-0.254 0.704,-0.254 0.706,-0.254C0.709,-0.254 0.712,-0.253 0.714,-0.252C0.717,-0.25 0.718,-0.248 0.718,-0.246C0.718,-0.245 0.717,-0.243 0.717,-0.241C0.716,-0.24 0.715,-0.237 0.713,-0.234L0.713,-0.228C0.709,-0.224 0.704,-0.219 0.697,-0.21C0.69,-0.202 0.685,-0.196 0.682,-0.193L0.682,-0.19C0.682,-0.187 0.681,-0.185 0.679,-0.184C0.677,-0.183 0.674,-0.182 0.67,-0.182C0.667,-0.174 0.662,-0.167 0.653,-0.161C0.65,-0.159 0.648,-0.156 0.646,-0.155C0.636,-0.142 0.627,-0.133 0.62,-0.128C0.612,-0.123 0.605,-0.119 0.597,-0.118L0.587,-0.112C0.584,-0.111 0.581,-0.11 0.579,-0.11C0.576,-0.109 0.574,-0.109 0.572,-0.109C0.567,-0.109 0.562,-0.11 0.558,-0.112C0.553,-0.114 0.549,-0.117 0.545,-0.121L0.531,-0.128L0.518,-0.138L0.493,-0.169L0.485,-0.177L0.482,-0.184L0.465,-0.194C0.464,-0.194 0.463,-0.195 0.462,-0.195C0.451,-0.201 0.444,-0.203 0.44,-0.203C0.436,-0.203 0.429,-0.199 0.419,-0.191C0.414,-0.188 0.41,-0.184 0.406,-0.182L0.383,-0.167L0.353,-0.126L0.331,-0.105L0.322,-0.092L0.301,-0.066C0.295,-0.058 0.289,-0.052 0.284,-0.049C0.279,-0.046 0.273,-0.045 0.266,-0.045C0.258,-0.045 0.252,-0.047 0.249,-0.052C0.246,-0.057 0.244,-0.065 0.244,-0.077L0.255,-0.118L0.266,-0.157L0.274,-0.186L0.278,-0.205L0.277,-0.21L0.281,-0.227L0.284,-0.237L0.284,-0.245C0.284,-0.251 0.283,-0.255 0.281,-0.258C0.279,-0.261 0.277,-0.262 0.273,-0.262C0.27,-0.262 0.267,-0.261 0.262,-0.258C0.258,-0.255 0.252,-0.251 0.245,-0.245L0.234,-0.232L0.217,-0.22L0.193,-0.193C0.187,-0.187 0.183,-0.183 0.18,-0.18C0.176,-0.178 0.173,-0.175 0.17,-0.173L0.166,-0.163L0.139,-0.133L0.133,-0.129L0.119,-0.112C0.116,-0.107 0.111,-0.101 0.105,-0.094C0.098,-0.087 0.09,-0.078 0.08,-0.069C0.077,-0.066 0.074,-0.064 0.071,-0.062C0.068,-0.061 0.066,-0.06 0.063,-0.06C0.062,-0.06 0.06,-0.06 0.059,-0.061C0.058,-0.061 0.057,-0.061 0.056,-0.062Z" style="fill-rule:nonzero;"/>
        </g>
        <g transform="matrix(266.667,0,0,266.667,937.12,572.26)">
            <path d="M0.004,-0.176C-0.002,-0.174 -0.007,-0.17 -0.011,-0.163C-0.016,-0.155 -0.018,-0.152 -0.02,-0.152C-0.022,-0.152 -0.023,-0.153 -0.024,-0.154C-0.026,-0.155 -0.027,-0.156 -0.028,-0.156C-0.029,-0.156 -0.03,-0.156 -0.031,-0.155C-0.031,-0.155 -0.033,-0.153 -0.035,-0.151L-0.041,-0.144C-0.044,-0.141 -0.049,-0.139 -0.054,-0.136C-0.059,-0.134 -0.063,-0.132 -0.064,-0.129L-0.072,-0.124L-0.079,-0.117L-0.087,-0.111C-0.089,-0.11 -0.091,-0.109 -0.093,-0.109C-0.095,-0.108 -0.097,-0.108 -0.098,-0.108C-0.1,-0.108 -0.101,-0.108 -0.102,-0.108C-0.103,-0.108 -0.104,-0.109 -0.105,-0.109L-0.107,-0.114C-0.107,-0.119 -0.106,-0.124 -0.104,-0.127C-0.103,-0.13 -0.1,-0.132 -0.097,-0.134L-0.098,-0.145C-0.096,-0.147 -0.093,-0.15 -0.089,-0.153C-0.086,-0.157 -0.081,-0.161 -0.074,-0.168L-0.071,-0.179L-0.067,-0.179C-0.064,-0.179 -0.062,-0.18 -0.06,-0.181C-0.058,-0.182 -0.056,-0.184 -0.055,-0.187L-0.05,-0.196L-0.035,-0.202C-0.032,-0.207 -0.029,-0.211 -0.026,-0.215C-0.023,-0.219 -0.019,-0.222 -0.016,-0.225C-0.009,-0.231 -0.004,-0.235 0.001,-0.239C0.005,-0.242 0.009,-0.245 0.013,-0.247L0.019,-0.249C0.02,-0.252 0.022,-0.256 0.025,-0.259C0.028,-0.262 0.033,-0.267 0.039,-0.273L0.055,-0.286C0.059,-0.291 0.063,-0.295 0.067,-0.3C0.072,-0.304 0.076,-0.309 0.082,-0.315L0.091,-0.317L0.091,-0.324L0.127,-0.351L0.14,-0.359C0.141,-0.361 0.143,-0.363 0.145,-0.364C0.147,-0.365 0.149,-0.367 0.152,-0.368L0.16,-0.377L0.166,-0.381C0.169,-0.385 0.172,-0.389 0.176,-0.392C0.179,-0.395 0.184,-0.397 0.189,-0.399L0.194,-0.401L0.198,-0.408C0.207,-0.415 0.218,-0.423 0.233,-0.433C0.239,-0.437 0.243,-0.439 0.245,-0.441L0.258,-0.449C0.262,-0.451 0.265,-0.453 0.268,-0.454C0.27,-0.455 0.272,-0.455 0.274,-0.455C0.276,-0.455 0.279,-0.456 0.281,-0.458C0.284,-0.459 0.286,-0.46 0.287,-0.46L0.3,-0.459C0.305,-0.459 0.31,-0.457 0.315,-0.454C0.321,-0.451 0.323,-0.448 0.323,-0.446C0.323,-0.445 0.323,-0.445 0.322,-0.444C0.322,-0.443 0.321,-0.442 0.321,-0.441C0.321,-0.441 0.322,-0.44 0.323,-0.439C0.325,-0.438 0.325,-0.438 0.325,-0.437C0.325,-0.432 0.321,-0.426 0.313,-0.417C0.305,-0.408 0.295,-0.401 0.283,-0.394L0.276,-0.386C0.276,-0.383 0.269,-0.376 0.255,-0.365C0.247,-0.358 0.24,-0.352 0.235,-0.347L0.227,-0.342L0.22,-0.333L0.211,-0.325L0.201,-0.314L0.192,-0.309L0.189,-0.303L0.175,-0.289L0.165,-0.278L0.155,-0.274C0.15,-0.267 0.145,-0.261 0.139,-0.254C0.134,-0.247 0.128,-0.239 0.121,-0.232L0.104,-0.217L0.089,-0.202C0.088,-0.199 0.087,-0.196 0.085,-0.194C0.084,-0.191 0.082,-0.189 0.079,-0.186L0.073,-0.168C0.075,-0.167 0.076,-0.167 0.077,-0.167C0.077,-0.167 0.078,-0.167 0.08,-0.167C0.081,-0.168 0.083,-0.168 0.085,-0.169L0.096,-0.177L0.106,-0.18L0.112,-0.185L0.121,-0.196L0.126,-0.198L0.134,-0.199C0.135,-0.204 0.138,-0.208 0.144,-0.21C0.146,-0.211 0.147,-0.212 0.148,-0.212L0.151,-0.219L0.162,-0.227C0.168,-0.232 0.174,-0.238 0.181,-0.243C0.188,-0.249 0.196,-0.255 0.205,-0.261L0.221,-0.279L0.242,-0.297C0.247,-0.303 0.253,-0.308 0.26,-0.311C0.268,-0.313 0.276,-0.315 0.286,-0.315C0.291,-0.315 0.295,-0.312 0.299,-0.307C0.303,-0.302 0.305,-0.296 0.305,-0.288L0.305,-0.286L0.302,-0.278L0.303,-0.273L0.302,-0.248L0.3,-0.239L0.303,-0.232L0.304,-0.218C0.307,-0.207 0.312,-0.199 0.318,-0.194C0.324,-0.189 0.332,-0.186 0.341,-0.186C0.346,-0.186 0.353,-0.19 0.363,-0.197C0.372,-0.204 0.377,-0.209 0.377,-0.213C0.377,-0.214 0.381,-0.216 0.389,-0.219C0.395,-0.222 0.401,-0.224 0.405,-0.226L0.416,-0.239C0.42,-0.239 0.424,-0.24 0.426,-0.242C0.429,-0.243 0.431,-0.245 0.433,-0.248L0.439,-0.253C0.44,-0.253 0.441,-0.253 0.443,-0.254C0.444,-0.254 0.445,-0.254 0.446,-0.254C0.449,-0.254 0.452,-0.253 0.453,-0.252C0.455,-0.25 0.456,-0.248 0.457,-0.245L0.457,-0.242C0.457,-0.24 0.457,-0.238 0.456,-0.235C0.455,-0.233 0.453,-0.23 0.451,-0.228C0.447,-0.221 0.443,-0.215 0.439,-0.21C0.434,-0.205 0.429,-0.2 0.423,-0.195L0.42,-0.184L0.409,-0.182C0.407,-0.176 0.403,-0.171 0.4,-0.167C0.396,-0.164 0.391,-0.161 0.385,-0.159C0.382,-0.155 0.379,-0.151 0.375,-0.148C0.371,-0.145 0.367,-0.142 0.362,-0.141C0.354,-0.131 0.346,-0.123 0.336,-0.118C0.327,-0.113 0.317,-0.111 0.305,-0.111C0.28,-0.111 0.26,-0.118 0.246,-0.134C0.231,-0.149 0.224,-0.169 0.224,-0.196L0.225,-0.216C0.222,-0.215 0.22,-0.214 0.217,-0.212C0.215,-0.21 0.212,-0.208 0.21,-0.205L0.201,-0.196L0.184,-0.186L0.172,-0.174C0.169,-0.171 0.166,-0.168 0.165,-0.167C0.163,-0.167 0.162,-0.166 0.161,-0.166C0.16,-0.166 0.159,-0.166 0.157,-0.166C0.156,-0.166 0.155,-0.167 0.154,-0.167L0.154,-0.166C0.154,-0.156 0.145,-0.143 0.126,-0.128C0.108,-0.112 0.086,-0.098 0.061,-0.087C0.054,-0.082 0.046,-0.078 0.04,-0.076C0.033,-0.073 0.027,-0.072 0.021,-0.072C0.013,-0.072 0.004,-0.076 -0.006,-0.084C-0.015,-0.093 -0.02,-0.101 -0.02,-0.11C-0.02,-0.115 -0.019,-0.122 -0.017,-0.129C-0.014,-0.136 -0.011,-0.144 -0.006,-0.154L0.004,-0.176Z" style="fill-rule:nonzero;"/>
        </g>
        <g transform="matrix(266.667,0,0,266.667,1045.71,572.26)">
            <path d="M-0.011,-0.233L-0.005,-0.24C0.006,-0.252 0.02,-0.268 0.038,-0.289C0.09,-0.349 0.122,-0.381 0.132,-0.384L0.142,-0.387L0.153,-0.394L0.164,-0.398L0.171,-0.396L0.178,-0.395C0.188,-0.388 0.194,-0.382 0.198,-0.376C0.202,-0.37 0.204,-0.364 0.204,-0.358C0.204,-0.354 0.204,-0.35 0.203,-0.346C0.202,-0.342 0.201,-0.338 0.2,-0.333L0.198,-0.316C0.197,-0.31 0.195,-0.303 0.194,-0.298C0.192,-0.293 0.191,-0.288 0.189,-0.283L0.182,-0.273L0.182,-0.264C0.178,-0.256 0.174,-0.247 0.171,-0.237C0.167,-0.227 0.162,-0.213 0.156,-0.195L0.151,-0.191C0.151,-0.19 0.152,-0.19 0.152,-0.189C0.153,-0.187 0.153,-0.185 0.153,-0.183C0.153,-0.18 0.151,-0.177 0.148,-0.173C0.146,-0.169 0.144,-0.165 0.144,-0.162L0.144,-0.158L0.165,-0.177C0.168,-0.183 0.173,-0.189 0.178,-0.195C0.183,-0.201 0.19,-0.207 0.197,-0.214L0.204,-0.217L0.207,-0.222L0.208,-0.228C0.21,-0.232 0.212,-0.235 0.214,-0.237C0.216,-0.24 0.218,-0.242 0.22,-0.243L0.235,-0.252L0.242,-0.263C0.26,-0.28 0.276,-0.293 0.29,-0.301C0.304,-0.308 0.317,-0.312 0.33,-0.312C0.339,-0.312 0.347,-0.31 0.352,-0.307C0.358,-0.304 0.362,-0.3 0.364,-0.294L0.373,-0.284L0.396,-0.234L0.393,-0.223C0.397,-0.221 0.401,-0.214 0.406,-0.204C0.411,-0.193 0.417,-0.188 0.424,-0.188C0.425,-0.188 0.427,-0.188 0.43,-0.189C0.432,-0.189 0.435,-0.19 0.438,-0.191L0.442,-0.193L0.446,-0.2L0.458,-0.209L0.466,-0.217C0.477,-0.22 0.49,-0.227 0.504,-0.238C0.519,-0.248 0.529,-0.254 0.535,-0.254C0.538,-0.254 0.541,-0.253 0.542,-0.252C0.543,-0.25 0.544,-0.248 0.544,-0.244C0.544,-0.244 0.543,-0.242 0.542,-0.238C0.541,-0.234 0.54,-0.23 0.539,-0.227L0.532,-0.219C0.524,-0.209 0.514,-0.198 0.504,-0.187C0.493,-0.176 0.482,-0.165 0.47,-0.153L0.465,-0.148L0.457,-0.143C0.455,-0.137 0.45,-0.131 0.44,-0.126C0.439,-0.125 0.438,-0.124 0.437,-0.124L0.43,-0.117L0.41,-0.109C0.406,-0.107 0.402,-0.105 0.399,-0.104C0.396,-0.104 0.393,-0.103 0.391,-0.103C0.38,-0.103 0.368,-0.108 0.357,-0.119C0.346,-0.13 0.337,-0.145 0.329,-0.163L0.328,-0.173C0.322,-0.178 0.316,-0.184 0.311,-0.189C0.305,-0.195 0.3,-0.202 0.295,-0.209C0.293,-0.21 0.291,-0.211 0.289,-0.211C0.288,-0.212 0.286,-0.212 0.284,-0.212C0.281,-0.212 0.276,-0.21 0.271,-0.208C0.267,-0.205 0.257,-0.197 0.244,-0.186L0.235,-0.183L0.227,-0.172C0.223,-0.167 0.22,-0.164 0.216,-0.161C0.212,-0.158 0.207,-0.155 0.202,-0.154L0.188,-0.133C0.169,-0.111 0.154,-0.095 0.144,-0.084C0.134,-0.074 0.125,-0.065 0.119,-0.06C0.111,-0.049 0.104,-0.043 0.096,-0.039C0.088,-0.035 0.078,-0.033 0.065,-0.033C0.058,-0.033 0.054,-0.034 0.052,-0.036C0.049,-0.038 0.047,-0.042 0.046,-0.048L0.047,-0.062L0.044,-0.067L0.046,-0.076C0.055,-0.107 0.062,-0.131 0.067,-0.147C0.071,-0.163 0.073,-0.173 0.073,-0.176C0.073,-0.176 0.074,-0.178 0.075,-0.18C0.076,-0.183 0.078,-0.186 0.079,-0.19L0.084,-0.198C0.083,-0.2 0.083,-0.201 0.083,-0.202C0.082,-0.203 0.082,-0.204 0.082,-0.205C0.082,-0.208 0.084,-0.214 0.087,-0.223C0.091,-0.233 0.093,-0.241 0.093,-0.247C0.093,-0.249 0.092,-0.25 0.09,-0.251C0.089,-0.252 0.087,-0.252 0.084,-0.252C0.073,-0.252 0.064,-0.247 0.057,-0.238C0.05,-0.228 0.045,-0.223 0.043,-0.222L0.031,-0.206L0.02,-0.196L0.013,-0.194L0.01,-0.191L0.003,-0.18C0,-0.179 -0.002,-0.178 -0.003,-0.177C-0.005,-0.175 -0.006,-0.174 -0.006,-0.173L-0.015,-0.165C-0.039,-0.146 -0.058,-0.132 -0.072,-0.123C-0.085,-0.114 -0.094,-0.109 -0.098,-0.109C-0.101,-0.109 -0.103,-0.11 -0.105,-0.112C-0.107,-0.114 -0.108,-0.116 -0.108,-0.119C-0.108,-0.122 -0.107,-0.125 -0.105,-0.128C-0.103,-0.131 -0.1,-0.134 -0.095,-0.136L-0.095,-0.145C-0.082,-0.161 -0.069,-0.175 -0.058,-0.186C-0.046,-0.198 -0.039,-0.203 -0.037,-0.203C-0.037,-0.204 -0.037,-0.205 -0.038,-0.206C-0.038,-0.207 -0.037,-0.208 -0.037,-0.208C-0.037,-0.208 -0.036,-0.208 -0.035,-0.208L-0.034,-0.208C-0.033,-0.208 -0.031,-0.209 -0.03,-0.21C-0.029,-0.212 -0.028,-0.215 -0.028,-0.218L-0.021,-0.224L-0.011,-0.233Z" style="fill-rule:nonzero;"/>
        </g>
        <g transform="matrix(266.667,0,0,266.667,1177.74,572.26)">
            <path d="M-0.011,-0.233L-0.005,-0.24C0.006,-0.252 0.02,-0.268 0.038,-0.289C0.09,-0.349 0.122,-0.381 0.132,-0.384L0.142,-0.387L0.153,-0.394L0.164,-0.398L0.171,-0.396L0.178,-0.395C0.188,-0.388 0.194,-0.382 0.198,-0.376C0.202,-0.37 0.204,-0.364 0.204,-0.358C0.204,-0.354 0.204,-0.35 0.203,-0.346C0.202,-0.342 0.201,-0.338 0.2,-0.333L0.198,-0.316C0.197,-0.31 0.195,-0.303 0.194,-0.298C0.192,-0.293 0.191,-0.288 0.189,-0.283L0.182,-0.273L0.182,-0.264C0.178,-0.256 0.174,-0.247 0.171,-0.237C0.167,-0.227 0.162,-0.213 0.156,-0.195L0.151,-0.191C0.151,-0.19 0.152,-0.19 0.152,-0.189C0.153,-0.187 0.153,-0.185 0.153,-0.183C0.153,-0.18 0.151,-0.177 0.148,-0.173C0.146,-0.169 0.144,-0.165 0.144,-0.162L0.144,-0.158L0.165,-0.177C0.168,-0.183 0.173,-0.189 0.178,-0.195C0.183,-0.201 0.19,-0.207 0.197,-0.214L0.204,-0.217L0.207,-0.222L0.208,-0.228C0.21,-0.232 0.212,-0.235 0.214,-0.237C0.216,-0.24 0.218,-0.242 0.22,-0.243L0.235,-0.252L0.242,-0.263C0.26,-0.28 0.276,-0.293 0.29,-0.301C0.304,-0.308 0.317,-0.312 0.33,-0.312C0.339,-0.312 0.347,-0.31 0.352,-0.307C0.358,-0.304 0.362,-0.3 0.364,-0.294L0.373,-0.284L0.396,-0.234L0.393,-0.223C0.397,-0.221 0.401,-0.214 0.406,-0.204C0.411,-0.193 0.417,-0.188 0.424,-0.188C0.425,-0.188 0.427,-0.188 0.43,-0.189C0.432,-0.189 0.435,-0.19 0.438,-0.191L0.442,-0.193L0.446,-0.2L0.458,-0.209L0.466,-0.217C0.477,-0.22 0.49,-0.227 0.504,-0.238C0.519,-0.248 0.529,-0.254 0.535,-0.254C0.538,-0.254 0.541,-0.253 0.542,-0.252C0.543,-0.25 0.544,-0.248 0.544,-0.244C0.544,-0.244 0.543,-0.242 0.542,-0.238C0.541,-0.234 0.54,-0.23 0.539,-0.227L0.532,-0.219C0.524,-0.209 0.514,-0.198 0.504,-0.187C0.493,-0.176 0.482,-0.165 0.47,-0.153L0.465,-0.148L0.457,-0.143C0.455,-0.137 0.45,-0.131 0.44,-0.126C0.439,-0.125 0.438,-0.124 0.437,-0.124L0.43,-0.117L0.41,-0.109C0.406,-0.107 0.402,-0.105 0.399,-0.104C0.396,-0.104 0.393,-0.103 0.391,-0.103C0.38,-0.103 0.368,-0.108 0.357,-0.119C0.346,-0.13 0.337,-0.145 0.329,-0.163L0.328,-0.173C0.322,-0.178 0.316,-0.184 0.311,-0.189C0.305,-0.195 0.3,-0.202 0.295,-0.209C0.293,-0.21 0.291,-0.211 0.289,-0.211C0.288,-0.212 0.286,-0.212 0.284,-0.212C0.281,-0.212 0.276,-0.21 0.271,-0.208C0.267,-0.205 0.257,-0.197 0.244,-0.186L0.235,-0.183L0.227,-0.172C0.223,-0.167 0.22,-0.164 0.216,-0.161C0.212,-0.158 0.207,-0.155 0.202,-0.154L0.188,-0.133C0.169,-0.111 0.154,-0.095 0.144,-0.084C0.134,-0.074 0.125,-0.065 0.119,-0.06C0.111,-0.049 0.104,-0.043 0.096,-0.039C0.088,-0.035 0.078,-0.033 0.065,-0.033C0.058,-0.033 0.054,-0.034 0.052,-0.036C0.049,-0.038 0.047,-0.042 0.046,-0.048L0.047,-0.062L0.044,-0.067L0.046,-0.076C0.055,-0.107 0.062,-0.131 0.067,-0.147C0.071,-0.163 0.073,-0.173 0.073,-0.176C0.073,-0.176 0.074,-0.178 0.075,-0.18C0.076,-0.183 0.078,-0.186 0.079,-0.19L0.084,-0.198C0.083,-0.2 0.083,-0.201 0.083,-0.202C0.082,-0.203 0.082,-0.204 0.082,-0.205C0.082,-0.208 0.084,-0.214 0.087,-0.223C0.091,-0.233 0.093,-0.241 0.093,-0.247C0.093,-0.249 0.092,-0.25 0.09,-0.251C0.089,-0.252 0.087,-0.252 0.084,-0.252C0.073,-0.252 0.064,-0.247 0.057,-0.238C0.05,-0.228 0.045,-0.223 0.043,-0.222L0.031,-0.206L0.02,-0.196L0.013,-0.194L0.01,-0.191L0.003,-0.18C0,-0.179 -0.002,-0.178 -0.003,-0.177C-0.005,-0.175 -0.006,-0.174 -0.006,-0.173L-0.015,-0.165C-0.039,-0.146 -0.058,-0.132 -0.072,-0.123C-0.085,-0.114 -0.094,-0.109 -0.098,-0.109C-0.101,-0.109 -0.103,-0.11 -0.105,-0.112C-0.107,-0.114 -0.108,-0.116 -0.108,-0.119C-0.108,-0.122 -0.107,-0.125 -0.105,-0.128C-0.103,-0.131 -0.1,-0.134 -0.095,-0.136L-0.095,-0.145C-0.082,-0.161 -0.069,-0.175 -0.058,-0.186C-0.046,-0.198 -0.039,-0.203 -0.037,-0.203C-0.037,-0.204 -0.037,-0.205 -0.038,-0.206C-0.038,-0.207 -0.037,-0.208 -0.037,-0.208C-0.037,-0.208 -0.036,-0.208 -0.035,-0.208L-0.034,-0.208C-0.033,-0.208 -0.031,-0.209 -0.03,-0.21C-0.029,-0.212 -0.028,-0.215 -0.028,-0.218L-0.021,-0.224L-0.011,-0.233Z" style="fill-rule:nonzero;"/>
        </g>
    </g>
</svg>
