<svg xmlns="http://www.w3.org/2000/svg" viewBox="0 0 332 66.3"><defs><style>.a{stroke:#000;stroke-miterlimit:10;}</style></defs><path d="M332,57.4l-.3,1c-.1.3-.3.5-.4.5s-.3-.2-.3-.5a2.8,2.8,0,0,1,.1-.9,3,3,0,0,1,.2-1c.2-.3.3-.5.4-.5s.3.2.3.5v.9m-2.1.1a3,3,0,0,1-.2,1c-.2.3-.3.5-.4.5s-.3-.2-.4-.5a3.1,3.1,0,0,1,.1-.9,3,3,0,0,1,.2-1c.2-.4.3-.5.5-.5s.2.1.3.4a3.8,3.8,0,0,1-.1,1m-2.1.1-.3,1c-.1.4-.3.5-.5.5s-.2-.1-.3-.4v-1l.3-1.1c.1-.3.3-.5.4-.5s.3.2.4.5v1m-5.2-3.5a2.5,2.5,0,0,0-.3-1.3,1,1,0,0,0-.7-.5,1.2,1.2,0,0,0-1,.6,3.3,3.3,0,0,0-.6,1.2h2.6m1,1.3v.4h-3.8a2.8,2.8,0,0,0,.3,1.5.9.9,0,0,0,.9.5q.6,0,1.2-.9a6,6,0,0,0,.8.8,3,3,0,0,1-2.3,2,1.7,1.7,0,0,1-1.7-1.1,6.6,6.6,0,0,1-.4-1.5,12.8,12.8,0,0,1,.1-1.9,6.4,6.4,0,0,1,.3-2,7.7,7.7,0,0,1,.7-1.6c.6-1,1.2-1.4,2-1.4a2,2,0,0,1,1.6,1.5,8.5,8.5,0,0,1,.4,1.7A12.8,12.8,0,0,1,323.6,55.4ZM318,52.5h-.8l-.3,3.8c-.2,1.2-.3,2.4-.4,3.6h-1.4c.1-1.2.3-2.5.4-3.7l.3-3.9H315c.1-.7.1-1.5.2-2.3h.7c0-.7.1-1.3.1-2v-2h1.5c0,.7-.1,1.4-.1,2s-.1,1.3-.1,2h.8a17,17,0,0,0-.1,2.2m-4.4,4.9a3.7,3.7,0,0,1-.9,2.2,2.2,2.2,0,0,1-1.6.9,2.3,2.3,0,0,1-2.1-1.6l1.2-1.7c.3.8.7,1.1,1.2,1.1l.5-.2a1.3,1.3,0,0,0-.3-1.7l-.5-.4a3.8,3.8,0,0,1-1.4-3.3,3.5,3.5,0,0,1,.7-2.3,1.7,1.7,0,0,1,1.5-.8c.9.1,1.5.7,2,2l-1.1,1.6c-.3-.7-.6-1.1-1-1.1s-.6.2-.6.7a1.4,1.4,0,0,0,.5.9l.6.5a3.5,3.5,0,0,1,1,1.2,6,6,0,0,1,.3,2m-7.4-3.5a4,4,0,0,0-.8-1.6,1.4,1.4,0,0,0-1.2-.6,2.2,2.2,0,0,0-1.5.6,4.9,4.9,0,0,0-.7,1.6h4.2m1.7,1.7a4.3,4.3,0,0,0-.1.5h-5.9a2.9,2.9,0,0,0,.7,1.9,1.7,1.7,0,0,0,1.4.6,2.4,2.4,0,0,0,1.8-1.2l1.4,1a4,4,0,0,1-3.4,2.5,3,3,0,0,1-2.8-1.4,4.9,4.9,0,0,1-.8-1.8,8.8,8.8,0,0,1-.3-2.4,10.1,10.1,0,0,1,.3-2.5,6.7,6.7,0,0,1,.9-2.1,3.2,3.2,0,0,1,3-1.7,3.6,3.6,0,0,1,2.9,2,6.8,6.8,0,0,1,.7,2A10.1,10.1,0,0,1,307.9,55.6Zm-12.5.9c0-1.5-.9-2.3-2.7-2.3h-.5c0,1.5,0,2.9.1,4.4h.6a3.7,3.7,0,0,0,1.7-.3,1.8,1.8,0,0,0,.8-1.7m-1.1-7.3c-.1-1.3-.7-2-1.9-2.1h-.7l.3,4.1h.6C293.8,51.2,294.4,50.5,294.3,49.2Zm3.4,7.4a6,6,0,0,1-.5,2.4,4.2,4.2,0,0,1-1.5,1.7,4.5,4.5,0,0,1-2.3.7l-3.7.3V57.4c-.1-1.4-.1-2.9-.2-4.4s-.3-3.2-.4-4.9l-.6-5.1,2.3.3a8.1,8.1,0,0,1,2.9.7,4.6,4.6,0,0,1,2,1.9,5.3,5.3,0,0,1,.9,3,4,4,0,0,1-1.1,3.3A5,5,0,0,1,297.7,56.6ZM280,58.4a4,4,0,0,1-1.1,3.3,5.5,5.5,0,0,1-3.2,1.3,6.3,6.3,0,0,1-5.1-2.2,25.6,25.6,0,0,0,2-2.6,3.6,3.6,0,0,0,3,1.6,1.7,1.7,0,0,0,1-.3.9.9,0,0,0,.4-.8c0-.6-.6-1.2-1.6-1.7l-1.2-.6c-2.5-1.2-4-2.9-4.3-4.9a3.9,3.9,0,0,1,1-3.5,3.7,3.7,0,0,1,3.1-1.1,6.7,6.7,0,0,1,4.9,3l-1.7,2.4a4.4,4.4,0,0,0-2.6-1.6c-.8,0-1.2.3-1.1,1s.5.8,1.4,1.3l1.4.8a9.7,9.7,0,0,1,2.6,1.8,5.4,5.4,0,0,1,1.1,2.8m-18.1-3a6.4,6.4,0,0,0-2-3.7,6.6,6.6,0,0,0-4.2-1.7,3.8,3.8,0,0,0-3.5,1.5,4.6,4.6,0,0,0-.6,3.9,7.1,7.1,0,0,0,2.4,3.7,5.8,5.8,0,0,0,3.9,1.3,3.9,3.9,0,0,0,3.4-1.5,4.1,4.1,0,0,0,.6-3.5m5.1,7.8-4,.3c-.1-.6-.1-1.1-.2-1.7a7,7,0,0,1-5,2.4,9.8,9.8,0,0,1-7-2.2,14.5,14.5,0,0,1-2.7-2.9,17.6,17.6,0,0,1-1.7-3.7,13.3,13.3,0,0,1-.3-3.9,7.6,7.6,0,0,1,1.1-3.3c1.3-2.1,3.5-3,6.4-2.8a11.6,11.6,0,0,1,6.7,3c-.2-.7-.3-1.3-.5-2.1l4.4.4.9,4.4c.3,1.5.5,2.9.8,4.3S266.7,60.7,267,63.2Zm-33.4-7.9a9.7,9.7,0,0,0-3.5-4.6,12,12,0,0,0-6.6-2.1c-2.5-.2-4.2.4-5.2,1.8s-1.1,2.9-.3,4.8a9.8,9.8,0,0,0,4.2,4.6,10.8,10.8,0,0,0,6.3,1.8c2.3-.1,3.8-.8,4.7-2a4.3,4.3,0,0,0,.4-4.3m8.8,9.5-5.9.4-.6-2a10.1,10.1,0,0,1-7,3,19.6,19.6,0,0,1-11.2-2.7,20.1,20.1,0,0,1-4.8-3.6,18.6,18.6,0,0,1-3.2-4.7,10.7,10.7,0,0,1-1.2-4.9,6.8,6.8,0,0,1,1.3-4.2c1.9-2.6,5.3-3.7,9.9-3.3a20.8,20.8,0,0,1,10.6,3.9l-2.1-5.9-2.4-6.4,7.3.9c.9,2.9,1.9,5.6,2.8,8.2s1.7,5.3,2.5,7.9,1.5,4.6,2.1,6.8S241.8,62.7,242.4,64.8Z"/><path d="M38.6,20.6l-1-.3c.3,1.7.6,3.5,1,5.3s.6,3.7.9,5.7H37.7l-.9-5.9-.9-5.5-1-.3c-.1-1-.3-2-.4-2.9l.9.3a15.7,15.7,0,0,0-.4-2.3l-.3-2.3,1.7.8c.1.7.3,1.4.4,2.2a22.3,22.3,0,0,0,.4,2.3l1,.3C38.3,18.8,38.5,19.7,38.6,20.6ZM34,31H31.6c-.3-2.9-.7-5.7-1-8.5l-.9-7.6,2.2.8c.3,2.4.7,4.8,1,7.3s.7,5.3,1.1,8.1M31.7,12.4a2.9,2.9,0,0,1-.1,1.4c-.3.3-.6.4-.9.2a2.7,2.7,0,0,1-1.2-1,6.4,6.4,0,0,1-.6-1.8,2,2,0,0,1,.2-1.4.8.8,0,0,1,1-.1,2.4,2.4,0,0,1,1,1A5.8,5.8,0,0,1,31.7,12.4ZM28,30.8H25c-.5-2.9-1-5.7-1.6-8.5s-1-5.2-1.4-7.8c-.5,2.3-1,4.7-1.5,7.3s-1.1,5.6-1.7,8.7H15L12.3,20.2c-.8-3.3-1.7-6.5-2.6-9.6-.5,2.8-1,5.7-1.5,8.8S6.9,26.2,6.3,29.9L0,29.7c1.4-6.2,2.7-11.8,3.9-16.9S5.9,3.9,6.8,0l4.5,2c.8,3.1,1.7,6.2,2.6,9.4s1.9,6.6,2.8,10c.7-3,1.4-5.8,2-8.5S19.8,8.2,20.3,6l3,1.4c.7,3.5,1.5,7.2,2.3,11s1.6,8.1,2.4,12.4"/><path class="a" d="M197,28.3c1.9-6,2.5-10.4,1.9-13.2s-2.7-4-5.9-3.5l-1.7.3-2.7,8.6-2.7,8.4c-.8,2.7-1.7,5.4-2.5,8.1s-1.7,5.4-2.5,8h2.3a9.6,9.6,0,0,0,4.6-1.4c1.7-1,3.3-3,5.1-5.9A51.5,51.5,0,0,0,197,28.3Zm5.3-.4a69.8,69.8,0,0,1-4.9,11.6,42,42,0,0,1-5.7,8.5,16.9,16.9,0,0,1-6.8,5.2,18.6,18.6,0,0,1-5.9.9l-5.6.2c1.2-4,2.5-8.1,3.8-12.3s2.5-8.3,3.8-12.5,2.7-8.8,4-13.3,2.8-9,4.2-13.7l6.2-1.1c3.7-.6,6.2-.4,7.7.8s2.8,4.9,2.6,10a39.8,39.8,0,0,1-1,7.3A77.2,77.2,0,0,1,202.3,27.9ZM170.9,46.4l-6.9.4a28.1,28.1,0,0,1,.8-3.1l7.1-.5c-.3,1.1-.7,2.1-1,3.2m-15,8.5H152c-.1-2.4-.3-4.8-.3-7.3l-.3-7.3-.3-7.5-.3-7.4c-.7,2.6-1.4,5.2-2,7.7s-1.3,5.1-1.9,7.6L145,48.1l-1.8,7.3h-3.8l2.7-11c1-3.7,1.9-7.4,2.8-11.2l3-11.8c.9-4,2-8,3-12.1l4-.7.3,7.7.3,7.8c0,2.5.1,5.1.2,7.6l.3,7.6,2.1-7.9,2.2-7.9c.7-2.8,1.5-5.5,2.2-8.3s1.5-5.6,2.3-8.4l4.6-.8-3.6,12.8c-1.2,4.2-2.3,8.4-3.5,12.5s-2.1,8-3.2,11.9-2.1,7.8-3.2,11.6m-18.7-6.6-5.6.4.6-2.8,5.7-.4a22.9,22.9,0,0,1-.7,2.8M124,40c.1-2.4.3-4.8.4-7.2s.3-4.9.4-7.3L122,33.1l-2.7,7.3L124,40m2.6,15.9-3.5.2c.2-2.8.3-5.6.5-8.4l-7,.4c-1.1,2.8-2.1,5.6-3.1,8.3h-3.2l3.6-10c1.2-3.4,2.4-6.8,3.7-10.3l3.9-11c1.3-3.7,2.7-7.4,4-11.2l3.7-.7c-.3,3.7-.5,7.3-.7,10.9s-.5,7.3-.7,10.9l-.6,10.4ZM109.7,50l-4.7.3c.1-.9.3-1.7.4-2.6l4.8-.3a23.8,23.8,0,0,0-.5,2.6m-2.5-25.2-2.9.5-1.5,8.1c-.5,2.8-1,5.4-1.5,8.1s-.9,5.2-1.4,7.8-.9,5.1-1.4,7.6H95.7c.5-2.5.9-5,1.4-7.6s.9-5,1.3-7.6,1-5.3,1.4-8l1.5-8.1-2.7.5c.4-2.6.8-5.1,1.3-7.6l8.7-1.6c-.4,2.6-.9,5.3-1.4,7.8M92.8,51l-4.2.2a22.3,22.3,0,0,0,.4-2.3l4.2-.3a20,20,0,0,0-.4,2.4m-6.6-2.8a24.7,24.7,0,0,1-2.3,7.5c-1,1.8-2.1,2.7-3.2,2.7s-2.8-2.3-3-7.3l2.5-3.5c.2,3.1.7,4.6,1.4,4.5s.8-.3,1.2-.9a8.1,8.1,0,0,0,.9-2.5,10.6,10.6,0,0,0-.2-3.5c-.1-.4-.3-1.3-.7-2.6a42.7,42.7,0,0,1-1.3-5.2,21.8,21.8,0,0,1-.1-7.2,23,23,0,0,1,2.1-7c1-1.9,2-3,3-3.2s2.4,1.6,3.1,5.6l-2.8,5c-.2-2.5-.7-3.7-1.4-3.6a1.6,1.6,0,0,0-.9.8,4.7,4.7,0,0,0-.6,1.9,10.3,10.3,0,0,0-.1,1.7A35,35,0,0,0,85,36c.6,2.1,1,3.5,1.1,4a20.5,20.5,0,0,1,.1,8.2M76.1,52l-3.6.2.3-2.2,3.6-.3a18.1,18.1,0,0,1-.3,2.3m-7.8-3.8q.6-4.8-1.8-4.5H66c-.3,2.9-.7,5.7-1,8.6h.5a2.1,2.1,0,0,0,1.6-.6,6.1,6.1,0,0,0,1.2-3.4m1-14.3c.4-2.4,0-3.5-1-3.3h-.6L66.8,38h.4C68.3,37.8,69,36.5,69.3,33.9Zm1.2,14.3a26.4,26.4,0,0,1-1.2,5.2,10.4,10.4,0,0,1-1.8,3.5,2.6,2.6,0,0,1-2.2,1.2H62.2c.3-2.7.6-5.4,1-8.1s.6-5.5,1-8.2.6-5.7,1-8.6.7-5.8,1-8.7l1.9-.3a3.2,3.2,0,0,1,2.3.2c.7.4,1.1,1.4,1.3,2.8a16.2,16.2,0,0,1,0,5.4,21.6,21.6,0,0,1-2.1,6.9C70.7,41.3,71,44.2,70.5,48.2Zm-9.9,4.7-3.2.2a14.9,14.9,0,0,0,.2-2.1l3.2-.2a14.9,14.9,0,0,1-.2,2.1m-7.9-6.4c0-1.8-.1-3.6-.1-5.4s-.1-3.6-.1-5.4c-.4,1.8-.9,3.7-1.3,5.6L50,46.7l2.7-.2m2.2,12h-2c0-2,0-4.1-.1-6.3l-4,.3c-.5,2.1-.9,4.2-1.4,6.2H45.5c.6-2.5,1.1-5,1.7-7.6s1.1-5.1,1.6-7.7l1.8-8.1c.6-2.7,1.1-5.5,1.8-8.3l2-.4c0,2.8,0,5.4.1,8.1s.1,5.4.1,8.1.1,5.2.2,7.8S54.9,55.9,54.9,58.5Z"/></svg>