<svg xmlns="http://www.w3.org/2000/svg" viewBox="0 0 161.3 99.3"><defs><style>.a{stroke:#000;stroke-miterlimit:10;}</style></defs><path d="M136.1,90.5c-.1.3-.1.7-.3.9s-.2.5-.4.5-.2-.1-.2-.4a1.7,1.7,0,0,1,0-1c.1-.3.1-.7.3-.9s.2-.5.4-.5.2.1.3.4a3.8,3.8,0,0,1-.1,1m-2,.1a4.6,4.6,0,0,1-.3.9,1,1,0,0,1-.4.6c-.2,0-.3-.2-.3-.5a3.3,3.3,0,0,1,0-1l.3-1c.1-.3.2-.5.4-.5s.3.2.3.5v1m-2.2.1a2.9,2.9,0,0,1-.3,1c-.1.3-.3.5-.4.5s-.3-.1-.3-.5a1.7,1.7,0,0,1,0-1,3,3,0,0,1,.2-1c.2-.4.3-.5.5-.5s.3.1.3.5a3.3,3.3,0,0,1,0,1m-5.1-3.6a2.1,2.1,0,0,0-.4-1.2c-.2-.3-.4-.5-.7-.5a1.2,1.2,0,0,0-.9.5,3.3,3.3,0,0,0-.6,1.2h2.6m1,1.4a.6.6,0,0,0-.1.4h-3.8a3.3,3.3,0,0,0,.3,1.5,1.1,1.1,0,0,0,.9.5q.6,0,1.2-.9l.9.8c-.7,1.2-1.4,1.9-2.3,2a1.8,1.8,0,0,1-1.7-1.2,3.3,3.3,0,0,1-.4-1.4,6.7,6.7,0,0,1,0-2,10.6,10.6,0,0,1,.4-1.9,8.5,8.5,0,0,1,.6-1.7c.6-.9,1.3-1.4,2-1.3s1.3.5,1.7,1.5a4.1,4.1,0,0,1,.3,1.6A13.3,13.3,0,0,1,127.8,88.5Zm-5.7-2.9h-.8l-.3,3.8c-.1,1.3-.3,2.5-.4,3.6h-1.4c.2-1.2.3-2.4.4-3.6l.3-3.9h-.7c0-.8.1-1.5.1-2.3h.7a12.1,12.1,0,0,0,.1-1.9,14.8,14.8,0,0,1,.1-2.1l1.4.2a13.4,13.4,0,0,1-.1,2,12.1,12.1,0,0,1-.1,1.9h.8c0,.7-.1,1.4-.1,2.2m-4.4,4.8a4.8,4.8,0,0,1-.8,2.3,2.3,2.3,0,0,1-1.7.8c-.8.1-1.5-.4-2-1.5s.7-1.2,1.1-1.7.8,1.1,1.2,1.1l.5-.2c.2-.2.2-.4.3-.6a1.4,1.4,0,0,0-.6-1.1l-.5-.5a3.6,3.6,0,0,1-1.4-3.2,3.7,3.7,0,0,1,.7-2.3,1.9,1.9,0,0,1,1.5-.8c.9,0,1.6.7,2,1.9l-1,1.6c-.4-.7-.7-1-1-1a.7.7,0,0,0-.7.6,4.5,4.5,0,0,0,1.1,1.4,5,5,0,0,1,1,1.3,3,3,0,0,1,.3,1.9M110.3,87a3.4,3.4,0,0,0-.7-1.6,2.4,2.4,0,0,0-1.3-.7,1.7,1.7,0,0,0-1.4.7,5,5,0,0,0-.8,1.5h4.2m1.7,1.6v.5h-6a3,3,0,0,0,.7,1.9,1.5,1.5,0,0,0,1.4.6,2.6,2.6,0,0,0,1.9-1.1l1.4,1A4.3,4.3,0,0,1,108,94a2.9,2.9,0,0,1-2.8-1.3,5.1,5.1,0,0,1-.9-1.8,8.8,8.8,0,0,1-.3-2.4,9.3,9.3,0,0,1,.4-2.5,6.7,6.7,0,0,1,.9-2.1,3.1,3.1,0,0,1,2.9-1.8,3.7,3.7,0,0,1,2.9,2,6.5,6.5,0,0,1,.7,2.1A9.3,9.3,0,0,1,112,88.6Zm-12.5,1c.1-1.6-.9-2.3-2.7-2.4h-.5c0,1.5.1,3,.1,4.4H97a3.4,3.4,0,0,0,1.7-.3,1.7,1.7,0,0,0,.8-1.7m-1.1-7.4a2.1,2.1,0,0,0-1.9-2.1h-.6l.3,4h.5C98,84.2,98.5,83.6,98.4,82.2Zm3.4,7.5a5.2,5.2,0,0,1-.5,2.4,3.9,3.9,0,0,1-1.4,1.7,5.2,5.2,0,0,1-2.4.7l-3.6.2c-.1-1.4-.1-2.8-.1-4.2s-.1-2.9-.2-4.4-.2-3.3-.4-5-.3-3.3-.5-5.1l2.3.3a10.2,10.2,0,0,1,2.8.7,5.7,5.7,0,0,1,2.1,2,6.6,6.6,0,0,1,.9,2.9,4.5,4.5,0,0,1-1.2,3.4A5,5,0,0,1,101.8,89.7ZM84.2,91.5A3.7,3.7,0,0,1,83,94.7,4.9,4.9,0,0,1,79.8,96a5.6,5.6,0,0,1-5-2.1c.6-.9,1.3-1.7,2-2.6a4.1,4.1,0,0,0,3,1.6,1.4,1.4,0,0,0,.9-.3.8.8,0,0,0,.4-.9c0-.6-.5-1.1-1.6-1.6l-1.2-.6c-2.5-1.3-3.9-2.9-4.2-4.9a3.5,3.5,0,0,1,.9-3.5A3.5,3.5,0,0,1,78.1,80a6.5,6.5,0,0,1,5,3c-.6.8-1.2,1.5-1.7,2.3-1.1-1-1.9-1.5-2.7-1.5s-1.2.2-1.1.9.6.9,1.4,1.4l1.4.7A10.2,10.2,0,0,1,83,88.7a4.7,4.7,0,0,1,1.2,2.8M66,88.4a6.2,6.2,0,0,0-2-3.7,6.5,6.5,0,0,0-4.2-1.6,3.8,3.8,0,0,0-3.5,1.5,4.4,4.4,0,0,0-.5,3.8,6.3,6.3,0,0,0,2.3,3.7,5.5,5.5,0,0,0,4,1.4,4.2,4.2,0,0,0,3.3-1.6,4.1,4.1,0,0,0,.6-3.5m5.1,7.8-3.9.3-.3-1.6A7.6,7.6,0,0,1,62,97.3a11.4,11.4,0,0,1-9.8-5.2,11.7,11.7,0,0,1-1.6-3.6,10.8,10.8,0,0,1-.4-3.9,9.2,9.2,0,0,1,1.1-3.3c1.3-2.1,3.5-3.1,6.4-2.9a11.5,11.5,0,0,1,6.7,3.1,16,16,0,0,0-.5-2.1l4.5.3c.3,1.5.6,3,.8,4.5s.6,2.9.8,4.3S70.8,93.7,71.1,96.2ZM37.7,88.3a8.9,8.9,0,0,0-3.5-4.5,11.8,11.8,0,0,0-6.6-2.2c-2.4-.1-4.2.5-5.2,1.8a4.9,4.9,0,0,0-.3,4.9,10.3,10.3,0,0,0,4.2,4.6,11.1,11.1,0,0,0,6.3,1.7c2.3-.1,3.8-.7,4.7-1.9a4.5,4.5,0,0,0,.4-4.4m8.9,9.6-5.9.4c-.3-.7-.5-1.4-.7-2a9.8,9.8,0,0,1-6.9,3,20.5,20.5,0,0,1-11.3-2.7A22.6,22.6,0,0,1,17,92.9a18.1,18.1,0,0,1-3.2-4.6,12.2,12.2,0,0,1-1.2-5,6.7,6.7,0,0,1,1.3-4.1c2-2.6,5.4-3.7,9.9-3.4a20.9,20.9,0,0,1,10.6,4c-.6-2-1.4-3.9-2.1-6l-2.4-6.3,7.3.9c1,2.8,1.9,5.5,2.8,8.2l2.6,7.8c.7,2.4,1.4,4.7,2,6.9S45.9,95.7,46.6,97.9Z"/><path d="M41,20.6l-1-.3.9,5.3q.5,2.7.9,5.7H40l-.9-5.9-.9-5.5-1-.3c-.1-1-.3-2-.4-2.9l.9.3-.3-2.3a22.3,22.3,0,0,1-.4-2.3l1.7.8a14.3,14.3,0,0,1,.4,2.2c.1.7.3,1.5.4,2.3l1,.3A25.6,25.6,0,0,0,41,20.6ZM36.3,31H34c-.4-2.9-.7-5.7-1.1-8.5L32,14.8l2.2.8c.4,2.4.7,4.8,1,7.3s.8,5.3,1.1,8.1M34,12.4a2.1,2.1,0,0,1-.1,1.4.6.6,0,0,1-.9.2,2.1,2.1,0,0,1-1.1-1,4.5,4.5,0,0,1-.7-1.8,2,2,0,0,1,.2-1.4.8.8,0,0,1,1-.1c.4.1.7.5,1,1A2.9,2.9,0,0,1,34,12.4ZM30.3,30.8h-3l-1.5-8.5-1.5-7.8c-.5,2.3-.9,4.7-1.4,7.3s-1.1,5.6-1.7,8.7H17.3c-.9-3.4-1.8-6.8-2.6-10.1s-1.8-6.5-2.6-9.6c-.5,2.8-1.1,5.7-1.6,8.8S9.2,26.2,8.6,29.9l-6.3-.2C3.8,23.5,5,17.9,6.2,12.8S8.2,3.9,9.1,0l4.5,2,2.7,9.4c.9,3.3,1.8,6.6,2.8,10,.7-3,1.3-5.8,1.9-8.5S22.1,8.2,22.6,6l3,1.4c.7,3.5,1.5,7.2,2.3,11s1.6,8.1,2.4,12.4"/><path class="a" d="M152,39.1c2-5.9,2.6-10.4,2-13.2s-2.7-3.9-5.9-3.5l-1.8.3-2.7,8.6c-.8,2.8-1.7,5.6-2.6,8.4s-1.7,5.4-2.5,8.1-1.7,5.4-2.5,8h2.2a10.1,10.1,0,0,0,4.7-1.3c1.7-1.1,3.3-3,5-6A40.5,40.5,0,0,0,152,39.1Zm5.4-.3a72.3,72.3,0,0,1-4.9,11.5,42,42,0,0,1-5.7,8.5,18.3,18.3,0,0,1-6.8,5.3,23.7,23.7,0,0,1-5.9.8l-5.6.2c1.2-4,2.5-8.1,3.7-12.3l3.9-12.5c1.3-4.4,2.6-8.8,4-13.3s2.7-9,4.1-13.6l6.3-1.2c3.6-.6,6.2-.3,7.7.8s2.8,4.9,2.6,10.1a55,55,0,0,1-1,7.3Q158.9,34.3,157.4,38.8ZM126,57.2l-6.9.4c.2-1,.5-2.1.8-3.1l7-.5-.9,3.2m-15,8.5-4,.2-.3-7.4c0-2.4-.1-4.8-.2-7.3s-.3-4.9-.3-7.4-.3-5-.3-7.5c-.7,2.6-1.4,5.2-2,7.7s-1.3,5.1-1.9,7.6-1.3,4.9-1.9,7.3l-1.8,7.3H94.5l2.7-11c.9-3.7,1.9-7.4,2.8-11.2s2-7.8,2.9-11.8,2-8,3.1-12.1l4-.7.3,7.8c.1,2.6.1,5.1.2,7.7l.3,7.6.3,7.6,2.1-7.8c.7-2.7,1.5-5.3,2.2-8s1.5-5.5,2.2-8.3,1.5-5.5,2.3-8.4l4.5-.8c-1.2,4.3-2.4,8.6-3.5,12.8s-2.4,8.4-3.5,12.6-2.2,7.9-3.2,11.8S112,61.9,111,65.7M92.3,59.2l-5.7.3a28.6,28.6,0,0,0,.7-2.8l5.7-.4c-.2,1-.5,1.9-.7,2.9M79.1,50.8c.1-2.4.3-4.8.4-7.2s.3-4.8.4-7.3c-.9,2.6-1.9,5.1-2.8,7.6l-2.7,7.4,4.7-.5m2.6,16H78.2c.1-2.8.3-5.6.5-8.4l-7.1.4-3,8.3H65.4c1.2-3.3,2.3-6.6,3.5-10s2.5-6.8,3.8-10.3,2.5-7.3,3.9-11,2.7-7.4,4-11.2l3.6-.7c-.2,3.7-.4,7.3-.7,10.9l-.6,10.9-.6,10.5Zm-17-6-4.7.3c.2-.9.4-1.7.5-2.5l4.7-.4a23.8,23.8,0,0,1-.5,2.6M62.2,35.7l-2.9.4-1.5,8.2c-.5,2.7-.9,5.4-1.4,8s-1,5.2-1.4,7.8-.9,5.1-1.4,7.7H50.8c.5-2.6.9-5.1,1.3-7.6s1-5.1,1.4-7.7.9-5.3,1.4-8,1-5.3,1.4-8l-2.6.4c.4-2.5.8-5.1,1.3-7.6l8.7-1.6-1.5,7.9M47.9,61.8l-4.2.2c.1-.7.3-1.5.4-2.3l4.2-.3a20,20,0,0,0-.4,2.4M41.3,59A24.7,24.7,0,0,1,39,66.5q-1.5,2.7-3.3,2.7c-1.8.1-2.7-2.3-2.9-7.3l2.5-3.5c.2,3.1.6,4.6,1.4,4.6a2.1,2.1,0,0,0,1.2-1,8.1,8.1,0,0,0,.9-2.5,10,10,0,0,0-.2-3.4,21.5,21.5,0,0,0-.7-2.6c-.7-2.4-1.2-4.1-1.4-5.3a24.2,24.2,0,0,1-.1-7.1A20.4,20.4,0,0,1,38.6,34c.9-1.9,1.9-3,3-3.2s2.4,1.6,3,5.6l-2.7,5.1c-.2-2.6-.7-3.8-1.4-3.6s-.6.2-.9.7a6.9,6.9,0,0,0-.7,1.9,9.6,9.6,0,0,0,0,1.7,35,35,0,0,0,1.2,4.6c.6,2.2,1,3.5,1.1,4a25,25,0,0,1,.1,8.2M31.2,62.8l-3.6.2.3-2.2,3.6-.3-.3,2.3M23.4,59q.6-4.7-1.8-4.5h-.5c-.3,2.8-.7,5.7-1,8.5h.5a2.1,2.1,0,0,0,1.6-.6A6.1,6.1,0,0,0,23.4,59m1-14.3c.3-2.4-.1-3.5-1.1-3.3h-.5c-.3,2.4-.6,4.9-1,7.3h.5C23.4,48.6,24.1,47.3,24.4,44.7Zm1.1,14.4a27.1,27.1,0,0,1-1.1,5.1,10.4,10.4,0,0,1-1.8,3.5,2.8,2.8,0,0,1-2.3,1.2H17.2c.4-2.6.7-5.4,1-8.1s.7-5.5,1-8.2.7-5.7,1.1-8.6.7-5.8,1-8.7l1.9-.3a3.3,3.3,0,0,1,2.3.2,4.3,4.3,0,0,1,1.3,2.8,24.2,24.2,0,0,1,0,5.4,21.6,21.6,0,0,1-2.1,6.9C25.8,52.1,26.1,55,25.5,59.1Zm-9.8,4.6-3.2.2c.1-.7.1-1.4.2-2.1l3.2-.2c-.1.7-.1,1.4-.2,2.1M7.8,57.3c-.1-1.8-.1-3.6-.1-5.4s-.1-3.6-.2-5.4L6.3,52.1,5.1,57.6l2.7-.3m2.2,12H8c0-2.1-.1-4.2-.1-6.3l-4,.2c-.5,2.1-1,4.2-1.4,6.3H.6c.6-2.5,1.1-5,1.6-7.6s1.1-5.1,1.7-7.7S5,48.9,5.6,46.2l1.8-8.3,2-.3c.1,2.7.1,5.4.2,8s.1,5.4.1,8.1.1,5.2.2,7.8S10,66.7,10,69.3Z"/></svg>