<?xml version="1.0" encoding="utf-8"?>
<svg viewBox="0 0 572 273" version="1.1" style="fill-rule:evenodd;clip-rule:evenodd;stroke-linejoin:round;stroke-miterlimit:2;" xmlns="http://www.w3.org/2000/svg">
  <g transform="matrix(1.75082,0,0,1.75082,-562.458,-710.748)" style="fill:rgb(31,32,52);fill-rule:nonzero;">
    <path d="M 432.618 412.938 L 432.618 406.469 L 465.65 406.469 L 465.65 412.938 L 452.587 412.938 L 452.587 454.094 L 445.743 454.094 L 445.743 412.938 L 432.618 412.938 Z" style="fill-rule:nonzero;"/>
    <path d="M 467.496 454.094 L 467.496 406.469 L 474.214 406.469 L 474.214 425.156 L 475.746 423.938 L 480.933 421.25 L 488.027 421.25 L 494.027 424.344 L 496.652 432.281 L 496.652 454.094 L 490.058 454.094 L 490.058 433.281 L 488.589 429.063 L 486.433 427.906 L 481.746 427.906 L 478.558 429.469 L 474.214 433.344 L 474.214 454.094 L 467.496 454.094 Z" style="fill-rule:nonzero;"/>
    <path d="M 499.873 439.563 L 499.873 436.375 L 502.06 429 L 506.779 423.938 L 512.092 421.25 L 519.779 421.25 L 525.092 423.938 L 527.842 426.781 L 530.529 432 L 530.529 439.875 L 506.404 439.875 L 507.623 443.406 L 510.623 446.406 L 513.685 448 L 518.248 448 L 521.185 446.469 L 524.842 442.906 L 529.498 447.625 L 525.092 451.969 L 519.779 454.656 L 512.092 454.656 L 506.779 451.969 L 502.06 446.938 L 499.873 439.563 Z M 506.967 434.188 L 524.248 434.188 L 523.435 431.125 L 521.435 428.813 L 518.31 427.156 L 513.498 427.156 L 510.498 428.75 L 507.31 432.531 L 506.967 434.188 Z" style="fill-rule:nonzero;"/>
    <path d="M 531.938 439.563 L 531.938 436.375 L 534.438 429 L 539.438 423.938 L 544.813 421.25 L 551.281 421.25 L 556.5 423.938 L 556.5 421.844 L 563.25 421.844 L 563.25 444.313 L 568.031 451.594 L 562.594 455.375 L 559.406 450.563 L 552.813 454.656 L 544.813 454.656 L 539.438 451.969 L 534.438 446.938 L 531.938 439.563 Z M 538.594 438.531 L 540.25 443.406 L 543.281 446.406 L 546.344 448 L 551.063 448 L 556.5 444.688 L 556.5 432.156 L 553.813 429.469 L 550.938 427.906 L 546.281 427.906 L 543.406 429.469 L 540.25 432.531 L 538.594 437.469 L 538.594 438.531 Z" style="fill-rule:nonzero;"/>
    <path d="M 566.565 428.5 L 566.565 421.844 L 572.377 421.844 L 572.377 411.531 L 579.096 411.531 L 579.096 421.844 L 587.159 421.844 L 587.159 428.5 L 579.096 428.5 L 579.096 442.063 L 580.565 446.344 L 582.69 447.438 L 587.096 447.438 L 587.096 454.094 L 581.096 454.094 L 575.065 451.094 L 572.377 443.156 L 572.377 428.5 L 566.565 428.5 Z" style="fill-rule:nonzero;"/>
    <path d="M 589.598 439.563 L 589.598 436.375 L 591.786 429 L 596.505 423.938 L 601.817 421.25 L 609.505 421.25 L 614.817 423.938 L 617.567 426.781 L 620.255 432 L 620.255 439.875 L 596.13 439.875 L 597.348 443.406 L 600.348 446.406 L 603.411 448 L 607.973 448 L 610.911 446.469 L 614.567 442.906 L 619.223 447.625 L 614.817 451.969 L 609.505 454.656 L 601.817 454.656 L 596.505 451.969 L 591.786 446.938 L 589.598 439.563 Z M 596.692 434.188 L 613.973 434.188 L 613.161 431.125 L 611.161 428.813 L 608.036 427.156 L 603.223 427.156 L 600.223 428.75 L 597.036 432.531 L 596.692 434.188 Z" style="fill-rule:nonzero;"/>
    <path d="M 623.663 454.094 L 623.663 421.844 L 630.319 421.844 L 630.319 424.469 L 635.038 421.25 L 638.819 421.25 L 644.882 424.344 L 647.132 431.063 L 640.944 433.281 L 639.194 429.063 L 637.413 427.906 L 635.632 427.906 L 630.319 432 L 630.319 454.094 L 623.663 454.094 Z" style="fill-rule:nonzero;"/>
  </g>
  <g transform="matrix(1, 0, 0, 1, 555.294983, 136.998993)">
    <path d="M -277.907 40.57 L -277.907 -42.812 L -266.035 -42.812 L -266.035 -2.543 L -225.82 -42.812 L -208.915 -42.812 L -245.79 -6.045 L -210.828 40.57 L -225.82 40.57 L -254.271 2.49 L -266.035 14.144 L -266.035 40.57 L -277.907 40.57 Z" style="fill-rule: nonzero; fill: rgb(31, 32, 52);"/>
    <path d="M -211.481 22.297 L -211.481 -15.893 L -199.828 -15.893 L -199.828 20.49 L -197.256 28.042 L -193.427 29.901 L -185.384 29.901 L -179.639 27.22 L -172.034 20.49 L -172.034 -15.893 L -160.27 -15.893 L -160.27 40.57 L -172.034 40.57 L -172.034 33.294 L -174.714 36.85 L -183.797 41.556 L -196.216 41.556 L -206.777 36.193 L -211.481 22.297 Z" style="fill-rule: nonzero; fill: rgb(31, 32, 52);"/>
    <path d="M -151.512 25.305 L -151.512 -42.812 L -139.859 -42.812 L -139.859 22.843 L -137.395 27.55 L -136.028 28.917 L -128.203 28.917 L -128.203 40.57 L -140.953 40.57 L -146.916 34.607 L -151.512 25.305 Z" style="fill-rule: nonzero; fill: rgb(31, 32, 52);"/>
    <path d="M -130.005 -4.24 L -130.005 -15.893 L -119.829 -15.893 L -119.829 -33.948 L -108.066 -33.948 L -108.066 -15.893 L -93.95 -15.893 L -93.95 -4.24 L -108.066 -4.24 L -108.066 19.506 L -105.494 27.002 L -101.773 28.917 L -94.059 28.917 L -94.059 40.57 L -104.564 40.57 L -115.123 35.318 L -119.829 21.422 L -119.829 -4.24 L -130.005 -4.24 Z" style="fill-rule: nonzero; fill: rgb(31, 32, 52);"/>
    <path d="M -86.888 22.297 L -86.888 -15.893 L -75.234 -15.893 L -75.234 20.49 L -72.662 28.042 L -68.833 29.901 L -60.79 29.901 L -55.045 27.22 L -47.44 20.49 L -47.44 -15.893 L -35.676 -15.893 L -35.676 40.57 L -47.44 40.57 L -47.44 33.294 L -50.12 36.85 L -59.204 41.556 L -71.622 41.556 L -82.183 36.193 L -86.888 22.297 Z" style="fill-rule: nonzero; fill: rgb(31, 32, 52);"/>
    <path d="M -25.879 40.57 L -25.879 -15.893 L -14.225 -15.893 L -14.225 -11.298 L -5.963 -16.933 L 0.657 -16.933 L 11.272 -11.516 L 15.211 0.247 L 4.377 4.132 L 1.313 -3.254 L -1.805 -5.278 L -4.923 -5.278 L -14.225 1.888 L -14.225 40.57 L -25.879 40.57 Z" style="fill-rule: nonzero; fill: rgb(31, 32, 52);"/>
  </g>
  <g transform="matrix(1, 0, 0, 1, 286, 136.998993)">
    <path d="M -277.907 133.851 L -277.907 50.468 L -266.035 50.468 L -266.035 90.737 L -225.82 50.468 L -208.915 50.468 L -245.79 87.235 L -210.828 133.851 L -225.82 133.851 L -254.271 95.77 L -266.035 107.426 L -266.035 133.851 L -277.907 133.851 Z" style="fill-rule: nonzero; fill: rgb(31, 32, 52);"/>
    <path d="M -214.545 108.41 L -214.545 102.83 L -210.168 89.917 L -201.414 81.053 L -192.003 76.348 L -180.677 76.348 L -171.542 81.053 L -171.542 77.387 L -159.724 77.387 L -159.724 116.726 L -151.351 129.474 L -160.872 136.095 L -166.452 127.669 L -177.997 134.836 L -192.003 134.836 L -201.414 130.13 L -210.168 121.322 L -214.545 108.41 Z M -202.892 106.604 L -199.992 115.14 L -194.684 120.392 L -189.323 123.183 L -181.061 123.183 L -171.542 117.382 L -171.542 95.443 L -176.246 90.737 L -181.28 88.002 L -189.431 88.002 L -194.465 90.737 L -199.992 96.1 L -202.892 104.743 L -202.892 106.604 Z" style="fill-rule: nonzero; fill: rgb(31, 32, 52);"/>
    <rect x="-146.424" y="77.387" width="11.764" height="56.464" style="fill: rgb(31, 32, 52);"/>
    <path d="M -127.27 93.09 L -121.634 80.944 L -108.339 76.348 L -100.133 76.348 L -87.275 81.053 L -81.858 90.574 L -91.981 95.278 L -94.77 90.136 L -102.048 86.908 L -106.644 86.908 L -113.92 89.588 L -114.96 92.925 L -113.483 95.881 L -108.776 98.453 L -96.358 101.461 L -87.385 106.167 L -82.57 114.373 L -82.57 119.625 L -87.823 130.13 L -100.133 134.836 L -108.339 134.836 L -121.745 130.13 L -127.051 120.611 L -116.492 115.686 L -113.483 121.213 L -106.534 124.331 L -102.048 124.331 L -95.537 121.651 L -93.402 118.258 L -94.989 114.811 L -99.803 112.349 L -112.497 108.847 L -122.018 104.143 L -127.27 93.09 Z" style="fill-rule: nonzero; fill: rgb(31, 32, 52);"/>
    <path d="M -78.844 108.41 L -78.844 102.83 L -75.015 89.917 L -66.753 81.053 L -57.453 76.348 L -43.993 76.348 L -34.692 81.053 L -29.877 86.032 L -25.171 95.17 L -25.171 108.958 L -67.41 108.958 L -65.276 115.14 L -60.023 120.392 L -54.662 123.183 L -46.673 123.183 L -41.531 120.501 L -35.13 114.264 L -26.976 122.526 L -34.692 130.13 L -43.993 134.836 L -57.453 134.836 L -66.753 130.13 L -75.015 121.322 L -78.844 108.41 Z M -66.426 98.999 L -36.168 98.999 L -37.592 93.638 L -41.093 89.588 L -46.565 86.689 L -54.989 86.689 L -60.242 89.48 L -65.824 96.1 L -66.426 98.999 Z" style="fill-rule: nonzero; fill: rgb(31, 32, 52);"/>
    <path d="M -19.204 133.851 L -19.204 77.387 L -7.549 77.387 L -7.549 81.983 L 0.711 76.348 L 7.333 76.348 L 17.946 81.764 L 21.886 93.528 L 11.053 97.413 L 7.989 90.026 L 4.869 88.002 L 1.751 88.002 L -7.549 95.17 L -7.549 133.851 L -19.204 133.851 Z" style="fill-rule: nonzero; fill: rgb(31, 32, 52);"/>
    <path d="M 20.632 93.09 L 26.266 80.944 L 39.562 76.348 L 47.77 76.348 L 60.626 81.053 L 66.043 90.574 L 55.922 95.278 L 53.131 90.136 L 45.854 86.908 L 41.258 86.908 L 33.982 89.588 L 32.942 92.925 L 34.42 95.881 L 39.124 98.453 L 51.544 101.461 L 60.517 106.167 L 65.332 114.373 L 65.332 119.625 L 60.08 130.13 L 47.77 134.836 L 39.562 134.836 L 26.158 130.13 L 20.851 120.611 L 31.41 115.686 L 34.42 121.213 L 41.367 124.331 L 45.854 124.331 L 52.366 121.651 L 54.498 118.258 L 52.912 114.811 L 48.097 112.349 L 35.404 108.847 L 25.884 104.143 L 20.632 93.09 Z" style="fill-rule: nonzero; fill: rgb(31, 32, 52);"/>
    <path d="M 69.056 108.41 L 69.056 102.83 L 72.887 89.917 L 81.147 81.053 L 90.449 76.348 L 103.908 76.348 L 113.21 81.053 L 118.025 86.032 L 122.729 95.17 L 122.729 108.958 L 80.491 108.958 L 82.625 115.14 L 87.877 120.392 L 93.24 123.183 L 101.227 123.183 L 106.371 120.501 L 112.772 114.264 L 120.924 122.526 L 113.21 130.13 L 103.908 134.836 L 90.449 134.836 L 81.147 130.13 L 72.887 121.322 L 69.056 108.41 Z M 81.476 98.999 L 111.732 98.999 L 110.311 93.638 L 106.809 89.588 L 101.338 86.689 L 92.911 86.689 L 87.659 89.48 L 82.079 96.1 L 81.476 98.999 Z" style="fill-rule: nonzero; fill: rgb(31, 32, 52);"/>
    <path d="M 125.415 93.09 L 131.051 80.944 L 144.345 76.348 L 152.553 76.348 L 165.411 81.053 L 170.826 90.574 L 160.705 95.278 L 157.914 90.136 L 150.637 86.908 L 146.041 86.908 L 138.765 89.588 L 137.725 92.925 L 139.203 95.881 L 143.907 98.453 L 156.328 101.461 L 165.3 106.167 L 170.115 114.373 L 170.115 119.625 L 164.863 130.13 L 152.553 134.836 L 144.345 134.836 L 130.941 130.13 L 125.634 120.611 L 136.193 115.686 L 139.203 121.213 L 146.152 124.331 L 150.637 124.331 L 157.149 121.651 L 159.283 118.258 L 157.695 114.811 L 152.88 112.349 L 140.187 108.847 L 130.668 104.143 L 125.415 93.09 Z" style="fill-rule: nonzero; fill: rgb(31, 32, 52);"/>
    <path d="M 173.839 108.41 L 173.839 102.83 L 178.216 89.917 L 186.97 81.053 L 196.272 76.348 L 209.677 76.348 L 218.979 81.053 L 227.733 89.807 L 219.471 98.123 L 212.138 90.847 L 206.886 88.002 L 198.844 88.002 L 193.811 90.737 L 188.394 96.1 L 185.494 104.743 L 185.494 106.604 L 188.394 115.14 L 193.701 120.392 L 199.063 123.183 L 206.996 123.183 L 212.138 120.501 L 219.69 113.005 L 227.842 121.322 L 218.979 130.13 L 209.677 134.836 L 196.272 134.836 L 186.97 130.13 L 178.216 121.322 L 173.839 108.41 Z" style="fill-rule: nonzero; fill: rgb(31, 32, 52);"/>
    <path d="M 233.372 133.851 L 233.372 50.468 L 245.134 50.468 L 245.134 83.187 L 247.817 81.053 L 256.898 76.348 L 269.318 76.348 L 279.823 81.764 L 284.419 95.662 L 284.419 133.851 L 272.874 133.851 L 272.874 97.413 L 270.302 90.026 L 266.528 88.002 L 258.322 88.002 L 252.74 90.737 L 245.134 97.521 L 245.134 133.851 L 233.372 133.851 Z" style="fill-rule: nonzero; fill: rgb(31, 32, 52);"/>
  </g>
  <g transform="matrix(1, 0, 0, 1, 285.999878, 136.9991)">
    <path d="M -151.785 59.003 L -140.624 47.679 L -129.408 59.003 L -140.624 70.221 L -151.785 59.003 Z" style="fill-rule: nonzero; fill: rgb(31, 32, 52);"/>
  </g>
</svg>