<?xml version="1.0" encoding="utf-8"?>
<svg viewBox="0 0 946.702 943.753" xmlns="http://www.w3.org/2000/svg">
  <defs>
    <clipPath id="clippath0" transform="">
      <path d="M 0 943.753 L 946.702 943.753 L 946.702 0 L 0 0 Z" style="fill: none; clip-rule: nonzero;"/>
    </clipPath>
    <clipPath id="clippath1" transform="">
      <path d="M 0 943.753 L 946.702 943.753 L 946.702 0 L 0 0 Z" style="fill: none; clip-rule: nonzero;"/>
    </clipPath>
  </defs>
  <g transform="matrix(1, 0, 0, -1, 0, 943.752991)">
    <g transform="">
      <path d="M 0 943.753 L 946.702 943.753 L 946.702 0 L 0 0 Z" style="fill: none;"/>
    </g>
    <g style="clip-path: url(#clippath0);">
      <g transform="translate(845.8608 775.239)">
        <path d="M 0 0 L -832.958 0 C -850.264 -15.048 -847.63 -28.235 -839.729 -29.357 C -815.653 -30.11 -238.523 -30.863 -214.447 -31.615 C -213.695 -114.409 -212.942 -197.227 -212.189 -280.021 C -200.152 -280.021 -188.11 -289.053 -176.072 -266.471 L -176.072 -31.615 C -154.254 -30.863 -33.105 -30.11 -11.287 -29.357 C 2.45 -21.264 8.836 -7.341 0 0" style="fill: rgb(0, 0, 0); fill-rule: evenodd; fill-opacity: 1;"/>
      </g>
    </g>
    <g style="clip-path: url(#clippath0);">
      <g transform="translate(418.0224 667.9226)">
        <path d="M 0 0 C -5.865 2.363 -12.89 5.229 -20.867 8.678 L -43.059 18.272 C -59.449 25.359 -70.028 25.973 -77.488 8.706 C -78.868 5.514 -79.479 2.506 -79.78 -0.98 C -80.144 -4.612 -79.845 -8.702 -78.448 -13.438 C -81.165 -12.953 -83.615 -13.443 -84.743 -16.055 C -84.806 -16.2 -84.994 -16.636 -85.037 -17.133 C -84.965 -20.953 -84.765 -23.278 -84.208 -24.38 C -80.869 -24.619 -77.219 -25.335 -72.578 -27.342 L -47.92 -38.003 C -36.751 -42.833 -27.532 -46.991 -19.762 -50.523 C -16.521 -42.625 -15.687 -41.091 -16.385 -38.723 C -17.707 -36.602 -19.467 -35.496 -22.513 -34.179 L -67.767 -14.613 C -69.786 -10.123 -70.724 -4.724 -68.467 0.5 C -64.706 9.206 -59.454 10.207 -48.285 5.378 L -9.849 -11.241 C -7.528 -12.244 -5.372 -12.832 -3.4 -12.651 C 0.173 -4.38 0.678 -2.016 0 0 M -81.302 -78.471 C -94.627 -70.853 -98.268 -62.284 -96.265 -56.212 C -96.192 -55.718 -95.979 -55.295 -95.765 -54.871 C -92.56 -48.521 -86.902 -47.484 -78.647 -50.769 C -77.66 -51.268 -76.601 -51.625 -75.473 -52.195 C -73.639 -53.122 -72.089 -54.259 -71.174 -55.252 C -71.038 -56.384 -71.466 -57.584 -71.966 -58.925 C -73.038 -61.749 -75.817 -67.605 -78.595 -73.108 Z M -33.251 -61.484 C -35.015 -60.77 -37.837 -59.698 -39.321 -59.48 C -39.202 -65.207 -40.85 -70.927 -43.842 -76.853 C -48.828 -86.73 -57.113 -90.868 -72.699 -83.171 C -71.418 -80.984 -70.493 -79.15 -69.353 -76.893 C -66.005 -70.26 -62.583 -62.78 -60.939 -58.121 C -59.58 -54.026 -58.781 -48.586 -59.197 -46.605 C -61.169 -44.9 -64.13 -43.05 -67.092 -41.554 C -69.49 -40.343 -71.817 -39.344 -74.004 -38.416 C -86.776 -33.558 -97.81 -36.129 -104.221 -48.829 C -112.056 -64.35 -107.742 -81.051 -80.519 -94.804 C -68.812 -100.719 -58.644 -102.668 -51.073 -100.295 C -42.794 -97.571 -37.963 -91.157 -34.615 -84.525 C -32.407 -80.15 -31.117 -75.49 -30.612 -73.088 C -29.605 -68.639 -30.501 -63.05 -33.251 -61.484 M -62.798 -126.332 C -77.52 -118.011 -99.769 -105.342 -115.232 -96.41 C -112.783 -92.166 -110.649 -88.47 -109.264 -85.437 C -109.005 -84.673 -108.963 -83.967 -108.942 -83.614 C -108.52 -81.303 -109.493 -79.828 -115.688 -75.702 C -116.578 -77.561 -118.316 -80.572 -120.055 -83.584 L -124.322 -90.977 C -127.333 -89.238 -130.343 -87.499 -133.138 -85.702 C -144.59 -78.356 -144.088 -71.163 -140.532 -65.002 C -139.505 -63.222 -138.025 -60.974 -136.824 -59.842 C -135.918 -58.905 -134.797 -57.91 -134.697 -57.42 C -134.986 -56.34 -135.57 -55.456 -136.485 -54.196 C -137.206 -53.232 -138.085 -52.542 -139.101 -51.773 C -139.785 -51.378 -140.527 -50.767 -141.527 -50.919 C -143.607 -51.36 -146.814 -54.072 -150.054 -59.685 C -155.584 -69.268 -158.475 -84.392 -141.144 -96.411 C -138.233 -98.64 -134.891 -100.753 -131.196 -102.887 C -132.071 -105.667 -132.687 -107.685 -133.046 -108.938 C -133.763 -111.444 -133.316 -112.25 -128.568 -115.723 C -126.604 -114.849 -124.693 -112.485 -122.027 -108.183 C -109.711 -115.297 -97.863 -121.958 -86.642 -128.44 C -81.031 -131.681 -75.5 -135.059 -70.025 -138.221 C -68.794 -138.932 -67.699 -139.564 -66.799 -139.902 C -66.109 -139.022 -65.419 -138.144 -64.787 -137.048 C -63.839 -135.405 -61.684 -131.356 -60.831 -128.929 C -60.609 -127.596 -62.114 -126.727 -62.798 -126.332 M -132.306 -163.509 C -144.592 -154.309 -147.151 -145.358 -144.417 -139.58 C -144.284 -139.098 -144.02 -138.704 -143.755 -138.311 C -139.793 -132.404 -134.052 -132.071 -126.265 -136.347 C -125.346 -136.963 -124.34 -137.449 -123.29 -138.153 C -121.584 -139.298 -120.186 -140.618 -119.401 -141.716 C -119.404 -142.856 -119.978 -143.994 -120.639 -145.263 C -122.049 -147.933 -125.527 -153.402 -128.961 -158.521 Z M -82.536 -152.568 C -84.198 -151.643 -86.867 -150.231 -88.312 -149.833 C -88.899 -155.53 -91.238 -161.002 -94.936 -166.515 C -101.099 -175.703 -109.828 -178.789 -124.348 -169.232 C -122.808 -167.22 -121.664 -165.514 -120.255 -163.414 C -116.117 -157.245 -111.802 -150.244 -109.597 -145.823 C -107.745 -141.927 -106.283 -136.626 -106.452 -134.609 C -108.199 -132.675 -110.909 -130.475 -113.665 -128.625 C -115.895 -127.128 -118.082 -125.851 -120.138 -124.661 C -132.213 -118.268 -143.479 -119.461 -151.403 -131.273 C -161.087 -145.711 -158.86 -162.814 -133.539 -179.813 C -122.649 -187.123 -112.799 -190.309 -104.995 -188.886 C -96.444 -187.202 -90.862 -181.433 -86.724 -175.264 C -83.995 -171.195 -82.141 -166.729 -81.345 -164.408 C -79.798 -160.117 -80 -154.461 -82.536 -152.568 M -121.462 -203.968 L -163.715 -170.777 C -168.935 -166.677 -170.896 -165.337 -173.319 -164.84 C -177.32 -169.938 -179.972 -174.085 -178.338 -177.378 C -175.009 -179.792 -171.06 -182.693 -165.343 -187.184 L -143.346 -204.463 C -135.766 -210.417 -128.531 -216.301 -122.193 -221.28 C -116.853 -214.22 -115.486 -212.48 -116.046 -210.633 C -116.908 -208.147 -118.604 -206.213 -121.462 -203.968 M -202.74 -158.813 C -197.77 -162.718 -194.361 -162.983 -190.946 -158.631 C -186.945 -153.534 -189.077 -149.851 -193.329 -146.31 C -197.705 -142.671 -200.624 -141.784 -204.528 -146.757 C -208.041 -151.232 -207.338 -155.201 -202.74 -158.813 M -166.653 -202.633 C -181.802 -188.059 -191.134 -185.223 -201.759 -196.276 C -204.497 -199.126 -206.337 -202.18 -207.511 -204.998 C -208.791 -208.154 -209.715 -212.309 -209.742 -216.67 L -233.89 -193.44 C -238.674 -188.838 -240.374 -187.641 -242.284 -187.12 C -246.885 -191.905 -249.277 -195.307 -248.085 -199.085 C -245.356 -201.491 -241.943 -204.555 -237.159 -209.157 L -193.646 -251.015 C -184.306 -260 -176.67 -267.565 -170.173 -274.034 C -164.368 -267.995 -163.053 -266.628 -162.769 -264.051 C -163.487 -261.605 -165.204 -259.515 -167.596 -257.213 L -202.224 -223.902 C -202.325 -218.761 -200.997 -212.362 -196.616 -207.804 C -192.563 -203.588 -187.888 -202.602 -180.383 -209.163 C -179.025 -210.031 -177.431 -211.564 -175.266 -213.647 L -147.701 -240.164 C -145.537 -242.246 -143.609 -243.662 -141.694 -244.407 C -135.123 -237.57 -134.036 -235.983 -134.08 -233.748 C -138.404 -229.808 -143.644 -224.768 -149.908 -218.74 Z M -188.079 -273.272 C -189.79 -276.526 -192.988 -280.694 -197.164 -283.818 C -205.39 -289.971 -216.201 -292.136 -229.826 -273.906 C -241.18 -258.714 -240.689 -247.491 -233.19 -240.896 C -232.652 -240.296 -232.145 -239.917 -231.513 -239.443 C -228.982 -237.551 -225.725 -236.102 -222.69 -235.41 C -221.14 -234.844 -219.591 -234.276 -218.705 -233.614 L -218.073 -233.141 C -218.385 -230.611 -219.833 -227.353 -221.063 -225.707 C -222.8 -224.439 -230.923 -225.187 -238.389 -230.772 C -244.463 -235.314 -249.655 -241.566 -251.09 -249.942 C -252.619 -258.191 -250.771 -269.639 -240.742 -283.058 C -221.818 -308.378 -206.391 -304.733 -192.724 -294.511 C -188.168 -291.103 -184.844 -286.84 -183.669 -283.396 C -183.002 -281.12 -183.472 -278.116 -184.67 -276.249 C -185.333 -275.363 -186.752 -274.254 -188.079 -273.272 M -252.088 -287.298 C -258.088 -285.854 -266.706 -284.819 -271.647 -283.734 C -276.377 -282.72 -278.561 -281.153 -279.75 -278.744 C -281.918 -274.35 -279.562 -269.482 -273.751 -266.613 C -271.201 -265.354 -268.724 -264.659 -266.178 -264.46 C -263.35 -264.121 -261.154 -263.213 -258.96 -262.658 C -258.596 -260.539 -259.074 -257.072 -259.983 -255.23 C -261.389 -253.809 -266.611 -252.155 -275.393 -255.788 C -276.597 -256.206 -278.083 -256.764 -279.642 -257.533 C -292.396 -263.832 -297.963 -274.692 -292.577 -285.607 C -290.198 -290.428 -286.045 -293.842 -279.766 -295.854 L -274.896 -297.151 C -270.307 -298.234 -264.164 -299.256 -259.15 -300.13 C -253.219 -301.079 -250.119 -303.074 -248.51 -306.335 C -246.202 -311.013 -247.71 -315.813 -252.531 -318.899 C -253.312 -319.461 -254.234 -320.093 -255.084 -320.513 C -259.052 -322.472 -263.367 -323.369 -266.973 -323.564 C -268.739 -323.554 -270.225 -323.759 -271.358 -324.318 C -271.642 -324.459 -271.783 -324.528 -271.925 -324.599 C -272.433 -327.142 -271.814 -330.538 -270.694 -332.807 C -267.529 -335.65 -258.759 -334.493 -249.974 -330.154 C -236.937 -323.716 -229.597 -311.804 -236.103 -298.62 C -239.041 -292.666 -243.617 -289.108 -252.088 -287.298" style="fill: rgb(0, 0, 0); fill-rule: evenodd; fill-opacity: 1;"/>
      </g>
    </g>
    <g style="clip-path: url(#clippath0);">
      <g transform="translate(183.8721 607.1667)">
        <path d="M 0 0 L 0 26.56 C 0 42.369 -3.318 52.645 -17.225 53.751 C -18.173 53.91 -19.28 53.91 -20.386 53.91 C -23.705 53.91 -26.707 53.435 -30.025 52.329 C -33.66 51.222 -37.611 49.167 -41.404 46.005 C -44.09 50.589 -48.199 53.435 -55.311 53.91 C -56.258 54.067 -57.365 54.067 -58.155 54.067 C -61.79 54.067 -64.792 53.593 -68.111 52.487 C -71.429 51.38 -75.222 49.483 -79.015 46.321 C -79.647 49.009 -80.911 51.064 -83.914 51.064 C -84.072 51.064 -84.546 51.064 -85.02 50.906 C -88.497 49.325 -90.551 48.218 -91.341 47.27 C -90.235 44.108 -89.445 40.472 -89.445 35.413 L -89.445 7.114 C -89.445 -4.743 -89.445 -14.544 -89.603 -22.607 C -81.227 -22.607 -79.489 -22.607 -77.435 -21.026 C -76.17 -19.445 -75.854 -17.865 -75.854 -15.177 L -75.854 36.045 C -72.536 39.681 -67.953 42.685 -62.106 42.685 C -54.204 42.685 -51.518 38.258 -51.518 25.927 L -51.518 6.956 C -51.518 -4.901 -51.518 -14.544 -51.833 -22.607 L -45.354 -22.607 C -42.668 -22.607 -40.93 -22.607 -39.823 -22.449 C -38.559 -22.133 -37.769 -21.5 -37.769 -19.92 L -37.769 35.887 C -34.451 39.523 -29.868 42.527 -24.336 42.527 C -16.277 42.527 -13.749 38.1 -13.749 25.769 L -13.749 -17.548 C -13.749 -19.762 -13.274 -21.343 -12.642 -22.607 C -3.792 -22.607 -1.58 -22.133 0.316 -20.71 C 0 -15.019 0 -7.905 0 0 M -121.042 1.739 C -121.042 -1.581 -121.042 -3.952 -121.359 -5.85 C -121.517 -6.798 -121.675 -7.747 -121.833 -8.063 C -124.045 -10.75 -129.26 -12.964 -134.001 -12.964 L -135.107 -12.964 C -140.006 -12.647 -143.483 -9.802 -143.483 -1.739 C -143.483 8.221 -137.003 11.541 -129.418 12.806 C -127.838 12.963 -126.1 13.122 -124.203 13.122 C -123.097 13.122 -121.991 13.122 -121.042 12.963 Z M -107.926 -7.114 C -107.926 1.265 -107.61 13.912 -107.61 24.82 L -107.61 31.935 C -107.61 45.373 -111.403 53.119 -123.097 53.91 C -125.784 54.067 -126.1 54.067 -128.628 54.067 C -139.216 53.751 -148.698 49.641 -152.017 46.479 C -152.174 46.005 -152.333 45.373 -152.333 44.74 C -152.333 44.108 -152.333 43.476 -152.174 43.001 C -151.858 41.104 -151.227 38.258 -149.804 36.677 C -148.54 36.677 -146.959 37.152 -145.221 37.942 C -140.638 39.839 -134.159 42.053 -128.628 42.053 C -121.833 42.053 -121.042 38.1 -121.042 30.986 L -121.042 21.975 C -122.465 22.291 -124.203 22.449 -126.258 22.449 C -127.68 22.449 -129.102 22.449 -130.683 22.291 C -140.164 21.342 -157.39 16.441 -157.39 -3.004 C -157.39 -17.548 -147.75 -23.872 -137.636 -23.872 C -133.369 -23.872 -129.576 -23.556 -126.1 -21.817 C -124.361 -20.868 -122.465 -19.129 -121.517 -18.181 C -119.937 -20.394 -115.828 -23.872 -112.035 -23.872 C -107.926 -23.714 -104.923 -21.975 -103.659 -20.236 C -103.659 -19.287 -103.659 -16.6 -103.501 -14.387 C -108.558 -15.335 -107.926 -7.114 -107.926 -7.114" style="fill: rgb(0, 0, 0); fill-rule: evenodd; fill-opacity: 1;"/>
      </g>
    </g>
    <g style="clip-path: url(#clippath0);">
      <g transform="translate(937.0552 522.7693)">
        <path d="M 0 0 L 0 30.352 C 0 48.417 -3.793 60.161 -19.685 61.425 C -20.769 61.606 -22.032 61.606 -23.297 61.606 C -27.089 61.606 -30.521 61.064 -34.313 59.799 C -38.466 58.535 -42.98 56.186 -47.315 52.573 C -50.385 57.812 -55.08 61.064 -63.207 61.606 C -64.291 61.787 -65.555 61.787 -66.458 61.787 C -70.611 61.787 -74.043 61.245 -77.835 59.98 C -81.627 58.715 -85.962 56.547 -90.296 52.934 C -91.019 56.005 -92.463 58.354 -95.895 58.354 C -96.074 58.354 -96.616 58.354 -97.158 58.173 C -101.131 56.367 -103.479 55.102 -104.382 54.018 C -103.118 50.405 -102.215 46.25 -102.215 40.469 L -102.215 8.13 C -102.215 -5.42 -102.215 -16.621 -102.396 -25.835 C -92.824 -25.835 -90.838 -25.835 -88.49 -24.028 C -87.045 -22.221 -86.684 -20.415 -86.684 -17.343 L -86.684 41.191 C -82.892 45.346 -77.654 48.779 -70.973 48.779 C -61.943 48.779 -58.873 43.721 -58.873 29.629 L -58.873 7.949 C -58.873 -5.601 -58.873 -16.621 -59.234 -25.835 L -51.83 -25.835 C -48.76 -25.835 -46.773 -25.835 -45.509 -25.654 C -44.064 -25.293 -43.161 -24.57 -43.161 -22.763 L -43.161 41.011 C -39.369 45.166 -34.132 48.598 -27.812 48.598 C -18.602 48.598 -15.712 43.54 -15.712 29.448 L -15.712 -20.053 C -15.712 -22.583 -15.17 -24.389 -14.447 -25.835 C -4.335 -25.835 -1.806 -25.293 0.361 -23.667 C 0 -17.163 0 -9.033 0 0 M -122.257 61.064 C -125.508 61.606 -128.577 60.703 -132.009 59.619 C -135.802 58.354 -140.136 56.186 -144.289 52.573 C -145.192 55.644 -146.637 57.993 -149.888 57.993 C -150.249 57.993 -150.609 57.993 -151.151 57.812 C -155.305 56.005 -157.472 54.741 -158.556 53.657 C -157.292 50.043 -156.208 45.888 -156.208 40.107 L -156.389 9.575 C -156.389 -4.517 -156.569 -16.079 -156.75 -25.835 C -146.998 -25.835 -144.831 -25.654 -142.483 -24.028 C -141.038 -22.041 -140.857 -19.873 -140.857 -16.802 L -140.857 40.83 C -137.246 44.624 -132.551 46.611 -126.591 46.611 C -125.688 46.611 -124.604 46.611 -123.341 46.25 C -121.896 46.069 -120.271 45.888 -119.006 45.888 C -118.104 45.888 -118.104 45.888 -117.381 46.069 C -115.214 49.321 -114.491 54.018 -114.491 56.547 C -115.033 59.077 -117.562 60.522 -122.257 61.064 M -178.056 24.751 C -178.056 38.662 -177.875 50.224 -177.694 59.98 C -187.446 59.799 -189.433 59.98 -191.6 58.173 C -193.225 55.825 -193.586 53.476 -193.586 49.682 L -193.586 -7.769 C -196.656 -11.563 -203.157 -14.453 -209.479 -14.091 C -218.146 -14.091 -223.203 -10.659 -223.203 5.601 L -221.397 38.662 C -221.397 47.875 -222.3 51.85 -223.384 56.005 C -224.106 58.896 -225.912 62.148 -229.885 62.148 C -230.065 62.148 -230.607 62.148 -231.329 61.967 C -236.025 59.799 -238.733 58.173 -239.817 56.909 C -238.373 52.573 -237.289 47.695 -237.289 41.011 L -239.095 3.252 C -238.733 -15.898 -234.58 -26.557 -213.632 -27.46 C -209.659 -27.46 -206.228 -26.738 -202.435 -25.473 C -198.462 -24.209 -194.309 -22.041 -189.975 -18.427 C -189.252 -21.499 -187.627 -23.847 -184.376 -23.847 C -184.195 -23.847 -183.653 -23.847 -183.112 -23.667 C -179.139 -21.86 -176.791 -20.595 -175.888 -19.511 C -177.152 -15.898 -178.056 -11.743 -178.056 -5.962 Z" style="fill: rgb(0, 0, 0); fill-rule: evenodd; fill-opacity: 1;"/>
      </g>
    </g>
    <g style="clip-path: url(#clippath0);">
      <g transform="translate(901.7349 837.2058)">
        <path d="M 0 0 C 0.902 17.524 7.765 25.654 14.989 26.738 C 15.53 26.918 16.072 26.918 16.614 26.918 C 24.74 26.918 28.714 21.679 29.616 11.562 C 29.616 10.297 29.797 9.033 29.797 7.587 C 29.797 5.239 29.437 3.071 28.895 1.626 C 27.811 0.903 26.366 0.723 24.74 0.542 C 21.31 0.181 13.905 0 6.862 0 Z M 31.242 -10.298 C 36.118 -9.575 42.077 -7.588 43.884 -6.143 C 44.605 -3.252 44.967 0.723 44.967 4.517 C 44.967 7.587 44.786 10.478 44.605 13.188 C 42.98 28.725 34.673 38.662 18.42 38.662 C -1.445 38.662 -16.254 25.654 -16.254 -9.214 C -16.254 -24.209 -13.003 -35.591 -6.683 -42.095 C 0.36 -49.141 9.391 -50.767 17.878 -50.767 C 23.477 -50.767 28.895 -49.683 31.604 -48.96 C 36.66 -47.695 41.896 -43.901 42.077 -40.288 C 41.896 -38.12 41.535 -34.688 40.994 -33.062 C 35.215 -36.133 28.533 -37.397 20.948 -37.397 C 8.307 -37.397 -0.181 -31.074 -0.361 -11.201 C 2.528 -11.382 4.876 -11.382 7.765 -11.382 C 16.253 -11.382 25.644 -11.021 31.242 -10.298 M -31.781 6.684 C -31.781 27.099 -35.936 38.481 -57.426 38.481 C -61.398 38.481 -64.83 37.758 -68.622 36.494 C -72.596 35.229 -76.749 33.061 -81.083 29.448 C -81.806 32.519 -83.431 34.868 -86.682 34.868 C -86.862 34.868 -87.403 34.868 -87.945 34.687 C -91.919 32.88 -94.267 31.616 -95.169 30.532 C -93.905 26.918 -93.002 22.763 -93.002 16.982 L -93.002 -13.73 C -93.002 -27.642 -93.183 -39.204 -93.363 -48.96 C -83.611 -48.779 -81.625 -48.96 -79.458 -47.153 C -77.832 -44.805 -77.472 -42.456 -77.472 -38.662 L -77.472 17.705 C -73.679 21.86 -68.441 25.292 -61.94 25.292 C -51.104 25.292 -47.674 20.234 -47.674 6.323 L -47.674 -41.553 C -47.674 -44.443 -47.313 -46.973 -46.229 -48.96 C -35.936 -48.96 -33.227 -48.418 -31.421 -46.792 C -31.602 -39.565 -31.781 -30.894 -31.781 -20.957 Z M -113.406 4.697 C -113.406 28.725 -118.463 38.662 -135.98 38.662 C -140.495 38.662 -144.468 37.758 -147.719 36.494 C -151.331 35.048 -155.484 32.519 -159.096 29.086 L -159.096 67.387 C -159.096 74.975 -159.457 77.323 -160.541 79.311 C -168.126 79.311 -172.821 78.588 -174.988 74.613 C -174.808 70.458 -174.627 65.219 -174.627 57.631 L -174.627 -11.382 C -174.627 -26.196 -174.808 -38.481 -174.988 -48.96 C -165.417 -48.96 -163.25 -48.96 -160.901 -47.153 C -159.457 -44.624 -159.096 -41.553 -159.096 -37.759 L -159.096 17.163 C -154.942 21.318 -148.622 25.292 -141.398 25.292 C -134.716 25.292 -130.201 22.221 -129.659 10.839 C -129.299 9.033 -129.299 6.504 -129.299 3.071 L -129.299 -40.649 C -129.299 -44.082 -128.937 -46.792 -128.034 -48.96 C -117.199 -48.96 -115.032 -48.599 -113.226 -46.792 C -113.406 -40.107 -113.406 -31.797 -113.406 -21.86 Z M -195.933 1.626 C -195.933 15.537 -195.752 27.099 -195.571 36.855 C -205.323 36.674 -207.31 36.855 -209.477 35.048 C -211.102 32.7 -211.463 30.351 -211.463 26.557 L -211.463 -30.894 C -214.533 -34.688 -221.034 -37.578 -227.355 -37.217 C -236.023 -37.217 -241.08 -33.784 -241.08 -17.524 L -239.274 19.15 C -239.274 28.364 -239.636 32.7 -240.719 36.855 C -249.929 36.855 -253.722 36.313 -255.527 34.326 C -255.347 27.641 -255.166 20.415 -255.166 10.117 L -256.972 -19.873 C -256.61 -39.023 -252.457 -49.683 -231.509 -50.586 C -227.536 -50.586 -224.104 -49.863 -220.312 -48.599 C -216.339 -47.334 -212.186 -45.166 -207.852 -41.553 C -207.129 -44.624 -205.504 -46.973 -202.253 -46.973 C -202.072 -46.973 -201.53 -46.973 -200.989 -46.792 C -197.016 -44.985 -194.668 -43.721 -193.765 -42.637 C -195.029 -39.023 -195.933 -34.868 -195.933 -29.087 Z M -241.08 53.837 C -234.218 53.837 -232.412 57.992 -232.231 63.954 C -232.051 69.916 -233.314 72.987 -239.996 72.987 C -246.137 72.987 -249.026 69.735 -249.026 63.593 C -249.026 56.908 -246.859 53.837 -241.08 53.837 M -212.728 53.837 C -205.865 53.837 -204.059 57.992 -203.878 63.954 C -203.697 69.916 -204.962 72.987 -211.644 72.987 C -217.784 72.987 -220.673 69.735 -220.673 63.593 C -220.673 56.908 -218.506 53.837 -212.728 53.837 M -312.048 -38.843 C -316.382 -38.843 -320.536 -37.759 -322.884 -36.494 L -322.884 20.776 C -318.911 24.208 -313.312 25.834 -308.437 25.834 C -296.518 25.834 -289.475 18.789 -289.475 -1.445 C -289.475 -30.713 -301.755 -38.843 -312.048 -38.843 M -301.936 38.662 C -310.604 38.662 -317.827 35.59 -322.884 31.977 L -322.884 65.58 C -322.884 73.71 -323.245 76.781 -324.328 79.311 C -331.732 79.311 -336.97 78.588 -338.775 74.433 C -338.595 70.097 -338.414 64.857 -338.414 56.908 L -338.414 -35.591 C -338.414 -39.746 -338.054 -42.998 -336.789 -45.889 C -331.732 -48.96 -323.426 -50.767 -313.674 -50.767 C -306.45 -50.767 -297.42 -49.141 -290.016 -44.082 C -280.806 -37.217 -272.499 -23.848 -272.499 1.084 C -272.499 27.822 -285.32 38.662 -301.936 38.662 M -401.795 24.389 C -400.351 24.389 -398.906 24.57 -397.461 24.75 C -394.933 25.292 -393.85 27.28 -393.308 36.313 L -416.604 36.313 C -416.604 43.72 -416.423 51.308 -416.242 59.618 C -424.73 59.076 -428.522 56.005 -429.787 52.392 L -430.689 36.132 C -433.399 34.868 -438.997 34.326 -441.525 32.158 C -442.97 30.712 -443.15 31.435 -443.15 25.834 C -440.983 24.75 -438.094 24.028 -432.315 24.028 L -432.315 -20.596 C -432.315 -35.229 -429.245 -50.947 -412.45 -50.947 C -406.852 -50.947 -400.712 -49.683 -397.28 -47.515 C -395.836 -46.431 -394.933 -45.347 -394.571 -43.901 C -394.392 -42.275 -394.392 -40.469 -394.392 -38.843 C -394.392 -37.397 -394.571 -35.952 -394.752 -34.868 C -396.197 -36.133 -404.504 -38.662 -407.213 -38.481 C -414.437 -38.481 -416.062 -31.436 -416.784 -21.318 C -416.784 -15.356 -416.965 -8.311 -416.965 -0.361 C -416.965 7.407 -416.784 15.898 -416.604 24.208 C -408.839 24.208 -406.49 24.208 -401.795 24.389 M -456.873 4.697 C -456.873 28.725 -461.93 38.662 -479.447 38.662 C -483.962 38.662 -487.935 37.758 -491.186 36.494 C -494.797 35.048 -498.951 32.519 -502.563 29.086 L -502.563 67.387 C -502.563 74.975 -502.924 77.323 -504.007 79.311 C -511.592 79.311 -516.288 78.588 -518.455 74.613 C -518.274 70.458 -518.094 65.219 -518.094 57.631 L -518.094 -11.382 C -518.094 -26.196 -518.274 -38.481 -518.455 -48.96 C -508.883 -48.96 -506.716 -48.96 -504.369 -47.153 C -502.924 -44.624 -502.563 -41.553 -502.563 -37.759 L -502.563 17.163 C -498.409 21.318 -492.088 25.292 -484.865 25.292 C -478.183 25.292 -473.668 22.221 -473.126 10.839 C -472.765 9.033 -472.765 6.504 -472.765 3.071 L -472.765 -40.649 C -472.765 -44.082 -472.404 -46.792 -471.501 -48.96 C -460.666 -48.96 -458.499 -48.599 -456.692 -46.792 C -456.873 -40.107 -456.873 -31.797 -456.873 -21.86 Z M -553.307 25.834 C -552.404 26.015 -551.681 26.015 -550.778 26.015 C -547.167 26.015 -543.193 25.112 -539.943 23.667 C -538.137 23.125 -536.331 22.583 -535.067 22.583 L -534.164 22.583 C -532.719 25.112 -531.816 29.086 -531.816 31.435 C -532.539 33.784 -540.484 38.662 -551.14 38.662 C -559.808 38.662 -568.837 36.494 -575.88 29.809 C -582.923 23.305 -589.063 11.562 -589.063 -7.588 C -589.063 -43.721 -572.449 -50.947 -552.945 -50.947 C -546.444 -50.947 -540.484 -49.321 -537.053 -46.973 C -534.886 -45.347 -533.261 -42.275 -533.081 -39.746 C -533.081 -38.481 -533.622 -36.494 -534.164 -34.688 C -537.957 -36.494 -543.735 -38.12 -549.695 -38.12 C -561.433 -38.12 -572.811 -32.7 -572.811 -6.685 C -572.811 14.995 -564.684 24.931 -553.307 25.834 M -612.358 77.685 C -618.859 77.685 -621.93 74.252 -621.93 67.567 C -621.93 60.341 -619.763 57.089 -613.442 57.089 C -606.038 57.089 -604.231 61.605 -604.051 67.929 C -603.871 74.433 -605.135 77.685 -612.358 77.685 M -621.388 32.519 C -621.207 27.822 -621.027 22.221 -621.027 13.911 L -621.027 -18.066 C -621.027 -29.087 -621.207 -39.746 -621.207 -48.96 C -611.094 -48.779 -608.566 -48.779 -607.302 -46.973 C -605.676 -44.443 -605.135 -41.553 -605.135 -37.397 L -605.135 24.028 C -605.135 31.616 -605.315 34.326 -606.58 36.855 C -613.983 36.855 -619.582 36.313 -621.388 32.519 M -641.792 -31.436 L -641.792 62.509 C -641.792 71.542 -641.972 75.697 -643.056 79.311 C -650.46 79.311 -655.878 78.769 -657.684 74.613 C -657.503 69.193 -657.323 63.051 -657.323 54.199 L -657.323 -39.204 C -657.323 -42.817 -655.878 -46.25 -652.988 -48.237 C -651.002 -49.501 -648.654 -50.586 -646.487 -50.586 C -641.792 -50.405 -638.36 -48.599 -636.916 -46.431 C -636.916 -45.527 -636.916 -42.275 -636.735 -39.746 C -642.333 -40.83 -641.792 -31.436 -641.792 -31.436 M -694.162 32.519 C -693.981 27.822 -693.8 22.221 -693.8 13.911 L -693.8 -18.066 C -693.8 -29.087 -693.981 -39.746 -693.981 -48.96 C -683.868 -48.779 -681.34 -48.779 -680.076 -46.973 C -678.45 -44.443 -677.908 -41.553 -677.908 -37.397 L -677.908 24.028 C -677.908 31.616 -678.089 34.326 -679.353 36.855 C -686.757 36.855 -692.355 36.313 -694.162 32.519 M -685.132 77.685 C -691.633 77.685 -694.703 74.252 -694.703 67.567 C -694.703 60.341 -692.536 57.089 -686.216 57.089 C -678.812 57.089 -677.005 61.605 -676.825 67.929 C -676.644 74.433 -677.908 77.685 -685.132 77.685 M -725.04 1.626 C -726.124 0.903 -727.568 0.723 -729.194 0.542 C -732.625 0.181 -740.029 0 -747.072 0 L -753.935 0 C -753.032 17.524 -746.169 25.654 -738.946 26.738 C -738.404 26.918 -737.862 26.918 -737.32 26.918 C -729.194 26.918 -725.221 21.679 -724.318 11.562 C -724.318 10.297 -724.137 9.033 -724.137 7.587 C -724.137 5.239 -724.499 3.071 -725.04 1.626 M -735.514 38.662 C -755.379 38.662 -770.188 25.654 -770.188 -9.214 C -770.188 -24.209 -766.937 -35.591 -760.617 -42.095 C -753.573 -49.141 -744.544 -50.767 -736.056 -50.767 C -730.458 -50.767 -725.04 -49.683 -722.331 -48.96 C -717.274 -47.695 -712.038 -43.901 -711.857 -40.288 C -712.038 -38.12 -712.398 -34.688 -712.94 -33.062 C -718.719 -36.133 -725.401 -37.397 -732.986 -37.397 C -745.627 -37.397 -754.115 -31.074 -754.296 -11.201 C -751.406 -11.382 -749.059 -11.382 -746.169 -11.382 C -737.682 -11.382 -728.291 -11.021 -722.692 -10.298 C -717.816 -9.575 -711.857 -7.588 -710.051 -6.143 C -709.329 -3.252 -708.967 0.723 -708.967 4.517 C -708.967 7.587 -709.148 10.478 -709.329 13.188 C -710.954 28.725 -719.261 38.662 -735.514 38.662 M -785.354 37.939 C -788.604 38.481 -791.675 37.578 -795.106 36.494 C -798.898 35.229 -803.232 33.061 -807.386 29.448 C -808.289 32.519 -809.734 34.868 -812.984 34.868 C -813.346 34.868 -813.707 34.868 -814.249 34.687 C -818.402 32.88 -820.569 31.616 -821.653 30.532 C -820.389 26.918 -819.305 22.763 -819.305 16.982 L -819.486 -13.55 C -819.486 -27.642 -819.667 -39.204 -819.847 -48.96 C -810.095 -48.96 -807.928 -48.779 -805.58 -47.153 C -804.136 -45.166 -803.955 -42.998 -803.955 -39.927 L -803.955 17.705 C -800.343 21.499 -795.648 23.486 -789.688 23.486 C -788.785 23.486 -787.702 23.486 -786.437 23.125 C -784.993 22.944 -783.368 22.763 -782.104 22.763 C -781.2 22.763 -781.2 22.763 -780.478 22.944 C -778.311 26.196 -777.589 30.893 -777.589 33.422 C -778.13 35.952 -780.659 37.397 -785.354 37.939 M -887.386 68.471 C -887.206 62.689 -887.025 56.547 -887.025 48.598 L -887.025 -47.515 C -885.039 -48.599 -882.51 -48.96 -879.44 -48.96 C -875.467 -48.96 -872.036 -47.334 -870.772 -46.792 C -870.953 -30.171 -871.133 -13.008 -871.133 6.684 L -843.864 6.684 C -839.349 6.684 -837.363 8.311 -836.641 19.511 L -871.133 19.511 L -871.133 58.715 L -848.018 58.715 C -842.6 58.715 -839.349 58.715 -836.821 59.438 C -834.292 60.341 -833.39 62.328 -832.667 71.181 L -877.635 71.181 C -882.149 71 -885.761 69.013 -887.386 68.471" style="fill: rgb(0, 0, 0); fill-rule: evenodd; fill-opacity: 1;"/>
      </g>
    </g>
    <g transform="">
      <path d="M 0 943.753 L 946.702 943.753 L 946.702 0 L 0 0 Z" style="fill: none;"/>
    </g>
    <g style="clip-path: url(#clippath1);">
      <g transform="translate(365.9043 459.5954)">
        <path d="M 0 0 C 5.181 9.553 39.461 73.48 76.284 159.363 C 139.167 306.029 163.673 409.094 172.975 472.227 C 183.922 392.286 184.968 316.408 176.073 246.54 C 168.648 188.216 154.32 133.926 133.487 85.176 C 105.661 20.064 71.153 -21.939 55.984 -35.887 Z" style="fill: rgb(0, 0, 0); fill-rule: evenodd; fill-opacity: 1;"/>
      </g>
    </g>
    <g style="clip-path: url(#clippath1);">
      <g transform="translate(538.8628 942.6057)">
        <path d="M 0 0 C -28.217 -216.79 -174.944 -483.519 -174.944 -483.519 L -116.817 -520.78 C -116.817 -520.78 54.176 -368.091 0 0 M -0.098 -21.388 C 9.519 -97.271 10.117 -169.368 1.664 -235.989 C -5.714 -294.135 -19.965 -348.264 -40.692 -396.873 C -59.131 -440.112 -79.389 -470.889 -93.137 -489.094 C -104.642 -504.329 -113.628 -513.54 -117.174 -516.988 L -170.977 -482.499 C -164.002 -469.568 -130.829 -407.112 -95.296 -324.238 C -71.913 -269.7 -52.091 -217.107 -36.381 -167.92 C -19.447 -114.903 -7.274 -65.724 -0.098 -21.388" style="fill: rgb(255, 255, 255); fill-opacity: 1;"/>
      </g>
    </g>
    <g style="clip-path: url(#clippath1);">
      <g transform="translate(557.3647 414.8435)">
        <path d="M 0 0 C 1.031 19.681 11.783 241.942 -14.782 452.927 C 8.061 350.943 33.451 216.664 39.537 101.843 C 43.109 34.449 38.44 1.896 37.278 -4.894 Z" style="fill: rgb(0, 0, 0); fill-rule: evenodd; fill-opacity: 1;"/>
      </g>
    </g>
    <g style="clip-path: url(#clippath1);">
      <g transform="translate(536.605 900.6179)">
        <path d="M 0 0 C 33.86 -231.442 19.187 -487.081 19.187 -487.081 L 59.256 -492.341 C 59.256 -492.341 85.779 -367.152 0 0 M 10.939 -62.354 C 23.937 -122.659 34.486 -179.443 42.41 -231.806 C 50.872 -287.717 56.376 -338.737 58.77 -383.448 C 62.18 -447.157 58.214 -479.837 56.79 -488.991 L 22.331 -484.468 C 23.012 -471.162 25.784 -411.436 25.292 -330.313 C 24.608 -217.859 18.146 -128.235 10.939 -62.354" style="fill: rgb(255, 255, 255); fill-opacity: 1;"/>
      </g>
    </g>
    <g style="clip-path: url(#clippath1);">
      <g transform="translate(419.3174 421.6833)">
        <path d="M 0 0 C 5.034 8.496 26.834 47.32 50.711 120.209 C 75.194 194.95 106.868 321.602 120.223 503.365 C 140.471 395.375 153.049 300.593 157.625 221.478 C 161.416 155.93 159.753 100.933 152.684 58.014 C 146.395 19.834 136.908 -1.499 130.055 -12.673 C 123.796 -22.881 118.551 -26.674 117.051 -27.617 Z" style="fill: rgb(0, 0, 0); fill-rule: evenodd; fill-opacity: 1;"/>
      </g>
    </g>
    <g style="clip-path: url(#clippath1);">
      <g transform="translate(538.8628 936.7019)">
        <path d="M 0 0 C -24.831 -363.575 -121.897 -516.005 -121.897 -516.005 L -2.258 -544.232 C -2.258 -544.232 94.808 -496.81 0 0 M 1.303 -23.227 C 20.211 -125.934 32.048 -216.413 36.513 -292.439 C 40.351 -357.79 38.782 -412.676 31.853 -455.575 C 25.687 -493.736 16.342 -515.111 9.588 -526.322 C 3.897 -535.767 -0.936 -539.741 -2.777 -541.027 L -117.229 -514.023 C -110.675 -502.651 -89.948 -464.084 -67.409 -395.277 C -51.479 -346.645 -37.74 -292.577 -26.576 -234.576 C -13.923 -168.837 -4.561 -97.844 1.303 -23.227" style="fill: rgb(255, 255, 255); fill-opacity: 1;"/>
      </g>
    </g>
    <g style="clip-path: url(#clippath1);">
      <g transform="translate(538.7339 941.4587)">
        <path d="M 0 0 C -6.903 0 -12.5 -5.597 -12.5 -12.5 C -12.5 -19.404 -6.903 -25 0 -25 C 6.903 -25 12.5 -19.404 12.5 -12.5 C 12.5 -5.597 6.903 0 0 0" style="fill: rgb(0, 0, 0); fill-rule: evenodd; fill-opacity: 1;"/>
      </g>
    </g>
    <g style="clip-path: url(#clippath1);">
      <g transform="translate(538.7339 941.4587)">
        <path d="M 0 0 C -6.903 0 -12.5 -5.597 -12.5 -12.5 C -12.5 -19.404 -6.903 -25 0 -25 C 6.903 -25 12.5 -19.404 12.5 -12.5 C 12.5 -5.597 6.903 0 0 0 Z" style="fill: none; stroke: rgb(255, 255, 255); stroke-opacity: 1; stroke-miterlimit: 100; stroke-width: 3px; stroke-dashoffset: 0px;"/>
      </g>
    </g>
    <g style="clip-path: url(#clippath1);">
      <g transform="translate(425.9961 378.0486)">
        <path d="M 0 0 C -0.248 0 -0.497 0.046 -0.733 0.14 L -75.226 29.497 C -76.153 29.862 -76.669 30.854 -76.437 31.824 L -62.893 88.28 C -62.755 88.854 -62.37 89.338 -61.842 89.603 C -61.561 89.743 -61.255 89.813 -60.948 89.813 C -60.678 89.813 -60.407 89.758 -60.153 89.648 L 7.567 60.291 C 8.379 59.939 8.863 59.096 8.758 58.218 L 1.986 1.762 C 1.912 1.146 1.557 0.601 1.025 0.282 C 0.711 0.096 0.356 0 0 0" style="fill: rgb(0, 0, 0); fill-rule: evenodd; fill-opacity: 1;"/>
      </g>
    </g>
    <g style="clip-path: url(#clippath1);">
      <g transform="translate(365.0478 469.8615)">
        <path d="M 0 0 C -0.613 0 -1.226 -0.141 -1.787 -0.421 C -2.844 -0.949 -3.614 -1.918 -3.89 -3.067 L -17.434 -59.523 C -17.899 -61.461 -16.865 -63.447 -15.011 -64.177 L 59.481 -93.534 C 59.955 -93.72 60.452 -93.813 60.948 -93.813 C 61.661 -93.813 62.37 -93.623 62.998 -93.248 C 64.063 -92.613 64.772 -91.52 64.92 -90.29 L 71.692 -33.833 C 71.902 -32.077 70.934 -30.391 69.311 -29.687 L 1.591 -0.33 C 1.083 -0.11 0.541 0 0 0 M 0 -4 L 67.72 -33.357 L 60.948 -89.813 L -13.544 -60.456 L 0 -4" style="fill: rgb(255, 255, 255); fill-opacity: 1;"/>
      </g>
    </g>
    <g style="clip-path: url(#clippath1);">
      <g transform="translate(536.605 344.1755)">
        <path d="M 0 0 C -0.204 0 -0.41 0.031 -0.609 0.096 L -113.476 36.228 C -114.422 36.53 -115.002 37.48 -114.839 38.461 L -105.81 92.658 C -105.715 93.226 -105.38 93.726 -104.891 94.029 C -104.571 94.228 -104.206 94.329 -103.837 94.329 C -103.642 94.329 -103.445 94.301 -103.254 94.242 L 0.583 62.627 C 1.425 62.371 2 61.594 2 60.714 L 2 2 C 2 1.361 1.695 0.761 1.179 0.385 C 0.832 0.132 0.419 0 0 0" style="fill: rgb(0, 0, 0); fill-rule: evenodd; fill-opacity: 1;"/>
      </g>
    </g>
    <g style="clip-path: url(#clippath1);">
      <g transform="translate(432.768 440.5046)">
        <path d="M 0 0 C -0.737 0 -1.468 -0.204 -2.108 -0.601 C -3.087 -1.207 -3.756 -2.207 -3.946 -3.343 L -12.975 -57.54 C -13.301 -59.499 -12.141 -61.401 -10.249 -62.007 L 102.618 -98.139 C 103.017 -98.267 103.428 -98.329 103.837 -98.329 C 104.675 -98.329 105.502 -98.066 106.195 -97.561 C 107.228 -96.807 107.837 -95.606 107.837 -94.329 L 107.837 -35.615 C 107.837 -33.854 106.687 -32.302 105.002 -31.789 L 1.165 -0.174 C 0.784 -0.058 0.391 0 0 0 M 0 -4 L 103.837 -35.615 L 103.837 -94.329 L -9.029 -58.197 L 0 -4" style="fill: rgb(255, 255, 255); fill-opacity: 1;"/>
      </g>
    </g>
    <g style="clip-path: url(#clippath1);">
      <g transform="translate(586.269 337.4011)">
        <path d="M 0 0 C -0.098 0 -0.196 0.007 -0.295 0.021 L -61.243 9.054 C -61.772 9.132 -62.249 9.42 -62.564 9.852 C -62.881 10.284 -63.01 10.825 -62.924 11.354 L -53.38 70.067 C -53.222 71.043 -52.378 71.746 -51.408 71.746 C -51.341 71.746 -51.273 71.743 -51.206 71.736 L 15.999 64.962 C 16.58 64.903 17.106 64.594 17.44 64.115 C 17.773 63.636 17.881 63.035 17.735 62.47 L 1.935 1.498 C 1.703 0.605 0.897 0 0 0" style="fill: rgb(0, 0, 0); fill-rule: evenodd; fill-opacity: 1;"/>
      </g>
    </g>
    <g style="clip-path: url(#clippath1);">
      <g transform="translate(534.8589 411.1482)">
        <path d="M 0 0 C -1.939 0 -3.627 -1.406 -3.944 -3.359 L -13.488 -62.072 C -13.66 -63.129 -13.401 -64.211 -12.77 -65.075 C -12.138 -65.939 -11.186 -66.515 -10.127 -66.671 L 50.821 -75.704 C 51.02 -75.733 51.217 -75.748 51.411 -75.748 C 53.207 -75.748 54.817 -74.536 55.28 -72.751 L 71.081 -11.778 C 71.374 -10.648 71.159 -9.447 70.491 -8.489 C 69.824 -7.531 68.772 -6.912 67.61 -6.796 L 0.405 -0.021 C 0.27 -0.007 0.134 0 0 0 M 0.004 -4.001 L 67.209 -10.775 L 51.408 -71.747 L -9.54 -62.715 L 0.004 -4.001" style="fill: rgb(255, 255, 255); fill-opacity: 1;"/>
      </g>
    </g>
    <g style="clip-path: url(#clippath1);">
      <g transform="translate(435.7675 431.2468)">
        <path d="M 0 0 C -0.259 0 -0.52 0.05 -0.769 0.154 L -82.033 34.027 C -82.695 34.303 -83.159 34.913 -83.248 35.625 C -83.337 36.337 -83.038 37.042 -82.464 37.473 L -37.317 71.346 C -36.968 71.608 -36.546 71.746 -36.117 71.746 C -35.972 71.746 -35.827 71.73 -35.683 71.698 C -35.113 71.572 -34.626 71.202 -34.352 70.687 L 1.765 2.94 C 2.163 2.195 2.049 1.279 1.48 0.654 C 1.093 0.229 0.552 0 0 0" style="fill: rgb(0, 0, 0); fill-rule: evenodd; fill-opacity: 1;"/>
      </g>
    </g>
    <g style="clip-path: url(#clippath1);">
      <g transform="translate(399.6508 504.9929)">
        <path d="M 0 0 C -0.858 0 -1.702 -0.276 -2.401 -0.8 L -47.547 -34.674 C -48.695 -35.535 -49.294 -36.945 -49.116 -38.369 C -48.938 -39.793 -48.011 -41.013 -46.686 -41.565 L 34.578 -75.438 C 35.076 -75.646 35.599 -75.747 36.116 -75.747 C 37.22 -75.747 38.302 -75.289 39.076 -74.438 C 40.214 -73.187 40.442 -71.356 39.646 -69.864 L 3.529 -2.118 C 2.98 -1.087 2.007 -0.348 0.867 -0.095 C 0.58 -0.031 0.289 0 0 0 M 0 -4 L 36.117 -71.746 L -45.147 -37.873 L 0 -4" style="fill: rgb(255, 255, 255); fill-opacity: 1;"/>
      </g>
    </g>
    <g style="clip-path: url(#clippath1);">
      <g transform="translate(613.355 393.8562)">
        <path d="M 0 0 C -0.082 0 -0.164 0.005 -0.247 0.016 L -80.997 10.049 C -81.845 10.153 -82.531 10.786 -82.707 11.622 C -82.883 12.458 -82.508 13.313 -81.774 13.751 L -19.083 51.141 C -18.77 51.327 -18.415 51.423 -18.059 51.423 C -17.837 51.423 -17.615 51.386 -17.401 51.312 C -16.844 51.118 -16.399 50.687 -16.189 50.135 L 1.869 2.712 C 2.119 2.056 2.007 1.317 1.573 0.766 C 1.191 0.278 0.609 0 0 0" style="fill: rgb(0, 0, 0); fill-rule: evenodd; fill-opacity: 1;"/>
      </g>
    </g>
    <g style="clip-path: url(#clippath1);">
      <g transform="translate(595.2964 447.279)">
        <path d="M 0 0 C -0.713 0 -1.422 -0.19 -2.049 -0.564 L -64.74 -37.954 C -66.207 -38.829 -66.957 -40.54 -66.605 -42.212 C -66.254 -43.884 -64.88 -45.148 -63.185 -45.359 L 17.565 -55.392 C 17.73 -55.412 17.896 -55.423 18.06 -55.423 C 19.278 -55.423 20.442 -54.865 21.205 -53.892 C 22.071 -52.788 22.296 -51.311 21.797 -49.999 L 3.738 -2.576 C 3.317 -1.472 2.43 -0.609 1.313 -0.222 C 0.887 -0.073 0.442 0 0 0 M 0 -4 L 18.059 -51.423 L -62.691 -41.39 L 0 -4" style="fill: rgb(255, 255, 255); fill-opacity: 1;"/>
      </g>
    </g>
    <g style="clip-path: url(#clippath1);">
      <g transform="translate(539.8628 400.8894)">
        <path d="M 0 0 C -0.177 0 -0.354 0.023 -0.53 0.071 L -110.882 30.429 C -111.666 30.645 -112.241 31.312 -112.338 32.12 C -112.435 32.927 -112.033 33.712 -111.323 34.106 L -35.831 76.012 C -35.531 76.178 -35.196 76.263 -34.86 76.263 C -34.657 76.263 -34.453 76.232 -34.256 76.169 C -33.73 76.003 -33.298 75.628 -33.059 75.132 L 1.802 2.869 C 2.143 2.162 2.038 1.322 1.536 0.72 C 1.15 0.257 0.584 0 0 0" style="fill: rgb(0, 0, 0); fill-rule: evenodd; fill-opacity: 1;"/>
      </g>
    </g>
    <g style="clip-path: url(#clippath1);">
      <g transform="translate(505.0024 479.1526)">
        <path d="M 0 0 C -0.673 0 -1.341 -0.169 -1.941 -0.502 L -77.433 -42.409 C -78.854 -43.198 -79.657 -44.768 -79.463 -46.381 C -79.271 -47.996 -78.12 -49.332 -76.553 -49.763 L 33.8 -80.12 C 34.15 -80.216 34.507 -80.263 34.86 -80.263 C 36.029 -80.263 37.161 -79.75 37.933 -78.825 C 38.938 -77.62 39.145 -75.938 38.463 -74.525 L 3.603 -2.262 C 3.125 -1.271 2.259 -0.52 1.21 -0.187 C 0.815 -0.062 0.407 0 0 0 M 0 -4 L 34.86 -76.263 L -75.492 -45.906 L 0 -4" style="fill: rgb(255, 255, 255); fill-opacity: 1;"/>
      </g>
    </g>
    <g style="clip-path: url(#clippath1);">
      <g transform="translate(115.6577 4.0954)">
        <path d="M 0 0 L 0 61.443 C 0 68.611 -0.128 73.987 -0.256 78.468 C 0.768 79.363 3.968 79.876 10.369 79.876 C 11.265 78.212 11.393 76.292 11.393 71.939 L 11.393 41.73 C 19.969 53.763 29.569 67.715 38.53 79.876 C 39.298 80.004 40.194 80.004 41.218 80.004 C 42.882 80.004 44.674 79.876 45.954 79.876 C 48.13 79.748 49.154 78.979 49.154 78.084 C 49.154 77.315 48.898 76.676 48.258 75.523 C 47.618 74.5 46.722 73.092 45.954 72.195 C 39.426 63.235 30.594 51.202 23.425 41.73 C 35.714 29.697 47.234 1.024 51.971 -3.456 C 51.971 -4.353 51.842 -4.48 50.563 -4.992 C 49.667 -5.376 47.618 -5.76 45.442 -5.76 L 43.65 -5.76 C 39.042 -5.248 36.866 -0.384 35.074 3.712 C 31.618 11.265 25.601 22.017 18.817 29.697 C 15.617 33.281 12.801 36.354 11.393 37.25 L 11.393 12.16 C 11.393 4.992 11.521 0.128 11.521 -3.968 C 10.625 -5.248 7.552 -5.376 1.152 -5.376 C 0.256 -3.968 0 -2.304 0 0" style="fill: rgb(0, 0, 0); fill-opacity: 1;"/>
      </g>
    </g>
    <g style="clip-path: url(#clippath1);">
      <g transform="translate(220.4902 18.4324)">
        <path d="M 0 0 L 0 9.088 C -0.768 9.216 -1.664 9.216 -2.56 9.216 C -4.096 9.216 -5.504 9.088 -6.785 8.96 C -12.929 7.937 -18.177 5.248 -18.177 -2.816 C -18.177 -9.345 -15.361 -11.648 -11.393 -11.904 L -10.497 -11.904 C -6.656 -11.904 -2.432 -10.112 -0.64 -7.937 C -0.512 -7.681 -0.384 -6.912 -0.256 -6.145 C 0 -4.608 0 -2.688 0 0 M -25.345 34.817 C -25.345 35.329 -25.217 35.842 -25.089 36.226 C -22.401 38.785 -14.721 42.114 -6.145 42.37 C -4.096 42.37 -3.84 42.37 -1.664 42.242 C 7.808 41.602 10.88 35.329 10.88 24.449 L 10.88 18.688 C 10.88 9.856 10.625 -0.384 10.625 -7.169 C 10.625 -7.169 10.112 -13.825 14.208 -13.057 C 14.081 -14.849 14.081 -17.025 14.081 -17.793 C 13.057 -19.201 10.625 -20.609 7.296 -20.737 C 4.224 -20.737 0.896 -17.921 -0.384 -16.129 C -1.152 -16.897 -2.688 -18.305 -4.096 -19.073 C -6.913 -20.481 -9.984 -20.737 -13.441 -20.737 C -21.633 -20.737 -29.441 -15.617 -29.441 -3.841 C -29.441 11.904 -15.489 15.872 -7.809 16.641 C -6.528 16.769 -5.376 16.769 -4.224 16.769 C -2.56 16.769 -1.152 16.641 0 16.385 L 0 23.681 C 0 29.441 -0.64 32.642 -6.145 32.642 C -10.625 32.642 -15.873 30.85 -19.585 29.313 C -20.993 28.673 -22.273 28.289 -23.297 28.289 C -24.449 29.569 -24.961 31.873 -25.217 33.409 C -25.345 33.793 -25.345 34.306 -25.345 34.817" style="fill: rgb(0, 0, 0); fill-opacity: 1;"/>
      </g>
    </g>
    <g style="clip-path: url(#clippath1);">
      <g transform="translate(278.8564 50.4333)">
        <path d="M 0 0 L 0 -43.521 C 0 -46.466 -0.384 -48.514 -1.536 -50.306 C -2.432 -51.586 -4.225 -51.586 -11.393 -51.714 C -11.393 -45.186 -11.265 -37.634 -11.265 -29.825 L -11.265 -7.168 C -11.265 -1.279 -11.393 2.688 -11.521 6.017 C -10.241 8.705 -6.272 9.089 -1.024 9.089 C -0.128 7.297 0 5.377 0 0 M -5.121 38.019 C 0 38.019 0.896 35.714 0.768 31.105 C 0.64 26.626 -0.64 23.426 -5.889 23.426 C -10.369 23.426 -11.905 25.729 -11.905 30.85 C -11.905 35.586 -9.729 38.019 -5.121 38.019" style="fill: rgb(0, 0, 0); fill-opacity: 1;"/>
      </g>
    </g>
    <g style="clip-path: url(#clippath1);">
      <g transform="translate(335.688 60.5466)">
        <path d="M 0 0 C 7.68 -0.513 10.88 -3.585 11.393 -5.121 C 11.393 -6.785 10.497 -9.473 9.472 -10.881 C 7.68 -10.497 5.76 -10.369 3.584 -9.601 C 1.664 -8.833 -0.384 -8.449 -2.688 -8.449 C -7.937 -8.449 -11.393 -11.137 -11.393 -15.105 C -11.393 -17.281 -10.369 -19.201 -7.296 -21.634 C -4.096 -24.193 1.792 -28.034 5.632 -31.234 C 11.136 -35.586 13.185 -39.811 13.185 -45.187 C 13.185 -57.091 3.584 -63.107 -8.192 -63.107 C -16.129 -63.107 -22.913 -60.804 -24.193 -57.604 C -24.193 -55.555 -23.425 -52.867 -22.145 -51.203 L -21.633 -51.203 C -20.609 -51.203 -19.457 -51.587 -18.177 -52.227 C -15.489 -53.379 -12.033 -54.275 -8.448 -54.275 C -7.68 -54.275 -6.784 -54.147 -6.016 -54.019 C -1.408 -53.507 1.408 -50.563 1.408 -46.339 C 1.408 -43.395 -0.128 -40.834 -4.096 -38.019 C -7.424 -35.586 -11.521 -32.642 -14.465 -30.21 L -17.537 -27.521 C -21.377 -23.81 -23.169 -19.842 -23.169 -15.489 C -23.169 -5.633 -15.233 0.256 -3.712 0.256 C -2.304 0.256 -1.024 0.128 0 0" style="fill: rgb(0, 0, 0); fill-opacity: 1;"/>
      </g>
    </g>
    <g style="clip-path: url(#clippath1);">
      <g transform="translate(400.1992 52.3533)">
        <path d="M 0 0 C -5.12 -0.768 -9.984 -6.527 -10.625 -18.944 L -5.76 -18.944 C -0.768 -18.944 4.48 -18.816 6.912 -18.561 C 8.064 -18.433 9.088 -18.305 9.856 -17.792 C 10.241 -16.769 10.497 -15.232 10.497 -13.568 C 10.497 -12.544 10.369 -11.648 10.369 -10.752 C 9.729 -3.584 6.912 0.129 1.152 0.129 C 0.768 0.129 0.384 0.129 0 0 M 18.433 -42.369 C 18.817 -43.521 19.073 -45.954 19.201 -47.489 C 19.073 -50.05 15.361 -52.738 11.776 -53.634 C 9.856 -54.146 6.016 -54.914 2.048 -54.914 C -3.968 -54.914 -10.369 -53.762 -15.361 -48.77 C -19.841 -44.161 -22.145 -36.098 -22.145 -25.473 C -22.145 -0.768 -11.648 8.449 2.432 8.449 C 13.953 8.449 19.841 1.408 20.993 -9.6 C 21.121 -11.521 21.249 -13.568 21.249 -15.744 C 21.249 -18.433 20.993 -21.248 20.481 -23.297 C 19.201 -24.32 14.977 -25.729 11.521 -26.241 C 7.552 -26.753 0.896 -27.009 -5.12 -27.009 C -7.168 -27.009 -8.833 -27.009 -10.88 -26.881 C -10.752 -40.961 -4.736 -45.441 4.224 -45.441 C 9.601 -45.441 14.337 -44.546 18.433 -42.369" style="fill: rgb(0, 0, 0); fill-opacity: 1;"/>
      </g>
    </g>
    <g style="clip-path: url(#clippath1);">
      <g transform="translate(465.2221 45.9538)">
        <path d="M 0 0 L 0 -40.834 C 0 -43.011 -0.128 -44.547 -1.152 -45.954 C -2.816 -47.106 -4.353 -47.234 -11.265 -47.234 C -11.137 -40.322 -11.009 -32.13 -11.009 -22.146 L -10.881 -0.513 C -10.881 3.584 -11.649 6.528 -12.545 9.088 C -11.777 9.856 -10.241 10.752 -7.296 12.032 C -6.913 12.16 -6.656 12.16 -6.4 12.16 C -4.096 12.16 -3.072 10.496 -2.432 8.32 C 0.512 10.88 3.584 12.416 6.271 13.313 C 8.704 14.08 10.88 14.721 13.185 14.336 C 16.513 13.952 18.305 12.928 18.688 11.136 C 18.688 9.344 18.177 6.016 16.641 3.712 C 16.129 3.584 16.129 3.584 15.489 3.584 C 14.592 3.584 13.44 3.712 12.416 3.84 C 11.521 4.096 10.752 4.096 10.112 4.096 C 5.888 4.096 2.56 2.688 0 0" style="fill: rgb(0, 0, 0); fill-opacity: 1;"/>
      </g>
    </g>
    <g style="clip-path: url(#clippath1);">
      <g transform="translate(534.5972 60.5466)">
        <path d="M 0 0 C 7.681 -0.513 10.881 -3.585 11.393 -5.121 C 11.393 -6.785 10.497 -9.473 9.473 -10.881 C 7.681 -10.497 5.761 -10.369 3.584 -9.601 C 1.664 -8.833 -0.384 -8.449 -2.688 -8.449 C -7.937 -8.449 -11.393 -11.137 -11.393 -15.105 C -11.393 -17.281 -10.368 -19.201 -7.296 -21.634 C -4.096 -24.193 1.792 -28.034 5.633 -31.234 C 11.137 -35.586 13.185 -39.811 13.185 -45.187 C 13.185 -57.091 3.584 -63.107 -8.192 -63.107 C -16.129 -63.107 -22.913 -60.804 -24.193 -57.604 C -24.193 -55.555 -23.425 -52.867 -22.145 -51.203 L -21.633 -51.203 C -20.608 -51.203 -19.457 -51.587 -18.177 -52.227 C -15.488 -53.379 -12.032 -54.275 -8.448 -54.275 C -7.68 -54.275 -6.784 -54.147 -6.016 -54.019 C -1.408 -53.507 1.408 -50.563 1.408 -46.339 C 1.408 -43.395 -0.128 -40.834 -4.096 -38.019 C -7.424 -35.586 -11.521 -32.642 -14.465 -30.21 L -17.536 -27.521 C -21.377 -23.81 -23.169 -19.842 -23.169 -15.489 C -23.169 -5.633 -15.232 0.256 -3.712 0.256 C -2.304 0.256 -1.023 0.128 0 0" style="fill: rgb(0, 0, 0); fill-opacity: 1;"/>
      </g>
    </g>
    <g style="clip-path: url(#clippath1);">
      <g transform="translate(599.1079 52.3533)">
        <path d="M 0 0 C -5.12 -0.768 -9.984 -6.527 -10.624 -18.944 L -5.76 -18.944 C -0.768 -18.944 4.48 -18.816 6.912 -18.561 C 8.064 -18.433 9.089 -18.305 9.856 -17.792 C 10.241 -16.769 10.497 -15.232 10.497 -13.568 C 10.497 -12.544 10.369 -11.648 10.369 -10.752 C 9.729 -3.584 6.912 0.129 1.152 0.129 C 0.769 0.129 0.385 0.129 0 0 M 18.434 -42.369 C 18.817 -43.521 19.073 -45.954 19.201 -47.489 C 19.073 -50.05 15.361 -52.738 11.776 -53.634 C 9.856 -54.146 6.017 -54.914 2.049 -54.914 C -3.968 -54.914 -10.368 -53.762 -15.36 -48.77 C -19.841 -44.161 -22.145 -36.098 -22.145 -25.473 C -22.145 -0.768 -11.648 8.449 2.433 8.449 C 13.953 8.449 19.841 1.408 20.993 -9.6 C 21.121 -11.521 21.249 -13.568 21.249 -15.744 C 21.249 -18.433 20.993 -21.248 20.481 -23.297 C 19.201 -24.32 14.977 -25.729 11.521 -26.241 C 7.553 -26.753 0.896 -27.009 -5.12 -27.009 C -7.168 -27.009 -8.832 -27.009 -10.88 -26.881 C -10.752 -40.961 -4.736 -45.441 4.225 -45.441 C 9.601 -45.441 14.337 -44.546 18.434 -42.369" style="fill: rgb(0, 0, 0); fill-opacity: 1;"/>
      </g>
    </g>
    <g style="clip-path: url(#clippath1);">
      <g transform="translate(673.3481 60.5466)">
        <path d="M 0 0 C 7.68 -0.513 10.88 -3.585 11.393 -5.121 C 11.393 -6.785 10.496 -9.473 9.472 -10.881 C 7.68 -10.497 5.76 -10.369 3.584 -9.601 C 1.664 -8.833 -0.385 -8.449 -2.688 -8.449 C -7.937 -8.449 -11.393 -11.137 -11.393 -15.105 C -11.393 -17.281 -10.369 -19.201 -7.297 -21.634 C -4.097 -24.193 1.792 -28.034 5.632 -31.234 C 11.137 -35.586 13.185 -39.811 13.185 -45.187 C 13.185 -57.091 3.584 -63.107 -8.192 -63.107 C -16.129 -63.107 -22.913 -60.804 -24.193 -57.604 C -24.193 -55.555 -23.426 -52.867 -22.146 -51.203 L -21.633 -51.203 C -20.609 -51.203 -19.457 -51.587 -18.177 -52.227 C -15.489 -53.379 -12.033 -54.275 -8.448 -54.275 C -7.681 -54.275 -6.784 -54.147 -6.017 -54.019 C -1.408 -53.507 1.408 -50.563 1.408 -46.339 C 1.408 -43.395 -0.128 -40.834 -4.097 -38.019 C -7.425 -35.586 -11.521 -32.642 -14.465 -30.21 L -17.537 -27.521 C -21.377 -23.81 -23.169 -19.842 -23.169 -15.489 C -23.169 -5.633 -15.233 0.256 -3.713 0.256 C -2.305 0.256 -1.024 0.128 0 0" style="fill: rgb(0, 0, 0); fill-opacity: 1;"/>
      </g>
    </g>
    <g style="clip-path: url(#clippath1);">
      <g transform="translate(754.6274 49.4099)">
        <path d="M 0 0 L -0.64 0 C -1.536 0 -2.816 0.384 -4.096 0.768 C -6.4 1.792 -9.217 2.432 -11.776 2.432 C -12.417 2.432 -12.929 2.432 -13.568 2.304 C -21.633 1.664 -27.394 -5.377 -27.394 -20.737 C -27.394 -39.17 -19.329 -43.011 -11.009 -43.011 C -6.784 -43.011 -2.688 -41.858 0 -40.578 C 0.384 -41.858 0.768 -43.267 0.768 -44.162 C 0.64 -45.954 -0.512 -48.131 -2.048 -49.282 C -4.48 -50.946 -8.704 -52.099 -13.313 -52.099 C -27.138 -52.099 -38.914 -46.979 -38.914 -21.377 C -38.914 -7.809 -34.562 0.512 -29.569 5.12 C -24.577 9.856 -18.177 11.393 -12.032 11.393 C -4.48 11.393 1.152 7.937 1.664 6.272 C 1.664 4.608 1.024 1.792 0 0" style="fill: rgb(0, 0, 0); fill-opacity: 1;"/>
      </g>
    </g>
    <g style="clip-path: url(#clippath1);">
      <g transform="translate(787.7778 25.3445)">
        <path d="M 0 0 L 0 48.898 C 0 54.274 -0.128 57.986 -0.256 60.931 C 1.279 63.747 4.608 64.259 9.984 64.259 C 10.752 62.851 11.008 61.187 11.008 55.811 L 11.008 28.674 C 13.568 31.105 16.513 32.897 19.072 33.922 C 21.377 34.817 24.192 35.458 27.393 35.458 C 39.81 35.458 43.394 28.417 43.394 11.393 L 43.394 -7.425 C 43.394 -14.465 43.394 -20.353 43.522 -25.089 C 42.242 -26.369 40.706 -26.625 33.025 -26.625 C 32.385 -25.089 32.129 -23.169 32.129 -20.737 L 32.129 10.24 C 32.129 12.673 32.129 14.465 31.873 15.745 C 31.489 23.81 28.289 25.985 23.553 25.985 C 18.433 25.985 13.952 23.169 11.008 20.225 L 11.008 -18.688 C 11.008 -21.377 10.752 -23.553 9.729 -25.345 C 8.064 -26.625 6.528 -26.625 -0.256 -26.625 C -0.128 -19.201 0 -10.496 0 0" style="fill: rgb(0, 0, 0); fill-opacity: 1;"/>
      </g>
    </g>
    <g style="clip-path: url(#clippath1);">
      <g transform="translate(344.6103 427.1989)">
        <path d="M 0 0 C -57.056 -198.653 -77.595 -270.181 51.565 -307.708 C 177.744 -343.561 198.284 -272.033 254.804 -73.223 C 196.33 -56.388 86.14 -24.721 0 0" style="fill: rgb(255, 255, 255); fill-rule: evenodd; fill-opacity: 1;"/>
      </g>
    </g>
    <g style="clip-path: url(#clippath1);">
      <g transform="translate(457.5327 275.7507)">
        <path d="M 0 0 C 14.029 48.761 30.584 110.241 30.584 110.241 L -1.239 119.386 C -1.239 119.386 -22.979 45.693 -32.751 9.296 C -78.601 22.486 -62.38 17.509 -143.215 41.353 C -147.195 25.671 -150.052 11.077 -150.052 11.077 C -150.052 11.077 -141.353 8.374 -41.726 -21.569 C -54.79 -69.486 -77.497 -146.05 -78.934 -150.8 C -62.38 -156.737 -46.215 -160.202 -46.215 -160.202 C -46.215 -160.202 -31.637 -110.606 -8.506 -30.959 C 72.535 -55.054 -15.285 -28.395 98.649 -62.475 C 102.309 -52.902 106.613 -40.99 109.077 -32.529 C 42.72 -13.31 44.9 -13.337 0 0" style="fill: rgb(189, 13, 12); fill-rule: evenodd; fill-opacity: 1;"/>
      </g>
    </g>
    <g style="clip-path: url(#clippath1);">
      <g transform="translate(344.6103 427.1989)">
        <path d="M 0 0 C 86.14 -24.722 196.33 -56.388 254.804 -73.223 C 198.284 -272.033 177.744 -343.561 51.565 -307.708 C -77.595 -270.181 -57.056 -198.653 0 0 Z" style="fill: none; stroke: rgb(0, 0, 0); stroke-opacity: 1; stroke-miterlimit: 100; stroke-width: 5px; stroke-dashoffset: 0px;"/>
      </g>
    </g>
    <g style="clip-path: url(#clippath1);">
      <g transform="translate(376.7768 333.0573)">
        <path d="M 0 0 C -0.092 3.146 -0.119 6.662 -0.158 11.773 C -0.18 14.666 -0.206 18.082 -0.249 22.247 L -0.263 23.586 L -1.595 23.724 C -10.898 24.687 -13.724 24.87 -21.274 25.36 C -21.892 25.4 -22.543 25.442 -23.232 25.487 C -23.036 25.579 -22.841 25.671 -22.648 25.761 C -17.519 28.156 -9.769 31.777 -5.313 36.127 L -4.523 36.898 L -5.025 37.883 C -6.508 40.784 -8.305 45.242 -10.043 49.554 C -11.147 52.293 -12.275 55.091 -13.343 57.542 C -11.438 56.608 -10.803 56.329 -10.22 56.072 C -8.971 55.522 -8.069 55.125 7.192 47.247 L 8.323 46.663 L 9.083 47.685 C 11.562 51.015 18.635 60.567 23.418 67.536 C 22.772 59.682 21.948 49.517 21.484 43.403 L 21.371 41.902 L 27.688 41.447 C 36.539 40.813 39.37 40.611 45.592 39.837 C 43.512 38.601 41.438 37.347 39.408 36.119 C 35.082 33.504 30.997 31.033 27.244 28.96 L 26.027 28.288 L 26.605 27.023 C 28.429 23.034 30.766 18.816 33.025 14.736 C 34.496 12.081 36 9.366 37.362 6.711 C 34.452 8.242 31.488 9.828 28.592 11.379 C 24.333 13.658 19.929 16.016 15.749 18.169 L 14.651 18.734 L 13.886 17.765 C 11.466 14.702 8.583 11.002 5.698 7.3 C 3.752 4.802 1.805 2.303 0 0 M 3.892 -24.187 C -7.131 -24.187 -17.217 -19.893 -23.78 -12.406 C -29.533 -5.845 -32.222 2.738 -31.647 12.577 C -16.869 -4.384 -3.742 -11.365 13.018 -11.365 C 20.21 -11.365 28.05 -10.008 36.915 -7.223 C 29.428 -17.871 17.189 -24.187 3.892 -24.187" style="fill: rgb(0, 0, 0); fill-rule: evenodd; fill-opacity: 1;"/>
      </g>
    </g>
    <g style="clip-path: url(#clippath1);">
      <g transform="translate(343.9756 349.3064)">
        <path d="M 0 0 C -3.571 -27.041 16.026 -41.936 36.693 -41.936 C 49.853 -41.936 63.444 -35.898 71.769 -23.114 L 71.849 -21.198 C 62.015 -24.521 53.472 -26.114 45.819 -26.114 C 27.263 -26.114 13.927 -16.756 0 0 M 58.198 57.01 C 54.591 51.158 45.038 38.184 40.681 32.331 C 15.54 45.309 29.265 38.039 16.292 44.54 C 19.319 38.617 23.413 26.875 26.44 20.951 C 19.878 14.545 5.614 9.671 4.272 8.085 C 18.117 7.156 19.369 7.192 31.052 5.982 C 31.208 -8.918 31.138 -14.212 31.47 -20.369 C 36.315 -14.236 43.019 -5.547 47.864 0.586 C 56.202 -3.708 65.168 -8.677 73.506 -12.971 C 69.906 -5.097 64.371 3.524 60.771 11.398 C 67.438 15.082 75.27 20.083 82.938 24.516 C 71.917 25.963 70.751 25.957 55.781 27.041 C 56.376 34.887 57.547 49.188 58.198 57.01 M 2.599 -7.519 C 16.572 -22.587 29.792 -29.114 45.819 -29.114 C 51.898 -29.114 58.417 -28.17 65.591 -26.239 C 58.333 -34.277 47.905 -38.936 36.693 -38.936 C 26.102 -38.936 16.427 -34.828 10.149 -27.667 C 5.406 -22.256 2.848 -15.383 2.599 -7.519 M 54.271 45.877 C 53.728 39.212 53.149 32.012 52.79 27.269 L 52.562 24.267 L 55.564 24.049 L 60.384 23.702 C 66.872 23.237 70.114 23.006 73.841 22.608 C 73.036 22.122 72.234 21.638 71.44 21.157 C 67.125 18.549 63.049 16.085 59.32 14.025 L 56.886 12.681 L 58.042 10.151 C 59.89 6.109 62.241 1.864 64.515 -2.24 C 65.189 -3.459 65.872 -4.69 66.543 -5.922 C 65.054 -5.129 63.566 -4.332 62.096 -3.545 C 57.834 -1.264 53.426 1.096 49.237 3.253 L 47.041 4.385 L 45.51 2.446 C 43.081 -0.629 40.142 -4.4 37.3 -8.048 C 36.274 -9.364 35.236 -10.697 34.214 -12.007 C 34.185 -9.866 34.166 -7.425 34.143 -4.437 C 34.122 -1.549 34.096 1.859 34.052 6.014 L 34.024 8.691 L 31.361 8.967 C 23.759 9.754 20.467 10.022 15.417 10.359 C 19.981 12.615 25.134 15.483 28.536 18.805 L 30.117 20.349 L 29.111 22.316 C 27.659 25.159 25.875 29.586 24.148 33.867 C 23.554 35.342 22.953 36.834 22.357 38.281 C 23.531 37.753 25.64 36.719 39.305 29.665 L 41.567 28.498 L 43.087 30.539 C 45.56 33.86 50.183 40.113 54.271 45.877" style="fill: rgb(0, 0, 0); fill-opacity: 1;"/>
      </g>
    </g>
  </g>
</svg>