<svg id="Ebene_1" data-name="Ebene 1" xmlns="http://www.w3.org/2000/svg" viewBox="0 0 588.87 51.2"><title>ticket_header</title><path d="M9.38,43.76q1.9,0.15,3.76.15a21.73,21.73,0,0,0,3.91-.33,10.19,10.19,0,0,0,3.1-1,8.48,8.48,0,0,0,2.62-2.45,15.54,15.54,0,0,0,2.14-4,27.07,27.07,0,0,0,1.28-5.13,37.08,37.08,0,0,0,.44-5.75,27.64,27.64,0,0,0-1.18-8.79,10.46,10.46,0,0,0-3.13-5q-1.94-1.52-6-1.52-2.62,0-6,.15Zm-7.14,7.6L2.87,38.93,3.34,23.42,3.64,8c0-.67,0-2.45,0-5.32,1.71,0,3.34.07,4.85,0.07q1.69,0,4.47-.11t4.8-.11a24.62,24.62,0,0,1,5.08.5,10,10,0,0,1,4.08,1.88,13.1,13.1,0,0,1,3,3.45,20.69,20.69,0,0,1,2.09,4.58,33.33,33.33,0,0,1,1.25,5.6,45.86,45.86,0,0,1,.43,6.3A48.34,48.34,0,0,1,32.35,36.5a25.15,25.15,0,0,1-4.12,9.17,12.44,12.44,0,0,1-6.08,4.65,25.34,25.34,0,0,1-7.57,1l-7.9-.07Z" transform="translate(-1.36 -1.66)" style="fill:#1d1d1b;stroke:#1d1d1b;stroke-miterlimit:10"/><path d="M100,44.37h5.27a12.08,12.08,0,0,0,2.5-.19,5.69,5.69,0,0,0,1.71-.69,5.27,5.27,0,0,0,1.28-1.07,5.74,5.74,0,0,0,.82-1.46,10.93,10.93,0,0,0,.57-2,13.27,13.27,0,0,0,.21-2.34A10.17,10.17,0,0,0,112,33.7a6.27,6.27,0,0,0-1.1-2.17,4.28,4.28,0,0,0-1.71-1.32,8,8,0,0,0-3-.41h-5.85Zm0.57-21.52h3.74a18,18,0,0,0,3.21-.18,5.66,5.66,0,0,0,1.73-.69,4.16,4.16,0,0,0,1.53-1.61,8.07,8.07,0,0,0,.91-2.39,11.86,11.86,0,0,0,.29-2.66,9.51,9.51,0,0,0-.32-2.5,4.84,4.84,0,0,0-1-1.94,3.65,3.65,0,0,0-1.57-1.11,8,8,0,0,0-2.68-.34h-5.57ZM93,51.36q0.44-7.56.6-12.39T94,22.53q0.25-11.64.25-16c0-.88,0-2.17,0-3.89q2.93,0.07,4.85.07t4.81-.11c1.91-.07,3.48-0.11,4.72-0.11a17.22,17.22,0,0,1,3.92.34,7.54,7.54,0,0,1,2.33,1,6.45,6.45,0,0,1,1.72,1.66,10.1,10.1,0,0,1,1.2,2.31,14.67,14.67,0,0,1,.74,2.89,20,20,0,0,1,.25,3.17,21.72,21.72,0,0,1-.32,3.8,15.38,15.38,0,0,1-.9,3.24,10.48,10.48,0,0,1-1.38,2.46,9.65,9.65,0,0,1-1.51,1.6,13.47,13.47,0,0,1-1.93,1.21,13.38,13.38,0,0,1,1.74.69,6.58,6.58,0,0,1,1.4,1,8,8,0,0,1,1.4,1.79,10.79,10.79,0,0,1,1.06,2.3,16.25,16.25,0,0,1,.61,2.69,20.53,20.53,0,0,1,.22,3.09,19.5,19.5,0,0,1-1,6.27,11.13,11.13,0,0,1-2.66,4.52,8.5,8.5,0,0,1-3.8,2.22,44.7,44.7,0,0,1-8.93.55l-5.62,0Z" transform="translate(-1.36 -1.66)" style="fill:#1d1d1b;stroke:#1d1d1b;stroke-miterlimit:10"/><path d="M37.5,51.36L38,40.81l0.37-12.2,0.23-11.1V13.77q4.42,0.06,9.24.06l3.44,0,5.18,0-0.21,5.95-1.7-.14c-0.47,0-1.11-.07-1.94-0.08l-2.53,0-3.61,0c-0.54,0-1.36,0-2.47.09l-0.29,9.77q2.45,0.08,5,.08c1.14,0,3.08-.06,5.81-0.17-0.1,1.67-.18,3.67-0.25,6l-5.48-.08q-2.11,0-5.27.17L43.2,45.66l2,0,3.94-.06L53,45.52l2.6-.19c-0.12,2.12-.2,4.14-0.25,6-3.11,0-5.91-.06-8.41-0.06l-5.89,0Z" transform="translate(-1.36 -1.66)" style="fill:#1d1d1b;stroke:#1d1d1b;stroke-miterlimit:10"/><path d="M59.91,51.36q0.54-8.2.81-18.86T61,13.77q2.15,0.06,3.6.06c1,0,2.06,0,3.06-.08s2.05-.08,3.16-0.08a17.77,17.77,0,0,1,3.72.36,5.79,5.79,0,0,1,2.91,1.65,8,8,0,0,1,1.89,3.14,13.59,13.59,0,0,1,.62,4.3A17.9,17.9,0,0,1,79.72,26,13.6,13.6,0,0,1,79,28.65a10.13,10.13,0,0,1-1.08,2.15,7.62,7.62,0,0,1-1.24,1.46,6.44,6.44,0,0,1-1.41.92c-0.53.26-1.23,0.57-2.12,0.94l1.22,3.64C74.8,38.91,75.54,41,76.64,44l1.81,4.87q0.15,0.39.86,2.51l-2.89-.06c-0.57,0-1.58,0-3,.06L71.4,44c-0.35-1.12-.77-2.44-1.25-4L68,33.38c-0.21-.63-0.51-1.56-0.89-2.81a8.44,8.44,0,0,0,2.18.33,5.31,5.31,0,0,0,2.82-.77,5,5,0,0,0,2-2.38,9,9,0,0,0,.68-3.52,7.48,7.48,0,0,0-.29-2.14,4,4,0,0,0-1-1.68,3.22,3.22,0,0,0-1.66-.87,9.72,9.72,0,0,0-1.94-.2l-1.47,0q-0.94,0-2.29,0L65.74,30.71,65.4,51.36l-2.78-.06-2.71.06" transform="translate(-1.36 -1.66)" style="fill:#1d1d1b;stroke:#1d1d1b;stroke-miterlimit:10"/><path d="M123.39,51.36l0.52-10.55,0.37-12.2,0.23-11.1V13.77q4.42,0.06,9.24.06l3.44,0,5.18,0-0.21,5.95-1.7-.14c-0.47,0-1.11-.07-1.94-0.08l-2.53,0-3.61,0c-0.54,0-1.36,0-2.47.09l-0.29,9.77q2.45,0.08,5,.08c1.14,0,3.08-.06,5.81-0.17-0.1,1.67-.18,3.67-0.25,6l-5.48-.08q-2.11,0-5.27.17l-0.29,10.3,2,0,3.94-.06,3.89-.11,2.6-.19c-0.12,2.12-.2,4.14-0.25,6-3.11,0-5.91-.06-8.41-0.06l-5.89,0Z" transform="translate(-1.36 -1.66)" style="fill:#1d1d1b;stroke:#1d1d1b;stroke-miterlimit:10"/><path d="M145.22,50.56q-0.15-4.19-.38-6.83a11.48,11.48,0,0,0,6.38,2.45,4.44,4.44,0,0,0,2.14-.54,3.32,3.32,0,0,0,1.47-1.51,4.94,4.94,0,0,0,.48-2.19,5.74,5.74,0,0,0-.23-1.68,8,8,0,0,0-1.15-2.11c-0.68-1-1.9-2.67-3.65-5-0.84-1.12-1.41-1.92-1.73-2.39a19.51,19.51,0,0,1-1.65-2.83,11,11,0,0,1-.83-2.49,13.41,13.41,0,0,1-.25-2.64,12.53,12.53,0,0,1,.94-4.86,7.79,7.79,0,0,1,2.82-3.55,8.16,8.16,0,0,1,4.72-1.28,20,20,0,0,1,5.77,1q0.09,2.86.36,6.55A10.31,10.31,0,0,0,155.27,19a3.72,3.72,0,0,0-2.88,1.22A4.09,4.09,0,0,0,151.27,23a5.53,5.53,0,0,0,.08.93,5.29,5.29,0,0,0,.23.93,8.73,8.73,0,0,0,.56,1.18,13.42,13.42,0,0,0,1.17,1.71q0.77,1,1.32,1.58l2.21,3.08c0.56,0.71,1.06,1.42,1.51,2.1a20.77,20.77,0,0,1,1.14,2,12.14,12.14,0,0,1,.74,1.79,12.28,12.28,0,0,1,.4,1.75,12.52,12.52,0,0,1,.13,1.89,13.43,13.43,0,0,1-.7,4.36,8.7,8.7,0,0,1-2,3.37,7.15,7.15,0,0,1-2.87,1.83,10.61,10.61,0,0,1-3.3.51,14.25,14.25,0,0,1-2.67-.3,34.57,34.57,0,0,1-4-1.16" transform="translate(-1.36 -1.66)" style="fill:#1d1d1b;stroke:#1d1d1b;stroke-miterlimit:10"/><path d="M165.65,13.77l2.82,0.06c0.61,0,1.52,0,2.72-.06L170.34,36c0,0.25,0,.53,0,0.83A17.12,17.12,0,0,0,171,42.4a5.19,5.19,0,0,0,2,2.73,5.51,5.51,0,0,0,3.05.86,5.7,5.7,0,0,0,2.08-.39,5.25,5.25,0,0,0,1.48-.91,5.63,5.63,0,0,0,.95-1.16,8,8,0,0,0,.81-1.84,12.14,12.14,0,0,0,.5-2.31c0.15-1.31.3-3.57,0.43-6.8L182.72,23q0.13-4.19.2-9.22,2,0.06,3,.06l2.62-.06L188,27l-0.36,10.55a42.14,42.14,0,0,1-.5,5.51,14.87,14.87,0,0,1-.81,2.81,9.83,9.83,0,0,1-6.14,5.51,15.25,15.25,0,0,1-4.29.6,13.73,13.73,0,0,1-4.23-.63,9.91,9.91,0,0,1-5.32-4.3,10.59,10.59,0,0,1-1.06-2.89,19,19,0,0,1-.45-4.3c0-.55,0-1.26,0-2.13s0.07-2,.12-3.37l0.17-3.88c0.05-1.21.12-3,.2-5.34l0.18-6c0-1.64.09-3.44,0.13-5.42" transform="translate(-1.36 -1.66)" style="fill:#1d1d1b;stroke:#1d1d1b;stroke-miterlimit:10"/><path d="M212.27,44.48c-0.26,2.14-.49,4.33-0.68,6.55a29.37,29.37,0,0,1-3.75.77,24.28,24.28,0,0,1-2.92.22,11.91,11.91,0,0,1-5.14-1.16,12.35,12.35,0,0,1-4.41-3.65,15.66,15.66,0,0,1-2.84-6,32.19,32.19,0,0,1-.88-7.76A32.09,32.09,0,0,1,192.71,25a19.48,19.48,0,0,1,3-6.56,12.66,12.66,0,0,1,10.34-5.28,22.59,22.59,0,0,1,6.35,1q0.05,2.45.11,3.47l0.12,3a23.51,23.51,0,0,0-3.37-1.13,11.92,11.92,0,0,0-2.56-.3A8.12,8.12,0,0,0,203,20a8.67,8.67,0,0,0-3.12,2.85,14.89,14.89,0,0,0-2.07,4.73,22.58,22.58,0,0,0-.73,5.76,21.13,21.13,0,0,0,.9,6.41,10,10,0,0,0,2.88,4.61,7.11,7.11,0,0,0,4.9,1.76,16.65,16.65,0,0,0,6.48-1.64" transform="translate(-1.36 -1.66)" style="fill:#1d1d1b;stroke:#1d1d1b;stroke-miterlimit:10"/><path d="M216.11,51.36l0.41-9.89q0.35-8.09.49-15t0.14-9.65l0-3c1.41,0,2.41.06,3,.06l2.71-.06-0.48,12.42-0.06,2.87h12.23l0.22-7.44c0-2.56.07-4.24,0.07-5.06V13.77l3,0.06,2.69-.06-0.58,15L239.65,39.9l-0.07,6.53c0,2.68,0,4.32,0,4.92l-2.8-.06-3,.06q0.46-7.8.59-16.38H222.13l-0.25,10.13-0.07,6.25-2.94-.06-2.75.06" transform="translate(-1.36 -1.66)" style="fill:#1d1d1b;stroke:#1d1d1b;stroke-miterlimit:10"/><path d="M287.2,51.36l0.52-10.55,0.37-12.2,0.23-11.1V13.77q4.42,0.06,9.24.06l3.44,0,5.18,0L306,19.72l-1.7-.14c-0.47,0-1.11-.07-1.94-0.08l-2.53,0-3.61,0c-0.54,0-1.36,0-2.47.09l-0.29,9.77q2.45,0.08,5,.08c1.14,0,3.08-.06,5.81-0.17-0.1,1.67-.18,3.67-0.25,6l-5.48-.08q-2.11,0-5.27.17l-0.29,10.3,2,0,3.94-.06,3.89-.11,2.6-.19c-0.12,2.12-.2,4.14-0.25,6-3.11,0-5.91-.06-8.41-0.06l-5.89,0Z" transform="translate(-1.36 -1.66)" style="fill:#1d1d1b;stroke:#1d1d1b;stroke-miterlimit:10"/><path d="M309.61,51.36q0.54-8.2.81-18.86t0.27-18.72q2.15,0.06,3.6.06c1,0,2.06,0,3.06-.08s2.05-.08,3.16-0.08a17.77,17.77,0,0,1,3.72.36,5.79,5.79,0,0,1,2.91,1.65A8,8,0,0,1,329,18.81a13.59,13.59,0,0,1,.62,4.3,17.9,17.9,0,0,1-.23,2.93,13.6,13.6,0,0,1-.69,2.61,10.12,10.12,0,0,1-1.08,2.15,7.62,7.62,0,0,1-1.24,1.46,6.44,6.44,0,0,1-1.41.92c-0.53.26-1.23,0.57-2.12,0.94l1.22,3.64c0.4,1.16,1.14,3.22,2.24,6.22l1.81,4.87q0.15,0.39.86,2.51l-2.89-.06c-0.57,0-1.59,0-3,.06l-2-7.32c-0.35-1.12-.77-2.44-1.25-4l-2.17-6.69c-0.21-.63-0.51-1.56-0.89-2.81a8.44,8.44,0,0,0,2.18.33,5.31,5.31,0,0,0,2.82-.77,5,5,0,0,0,2-2.38,9,9,0,0,0,.68-3.52,7.48,7.48,0,0,0-.29-2.14,4,4,0,0,0-1-1.68,3.22,3.22,0,0,0-1.66-.87,9.72,9.72,0,0,0-1.94-.2l-1.47,0q-0.94,0-2.29,0l-0.32,11.32L315.1,51.36l-2.78-.06-2.71.06" transform="translate(-1.36 -1.66)" style="fill:#1d1d1b;stroke:#1d1d1b;stroke-miterlimit:10"/><path d="M375.23,51.36q0.54-8.29.86-18.46t0.38-19.13q1.83,0.06,3,.06c0.55,0,1.43,0,2.64-.06q-0.23,5-.43,11.29l-0.36,11q-0.17,4.74-.23,9.42l3.08,0.06c2.89,0,4.79,0,5.7,0s1.81-.08,2.69-0.15c-0.11,1.8-.2,3.8-0.29,6q-4.72-.06-8.07-0.06l-5.65,0Z" transform="translate(-1.36 -1.66)" style="fill:#1d1d1b;stroke:#1d1d1b;stroke-miterlimit:10"/><path d="M400.3,51.36l0.4-8,0.39-12,0.25-11.79h-1.25l-1.16,0-1.11,0-4.14.19q0.15-4,.17-6,5.16,0.06,10.81.06l6.44,0,3.44,0c-0.12,2.61-.18,4.61-0.18,6-2.17-.16-4.24-0.24-6.22-0.24h-1.38l-0.21,5L406,43.93l0,3.24c0,1.34,0,2.74,0,4.18l-2.72-.06-2.93.06" transform="translate(-1.36 -1.66)" style="fill:#1d1d1b;stroke:#1d1d1b;stroke-miterlimit:10"/><path d="M416.22,51.36l0.52-10.55,0.37-12.2,0.23-11.1V13.77q4.42,0.06,9.24.06l3.44,0,5.18,0L435,19.72l-1.7-.14c-0.47,0-1.11-.07-1.94-0.08l-2.53,0-3.61,0c-0.54,0-1.36,0-2.47.09l-0.29,9.77q2.45,0.08,5,.08c1.14,0,3.08-.06,5.81-0.17-0.1,1.67-.18,3.67-0.25,6l-5.48-.08q-2.11,0-5.27.17l-0.29,10.3,2,0,3.94-.06,3.89-.11,2.6-.19c-0.12,2.12-.2,4.14-0.25,6-3.11,0-5.91-.06-8.41-0.06l-5.89,0Z" transform="translate(-1.36 -1.66)" style="fill:#1d1d1b;stroke:#1d1d1b;stroke-miterlimit:10"/><path d="M438.67,51.36q0.34-4.93.52-11.07l0.42-13.49q0.21-7.33.21-13c1.39,0,2.56.06,3.53,0.06q1.07,0,3.14-.06,2,5.43,5.59,14.15t5.75,14.46l0.67-25.56c0-.6,0-1.63,0-3.05,1.13,0,2,.06,2.55.06l2.51-.06-0.45,10.1-0.56,17.29-0.21,10.19q-1.87-.06-3.18-0.06-1,0-3.38.06-0.89-2.45-1.36-3.64c-0.49-1.21-1.54-3.7-3.14-7.49q-1.57-3.74-3.94-9.58c-1.16-2.87-2.15-5.36-3-7.49q-0.15,4.45-.45,16.55-0.12,4.92-.2,11.64c-1.13,0-1.93-.06-2.44-0.06l-2.64.06" transform="translate(-1.36 -1.66)" style="fill:#1d1d1b;stroke:#1d1d1b;stroke-miterlimit:10"/><path d="M518.65,32.28h6.87L522.7,19.56l-1.45,4.62ZM506.94,51.36q1.86-5.06,4.38-12.53L516,24.93q2.2-6.46,3.65-11.16c1.55,0,2.66.06,3.3,0.06,1.14,0,2.25,0,3.34-.06L528.89,25l5.58,23.3,0.77,3-2.69-.06c-0.62,0-1.66,0-3.13.06Q529,48.91,528,44.75T526.48,38h-9.43Q515,44.56,513,51.36L510,51.3Z" transform="translate(-1.36 -1.66)" style="fill:#1d1d1b;stroke:#1d1d1b;stroke-miterlimit:10"/><path d="M537.39,51.36l0.47-6.22L539,23.28l0.42-9.5q2.56,0.06,3.75.06c0.64,0,1.79,0,3.46-.06,0.19,1.49.33,2.54,0.43,3.17s0.28,1.63.56,3,0.62,3,1.06,5c0.63,3,1.2,5.91,1.7,8.82l1.36,7.88,2.4-10.1,3.5-13.14q0.17-.66.37-1.52t0.64-3.1q2.13,0.06,3.8.06c0.74,0,1.92,0,3.55-.06q-0.25,7.92-.37,17.53t-0.13,14.33q0,2.28,0,5.72c-1.18,0-2-.06-2.42-0.06q-0.94,0-2.48.06c0.07-1.87.12-3.41,0.14-4.62l0.31-16.38c0-2.31.06-4.6,0.06-6.83l0-2.23-6.62,26.79-0.77,3.28c-1.16,0-2-.06-2.39-0.06s-1.38,0-2.53.06l-3.08-17c-0.1-.6-0.35-1.87-0.75-3.8L543.9,25c-0.11-.53-0.19-1-0.24-1.31s-0.17-1.09-.35-2.27l-0.23,3.52q-0.09,1.68-.27,5.61l-0.7,17.08c0,0.84,0,2.09-.06,3.74l-2.31-.06-2.35.06" transform="translate(-1.36 -1.66)" style="fill:#1d1d1b;stroke:#1d1d1b;stroke-miterlimit:10"/><path d="M570.36,51.36l0.52-10.55,0.37-12.2,0.23-11.1V13.77q4.42,0.06,9.24.06l3.44,0,5.18,0-0.21,5.95-1.7-.14c-0.47,0-1.11-.07-1.94-0.08l-2.53,0-3.61,0c-0.54,0-1.36,0-2.47.09l-0.29,9.77q2.45,0.08,5,.08c1.14,0,3.08-.06,5.81-0.17-0.1,1.67-.18,3.67-0.25,6l-5.48-.08q-2.11,0-5.27.17l-0.29,10.3,2,0,3.94-.06,3.89-.11,2.6-.19c-0.12,2.12-.2,4.14-0.25,6-3.11,0-5.91-.06-8.41-0.06l-5.89,0Z" transform="translate(-1.36 -1.66)" style="fill:#1d1d1b;stroke:#1d1d1b;stroke-miterlimit:10"/><path d="M260.87,44.28q1.77,0.14,3.5.14a20.22,20.22,0,0,0,3.64-.31,9.5,9.5,0,0,0,2.89-.94,7.91,7.91,0,0,0,2.44-2.28,14.48,14.48,0,0,0,2-3.77,25.23,25.23,0,0,0,1.19-4.78,34.58,34.58,0,0,0,.41-5.35,25.74,25.74,0,0,0-1.1-8.19,9.74,9.74,0,0,0-2.91-4.62c-1.2-.94-3.06-1.42-5.57-1.42q-2.44,0-5.6.14Zm-6.65,7.08,0.58-11.57,0.44-14.45L255.52,11c0-.62,0-2.28,0-5,1.6,0,3.11.07,4.52,0.07q1.57,0,4.17-.1t4.47-.1a22.92,22.92,0,0,1,4.73.47,9.27,9.27,0,0,1,3.8,1.75A12.19,12.19,0,0,1,280,11.28a19.26,19.26,0,0,1,2,4.27,31.05,31.05,0,0,1,1.16,5.22,42.72,42.72,0,0,1,.4,5.86,45,45,0,0,1-1.29,10.89,23.42,23.42,0,0,1-3.84,8.54,11.59,11.59,0,0,1-5.66,4.33,23.61,23.61,0,0,1-7,1l-7.36-.07Z" transform="translate(-1.36 -1.66)" style="fill:#1d1d1b;stroke:#1d1d1b;stroke-miterlimit:10"/><path d="M352.63,28.33h8.29L357.52,13l-1.75,5.58Zm-14.13,23q2.25-6.11,5.28-15.12l5.7-16.78q2.66-7.79,4.41-13.46c1.88,0,3.21.07,4,.07,1.37,0,2.71,0,4-.07L365,19.59l6.73,28.12,0.93,3.65-3.25-.07c-0.75,0-2,0-3.78.07q-0.52-3-1.64-8t-1.89-8.14H350.71q-2.53,7.91-4.93,16.12l-3.52-.07Q341.25,51.29,338.5,51.36Z" transform="translate(-1.36 -1.66)" style="fill:#1d1d1b;stroke:#1d1d1b;stroke-miterlimit:10"/><path d="M483.85,44.28q1.77,0.14,3.5.14a20.22,20.22,0,0,0,3.64-.31,9.5,9.5,0,0,0,2.89-.94,7.91,7.91,0,0,0,2.44-2.28,14.48,14.48,0,0,0,2-3.77,25.23,25.23,0,0,0,1.19-4.78,34.58,34.58,0,0,0,.41-5.35,25.74,25.74,0,0,0-1.1-8.19,9.74,9.74,0,0,0-2.91-4.62c-1.2-.94-3.06-1.42-5.57-1.42q-2.44,0-5.6.14Zm-6.65,7.08,0.58-11.57,0.44-14.45L478.5,11c0-.62,0-2.28,0-5,1.6,0,3.11.07,4.52,0.07q1.57,0,4.17-.1t4.47-.1a22.92,22.92,0,0,1,4.73.47,9.27,9.27,0,0,1,3.8,1.75A12.19,12.19,0,0,1,503,11.28,19.26,19.26,0,0,1,505,15.55a31,31,0,0,1,1.16,5.22,42.72,42.72,0,0,1,.4,5.86,45,45,0,0,1-1.29,10.89,23.42,23.42,0,0,1-3.84,8.54,11.59,11.59,0,0,1-5.66,4.33,23.61,23.61,0,0,1-7,1l-7.36-.07Z" transform="translate(-1.36 -1.66)" style="fill:#1d1d1b;stroke:#1d1d1b;stroke-miterlimit:10"/><path d="M9.38,43.76q1.9,0.15,3.76.15a21.73,21.73,0,0,0,3.91-.33,10.2,10.2,0,0,0,3.1-1,8.48,8.48,0,0,0,2.62-2.45,15.53,15.53,0,0,0,2.14-4,27.07,27.07,0,0,0,1.28-5.13,37.08,37.08,0,0,0,.44-5.75,27.64,27.64,0,0,0-1.18-8.79,10.46,10.46,0,0,0-3.13-5q-1.94-1.52-6-1.52-2.62,0-6,.15Zm-7.14,7.6L2.87,38.93,3.34,23.42,3.64,8c0-.67,0-2.45,0-5.32,1.71,0,3.34.07,4.85,0.07q1.69,0,4.47-.11t4.8-.11a24.62,24.62,0,0,1,5.08.5,10,10,0,0,1,4.08,1.88,13.1,13.1,0,0,1,3,3.45,20.7,20.7,0,0,1,2.09,4.58,33.33,33.33,0,0,1,1.25,5.6,45.86,45.86,0,0,1,.43,6.3A48.34,48.34,0,0,1,32.35,36.5a25.15,25.15,0,0,1-4.12,9.17,12.44,12.44,0,0,1-6.08,4.65,25.34,25.34,0,0,1-7.57,1l-7.9-.07Z" transform="translate(-1.36 -1.66)" style="fill:#1d1d1b;stroke:#1d1d1b;stroke-miterlimit:22.92558479309082;stroke-width:1.6846586465835571px"/><path d="M100,44.37h5.27a12.08,12.08,0,0,0,2.5-.19,5.69,5.69,0,0,0,1.71-.69,5.27,5.27,0,0,0,1.28-1.07,5.73,5.73,0,0,0,.83-1.46,10.93,10.93,0,0,0,.57-2,13.26,13.26,0,0,0,.21-2.34A10.17,10.17,0,0,0,112,33.7a6.27,6.27,0,0,0-1.1-2.17,4.28,4.28,0,0,0-1.71-1.32,8,8,0,0,0-3-.41h-5.85Zm0.57-21.52h3.74a18,18,0,0,0,3.21-.18,5.65,5.65,0,0,0,1.73-.69,4.16,4.16,0,0,0,1.53-1.61A8.07,8.07,0,0,0,111.7,18a11.86,11.86,0,0,0,.29-2.66,9.51,9.51,0,0,0-.32-2.5,4.84,4.84,0,0,0-1-1.94,3.65,3.65,0,0,0-1.57-1.11,8,8,0,0,0-2.68-.34h-5.57ZM93,51.36q0.44-7.56.6-12.39T94,22.53q0.25-11.64.25-16c0-.88,0-2.17,0-3.89q2.93,0.07,4.85.07t4.81-.11c1.91-.07,3.48-0.11,4.72-0.11a17.22,17.22,0,0,1,3.92.34,7.54,7.54,0,0,1,2.33,1,6.45,6.45,0,0,1,1.72,1.66,10.1,10.1,0,0,1,1.2,2.31,14.67,14.67,0,0,1,.74,2.89,19.94,19.94,0,0,1,.25,3.17,21.73,21.73,0,0,1-.32,3.8,15.39,15.39,0,0,1-.9,3.24,10.48,10.48,0,0,1-1.38,2.46,9.65,9.65,0,0,1-1.51,1.6,13.47,13.47,0,0,1-1.93,1.21,13.37,13.37,0,0,1,1.74.69,6.58,6.58,0,0,1,1.4,1,8,8,0,0,1,1.4,1.79,10.8,10.8,0,0,1,1.06,2.3,16.25,16.25,0,0,1,.61,2.69,20.55,20.55,0,0,1,.22,3.09,19.5,19.5,0,0,1-1,6.27,11.13,11.13,0,0,1-2.66,4.52,8.5,8.5,0,0,1-3.8,2.22,44.71,44.71,0,0,1-8.93.55l-5.62,0Z" transform="translate(-1.36 -1.66)" style="fill:#1d1d1b;stroke:#1d1d1b;stroke-miterlimit:22.92558479309082;stroke-width:1.6846586465835571px"/><path d="M37.5,51.36L38,40.81l0.37-12.2,0.23-11.1V13.77q4.42,0.06,9.24.06l3.44,0,5.18,0-0.21,5.95-1.7-.14c-0.47,0-1.11-.07-1.94-0.08l-2.53,0-3.61,0c-0.54,0-1.36,0-2.47.09l-0.29,9.77q2.45,0.08,5,.08c1.14,0,3.08-.06,5.81-0.17-0.1,1.67-.18,3.67-0.25,6l-5.48-.08q-2.11,0-5.27.17L43.2,45.66l2,0,3.94-.06L53,45.52l2.6-.19c-0.12,2.12-.2,4.14-0.25,6-3.11,0-5.91-.06-8.41-0.06l-5.89,0Z" transform="translate(-1.36 -1.66)" style="fill:#1d1d1b;stroke:#1d1d1b;stroke-miterlimit:22.92558479309082;stroke-width:1.6846586465835571px"/><path d="M59.91,51.36q0.54-8.2.81-18.86T61,13.77q2.15,0.06,3.6.06c1,0,2.06,0,3.06-.08s2.05-.08,3.16-0.08a17.77,17.77,0,0,1,3.72.36,5.79,5.79,0,0,1,2.91,1.65,8,8,0,0,1,1.89,3.14,13.59,13.59,0,0,1,.62,4.3A17.91,17.91,0,0,1,79.72,26,13.61,13.61,0,0,1,79,28.65a10.13,10.13,0,0,1-1.08,2.15,7.62,7.62,0,0,1-1.24,1.46,6.44,6.44,0,0,1-1.41.92c-0.53.26-1.23,0.57-2.12,0.94l1.22,3.64C74.8,38.91,75.54,41,76.64,44l1.81,4.87q0.15,0.39.86,2.51l-2.89-.06c-0.57,0-1.59,0-3,.06l-2-7.32c-0.35-1.12-.77-2.44-1.25-4L68,33.38c-0.21-.63-0.51-1.56-0.89-2.81a8.44,8.44,0,0,0,2.18.33,5.31,5.31,0,0,0,2.82-.77,5,5,0,0,0,2-2.38,9,9,0,0,0,.68-3.52,7.49,7.49,0,0,0-.29-2.14,4,4,0,0,0-1-1.68,3.22,3.22,0,0,0-1.66-.87,9.71,9.71,0,0,0-1.94-.2l-1.47,0q-0.94,0-2.29,0L65.74,30.71,65.4,51.36l-2.78-.06Z" transform="translate(-1.36 -1.66)" style="fill:#1d1d1b;stroke:#1d1d1b;stroke-miterlimit:22.92558479309082;stroke-width:1.6846586465835571px"/><path d="M123.39,51.36l0.52-10.55,0.37-12.2,0.23-11.1V13.77q4.42,0.06,9.24.06l3.44,0,5.18,0-0.21,5.95-1.7-.14c-0.47,0-1.11-.07-1.94-0.08l-2.53,0-3.61,0c-0.54,0-1.36,0-2.47.09l-0.29,9.77q2.45,0.08,5,.08c1.14,0,3.08-.06,5.81-0.17-0.1,1.67-.18,3.67-0.25,6l-5.48-.08q-2.11,0-5.27.17l-0.29,10.3,2,0,3.94-.06,3.89-.11,2.6-.19c-0.12,2.12-.2,4.14-0.25,6-3.11,0-5.91-.06-8.41-0.06l-5.89,0Z" transform="translate(-1.36 -1.66)" style="fill:#1d1d1b;stroke:#1d1d1b;stroke-miterlimit:22.92558479309082;stroke-width:1.6846586465835571px"/><path d="M145.22,50.56q-0.15-4.19-.38-6.83a11.48,11.48,0,0,0,6.38,2.45,4.44,4.44,0,0,0,2.14-.54,3.32,3.32,0,0,0,1.47-1.51,4.94,4.94,0,0,0,.48-2.19,5.74,5.74,0,0,0-.23-1.68,8,8,0,0,0-1.15-2.11c-0.68-1-1.9-2.67-3.65-5-0.84-1.12-1.41-1.92-1.73-2.39a19.5,19.5,0,0,1-1.65-2.83,11,11,0,0,1-.83-2.49,13.41,13.41,0,0,1-.25-2.64,12.53,12.53,0,0,1,.94-4.86,7.79,7.79,0,0,1,2.82-3.55,8.16,8.16,0,0,1,4.72-1.28,20,20,0,0,1,5.77,1q0.09,2.86.36,6.55A10.31,10.31,0,0,0,155.27,19a3.72,3.72,0,0,0-2.88,1.22A4.09,4.09,0,0,0,151.28,23a5.54,5.54,0,0,0,.08.93,5.28,5.28,0,0,0,.23.93,8.73,8.73,0,0,0,.56,1.18,13.41,13.41,0,0,0,1.17,1.71q0.77,1,1.32,1.58l2.21,3.08c0.56,0.71,1.06,1.42,1.51,2.1a20.78,20.78,0,0,1,1.14,2,12.14,12.14,0,0,1,.74,1.79,12.28,12.28,0,0,1,.4,1.75,12.52,12.52,0,0,1,.13,1.89,13.43,13.43,0,0,1-.7,4.36,8.71,8.71,0,0,1-2,3.37,7.15,7.15,0,0,1-2.87,1.83,10.61,10.61,0,0,1-3.3.51,14.25,14.25,0,0,1-2.67-.3A34.57,34.57,0,0,1,145.22,50.56Z" transform="translate(-1.36 -1.66)" style="fill:#1d1d1b;stroke:#1d1d1b;stroke-miterlimit:22.92558479309082;stroke-width:1.6846586465835571px"/><path d="M165.65,13.77l2.82,0.06c0.61,0,1.52,0,2.72-.06L170.35,36c0,0.25,0,.53,0,0.83A17.12,17.12,0,0,0,171,42.4a5.19,5.19,0,0,0,2,2.73,5.51,5.51,0,0,0,3.05.86,5.7,5.7,0,0,0,2.08-.39,5.25,5.25,0,0,0,1.48-.91,5.62,5.62,0,0,0,.95-1.16,8,8,0,0,0,.81-1.84,12.14,12.14,0,0,0,.5-2.31c0.15-1.31.3-3.57,0.43-6.8L182.72,23q0.13-4.19.2-9.22,2,0.06,3,.06l2.62-.06L188,27l-0.36,10.55a42.13,42.13,0,0,1-.5,5.51,14.87,14.87,0,0,1-.81,2.81,9.83,9.83,0,0,1-6.14,5.51,15.25,15.25,0,0,1-4.29.6,13.73,13.73,0,0,1-4.23-.63,9.91,9.91,0,0,1-5.32-4.3,10.58,10.58,0,0,1-1.06-2.89,19,19,0,0,1-.45-4.3c0-.55,0-1.26,0-2.13s0.07-2,.12-3.37l0.17-3.88c0.05-1.21.12-3,.2-5.34l0.18-6C165.57,17.56,165.61,15.76,165.65,13.77Z" transform="translate(-1.36 -1.66)" style="fill:#1d1d1b;stroke:#1d1d1b;stroke-miterlimit:22.92558479309082;stroke-width:1.6846586465835571px"/><path d="M212.27,44.48c-0.26,2.14-.49,4.33-0.68,6.55a29.38,29.38,0,0,1-3.75.77,24.28,24.28,0,0,1-2.92.22,11.91,11.91,0,0,1-5.14-1.16,12.35,12.35,0,0,1-4.41-3.65,15.66,15.66,0,0,1-2.84-6,32.2,32.2,0,0,1-.88-7.76A32.09,32.09,0,0,1,192.71,25a19.48,19.48,0,0,1,3-6.56,12.66,12.66,0,0,1,10.34-5.28,22.59,22.59,0,0,1,6.35,1q0.05,2.45.11,3.47l0.12,3a23.51,23.51,0,0,0-3.37-1.13,11.92,11.92,0,0,0-2.56-.3A8.12,8.12,0,0,0,203,20a8.67,8.67,0,0,0-3.12,2.85,14.88,14.88,0,0,0-2.07,4.73,22.58,22.58,0,0,0-.73,5.76,21.13,21.13,0,0,0,.9,6.41,10,10,0,0,0,2.88,4.61,7.11,7.11,0,0,0,4.9,1.76A16.65,16.65,0,0,0,212.27,44.48Z" transform="translate(-1.36 -1.66)" style="fill:#1d1d1b;stroke:#1d1d1b;stroke-miterlimit:22.92558479309082;stroke-width:1.6846586465835571px"/><path d="M216.11,51.36l0.41-9.89q0.35-8.09.49-15t0.14-9.65l0-3c1.41,0,2.41.06,3,.06l2.71-.06-0.48,12.42-0.06,2.87h12.23l0.22-7.44c0-2.56.07-4.24,0.07-5.06V13.77l3,0.06,2.69-.06-0.58,15L239.66,39.9l-0.07,6.53c0,2.68,0,4.32,0,4.92l-2.8-.06-3,.06q0.46-7.8.59-16.38H222.13l-0.25,10.13-0.07,6.25-2.94-.06Z" transform="translate(-1.36 -1.66)" style="fill:#1d1d1b;stroke:#1d1d1b;stroke-miterlimit:22.92558479309082;stroke-width:1.6846586465835571px"/><path d="M287.2,51.36l0.52-10.55,0.37-12.2,0.23-11.1V13.77q4.42,0.06,9.24.06l3.44,0,5.18,0L306,19.72l-1.7-.14c-0.47,0-1.11-.07-1.94-0.08l-2.53,0-3.61,0c-0.54,0-1.36,0-2.47.09l-0.29,9.77q2.45,0.08,5,.08c1.14,0,3.08-.06,5.81-0.17-0.1,1.67-.18,3.67-0.25,6l-5.48-.08q-2.11,0-5.27.17l-0.29,10.3,2,0,3.94-.06,3.89-.11,2.6-.19c-0.12,2.12-.2,4.14-0.25,6-3.11,0-5.91-.06-8.41-0.06l-5.89,0Z" transform="translate(-1.36 -1.66)" style="fill:#1d1d1b;stroke:#1d1d1b;stroke-miterlimit:22.92558479309082;stroke-width:1.6846586465835571px"/><path d="M309.61,51.36q0.54-8.2.81-18.86t0.27-18.72q2.15,0.06,3.6.06c1,0,2.06,0,3.06-.08s2.05-.08,3.16-0.08a17.77,17.77,0,0,1,3.72.36,5.79,5.79,0,0,1,2.91,1.65A8,8,0,0,1,329,18.81a13.59,13.59,0,0,1,.62,4.3,17.9,17.9,0,0,1-.23,2.93,13.6,13.6,0,0,1-.69,2.61,10.13,10.13,0,0,1-1.08,2.15,7.62,7.62,0,0,1-1.24,1.46,6.44,6.44,0,0,1-1.41.92c-0.53.26-1.23,0.57-2.12,0.94l1.22,3.64c0.4,1.16,1.14,3.22,2.24,6.22l1.81,4.87q0.15,0.39.86,2.51l-2.89-.06c-0.57,0-1.59,0-3,.06l-2-7.32c-0.35-1.12-.77-2.44-1.25-4l-2.17-6.69c-0.21-.63-0.51-1.56-0.89-2.81a8.44,8.44,0,0,0,2.18.33,5.31,5.31,0,0,0,2.82-.77,5,5,0,0,0,2-2.38,9,9,0,0,0,.68-3.52,7.48,7.48,0,0,0-.29-2.14,4,4,0,0,0-1-1.68,3.22,3.22,0,0,0-1.66-.87,9.71,9.71,0,0,0-1.94-.2l-1.47,0q-0.94,0-2.29,0l-0.32,11.32L315.1,51.36l-2.78-.06Z" transform="translate(-1.36 -1.66)" style="fill:#1d1d1b;stroke:#1d1d1b;stroke-miterlimit:22.92558479309082;stroke-width:1.6846586465835571px"/><path d="M375.23,51.36q0.54-8.29.86-18.46t0.38-19.13q1.83,0.06,3,.06c0.55,0,1.43,0,2.64-.06q-0.23,5-.43,11.29l-0.36,11q-0.17,4.74-.23,9.42l3.08,0.06c2.89,0,4.79,0,5.7,0s1.81-.08,2.69-0.15c-0.11,1.8-.2,3.8-0.29,6q-4.72-.06-8.07-0.06l-5.65,0Z" transform="translate(-1.36 -1.66)" style="fill:#1d1d1b;stroke:#1d1d1b;stroke-miterlimit:22.92558479309082;stroke-width:1.6846586465835571px"/><path d="M400.3,51.36l0.4-8,0.39-12,0.25-11.79h-1.25l-1.16,0-1.11,0-4.14.19q0.15-4,.17-6,5.16,0.06,10.81.06l6.44,0,3.44,0c-0.12,2.61-.18,4.61-0.18,6-2.17-.16-4.24-0.24-6.22-0.24h-1.38l-0.21,5L406,43.93l0,3.24c0,1.34,0,2.74,0,4.18l-2.72-.06Z" transform="translate(-1.36 -1.66)" style="fill:#1d1d1b;stroke:#1d1d1b;stroke-miterlimit:22.92558479309082;stroke-width:1.6846586465835571px"/><path d="M416.23,51.36l0.52-10.55,0.37-12.2,0.23-11.1V13.77q4.42,0.06,9.24.06l3.44,0,5.18,0L435,19.72l-1.7-.14c-0.47,0-1.11-.07-1.94-0.08l-2.53,0-3.61,0c-0.54,0-1.36,0-2.47.09l-0.29,9.77q2.45,0.08,5,.08c1.14,0,3.08-.06,5.81-0.17-0.1,1.67-.18,3.67-0.25,6l-5.48-.08q-2.11,0-5.27.17l-0.29,10.3,2,0,3.94-.06,3.89-.11,2.6-.19c-0.12,2.12-.2,4.14-0.25,6-3.11,0-5.91-.06-8.41-0.06l-5.89,0Z" transform="translate(-1.36 -1.66)" style="fill:#1d1d1b;stroke:#1d1d1b;stroke-miterlimit:22.92558479309082;stroke-width:1.6846586465835571px"/><path d="M438.67,51.36q0.34-4.93.52-11.07l0.42-13.49q0.21-7.33.21-13c1.39,0,2.56.06,3.53,0.06q1.07,0,3.14-.06,2,5.43,5.59,14.15t5.75,14.46l0.67-25.56c0-.6,0-1.63,0-3.05,1.13,0,2,.06,2.55.06l2.51-.06-0.45,10.1-0.56,17.29-0.21,10.19q-1.87-.06-3.18-0.06-1,0-3.38.06-0.89-2.45-1.36-3.64c-0.49-1.21-1.54-3.7-3.14-7.49q-1.57-3.74-3.94-9.58c-1.16-2.87-2.15-5.36-3-7.49q-0.15,4.45-.45,16.55-0.12,4.92-.2,11.64c-1.13,0-1.93-.06-2.44-0.06Z" transform="translate(-1.36 -1.66)" style="fill:#1d1d1b;stroke:#1d1d1b;stroke-miterlimit:22.92558479309082;stroke-width:1.6846586465835571px"/><path d="M518.65,32.28h6.87L522.7,19.56l-1.45,4.62ZM506.95,51.36q1.86-5.06,4.38-12.53L516,24.93q2.2-6.46,3.65-11.16c1.55,0,2.66.06,3.3,0.06,1.14,0,2.25,0,3.34-.06L528.89,25l5.58,23.3,0.77,3-2.69-.06c-0.62,0-1.66,0-3.13.06q-0.43-2.45-1.36-6.61T526.49,38h-9.43Q515,44.56,513,51.36L510,51.3Z" transform="translate(-1.36 -1.66)" style="fill:#1d1d1b;stroke:#1d1d1b;stroke-miterlimit:22.92558479309082;stroke-width:1.6846586465835571px"/><path d="M537.39,51.36l0.47-6.22L539,23.28l0.42-9.5q2.56,0.06,3.75.06c0.64,0,1.79,0,3.46-.06,0.19,1.49.33,2.54,0.43,3.17s0.28,1.63.56,3,0.62,3,1.06,5c0.63,3,1.2,5.91,1.7,8.82l1.36,7.88,2.4-10.1,3.5-13.14q0.17-.66.37-1.52t0.64-3.1q2.13,0.06,3.8.06c0.74,0,1.92,0,3.55-.06q-0.25,7.92-.37,17.53t-0.13,14.33q0,2.28,0,5.72c-1.18,0-2-.06-2.42-0.06q-0.94,0-2.48.06c0.07-1.87.12-3.41,0.14-4.62l0.31-16.38c0-2.31.06-4.6,0.06-6.83l0-2.23-6.62,26.79-0.77,3.28c-1.16,0-2-.06-2.39-0.06s-1.38,0-2.53.06l-3.08-17c-0.1-.6-0.35-1.87-0.75-3.8L543.9,25c-0.11-.53-0.19-1-0.24-1.31s-0.17-1.09-.35-2.27l-0.23,3.52q-0.09,1.68-.27,5.61l-0.7,17.08c0,0.84,0,2.09-.06,3.74l-2.31-.06Z" transform="translate(-1.36 -1.66)" style="fill:#1d1d1b;stroke:#1d1d1b;stroke-miterlimit:22.92558479309082;stroke-width:1.6846586465835571px"/><path d="M570.37,51.36l0.52-10.55,0.37-12.2,0.23-11.1V13.77q4.42,0.06,9.24.06l3.44,0,5.18,0-0.21,5.95-1.7-.14c-0.47,0-1.11-.07-1.94-0.08l-2.53,0-3.61,0c-0.54,0-1.36,0-2.47.09l-0.29,9.77q2.45,0.08,5,.08c1.14,0,3.08-.06,5.81-0.17-0.1,1.67-.18,3.67-0.25,6l-5.48-.08q-2.11,0-5.27.17l-0.29,10.3,2,0,3.94-.06,3.89-.11,2.6-.19c-0.12,2.12-.2,4.14-0.25,6-3.11,0-5.91-.06-8.41-0.06l-5.89,0Z" transform="translate(-1.36 -1.66)" style="fill:#1d1d1b;stroke:#1d1d1b;stroke-miterlimit:22.92558479309082;stroke-width:1.6846586465835571px"/><path d="M260.87,44.28q1.77,0.14,3.5.14a20.22,20.22,0,0,0,3.64-.31,9.51,9.51,0,0,0,2.89-.94,7.91,7.91,0,0,0,2.44-2.28,14.47,14.47,0,0,0,2-3.77,25.22,25.22,0,0,0,1.19-4.78,34.57,34.57,0,0,0,.41-5.35,25.74,25.74,0,0,0-1.1-8.19,9.74,9.74,0,0,0-2.91-4.62c-1.2-.94-3.06-1.42-5.57-1.42q-2.44,0-5.6.14Zm-6.65,7.08,0.58-11.57,0.44-14.45L255.52,11c0-.62,0-2.28,0-5,1.6,0,3.11.07,4.52,0.07q1.57,0,4.17-.1t4.47-.1a22.92,22.92,0,0,1,4.73.47,9.28,9.28,0,0,1,3.8,1.75A12.19,12.19,0,0,1,280,11.28,19.26,19.26,0,0,1,282,15.55a31,31,0,0,1,1.16,5.22,42.7,42.7,0,0,1,.4,5.86,45,45,0,0,1-1.29,10.89,23.42,23.42,0,0,1-3.84,8.54,11.59,11.59,0,0,1-5.66,4.33,23.61,23.61,0,0,1-7,1l-7.36-.07Z" transform="translate(-1.36 -1.66)" style="fill:#1d1d1b;stroke:#1d1d1b;stroke-miterlimit:22.92558479309082;stroke-width:1.6846586465835571px"/><path d="M352.64,28.33h8.29L357.53,13l-1.75,5.58Zm-14.13,23q2.25-6.11,5.28-15.12l5.7-16.78q2.66-7.79,4.41-13.46c1.88,0,3.21.07,4,.07,1.37,0,2.71,0,4-.07L365,19.59l6.73,28.12,0.93,3.65-3.25-.07c-0.75,0-2,0-3.78.07q-0.52-3-1.64-8t-1.89-8.14H350.71q-2.53,7.91-4.93,16.12l-3.52-.07Q341.25,51.29,338.51,51.36Z" transform="translate(-1.36 -1.66)" style="fill:#1d1d1b;stroke:#1d1d1b;stroke-miterlimit:22.92558479309082;stroke-width:1.6846586465835571px"/><path d="M483.85,44.28q1.77,0.14,3.5.14a20.22,20.22,0,0,0,3.64-.31,9.5,9.5,0,0,0,2.89-.94,7.91,7.91,0,0,0,2.44-2.28,14.47,14.47,0,0,0,2-3.77,25.23,25.23,0,0,0,1.19-4.78,34.57,34.57,0,0,0,.41-5.35,25.73,25.73,0,0,0-1.1-8.19,9.74,9.74,0,0,0-2.91-4.62c-1.2-.94-3.06-1.42-5.57-1.42q-2.44,0-5.6.14Zm-6.65,7.08,0.58-11.57,0.44-14.45L478.5,11c0-.62,0-2.28,0-5,1.6,0,3.11.07,4.52,0.07q1.57,0,4.17-.1t4.47-.1a22.92,22.92,0,0,1,4.73.47,9.28,9.28,0,0,1,3.8,1.75A12.19,12.19,0,0,1,503,11.28,19.26,19.26,0,0,1,505,15.55a31,31,0,0,1,1.16,5.22,42.71,42.71,0,0,1,.4,5.86,45,45,0,0,1-1.29,10.89,23.42,23.42,0,0,1-3.84,8.54,11.59,11.59,0,0,1-5.66,4.33,23.61,23.61,0,0,1-7,1l-7.36-.07Z" transform="translate(-1.36 -1.66)" style="fill:#1d1d1b;stroke:#1d1d1b;stroke-miterlimit:22.92558479309082;stroke-width:1.6846586465835571px"/></svg>