<?xml version="1.0" encoding="utf-8"?>
<svg version="1.1" viewBox="0 0 427.604 44.792" enable-background="new 0 0 427.604 44.792" xmlns="http://www.w3.org/2000/svg">
  <g id="Ebene_3">
    <path d="M293.48,32.78c0-0.934,0.932-4.688,2.787-11.267c1.854-6.58,3.396-12.368,4.629-17.364 c0.055-0.214,0.129-0.522,0.211-0.926c0.483-2.146,3.15-3.223,8-3.223c1.27,0,2.356,0.127,3.27,0.38 c0.904,0.262,1.754,0.665,2.539,1.219c1.004,0.744,1.834,1.694,2.502,2.851c0.667,1.164,1.004,2.209,1.004,3.135 c0,1.465-0.547,3.104-1.635,4.894c-1.087,1.797-2.547,3.46-4.383,4.988c-1.215,1.006-2.676,1.917-4.385,2.74 c-1.698,0.816-3.406,1.425-5.123,1.829c-0.429,0.127-0.684,0.412-0.776,0.855c-0.091,0.452-0.191,0.863-0.319,1.235 c-0.41,1.378-0.758,2.85-1.041,4.426c-0.073,0.356-0.128,0.603-0.164,0.721c-0.174,0.76-0.429,1.473-0.758,2.146 c-0.329,0.673-0.502,1.021-0.502,1.037c0,0.056,0.026,0.151,0.081,0.262c0.055,0.119,0.083,0.198,0.083,0.245 c0,0.373-0.211,0.744-0.631,1.117c-0.42,0.372-0.877,0.554-1.379,0.554c-0.812,0-1.689-0.222-2.612-0.658 C293.947,33.533,293.48,33.137,293.48,32.78 M308.65,5.171c-0.695,0-1.142,0.007-1.334,0.031c-0.201,0.024-0.318,0.064-0.346,0.111 c-0.092,0.072-0.283,0.522-0.566,1.331c-0.283,0.815-0.504,1.623-0.639,2.423c-0.166,0.911-0.504,2.216-1.033,3.912 c-0.529,1.694-0.795,2.794-0.795,3.301c0.02,0.063,0.055,0.103,0.109,0.119c0.056,0.016,0.156,0.023,0.293,0.023 c1.589,0,3.169-0.95,4.73-2.851c1.562-1.908,2.339-4.022,2.339-6.358c0-0.76-0.201-1.291-0.612-1.591 C310.387,5.321,309.674,5.171,308.65,5.171z"/>
    <path d="M312.988,28.695c0-1.829,0.576-4.022,1.717-6.58c1.142-2.558,2.703-5.107,4.703-7.641c0.878-1.077,1.645-1.829,2.302-2.233 c0.667-0.412,1.397-0.618,2.201-0.618c0.401,0,0.978,0.087,1.727,0.253c0.739,0.174,1.607,0.428,2.603,0.768 c0.666,0.198,1.16,0.625,1.498,1.275c0.337,0.649,0.512,1.488,0.512,2.51c0,1.742-0.356,3.722-1.068,5.938 c-0.111,0.356-0.192,0.618-0.246,0.784c-0.121,0.388-0.576,0.594-1.361,0.625c-0.641,0.016-1.188,0.055-1.635,0.119 c-2.037,0.261-3.59,0.491-4.668,0.681c-1.077,0.197-1.752,0.356-2.027,0.499c-0.319,0.159-0.621,0.666-0.922,1.528 c-0.293,0.863-0.438,1.639-0.438,2.32c0,0.23,0.1,0.428,0.291,0.602c0.201,0.167,0.447,0.253,0.749,0.253 c0.483,0,1.224-0.277,2.21-0.839c0.995-0.554,2.037-1.291,3.15-2.201c0.21-0.182,0.476-0.436,0.795-0.737 c0.75-0.681,1.27-1.021,1.553-1.021c0.557,0,1.05,0.167,1.488,0.507s0.658,0.744,0.658,1.204c0,0.11-0.073,0.237-0.22,0.388 c-0.136,0.143-0.21,0.285-0.21,0.428v0.277c0,0.182-0.383,0.721-1.15,1.599c-0.768,0.879-1.59,1.647-2.466,2.297 c-1.315,0.989-2.349,1.638-3.097,1.947c-0.758,0.309-1.561,0.468-2.438,0.468c-0.538,0-1.095-0.143-1.688-0.428 c-0.586-0.286-1.033-0.475-1.334-0.57c-0.355-0.111-0.977-0.649-1.846-1.624c-0.127-0.142-0.228-0.245-0.301-0.325 c-0.055-0.062-0.128-0.142-0.237-0.229C313.254,30.437,312.988,29.701,312.988,28.695 M324.633,15.29 c-0.164,0-0.365,0.143-0.622,0.427c-0.246,0.286-0.575,0.761-0.985,1.426l-0.266,0.467c-1.25,2.003-1.881,3.073-1.881,3.199 c0,0.04,0.037,0.087,0.102,0.126c0.055,0.04,0.117,0.056,0.173,0.056c0.082,0,0.63-0.103,1.616-0.301s1.59-0.34,1.809-0.42 c0.109-0.031,0.256-0.475,0.456-1.338c0.191-0.871,0.292-1.67,0.292-2.415c0-0.404-0.055-0.705-0.172-0.911 C325.034,15.393,324.861,15.29,324.633,15.29z"/>
    <path d="M334.204,20.848c-0.329-0.34-0.566-0.626-0.712-0.855c-0.156-0.23-0.229-0.444-0.229-0.626c0-0.277,0.475-0.895,1.416-1.86 c0.301-0.325,0.547-0.579,0.721-0.76c0.128-0.483,0.311-1.164,0.539-2.043c1.014-3.943,1.953-5.915,2.812-5.915 c0.995,0,1.854,0.238,2.576,0.705c0.721,0.475,1.087,0.95,1.087,1.433c0,0.064-0.056,0.277-0.175,0.65 c-0.119,0.372-0.201,0.704-0.255,0.998l0.081-0.048c0.868-0.499,1.48-0.745,1.818-0.745c0.32,0,0.994,0.12,2.036,0.348 c1.032,0.23,1.835,0.476,2.402,0.745c0.702,0.293,1.269,0.831,1.726,1.624c0.457,0.784,0.686,1.639,0.686,2.549 c0,1.283-0.457,2.89-1.379,4.822c-0.914,1.932-2.155,3.832-3.709,5.685c-1.635,1.948-3.004,3.421-4.1,4.411s-1.927,1.48-2.476,1.48 c-0.311,0-0.63-0.071-0.977-0.206c-0.348-0.143-0.722-0.341-1.114-0.61c-0.494,1.647-1.068,3.722-1.708,6.248 c-1.005,3.943-1.964,5.915-2.896,5.915c-0.639,0-1.424-0.222-2.338-0.665c-0.922-0.435-1.379-0.926-1.379-1.473 c0-0.182,0.649-2.669,1.955-7.467C331.912,30.389,333.107,25.615,334.204,20.848 M337.756,29.202 c2.248-2.257,4.037-4.529,5.352-6.81c1.326-2.28,1.983-4.173,1.983-5.669c0-0.562-0.092-0.981-0.267-1.275 c-0.182-0.292-0.438-0.443-0.774-0.443c-0.394,0-0.995,0.262-1.81,0.776c-0.812,0.522-1.277,0.935-1.406,1.243 c-0.036,0.08-0.373,1.449-1.031,4.125C339.154,23.826,338.469,26.51,337.756,29.202z"/>
    <path d="M353.867,20.848c-0.33-0.34-0.566-0.626-0.712-0.855c-0.155-0.23-0.229-0.444-0.229-0.626c0-0.277,0.475-0.895,1.416-1.86 c0.301-0.325,0.548-0.579,0.721-0.76c0.128-0.483,0.312-1.164,0.539-2.043c1.014-3.943,1.955-5.915,2.814-5.915 c0.994,0,1.854,0.238,2.574,0.705c0.722,0.475,1.087,0.95,1.087,1.433c0,0.064-0.056,0.277-0.173,0.65 c-0.12,0.372-0.202,0.704-0.256,0.998l0.082-0.048c0.867-0.499,1.479-0.745,1.816-0.745c0.32,0,0.996,0.12,2.038,0.348 c1.031,0.23,1.835,0.476,2.401,0.745c0.703,0.293,1.27,0.831,1.726,1.624c0.456,0.784,0.685,1.639,0.685,2.549 c0,1.283-0.456,2.89-1.379,4.822c-0.912,1.932-2.155,3.832-3.707,5.685c-1.637,1.948-3.005,3.421-4.101,4.411 c-1.097,0.99-1.929,1.48-2.476,1.48c-0.311,0-0.63-0.071-0.978-0.206c-0.347-0.143-0.722-0.341-1.114-0.61 c-0.492,1.647-1.068,3.722-1.707,6.248c-1.006,3.943-1.964,5.915-2.895,5.915c-0.641,0-1.426-0.222-2.339-0.665 c-0.922-0.435-1.379-0.926-1.379-1.473c0-0.182,0.647-2.669,1.954-7.467C351.574,30.389,352.771,25.615,353.867,20.848 M357.42,29.202c2.246-2.257,4.035-4.529,5.352-6.81c1.324-2.28,1.981-4.173,1.981-5.669c0-0.562-0.091-0.981-0.265-1.275 c-0.183-0.292-0.438-0.443-0.776-0.443c-0.394,0-0.995,0.262-1.808,0.776c-0.812,0.522-1.279,0.935-1.407,1.243 c-0.036,0.08-0.375,1.449-1.032,4.125C358.816,23.826,358.133,26.51,357.42,29.202z"/>
    <path d="M378.297,34.008c-0.768,0-1.981-0.396-3.644-1.179c-0.394-0.191-0.694-0.333-0.914-0.444 c-0.959-0.436-1.616-0.942-1.973-1.52c-0.355-0.579-0.538-1.386-0.538-2.423c0-1.782,0.355-3.825,1.068-6.129 c0.712-2.304,1.562-4.165,2.549-5.59c0.209-0.324,0.51-0.784,0.902-1.369c1.909-2.891,3.545-4.339,4.896-4.339 c0.429,0,0.903,0.103,1.424,0.317c0.512,0.206,0.803,0.316,0.85,0.333c0.293,0.095,0.73,0.189,1.314,0.292 c0.585,0.095,1.033,0.214,1.334,0.333c0.986,0.388,1.709,1.061,2.174,2.011c0.466,0.95,0.694,2.257,0.694,3.928 c0,2.446-0.558,4.901-1.663,7.372c-1.104,2.462-2.639,4.631-4.602,6.509c-0.604,0.601-1.252,1.069-1.955,1.401 C379.521,33.841,378.881,34.008,378.297,34.008 M381.857,15.859c-0.2,0-0.465,0.238-0.794,0.721 c-0.328,0.475-0.94,1.552-1.835,3.222c-0.831,1.583-1.479,3.073-1.928,4.474c-0.447,1.394-0.666,2.582-0.666,3.556 c0,0.854,0.055,1.433,0.164,1.733c0.102,0.301,0.293,0.452,0.558,0.452c0.749,0,1.8-1.394,3.15-4.18 c1.343-2.78,2.019-5.519,2.019-8.211c0-0.546-0.064-0.974-0.191-1.291C382.215,16.019,382.051,15.859,381.857,15.859z"/>
    <path d="M389.795,31.965c0-0.317,0.266-1.679,0.804-4.109c0.538-2.423,1.169-4.893,1.899-7.396c0.265-0.99,0.584-2.209,0.96-3.667 c0.667-2.612,1.461-3.919,2.383-3.919c0.913,0,1.606,0.095,2.073,0.293c0.475,0.19,0.713,0.476,0.713,0.847 c0,0.246-0.074,0.555-0.211,0.927c-0.146,0.372-0.219,0.618-0.219,0.736c0,0.016,0.02,0.039,0.055,0.063 c0.036,0.023,0.073,0.031,0.109,0.031c0.174,0,0.822-0.712,1.927-2.146c1.104-1.433,2.356-2.145,3.772-2.145 c1.589,0,2.85,0.285,3.781,0.855c0.94,0.578,1.405,1.354,1.405,2.344c0,0.974-0.229,2.375-0.694,4.211 c-0.465,1.83-1.506,5.25-3.131,10.262c-0.109,0.324-0.22,0.768-0.348,1.322c-0.357,1.497-0.904,2.249-1.635,2.249 c-1.233,0-2.219-0.174-2.969-0.53c-0.748-0.356-1.123-0.784-1.123-1.274c0-0.27,0.191-1.125,0.585-2.589 c0.393-1.457,0.868-2.97,1.425-4.537c0.547-1.497,1.022-3.048,1.425-4.656c0.4-1.607,0.603-2.542,0.603-2.811 c0-0.246-0.01-0.388-0.027-0.436c-0.019-0.047-0.064-0.071-0.137-0.071c-0.155,0-0.493,0.206-0.996,0.625 c-0.512,0.419-1.032,0.934-1.571,1.552c-1.616,1.916-2.913,4.616-3.871,8.1c-0.11,0.364-0.192,0.649-0.247,0.831 c-0.247,0.911-0.521,2.051-0.832,3.414c-0.529,2.288-1.232,3.428-2.109,3.428c-1.104,0-2.018-0.167-2.73-0.499 C390.152,32.939,389.795,32.503,389.795,31.965"/>
    <path d="M410.344,28.695c0-1.829,0.576-4.022,1.717-6.58c1.143-2.558,2.703-5.107,4.703-7.641c0.877-1.077,1.644-1.829,2.303-2.233 c0.666-0.412,1.396-0.618,2.199-0.618c0.402,0,0.979,0.087,1.727,0.253c0.74,0.174,1.607,0.428,2.604,0.768 c0.666,0.198,1.16,0.625,1.498,1.275c0.338,0.649,0.51,1.488,0.51,2.51c0,1.742-0.354,3.722-1.068,5.938 c-0.108,0.356-0.19,0.618-0.246,0.784c-0.118,0.388-0.576,0.594-1.36,0.625c-0.64,0.016-1.188,0.055-1.635,0.119 c-2.036,0.261-3.59,0.491-4.667,0.681c-1.078,0.197-1.754,0.356-2.027,0.499c-0.32,0.159-0.621,0.666-0.923,1.528 c-0.292,0.863-0.438,1.639-0.438,2.32c0,0.23,0.102,0.428,0.293,0.602c0.201,0.167,0.447,0.253,0.748,0.253 c0.484,0,1.224-0.277,2.211-0.839c0.996-0.554,2.037-1.291,3.15-2.201c0.21-0.182,0.475-0.436,0.795-0.737 c0.748-0.681,1.27-1.021,1.553-1.021c0.557,0,1.051,0.167,1.488,0.507c0.439,0.341,0.658,0.744,0.658,1.204 c0,0.11-0.073,0.237-0.219,0.388c-0.139,0.143-0.211,0.285-0.211,0.428v0.277c0,0.182-0.383,0.721-1.15,1.599 c-0.768,0.879-1.59,1.647-2.467,2.297c-1.314,0.989-2.347,1.638-3.096,1.947c-0.758,0.309-1.561,0.468-2.438,0.468 c-0.538,0-1.097-0.143-1.689-0.428c-0.584-0.286-1.032-0.475-1.333-0.57c-0.356-0.111-0.979-0.649-1.846-1.624 c-0.127-0.142-0.228-0.245-0.301-0.325c-0.055-0.062-0.128-0.142-0.238-0.229C410.607,30.437,410.344,29.701,410.344,28.695 M421.988,15.29c-0.164,0-0.365,0.143-0.621,0.427c-0.246,0.286-0.575,0.761-0.986,1.426l-0.266,0.467 c-1.251,2.003-1.881,3.073-1.881,3.199c0,0.04,0.037,0.087,0.1,0.126c0.055,0.04,0.119,0.056,0.174,0.056 c0.083,0,0.631-0.103,1.617-0.301s1.588-0.34,1.809-0.42c0.109-0.031,0.255-0.475,0.455-1.338c0.193-0.871,0.293-1.67,0.293-2.415 c0-0.404-0.055-0.705-0.173-0.911C422.389,15.393,422.215,15.29,421.988,15.29z"/>
  </g>
  <g id="Ebene_1">
    <path d="M0,7.827c0.361,0,0.879,0.006,1.552,0.02c1.836,0.04,3.054,0.059,3.65,0.059c0.896,0,2.251-0.02,4.065-0.059 c1.813-0.039,3.18-0.059,4.097-0.059c2.18,0,3.846,0.209,5.01,0.634c1.164,0.419,2.175,1.125,3.027,2.107 c0.738,0.87,1.344,2.133,1.819,3.788c0.476,1.655,0.711,3.389,0.711,5.201c0,2.401-0.268,4.554-0.809,6.451 c-0.541,1.897-1.312,3.428-2.311,4.592c-0.835,0.955-1.901,1.649-3.212,2.067c-1.306,0.425-3.077,0.635-5.306,0.635 c-0.458,0-1.349-0.013-2.666-0.039c-1.316-0.026-2.409-0.039-3.272-0.039c-0.224,0-1.049,0.006-2.481,0.026 C2.442,33.231,1.153,33.25,0,33.264v-0.975l1.923-0.445C2,30.097,2.049,28.246,2.082,26.303c0.033-1.943,0.049-3.991,0.049-6.149 c0-2.12-0.016-4.096-0.049-5.921C2.049,12.4,2,10.726,1.923,9.208L0,8.92V7.827z M9.299,31.805 c0.333,0.039,0.573,0.065,0.727,0.072c0.159,0.006,0.301,0.006,0.426,0.006c2.059,0,3.53-0.87,4.409-2.604 c0.88-1.74,1.322-4.651,1.322-8.747c0-2.002-0.115-3.827-0.349-5.462c-0.235-1.636-0.558-2.886-0.962-3.756 c-0.344-0.752-0.841-1.302-1.491-1.635c-0.65-0.34-1.552-0.51-2.705-0.51c-0.268,0-0.688,0.02-1.262,0.059l-0.114,0.02 c-0.065,1.838-0.11,3.689-0.142,5.554c-0.033,1.871-0.05,3.755-0.05,5.659c0,2.042,0.017,4.011,0.05,5.895 C9.189,28.239,9.234,30.058,9.299,31.805z"/>
    <path d="M26.362,23.967c0-3.205,0.875-5.744,2.617-7.608c1.743-1.865,4.114-2.8,7.114-2.8c2.923,0,5.223,0.883,6.901,2.643 c1.677,1.767,2.514,4.181,2.514,7.249c0,3.121-0.869,5.633-2.601,7.543c-1.732,1.91-4.027,2.865-6.874,2.865 c-3.065,0-5.441-0.87-7.135-2.61C27.209,29.515,26.362,27.087,26.362,23.967 M33.503,24.196c0,3.389,0.18,5.633,0.547,6.739 c0.361,1.105,1.011,1.662,1.95,1.662c0.864,0,1.47-0.661,1.82-1.976c0.354-1.315,0.53-3.697,0.53-7.131 c0-3.415-0.164-5.718-0.498-6.902c-0.328-1.191-0.918-1.786-1.759-1.786c-0.939,0-1.601,0.707-2,2.12 C33.7,18.334,33.503,20.762,33.503,24.196z"/>
    <path d="M47.206,33.264v-1.092l2.131-0.517c0.065-1.054,0.109-2.205,0.142-3.461c0.033-1.263,0.049-2.807,0.049-4.632 c0-0.576-0.011-1.57-0.032-2.99c-0.022-1.419-0.055-3.035-0.093-4.848l-1.939-0.595l-0.033-1.151 c0.502,0.039,1.043,0.065,1.633,0.079c0.585,0.013,1.475,0.02,2.672,0.02s2.099-0.007,2.699-0.026 c0.601-0.013,1.164-0.039,1.688-0.072c-0.021,0.438-0.039,0.772-0.049,1.001c-0.011,0.235-0.016,0.445-0.016,0.641 c0,0.131,0.005,0.32,0.016,0.569c0.01,0.249,0.017,0.432,0.017,0.549c1.322-1.06,2.541-1.845,3.644-2.362 c1.104-0.517,2.13-0.778,3.076-0.778c1.377,0,2.415,0.53,3.114,1.583c0.7,1.054,1.049,2.617,1.049,4.704v7.262 c0,1.072,0.006,1.949,0.017,2.636c0.01,0.681,0.027,1.354,0.049,2.022l1.967,0.288v1.171c-0.617-0.026-1.29-0.046-2.01-0.059 c-0.722-0.013-1.782-0.019-3.181-0.019c-1.388,0-2.419,0.006-3.098,0.019c-0.677,0.013-1.3,0.033-1.879,0.059v-1.092l1.541-0.367 c0.049-1.289,0.093-2.512,0.121-3.67c0.026-1.158,0.038-2.257,0.038-3.304v-1.347c0-2.898-0.143-4.698-0.426-5.391 c-0.279-0.7-0.826-1.047-1.64-1.047c-0.437,0-0.863,0.137-1.284,0.412s-0.809,0.674-1.158,1.197 c-0.033,0.922-0.061,1.708-0.076,2.355c-0.016,0.654-0.023,1.178-0.023,1.577c0,2.415,0.012,4.357,0.034,5.823 c0.021,1.472,0.055,2.604,0.093,3.396l1.633,0.367v1.092c-0.595-0.026-1.251-0.046-1.961-0.059s-1.781-0.019-3.207-0.019 c-1.454,0-2.541,0.006-3.268,0.019C48.528,33.218,47.845,33.237,47.206,33.264"/>
    <path d="M99.784,7.984l0.47-0.825l0.846,0.072c-0.235,1.23-0.606,3.304-1.119,6.235l-0.225,1.263l-1.011-0.118v-1.086 c0-1.341-0.372-2.46-1.109-3.343c-0.743-0.89-1.672-1.335-2.792-1.335c-1.89,0-3.311,0.949-4.267,2.839s-1.432,4.698-1.432,8.427 c0,3.762,0.552,6.614,1.651,8.57c1.098,1.956,2.709,2.931,4.829,2.931c0.661,0,1.29-0.144,1.89-0.438 c0.596-0.295,1.197-0.76,1.809-1.4l0.333,1.171c-0.961,0.968-1.967,1.675-3.027,2.126c-1.055,0.445-2.268,0.667-3.627,0.667 c-1.71,0-3.164-0.222-4.365-0.667c-1.197-0.452-2.247-1.158-3.142-2.126c-1.109-1.178-2-2.754-2.666-4.73 c-0.667-1.969-1-4.03-1-6.183c0-4.318,0.995-7.51,2.984-9.578c1.988-2.074,5.07-3.107,9.244-3.107c0.864,0,1.77,0.052,2.721,0.15 C97.729,7.604,98.729,7.768,99.784,7.984"/>
    <path d="M114.83,33.264v-1.727c-1.011,0.739-2.048,1.289-3.108,1.642c-1.065,0.347-2.224,0.524-3.486,0.524 c-1.568,0-2.775-0.504-3.633-1.511c-0.852-1.014-1.279-2.447-1.279-4.312c0-2.198,0.738-3.854,2.208-4.965 c1.476-1.112,3.677-1.668,6.611-1.668c0.536,0,1.005,0,1.416,0.006c0.415,0.006,0.836,0.02,1.272,0.033v-0.229 c0-2.224-0.262-3.801-0.781-4.73c-0.525-0.922-1.399-1.387-2.628-1.387c-1.36,0-2.431,0.445-3.207,1.341 c-0.77,0.896-1.212,2.185-1.316,3.874l-1.012,0.078c-0.098-0.857-0.218-1.714-0.366-2.571c-0.153-0.857-0.333-1.714-0.546-2.571 c1.186-0.556,2.498-0.981,3.94-1.263c1.438-0.282,3.016-0.419,4.737-0.419c1.436,0,2.649,0.091,3.622,0.275 c0.979,0.189,1.716,0.471,2.219,0.857c0.705,0.55,1.196,1.256,1.479,2.126c0.285,0.871,0.427,2.382,0.427,4.541v1.688 c0,0.752-0.017,1.844-0.043,3.271c-0.027,1.419-0.039,2.466-0.039,3.134c0,0.549,0.016,1.007,0.049,1.387 c0.032,0.379,0.071,0.634,0.125,0.779c0.055,0.15,0.584,0.34,1.584,0.569c0.247,0.052,0.443,0.098,0.579,0.137l-0.016,1.092 c-0.328-0.013-0.705-0.02-1.121-0.026c-0.415-0.006-1.033-0.013-1.841-0.013c-0.662,0-1.639,0.006-2.939,0.019 C116.442,33.257,115.475,33.264,114.83,33.264 M114.896,28.547v-4.272c0-0.74-0.083-1.198-0.246-1.361 c-0.169-0.164-0.47-0.249-0.907-0.249c-1.289,0-2.164,0.301-2.617,0.909c-0.453,0.609-0.678,1.753-0.678,3.441 c0,1.315,0.175,2.277,0.531,2.872c0.349,0.602,0.917,0.903,1.693,0.903c0.841,0,1.426-0.131,1.743-0.393 C114.738,30.137,114.896,29.521,114.896,28.547z"/>
    <path d="M125.283,33.264v-1.092l1.874-0.517c0.054-0.72,0.098-2.205,0.136-4.468c0.039-2.264,0.056-4.972,0.056-8.126 c0-0.523-0.034-1.452-0.1-2.78c-0.011-0.294-0.015-0.523-0.027-0.693l-2.098-0.458v-1.151c0.3,0.039,0.628,0.065,0.983,0.079 c0.356,0.013,0.896,0.02,1.606,0.02h1.731h1.743c0.727,0,1.273-0.007,1.634-0.02c0.36-0.013,0.693-0.04,0.994-0.079 c-0.022,0.432-0.038,0.798-0.049,1.093c-0.011,0.294-0.017,0.576-0.017,0.844v0.785c1.513-1.197,2.721-2.015,3.611-2.446 c0.89-0.438,1.738-0.654,2.552-0.654c0.994,0,1.808,0.229,2.448,0.687c0.638,0.464,1.245,1.269,1.808,2.414 c0.874-1.046,1.83-1.825,2.873-2.335c1.04-0.511,2.191-0.766,3.448-0.766c1.503,0,2.596,0.379,3.273,1.138 c0.678,0.766,1.016,1.982,1.016,3.651c0,0.844-0.011,2.25-0.032,4.213c-0.022,1.956-0.033,3.5-0.033,4.625 c0,0.615,0.033,1.747,0.099,3.396c0.016,0.419,0.033,0.739,0.043,0.956l2.065,0.595v1.092c-0.617-0.026-1.279-0.046-1.983-0.059 c-0.705-0.013-1.754-0.019-3.142-0.019c-1.387,0-2.414,0.006-3.086,0.019c-0.672,0.013-1.29,0.033-1.858,0.059v-1.092l1.376-0.517 c0.033-1.125,0.059-2.323,0.077-3.598c0.016-1.269,0.021-2.624,0.021-4.05v-2.8c0-1.792-0.119-2.957-0.36-3.5 c-0.24-0.543-0.672-0.811-1.3-0.811c-0.437,0-0.858,0.131-1.256,0.399c-0.399,0.268-0.689,0.602-0.875,0.995 c-0.126,0.268-0.213,0.909-0.262,1.91s-0.071,2.911-0.071,5.725c0,0.216,0.005,0.955,0.022,2.211 c0.017,1.262,0.033,2.381,0.044,3.362l1.535,0.674v1.092c-0.584-0.026-1.218-0.046-1.895-0.059 c-0.678-0.013-1.689-0.019-3.022-0.019c-1.278,0-2.234,0.006-2.863,0.019c-0.634,0.013-1.207,0.033-1.732,0.059v-1.092l1.409-0.438 c0.021-0.642,0.039-1.308,0.044-1.996c0.005-0.693,0.005-1.662,0.005-2.918c0-0.674,0.005-1.537,0.017-2.584 s0.017-1.76,0.017-2.126c0-2.113-0.137-3.48-0.399-4.115c-0.268-0.635-0.771-0.949-1.508-0.949c-0.875,0-1.48,0.307-1.82,0.929 c-0.344,0.622-0.513,2.022-0.513,4.207v1.419c0,1.354,0.011,2.695,0.033,4.03c0.022,1.329,0.061,2.657,0.11,3.985l1.567,0.556 v1.092c-0.661-0.026-1.371-0.046-2.13-0.059c-0.754-0.013-1.835-0.019-3.245-0.019c-1.322,0-2.295,0.006-2.913,0.019 C126.349,33.218,125.785,33.237,125.283,33.264"/>
    <path d="M158.256,33.264v-1.092l1.874-0.478v-4.351c0-2.505-0.011-4.71-0.032-6.614c-0.022-1.904-0.056-3.618-0.093-5.136 l-1.939-0.386v-1.191c0.312,0,0.798,0.007,1.464,0.026c0.667,0.02,1.17,0.033,1.514,0.033c0.906,0,1.841-0.013,2.808-0.039 c0.967-0.026,1.957-0.053,2.973-0.079c-0.021,0.563-0.039,1.146-0.049,1.734c-0.011,0.596-0.017,1.322-0.017,2.179 c0,3.167,0.017,5.94,0.055,8.309c0.039,2.375,0.093,4.2,0.169,5.476l1.875,0.517v1.092c-0.617-0.026-1.285-0.046-2-0.059 c-0.716-0.013-1.798-0.019-3.251-0.019c-1.464,0-2.557,0.006-3.29,0.019C159.583,33.218,158.895,33.237,158.256,33.264 M160.354,8.724c0-0.995,0.279-1.812,0.842-2.454c0.557-0.634,1.278-0.955,2.152-0.955c0.83,0,1.536,0.327,2.114,0.988 c0.573,0.654,0.864,1.465,0.864,2.421c0,1.014-0.279,1.832-0.831,2.466c-0.558,0.635-1.273,0.949-2.147,0.949 c-0.875,0-1.595-0.32-2.152-0.955C160.633,10.542,160.354,9.725,160.354,8.724z"/>
    <path d="M169.811,5.433c1.153,0.026,2.039,0.046,2.667,0.059c0.623,0.013,1.207,0.02,1.754,0.02c0.529,0,1.12-0.006,1.759-0.02 c0.64-0.013,1.601-0.033,2.885-0.059c-0.099,2.211-0.174,4.985-0.236,8.322c-0.06,3.33-0.087,7.092-0.087,11.266 c0,0.844,0.011,1.786,0.038,2.819c0.027,1.034,0.077,2.271,0.137,3.697l2.163,0.635v1.092c-0.671-0.026-1.393-0.046-2.163-0.059 c-0.766-0.013-1.901-0.019-3.41-0.019c-1.481,0-2.584,0.006-3.305,0.019c-0.721,0.013-1.383,0.033-1.978,0.059v-1.092l2.065-0.517 c0.065-2.106,0.109-4.188,0.142-6.242c0.033-2.047,0.049-4.088,0.049-6.124c0-2.257-0.016-4.376-0.055-6.359 c-0.038-1.982-0.098-3.867-0.186-5.652l-2.241-0.635V5.433z"/>
    <path d="M181.64,5.433c1.153,0.026,2.039,0.046,2.667,0.059c0.623,0.013,1.208,0.02,1.754,0.02c0.53,0,1.12-0.006,1.759-0.02 c0.641-0.013,1.602-0.033,2.886-0.059c-0.099,2.211-0.175,4.985-0.235,8.322c-0.06,3.33-0.087,7.092-0.087,11.266 c0,0.844,0.011,1.786,0.038,2.819c0.027,1.034,0.077,2.271,0.136,3.697l2.164,0.635v1.092c-0.672-0.026-1.393-0.046-2.164-0.059 c-0.765-0.013-1.901-0.019-3.409-0.019c-1.48,0-2.584,0.006-3.306,0.019s-1.382,0.033-1.978,0.059v-1.092l2.065-0.517 c0.065-2.106,0.109-4.188,0.143-6.242c0.033-2.047,0.049-4.088,0.049-6.124c0-2.257-0.016-4.376-0.054-6.359 c-0.039-1.982-0.099-3.867-0.187-5.652l-2.24-0.635V5.433z"/>
    <path d="M194.125,23.967c0-3.205,0.874-5.744,2.617-7.608c1.744-1.865,4.115-2.8,7.114-2.8c2.923,0,5.223,0.883,6.901,2.643 c1.677,1.767,2.513,4.181,2.513,7.249c0,3.121-0.869,5.633-2.6,7.543c-1.733,1.91-4.028,2.865-6.874,2.865 c-3.066,0-5.442-0.87-7.136-2.61C194.972,29.515,194.125,27.087,194.125,23.967 M201.267,24.196c0,3.389,0.18,5.633,0.545,6.739 c0.36,1.105,1.011,1.662,1.952,1.662c0.863,0,1.47-0.661,1.819-1.976c0.354-1.315,0.53-3.697,0.53-7.131 c0-3.415-0.165-5.718-0.498-6.902c-0.327-1.191-0.917-1.786-1.759-1.786c-0.939,0-1.601,0.707-2,2.12 C201.463,18.334,201.267,20.762,201.267,24.196z"/>
  </g>
  <g id="Ebene_2">
    <path d="M223.206,18.572l0.098,0.016c1.284,0.043,2.251,0.065,2.899,0.065c0.348,0,0.734-0.011,1.153-0.021 c0.424-0.011,1.049-0.032,1.892-0.059c-0.098,0.696-0.163,1.543-0.207,2.542c-0.043,0.993-0.065,2.418-0.065,4.264 c0,1.954,0.077,3.293,0.229,4.017c0.158,0.717,0.419,1.323,0.789,1.808c0.364,0.487,0.832,0.858,1.403,1.112 c0.571,0.254,1.218,0.378,1.925,0.378c0.413,0,0.843-0.065,1.277-0.2c0.436-0.129,0.903-0.345,1.398-0.637 c0.457-0.264,0.767-0.535,0.925-0.814c0.157-0.281,0.239-0.783,0.239-1.512v-0.426v-4.567c0-0.394,0.005-0.863,0.016-1.419 c0.011-0.551,0.017-0.917,0.017-1.096c0-0.896-0.071-1.49-0.207-1.771c-0.141-0.286-0.413-0.475-0.826-0.572l-1.675-0.378v-0.729 c0.076,0.01,0.174,0.016,0.304,0.016c1.36,0.043,2.333,0.065,2.932,0.065c0.38,0,0.777-0.011,1.196-0.021 c0.413-0.011,0.93-0.032,1.544-0.059c-0.087,0.626-0.146,1.5-0.19,2.623c-0.043,1.128-0.065,2.467-0.065,4.017v5.473 c0,0.75,0.07,1.241,0.207,1.484c0.136,0.243,0.402,0.41,0.793,0.491l1.643,0.361v0.745c-0.359-0.021-0.75-0.038-1.164-0.049 c-0.414-0.01-1.039-0.016-1.882-0.016c-0.805,0-1.408,0.006-1.805,0.016c-0.397,0.011-0.761,0.027-1.093,0.049 c0.011-0.135,0.021-0.291,0.027-0.464c0.006-0.179,0.006-0.454,0.006-0.832c-1.147,0.518-2.23,0.896-3.241,1.144 c-1.017,0.248-1.979,0.373-2.893,0.373c-1.017,0-1.887-0.168-2.605-0.498c-0.712-0.334-1.25-0.814-1.598-1.446 c-0.256-0.442-0.435-1.003-0.533-1.679c-0.104-0.674-0.153-1.71-0.153-3.114v-2.197v-4.017c0-0.534-0.065-0.885-0.19-1.042 c-0.13-0.157-0.381-0.275-0.767-0.351l-1.751-0.346V18.572z"/>
    <path d="M244.315,33.767v-0.713l1.637-0.335c0.419-0.08,0.691-0.27,0.833-0.566c0.136-0.297,0.206-0.9,0.206-1.819 c0-0.189-0.005-0.577-0.017-1.172c-0.01-0.588-0.016-1.085-0.016-1.484c0-0.61-0.011-1.544-0.032-2.791 c-0.022-1.253-0.033-2.197-0.033-2.839v-0.745c0-0.599-0.076-1.004-0.228-1.209c-0.158-0.205-0.441-0.356-0.854-0.448l-1.593-0.351 v-0.723l0.174,0.016c1.277,0.043,2.224,0.065,2.855,0.065c0.348,0,0.729-0.005,1.147-0.016c0.414-0.011,1-0.027,1.768-0.049 c-0.033,0.297-0.055,0.604-0.072,0.923c-0.016,0.318-0.026,0.643-0.026,0.972v0.647c0.989-0.907,2-1.577,3.034-2.008 c1.039-0.432,2.148-0.647,3.322-0.647c1.544,0,2.664,0.345,3.372,1.036c0.706,0.691,1.061,1.792,1.061,3.314 c0,0.016-0.021,0.653-0.065,1.895c-0.045,1.246-0.059,2.477-0.059,3.702v3.208c0,0.383,0.059,0.648,0.188,0.799 c0.126,0.156,0.377,0.264,0.751,0.322l1.702,0.303l0.033,0.713c-0.458-0.021-0.958-0.038-1.507-0.049 c-0.55-0.01-1.386-0.016-2.512-0.016s-1.975,0.006-2.551,0.016c-0.571,0.011-1.115,0.027-1.627,0.049v-0.713l1.529-0.286 c0.266-0.054,0.479-0.129,0.641-0.227c0.159-0.103,0.257-0.216,0.288-0.339c0.028-0.141,0.06-0.751,0.089-1.847 c0.025-1.09,0.037-2.456,0.037-4.103c0-2.278-0.272-3.891-0.82-4.847c-0.545-0.956-1.447-1.431-2.698-1.431 c-0.545,0-1.11,0.119-1.696,0.362c-0.593,0.243-1.138,0.588-1.637,1.031c-0.392,0.346-0.664,0.713-0.822,1.096 c-0.151,0.389-0.228,1.004-0.228,1.846v3.859c0,0.411-0.006,0.913-0.017,1.502c-0.011,0.587-0.017,0.976-0.017,1.155 c0,0.739,0.066,1.225,0.202,1.462c0.13,0.237,0.391,0.394,0.771,0.463l1.61,0.303v0.713c-0.446-0.021-0.941-0.038-1.485-0.049 c-0.538-0.01-1.364-0.016-2.469-0.016c-1.114,0-1.962,0.006-2.539,0.016C245.365,33.729,244.821,33.745,244.315,33.767"/>
    <path d="M273.47,10.804c0.342,0.011,0.716,0.017,1.13,0.021c0.414,0.006,1.022,0.011,1.832,0.011c0.816,0,1.431-0.005,1.839-0.011 c0.407-0.005,0.783-0.01,1.126-0.021c-0.098,1.561-0.169,3.693-0.218,6.392s-0.071,5.954-0.071,9.77 c0,0.615,0.011,1.354,0.033,2.229c0.022,0.88,0.032,1.441,0.032,1.695v0.771c0,0.374,0.055,0.627,0.169,0.761 c0.108,0.135,0.387,0.254,0.832,0.346l1.532,0.286v0.713h-0.097c-1.229-0.044-2.132-0.065-2.709-0.065 c-0.521,0-1.022,0.011-1.493,0.027c-0.479,0.016-0.947,0.038-1.404,0.069v-1.484c-0.958,0.588-1.827,1.015-2.615,1.28 c-0.784,0.265-1.566,0.395-2.344,0.395c-2.008,0-3.551-0.659-4.633-1.976c-1.083-1.316-1.626-3.196-1.626-5.63 c0-2.423,0.706-4.355,2.12-5.792c1.408-1.431,3.312-2.148,5.704-2.148c0.658,0,1.277,0.07,1.87,0.216 c0.588,0.141,1.147,0.356,1.682,0.637v-1.943v-2.342c0-0.756-0.012-1.344-0.033-1.755c-0.022-0.41-0.055-0.701-0.099-0.869 c-0.037-0.135-0.141-0.249-0.298-0.34c-0.158-0.086-0.387-0.162-0.687-0.21l-1.592-0.287L273.47,10.804z M275.97,31.079 c0.05-1.684,0.093-3.228,0.12-4.615c0.026-1.393,0.038-2.694,0.038-3.909c0-1.085-0.305-1.917-0.915-2.5 c-0.613-0.577-1.489-0.869-2.637-0.869c-1.446,0-2.566,0.507-3.371,1.517c-0.799,1.015-1.201,2.439-1.201,4.286 c0,2.331,0.445,4.156,1.337,5.473c0.893,1.317,2.127,1.975,3.698,1.975c0.614,0,1.17-0.113,1.664-0.339 C275.198,31.872,275.617,31.531,275.97,31.079z"/>
  </g>
</svg>
