<?xml version="1.0" encoding="UTF-8" standalone="no"?>
<!DOCTYPE svg PUBLIC "-//W3C//DTD SVG 1.1//EN" "http://www.w3.org/Graphics/SVG/1.1/DTD/svg11.dtd">
<svg width="100%" height="100%" viewBox="0 0 1027 98" version="1.1" xmlns="http://www.w3.org/2000/svg" xmlns:xlink="http://www.w3.org/1999/xlink" xml:space="preserve" xmlns:serif="http://www.serif.com/" style="fill-rule:evenodd;clip-rule:evenodd;stroke-miterlimit:22.9256;">
    <g transform="matrix(1.0619,0,0,1.0619,-127.372,-141.102)">
        <path d="M191.61,196.008L185.366,214.152L129.6,214.152L129.6,212.178L132.162,212.178C133.834,212.178 135.452,211.769 137.018,210.951C138.476,210.203 139.384,208.798 139.739,206.735C139.882,205.988 139.953,204.209 139.953,201.398L139.953,154.384C139.953,149.759 139.49,146.931 138.565,145.899C137.32,144.476 135.186,143.764 132.162,143.764L129.6,143.764L129.6,141.79L185.366,141.79L186.167,157.639L184.085,157.639C183.481,154.544 182.876,152.356 182.271,151.075C181.239,148.905 179.674,147.393 177.575,146.539C176.259,146.006 173.75,145.739 170.051,145.739L150.199,145.739L150.199,174.342L166.102,174.342C170.228,174.342 172.986,173.72 174.373,172.475C176.223,170.838 177.255,167.956 177.468,163.829L179.443,163.829L179.443,189.018L177.468,189.018C176.97,185.46 176.472,183.201 175.974,182.24C174.622,179.572 171.331,178.238 166.102,178.238L150.199,178.238L150.199,202.092C150.199,204.582 150.217,205.952 150.252,206.201C150.466,207.873 151.088,208.994 152.12,209.563C152.831,209.99 154.183,210.203 156.176,210.203L168.45,210.203C171.972,210.203 174.533,210.026 176.134,209.67C178.624,209.101 180.812,207.873 182.698,205.988C184.868,203.817 187.127,200.491 189.475,196.008L191.61,196.008Z" style="fill-rule:nonzero;stroke:black;stroke-width:4.71px;"/>
        <path d="M225.623,214.152L200.819,214.152L200.819,212.573L202.868,212.573C205.259,212.573 206.995,211.875 208.077,210.481C208.76,209.599 209.102,207.407 209.102,203.906L209.102,166.508C209.102,163.577 208.917,161.641 208.547,160.702C208.262,159.962 207.678,159.35 206.796,158.866C205.572,158.183 204.263,157.842 202.868,157.842L200.819,157.842L200.819,156.262L225.623,156.262L225.623,157.842L223.531,157.842C221.169,157.842 219.447,158.539 218.366,159.934C217.654,160.844 217.298,163.036 217.298,166.508L217.298,203.906C217.298,206.838 217.483,208.773 217.853,209.712C218.622,211.619 220.514,212.573 223.531,212.573L225.623,212.573L225.623,214.152Z" style="fill-rule:nonzero;stroke:black;stroke-width:4.71px;"/>
        <path d="M294.178,157.842L292.129,157.842C289.681,157.842 287.945,158.582 286.92,160.062C286.294,160.973 285.981,163.05 285.981,166.295L285.981,215.092L284.444,215.092L246.277,168.472L246.277,204.12C246.277,207.706 246.662,209.926 247.43,210.78C248.483,211.975 250.148,212.573 252.425,212.573L254.474,212.573L254.474,214.152L234.324,214.152L234.324,212.573L236.33,212.573C238.806,212.573 240.557,211.833 241.581,210.353C242.207,209.442 242.521,207.364 242.521,204.12L242.521,163.861C241.012,162.097 239.888,160.93 239.148,160.361C238.095,159.507 236.672,158.795 234.879,158.226C234.082,157.97 232.829,157.842 231.122,157.842L231.122,156.262L246.832,156.262L282.224,199.68L282.224,166.295C282.224,162.737 281.826,160.517 281.029,159.635C279.976,158.439 278.311,157.842 276.034,157.842L274.027,157.842L274.027,156.262L294.178,156.262L294.178,157.842Z" style="fill-rule:nonzero;stroke:black;stroke-width:4.71px;"/>
    </g>
    <g transform="matrix(1.0619,0,0,1.0619,-113.372,-143.6)">
        <g transform="matrix(1,0,0,1,184.576,-94.1712)">
            <path d="M161.085,310.676L130.08,310.676L130.08,308.702L132.642,308.702C135.63,308.702 137.8,307.83 139.152,306.087C140.006,304.984 140.433,302.244 140.433,297.869L140.433,251.121C140.433,247.457 140.202,245.037 139.739,243.863C139.384,242.938 138.654,242.174 137.551,241.569C136.022,240.715 134.385,240.288 132.642,240.288L130.08,240.288L130.08,238.314L161.085,238.314L161.085,240.288L158.47,240.288C155.518,240.288 153.365,241.16 152.013,242.903C151.124,244.041 150.679,246.781 150.679,251.121L150.679,297.869C150.679,301.533 150.91,303.952 151.373,305.126C152.333,307.51 154.699,308.702 158.47,308.702L161.085,308.702L161.085,310.676Z" style="fill-rule:nonzero;stroke:black;stroke-width:4.71px;"/>
        </g>
        <g transform="matrix(1,0,0,1,184.576,-94.1712)">
            <path d="M228.089,281.432C228.089,289.515 225.641,296.246 220.746,301.625C215.281,307.659 206.913,310.676 195.643,310.676L169.772,310.676L169.772,309.096L171.949,309.096C174.396,309.096 176.133,308.314 177.157,306.748C177.783,305.809 178.096,303.703 178.096,300.43L178.096,263.032C178.096,259.417 177.698,257.155 176.901,256.244C175.791,254.992 174.14,254.365 171.949,254.365L169.772,254.365L169.772,252.786L193.337,252.786C200.794,252.786 206.586,253.483 210.713,254.878C216.434,256.785 220.859,260.342 223.99,265.551C226.723,270.133 228.089,275.427 228.089,281.432ZM218.355,281.859C218.355,274.374 216.377,268.269 212.421,263.544C208.18,258.535 202.388,256.03 195.045,256.03C192.484,256.03 189.566,256.443 186.293,257.269L186.293,306.492C189.908,307.289 192.939,307.688 195.387,307.688C202.559,307.688 208.251,305.126 212.463,300.003C216.391,295.25 218.355,289.202 218.355,281.859Z" style="fill-rule:nonzero;stroke:black;stroke-width:4.71px;"/>
        </g>
        <g transform="matrix(1,0,0,1,184.576,-94.1712)">
            <path d="M287.341,296.161L282.346,310.676L237.733,310.676L237.733,309.096L239.782,309.096C241.12,309.096 242.415,308.769 243.667,308.115C244.834,307.517 245.56,306.393 245.844,304.742C245.958,304.144 246.015,302.721 246.015,300.473L246.015,262.861C246.015,259.161 245.645,256.899 244.905,256.073C243.909,254.935 242.201,254.365 239.782,254.365L237.733,254.365L237.733,252.786L282.346,252.786L282.986,265.465L281.321,265.465C280.837,262.989 280.353,261.239 279.87,260.214C279.044,258.478 277.792,257.269 276.113,256.585C275.06,256.159 273.053,255.945 270.093,255.945L254.212,255.945L254.212,278.828L266.934,278.828C270.235,278.828 272.441,278.33 273.551,277.334C275.031,276.025 275.857,273.719 276.027,270.418L277.607,270.418L277.607,290.568L276.027,290.568C275.629,287.722 275.23,285.915 274.832,285.146C273.75,283.012 271.118,281.944 266.934,281.944L254.212,281.944L254.212,301.028C254.212,303.02 254.226,304.116 254.254,304.315C254.425,305.653 254.923,306.549 255.749,307.005C256.318,307.346 257.399,307.517 258.993,307.517L268.812,307.517C271.63,307.517 273.679,307.375 274.96,307.09C276.952,306.635 278.703,305.653 280.211,304.144C281.947,302.408 283.755,299.747 285.633,296.161L287.341,296.161Z" style="fill-rule:nonzero;stroke:black;stroke-width:4.71px;"/>
        </g>
        <g transform="matrix(1,0,0,1,184.576,-94.1712)">
            <path d="M356.028,310.676L333.188,310.676L333.188,309.096C337.115,308.897 339.079,307.716 339.079,305.553C339.079,304.301 338.51,302.323 337.371,299.619L333.871,291.294L311.457,291.294L307.53,300.43C306.562,302.678 306.078,304.358 306.078,305.468C306.078,307.574 308.312,308.783 312.781,309.096L312.781,310.676L294.551,310.676L294.551,309.096C296.971,308.67 298.536,308.115 299.247,307.432C300.671,306.094 302.279,303.319 304.072,299.107L324.436,251.462L325.93,251.462L346.08,299.619C347.447,302.863 348.614,305.041 349.581,306.151C351.118,307.944 353.267,308.926 356.028,309.096L356.028,310.676ZM332.675,288.135L322.856,264.74L312.781,288.135L332.675,288.135Z" style="fill-rule:nonzero;stroke:black;stroke-width:4.71px;"/>
        </g>
        <g transform="matrix(1,0,0,1,184.576,-94.1712)">
            <path d="M413.06,294.965L408.108,310.676L363.281,310.676L363.281,309.096L365.458,309.096C367.906,309.096 369.656,308.3 370.709,306.706C371.307,305.795 371.606,303.689 371.606,300.387L371.606,263.032C371.606,259.417 371.207,257.155 370.411,256.244C369.301,254.992 367.65,254.365 365.458,254.365L363.281,254.365L363.281,252.786L389.494,252.786L389.494,254.365C384.542,254.309 381.539,255.347 380.486,257.482C380.03,258.393 379.803,260.57 379.803,264.014L379.803,300.387C379.803,302.778 380.03,304.4 380.486,305.254C380.998,306.222 382.265,306.805 384.285,307.005L392.952,307.005C396.566,307.005 399.156,306.82 400.722,306.45C403.255,305.852 405.418,304.543 407.211,302.522C408.691,300.871 410.171,298.253 411.651,294.667L413.06,294.965Z" style="fill-rule:nonzero;stroke:black;stroke-width:4.71px;"/>
        </g>
        <g transform="matrix(1,0,0,1,184.576,-94.1712)">
            <path d="M470.86,296.161L465.865,310.676L421.252,310.676L421.252,309.096L423.302,309.096C424.639,309.096 425.934,308.769 427.187,308.115C428.353,307.517 429.079,306.393 429.364,304.742C429.478,304.144 429.535,302.721 429.535,300.473L429.535,262.861C429.535,259.161 429.165,256.899 428.425,256.073C427.428,254.935 425.721,254.365 423.302,254.365L421.252,254.365L421.252,252.786L465.865,252.786L466.506,265.465L464.841,265.465C464.357,262.989 463.873,261.239 463.389,260.214C462.564,258.478 461.312,257.269 459.632,256.585C458.579,256.159 456.573,255.945 453.613,255.945L437.731,255.945L437.731,278.828L450.454,278.828C453.755,278.828 455.961,278.33 457.071,277.334C458.551,276.025 459.376,273.719 459.547,270.418L461.127,270.418L461.127,290.568L459.547,290.568C459.149,287.722 458.75,285.915 458.352,285.146C457.27,283.012 454.637,281.944 450.454,281.944L437.731,281.944L437.731,301.028C437.731,303.02 437.746,304.116 437.774,304.315C437.945,305.653 438.443,306.549 439.268,307.005C439.838,307.346 440.919,307.517 442.513,307.517L452.332,307.517C455.15,307.517 457.199,307.375 458.48,307.09C460.472,306.635 462.222,305.653 463.731,304.144C465.467,302.408 467.274,299.747 469.153,296.161L470.86,296.161Z" style="fill-rule:nonzero;stroke:black;stroke-width:4.71px;"/>
        </g>
        <g transform="matrix(1,0,0,1,184.576,-94.1712)">
            <path d="M536.473,310.676L521.019,310.676L501.423,283.609C499.972,283.666 498.791,283.695 497.88,283.695C497.112,283.695 496.272,283.666 495.361,283.609L495.361,300.43C495.361,304.045 495.76,306.307 496.557,307.218C497.667,308.47 499.289,309.096 501.423,309.096L503.686,309.096L503.686,310.676L478.882,310.676L478.882,309.096L481.059,309.096C483.507,309.096 485.257,308.3 486.311,306.706C486.908,305.795 487.207,303.703 487.207,300.43L487.207,263.032C487.207,259.389 486.809,257.126 486.012,256.244C484.902,254.992 483.251,254.365 481.059,254.365L478.882,254.365L478.882,252.786L499.972,252.786C505.123,252.786 508.909,253.042 511.328,253.554C515.426,254.437 518.657,256.272 521.019,259.062C523.04,261.481 524.05,264.355 524.05,267.685C524.05,275.455 519.297,280.393 509.791,282.499L521.745,299.107C524.164,302.493 526.213,304.799 527.892,306.023C530.112,307.702 532.973,308.727 536.473,309.096L536.473,310.676ZM514.444,268.24C514.444,264.569 513.306,261.616 511.029,259.382C508.752,257.148 505.764,256.03 502.064,256.03C500.413,256.03 498.179,256.301 495.361,256.842L495.361,280.92L496.557,280.92C497.097,280.948 497.496,280.963 497.752,280.963C502.391,280.963 506.191,280.023 509.151,278.145C512.68,275.925 514.444,272.623 514.444,268.24Z" style="fill-rule:nonzero;stroke:black;stroke-width:4.71px;"/>
        </g>
    </g>
    <g transform="matrix(1.0619,0,0,1.0619,615.628,-345.599)">
        <path d="M136.867,369.737L135.533,369.737C132.758,369.737 130.855,370.662 129.823,372.512C129.112,373.793 128.756,376.39 128.756,380.304L128.756,402.45C120.822,406.719 112.355,408.854 103.354,408.854C89.373,408.854 78.753,404.371 71.496,395.406C66.052,388.682 63.331,380.926 63.331,372.139C63.331,365.771 64.861,359.669 67.92,353.835C75.142,340.067 86.384,333.183 101.647,333.183C106.307,333.183 111.75,334.339 117.976,336.651C120.004,337.398 121.338,337.772 121.979,337.772C123.544,337.772 124.416,336.242 124.593,333.183L126.568,333.183L128.436,356.023L126.568,356.023C124.682,350.33 122.245,346.044 119.257,343.162C114.952,338.999 109.42,336.918 102.661,336.918C93.411,336.918 86.402,340.565 81.635,347.858C77.615,353.977 75.605,361.306 75.605,369.844C75.605,376.106 76.743,381.976 79.02,387.455C81.617,393.716 85.317,398.305 90.12,401.223C94.425,403.891 98.854,405.225 103.408,405.225C108.673,405.225 113.654,403.891 118.35,401.223L118.35,380.304C118.35,377.6 118.243,375.768 118.03,374.807C117.567,372.815 116.553,371.41 114.988,370.591C113.814,370.022 111.768,369.737 108.851,369.737L108.851,367.71L136.867,367.71L136.867,369.737Z" style="fill-rule:nonzero;stroke:black;stroke-width:4.71px;"/>
        <path d="M205.099,407.2L182.259,407.2L182.259,405.62C186.186,405.421 188.15,404.24 188.15,402.076C188.15,400.824 187.581,398.846 186.442,396.142L182.942,387.817L160.528,387.817L156.601,396.953C155.633,399.202 155.149,400.881 155.149,401.991C155.149,404.097 157.383,405.307 161.852,405.62L161.852,407.2L143.622,407.2L143.622,405.62C146.042,405.193 147.607,404.638 148.318,403.955C149.742,402.617 151.35,399.842 153.143,395.63L173.507,347.986L175.001,347.986L195.151,396.142C196.518,399.387 197.685,401.564 198.652,402.674C200.189,404.467 202.338,405.449 205.099,405.62L205.099,407.2ZM181.746,384.658L171.927,361.263L161.852,384.658L181.746,384.658Z" style="fill-rule:nonzero;stroke:black;stroke-width:4.71px;"/>
        <path d="M261.832,362.885L260.21,362.885C259.897,360.495 259.47,358.787 258.929,357.762C257.222,354.546 254.119,352.938 249.622,352.938L241.468,352.938L241.468,397.167C241.468,400.753 241.853,402.973 242.621,403.827C243.674,405.022 245.339,405.62 247.616,405.62L249.622,405.62L249.622,407.2L225.075,407.2L225.075,405.62L227.124,405.62C229.571,405.62 231.308,404.88 232.332,403.4C232.958,402.489 233.271,400.411 233.271,397.167L233.271,352.938L226.313,352.938C223.58,352.938 221.659,353.137 220.549,353.536C217.134,354.76 215.241,357.876 214.871,362.885L213.249,362.885L213.932,349.309L261.192,349.309L261.832,362.885Z" style="fill-rule:nonzero;stroke:black;stroke-width:4.71px;"/>
        <path d="M319.761,362.885L318.139,362.885C317.826,360.495 317.399,358.787 316.858,357.762C315.151,354.546 312.048,352.938 307.551,352.938L299.397,352.938L299.397,397.167C299.397,400.753 299.781,402.973 300.55,403.827C301.603,405.022 303.268,405.62 305.545,405.62L307.551,405.62L307.551,407.2L283.004,407.2L283.004,405.62L285.053,405.62C287.5,405.62 289.237,404.88 290.261,403.4C290.887,402.489 291.2,400.411 291.2,397.167L291.2,352.938L284.242,352.938C281.509,352.938 279.588,353.137 278.478,353.536C275.063,354.76 273.17,357.876 272.8,362.885L271.178,362.885L271.861,349.309L319.121,349.309L319.761,362.885Z" style="fill-rule:nonzero;stroke:black;stroke-width:4.71px;"/>
        <path d="M377.861,392.684L372.866,407.2L328.253,407.2L328.253,405.62L330.302,405.62C331.64,405.62 332.935,405.293 334.187,404.638C335.354,404.04 336.08,402.916 336.365,401.265C336.478,400.668 336.535,399.245 336.535,396.996L336.535,359.385C336.535,355.685 336.165,353.422 335.425,352.597C334.429,351.458 332.721,350.889 330.302,350.889L328.253,350.889L328.253,349.309L372.866,349.309L373.506,361.989L371.841,361.989C371.358,359.513 370.874,357.762 370.39,356.738C369.565,355.002 368.312,353.792 366.633,353.109C365.58,352.682 363.573,352.468 360.614,352.468L344.732,352.468L344.732,375.351L357.454,375.351C360.756,375.351 362.962,374.853 364.072,373.857C365.552,372.548 366.377,370.243 366.548,366.941L368.127,366.941L368.127,387.092L366.548,387.092C366.149,384.245 365.751,382.438 365.352,381.67C364.271,379.535 361.638,378.468 357.454,378.468L344.732,378.468L344.732,397.551C344.732,399.543 344.746,400.639 344.775,400.838C344.946,402.176 345.444,403.073 346.269,403.528C346.838,403.87 347.92,404.04 349.514,404.04L359.333,404.04C362.15,404.04 364.2,403.898 365.48,403.613C367.473,403.158 369.223,402.176 370.731,400.668C372.468,398.932 374.275,396.27 376.153,392.684L377.861,392.684Z" style="fill-rule:nonzero;stroke:black;stroke-width:4.71px;"/>
    </g>
</svg>
