<svg xmlns="http://www.w3.org/2000/svg" viewBox="0 0 800 800"><defs><style>.a{fill:#fff;}.a,.b,.c,.d{fill-rule:evenodd;}.b{fill:#bd0d0c;}.c{fill:none;stroke:#000;stroke-width:15px;}</style></defs><title>favicon</title><path class="a" d="M764,12c-167.9.1-484.2.5-731.4.9.8,570.2,1.2,775.5,372.2,776.1C766.7,787.5,766.4,582.2,764,12Z"/><path class="b" d="M447.8,327.9c-.1-140-3.3-315.6-3.3-315.6H353.2s-1.3,212,.7,315.9c-131.6.2-84.8.9-317.3-.4,1.4,44.6,5,85.5,5,85.5s25.2.5,312.1,3.6c2.1,137,.5,357.3.3,371a795.4,795.4,0,0,0,94-.1s.6-142.6,1-371.4c233.2,1.8-19.9-1.6,308.1,1.5,2.4-28.2,4.7-63.1,4.7-87.4C571.2,330.5,577,328.9,447.8,327.9Z"/><path class="c" d="M32.6,12.9c247.2-.4,563.5-.8,731.4-.9,2.4,570.2,2.7,775.5-359.2,777C33.8,788.4,33.4,583.1,32.6,12.9Z"/><path class="d" d="M187.8,306c-23.3,0-44.5-7.2-61.2-20.9s-29.4-35.9-34-62.1c39.2,26.2,70.9,37.9,102.4,37.9h0c31.9,0,64.1-11.9,101.3-37.4l.6,2.6a111.5,111.5,0,0,1-43.2,59.2A117.3,117.3,0,0,1,187.9,306Zm1.9-60.5c-3.5-10.3-6.6-20.7-11.8-38.1-2.2-7.6-4.9-16.6-8.2-27.6l-.4-1.3-1.3.3c-25.4,4.5-32.4,6.1-53.3,10.7l-15,3.3c2.2-2.2,5.4-5,8.7-7.9,11.7-10.2,29.2-25.5,37.5-40.1l.5-.9-.7-.8c-6.3-6.7-14.5-17.2-22.4-27.3s-13.8-17.6-19.6-24.2c11.7,2.2,14.3,2.5,16.6,2.8s6.5.9,53,10.1l1.3.2.4-1.1c4.7-12.4,19.2-51.6,25.9-73.2,4,20.1,11.1,55,15.3,75.4l.3,1.5,14.5-3.1c26.7-5.7,33.4-7.1,56.5-10.7-6.4,6.7-12.7,13.5-18.8,20.2-9.5,10.3-18.5,20-26.9,28.4l-1,1,1,1c7.8,9.1,17.2,18.5,26.2,27.5s16.1,16.1,23.3,24c-11.4-2.2-23.3-4.8-34.9-7.2s-26.5-5.7-39.2-8.2L216,180l-.4,1.1c-4.1,10-9,22.2-13.7,34Z"/><path d="M200.6,36.4c4.3,21.8,10.5,52.1,14.2,69.7l.6,2.9,2.9-.6,13.1-2.7c25.4-5.5,32.5-7,52-10-5.4,5.6-10.7,11.4-15.8,17-9.5,10.2-18.5,19.9-26.8,28.3l-2,2,1.8,2.1c7.9,9.1,17.3,18.5,26.4,27.6,6.8,6.8,13.8,13.7,20.1,20.6l-30.4-6.4c-13-2.8-26.4-5.7-39.2-8.2l-2.4-.5-.9,2.3c-4.1,10-9,22.3-13.7,34.1-3.6,9-7.3,18.2-10.7,26.5-3-9-5.9-18.9-10.4-34.1-2.3-7.8-5-16.7-8.3-27.6l-.7-2.6-2.7.5c-25.3,4.5-32.4,6.1-53.4,10.7l-9.5,2.1,4.6-4.1c11.7-10.2,29.4-25.7,37.8-40.4l1.1-2-1.5-1.6c-6.2-6.6-14.4-17-22.3-27.1-5.8-7.4-11.7-14.9-16.9-21l12.5,2c3.7.5,6.4.9,52.9,10.1l2.5.5.9-2.4c4.3-11.4,17-45.4,24.2-67.7M295.3,226h0A109.4,109.4,0,0,1,252.8,284a115.1,115.1,0,0,1-65,20.5c-22.9,0-43.8-7.1-60.2-20.6s-27.9-33.5-32.9-57.6c38.2,24.9,69.3,36.1,100.3,36.1s63.6-11.6,100.3-36.4M201.2,24.2c-5.1,18.3-20.5,60-27.6,78.8-76.5-15.1-34.6-6.4-74-13.7,12.6,13.4,32.4,41.4,45,54.8-12.5,22-46.6,45.8-48.9,51.1,37.4-8.2,40.7-9.2,72.6-15,11.8,39.4,15.7,53.5,21.2,69.6,8.2-20,19.3-48.2,27.5-68.1,25.3,5,52.9,11.3,78.3,16.3-15.6-18.1-36.8-36.8-52.4-54.9,14.8-14.8,31.8-34.1,48.7-51.7-30.3,4.6-33.4,5.5-73.9,14.1-4.4-21.3-12.3-60.1-16.5-81.3ZM90.5,219.9c9.1,60.1,52.2,87.6,97.3,87.6s94.7-28.9,110.7-81.3c-.5-1.7-.9-3.4-1.3-5.2C259,247.6,226.3,259.4,195,259.4c-34.6,0-67.5-14.5-104.5-39.5Z"/></svg>