<?xml version="1.0" encoding="UTF-8" standalone="no"?>
<!DOCTYPE svg PUBLIC "-//W3C//DTD SVG 1.1//EN" "http://www.w3.org/Graphics/SVG/1.1/DTD/svg11.dtd">
<svg width="100%" height="100%" viewBox="0 0 2177 156" version="1.1" xmlns="http://www.w3.org/2000/svg" xmlns:xlink="http://www.w3.org/1999/xlink" xml:space="preserve" xmlns:serif="http://www.serif.com/" style="fill-rule:evenodd;clip-rule:evenodd;stroke-linejoin:round;stroke-miterlimit:2;">
    <g transform="matrix(4.16667,0,0,4.16667,-665.842,-1329.03)">
        <path d="M159.802,325.352L159.802,320.647L183.823,320.647L183.823,325.352L174.323,325.352L174.323,355.281L169.346,355.281L169.346,325.352L159.802,325.352Z" style="fill:rgb(31,32,52);fill-rule:nonzero;"/>
    </g>
    <g transform="matrix(4.16667,0,0,4.16667,-665.842,-1329.03)">
        <path d="M185.165,355.281L185.165,320.647L190.051,320.647L190.051,334.237L191.165,333.351L194.937,331.397L200.096,331.397L204.459,333.647L206.368,339.419L206.368,355.281L201.573,355.281L201.573,340.146L200.505,337.078L198.937,336.237L195.528,336.237L193.21,337.374L190.051,340.192L190.051,355.281L185.165,355.281Z" style="fill:rgb(31,32,52);fill-rule:nonzero;"/>
    </g>
    <g transform="matrix(4.16667,0,0,4.16667,-665.842,-1282.53)">
        <path d="M208.711,333.555L208.711,331.237L210.302,325.874L213.733,322.192L217.596,320.238L223.187,320.238L227.05,322.192L229.05,324.26L231.005,328.055L231.005,333.782L213.46,333.782L214.347,336.35L216.528,338.532L218.755,339.691L222.073,339.691L224.21,338.577L226.869,335.987L230.255,339.418L227.05,342.577L223.187,344.531L217.596,344.531L213.733,342.577L210.302,338.918L208.711,333.555ZM213.869,329.646L226.437,329.646L225.846,327.419L224.391,325.737L222.119,324.533L218.619,324.533L216.437,325.692L214.119,328.442L213.869,329.646Z" style="fill:rgb(31,32,52);fill-rule:nonzero;"/>
    </g>
    <g transform="matrix(4.16667,0,0,4.16667,-665.842,-1280.35)">
        <path d="M232.029,333.032L232.029,330.714L233.847,325.351L237.483,321.669L241.392,319.715L246.096,319.715L249.891,321.669L249.891,320.146L254.8,320.146L254.8,336.486L258.277,341.781L254.323,344.531L252.005,341.031L247.21,344.008L241.392,344.008L237.483,342.054L233.847,338.395L232.029,333.032ZM236.87,332.282L238.074,335.827L240.278,338.009L242.506,339.168L245.937,339.168L249.891,336.759L249.891,327.646L247.937,325.692L245.846,324.555L242.46,324.555L240.369,325.692L238.074,327.919L236.87,331.509L236.87,332.282Z" style="fill:rgb(31,32,52);fill-rule:nonzero;"/>
    </g>
    <g transform="matrix(4.16667,0,0,4.16667,-665.842,-1313.68)">
        <path d="M257.211,332.987L257.211,328.146L261.438,328.146L261.438,320.647L266.324,320.647L266.324,328.146L272.187,328.146L272.187,332.987L266.324,332.987L266.324,342.85L267.392,345.963L268.937,346.759L272.142,346.759L272.142,351.599L267.778,351.599L263.392,349.418L261.438,343.645L261.438,332.987L257.211,332.987Z" style="fill:rgb(31,32,52);fill-rule:nonzero;"/>
    </g>
    <g transform="matrix(4.16667,0,0,4.16667,-665.842,-1282.53)">
        <path d="M273.961,333.555L273.961,331.237L275.552,325.874L278.984,322.192L282.847,320.238L288.438,320.238L292.301,322.192L294.301,324.26L296.255,328.055L296.255,333.782L278.711,333.782L279.597,336.35L281.779,338.532L284.006,339.691L287.324,339.691L289.46,338.577L292.119,335.987L295.505,339.418L292.301,342.577L288.438,344.531L282.847,344.531L278.984,342.577L275.552,338.918L273.961,333.555ZM279.12,329.646L291.687,329.646L291.096,327.419L289.642,325.737L287.369,324.533L283.87,324.533L281.688,325.692L279.37,328.442L279.12,329.646Z" style="fill:rgb(31,32,52);fill-rule:nonzero;"/>
    </g>
    <g transform="matrix(4.16667,0,0,4.16667,-665.842,-1284.23)">
        <path d="M298.734,344.531L298.734,321.078L303.574,321.078L303.574,322.987L307.006,320.647L309.756,320.647L314.165,322.897L315.801,327.783L311.301,329.396L310.029,326.328L308.733,325.487L307.438,325.487L303.574,328.464L303.574,344.531L298.734,344.531Z" style="fill:rgb(31,32,52);fill-rule:nonzero;"/>
    </g>
    <g transform="matrix(4.16667,0,0,4.16667,-665.842,-1329.03)">
        <path d="M316.643,355.281L316.643,320.647L321.575,320.647L321.575,337.374L338.278,320.647L345.301,320.647L329.983,335.919L344.505,355.281L338.278,355.281L326.461,339.464L321.575,344.305L321.575,355.281L316.643,355.281Z" style="fill:rgb(31,32,52);fill-rule:nonzero;"/>
    </g>
    <g transform="matrix(4.16667,0,0,4.16667,-665.842,-1280.73)">
        <path d="M344.234,336.101L344.234,320.238L349.075,320.238L349.075,335.351L350.143,338.487L351.734,339.26L355.074,339.26L357.46,338.146L360.619,335.351L360.619,320.238L365.505,320.238L365.505,343.691L360.619,343.691L360.619,340.669L359.506,342.146L355.733,344.1L350.575,344.1L346.189,341.873L344.234,336.101Z" style="fill:rgb(31,32,52);fill-rule:nonzero;"/>
    </g>
    <g transform="matrix(4.16667,0,0,4.16667,-665.842,-1329.03)">
        <path d="M369.143,348.941L369.143,320.647L373.984,320.647L373.984,347.918L375.006,349.873L375.575,350.441L378.824,350.441L378.824,355.281L373.529,355.281L371.052,352.804L369.143,348.941Z" style="fill:rgb(31,32,52);fill-rule:nonzero;"/>
    </g>
    <g transform="matrix(4.16667,0,0,4.16667,-665.842,-1313.68)">
        <path d="M378.076,332.987L378.076,328.146L382.303,328.146L382.303,320.647L387.189,320.647L387.189,328.146L393.052,328.146L393.052,332.987L387.189,332.987L387.189,342.85L388.257,345.963L389.802,346.759L393.007,346.759L393.007,351.599L388.643,351.599L384.257,349.418L382.303,343.645L382.303,332.987L378.076,332.987Z" style="fill:rgb(31,32,52);fill-rule:nonzero;"/>
    </g>
    <g transform="matrix(4.16667,0,0,4.16667,-665.842,-1280.73)">
        <path d="M395.986,336.101L395.986,320.238L400.826,320.238L400.826,335.351L401.894,338.487L403.485,339.26L406.826,339.26L409.212,338.146L412.371,335.351L412.371,320.238L417.257,320.238L417.257,343.691L412.371,343.691L412.371,340.669L411.257,342.146L407.485,344.1L402.326,344.1L397.94,341.873L395.986,336.101Z" style="fill:rgb(31,32,52);fill-rule:nonzero;"/>
    </g>
    <g transform="matrix(4.16667,0,0,4.16667,-665.842,-1284.23)">
        <path d="M421.326,344.531L421.326,321.078L426.167,321.078L426.167,322.987L429.599,320.647L432.348,320.647L436.757,322.897L438.393,327.783L433.894,329.396L432.621,326.328L431.326,325.487L430.03,325.487L426.167,328.464L426.167,344.531L421.326,344.531Z" style="fill:rgb(31,32,52);fill-rule:nonzero;"/>
    </g>
    <g transform="matrix(4.16667,0,0,4.16667,-665.842,-1333.38)">
        <path d="M448.519,355.803L448.519,321.169L453.451,321.169L453.451,337.895L470.154,321.169L477.176,321.169L461.859,336.44L476.381,355.803L470.154,355.803L458.337,339.986L453.451,344.826L453.451,355.803L448.519,355.803Z" style="fill:rgb(31,32,52);fill-rule:nonzero;"/>
    </g>
    <g transform="matrix(4.16667,0,0,4.16667,-665.842,-1284.71)">
        <path d="M474.837,333.555L474.837,331.237L476.655,325.874L480.292,322.192L484.2,320.238L488.905,320.238L492.7,322.192L492.7,320.67L497.609,320.67L497.609,337.01L501.086,342.305L497.131,345.054L494.813,341.555L490.018,344.532L484.2,344.532L480.292,342.577L476.655,338.919L474.837,333.555ZM479.678,332.805L480.882,336.351L483.087,338.532L485.314,339.691L488.746,339.691L492.7,337.282L492.7,328.169L490.745,326.215L488.655,325.079L485.268,325.079L483.178,326.215L480.882,328.442L479.678,332.033L479.678,332.805Z" style="fill:rgb(31,32,52);fill-rule:nonzero;"/>
    </g>
    <g transform="matrix(4.16667,0,0,4.16667,-665.842,-1286.79)">
        <rect x="503.133" y="321.169" width="4.886" height="23.453" style="fill:rgb(31,32,52);"/>
    </g>
    <g transform="matrix(2.92475,-2.96765,-2.96765,-2.92475,1007.46,2550.14)">
        <path d="M502.274,355.575L508.879,355.575L508.799,348.955L502.21,349.003L502.274,355.575Z" style="fill:rgb(31,32,52);fill-rule:nonzero;"/>
    </g>
    <g transform="matrix(4.16667,0,0,4.16667,-665.842,-1286.88)">
        <path d="M511.088,327.714L513.429,322.669L518.951,320.76L522.36,320.76L527.701,322.714L529.951,326.669L525.746,328.623L524.587,326.487L521.565,325.146L519.656,325.146L516.633,326.26L516.201,327.646L516.815,328.873L518.77,329.941L523.928,331.191L527.655,333.145L529.655,336.554L529.655,338.736L527.473,343.099L522.36,345.054L518.951,345.054L513.384,343.099L511.179,339.145L515.565,337.1L516.815,339.395L519.701,340.69L521.565,340.69L524.269,339.577L525.155,338.168L524.496,336.736L522.497,335.714L517.224,334.259L513.27,332.305L511.088,327.714Z" style="fill:rgb(31,32,52);fill-rule:nonzero;"/>
    </g>
    <g transform="matrix(4.16667,0,0,4.16667,-665.842,-1286.88)">
        <path d="M531.202,334.077L531.202,331.759L532.793,326.396L536.225,322.714L540.088,320.76L545.678,320.76L549.542,322.714L551.542,324.782L553.496,328.578L553.496,334.305L535.952,334.305L536.838,336.873L539.02,339.054L541.247,340.213L544.565,340.213L546.701,339.1L549.36,336.509L552.746,339.94L549.542,343.099L545.678,345.054L540.088,345.054L536.225,343.099L532.793,339.441L531.202,334.077ZM536.361,330.168L548.928,330.168L548.337,327.941L546.883,326.26L544.61,325.055L541.111,325.055L538.929,326.214L536.611,328.964L536.361,330.168Z" style="fill:rgb(31,32,52);fill-rule:nonzero;"/>
    </g>
    <g transform="matrix(4.16667,0,0,4.16667,-665.842,-1288.59)">
        <path d="M555.975,345.054L555.975,321.601L560.815,321.601L560.815,323.51L564.247,321.169L566.997,321.169L571.406,323.419L573.042,328.305L568.542,329.918L567.27,326.85L565.974,326.01L564.679,326.01L560.815,328.987L560.815,345.054L555.975,345.054Z" style="fill:rgb(31,32,52);fill-rule:nonzero;"/>
    </g>
    <g transform="matrix(4.16667,0,0,4.16667,-665.842,-1286.88)">
        <path d="M572.521,327.714L574.862,322.669L580.384,320.76L583.793,320.76L589.133,322.714L591.383,326.669L587.179,328.623L586.02,326.487L582.997,325.146L581.088,325.146L578.066,326.26L577.634,327.646L578.248,328.873L580.202,329.941L585.361,331.191L589.088,333.145L591.088,336.554L591.088,338.736L588.906,343.099L583.793,345.054L580.384,345.054L574.816,343.099L572.612,339.145L576.998,337.1L578.248,339.395L581.134,340.69L582.997,340.69L585.702,339.577L586.588,338.168L585.929,336.736L583.929,335.714L578.657,334.259L574.702,332.305L572.521,327.714Z" style="fill:rgb(31,32,52);fill-rule:nonzero;"/>
    </g>
    <g transform="matrix(4.16667,0,0,4.16667,-665.842,-1286.88)">
        <path d="M592.635,334.077L592.635,331.759L594.226,326.396L597.657,322.714L601.52,320.76L607.111,320.76L610.974,322.714L612.974,324.782L614.929,328.578L614.929,334.305L597.384,334.305L598.271,336.873L600.452,339.054L602.679,340.213L605.997,340.213L608.134,339.1L610.793,336.509L614.179,339.94L610.974,343.099L607.111,345.054L601.52,345.054L597.657,343.099L594.226,339.441L592.635,334.077ZM597.793,330.168L610.361,330.168L609.77,327.941L608.315,326.26L606.043,325.055L602.543,325.055L600.361,326.214L598.043,328.964L597.793,330.168Z" style="fill:rgb(31,32,52);fill-rule:nonzero;"/>
    </g>
    <g transform="matrix(4.16667,0,0,4.16667,-665.842,-1286.88)">
        <path d="M616.044,327.714L618.385,322.669L623.907,320.76L627.316,320.76L632.656,322.714L634.906,326.669L630.702,328.623L629.543,326.487L626.52,325.146L624.611,325.146L621.589,326.26L621.157,327.646L621.771,328.873L623.725,329.941L628.884,331.191L632.611,333.145L634.611,336.554L634.611,338.736L632.429,343.099L627.316,345.054L623.907,345.054L618.339,343.099L616.135,339.145L620.521,337.1L621.771,339.395L624.657,340.69L626.52,340.69L629.225,339.577L630.111,338.168L629.452,336.736L627.452,335.714L622.18,334.259L618.226,332.305L616.044,327.714Z" style="fill:rgb(31,32,52);fill-rule:nonzero;"/>
    </g>
    <g transform="matrix(4.16667,0,0,4.16667,-665.842,-1286.88)">
        <path d="M636.158,334.077L636.158,331.759L637.976,326.396L641.612,322.714L645.475,320.76L651.043,320.76L654.907,322.714L658.543,326.351L655.111,329.805L652.066,326.782L649.884,325.601L646.543,325.601L644.453,326.737L642.203,328.964L640.998,332.555L640.998,333.327L642.203,336.873L644.407,339.054L646.634,340.213L649.93,340.213L652.066,339.1L655.202,335.986L658.588,339.441L654.907,343.099L651.043,345.054L645.475,345.054L641.612,343.099L637.976,339.441L636.158,334.077Z" style="fill:rgb(31,32,52);fill-rule:nonzero;"/>
    </g>
    <g transform="matrix(4.16667,0,0,4.16667,-665.842,-1333.38)">
        <path d="M660.885,355.803L660.885,321.169L665.771,321.169L665.771,334.759L666.885,333.872L670.657,331.918L675.816,331.918L680.179,334.168L682.088,339.94L682.088,355.803L677.293,355.803L677.293,340.667L676.225,337.599L674.657,336.759L671.248,336.759L668.93,337.895L665.771,340.713L665.771,355.803L660.885,355.803Z" style="fill:rgb(31,32,52);fill-rule:nonzero;"/>
    </g>
</svg>
