<?xml version="1.0" encoding="UTF-8" standalone="no"?>
<!DOCTYPE svg PUBLIC "-//W3C//DTD SVG 1.1//EN" "http://www.w3.org/Graphics/SVG/1.1/DTD/svg11.dtd">
<svg width="100%" height="100%" viewBox="0 0 572 273" version="1.1" xmlns="http://www.w3.org/2000/svg" xmlns:xlink="http://www.w3.org/1999/xlink" xml:space="preserve" xmlns:serif="http://www.serif.com/" style="fill-rule:evenodd;clip-rule:evenodd;stroke-linejoin:round;stroke-miterlimit:2;">
    <g transform="matrix(1.75082,0,0,1.75082,-562.458,-710.748)" style="fill:rgb(31,32,52);fill-rule:nonzero;">
        <g transform="matrix(0.571161,0,0,0.571161,484.606,484.2)">
            <g transform="matrix(1,0,0,1,-400,-300)">
                <g transform="matrix(1.75082,0,0,1.75082,-224.132,-654.382)">
                    <path d="M194.031,473.844L194.031,467.375L227.063,467.375L227.063,473.844L214,473.844L214,515L207.156,515L207.156,473.844L194.031,473.844Z" style="fill-rule:nonzero;"/>
                    <path d="M228.909,515L228.909,467.375L235.627,467.375L235.627,486.062L237.159,484.844L242.346,482.156L249.44,482.156L255.44,485.25L258.065,493.187L258.065,515L251.471,515L251.471,494.187L250.002,489.969L247.846,488.812L243.159,488.812L239.971,490.375L235.627,494.25L235.627,515L228.909,515Z" style="fill-rule:nonzero;"/>
                    <path d="M261.286,500.469L261.286,497.281L263.473,489.906L268.192,484.844L273.505,482.156L281.192,482.156L286.505,484.844L289.255,487.687L291.942,492.906L291.942,500.781L267.817,500.781L269.036,504.312L272.036,507.312L275.098,508.906L279.661,508.906L282.598,507.375L286.255,503.812L290.911,508.531L286.505,512.875L281.192,515.562L273.505,515.562L268.192,512.875L263.473,507.844L261.286,500.469ZM268.38,495.094L285.661,495.094L284.848,492.031L282.848,489.719L279.723,488.062L274.911,488.062L271.911,489.656L268.723,493.437L268.38,495.094Z" style="fill-rule:nonzero;"/>
                    <path d="M293.351,500.469L293.351,497.281L295.851,489.906L300.851,484.844L306.226,482.156L312.694,482.156L317.913,484.844L317.913,482.75L324.663,482.75L324.663,505.219L329.444,512.5L324.007,516.281L320.819,511.469L314.226,515.562L306.226,515.562L300.851,512.875L295.851,507.844L293.351,500.469ZM300.007,499.437L301.663,504.312L304.694,507.312L307.757,508.906L312.476,508.906L317.913,505.594L317.913,493.062L315.226,490.375L312.351,488.812L307.694,488.812L304.819,490.375L301.663,493.437L300.007,498.375L300.007,499.437Z" style="fill-rule:nonzero;"/>
                    <path d="M327.978,489.406L327.978,482.75L333.79,482.75L333.79,472.437L340.509,472.437L340.509,482.75L348.572,482.75L348.572,489.406L340.509,489.406L340.509,502.969L341.978,507.25L344.103,508.344L348.509,508.344L348.509,515L342.509,515L336.478,512L333.79,504.062L333.79,489.406L327.978,489.406Z" style="fill-rule:nonzero;"/>
                    <path d="M351.011,500.469L351.011,497.281L353.199,489.906L357.918,484.844L363.23,482.156L370.918,482.156L376.23,484.844L378.98,487.687L381.668,492.906L381.668,500.781L357.543,500.781L358.761,504.312L361.761,507.312L364.824,508.906L369.386,508.906L372.324,507.375L375.98,503.812L380.636,508.531L376.23,512.875L370.918,515.562L363.23,515.562L357.918,512.875L353.199,507.844L351.011,500.469ZM358.105,495.094L375.386,495.094L374.574,492.031L372.574,489.719L369.449,488.062L364.636,488.062L361.636,489.656L358.449,493.437L358.105,495.094Z" style="fill-rule:nonzero;"/>
                    <path d="M385.076,515L385.076,482.75L391.732,482.75L391.732,485.375L396.451,482.156L400.232,482.156L406.295,485.25L408.545,491.969L402.357,494.187L400.607,489.969L398.826,488.812L397.045,488.812L391.732,492.906L391.732,515L385.076,515Z" style="fill-rule:nonzero;"/>
                </g>
            </g>
        </g>
        <g transform="matrix(0.571161,0,0,0.571161,484.606,484.2)">
            <g transform="matrix(1,0,0,1,-400,-300)">
                <g transform="matrix(1.75082,0,0,1.75082,-224.132,-654.382)">
                    <path d="M197.75,568.278L197.75,520.653L204.531,520.653L204.531,543.653L227.5,520.653L237.156,520.653L216.094,541.653L236.063,568.278L227.5,568.278L211.25,546.528L204.531,553.184L204.531,568.278L197.75,568.278Z" style="fill-rule:nonzero;"/>
                    <path d="M235.69,557.841L235.69,536.028L242.346,536.028L242.346,556.809L243.815,561.122L246.002,562.184L250.596,562.184L253.877,560.653L258.221,556.809L258.221,536.028L264.94,536.028L264.94,568.278L258.221,568.278L258.221,564.122L256.69,566.153L251.502,568.841L244.409,568.841L238.377,565.778L235.69,557.841Z" style="fill-rule:nonzero;"/>
                    <path d="M269.942,559.559L269.942,520.653L276.598,520.653L276.598,558.153L278.005,560.841L278.786,561.622L283.255,561.622L283.255,568.278L275.973,568.278L272.567,564.872L269.942,559.559Z" style="fill-rule:nonzero;"/>
                    <path d="M282.226,542.684L282.226,536.028L288.038,536.028L288.038,525.716L294.757,525.716L294.757,536.028L302.819,536.028L302.819,542.684L294.757,542.684L294.757,556.247L296.226,560.528L298.351,561.622L302.757,561.622L302.757,568.278L296.757,568.278L290.726,565.278L288.038,557.341L288.038,542.684L282.226,542.684Z" style="fill-rule:nonzero;"/>
                    <path d="M306.853,557.841L306.853,536.028L313.509,536.028L313.509,556.809L314.978,561.122L317.165,562.184L321.759,562.184L325.04,560.653L329.384,556.809L329.384,536.028L336.103,536.028L336.103,568.278L329.384,568.278L329.384,564.122L327.853,566.153L322.665,568.841L315.572,568.841L309.54,565.778L306.853,557.841Z" style="fill-rule:nonzero;"/>
                    <path d="M341.699,568.278L341.699,536.028L348.355,536.028L348.355,538.653L353.074,535.434L356.855,535.434L362.918,538.528L365.168,545.247L358.98,547.466L357.23,543.247L355.449,542.091L353.668,542.091L348.355,546.184L348.355,568.278L341.699,568.278Z" style="fill-rule:nonzero;"/>
                </g>
            </g>
        </g>
        <g transform="matrix(0.571161,0,0,0.571161,484.606,484.2)">
            <g transform="matrix(1,0,0,1,-400,-300)">
                <g transform="matrix(1.75082,0,0,1.75082,-224.132,-654.382)">
                    <path d="M197.75,621.556L197.75,573.931L204.531,573.931L204.531,596.931L227.5,573.931L237.156,573.931L216.094,594.931L236.063,621.556L227.5,621.556L211.25,599.806L204.531,606.463L204.531,621.556L197.75,621.556Z" style="fill-rule:nonzero;"/>
                    <path d="M233.94,607.025L233.94,603.838L236.44,596.463L241.44,591.4L246.815,588.713L253.284,588.713L258.502,591.4L258.502,589.306L265.252,589.306L265.252,611.775L270.034,619.056L264.596,622.838L261.409,618.025L254.815,622.119L246.815,622.119L241.44,619.431L236.44,614.4L233.94,607.025ZM240.596,605.994L242.252,610.869L245.284,613.869L248.346,615.463L253.065,615.463L258.502,612.15L258.502,599.619L255.815,596.931L252.94,595.369L248.284,595.369L245.409,596.931L242.252,599.994L240.596,604.931L240.596,605.994Z" style="fill-rule:nonzero;"/>
                    <rect x="272.848" y="589.306" width="6.719" height="32.25"/>
                    <path d="M283.788,598.275L287.007,591.338L294.601,588.713L299.288,588.713L306.632,591.4L309.726,596.838L303.944,599.525L302.351,596.588L298.194,594.744L295.569,594.744L291.413,596.275L290.819,598.181L291.663,599.869L294.351,601.338L301.444,603.056L306.569,605.744L309.319,610.431L309.319,613.431L306.319,619.431L299.288,622.119L294.601,622.119L286.944,619.431L283.913,613.994L289.944,611.181L291.663,614.338L295.632,616.119L298.194,616.119L301.913,614.588L303.132,612.65L302.226,610.681L299.476,609.275L292.226,607.275L286.788,604.588L283.788,598.275Z" style="fill-rule:nonzero;"/>
                    <path d="M311.447,607.025L311.447,603.838L313.634,596.463L318.353,591.4L323.665,588.713L331.353,588.713L336.665,591.4L339.415,594.244L342.103,599.463L342.103,607.338L317.978,607.338L319.197,610.869L322.197,613.869L325.259,615.463L329.822,615.463L332.759,613.931L336.415,610.369L341.072,615.088L336.665,619.431L331.353,622.119L323.665,622.119L318.353,619.431L313.634,614.4L311.447,607.025ZM318.54,601.65L335.822,601.65L335.009,598.588L333.009,596.275L329.884,594.619L325.072,594.619L322.072,596.213L318.884,599.994L318.54,601.65Z" style="fill-rule:nonzero;"/>
                    <path d="M345.511,621.556L345.511,589.306L352.168,589.306L352.168,591.931L356.886,588.713L360.668,588.713L366.73,591.806L368.98,598.525L362.793,600.744L361.043,596.525L359.261,595.369L357.48,595.369L352.168,599.463L352.168,621.556L345.511,621.556Z" style="fill-rule:nonzero;"/>
                    <path d="M368.264,598.275L371.482,591.338L379.076,588.713L383.764,588.713L391.107,591.4L394.201,596.838L388.42,599.525L386.826,596.588L382.67,594.744L380.045,594.744L375.889,596.275L375.295,598.181L376.139,599.869L378.826,601.338L385.92,603.056L391.045,605.744L393.795,610.431L393.795,613.431L390.795,619.431L383.764,622.119L379.076,622.119L371.42,619.431L368.389,613.994L374.42,611.181L376.139,614.338L380.107,616.119L382.67,616.119L386.389,614.588L387.607,612.65L386.701,610.681L383.951,609.275L376.701,607.275L371.264,604.588L368.264,598.275Z" style="fill-rule:nonzero;"/>
                    <path d="M395.922,607.025L395.922,603.838L398.11,596.463L402.828,591.4L408.141,588.713L415.828,588.713L421.141,591.4L423.891,594.244L426.578,599.463L426.578,607.338L402.453,607.338L403.672,610.869L406.672,613.869L409.735,615.463L414.297,615.463L417.235,613.931L420.891,610.369L425.547,615.088L421.141,619.431L415.828,622.119L408.141,622.119L402.828,619.431L398.11,614.4L395.922,607.025ZM403.016,601.65L420.297,601.65L419.485,598.588L417.485,596.275L414.36,594.619L409.547,594.619L406.547,596.213L403.36,599.994L403.016,601.65Z" style="fill-rule:nonzero;"/>
                    <path d="M428.112,598.275L431.331,591.338L438.924,588.713L443.612,588.713L450.956,591.4L454.049,596.838L448.268,599.525L446.674,596.588L442.518,594.744L439.893,594.744L435.737,596.275L435.143,598.181L435.987,599.869L438.674,601.338L445.768,603.056L450.893,605.744L453.643,610.431L453.643,613.431L450.643,619.431L443.612,622.119L438.924,622.119L431.268,619.431L428.237,613.994L434.268,611.181L435.987,614.338L439.956,616.119L442.518,616.119L446.237,614.588L447.456,612.65L446.549,610.681L443.799,609.275L436.549,607.275L431.112,604.588L428.112,598.275Z" style="fill-rule:nonzero;"/>
                    <path d="M455.77,607.025L455.77,603.838L458.27,596.463L463.27,591.4L468.583,588.713L476.239,588.713L481.552,591.4L486.552,596.4L481.833,601.15L477.645,596.994L474.645,595.369L470.052,595.369L467.177,596.931L464.083,599.994L462.427,604.931L462.427,605.994L464.083,610.869L467.114,613.869L470.177,615.463L474.708,615.463L477.645,613.931L481.958,609.65L486.614,614.4L481.552,619.431L476.239,622.119L468.583,622.119L463.27,619.431L458.27,614.4L455.77,607.025Z" style="fill-rule:nonzero;"/>
                    <path d="M489.773,621.556L489.773,573.931L496.491,573.931L496.491,592.619L498.023,591.4L503.21,588.713L510.304,588.713L516.304,591.806L518.929,599.744L518.929,621.556L512.335,621.556L512.335,600.744L510.866,596.525L508.71,595.369L504.023,595.369L500.835,596.931L496.491,600.806L496.491,621.556L489.773,621.556Z" style="fill-rule:nonzero;"/>
                </g>
            </g>
        </g>
        <g transform="matrix(0.571161,0,0,0.571161,484.606,484.2)">
            <g transform="matrix(1,0,0,1,-400,-300)">
                <g transform="matrix(1.75082,0,0,1.75082,-224.132,-654.382)">
                    <path d="M269.786,578.806L276.161,572.338L282.567,578.806L276.161,585.213L269.786,578.806Z" style="fill-rule:nonzero;"/>
                </g>
            </g>
        </g>
    </g>
</svg>
