<?xml version="1.0" encoding="utf-8"?>
<svg viewBox="0 0 1160 310" version="1.1" xmlns="http://www.w3.org/2000/svg">
  <g style="fill: rgb(82, 211, 233);">
    <path d="M 0.002 19.581 L 0.002 -0.003 L 100.006 -0.003 L 100.006 19.581 L 60.456 19.581 L 60.456 144.185 L 39.735 144.185 L 39.735 19.581 L 0.002 19.581 Z"/>
    <path d="M 105.593 144.185 L 105.593 -0.003 L 125.935 -0.003 L 125.935 56.572 L 130.573 52.885 L 146.277 44.747 L 167.756 44.747 L 185.919 54.114 L 193.869 78.147 L 193.869 144.185 L 173.902 144.185 L 173.902 81.172 L 169.456 68.401 L 162.927 64.901 L 148.735 64.901 L 139.085 69.631 L 125.935 81.364 L 125.935 144.185 L 105.593 144.185 Z"/>
    <path d="M 203.619 100.195 L 203.619 90.545 L 210.244 68.216 L 224.527 52.89 L 240.61 44.753 L 263.885 44.753 L 279.973 52.89 L 288.298 61.499 L 296.435 77.299 L 296.435 101.141 L 223.394 101.141 L 227.081 111.832 L 236.164 120.916 L 245.435 125.741 L 259.252 125.741 L 268.144 121.107 L 279.214 110.32 L 293.31 124.607 L 279.973 137.757 L 263.885 145.895 L 240.61 145.895 L 224.527 137.757 L 210.244 122.524 L 203.619 100.195 Z M 225.098 83.924 L 277.414 83.924 L 274.956 74.649 L 268.902 67.649 L 259.439 62.636 L 244.869 62.636 L 235.785 67.461 L 226.135 78.907 L 225.098 83.924 Z"/>
    <path d="M 300.698 100.19 L 300.698 90.54 L 308.269 68.211 L 323.406 52.886 L 339.677 44.748 L 359.264 44.748 L 375.064 52.886 L 375.064 46.544 L 395.498 46.544 L 395.498 114.573 L 409.973 136.615 L 393.51 148.065 L 383.86 133.494 L 363.898 145.89 L 339.677 145.89 L 323.406 137.752 L 308.269 122.519 L 300.698 100.19 Z M 320.852 97.069 L 325.864 111.827 L 335.044 120.911 L 344.314 125.736 L 358.602 125.736 L 375.064 115.706 L 375.064 77.769 L 366.927 69.631 L 358.223 64.902 L 344.123 64.902 L 335.419 69.631 L 325.864 78.902 L 320.852 93.852 L 320.852 97.069 Z"/>
    <path d="M 405.535 66.702 L 405.535 46.548 L 423.131 46.548 L 423.131 15.327 L 443.473 15.327 L 443.473 46.548 L 467.885 46.548 L 467.885 66.702 L 443.473 66.702 L 443.473 107.765 L 447.923 120.727 L 454.356 124.036 L 467.694 124.036 L 467.694 144.19 L 449.531 144.19 L 431.269 135.106 L 423.131 111.077 L 423.131 66.702 L 405.535 66.702 Z"/>
    <path d="M 475.269 100.195 L 475.269 90.545 L 481.894 68.216 L 496.181 52.89 L 512.265 44.753 L 535.54 44.753 L 551.623 52.89 L 559.948 61.499 L 568.085 77.299 L 568.085 101.141 L 495.044 101.141 L 498.735 111.832 L 507.819 120.916 L 517.09 125.741 L 530.902 125.741 L 539.798 121.107 L 550.865 110.32 L 564.965 124.607 L 551.623 137.757 L 535.54 145.895 L 512.265 145.895 L 496.181 137.757 L 481.894 122.524 L 475.269 100.195 Z M 496.748 83.924 L 549.069 83.924 L 546.606 74.649 L 540.552 67.649 L 531.09 62.636 L 516.523 62.636 L 507.44 67.461 L 497.79 78.907 L 496.748 83.924 Z"/>
    <path d="M 578.406 144.185 L 578.406 46.543 L 598.556 46.543 L 598.556 54.493 L 612.844 44.747 L 624.29 44.747 L 642.648 54.114 L 649.456 74.456 L 630.723 81.172 L 625.427 68.401 L 620.036 64.901 L 614.64 64.901 L 598.556 77.293 L 598.556 144.185 L 578.406 144.185 Z"/>
  </g>
  <g style="fill: rgb(82, 224, 117);">
    <path d="M 652.965 144.185 L 652.965 -0.003 L 673.498 -0.003 L 673.498 69.631 L 743.036 -0.003 L 772.273 -0.003 L 708.502 63.576 L 768.961 144.185 L 743.036 144.185 L 693.84 78.335 L 673.498 98.489 L 673.498 144.185 L 652.965 144.185 Z"/>
    <path d="M 767.831 112.585 L 767.831 46.543 L 787.986 46.543 L 787.986 109.464 L 792.431 122.518 L 799.052 125.735 L 812.961 125.735 L 822.894 121.101 L 836.048 109.464 L 836.048 46.543 L 856.39 46.543 L 856.39 144.185 L 836.048 144.185 L 836.048 131.601 L 831.411 137.751 L 815.706 145.889 L 794.227 145.889 L 775.969 136.614 L 767.831 112.585 Z"/>
    <path d="M 871.532 117.789 L 871.532 -0.003 L 891.686 -0.003 L 891.686 113.531 L 895.944 121.668 L 898.307 124.031 L 911.84 124.031 L 911.84 144.185 L 889.794 144.185 L 879.482 133.872 L 871.532 117.789 Z"/>
    <path d="M 908.723 66.702 L 908.723 46.548 L 926.319 46.548 L 926.319 15.327 L 946.661 15.327 L 946.661 46.548 L 971.073 46.548 L 971.073 66.702 L 946.661 66.702 L 946.661 107.765 L 951.111 120.727 L 957.544 124.036 L 970.882 124.036 L 970.882 144.19 L 952.719 144.19 L 934.457 135.106 L 926.319 111.077 L 926.319 66.702 L 908.723 66.702 Z"/>
    <path d="M 983.286 112.585 L 983.286 46.543 L 1003.436 46.543 L 1003.436 109.464 L 1007.882 122.518 L 1014.507 125.735 L 1028.415 125.735 L 1038.348 121.101 L 1051.498 109.464 L 1051.498 46.543 L 1071.84 46.543 L 1071.84 144.185 L 1051.498 144.185 L 1051.498 131.601 L 1046.865 137.751 L 1031.157 145.889 L 1009.682 145.889 L 991.419 136.614 L 983.286 112.585 Z"/>
    <path d="M 1088.782 144.185 L 1088.782 46.543 L 1108.936 46.543 L 1108.936 54.493 L 1123.223 44.747 L 1134.669 44.747 L 1153.023 54.114 L 1159.836 74.456 L 1141.103 81.172 L 1135.807 68.401 L 1130.411 64.901 L 1125.019 64.901 L 1108.936 77.293 L 1108.936 144.185 L 1088.782 144.185 Z"/>
  </g>
  <g style="fill: rgb(224, 130, 117);">
    <path d="M 93.198 305.491 L 93.198 161.303 L 113.731 161.303 L 113.731 230.936 L 183.269 161.303 L 212.506 161.303 L 148.735 224.882 L 209.194 305.491 L 183.269 305.491 L 134.073 239.64 L 113.731 259.795 L 113.731 305.491 L 93.198 305.491 Z"/>
    <path d="M 202.769 261.495 L 202.769 251.845 L 210.335 229.516 L 225.473 214.191 L 241.748 206.054 L 261.331 206.054 L 277.131 214.191 L 277.131 207.85 L 297.569 207.85 L 297.569 275.879 L 312.044 297.92 L 295.581 309.37 L 285.931 294.8 L 265.969 307.195 L 241.748 307.195 L 225.473 299.058 L 210.335 283.825 L 202.769 261.495 Z M 222.919 258.375 L 227.935 273.133 L 237.11 282.216 L 246.385 287.041 L 260.669 287.041 L 277.131 277.012 L 277.131 239.075 L 268.998 230.937 L 260.289 226.208 L 246.194 226.208 L 237.489 230.937 L 227.935 240.208 L 222.919 255.158 L 222.919 258.375 Z"/>
    <rect x="320.565" y="207.853" width="20.342" height="97.638"/>
    <path d="M 353.685 235.009 L 363.431 214.005 L 386.423 206.059 L 400.615 206.059 L 422.848 214.196 L 432.215 230.659 L 414.71 238.796 L 409.885 229.9 L 397.302 224.317 L 389.356 224.317 L 376.773 228.955 L 374.973 234.725 L 377.531 239.834 L 385.665 244.284 L 407.144 249.488 L 422.66 257.621 L 430.985 271.813 L 430.985 280.896 L 421.902 299.063 L 400.615 307.2 L 386.423 307.2 L 363.244 299.063 L 354.064 282.6 L 372.327 274.084 L 377.531 283.642 L 389.544 289.034 L 397.302 289.034 L 408.56 284.396 L 412.252 278.534 L 409.51 272.571 L 401.181 268.313 L 379.231 262.259 L 362.769 254.121 L 353.685 235.009 Z"/>
    <path d="M 437.427 261.5 L 437.427 251.85 L 444.048 229.521 L 458.335 214.196 L 474.419 206.059 L 497.694 206.059 L 513.777 214.196 L 522.102 222.805 L 530.24 238.605 L 530.24 262.446 L 457.198 262.446 L 460.89 273.138 L 469.973 282.221 L 479.244 287.046 L 493.056 287.046 L 501.952 282.413 L 513.019 271.625 L 527.119 285.913 L 513.777 299.063 L 497.694 307.2 L 474.419 307.2 L 458.335 299.063 L 444.048 283.83 L 437.427 261.5 Z M 458.902 245.23 L 511.223 245.23 L 508.765 235.955 L 502.706 228.955 L 493.248 223.942 L 478.677 223.942 L 469.594 228.767 L 459.944 240.213 L 458.902 245.23 Z"/>
    <path d="M 540.56 305.49 L 540.56 207.849 L 560.71 207.849 L 560.71 215.799 L 574.998 206.053 L 586.448 206.053 L 604.802 215.42 L 611.615 235.761 L 592.881 242.478 L 587.581 229.707 L 582.19 226.207 L 576.798 226.207 L 560.71 238.599 L 560.71 305.49 L 540.56 305.49 Z"/>
    <path d="M 609.444 235.009 L 619.19 214.005 L 642.181 206.059 L 656.373 206.059 L 678.606 214.196 L 687.973 230.659 L 670.469 238.796 L 665.644 229.9 L 653.061 224.317 L 645.115 224.317 L 632.531 228.955 L 630.731 234.725 L 633.286 239.834 L 641.423 244.284 L 662.898 249.488 L 678.415 257.621 L 686.744 271.813 L 686.744 280.896 L 677.661 299.063 L 656.373 307.2 L 642.181 307.2 L 618.998 299.063 L 609.823 282.6 L 628.081 274.084 L 633.286 283.642 L 645.302 289.034 L 653.061 289.034 L 664.319 284.396 L 668.011 278.534 L 665.265 272.571 L 656.94 268.313 L 634.99 262.259 L 618.527 254.121 L 609.444 235.009 Z"/>
    <path d="M 693.181 261.5 L 693.181 251.85 L 699.806 229.521 L 714.094 214.196 L 730.177 206.059 L 753.452 206.059 L 769.536 214.196 L 777.861 222.805 L 785.998 238.605 L 785.998 262.446 L 712.956 262.446 L 716.648 273.138 L 725.727 282.221 L 735.002 287.046 L 748.815 287.046 L 757.706 282.413 L 768.777 271.625 L 782.873 285.913 L 769.536 299.063 L 753.452 307.2 L 730.177 307.2 L 714.094 299.063 L 699.806 283.83 L 693.181 261.5 Z M 714.661 245.23 L 766.981 245.23 L 764.519 235.955 L 758.465 228.955 L 749.002 223.942 L 734.431 223.942 L 725.352 228.767 L 715.702 240.213 L 714.661 245.23 Z"/>
    <path d="M 790.64 235.009 L 800.386 214.005 L 823.377 206.059 L 837.569 206.059 L 859.802 214.196 L 869.169 230.659 L 851.665 238.796 L 846.84 229.9 L 834.257 224.317 L 826.311 224.317 L 813.727 228.955 L 811.927 234.725 L 814.481 239.834 L 822.619 244.284 L 844.094 249.488 L 859.611 257.621 L 867.94 271.813 L 867.94 280.896 L 858.857 299.063 L 837.569 307.2 L 823.377 307.2 L 800.194 299.063 L 791.019 282.6 L 809.277 274.084 L 814.481 283.642 L 826.498 289.034 L 834.257 289.034 L 845.515 284.396 L 849.207 278.534 L 846.461 272.571 L 838.136 268.313 L 816.186 262.259 L 799.723 254.121 L 790.64 235.009 Z"/>
    <path d="M 874.377 261.5 L 874.377 251.85 L 881.948 229.521 L 897.086 214.196 L 913.169 206.059 L 936.348 206.059 L 952.432 214.196 L 967.573 229.334 L 953.286 243.713 L 940.607 231.13 L 931.523 226.213 L 917.615 226.213 L 908.911 230.942 L 899.544 240.213 L 894.532 255.163 L 894.532 258.38 L 899.544 273.138 L 908.723 282.221 L 917.994 287.046 L 931.715 287.046 L 940.607 282.413 L 953.665 269.45 L 967.761 283.83 L 952.432 299.063 L 936.348 307.2 L 913.169 307.2 L 897.086 299.063 L 881.948 283.83 L 874.377 261.5 Z"/>
    <path d="M 977.323 305.491 L 977.323 161.303 L 997.665 161.303 L 997.665 217.878 L 1002.302 214.19 L 1018.007 206.053 L 1039.482 206.053 L 1057.648 215.42 L 1065.598 239.453 L 1065.598 305.491 L 1045.632 305.491 L 1045.632 242.478 L 1041.186 229.707 L 1034.657 226.207 L 1020.465 226.207 L 1010.815 230.936 L 997.665 242.67 L 997.665 305.491 L 977.323 305.491 Z"/>
  </g>
  <g style="fill: rgb(82, 106, 224);">
    <path d="M 311.291 176.068 L 330.591 156.484 L 349.988 176.068 L 330.592 195.464 L 311.291 176.068 Z"/>
  </g>
</svg>
