<?xml version="1.0" encoding="utf-8"?>
<svg viewBox="0 0 2177 156" version="1.1" style="fill-rule:evenodd;clip-rule:evenodd;stroke-linejoin:round;stroke-miterlimit:2;" xmlns="http://www.w3.org/2000/svg">
  <g transform="matrix(4.16667, 0, 0, 4.16667, -665.84198, -1329.030029)">
    <path d="M 159.802 325.352 L 159.802 320.647 L 183.823 320.647 L 183.823 325.352 L 174.323 325.352 L 174.323 355.281 L 169.346 355.281 L 169.346 325.352 L 159.802 325.352 Z" style="fill:rgb(31,32,52);fill-rule:nonzero;"/>
    <path d="M185.165,355.281L185.165,320.647L190.051,320.647L190.051,334.237L191.165,333.351L194.937,331.397L200.096,331.397L204.459,333.647L206.368,339.419L206.368,355.281L201.573,355.281L201.573,340.146L200.505,337.078L198.937,336.237L195.528,336.237L193.21,337.374L190.051,340.192L190.051,355.281L185.165,355.281Z" style="fill:rgb(31,32,52);fill-rule:nonzero;"/>
    <path d="M 208.711 344.715 L 208.711 342.397 L 210.302 337.034 L 213.733 333.352 L 217.596 331.398 L 223.187 331.398 L 227.05 333.352 L 229.05 335.42 L 231.005 339.215 L 231.005 344.942 L 213.46 344.942 L 214.347 347.51 L 216.528 349.692 L 218.755 350.851 L 222.073 350.851 L 224.21 349.737 L 226.869 347.147 L 230.255 350.578 L 227.05 353.737 L 223.187 355.691 L 217.596 355.691 L 213.733 353.737 L 210.302 350.078 L 208.711 344.715 Z M 213.869 340.806 L 226.437 340.806 L 225.846 338.579 L 224.391 336.897 L 222.119 335.693 L 218.619 335.693 L 216.437 336.852 L 214.119 339.602 L 213.869 340.806 Z" style="fill:rgb(31,32,52);fill-rule:nonzero;"/>
    <path d="M 232.029 344.715 L 232.029 342.397 L 233.847 337.034 L 237.483 333.352 L 241.392 331.398 L 246.096 331.398 L 249.891 333.352 L 249.891 331.829 L 254.8 331.829 L 254.8 348.169 L 258.277 353.464 L 254.323 356.214 L 252.005 352.714 L 247.21 355.691 L 241.392 355.691 L 237.483 353.737 L 233.847 350.078 L 232.029 344.715 Z M 236.87 343.965 L 238.074 347.51 L 240.278 349.692 L 242.506 350.851 L 245.937 350.851 L 249.891 348.442 L 249.891 339.329 L 247.937 337.375 L 245.846 336.238 L 242.46 336.238 L 240.369 337.375 L 238.074 339.602 L 236.87 343.192 L 236.87 343.965 Z" style="fill:rgb(31,32,52);fill-rule:nonzero;"/>
    <path d="M 257.211 336.671 L 257.211 331.83 L 261.438 331.83 L 261.438 324.331 L 266.324 324.331 L 266.324 331.83 L 272.187 331.83 L 272.187 336.671 L 266.324 336.671 L 266.324 346.534 L 267.392 349.647 L 268.937 350.443 L 272.142 350.443 L 272.142 355.283 L 267.778 355.283 L 263.392 353.102 L 261.438 347.329 L 261.438 336.671 L 257.211 336.671 Z" style="fill:rgb(31,32,52);fill-rule:nonzero;"/>
    <path d="M 273.961 344.715 L 273.961 342.397 L 275.552 337.034 L 278.984 333.352 L 282.847 331.398 L 288.438 331.398 L 292.301 333.352 L 294.301 335.42 L 296.255 339.215 L 296.255 344.942 L 278.711 344.942 L 279.597 347.51 L 281.779 349.692 L 284.006 350.851 L 287.324 350.851 L 289.46 349.737 L 292.119 347.147 L 295.505 350.578 L 292.301 353.737 L 288.438 355.691 L 282.847 355.691 L 278.984 353.737 L 275.552 350.078 L 273.961 344.715 Z M 279.12 340.806 L 291.687 340.806 L 291.096 338.579 L 289.642 336.897 L 287.369 335.693 L 283.87 335.693 L 281.688 336.852 L 279.37 339.602 L 279.12 340.806 Z" style="fill:rgb(31,32,52);fill-rule:nonzero;"/>
    <path d="M 298.734 355.283 L 298.734 331.83 L 303.574 331.83 L 303.574 333.739 L 307.006 331.399 L 309.756 331.399 L 314.165 333.649 L 315.801 338.535 L 311.301 340.148 L 310.029 337.08 L 308.733 336.239 L 307.438 336.239 L 303.574 339.216 L 303.574 355.283 L 298.734 355.283 Z" style="fill:rgb(31,32,52);fill-rule:nonzero;"/>
  </g>
  <g transform="matrix(4.16667, 0, 0, 4.16667, -665.84198, -1329.030029)">
    <path d="M 316.643 355.281 L 316.643 320.647 L 321.575 320.647 L 321.575 337.374 L 338.278 320.647 L 345.301 320.647 L 329.983 335.919 L 344.505 355.281 L 338.278 355.281 L 326.461 339.464 L 321.575 344.305 L 321.575 355.281 L 316.643 355.281 Z" style="fill:rgb(31,32,52);fill-rule:nonzero;"/>
    <path d="M 344.234 347.693 L 344.234 331.83 L 349.075 331.83 L 349.075 346.943 L 350.143 350.079 L 351.734 350.852 L 355.074 350.852 L 357.46 349.738 L 360.619 346.943 L 360.619 331.83 L 365.505 331.83 L 365.505 355.283 L 360.619 355.283 L 360.619 352.261 L 359.506 353.738 L 355.733 355.692 L 350.575 355.692 L 346.189 353.465 L 344.234 347.693 Z" style="fill:rgb(31,32,52);fill-rule:nonzero;"/>
    <path d="M 369.143 348.941 L 369.143 320.647 L 373.984 320.647 L 373.984 347.918 L 375.006 349.873 L 375.575 350.441 L 378.824 350.441 L 378.824 355.281 L 373.529 355.281 L 371.052 352.804 L 369.143 348.941 Z" style="fill:rgb(31,32,52);fill-rule:nonzero;"/>
    <path d="M 378.076 336.671 L 378.076 331.83 L 382.303 331.83 L 382.303 324.331 L 387.189 324.331 L 387.189 331.83 L 393.052 331.83 L 393.052 336.671 L 387.189 336.671 L 387.189 346.534 L 388.257 349.647 L 389.802 350.443 L 393.007 350.443 L 393.007 355.283 L 388.643 355.283 L 384.257 353.102 L 382.303 347.329 L 382.303 336.671 L 378.076 336.671 Z" style="fill:rgb(31,32,52);fill-rule:nonzero;"/>
    <path d="M 395.986 347.693 L 395.986 331.83 L 400.826 331.83 L 400.826 346.943 L 401.894 350.079 L 403.485 350.852 L 406.826 350.852 L 409.212 349.738 L 412.371 346.943 L 412.371 331.83 L 417.257 331.83 L 417.257 355.283 L 412.371 355.283 L 412.371 352.261 L 411.257 353.738 L 407.485 355.692 L 402.326 355.692 L 397.94 353.465 L 395.986 347.693 Z" style="fill:rgb(31,32,52);fill-rule:nonzero;"/>
    <path d="M 421.326 355.283 L 421.326 331.83 L 426.167 331.83 L 426.167 333.739 L 429.599 331.399 L 432.348 331.399 L 436.757 333.649 L 438.393 338.535 L 433.894 340.148 L 432.621 337.08 L 431.326 336.239 L 430.03 336.239 L 426.167 339.216 L 426.167 355.283 L 421.326 355.283 Z" style="fill:rgb(31,32,52);fill-rule:nonzero;"/>
  </g>
  <g transform="matrix(4.16667,0,0,4.16667,-665.842,-1333.38)">
    <path d="M448.519,355.803L448.519,321.169L453.451,321.169L453.451,337.895L470.154,321.169L477.176,321.169L461.859,336.44L476.381,355.803L470.154,355.803L458.337,339.986L453.451,344.826L453.451,355.803L448.519,355.803Z" style="fill:rgb(31,32,52);fill-rule:nonzero;"/>
    <path d="M 474.837 345.236 L 474.837 342.918 L 476.655 337.555 L 480.292 333.873 L 484.2 331.919 L 488.905 331.919 L 492.7 333.873 L 492.7 332.351 L 497.609 332.351 L 497.609 348.691 L 501.086 353.986 L 497.131 356.735 L 494.813 353.236 L 490.018 356.213 L 484.2 356.213 L 480.292 354.258 L 476.655 350.6 L 474.837 345.236 Z M 479.678 344.486 L 480.882 348.032 L 483.087 350.213 L 485.314 351.372 L 488.746 351.372 L 492.7 348.963 L 492.7 339.85 L 490.745 337.896 L 488.655 336.76 L 485.268 336.76 L 483.178 337.896 L 480.882 340.123 L 479.678 343.714 L 479.678 344.486 Z" style="fill:rgb(31,32,52);fill-rule:nonzero;"/>
    <rect x="503.133" y="332.351" width="4.886" height="23.453" style="fill:rgb(31,32,52);"/>
    <path d="M 511.088 338.874 L 513.429 333.829 L 518.951 331.92 L 522.36 331.92 L 527.701 333.874 L 529.951 337.829 L 525.746 339.783 L 524.587 337.647 L 521.565 336.306 L 519.656 336.306 L 516.633 337.42 L 516.201 338.806 L 516.815 340.033 L 518.77 341.101 L 523.928 342.351 L 527.655 344.305 L 529.655 347.714 L 529.655 349.896 L 527.473 354.259 L 522.36 356.214 L 518.951 356.214 L 513.384 354.259 L 511.179 350.305 L 515.565 348.26 L 516.815 350.555 L 519.701 351.85 L 521.565 351.85 L 524.269 350.737 L 525.155 349.328 L 524.496 347.896 L 522.497 346.874 L 517.224 345.419 L 513.27 343.465 L 511.088 338.874 Z" style="fill:rgb(31,32,52);fill-rule:nonzero;"/>
    <path d="M 531.202 345.237 L 531.202 342.919 L 532.793 337.556 L 536.225 333.874 L 540.088 331.92 L 545.678 331.92 L 549.542 333.874 L 551.542 335.942 L 553.496 339.738 L 553.496 345.465 L 535.952 345.465 L 536.838 348.033 L 539.02 350.214 L 541.247 351.373 L 544.565 351.373 L 546.701 350.26 L 549.36 347.669 L 552.746 351.1 L 549.542 354.259 L 545.678 356.214 L 540.088 356.214 L 536.225 354.259 L 532.793 350.601 L 531.202 345.237 Z M 536.361 341.328 L 548.928 341.328 L 548.337 339.101 L 546.883 337.42 L 544.61 336.215 L 541.111 336.215 L 538.929 337.374 L 536.611 340.124 L 536.361 341.328 Z" style="fill:rgb(31,32,52);fill-rule:nonzero;"/>
    <path d="M 555.975 355.804 L 555.975 332.351 L 560.815 332.351 L 560.815 334.26 L 564.247 331.919 L 566.997 331.919 L 571.406 334.169 L 573.042 339.055 L 568.542 340.668 L 567.27 337.6 L 565.974 336.76 L 564.679 336.76 L 560.815 339.737 L 560.815 355.804 L 555.975 355.804 Z" style="fill:rgb(31,32,52);fill-rule:nonzero;"/>
    <path d="M 572.521 338.874 L 574.862 333.829 L 580.384 331.92 L 583.793 331.92 L 589.133 333.874 L 591.383 337.829 L 587.179 339.783 L 586.02 337.647 L 582.997 336.306 L 581.088 336.306 L 578.066 337.42 L 577.634 338.806 L 578.248 340.033 L 580.202 341.101 L 585.361 342.351 L 589.088 344.305 L 591.088 347.714 L 591.088 349.896 L 588.906 354.259 L 583.793 356.214 L 580.384 356.214 L 574.816 354.259 L 572.612 350.305 L 576.998 348.26 L 578.248 350.555 L 581.134 351.85 L 582.997 351.85 L 585.702 350.737 L 586.588 349.328 L 585.929 347.896 L 583.929 346.874 L 578.657 345.419 L 574.702 343.465 L 572.521 338.874 Z" style="fill:rgb(31,32,52);fill-rule:nonzero;"/>
    <path d="M 592.635 345.237 L 592.635 342.919 L 594.226 337.556 L 597.657 333.874 L 601.52 331.92 L 607.111 331.92 L 610.974 333.874 L 612.974 335.942 L 614.929 339.738 L 614.929 345.465 L 597.384 345.465 L 598.271 348.033 L 600.452 350.214 L 602.679 351.373 L 605.997 351.373 L 608.134 350.26 L 610.793 347.669 L 614.179 351.1 L 610.974 354.259 L 607.111 356.214 L 601.52 356.214 L 597.657 354.259 L 594.226 350.601 L 592.635 345.237 Z M 597.793 341.328 L 610.361 341.328 L 609.77 339.101 L 608.315 337.42 L 606.043 336.215 L 602.543 336.215 L 600.361 337.374 L 598.043 340.124 L 597.793 341.328 Z" style="fill:rgb(31,32,52);fill-rule:nonzero;"/>
    <path d="M 616.044 338.874 L 618.385 333.829 L 623.907 331.92 L 627.316 331.92 L 632.656 333.874 L 634.906 337.829 L 630.702 339.783 L 629.543 337.647 L 626.52 336.306 L 624.611 336.306 L 621.589 337.42 L 621.157 338.806 L 621.771 340.033 L 623.725 341.101 L 628.884 342.351 L 632.611 344.305 L 634.611 347.714 L 634.611 349.896 L 632.429 354.259 L 627.316 356.214 L 623.907 356.214 L 618.339 354.259 L 616.135 350.305 L 620.521 348.26 L 621.771 350.555 L 624.657 351.85 L 626.52 351.85 L 629.225 350.737 L 630.111 349.328 L 629.452 347.896 L 627.452 346.874 L 622.18 345.419 L 618.226 343.465 L 616.044 338.874 Z" style="fill:rgb(31,32,52);fill-rule:nonzero;"/>
    <path d="M 636.158 345.237 L 636.158 342.919 L 637.976 337.556 L 641.612 333.874 L 645.475 331.92 L 651.043 331.92 L 654.907 333.874 L 658.543 337.511 L 655.111 340.965 L 652.066 337.942 L 649.884 336.761 L 646.543 336.761 L 644.453 337.897 L 642.203 340.124 L 640.998 343.715 L 640.998 344.487 L 642.203 348.033 L 644.407 350.214 L 646.634 351.373 L 649.93 351.373 L 652.066 350.26 L 655.202 347.146 L 658.588 350.601 L 654.907 354.259 L 651.043 356.214 L 645.475 356.214 L 641.612 354.259 L 637.976 350.601 L 636.158 345.237 Z" style="fill:rgb(31,32,52);fill-rule:nonzero;"/>
    <path d="M 660.885 355.803 L 660.885 321.169 L 665.771 321.169 L 665.771 334.759 L 666.885 333.872 L 670.657 331.918 L 675.816 331.918 L 680.179 334.168 L 682.088 339.94 L 682.088 355.803 L 677.293 355.803 L 677.293 340.667 L 676.225 337.599 L 674.657 336.759 L 671.248 336.759 L 668.93 337.895 L 665.771 340.713 L 665.771 355.803 L 660.885 355.803 Z" style="fill:rgb(31,32,52);fill-rule:nonzero;"/>
  </g>
  <g transform="matrix(2.92475,-2.96765,-2.96765,-2.92475,1007.46,2550.14)">
    <path d="M502.274,355.575L508.879,355.575L508.799,348.955L502.21,349.003L502.274,355.575Z" style="fill:rgb(31,32,52);fill-rule:nonzero;"/>
  </g>
</svg>
