<?xml version="1.0" encoding="UTF-8" standalone="no"?>
<!DOCTYPE svg PUBLIC "-//W3C//DTD SVG 1.1//EN" "http://www.w3.org/Graphics/SVG/1.1/DTD/svg11.dtd">
<svg viewBox="0 0 1160 310" version="1.1" xmlns="http://www.w3.org/2000/svg" xmlns:xlink="http://www.w3.org/1999/xlink" xml:space="preserve" style="fill-rule:evenodd;clip-rule:evenodd;stroke-linejoin:round;stroke-miterlimit:2;">
    <g transform="matrix(4.16667,0,0,4.16667,-1174.02,-1752.85)">
        <path d="M281.765,425.383L281.765,420.683L305.766,420.683L305.766,425.383L296.274,425.383L296.274,455.288L291.301,455.288L291.301,425.383L281.765,425.383Z" style="fill:rgb(31,32,52);fill-rule:nonzero;"/>
    </g>
    <g transform="matrix(4.16667,0,0,4.16667,-1174.02,-1752.85)">
        <path d="M307.107,455.288L307.107,420.683L311.989,420.683L311.989,434.261L313.102,433.376L316.871,431.423L322.026,431.423L326.385,433.671L328.293,439.439L328.293,455.288L323.501,455.288L323.501,440.165L322.434,437.1L320.867,436.26L317.461,436.26L315.145,437.395L311.989,440.211L311.989,455.288L307.107,455.288Z" style="fill:rgb(31,32,52);fill-rule:nonzero;"/>
    </g>
    <g transform="matrix(4.16667,0,0,4.16667,-1174.02,-1706.39)">
        <path d="M330.633,433.58L330.633,431.264L332.223,425.905L335.651,422.227L339.511,420.274L345.097,420.274L348.958,422.227L350.956,424.293L352.909,428.085L352.909,433.807L335.379,433.807L336.264,436.373L338.444,438.553L340.669,439.711L343.985,439.711L346.119,438.599L348.776,436.01L352.159,439.439L348.958,442.595L345.097,444.548L339.511,444.548L335.651,442.595L332.223,438.939L330.633,433.58ZM335.788,429.675L348.344,429.675L347.754,427.449L346.301,425.769L344.03,424.566L340.533,424.566L338.353,425.724L336.037,428.471L335.788,429.675Z" style="fill:rgb(31,32,52);fill-rule:nonzero;"/>
    </g>
    <g transform="matrix(4.16667,0,0,4.16667,-1174.02,-1704.22)">
        <path d="M353.932,433.058L353.932,430.742L355.749,425.383L359.382,421.705L363.287,419.752L367.988,419.752L371.78,421.705L371.78,420.183L376.684,420.183L376.684,436.51L380.158,441.8L376.207,444.548L373.891,441.051L369.1,444.026L363.287,444.026L359.382,442.073L355.749,438.417L353.932,433.058ZM358.769,432.309L359.972,435.851L362.175,438.031L364.4,439.189L367.829,439.189L371.78,436.782L371.78,427.677L369.827,425.724L367.738,424.589L364.354,424.589L362.265,425.724L359.972,427.949L358.769,431.537L358.769,432.309Z" style="fill:rgb(31,32,52);fill-rule:nonzero;"/>
    </g>
    <g transform="matrix(4.16667,0,0,4.16667,-1174.02,-1737.52)">
        <path d="M379.093,433.013L379.093,428.176L383.316,428.176L383.316,420.683L388.198,420.683L388.198,428.176L394.057,428.176L394.057,433.013L388.198,433.013L388.198,442.868L389.266,445.979L390.81,446.773L394.011,446.773L394.011,451.61L389.652,451.61L385.269,449.43L383.316,443.663L383.316,433.013L379.093,433.013Z" style="fill:rgb(31,32,52);fill-rule:nonzero;"/>
    </g>
    <g transform="matrix(4.16667,0,0,4.16667,-1174.02,-1706.39)">
        <path d="M395.829,433.58L395.829,431.264L397.419,425.905L400.848,422.227L404.708,420.274L410.294,420.274L414.154,422.227L416.152,424.293L418.105,428.085L418.105,433.807L400.575,433.807L401.461,436.373L403.641,438.553L405.866,439.711L409.181,439.711L411.316,438.599L413.972,436.01L417.356,439.439L414.154,442.595L410.294,444.548L404.708,444.548L400.848,442.595L397.419,438.939L395.829,433.58ZM400.984,429.675L413.541,429.675L412.95,427.449L411.497,425.769L409.226,424.566L405.73,424.566L403.55,425.724L401.234,428.471L400.984,429.675Z" style="fill:rgb(31,32,52);fill-rule:nonzero;"/>
    </g>
    <g transform="matrix(4.16667,0,0,4.16667,-1174.02,-1708.1)">
        <path d="M420.582,444.548L420.582,421.114L425.418,421.114L425.418,423.022L428.847,420.683L431.594,420.683L436,422.931L437.634,427.813L433.138,429.425L431.867,426.36L430.573,425.52L429.278,425.52L425.418,428.494L425.418,444.548L420.582,444.548Z" style="fill:rgb(31,32,52);fill-rule:nonzero;"/>
    </g>
    <g transform="matrix(4.16667,0,0,4.16667,-1174.02,-1752.85)">
        <path d="M438.476,455.288L438.476,420.683L443.404,420.683L443.404,437.395L460.093,420.683L467.11,420.683L451.805,435.942L466.315,455.288L460.093,455.288L448.286,439.484L443.404,444.321L443.404,455.288L438.476,455.288Z" style="fill:rgb(31,32,52);fill-rule:nonzero;"/>
    </g>
    <g transform="matrix(4.16667,0,0,4.16667,-1174.02,-1704.6)">
        <path d="M466.044,436.124L466.044,420.274L470.881,420.274L470.881,435.375L471.948,438.508L473.537,439.28L476.875,439.28L479.259,438.168L482.416,435.375L482.416,420.274L487.298,420.274L487.298,443.708L482.416,443.708L482.416,440.688L481.303,442.164L477.534,444.117L472.379,444.117L467.997,441.891L466.044,436.124Z" style="fill:rgb(31,32,52);fill-rule:nonzero;"/>
    </g>
    <g transform="matrix(4.16667,0,0,4.16667,-1174.02,-1752.85)">
        <path d="M490.932,448.953L490.932,420.683L495.769,420.683L495.769,447.931L496.791,449.884L497.358,450.451L500.606,450.451L500.606,455.288L495.315,455.288L492.84,452.813L490.932,448.953Z" style="fill:rgb(31,32,52);fill-rule:nonzero;"/>
    </g>
    <g transform="matrix(4.16667,0,0,4.16667,-1174.02,-1737.52)">
        <path d="M499.858,433.013L499.858,428.176L504.081,428.176L504.081,420.683L508.963,420.683L508.963,428.176L514.822,428.176L514.822,433.013L508.963,433.013L508.963,442.868L510.031,445.979L511.575,446.773L514.776,446.773L514.776,451.61L510.417,451.61L506.034,449.43L504.081,443.663L504.081,433.013L499.858,433.013Z" style="fill:rgb(31,32,52);fill-rule:nonzero;"/>
    </g>
    <g transform="matrix(4.16667,0,0,4.16667,-1174.02,-1704.6)">
        <path d="M517.753,436.124L517.753,420.274L522.589,420.274L522.589,435.375L523.656,438.508L525.246,439.28L528.584,439.28L530.968,438.168L534.124,435.375L534.124,420.274L539.006,420.274L539.006,443.708L534.124,443.708L534.124,440.688L533.012,442.164L529.242,444.117L524.088,444.117L519.705,441.891L517.753,436.124Z" style="fill:rgb(31,32,52);fill-rule:nonzero;"/>
    </g>
    <g transform="matrix(4.16667,0,0,4.16667,-1174.02,-1708.1)">
        <path d="M543.072,444.548L543.072,421.114L547.909,421.114L547.909,423.022L551.338,420.683L554.085,420.683L558.49,422.931L560.125,427.813L555.629,429.425L554.358,426.36L553.063,425.52L551.769,425.52L547.909,428.494L547.909,444.548L543.072,444.548Z" style="fill:rgb(31,32,52);fill-rule:nonzero;"/>
    </g>
    <g transform="matrix(4.16667,0,0,4.16667,-1174.02,-1430.24)">
        <path d="M304.132,416.575L304.132,381.97L309.06,381.97L309.06,398.682L325.749,381.97L332.766,381.97L317.461,397.229L331.971,416.575L325.749,416.575L313.942,400.771L309.06,405.608L309.06,416.575L304.132,416.575Z" style="fill:rgb(31,32,52);fill-rule:nonzero;"/>
    </g>
    <g transform="matrix(4.16667,0,0,4.16667,-1174.02,-1381.61)">
        <path d="M330.429,394.345L330.429,392.029L332.245,386.67L335.878,382.992L339.784,381.039L344.484,381.039L348.276,382.992L348.276,381.47L353.181,381.47L353.181,397.797L356.655,403.087L352.704,405.835L350.388,402.338L345.597,405.313L339.784,405.313L335.878,403.36L332.245,399.704L330.429,394.345ZM335.265,393.596L336.469,397.138L338.671,399.318L340.897,400.476L344.325,400.476L348.276,398.069L348.276,388.964L346.324,387.011L344.234,385.876L340.851,385.876L338.762,387.011L336.469,389.236L335.265,392.824L335.265,393.596Z" style="fill:rgb(31,32,52);fill-rule:nonzero;"/>
    </g>
    <g transform="matrix(4.16667,0,0,4.16667,-1174.02,-1383.69)">
        <rect x="358.7" y="381.97" width="4.882" height="23.433" style="fill:rgb(31,32,52);"/>
    </g>
    <g transform="matrix(2.92473,-2.96767,-2.96767,-2.92473,500.277,2455.73)">
        <path d="M357.843,416.347L364.442,416.347L364.362,409.732L357.779,409.78L357.843,416.347Z" style="fill:rgb(31,32,52);fill-rule:nonzero;"/>
    </g>
    <g transform="matrix(4.16667,0,0,4.16667,-1174.02,-1383.78)">
        <path d="M366.649,388.509L368.988,383.468L374.506,381.561L377.912,381.561L383.248,383.514L385.496,387.465L381.295,389.418L380.137,387.283L377.117,385.943L375.21,385.943L372.19,387.056L371.758,388.441L372.372,389.667L374.324,390.735L379.479,391.984L383.203,393.936L385.201,397.342L385.201,399.522L383.021,403.882L377.912,405.835L374.506,405.835L368.943,403.882L366.74,399.931L371.123,397.887L372.372,400.181L375.255,401.475L377.117,401.475L379.819,400.362L380.705,398.955L380.047,397.524L378.048,396.502L372.78,395.049L368.829,393.096L366.649,388.509Z" style="fill:rgb(31,32,52);fill-rule:nonzero;"/>
    </g>
    <g transform="matrix(4.16667,0,0,4.16667,-1174.02,-1383.78)">
        <path d="M386.747,394.867L386.747,392.551L388.336,387.192L391.765,383.514L395.625,381.561L401.211,381.561L405.071,383.514L407.069,385.58L409.022,389.372L409.022,395.094L391.492,395.094L392.378,397.66L394.558,399.84L396.783,400.998L400.098,400.998L402.233,399.886L404.889,397.297L408.273,400.726L405.071,403.882L401.211,405.835L395.625,405.835L391.765,403.882L388.336,400.226L386.747,394.867ZM391.901,390.962L404.458,390.962L403.868,388.736L402.414,387.056L400.144,385.853L396.647,385.853L394.467,387.011L392.151,389.758L391.901,390.962Z" style="fill:rgb(31,32,52);fill-rule:nonzero;"/>
    </g>
    <g transform="matrix(4.16667,0,0,4.16667,-1174.02,-1385.49)">
        <path d="M411.499,405.835L411.499,382.401L416.335,382.401L416.335,384.309L419.764,381.97L422.512,381.97L426.917,384.218L428.552,389.1L424.056,390.712L422.784,387.647L421.49,386.807L420.196,386.807L416.335,389.781L416.335,405.835L411.499,405.835Z" style="fill:rgb(31,32,52);fill-rule:nonzero;"/>
    </g>
    <g transform="matrix(4.16667,0,0,4.16667,-1174.02,-1383.78)">
        <path d="M428.031,388.509L430.37,383.468L435.888,381.561L439.294,381.561L444.63,383.514L446.878,387.465L442.677,389.418L441.519,387.283L438.499,385.943L436.592,385.943L433.572,387.056L433.14,388.441L433.753,389.667L435.706,390.735L440.86,391.984L444.584,393.936L446.583,397.342L446.583,399.522L444.403,403.882L439.294,405.835L435.888,405.835L430.324,403.882L428.122,399.931L432.504,397.887L433.753,400.181L436.637,401.475L438.499,401.475L441.201,400.362L442.087,398.955L441.428,397.524L439.43,396.502L434.162,395.049L430.211,393.096L428.031,388.509Z" style="fill:rgb(31,32,52);fill-rule:nonzero;"/>
    </g>
    <g transform="matrix(4.16667,0,0,4.16667,-1174.02,-1383.78)">
        <path d="M448.128,394.867L448.128,392.551L449.718,387.192L453.147,383.514L457.007,381.561L462.593,381.561L466.453,383.514L468.451,385.58L470.404,389.372L470.404,395.094L452.874,395.094L453.76,397.66L455.939,399.84L458.165,400.998L461.48,400.998L463.614,399.886L466.271,397.297L469.654,400.726L466.453,403.882L462.593,405.835L457.007,405.835L453.147,403.882L449.718,400.226L448.128,394.867ZM453.283,390.962L465.84,390.962L465.249,388.736L463.796,387.056L461.525,385.853L458.028,385.853L455.849,387.011L453.533,389.758L453.283,390.962Z" style="fill:rgb(31,32,52);fill-rule:nonzero;"/>
    </g>
    <g transform="matrix(4.16667,0,0,4.16667,-1174.02,-1383.78)">
        <path d="M471.518,388.509L473.857,383.468L479.375,381.561L482.781,381.561L488.117,383.514L490.365,387.465L486.164,389.418L485.006,387.283L481.986,385.943L480.079,385.943L477.059,387.056L476.627,388.441L477.24,389.667L479.193,390.735L484.347,391.984L488.071,393.936L490.07,397.342L490.07,399.522L487.89,403.882L482.781,405.835L479.375,405.835L473.811,403.882L471.609,399.931L475.991,397.887L477.24,400.181L480.124,401.475L481.986,401.475L484.688,400.362L485.574,398.955L484.915,397.524L482.917,396.502L477.649,395.049L473.698,393.096L471.518,388.509Z" style="fill:rgb(31,32,52);fill-rule:nonzero;"/>
    </g>
    <g transform="matrix(4.16667,0,0,4.16667,-1174.02,-1383.78)">
        <path d="M491.615,394.867L491.615,392.551L493.432,387.192L497.065,383.514L500.925,381.561L506.488,381.561L510.348,383.514L513.982,387.147L510.553,390.598L507.51,387.578L505.33,386.398L501.992,386.398L499.903,387.533L497.655,389.758L496.452,393.346L496.452,394.118L497.655,397.66L499.858,399.84L502.083,400.998L505.376,400.998L507.51,399.886L510.644,396.775L514.027,400.226L510.348,403.882L506.488,405.835L500.925,405.835L497.065,403.882L493.432,400.226L491.615,394.867Z" style="fill:rgb(31,32,52);fill-rule:nonzero;"/>
    </g>
    <g transform="matrix(4.16667,0,0,4.16667,-1174.02,-1430.24)">
        <path d="M516.322,416.575L516.322,381.97L521.204,381.97L521.204,395.548L522.317,394.663L526.086,392.71L531.24,392.71L535.6,394.958L537.508,400.726L537.508,416.575L532.716,416.575L532.716,401.452L531.649,398.387L530.082,397.547L526.676,397.547L524.36,398.682L521.204,401.498L521.204,416.575L516.322,416.575Z" style="fill:rgb(31,32,52);fill-rule:nonzero;"/>
    </g>
</svg>
