<svg xmlns="http://www.w3.org/2000/svg" xmlns:xlink="http://www.w3.org/1999/xlink" viewBox="0 0 270.9 267.8"><defs><style>.a,.h,.l,.o{fill:none;}.b{stroke:#b5b5b5;fill:url(#a);}.b,.d{stroke-miterlimit:10;}.c{fill:#010101;}.d{stroke:#c2c1c1;stroke-width:0.99px;fill:url(#b);}.e,.i{fill:#010202;}.e,.f,.j,.k{fill-rule:evenodd;}.g,.j{fill:#fff;}.h,.o{stroke:#fff;}.h,.l,.o{stroke-linejoin:bevel;}.h{stroke-width:0.2px;}.k,.n{fill:#bf181b;}.l{stroke:#010202;stroke-width:0.34px;}.m{clip-path:url(#c);}.o{stroke-width:3.12px;}.p{fill:#75160d;}</style><linearGradient id="a" x1="229.44" y1="1.82" x2="-1.73" y2="232.98" gradientUnits="userSpaceOnUse"><stop offset="0.08" stop-color="#fff"/><stop offset="0.22" stop-color="#fcfcfc"/><stop offset="0.33" stop-color="#f1f1f1"/><stop offset="0.45" stop-color="#dfdfdf"/><stop offset="0.55" stop-color="#c6c6c6"/><stop offset="0.66" stop-color="#a6a6a6"/><stop offset="0.76" stop-color="#7f7f7f"/><stop offset="0.86" stop-color="#505050"/><stop offset="0.96" stop-color="#1b1b1b"/><stop offset="1"/></linearGradient><linearGradient id="b" x1="214.71" y1="40.98" x2="32.1" y2="223.59" gradientUnits="userSpaceOnUse"><stop offset="0.08" stop-color="#fff"/><stop offset="0.39" stop-color="#fcfcfc"/><stop offset="0.62" stop-color="#f3f3f3"/><stop offset="0.82" stop-color="#e3e3e3"/><stop offset="1" stop-color="#cecece"/></linearGradient><clipPath id="c"><polygon class="a" points="61.2 120.2 243.6 171.8 243.6 69.8 61.5 17.7 61.2 120.2"/></clipPath></defs><rect class="b" x="0.1" width="270.8" height="191.5"/><path class="c" d="M104.5,27.5h3.9v5.6l-1.9.4-2.2.2a5.3,5.3,0,0,1-4-1.6,5.9,5.9,0,0,1-1.5-4.3,6.6,6.6,0,0,1,.7-3.2,4.5,4.5,0,0,1,2.1-2,6.3,6.3,0,0,1,3.2-.7,9.7,9.7,0,0,1,3.4.6l-.5,1.2a8.9,8.9,0,0,0-3-.6,4.5,4.5,0,0,0-3.3,1.2,4.8,4.8,0,0,0-1.2,3.5,4.8,4.8,0,0,0,1.2,3.5,4.2,4.2,0,0,0,3.3,1.2,8.5,8.5,0,0,0,2.3-.3V28.7h-2.5Z"/><path class="c" d="M112.1,24.9v5.6a2.5,2.5,0,0,0,.5,1.6,2.1,2.1,0,0,0,1.5.5,2.5,2.5,0,0,0,2-.8,3.8,3.8,0,0,0,.6-2.4V24.9H118v8.6h-1.1V32.4h-.1a2.4,2.4,0,0,1-1.1.9,2.9,2.9,0,0,1-1.6.4,3.3,3.3,0,0,1-2.4-.8,3.3,3.3,0,0,1-.8-2.4V24.9Z"/><path class="c" d="M123.6,32.6h1.1v1a.8.8,0,0,1-.6.2h-.7c-1.7,0-2.5-.9-2.5-2.7V25.9h-1.3v-.6l1.3-.6.5-1.8h.8v2h2.5v1h-2.5V31a1.6,1.6,0,0,0,.4,1.2A1.1,1.1,0,0,0,123.6,32.6Z"/><path class="c" d="M132,31.2a2,2,0,0,1-.9,1.8,4.4,4.4,0,0,1-2.5.7,5.4,5.4,0,0,1-2.7-.6V31.9l1.4.5,1.3.2a3.5,3.5,0,0,0,1.6-.3,1.2,1.2,0,0,0,.6-1,1.1,1.1,0,0,0-.5-.9,6.8,6.8,0,0,0-1.7-.8l-1.7-.8a1.8,1.8,0,0,1-.7-.8,1.7,1.7,0,0,1-.3-1,1.8,1.8,0,0,1,.9-1.6,3.2,3.2,0,0,1,2.3-.7,6.3,6.3,0,0,1,2.7.6l-.4,1.1a6,6,0,0,0-2.4-.6,2.6,2.6,0,0,0-1.4.3.9.9,0,0,0-.4.8c0,.3,0,.5.1.6l.6.5,1.5.6a9.6,9.6,0,0,1,2.1,1.1A2.5,2.5,0,0,1,132,31.2Z"/><path class="c" d="M137.6,33.7a3.6,3.6,0,0,1-2.9-1.2,4.6,4.6,0,0,1-1-3.2,4.9,4.9,0,0,1,1-3.4,3.8,3.8,0,0,1,3-1.2l1.2.2,1,.3-.4,1.1-1-.3h-.9c-1.7,0-2.6,1.1-2.6,3.3a3.7,3.7,0,0,0,.7,2.5,2.2,2.2,0,0,0,1.8.8,6.2,6.2,0,0,0,2.3-.4v1.1A4.8,4.8,0,0,1,137.6,33.7Z"/><path class="c" d="M147.7,33.5V27.9a2.1,2.1,0,0,0-.5-1.5,1.7,1.7,0,0,0-1.5-.5,2.4,2.4,0,0,0-2,.7,3.8,3.8,0,0,0-.6,2.4v4.5h-1.3V21.3h1.3V25a3.7,3.7,0,0,1-.1,1.1h.1a3.6,3.6,0,0,1,1.1-1,4.1,4.1,0,0,1,1.6-.3,3.3,3.3,0,0,1,2.4.7,3.3,3.3,0,0,1,.8,2.4v5.6Z"/><path class="c" d="M155.3,33.7a3.8,3.8,0,0,1-3-1.2,4.6,4.6,0,0,1-1.1-3.2,4.8,4.8,0,0,1,1-3.3,3.6,3.6,0,0,1,2.8-1.3,3.3,3.3,0,0,1,2.5,1.1,3.9,3.9,0,0,1,1,2.8v.8h-6a3.5,3.5,0,0,0,.8,2.3,2.5,2.5,0,0,0,2.1.8,6.6,6.6,0,0,0,2.7-.6v1.2a3.8,3.8,0,0,1-1.3.4Zm-.3-7.9a2.4,2.4,0,0,0-1.7.7,2.9,2.9,0,0,0-.7,1.9h4.5a2.7,2.7,0,0,0-.6-1.9A2,2,0,0,0,155,25.8Z"/><path class="c" d="M160.6,22.6a1.4,1.4,0,0,1,.2-.7.8.8,0,0,1,.6-.2l.5.2a1.4,1.4,0,0,1,.2.7.8.8,0,0,1-.2.6.6.6,0,0,1-.5.2c-.3,0-.5,0-.6-.2A.8.8,0,0,1,160.6,22.6ZM162,33.5h-1.3V24.9H162Z"/><path class="c" d="M170.7,33.5V27.9a2.1,2.1,0,0,0-.5-1.5,1.7,1.7,0,0,0-1.5-.5,2.4,2.4,0,0,0-2,.7,3.8,3.8,0,0,0-.6,2.4v4.5h-1.3V24.9h1l.2,1.2h.1a2.7,2.7,0,0,1,1.1-1,4.2,4.2,0,0,1,1.6-.4,3.5,3.5,0,0,1,2.4.8,3.3,3.3,0,0,1,.8,2.4v5.6Z"/><polygon class="d" points="243.6 267.8 0 191.5 0 0 243.6 69.8 243.6 267.8"/><path class="e" d="M130.4,165.3l-.7-.2-.2-17L91.7,136.6h-.1a.9.9,0,0,1,.5-1.1l50,15.1a.4.4,0,0,1,.1.3c-.1.5-.3.8-.7.9l-10.2-3.1v16.3a.9.9,0,0,1-.9.6Z"/><path d="M142.2,150.1,92,134.9c-1,.7-.8,1.6-.4,1.8l37.7,11.5v17.1l1,.4c.3.1.8.1,1.2-.7V148.9l10,2.9c.8-.3,1.2-1.2.6-1.8Zm-.2.4h0c0,.2-.3.4-.6.6L131,148v16.4c-.3.6-.5.5-.6.4h-.5v-17l-38-11.5a1.6,1.6,0,0,1,.4-.7L142,150.6"/><path class="e" d="M116.4,149.5l-1.3-1-1.3-1.1c-1-.8-1.6-1-2.1,0a1.5,1.5,0,0,0-.1.7c-.1.2,0,.5,0,.8h-.3v.5a1.8,1.8,0,0,1,.7.5l1.5,1.1,1.7,1.4a1.7,1.7,0,0,0,.2-.7l-.4-.5-2.7-2.2a.9.9,0,0,1,0-1c.2-.5.5-.5,1.1.1l2.4,1.8h.4A1,1,0,0,0,116.4,149.5Zm-4.9,3.8a2,2,0,0,1-.9-1.8h0c.2-.4.6-.3,1,0l.2.2.3.3v.2l-.5.8Zm2.5-.5a2,2,0,0,1-.3,1.1c-.3.6-.8.7-1.7-.1s.1-.3.2-.3l.5-1.2a1.5,1.5,0,0,0,.1-.7l-.5-.5-.4-.4a1.4,1.4,0,0,0-1-.4.8.8,0,0,0-.8.6c-.5.9-.2,2.1,1.4,3.5a2.4,2.4,0,0,0,1.8.9,1.2,1.2,0,0,0,1-.7,1.9,1.9,0,0,0,.2-.8.9.9,0,0,0-.2-.8Zm-1.4,4.1-3.2-3a1.6,1.6,0,0,0,.4-.7h0s0-.2-.4-.6l-.3.4-.2.5-.6-.5c-.6-.8-.6-1.2-.4-1.6l.2-.3h.2v-.2l-.2-.3h-.1a1.3,1.3,0,0,0-.6.4,1.9,1.9,0,0,0-.2,1.3,2.5,2.5,0,0,0,.8,1.4l.6.6v.4c-.1.2-.1.2.3.6l.3-.5,2.2,2.1,1,1h.3l.2-.5C112.7,157,112.6,157,112.6,156.9Zm-4.2,1.3c-.7-.9-.9-1.5-.7-1.8v-.2c.3-.3.6-.2,1.1.2l.2.2.2.3v.3l-.5.7Zm2.6-.2a2,2,0,0,1-.3,1.1c-.4.5-.9.5-1.8-.4l.2-.3a3.6,3.6,0,0,0,.7-1c.1-.2.1-.5.2-.7l-.4-.6-.5-.3a1.5,1.5,0,0,0-1-.6.9.9,0,0,0-.8.4c-.6.9-.5,2,1,3.7a3,3,0,0,0,1.7,1.1,1.4,1.4,0,0,0,1.2-.6l.3-.6a.9.9,0,0,0-.1-.9Zm-6.1-1.2c.2-.3.1-.6-.2-.9s-.4-.5-.6-.2a.5.5,0,0,0,.1.8C104.4,156.9,104.7,157,104.9,156.8Zm4.2,4.3-2.6-3a1.7,1.7,0,0,0-.6-.6,1.7,1.7,0,0,0-.3.7l.8,1,1.3,1.6,1.3,1.5c.3-.4.4-.5.4-.6Zm-2.7-.9c-1-1.3-1.5-1.6-2.2-1l-.3.4a2.2,2.2,0,0,0-.1.8l-1.5-2.1-.5-.6c-.3.3-.4.5-.3.8l.6.8,2.6,3.7,1.5,2c.3-.3.4-.4.4-.6l-.3-.5-2.1-2.9a1.3,1.3,0,0,1,.4-1c.2-.2.5-.2.9.4l.3.4,1.7,2.3a.8.8,0,0,0,.4.4c.3-.4.4-.4.4-.6l-.9-1.3Zm-1.4,4.4a1,1,0,0,1-.5.6c-.5.3-1.1.2-2-1.3s-.6-2-.2-2.3h1c-.1-.2-.1-.4-.2-.6a1.1,1.1,0,0,0-1,.1,1.4,1.4,0,0,0-.8,1,3.9,3.9,0,0,0,.6,2.5c1.1,2,2.1,2.1,2.9,1.7a1.8,1.8,0,0,0,.5-.7c.1-.1,0-.3-.1-.5Zm-3.8-.2-1.2-.6c-.2-.2-.4-.3-.4-.5a.5.5,0,0,1,.3-.7h.9a.7.7,0,0,0-.1-.5c0-.1-.3-.3-.9-.3h-.2a1.1,1.1,0,0,0-.8,1.7,1.7,1.7,0,0,0,.8.9l.2.2,1,.4a1,1,0,0,1,.6.7.6.6,0,0,1,.1.4q-.1.3-.3.3H100a1.3,1.3,0,0,0,.1.6,1.1,1.1,0,0,0,1.2.2,1.3,1.3,0,0,0,.9-1.9A1.9,1.9,0,0,0,101.2,164.4Z"/><path class="e" d="M102.3,149.3v-1.8c0-1.1-.2-1.8-1-2.1l-.8-.3-.7.3a1.3,1.3,0,0,0-.8-.8h-.8l-.7.2a.5.5,0,0,0-.2-.4h-.5a2.5,2.5,0,0,1,.1.8v4c.5.2.6.2.8.1s.1-.2.1-.3v-3.5c.1-.2.4-.3.8-.2s.6.5.6,1.3v3.3l.7.2h.1v-3.8a.8.8,0,0,1,.8-.2c.5.1.7.4.7,1.3v3.3a1.1,1.1,0,0,0,.8.1ZM95.1,147c0,.2-.1.3-.1.5v.2a.9.9,0,0,1-.7,0h-.1c-.3-.1-.5-.3-.5-.9s.4-.8.8-.7h.6Zm.7.8v-2.6c0-.9-.2-1.6-.9-1.8h-.3a2.2,2.2,0,0,0-1.4.1v.3c.1.1.1.3.2.5h1.2c.5.2.5.4.5.9v.6l-.6-.2a1.2,1.2,0,0,0-1.7,1.2,2,2,0,0,0,.3,1.1,1.8,1.8,0,0,0,.9.7h1a1,1,0,0,0,.6.5c.2.1.3.1.5-.1v-.3C95.8,148.4,95.8,147.8,95.8,147.8Z"/><path class="e" d="M147.8,169v-2.1c0-1.3-.3-2.1-1.2-2.6h-.9l-.8.2a2.2,2.2,0,0,0-1-.9h-.8a1.1,1.1,0,0,0-.8.3c0-.3-.2-.5-.3-.5h-.5c0,.4.1.7.1,1v4.5l.8.2c.1-.2.2-.3.1-.5v-4a1.2,1.2,0,0,1,1-.2c.6.2.7.5.7,1.5v3.8l.8.3c.1-.1.2,0,.2-.2v-4.3a.8.8,0,0,1,.9-.3c.6.2.7.6.7,1.6v3.7a1.5,1.5,0,0,0,.9.2Zm-7.5-6.5h-.5l-.8.2c-.1-.2-.1-.4-.3-.4h-.6a1.6,1.6,0,0,1,.2,1v4.4c-.1.7.7.3.9.2v-4.4a.9.9,0,0,1,.9-.2l.6.2a1.5,1.5,0,0,0,.1-.7A.7.7,0,0,0,140.3,162.5ZM137,164v-2.4c0-.7-.7-.3-.8-.2a.7.7,0,0,0-.1.6v3.9a.9.9,0,0,1-1,.1c-.5-.1-.9-.5-.9-1.5v-2.3a4.9,4.9,0,0,0-.1-1.2c0-.3-.1-.5-.3-.5h-.2a.5.5,0,0,0-.4.3c0,.3.1.7.1,1.1v2.5c0,1.3.2,2.1,1.5,2.6h.7l.8-.3a.5.5,0,0,0,.3.5h.1l.4-.2a2.8,2.8,0,0,1-.1-.9Z"/><path class="f" d="M145.7,146.8c0-1.2.4-1.6.9-1.6h0c.6.2.8.6.8,1.3v.3c.1.1,0,.3,0,.4l-1.7-.5Zm1.8,1.2h.8c0-.3.1-.5.1-.7v-.6a2.4,2.4,0,0,0-1.7-2.2c-1-.3-2.1.2-2.1,2.6a5,5,0,0,0,.6,2.4,2.6,2.6,0,0,0,1.5,1.1h.8c.4,0,.7-.2.7-.4a.9.9,0,0,0-.1-.5,2.5,2.5,0,0,1-1.2-.1c-.8-.2-1.3-.8-1.3-2.2l1.9.6Zm-3.8-2.3c0-1.4-.2-2.2-1.5-2.6h-.7a1.3,1.3,0,0,0-.8.3c0-.2-.1-.5-.3-.5h-.5a3.8,3.8,0,0,1,.1,1v4.5c0,.7.7.2.8.1a.4.4,0,0,0,.1-.5v-3.8a1,1,0,0,1,1-.3c.6.2.9.6.9,1.5v3.3c-.1.2,0,.4,0,.6s.8.2.9.1Zm-5-1.4c0-1.6-.2-2.3-1.3-2.7h-.7a.9.9,0,0,0-.7.3v-2.7a2.5,2.5,0,0,0-.1-.8c-.4-.1-.8-.2-.9,0v8.5l.9.2a1.7,1.7,0,0,0,.1-.7v-3.7a.9.9,0,0,1,1.1-.2c.3.1.6.3.7,1.1v3.6a1.3,1.3,0,0,0,.1.6c.6.2.8.2.9.1a10.3,10.3,0,0,1-.1-1.7Zm-5-1.2a16.3,16.3,0,0,1,.1-2.4c.1-.7-.7-.2-.9-.2a1.3,1.3,0,0,0-.1.6V145a1,1,0,0,1-.9.2c-.6-.2-.9-.5-.9-1.7v-3.6c-.6-.2-.8-.3-.9-.1v3.6c0,1.4.2,2.1,1.5,2.6h.7l.8-.2a.5.5,0,0,0,.3.5h.5a4.3,4.3,0,0,1-.2-1.1Zm-2.7-4.4c.4.1.6-.2.6-.6s-.1-.6-.5-.7-.6.1-.6.5A.8.8,0,0,0,131,138.7Zm1.7.5c.5.1.6-.1.6-.6s-.1-.6-.5-.7-.3,0-.4.1a.5.5,0,0,0-.2.4A.8.8,0,0,0,132.7,139.2Zm-6,4.5-.6-.3v-4a1.1,1.1,0,0,1,.8-.1c.8.3,1.2.9,1.2,2.2S127.4,143.9,126.7,143.7Zm.6-5.1a1.7,1.7,0,0,0-1.2.1v-2.3a3.4,3.4,0,0,0-.1-1c-.4-.1-.8-.1-.9.1V143c0,.2.1.5.1.7a3.4,3.4,0,0,0,1.4.8,2,2,0,0,0,1.5-.1c.5-.2,1-1,1-2.7S128.3,138.9,127.3,138.6Zm-6-.8h.3c.1,0,.2-.1.2-.7l-1.4-.5v-1.5c-.4-.1-.7,0-.8.2v1.2H119c-.1.1-.1,0-.1.4s.3.2.6.3v3.1c0,1,.2,2.1,1.2,2.4a1.7,1.7,0,0,0,1,0h.1v-.7H121c-.4-.1-.5-.6-.5-1.3s-.1-.9-.1-1.4.1-1.1.1-1.7Zm-3.3.3c0-1.7-.3-2.4-1.4-2.7h-.7l-.6.3V133a2.9,2.9,0,0,0-.2-.9c-.4-.1-.7-.1-.8.1v8.4l.8.2a1.4,1.4,0,0,0,.2-.7v-3.7a.8.8,0,0,1,1-.2c.4.1.7.4.7,1.2v3.5c0,.2.1.4.1.6s.8.2.9.1Zm-5.8-3.2h.1l.7.4h.3a.8.8,0,0,0,.2-.6,2,2,0,0,0-1.2-.8,1.6,1.6,0,0,0-1.5.2,3.2,3.2,0,0,0-.8,2.3c0,2.4,1,3.2,2.2,3.6h1a.8.8,0,0,0,.2-.5.4.4,0,0,0-.1-.3h-.9c-.7-.2-1.4-.9-1.4-2.6S111.5,134.7,112.2,134.9Zm-4.1-1.7v5.6h.8a1.4,1.4,0,0,0,.2-.6v-4.2a2,2,0,0,0-.1-.9C108.9,133,108.2,132.9,108.1,133.2Zm.6-2.9a.4.4,0,0,0-.5.1c-.1,0-.2.2-.1.4s.1.7.4.9.6-.2.6-.6S109.1,130.4,108.7,130.3Zm-1.9,6.9v-6.4a4.8,4.8,0,0,0,0-1.2c-.4-.1-.8-.2-.9.1a6.5,6.5,0,0,1,0,1.4v6.3a.9.9,0,0,0,.3.7l.4.3a.7.7,0,0,0,.6-.1v-.5C106.8,137.8,106.8,137.2,106.8,137.2Zm-2.6-8.2c-.3-.1-.5.1-.5.5s.1.7.5.8.6-.1.6-.5S104.7,129.1,104.2,129Zm-.5,2.9c0,.3.1.7.1,1.3v2.1c0,.8-.1,1.5-.1,2.1s.8.3.9.2.1-.4.1-.7v-4.2a2.2,2.2,0,0,0-.1-.8C104.1,131.7,103.8,131.6,103.7,131.9Zm-1.9,1.5-1.7-.5c.1-1.2.5-1.6.9-1.6h.1c.5.2.7.6.8,1.3v.3A.7.7,0,0,1,101.8,133.4Zm-.6-2.7c-1.2-.3-2.1.3-2.1,2.6a5,5,0,0,0,.6,2.4,2.6,2.6,0,0,0,1.5,1.1h.8c.3,0,.6-.2.6-.4s0-.3,0-.5a1.7,1.7,0,0,1-1.2-.1c-.8-.2-1.3-.8-1.3-2.2l1.9.6a.8.8,0,0,0,.7-.1,1.5,1.5,0,0,0,.1-.7v-.6A2.3,2.3,0,0,0,101.2,130.7Zm-3-.8c-.2-.1-.4-.2-.5-.1l-.8.2c0-.2-.1-.4-.3-.4h-.1l-.4.2c0,.3.1.6.1.9v4.6c.6.1.8.2.9.1a.7.7,0,0,0,.1-.5v-3.9a.8.8,0,0,1,.8-.1h.6a1.1,1.1,0,0,0,.2-.6A.9.9,0,0,0,98.2,129.9Zm-6.1-4v7.9l.5.3h.5v-3.6l1.6.5c.3.1.4,0,.5-.8l-2.1-.6v-2.6l2.1.6c.1,0,.2-.1.2-.7l-2.7-.8C92.5,125.8,92.2,126,92.1,125.9Z"/><path class="e" d="M113.2,162.7c.7-1.1,8.7-15.6,10.5-29,2.8,24.2-6.3,31.9-7.1,32.5Z"/><path class="g" d="M123.7,132.9c-1.7,14.3-10.6,29.8-10.6,29.8l3.5,3.6S126.9,159,123.7,132.9Zm-.1,1.5c1.4,12.6-.5,20.4-2.4,24.9a18.2,18.2,0,0,1-4.6,6.8l-3.3-3.4c.9-1.5,8.4-15.3,10.3-28.3"/><path class="e" d="M124.8,169.3a234.2,234.2,0,0,0-.9-31.2c4.3,23.1,3.3,31.3,3.2,32.2Z"/><path class="g" d="M123.5,135.8a214.4,214.4,0,0,1,1.2,33.5l2.4,1.1S128.7,162.4,123.5,135.8Zm.7,4.4c3.8,20.8,2.9,28.7,2.7,30l-2-1a235.9,235.9,0,0,0-.7-29"/><path class="e" d="M116.4,166.3c.7-1.1,5.8-10,7.3-32.2,5.2,33.2.2,36-.2,36.2Z"/><path class="g" d="M123.7,133.3c-1.6,24.4-7.4,33-7.4,33l7.2,4.1S129.4,169,123.7,133.3Zm0,1.6c5,31.7.3,35-.2,35.3l-6.9-4a40.9,40.9,0,0,0,3-7.1,107.2,107.2,0,0,0,4.1-24.2"/><path class="e" d="M123.6,133a.6.6,0,0,0-.7.6,1.1,1.1,0,0,0,.7,1.1.6.6,0,0,0,.8-.6A1.2,1.2,0,0,0,123.6,133Z"/><path class="h" d="M123.6,133a.6.6,0,0,0-.7.6,1.1,1.1,0,0,0,.7,1.1.6.6,0,0,0,.8-.6A1.2,1.2,0,0,0,123.6,133Z"/><path class="e" d="M116.9,169.3h-.1l-4.5-3.3c0-.1-.1-.1,0-.2l.8-3.6h.1l4.1,3.3v.2l-.4,3.7h-.1Z"/><path class="g" d="M113.2,162H113l-.9,3.6a.8.8,0,0,0,.2.4l4.4,3.3h.3v-.2l.4-3.7-.2-.3-4-3.3Zm0,.2,4.1,3.3-.4,3.7-4.5-3.3.8-3.7"/><path class="e" d="M123.5,173.7h0l-6.8-4.5V169l.5-3.6h.1l6.3,4.1h.1v4Z"/><path class="g" d="M117.3,165.3h-.2s-.1,0-.1.2l-.5,3.5a.4.4,0,0,0,.1.3l6.9,4.6h.2a.4.4,0,0,0,.1-.3v-3.9c0-.1,0-.2-.1-.2h-.1l-6.3-4.1Zm0,.2,6.2,4.1v4l-6.8-4.5.6-3.6"/><polygon class="e" points="122.8 173.4 122.7 173.3 123.3 169.5 123.4 169.4 127.5 171.1 127.6 171.1 127.6 171.2 126.6 175.1 126.5 175.1 122.8 173.4"/><path class="g" d="M123.4,169.1h-.1c-.1.1-.1.1-.1.2l-.6,3.8a.4.4,0,0,0,.1.3h.1l3.7,1.8h.2V175l1-3.8a.1.1,0,0,0,0-.2l-.2-.2-4.1-1.7Zm0,.3,4.1,1.7-1,3.9-3.7-1.8.6-3.8"/><path class="e" d="M117.4,165.9h0l-4.9-3.8h0l2.8-1.5h.1l2.2,5.3v.2Z"/><path class="g" d="M115.3,160.2h-.2l-2.7,1.4a.4.4,0,0,0-.1.3v.2l4.9,3.8h.3c.1,0,.1-.2.1-.3l-2.2-5.3-.2-.2Zm0,.3,2.1,5.3-4.9-3.8,2.8-1.5"/><path class="e" d="M123.3,169.6v-.2h0l3.7-1.4h.2l1.1,3.6h0Z"/><path class="g" d="M127.1,167.8h-.2l-3.7,1.4c-.2,0-.2.2-.2.3l.3.2,4.8,2.2h.2v-.2l-1.1-3.6v-.3Zm0,.3,1.1,3.5-4.9-2.2,3.8-1.3"/><path class="e" d="M123.7,169.9l-6.7-4.1v-.2h0l4.5-1.4h.2l2.1,5.5c0,.1,0,.1-.1.2h0Z"/><path class="g" d="M121.6,163.9h-.1l-4.5,1.4-.2.3.2.2,6.6,4.2h.3c.1,0,.1-.1.1-.3l-2.2-5.5v-.2Zm0,.3,2.1,5.6-6.6-4.1,4.5-1.5"/><path class="i" d="M98.2,189.1v-5.4l.6.2a1.3,1.3,0,0,1,.1.6v2l1.6-2.1.4.2c.2,0,.3.1.3.2h0l-.2.2-1.3,1.7c.7,1,1.4,3.2,1.7,3.6h-.6c-.3-.1-.4-.5-.5-.8a10,10,0,0,0-1-2.1l-.4-.6v2.8l-.6-.2A.4.4,0,0,1,98.2,189.1Z"/><path class="i" d="M104.5,190.1v-.6l-.4-.2c-.4,0-.7.1-.7.6s.1.7.4.7h.6A.6.6,0,0,0,104.5,190.1Zm-1.5-2.9h0a1.1,1.1,0,0,1,1.1,0h.3c.6.3.7.8.7,1.5v2.1s0,.5.3.5v.3c-.2.1-.3.2-.5.1s-.3-.3-.5-.5l-.2.2h-.5a.8.8,0,0,1-.7-.5,1.7,1.7,0,0,1-.3-1c0-1,.8-1,1.3-.9h.5v-.5a.7.7,0,0,0-.4-.7h-1C103,187.5,103,187.4,103,187.2Z"/><path class="i" d="M108,189v2.9a.7.7,0,0,1-.1.5l-.6-.2v-3.9c.1-.2.3-.2.7-.1Zm-.3-2.7c.3.1.4.2.4.6s-.1.4-.5.3-.3-.2-.3-.6S107.4,186.2,107.7,186.3Z"/><path class="i" d="M111.4,189.3c.5.2.7.5.7.6a.6.6,0,0,1-.1.4l-.4-.3h-.3q-.6-.2-.6.3c0,.2.1.3.3.6l.7.8a1.6,1.6,0,0,1,.5,1.1c0,.4-.1.7-.4.8s-.5.2-.9.1-.9-.5-.9-.7,0-.3.1-.4h.2l.6.4h.1c.3.1.5,0,.5-.3a1.3,1.3,0,0,0-.3-.7l-.6-.7-.2-.3a1.5,1.5,0,0,1-.4-.9c0-.6.5-.9,1.2-.7Z"/><path class="i" d="M115.3,191.1c-.3-.1-.6.3-.6,1.1l1.2.4v-.5a1.1,1.1,0,0,0-.5-1Zm1.1,3.2a.6.6,0,0,0,.1.4.5.5,0,0,1-.5.3h-.6a2.1,2.1,0,0,1-1.1-.8,3.2,3.2,0,0,1-.3-1.7c0-1.7.6-2.1,1.5-1.8s1,.8,1.1,1.5v.4a1.3,1.3,0,0,1-.1.6H116l-1.3-.4c0,.9.3,1.3.9,1.5A1.2,1.2,0,0,0,116.4,194.3Z"/><path class="i" d="M119.2,192.8v2.7c0,.2,0,.3-.1.4l-.5-.2v-3.2c0-.2-.1-.4-.1-.6l.3-.2h0c.2.1.2.2.3.4l.5-.2h.4a.3.3,0,0,1,.3.3.9.9,0,0,1-.1.5h-.4A.5.5,0,0,0,119.2,192.8Z"/><path class="i" d="M123.4,193c.4.2.7.5.7.6s0,.3-.1.4l-.4-.2h-.3c-.4-.1-.6,0-.6.2a1.4,1.4,0,0,0,.2.6,2.4,2.4,0,0,1,.8.9,1.2,1.2,0,0,1,.5,1c0,.9-.6,1.1-1.3.9a2.3,2.3,0,0,1-1-.7.5.5,0,0,1,.2-.4h.2l.6.3h.4c.1,0,.2-.2.2-.3a1.1,1.1,0,0,0-.3-.7l-.7-.7v-.3a1.2,1.2,0,0,1-.4-.8c0-.7.5-1,1.2-.8Z"/><path class="i" d="M127.3,194.8c-.3-.1-.6.3-.6,1.1l1.2.4v-.5c0-.5-.2-.8-.5-.9Zm1.1,3.2c0,.1.1.3,0,.4s-.2.3-.4.3h-.6a2.3,2.3,0,0,1-1-.7,3,3,0,0,1-.4-1.8c0-1.7.6-2.1,1.4-1.8a1.6,1.6,0,0,1,.8.6,1.5,1.5,0,0,1,.4.9v1H128l-1.4-.4c0,1,.4,1.4.9,1.5A1,1,0,0,0,128.4,198Z"/><path class="i" d="M131.8,195.6c.4.2.7.5.7.6s-.1.3-.1.4l-.4-.2-.4-.2h-.3l-.2.3a1.4,1.4,0,0,0,.2.6,3.4,3.4,0,0,1,.8.9,1.4,1.4,0,0,1,.5,1c0,.9-.6,1.1-1.3.9a1.7,1.7,0,0,1-1-.7c0-.2.1-.3.1-.4h.3l.6.3h.1c.2,0,.3,0,.3-.1s.2-.2.2-.3a2.1,2.1,0,0,0-.3-.7l-.7-.7-.2-.3a1.2,1.2,0,0,1-.3-.9c0-.6.5-.9,1.2-.7Z"/><path class="i" d="M136.7,197.9h-.2l-.5-.3h-.1c-.5-.1-.9.2-.9,1.3a1.9,1.9,0,0,0,1.1,1.8h.6v.2c-.1.2-.1.3-.2.3h-.7c-.8-.2-1.6-.8-1.6-2.6a2,2,0,0,1,.6-1.6,1.4,1.4,0,0,1,1.1-.1,1.4,1.4,0,0,1,.8.6A.4.4,0,0,1,136.7,197.9Z"/><path class="i" d="M138.7,200.2V196h.6a1.3,1.3,0,0,1,.1.6v1.9l.5-.3h.5c.8.2,1,.8,1,1.9v2.5c-.1.1-.2.1-.7-.1v-2.9c-.1-.6-.2-.7-.6-.8a.9.9,0,0,0-.7.1v2.7a.6.6,0,0,1-.1.4h-.6Z"/><path class="j" d="M112,164.5c-3.5,12.5-4.7,17,3,22s8.9.2,12.3-12.3Z"/><path class="k" d="M118.8,176.9l1.8-7-1.9-1.1s-1.3,4.6-1.9,6.9l-6.7-4.3-.4,2,6.5,4.2c-.7,3.1-2.1,7.8-2.2,8.1l1.9,1.3s1-3.1,2.3-8.1l6.5,4.1.6-1.8Z"/><path class="l" d="M112,164.5l15.3,9.7c-3.4,12.5-4.6,17-12.3,12.3S108.5,177,112,164.5Z"/><path class="e" d="M113.9,171.5v-1.6l-1.4-.4a2.5,2.5,0,0,0,1.1-.4h0l-.3-.9-.2-.6.2.2,1,.9h.1v-.3l.9-1.1-.2,1.7.4.2,1.1.4-.4.2-.7.3h-.1v.2l.4.9.3.7-.5-.6-.8-.6h-.1Zm.2,1.8a3.7,3.7,0,0,1-1.7-1.4,3,3,0,0,1-.4-1.8,5,5,0,0,0,2.7,2.4,3.6,3.6,0,0,0,1.4.2A1.8,1.8,0,0,1,114.1,173.3Z"/><path class="i" d="M111.9,169.8a3.6,3.6,0,0,0,.5,2.2,2.7,2.7,0,0,0,1.7,1.3,1.6,1.6,0,0,0,2.1-.6h0a3.9,3.9,0,0,1-1.5-.2C113.6,172.1,112.8,171.2,111.9,169.8Zm3.5-2.8-1.1,1.3-1.4-1.2c.2.4.4,1.3.6,1.8l-1.3.5,1.6.6v1.8l1-1.2,1.5,1.5-.7-1.9,1.3-.5-1.6-.7C115.3,168.5,115.4,167.5,115.4,167Zm-3.3,3.3a4.9,4.9,0,0,0,2.6,2.4h1.1a1.7,1.7,0,0,1-1.7.4,3.3,3.3,0,0,1-1.6-1.3,2.3,2.3,0,0,1-.4-1.6m3.1-2.6a4.9,4.9,0,0,0-.1,1.2v.3l1.3.4h-.2l-.7.3h-.1l.3,1v.3l-.2-.3-.8-.7h-.1l-.6.5v-1.2h-.2l-.9-.4.8-.3v-.3l-.3-.8v-.4l1,.9v0l.7-.8"/><g class="m"><polygon class="n" points="61.4 15.9 251 163.1 253.3 153.2 63.8 6 61.4 15.9"/><path class="n" d="M197.8,89.1l-1.5-.9c-1.9-.9-3.8-.5-5.7-.4a26.3,26.3,0,0,0-6.9,1.2,24.2,24.2,0,0,0-4.9,2.3c-.9.6-2.1,1.8-2.5,2.1l-.3-.7c-1.1-2-2.9-3.7-4.5-3.9a1.4,1.4,0,0,0-1.1.6c-.2-.5-3.4-7.6-5.4-11a75.5,75.5,0,0,0-5.2-7.8c-1.8-2.3-3.6-4.8-5.7-6.4s-2.7-2.2-3.8-1.6-.7,1.4-1,2.2c-1.7,3.8-3,8.1-4.8,11.7-.4.8-1.3,1.1-1.4,2.2a5.6,5.6,0,0,0,1.4,2.9c1.9,2.7,4.4,4,6.6,6a12.9,12.9,0,0,1,1.7,1.6,31.6,31.6,0,0,1-5.9,4.2,9.8,9.8,0,0,1-2.4.6s-.9,10.1-1.5,15.1c-.4,2.8-1.3,8.4-1.3,8.4s5-3.5,7.5-5.1,12-7.5,12-7.5l7-5.1,1.3-1.5c0,.1.1.2.1.3a7.9,7.9,0,0,0,4.3,3c.2,0,.5.1.7,0V103c.6,4.2,2.5,8,3.8,12,3.4,10,7.1,19.9,10.4,30,.3.9.8,2.7.8,2.7l5.2-21.2s-2.6-7.9-4.1-11.8c-.2-.4-.4-1.1-.7-1.7a12.2,12.2,0,0,0,3.9,1.4c1.5.2,2.8-.5,4.2-.8s2.2.1,3.1-.7a3.4,3.4,0,0,0,.7-1.6c.2-2.5-1-5.3-1.3-7.9a55.2,55.2,0,0,1-.7-5.5c-.2-2.1.7-4.2,0-6.2a5.9,5.9,0,0,0-2.1-2.6Z"/><path class="o" d="M197.8,89.1l-1.5-.9c-1.9-.9-3.8-.5-5.7-.4a26.3,26.3,0,0,0-6.9,1.2,24.2,24.2,0,0,0-4.9,2.3c-.9.6-2.1,1.8-2.5,2.1l-.3-.7c-1.1-2-2.9-3.7-4.5-3.9a1.4,1.4,0,0,0-1.1.6c-.2-.5-3.4-7.6-5.4-11a75.5,75.5,0,0,0-5.2-7.8c-1.8-2.3-3.6-4.8-5.7-6.4s-2.7-2.2-3.8-1.6-.7,1.4-1,2.2c-1.7,3.8-3,8.1-4.8,11.7-.4.8-1.3,1.1-1.4,2.2a5.6,5.6,0,0,0,1.4,2.9c1.9,2.7,4.4,4,6.6,6a12.9,12.9,0,0,1,1.7,1.6,31.6,31.6,0,0,1-5.9,4.2,9.8,9.8,0,0,1-2.4.6s-.9,10.1-1.5,15.1c-.4,2.8-1.3,8.4-1.3,8.4s5-3.5,7.5-5.1,12-7.5,12-7.5l7-5.1,1.3-1.5c0,.1.1.2.1.3a7.9,7.9,0,0,0,4.3,3c.2,0,.5.1.7,0V103c.6,4.2,2.5,8,3.8,12,3.4,10,7.1,19.9,10.4,30,.3.9.8,2.7.8,2.7l5.2-21.2s-2.6-7.9-4.1-11.8c-.2-.4-.4-1.1-.7-1.7a12.2,12.2,0,0,0,3.9,1.4c1.5.2,2.8-.5,4.2-.8s2.2.1,3.1-.7a3.4,3.4,0,0,0,.7-1.6c.2-2.5-1-5.3-1.3-7.9a55.2,55.2,0,0,1-.7-5.5c-.2-2.1.7-4.2,0-6.2a5.9,5.9,0,0,0-2.1-2.6Z"/><path class="p" d="M167.4,83.7s-3.6-5.5-5.5-7.8a57.3,57.3,0,0,0-5.7-5.4c-1.6-1.5-3.5-2.1-4.8-4.1a3.8,3.8,0,0,1-.5-1.5.8.8,0,0,1,.5-.8c.3-.1.7.3,1,.5a23.4,23.4,0,0,1,2.7,2,52.2,52.2,0,0,1,5.2,6,41.5,41.5,0,0,1,4.4,6.3c1,1.6,2.7,4.8,2.7,4.8Z"/><path class="p" d="M177.6,92.9l4.6-.9a19.7,19.7,0,0,1,4.2-.1,44.1,44.1,0,0,1,7.2.8c1.2.2,2.4.9,3.5.8s1.3.1,1.7-.5a2.4,2.4,0,0,0,.2-1.5,1.9,1.9,0,0,0-.8-1.1c-1.6-1.4-3-1.2-4.7-1.5a19.5,19.5,0,0,0-6.4.1,19.3,19.3,0,0,0-4.7,1.3c-1.6.7-4.8,2.6-4.8,2.6Z"/></g></svg>