<?xml version="1.0" encoding="utf-8"?>
<svg width="100%" height="100%" viewBox="0 0 1129 1116" version="1.1" style="fill-rule:evenodd;clip-rule:evenodd;stroke-miterlimit:10;" xmlns="http://www.w3.org/2000/svg">
  <g transform="matrix(1362.1427, 0, 0, -1362.1427, 11.143217, 398.954468)">
    <rect x="-0.008" y="-0.293" width="0.828" height="0.586" style="fill:url(#_Linear1);"/>
  </g>
  <g transform="matrix(-4.16667, 0, 0, 4.16667, 1129.242554, -317.9711)">
    <rect x="0.094" y="76.313" width="270.83" height="191.497" style="fill:none;stroke:rgb(182,182,181);stroke-width:1px;"/>
  </g>
  <g transform="matrix(4.16667, 0, 0, 4.16667, -183.157211, -7.000006)">
    <path d="M 133.899 39.612 C 132.171 39.612 130.707 39.228 129.531 38.46 C 128.355 37.716 127.467 36.684 126.915 35.388 C 126.339 34.092 126.099 32.652 126.171 31.068 C 126.219 29.988 126.435 28.908 126.843 27.828 C 127.251 26.748 127.827 25.788 128.571 24.9 C 129.291 24.036 130.203 23.34 131.283 22.812 C 132.363 22.308 133.587 22.044 134.979 22.044 C 135.387 22.044 135.867 22.092 136.419 22.164 C 136.971 22.26 137.499 22.404 138.051 22.572 C 138.603 22.74 139.059 22.956 139.467 23.22 L 139.467 22.212 L 141.315 22.212 L 141.027 27.804 L 139.443 27.804 C 139.347 26.916 139.107 26.172 138.723 25.572 C 138.339 24.972 137.859 24.54 137.259 24.228 C 136.659 23.916 135.963 23.772 135.219 23.772 C 134.379 23.772 133.635 23.964 133.011 24.348 C 132.363 24.732 131.811 25.236 131.379 25.884 C 130.923 26.532 130.587 27.252 130.347 28.068 C 130.083 28.884 129.939 29.724 129.891 30.588 C 129.819 31.956 129.963 33.18 130.299 34.26 C 130.611 35.34 131.139 36.18 131.883 36.78 C 132.603 37.404 133.515 37.716 134.595 37.716 C 134.907 37.716 135.267 37.692 135.699 37.644 C 136.131 37.596 136.563 37.524 136.995 37.428 C 137.403 37.332 137.763 37.212 138.075 37.068 L 138.195 34.836 C 138.219 34.404 138.267 33.996 138.291 33.588 C 138.315 33.18 138.363 32.892 138.387 32.676 C 138.123 32.7 137.811 32.7 137.427 32.7 C 137.043 32.724 136.755 32.724 136.587 32.748 L 136.683 30.9 L 142.995 30.9 L 142.923 32.484 C 142.659 32.508 142.419 32.532 142.227 32.58 C 142.011 32.628 141.843 32.724 141.699 32.844 C 141.555 32.988 141.459 33.204 141.387 33.468 C 141.315 33.732 141.243 34.116 141.219 34.572 L 141.027 38.412 L 140.427 38.412 C 140.019 38.412 139.587 38.46 139.179 38.556 C 138.747 38.676 138.291 38.796 137.835 38.94 C 137.283 39.108 136.707 39.252 136.059 39.396 C 135.411 39.54 134.691 39.612 133.899 39.612 Z" style="fill:rgb(1,3,3);fill-rule:nonzero;"/>
    <path d="M 148.053 39.492 C 147.381 39.492 146.829 39.348 146.421 39.036 C 145.989 38.724 145.677 38.292 145.485 37.74 C 145.269 37.188 145.173 36.54 145.173 35.796 C 145.173 35.196 145.221 34.548 145.341 33.852 C 145.437 33.156 145.533 32.436 145.653 31.74 C 145.749 31.044 145.797 30.396 145.797 29.82 C 145.797 29.556 145.749 29.364 145.677 29.292 C 145.581 29.22 145.485 29.196 145.413 29.196 C 145.245 29.196 145.053 29.34 144.861 29.604 C 144.669 29.868 144.477 30.372 144.261 31.092 L 142.965 30.708 C 143.037 30.372 143.157 29.988 143.349 29.556 C 143.517 29.124 143.757 28.716 144.069 28.308 C 144.381 27.924 144.741 27.612 145.149 27.348 C 145.557 27.084 146.037 26.964 146.589 26.964 C 147.477 26.964 148.101 27.204 148.413 27.684 C 148.725 28.164 148.869 28.836 148.869 29.676 C 148.869 30.156 148.845 30.684 148.773 31.284 C 148.701 31.884 148.629 32.508 148.557 33.132 C 148.485 33.756 148.413 34.332 148.341 34.884 C 148.269 35.436 148.245 35.916 148.245 36.276 C 148.245 36.516 148.269 36.708 148.317 36.852 C 148.365 37.02 148.437 37.116 148.533 37.188 C 148.629 37.26 148.749 37.284 148.917 37.284 C 149.181 37.284 149.469 37.116 149.781 36.756 C 150.069 36.396 150.357 35.94 150.621 35.316 C 150.885 34.716 151.149 34.068 151.365 33.324 C 151.581 32.604 151.773 31.86 151.917 31.092 C 152.037 30.348 152.109 29.628 152.109 28.956 C 152.109 28.74 152.109 28.428 152.109 28.068 C 152.085 27.708 152.061 27.42 152.037 27.228 L 155.133 27.228 C 155.157 27.564 155.181 27.804 155.205 27.924 C 155.205 28.068 155.205 28.212 155.205 28.38 C 155.205 28.716 155.181 29.124 155.157 29.58 C 155.109 30.06 155.061 30.564 154.989 31.116 C 154.917 31.668 154.845 32.196 154.773 32.748 C 154.725 33.18 154.677 33.588 154.629 33.996 C 154.557 34.404 154.509 34.764 154.461 35.1 C 154.413 35.46 154.389 35.748 154.365 36.012 C 154.317 36.276 154.317 36.492 154.317 36.636 C 154.317 36.9 154.365 37.068 154.437 37.14 C 154.509 37.212 154.581 37.26 154.653 37.26 C 154.821 37.26 155.013 37.116 155.205 36.852 C 155.397 36.588 155.589 36.084 155.805 35.364 L 157.101 35.748 C 157.029 36.084 156.933 36.468 156.789 36.9 C 156.645 37.332 156.453 37.74 156.189 38.124 C 155.925 38.532 155.613 38.844 155.253 39.108 C 154.893 39.372 154.437 39.492 153.909 39.492 C 153.405 39.492 152.925 39.348 152.517 39.036 C 152.109 38.724 151.893 38.148 151.893 37.308 C 151.893 36.996 151.917 36.708 151.941 36.492 C 151.965 36.276 151.989 36.012 152.013 35.748 L 151.989 35.748 C 151.629 36.708 151.221 37.452 150.789 38.004 C 150.357 38.556 149.901 38.94 149.445 39.156 C 148.989 39.372 148.509 39.492 148.053 39.492 Z" style="fill:rgb(1,3,3);fill-rule:nonzero;"/>
    <path d="M 163.413 23.604 L 162.933 27.228 L 165.933 27.228 L 165.789 28.884 L 162.789 28.932 C 162.717 29.508 162.645 30.132 162.573 30.78 C 162.501 31.452 162.429 32.1 162.381 32.724 C 162.309 33.372 162.261 33.924 162.237 34.428 C 162.189 34.932 162.165 35.34 162.165 35.604 C 162.165 35.82 162.189 36.036 162.237 36.276 C 162.285 36.54 162.381 36.756 162.549 36.924 C 162.717 37.092 162.957 37.188 163.317 37.188 C 163.437 37.188 163.629 37.14 163.893 37.068 C 164.133 37.02 164.397 36.876 164.685 36.66 C 164.973 36.444 165.237 36.132 165.477 35.676 L 166.701 36.444 C 166.149 37.476 165.501 38.22 164.709 38.724 C 163.917 39.228 163.077 39.492 162.189 39.492 C 161.301 39.492 160.653 39.3 160.221 38.94 C 159.765 38.58 159.477 38.076 159.333 37.476 C 159.189 36.9 159.117 36.252 159.141 35.604 C 159.165 35.052 159.213 34.404 159.261 33.66 C 159.309 32.916 159.381 32.148 159.453 31.308 C 159.525 30.492 159.621 29.7 159.693 28.956 L 157.773 28.98 L 157.989 27.228 C 159.165 27.228 160.053 26.916 160.629 26.292 C 161.181 25.668 161.589 24.78 161.805 23.604 L 163.413 23.604 Z" style="fill:rgb(1,3,3);fill-rule:nonzero;"/>
    <path d="M 171.621 39.492 C 170.853 39.492 170.133 39.372 169.509 39.156 C 168.861 38.94 168.333 38.604 167.925 38.172 C 167.517 37.764 167.325 37.26 167.325 36.708 C 167.325 36.204 167.469 35.82 167.781 35.484 C 168.069 35.172 168.429 35.028 168.861 35.028 C 169.293 35.028 169.653 35.172 169.917 35.46 C 170.181 35.748 170.325 36.108 170.325 36.516 C 170.325 36.636 170.325 36.756 170.301 36.852 C 170.253 36.996 170.229 37.116 170.181 37.236 C 170.253 37.404 170.469 37.548 170.829 37.692 C 171.165 37.836 171.453 37.908 171.693 37.908 C 172.389 37.908 172.893 37.764 173.181 37.452 C 173.445 37.14 173.589 36.804 173.589 36.42 C 173.589 36.108 173.469 35.844 173.253 35.604 C 173.013 35.388 172.701 35.148 172.341 34.932 C 171.981 34.716 171.573 34.476 171.165 34.236 C 170.421 33.804 169.797 33.396 169.293 33.036 C 168.789 32.676 168.429 32.268 168.213 31.86 C 167.973 31.452 167.853 30.972 167.853 30.42 C 167.853 29.868 168.021 29.316 168.381 28.788 C 168.741 28.26 169.245 27.828 169.941 27.468 C 170.613 27.132 171.429 26.964 172.413 26.964 C 173.061 26.964 173.685 27.06 174.309 27.276 C 174.909 27.492 175.437 27.78 175.845 28.164 C 176.253 28.572 176.445 29.052 176.445 29.604 C 176.445 30.012 176.301 30.396 176.037 30.708 C 175.773 31.02 175.389 31.188 174.933 31.188 C 174.501 31.188 174.165 31.044 173.901 30.732 C 173.637 30.444 173.493 30.108 173.493 29.724 C 173.493 29.604 173.517 29.484 173.541 29.364 C 173.565 29.244 173.589 29.148 173.637 29.028 C 173.517 28.86 173.325 28.716 173.061 28.644 C 172.797 28.572 172.533 28.548 172.317 28.548 C 172.101 28.548 171.861 28.596 171.621 28.692 C 171.357 28.788 171.141 28.932 170.973 29.1 C 170.805 29.292 170.709 29.532 170.709 29.796 C 170.709 30.012 170.757 30.204 170.877 30.372 C 170.973 30.54 171.189 30.732 171.501 30.948 C 171.813 31.188 172.293 31.476 172.941 31.86 C 173.469 32.172 174.021 32.484 174.573 32.844 C 175.101 33.204 175.581 33.612 175.965 34.068 C 176.325 34.548 176.517 35.124 176.517 35.796 C 176.517 36.516 176.301 37.164 175.869 37.716 C 175.437 38.268 174.861 38.7 174.117 39.012 C 173.373 39.348 172.557 39.492 171.621 39.492 Z" style="fill:rgb(1,3,3);fill-rule:nonzero;"/>
    <path d="M 184.077 26.964 C 184.821 26.964 185.469 27.084 186.069 27.324 C 186.645 27.564 187.101 27.9 187.461 28.308 C 187.797 28.74 187.965 29.244 187.965 29.844 C 187.965 30.324 187.821 30.708 187.557 31.02 C 187.269 31.332 186.885 31.476 186.429 31.5 C 185.877 31.524 185.493 31.356 185.277 30.996 C 185.061 30.66 184.941 30.348 184.941 30.084 C 184.941 29.94 184.965 29.772 185.013 29.58 C 185.037 29.412 185.109 29.244 185.181 29.076 C 185.109 28.932 184.989 28.812 184.773 28.692 C 184.557 28.596 184.317 28.548 184.029 28.548 C 183.525 28.548 183.093 28.716 182.781 29.052 C 182.445 29.412 182.181 29.844 182.013 30.372 C 181.821 30.9 181.677 31.452 181.605 32.028 C 181.533 32.628 181.485 33.156 181.461 33.636 C 181.437 34.5 181.509 35.196 181.701 35.724 C 181.893 36.252 182.157 36.636 182.469 36.876 C 182.781 37.116 183.117 37.26 183.453 37.284 C 183.765 37.308 184.101 37.26 184.485 37.14 C 184.869 37.044 185.253 36.828 185.661 36.444 C 186.069 36.084 186.429 35.532 186.741 34.788 L 188.109 35.46 C 187.653 36.492 187.149 37.308 186.597 37.908 C 186.045 38.508 185.445 38.916 184.821 39.132 C 184.197 39.372 183.549 39.492 182.877 39.492 C 181.461 39.468 180.333 39.036 179.469 38.196 C 178.605 37.356 178.173 36.036 178.173 34.26 C 178.173 33.492 178.293 32.676 178.533 31.836 C 178.773 30.996 179.133 30.204 179.637 29.46 C 180.117 28.716 180.717 28.116 181.461 27.66 C 182.205 27.204 183.069 26.964 184.077 26.964 Z" style="fill:rgb(1,3,3);fill-rule:nonzero;"/>
    <path d="M 198.741 39.492 C 197.853 39.492 197.253 39.252 196.941 38.772 C 196.629 38.292 196.461 37.62 196.461 36.78 C 196.461 36.3 196.485 35.748 196.557 35.148 C 196.629 34.548 196.701 33.948 196.773 33.324 C 196.845 32.7 196.893 32.1 196.965 31.548 C 197.037 31.02 197.061 30.54 197.061 30.18 C 197.061 29.94 197.037 29.748 196.989 29.58 C 196.941 29.436 196.869 29.34 196.773 29.268 C 196.677 29.196 196.557 29.172 196.389 29.172 C 196.101 29.172 195.813 29.34 195.501 29.7 C 195.189 30.06 194.877 30.516 194.589 31.116 C 194.277 31.716 194.013 32.388 193.797 33.108 C 193.557 33.852 193.365 34.596 193.245 35.34 C 193.101 36.108 193.029 36.828 193.029 37.5 C 193.029 37.716 193.029 38.004 193.053 38.364 C 193.077 38.748 193.077 39.036 193.101 39.228 L 190.029 39.228 C 190.005 38.892 189.981 38.652 189.981 38.508 C 189.957 38.388 189.957 38.244 189.957 38.076 C 189.957 37.284 189.981 36.444 190.005 35.556 C 190.029 34.668 190.077 33.78 190.125 32.868 C 190.173 31.98 190.221 31.092 190.293 30.228 C 190.365 29.364 190.437 28.548 190.509 27.804 C 190.581 27.06 190.629 26.388 190.701 25.812 C 190.725 25.548 190.773 25.188 190.845 24.732 C 190.893 24.276 190.941 23.892 191.013 23.58 L 189.333 23.652 L 189.429 21.828 C 190.173 21.828 190.797 21.78 191.301 21.708 C 191.805 21.636 192.189 21.54 192.477 21.42 C 192.765 21.3 192.957 21.204 193.077 21.108 L 194.373 21.108 C 194.325 21.564 194.253 22.116 194.181 22.764 C 194.109 23.412 194.037 24.012 193.965 24.612 C 193.893 25.212 193.821 25.692 193.773 26.004 C 193.749 26.124 193.725 26.364 193.701 26.676 C 193.677 27.012 193.629 27.396 193.557 27.852 C 193.485 28.308 193.437 28.764 193.365 29.22 C 193.293 29.7 193.197 30.156 193.101 30.588 L 193.125 30.588 C 193.485 29.628 193.917 28.884 194.373 28.356 C 194.829 27.828 195.309 27.468 195.813 27.252 C 196.317 27.06 196.773 26.964 197.229 26.964 C 198.261 26.964 199.005 27.3 199.461 27.948 C 199.917 28.62 200.157 29.532 200.157 30.66 C 200.157 31.236 200.109 31.884 200.013 32.58 C 199.917 33.276 199.821 33.996 199.725 34.692 C 199.605 35.388 199.557 36.036 199.557 36.636 C 199.557 36.9 199.581 37.068 199.677 37.14 C 199.749 37.212 199.821 37.26 199.917 37.26 C 200.085 37.26 200.277 37.116 200.469 36.852 C 200.661 36.588 200.853 36.084 201.069 35.364 L 202.365 35.748 C 202.293 36.084 202.173 36.468 202.005 36.9 C 201.813 37.332 201.573 37.74 201.261 38.124 C 200.949 38.532 200.589 38.844 200.181 39.108 C 199.773 39.372 199.293 39.492 198.741 39.492 Z" style="fill:rgb(1,3,3);fill-rule:nonzero;"/>
    <path d="M 209.229 26.964 C 209.925 26.964 210.549 27.06 211.101 27.276 C 211.653 27.492 212.061 27.804 212.373 28.26 C 212.685 28.716 212.829 29.292 212.829 29.988 C 212.829 30.636 212.637 31.188 212.253 31.644 C 211.845 32.1 211.341 32.484 210.717 32.772 C 210.069 33.06 209.373 33.3 208.629 33.468 C 207.885 33.66 207.141 33.804 206.445 33.9 C 206.445 34.812 206.565 35.508 206.781 35.988 C 206.997 36.492 207.261 36.828 207.597 36.996 C 207.933 37.188 208.269 37.284 208.605 37.284 C 208.869 37.284 209.205 37.236 209.589 37.116 C 209.949 37.02 210.333 36.804 210.717 36.468 C 211.101 36.132 211.437 35.628 211.725 34.98 L 213.069 35.628 C 212.613 36.66 212.109 37.476 211.557 38.028 C 211.005 38.58 210.405 38.964 209.805 39.18 C 209.205 39.396 208.581 39.492 207.957 39.492 C 206.493 39.516 205.317 39.084 204.453 38.22 C 203.589 37.356 203.157 36.036 203.157 34.26 C 203.157 33.492 203.277 32.676 203.517 31.836 C 203.757 30.996 204.117 30.204 204.621 29.46 C 205.101 28.716 205.725 28.116 206.493 27.66 C 207.261 27.204 208.173 26.964 209.229 26.964 Z M 208.965 28.548 C 208.413 28.548 207.981 28.74 207.645 29.124 C 207.309 29.508 207.045 29.988 206.877 30.564 C 206.709 31.164 206.589 31.74 206.517 32.34 C 207.381 32.172 208.077 31.956 208.581 31.692 C 209.085 31.428 209.469 31.116 209.709 30.756 C 209.925 30.396 210.045 30.036 210.021 29.652 C 209.997 29.244 209.877 28.956 209.661 28.788 C 209.445 28.62 209.205 28.548 208.965 28.548 Z" style="fill:rgb(1,3,3);fill-rule:nonzero;"/>
    <path d="M 217.533 26.964 C 218.373 26.964 218.949 27.204 219.285 27.708 C 219.597 28.212 219.765 28.908 219.765 29.748 C 219.765 30.132 219.717 30.66 219.645 31.308 C 219.573 31.956 219.477 32.652 219.381 33.372 C 219.285 34.092 219.189 34.74 219.117 35.34 C 219.045 35.94 218.997 36.372 218.997 36.636 C 218.997 36.9 219.045 37.068 219.117 37.14 C 219.189 37.212 219.285 37.26 219.357 37.26 C 219.549 37.26 219.741 37.116 219.933 36.852 C 220.125 36.588 220.317 36.084 220.533 35.364 L 221.829 35.748 C 221.757 36.084 221.637 36.468 221.469 36.9 C 221.277 37.332 221.037 37.74 220.725 38.124 C 220.413 38.532 220.053 38.844 219.645 39.108 C 219.213 39.372 218.733 39.492 218.181 39.492 C 217.293 39.492 216.693 39.252 216.381 38.772 C 216.045 38.292 215.877 37.62 215.877 36.78 C 215.877 36.324 215.925 35.772 215.997 35.124 C 216.069 34.476 216.165 33.828 216.285 33.156 C 216.381 32.484 216.477 31.86 216.549 31.26 C 216.621 30.684 216.669 30.204 216.669 29.82 C 216.669 29.556 216.621 29.364 216.549 29.292 C 216.477 29.22 216.381 29.196 216.285 29.196 C 216.117 29.196 215.925 29.34 215.733 29.604 C 215.541 29.868 215.349 30.372 215.133 31.092 L 213.837 30.708 C 213.909 30.372 214.029 29.988 214.221 29.556 C 214.413 29.124 214.677 28.716 214.989 28.308 C 215.301 27.924 215.661 27.612 216.093 27.348 C 216.501 27.084 216.981 26.964 217.533 26.964 Z M 218.373 20.916 C 218.901 20.916 219.333 21.108 219.669 21.492 C 219.981 21.876 220.125 22.356 220.101 22.908 C 220.077 23.46 219.909 23.916 219.549 24.276 C 219.189 24.66 218.757 24.852 218.229 24.852 C 217.677 24.852 217.245 24.66 216.933 24.276 C 216.597 23.916 216.429 23.46 216.453 22.908 C 216.477 22.356 216.693 21.876 217.077 21.492 C 217.461 21.108 217.893 20.916 218.373 20.916 Z" style="fill:rgb(1,3,3);fill-rule:nonzero;"/>
    <path d="M 232.917 39.492 C 232.029 39.492 231.453 39.252 231.141 38.772 C 230.829 38.292 230.661 37.62 230.661 36.78 C 230.661 36.3 230.685 35.748 230.757 35.148 C 230.829 34.548 230.901 33.948 230.973 33.324 C 231.045 32.7 231.093 32.1 231.165 31.548 C 231.237 31.02 231.261 30.54 231.261 30.18 C 231.261 29.94 231.237 29.748 231.189 29.58 C 231.141 29.436 231.069 29.34 230.973 29.268 C 230.877 29.196 230.757 29.172 230.589 29.172 C 230.301 29.172 230.013 29.34 229.701 29.7 C 229.389 30.06 229.077 30.516 228.789 31.116 C 228.501 31.716 228.237 32.388 228.021 33.108 C 227.805 33.852 227.613 34.596 227.493 35.34 C 227.349 36.108 227.277 36.828 227.277 37.5 C 227.277 37.716 227.277 38.004 227.301 38.364 C 227.325 38.748 227.325 39.036 227.349 39.228 L 224.253 39.228 C 224.229 38.892 224.205 38.652 224.205 38.508 C 224.181 38.388 224.181 38.244 224.181 38.076 C 224.181 37.74 224.205 37.332 224.253 36.876 C 224.277 36.42 224.325 35.94 224.397 35.388 C 224.469 34.86 224.517 34.332 224.589 33.804 C 224.637 33.372 224.685 32.94 224.757 32.532 C 224.805 32.124 224.853 31.74 224.901 31.38 C 224.949 31.02 224.997 30.708 225.021 30.444 C 225.045 30.18 225.045 29.964 225.045 29.82 C 225.045 29.556 225.021 29.364 224.949 29.292 C 224.877 29.22 224.781 29.196 224.709 29.196 C 224.541 29.196 224.349 29.34 224.157 29.604 C 223.965 29.868 223.773 30.372 223.557 31.092 L 222.237 30.708 C 222.309 30.372 222.429 29.988 222.573 29.556 C 222.717 29.124 222.909 28.716 223.173 28.308 C 223.437 27.924 223.749 27.612 224.109 27.348 C 224.469 27.084 224.925 26.964 225.453 26.964 C 225.813 26.964 226.125 27.036 226.437 27.156 C 226.749 27.276 226.989 27.492 227.181 27.804 C 227.373 28.116 227.469 28.572 227.469 29.148 C 227.469 29.46 227.445 29.7 227.421 29.892 C 227.397 30.084 227.349 30.324 227.325 30.588 L 227.349 30.588 C 227.733 29.628 228.165 28.884 228.621 28.356 C 229.077 27.828 229.533 27.468 230.037 27.252 C 230.517 27.06 230.997 26.964 231.453 26.964 C 232.149 26.964 232.701 27.108 233.109 27.42 C 233.517 27.732 233.829 28.14 234.045 28.692 C 234.237 29.244 234.333 29.916 234.333 30.66 C 234.333 31.236 234.285 31.884 234.189 32.58 C 234.093 33.276 233.997 33.996 233.901 34.692 C 233.781 35.388 233.733 36.036 233.733 36.636 C 233.733 36.9 233.781 37.068 233.853 37.14 C 233.925 37.212 234.021 37.26 234.093 37.26 C 234.261 37.26 234.453 37.116 234.645 36.852 C 234.837 36.588 235.029 36.084 235.245 35.364 L 236.541 35.748 C 236.469 36.084 236.349 36.468 236.181 36.9 C 235.989 37.332 235.749 37.74 235.437 38.124 C 235.125 38.532 234.765 38.844 234.357 39.108 C 233.949 39.372 233.469 39.492 232.917 39.492 Z" style="fill:rgb(1,3,3);fill-rule:nonzero;"/>
  </g>
  <g transform="matrix(0, 1076.054932, 1076.054932, 0, 514.183716, 13.174719)">
    <path d="M-0.012,-0.478L0.729,-0.478L1.025,0.465L0.258,0.465L-0.012,-0.478Z" style="fill:url(#_Linear2);fill-rule:nonzero;"/>
  </g>
  <g transform="matrix(-3.976087, -1.245739, -1.245739, 3.976087, 190.020981, -126.19426)">
    <path d="M-278.036,225.274L-22.789,225.274L34.464,42.536L-218.849,36.364L-278.036,225.274Z" style="fill:none;fill-rule:nonzero;stroke:rgb(193,193,193);stroke-width:0.99px;"/>
  </g>
  <g transform="matrix(0.222446, 0.069904, 0, 0.222446, 353.160675, 737.429749)">
    <g transform="matrix(4.16667,0,0,4.16667,-1174.02,-1752.85)">
      <path d="M281.765,425.383L281.765,420.683L305.766,420.683L305.766,425.383L296.274,425.383L296.274,455.288L291.301,455.288L291.301,425.383L281.765,425.383Z" style="fill:rgb(31,32,52);fill-rule:nonzero;"/>
    </g>
    <g transform="matrix(4.16667,0,0,4.16667,-1174.02,-1752.85)">
      <path d="M307.107,455.288L307.107,420.683L311.989,420.683L311.989,434.261L313.102,433.376L316.871,431.423L322.026,431.423L326.385,433.671L328.293,439.439L328.293,455.288L323.501,455.288L323.501,440.165L322.434,437.1L320.867,436.26L317.461,436.26L315.145,437.395L311.989,440.211L311.989,455.288L307.107,455.288Z" style="fill:rgb(31,32,52);fill-rule:nonzero;"/>
    </g>
    <g transform="matrix(4.16667,0,0,4.16667,-1174.02,-1706.39)">
      <path d="M330.633,433.58L330.633,431.264L332.223,425.905L335.651,422.227L339.511,420.274L345.097,420.274L348.958,422.227L350.956,424.293L352.909,428.085L352.909,433.807L335.379,433.807L336.264,436.373L338.444,438.553L340.669,439.711L343.985,439.711L346.119,438.599L348.776,436.01L352.159,439.439L348.958,442.595L345.097,444.548L339.511,444.548L335.651,442.595L332.223,438.939L330.633,433.58ZM335.788,429.675L348.344,429.675L347.754,427.449L346.301,425.769L344.03,424.566L340.533,424.566L338.353,425.724L336.037,428.471L335.788,429.675Z" style="fill:rgb(31,32,52);fill-rule:nonzero;"/>
    </g>
    <g transform="matrix(4.16667,0,0,4.16667,-1174.02,-1704.22)">
      <path d="M353.932,433.058L353.932,430.742L355.749,425.383L359.382,421.705L363.287,419.752L367.988,419.752L371.78,421.705L371.78,420.183L376.684,420.183L376.684,436.51L380.158,441.8L376.207,444.548L373.891,441.051L369.1,444.026L363.287,444.026L359.382,442.073L355.749,438.417L353.932,433.058ZM358.769,432.309L359.972,435.851L362.175,438.031L364.4,439.189L367.829,439.189L371.78,436.782L371.78,427.677L369.827,425.724L367.738,424.589L364.354,424.589L362.265,425.724L359.972,427.949L358.769,431.537L358.769,432.309Z" style="fill:rgb(31,32,52);fill-rule:nonzero;"/>
    </g>
    <g transform="matrix(4.16667,0,0,4.16667,-1174.02,-1737.52)">
      <path d="M379.093,433.013L379.093,428.176L383.316,428.176L383.316,420.683L388.198,420.683L388.198,428.176L394.057,428.176L394.057,433.013L388.198,433.013L388.198,442.868L389.266,445.979L390.81,446.773L394.011,446.773L394.011,451.61L389.652,451.61L385.269,449.43L383.316,443.663L383.316,433.013L379.093,433.013Z" style="fill:rgb(31,32,52);fill-rule:nonzero;"/>
    </g>
    <g transform="matrix(4.16667,0,0,4.16667,-1174.02,-1706.39)">
      <path d="M395.829,433.58L395.829,431.264L397.419,425.905L400.848,422.227L404.708,420.274L410.294,420.274L414.154,422.227L416.152,424.293L418.105,428.085L418.105,433.807L400.575,433.807L401.461,436.373L403.641,438.553L405.866,439.711L409.181,439.711L411.316,438.599L413.972,436.01L417.356,439.439L414.154,442.595L410.294,444.548L404.708,444.548L400.848,442.595L397.419,438.939L395.829,433.58ZM400.984,429.675L413.541,429.675L412.95,427.449L411.497,425.769L409.226,424.566L405.73,424.566L403.55,425.724L401.234,428.471L400.984,429.675Z" style="fill:rgb(31,32,52);fill-rule:nonzero;"/>
    </g>
    <g transform="matrix(4.16667,0,0,4.16667,-1174.02,-1708.1)">
      <path d="M420.582,444.548L420.582,421.114L425.418,421.114L425.418,423.022L428.847,420.683L431.594,420.683L436,422.931L437.634,427.813L433.138,429.425L431.867,426.36L430.573,425.52L429.278,425.52L425.418,428.494L425.418,444.548L420.582,444.548Z" style="fill:rgb(31,32,52);fill-rule:nonzero;"/>
    </g>
    <g transform="matrix(4.16667,0,0,4.16667,-1174.02,-1752.85)">
      <path d="M438.476,455.288L438.476,420.683L443.404,420.683L443.404,437.395L460.093,420.683L467.11,420.683L451.805,435.942L466.315,455.288L460.093,455.288L448.286,439.484L443.404,444.321L443.404,455.288L438.476,455.288Z" style="fill:rgb(31,32,52);fill-rule:nonzero;"/>
    </g>
    <g transform="matrix(4.16667,0,0,4.16667,-1174.02,-1704.6)">
      <path d="M466.044,436.124L466.044,420.274L470.881,420.274L470.881,435.375L471.948,438.508L473.537,439.28L476.875,439.28L479.259,438.168L482.416,435.375L482.416,420.274L487.298,420.274L487.298,443.708L482.416,443.708L482.416,440.688L481.303,442.164L477.534,444.117L472.379,444.117L467.997,441.891L466.044,436.124Z" style="fill:rgb(31,32,52);fill-rule:nonzero;"/>
    </g>
    <g transform="matrix(4.16667,0,0,4.16667,-1174.02,-1752.85)">
      <path d="M490.932,448.953L490.932,420.683L495.769,420.683L495.769,447.931L496.791,449.884L497.358,450.451L500.606,450.451L500.606,455.288L495.315,455.288L492.84,452.813L490.932,448.953Z" style="fill:rgb(31,32,52);fill-rule:nonzero;"/>
    </g>
    <g transform="matrix(4.16667,0,0,4.16667,-1174.02,-1737.52)">
      <path d="M499.858,433.013L499.858,428.176L504.081,428.176L504.081,420.683L508.963,420.683L508.963,428.176L514.822,428.176L514.822,433.013L508.963,433.013L508.963,442.868L510.031,445.979L511.575,446.773L514.776,446.773L514.776,451.61L510.417,451.61L506.034,449.43L504.081,443.663L504.081,433.013L499.858,433.013Z" style="fill:rgb(31,32,52);fill-rule:nonzero;"/>
    </g>
    <g transform="matrix(4.16667,0,0,4.16667,-1174.02,-1704.6)">
      <path d="M517.753,436.124L517.753,420.274L522.589,420.274L522.589,435.375L523.656,438.508L525.246,439.28L528.584,439.28L530.968,438.168L534.124,435.375L534.124,420.274L539.006,420.274L539.006,443.708L534.124,443.708L534.124,440.688L533.012,442.164L529.242,444.117L524.088,444.117L519.705,441.891L517.753,436.124Z" style="fill:rgb(31,32,52);fill-rule:nonzero;"/>
    </g>
    <g transform="matrix(4.16667,0,0,4.16667,-1174.02,-1708.1)">
      <path d="M543.072,444.548L543.072,421.114L547.909,421.114L547.909,423.022L551.338,420.683L554.085,420.683L558.49,422.931L560.125,427.813L555.629,429.425L554.358,426.36L553.063,425.52L551.769,425.52L547.909,428.494L547.909,444.548L543.072,444.548Z" style="fill:rgb(31,32,52);fill-rule:nonzero;"/>
    </g>
    <g transform="matrix(4.16667,0,0,4.16667,-1174.02,-1430.24)">
      <path d="M304.132,416.575L304.132,381.97L309.06,381.97L309.06,398.682L325.749,381.97L332.766,381.97L317.461,397.229L331.971,416.575L325.749,416.575L313.942,400.771L309.06,405.608L309.06,416.575L304.132,416.575Z" style="fill:rgb(31,32,52);fill-rule:nonzero;"/>
    </g>
    <g transform="matrix(4.16667,0,0,4.16667,-1174.02,-1381.61)">
      <path d="M330.429,394.345L330.429,392.029L332.245,386.67L335.878,382.992L339.784,381.039L344.484,381.039L348.276,382.992L348.276,381.47L353.181,381.47L353.181,397.797L356.655,403.087L352.704,405.835L350.388,402.338L345.597,405.313L339.784,405.313L335.878,403.36L332.245,399.704L330.429,394.345ZM335.265,393.596L336.469,397.138L338.671,399.318L340.897,400.476L344.325,400.476L348.276,398.069L348.276,388.964L346.324,387.011L344.234,385.876L340.851,385.876L338.762,387.011L336.469,389.236L335.265,392.824L335.265,393.596Z" style="fill:rgb(31,32,52);fill-rule:nonzero;"/>
    </g>
    <g transform="matrix(4.16667,0,0,4.16667,-1174.02,-1383.69)">
      <rect x="358.7" y="381.97" width="4.882" height="23.433" style="fill:rgb(31,32,52);"/>
    </g>
    <g transform="matrix(2.92473,-2.96767,-2.96767,-2.92473,500.276,2455.73)">
      <path d="M357.843,416.347L364.442,416.347L364.362,409.732L357.779,409.78L357.843,416.347Z" style="fill:rgb(31,32,52);fill-rule:nonzero;"/>
    </g>
    <g transform="matrix(4.16667,0,0,4.16667,-1174.02,-1383.78)">
      <path d="M366.649,388.509L368.988,383.468L374.506,381.561L377.912,381.561L383.248,383.514L385.496,387.465L381.295,389.418L380.137,387.283L377.117,385.943L375.21,385.943L372.19,387.056L371.758,388.441L372.372,389.667L374.324,390.735L379.479,391.984L383.203,393.936L385.201,397.342L385.201,399.522L383.021,403.882L377.912,405.835L374.506,405.835L368.943,403.882L366.74,399.931L371.123,397.887L372.372,400.181L375.255,401.475L377.117,401.475L379.819,400.362L380.705,398.955L380.047,397.524L378.048,396.502L372.78,395.049L368.829,393.096L366.649,388.509Z" style="fill:rgb(31,32,52);fill-rule:nonzero;"/>
    </g>
    <g transform="matrix(4.16667,0,0,4.16667,-1174.02,-1383.78)">
      <path d="M386.747,394.867L386.747,392.551L388.336,387.192L391.765,383.514L395.625,381.561L401.211,381.561L405.071,383.514L407.069,385.58L409.022,389.372L409.022,395.094L391.492,395.094L392.378,397.66L394.558,399.84L396.783,400.998L400.098,400.998L402.233,399.886L404.889,397.297L408.273,400.726L405.071,403.882L401.211,405.835L395.625,405.835L391.765,403.882L388.336,400.226L386.747,394.867ZM391.901,390.962L404.458,390.962L403.868,388.736L402.414,387.056L400.144,385.853L396.647,385.853L394.467,387.011L392.151,389.758L391.901,390.962Z" style="fill:rgb(31,32,52);fill-rule:nonzero;"/>
    </g>
    <g transform="matrix(4.16667,0,0,4.16667,-1174.02,-1385.49)">
      <path d="M411.499,405.835L411.499,382.401L416.335,382.401L416.335,384.309L419.764,381.97L422.512,381.97L426.917,384.218L428.552,389.1L424.056,390.712L422.784,387.647L421.49,386.807L420.196,386.807L416.335,389.781L416.335,405.835L411.499,405.835Z" style="fill:rgb(31,32,52);fill-rule:nonzero;"/>
    </g>
    <g transform="matrix(4.16667,0,0,4.16667,-1174.02,-1383.78)">
      <path d="M428.031,388.509L430.37,383.468L435.888,381.561L439.294,381.561L444.63,383.514L446.878,387.465L442.677,389.418L441.519,387.283L438.499,385.943L436.592,385.943L433.572,387.056L433.14,388.441L433.753,389.667L435.706,390.735L440.86,391.984L444.584,393.936L446.583,397.342L446.583,399.522L444.403,403.882L439.294,405.835L435.888,405.835L430.324,403.882L428.122,399.931L432.504,397.887L433.753,400.181L436.637,401.475L438.499,401.475L441.201,400.362L442.087,398.955L441.428,397.524L439.43,396.502L434.162,395.049L430.211,393.096L428.031,388.509Z" style="fill:rgb(31,32,52);fill-rule:nonzero;"/>
    </g>
    <g transform="matrix(4.16667,0,0,4.16667,-1174.02,-1383.78)">
      <path d="M448.128,394.867L448.128,392.551L449.718,387.192L453.147,383.514L457.007,381.561L462.593,381.561L466.453,383.514L468.451,385.58L470.404,389.372L470.404,395.094L452.874,395.094L453.76,397.66L455.939,399.84L458.165,400.998L461.48,400.998L463.614,399.886L466.271,397.297L469.654,400.726L466.453,403.882L462.593,405.835L457.007,405.835L453.147,403.882L449.718,400.226L448.128,394.867ZM453.283,390.962L465.84,390.962L465.249,388.736L463.796,387.056L461.525,385.853L458.028,385.853L455.849,387.011L453.533,389.758L453.283,390.962Z" style="fill:rgb(31,32,52);fill-rule:nonzero;"/>
    </g>
    <g transform="matrix(4.16667,0,0,4.16667,-1174.02,-1383.78)">
      <path d="M471.518,388.509L473.857,383.468L479.375,381.561L482.781,381.561L488.117,383.514L490.365,387.465L486.164,389.418L485.006,387.283L481.986,385.943L480.079,385.943L477.059,387.056L476.627,388.441L477.24,389.667L479.193,390.735L484.347,391.984L488.071,393.936L490.07,397.342L490.07,399.522L487.89,403.882L482.781,405.835L479.375,405.835L473.811,403.882L471.609,399.931L475.991,397.887L477.24,400.181L480.124,401.475L481.986,401.475L484.688,400.362L485.574,398.955L484.915,397.524L482.917,396.502L477.649,395.049L473.698,393.096L471.518,388.509Z" style="fill:rgb(31,32,52);fill-rule:nonzero;"/>
    </g>
    <g transform="matrix(4.16667,0,0,4.16667,-1174.02,-1383.78)">
      <path d="M491.615,394.867L491.615,392.551L493.432,387.192L497.065,383.514L500.925,381.561L506.488,381.561L510.348,383.514L513.982,387.147L510.553,390.598L507.51,387.578L505.33,386.398L501.992,386.398L499.903,387.533L497.655,389.758L496.452,393.346L496.452,394.118L497.655,397.66L499.858,399.84L502.083,400.998L505.376,400.998L507.51,399.886L510.644,396.775L514.027,400.226L510.348,403.882L506.488,405.835L500.925,405.835L497.065,403.882L493.432,400.226L491.615,394.867Z" style="fill:rgb(31,32,52);fill-rule:nonzero;"/>
    </g>
    <g transform="matrix(4.16667,0,0,4.16667,-1174.02,-1430.24)">
      <path d="M516.322,416.575L516.322,381.97L521.204,381.97L521.204,395.548L522.317,394.663L526.086,392.71L531.24,392.71L535.6,394.958L537.508,400.726L537.508,416.575L532.716,416.575L532.716,401.452L531.649,398.387L530.082,397.547L526.676,397.547L524.36,398.682L521.204,401.498L521.204,416.575L516.322,416.575Z" style="fill:rgb(31,32,52);fill-rule:nonzero;"/>
    </g>
  </g>
  <g transform="matrix(4.16667, 0, 0, 4.16667, 0, 0)">
    <g clip-path="url(#_clip3)">
      <g transform="matrix(0.789885,0.613255,0.613255,-0.789885,123.673,-28.5118)">
        <path d="M-21.935,-73.263L218.113,-73.263L213.841,-64.036L-26.175,-63.988L-21.935,-73.263Z" style="fill:rgb(190,24,26);fill-rule:nonzero;"/>
      </g>
      <g transform="matrix(1,0,0,1,197.827,120.6)">
        <path d="M0,-31.459C-0.507,-31.825 -1.031,-32.103 -1.521,-32.351C-3.43,-33.313 -5.372,-32.883 -7.256,-32.792C-9.585,-32.678 -11.885,-32.271 -14.1,-31.572C-15.803,-31.035 -17.465,-30.316 -19.02,-29.306C-19.882,-28.746 -21.169,-27.506 -21.535,-27.152C-21.599,-27.4 -21.681,-27.644 -21.791,-27.856C-22.878,-29.947 -24.712,-31.615 -26.322,-31.779C-26.733,-31.821 -27.113,-31.554 -27.417,-31.177C-27.671,-31.741 -30.847,-38.785 -32.785,-42.159C-34.4,-44.97 -36.188,-47.578 -38.056,-50.007C-39.841,-52.33 -41.628,-54.838 -43.692,-56.396C-44.919,-57.32 -46.389,-58.557 -47.538,-58.023C-48.124,-57.751 -48.229,-56.567 -48.554,-55.815C-50.217,-51.968 -51.496,-47.679 -53.344,-44.051C-53.738,-43.276 -54.674,-42.998 -54.682,-41.928C-54.689,-40.858 -53.932,-39.789 -53.352,-38.965C-51.445,-36.256 -48.902,-35.016 -46.682,-33.023C-46.109,-32.51 -45.542,-31.951 -44.981,-31.38C-45.228,-31.171 -48.823,-28.124 -50.907,-27.159C-51.682,-26.8 -53.358,-26.573 -53.358,-26.573C-53.358,-26.573 -54.206,-16.462 -54.828,-11.51C-55.184,-8.679 -56.118,-3.149 -56.118,-3.149C-56.118,-3.149 -51.157,-6.557 -48.647,-8.188C-44.68,-10.767 -36.656,-15.681 -36.656,-15.681L-29.648,-20.763L-28.358,-22.267C-28.308,-22.166 -28.249,-22.069 -28.189,-21.98C-27.042,-20.248 -25.375,-19.462 -23.886,-19.03C-23.68,-18.971 -23.449,-18.931 -23.243,-18.95C-23.268,-18.447 -23.271,-17.947 -23.22,-17.556C-22.673,-13.412 -20.731,-9.586 -19.42,-5.639C-16.072,4.436 -12.297,14.273 -9.03,24.389C-8.741,25.285 -8.211,27.098 -8.211,27.098L-3.049,5.942C-3.049,5.942 -5.654,-1.985 -7.105,-5.855C-7.29,-6.348 -7.535,-6.958 -7.794,-7.598C-6.51,-6.916 -5.212,-6.383 -3.925,-6.188C-2.46,-5.966 -1.113,-6.669 0.28,-6.97C1.303,-7.19 2.494,-6.934 3.33,-7.71C3.704,-8.057 4.009,-8.648 4.076,-9.338C4.322,-11.835 3.123,-14.603 2.729,-17.24C2.457,-19.063 2.139,-20.896 2.028,-22.711C1.902,-24.793 2.81,-26.92 2.07,-28.868C1.63,-30.028 0.846,-30.848 0.001,-31.459L0,-31.459Z" style="fill:rgb(190,24,26);fill-rule:nonzero;"/>
      </g>
      <g transform="matrix(1,0,0,1,197.827,120.6)">
        <path d="M0,-31.459C-0.507,-31.825 -1.031,-32.103 -1.521,-32.351C-3.43,-33.314 -5.372,-32.883 -7.256,-32.792C-9.585,-32.678 -11.885,-32.271 -14.1,-31.572C-15.803,-31.035 -17.465,-30.316 -19.02,-29.306C-19.882,-28.746 -21.169,-27.506 -21.535,-27.152C-21.599,-27.4 -21.681,-27.644 -21.791,-27.856C-22.878,-29.947 -24.712,-31.615 -26.322,-31.779C-26.733,-31.821 -27.113,-31.554 -27.417,-31.177C-27.671,-31.741 -30.847,-38.785 -32.785,-42.16C-34.4,-44.97 -36.188,-47.578 -38.056,-50.007C-39.841,-52.33 -41.628,-54.838 -43.692,-56.396C-44.919,-57.32 -46.389,-58.557 -47.538,-58.023C-48.124,-57.751 -48.229,-56.567 -48.554,-55.815C-50.217,-51.968 -51.496,-47.679 -53.344,-44.051C-53.738,-43.276 -54.674,-42.998 -54.682,-41.928C-54.689,-40.858 -53.932,-39.789 -53.352,-38.965C-51.445,-36.256 -48.902,-35.016 -46.682,-33.023C-46.109,-32.51 -45.542,-31.951 -44.981,-31.38C-45.228,-31.171 -48.823,-28.124 -50.907,-27.159C-51.682,-26.8 -53.358,-26.573 -53.358,-26.573C-53.358,-26.573 -54.206,-16.462 -54.828,-11.51C-55.184,-8.679 -56.118,-3.149 -56.118,-3.149C-56.118,-3.149 -51.157,-6.557 -48.647,-8.188C-44.68,-10.767 -36.656,-15.681 -36.656,-15.681L-29.648,-20.763L-28.358,-22.267C-28.308,-22.166 -28.249,-22.069 -28.189,-21.98C-27.042,-20.248 -25.375,-19.462 -23.886,-19.03C-23.68,-18.971 -23.449,-18.931 -23.243,-18.95C-23.268,-18.447 -23.271,-17.947 -23.22,-17.556C-22.673,-13.412 -20.731,-9.586 -19.42,-5.639C-16.072,4.436 -12.297,14.273 -9.03,24.389C-8.741,25.285 -8.211,27.098 -8.211,27.098L-3.049,5.942C-3.049,5.942 -5.654,-1.985 -7.105,-5.855C-7.29,-6.348 -7.535,-6.958 -7.794,-7.598C-6.51,-6.916 -5.212,-6.383 -3.925,-6.188C-2.46,-5.966 -1.113,-6.669 0.28,-6.97C1.303,-7.19 2.494,-6.934 3.33,-7.71C3.704,-8.057 4.009,-8.648 4.076,-9.338C4.322,-11.835 3.123,-14.603 2.729,-17.24C2.457,-19.063 2.139,-20.896 2.028,-22.711C1.902,-24.793 2.81,-26.92 2.07,-28.868C1.63,-30.028 0.846,-30.848 0.001,-31.459L0,-31.459Z" style="fill:none;fill-rule:nonzero;stroke:white;stroke-width:3.12px;stroke-linejoin:bevel;"/>
      </g>
      <g transform="matrix(1,0,0,1,167.357,63.9524)">
        <path d="M0,19.755C0,19.755 -3.508,14.292 -5.48,11.97C-7.258,9.879 -9.227,8.252 -11.14,6.514C-12.714,5.083 -14.625,4.438 -15.925,2.426C-16.188,2.018 -16.462,1.453 -16.447,0.943C-16.436,0.561 -16.236,0.209 -15.997,0.122C-15.662,0 -15.268,0.43 -14.91,0.65C-14.013,1.203 -13.128,1.866 -12.279,2.631C-10.428,4.297 -8.717,6.517 -7.033,8.605C-5.463,10.552 -3.97,12.683 -2.62,14.98C-1.681,16.578 0.001,19.755 0.001,19.755L0,19.755Z" style="fill:rgb(117,22,13);fill-rule:nonzero;"/>
      </g>
      <g transform="matrix(1,0,0,1,177.626,89.2257)">
        <path d="M0,3.716C0,3.716 3.025,2.931 4.579,2.755C5.958,2.599 7.366,2.61 8.775,2.671C11.17,2.773 13.581,2.995 16.001,3.426C17.167,3.634 18.361,4.33 19.507,4.309C20.078,4.299 20.756,4.363 21.131,3.807C21.37,3.451 21.485,2.803 21.357,2.249C21.244,1.76 20.889,1.393 20.584,1.129C19.016,-0.23 17.525,0.005 15.846,-0.283C13.719,-0.647 11.505,-0.615 9.479,-0.202C7.922,0.114 6.267,0.421 4.796,1.076C3.149,1.808 0,3.716 0,3.716" style="fill:rgb(117,22,13);fill-rule:nonzero;"/>
      </g>
    </g>
    <g>
      <clipPath id="_clip3">
        <path d="M61.216,120.238L243.572,171.819L243.572,69.844L61.481,17.705L61.216,120.238Z"/>
      </clipPath>
    </g>
  </g>
  <g transform="matrix(4.84867, 1.502689, 0, 4.84867, -363.604431, 234.238937)">
    <g>
      <g transform="matrix(1,0,0,1,120.073,39.582)">
        <g transform="matrix(24,0,0,24,0,0)">
          <path d="M0.361,0.016C0.289,0.016 0.228,0 0.179,-0.032C0.13,-0.063 0.093,-0.106 0.07,-0.16C0.046,-0.214 0.036,-0.274 0.039,-0.34C0.041,-0.385 0.05,-0.43 0.067,-0.475C0.084,-0.52 0.108,-0.56 0.139,-0.597C0.169,-0.633 0.207,-0.662 0.252,-0.684C0.297,-0.705 0.348,-0.716 0.406,-0.716C0.423,-0.716 0.443,-0.714 0.466,-0.711C0.489,-0.707 0.511,-0.701 0.534,-0.694C0.557,-0.687 0.576,-0.678 0.593,-0.667L0.593,-0.709L0.67,-0.709L0.658,-0.476L0.592,-0.476C0.588,-0.513 0.578,-0.544 0.562,-0.569C0.546,-0.594 0.526,-0.612 0.501,-0.625C0.476,-0.638 0.447,-0.644 0.416,-0.644C0.381,-0.644 0.35,-0.636 0.324,-0.62C0.297,-0.604 0.274,-0.583 0.256,-0.556C0.237,-0.529 0.223,-0.499 0.213,-0.465C0.202,-0.431 0.196,-0.396 0.194,-0.36C0.191,-0.303 0.197,-0.252 0.211,-0.207C0.224,-0.162 0.246,-0.127 0.277,-0.102C0.307,-0.076 0.345,-0.063 0.39,-0.063C0.403,-0.063 0.418,-0.064 0.436,-0.066C0.454,-0.068 0.472,-0.071 0.49,-0.075C0.507,-0.079 0.522,-0.084 0.535,-0.09L0.54,-0.183C0.541,-0.201 0.543,-0.218 0.544,-0.235C0.545,-0.252 0.547,-0.264 0.548,-0.273C0.537,-0.272 0.524,-0.272 0.508,-0.272C0.492,-0.271 0.48,-0.271 0.473,-0.27L0.477,-0.347L0.74,-0.347L0.737,-0.281C0.726,-0.28 0.716,-0.279 0.708,-0.277C0.699,-0.275 0.692,-0.271 0.686,-0.266C0.68,-0.26 0.676,-0.251 0.673,-0.24C0.67,-0.229 0.667,-0.213 0.666,-0.194L0.658,-0.034L0.633,-0.034C0.616,-0.034 0.598,-0.032 0.581,-0.028C0.563,-0.023 0.544,-0.018 0.525,-0.012C0.502,-0.005 0.478,0.001 0.451,0.007C0.424,0.013 0.394,0.016 0.361,0.016Z" style="fill:rgb(1,3,3);fill-rule:nonzero;"/>
        </g>
      </g>
      <g transform="matrix(1,0,0,1,137.827,39.582)">
        <g transform="matrix(24,0,0,24,0,0)">
          <path d="M0.211,0.011C0.183,0.011 0.16,0.005 0.143,-0.008C0.125,-0.021 0.112,-0.039 0.104,-0.062C0.095,-0.085 0.091,-0.112 0.091,-0.143C0.091,-0.168 0.093,-0.195 0.098,-0.224C0.102,-0.253 0.106,-0.283 0.111,-0.312C0.115,-0.341 0.117,-0.368 0.117,-0.392C0.117,-0.403 0.115,-0.411 0.112,-0.414C0.108,-0.417 0.104,-0.418 0.101,-0.418C0.094,-0.418 0.086,-0.412 0.078,-0.401C0.07,-0.39 0.062,-0.369 0.053,-0.339L-0.001,-0.355C0.002,-0.369 0.007,-0.385 0.015,-0.403C0.022,-0.421 0.032,-0.438 0.045,-0.455C0.058,-0.471 0.073,-0.484 0.09,-0.495C0.107,-0.506 0.127,-0.511 0.15,-0.511C0.187,-0.511 0.213,-0.501 0.226,-0.481C0.239,-0.461 0.245,-0.433 0.245,-0.398C0.245,-0.378 0.244,-0.356 0.241,-0.331C0.238,-0.306 0.235,-0.28 0.232,-0.254C0.229,-0.228 0.226,-0.204 0.223,-0.181C0.22,-0.158 0.219,-0.138 0.219,-0.123C0.219,-0.113 0.22,-0.105 0.222,-0.099C0.224,-0.092 0.227,-0.088 0.231,-0.085C0.235,-0.082 0.24,-0.081 0.247,-0.081C0.258,-0.081 0.27,-0.088 0.283,-0.103C0.295,-0.118 0.307,-0.137 0.318,-0.163C0.329,-0.188 0.34,-0.215 0.349,-0.246C0.358,-0.276 0.366,-0.307 0.372,-0.339C0.377,-0.37 0.38,-0.4 0.38,-0.428C0.38,-0.437 0.38,-0.45 0.38,-0.465C0.379,-0.48 0.378,-0.492 0.377,-0.5L0.506,-0.5C0.507,-0.486 0.508,-0.476 0.509,-0.471C0.509,-0.465 0.509,-0.459 0.509,-0.452C0.509,-0.438 0.508,-0.421 0.507,-0.402C0.505,-0.382 0.503,-0.361 0.5,-0.338C0.497,-0.315 0.494,-0.293 0.491,-0.27C0.489,-0.252 0.487,-0.235 0.485,-0.218C0.482,-0.201 0.48,-0.186 0.478,-0.172C0.476,-0.157 0.475,-0.145 0.474,-0.134C0.472,-0.123 0.472,-0.114 0.472,-0.108C0.472,-0.097 0.474,-0.09 0.477,-0.087C0.48,-0.084 0.483,-0.082 0.486,-0.082C0.493,-0.082 0.501,-0.088 0.509,-0.099C0.517,-0.11 0.525,-0.131 0.534,-0.161L0.588,-0.145C0.585,-0.131 0.581,-0.115 0.575,-0.097C0.569,-0.079 0.561,-0.062 0.55,-0.046C0.539,-0.029 0.526,-0.016 0.511,-0.005C0.496,0.006 0.477,0.011 0.455,0.011C0.434,0.011 0.414,0.005 0.397,-0.008C0.38,-0.021 0.371,-0.045 0.371,-0.08C0.371,-0.093 0.372,-0.105 0.373,-0.114C0.374,-0.123 0.375,-0.134 0.376,-0.145L0.375,-0.145C0.36,-0.105 0.343,-0.074 0.325,-0.051C0.307,-0.028 0.288,-0.012 0.269,-0.003C0.25,0.006 0.23,0.011 0.211,0.011Z" style="fill:rgb(1,3,3);fill-rule:nonzero;"/>
        </g>
        <g transform="matrix(24,0,0,24,14.352,0)">
          <path d="M0.253,-0.651L0.233,-0.5L0.358,-0.5L0.352,-0.431L0.227,-0.429C0.224,-0.405 0.221,-0.379 0.218,-0.352C0.215,-0.324 0.212,-0.297 0.21,-0.271C0.207,-0.244 0.205,-0.221 0.204,-0.2C0.202,-0.179 0.201,-0.162 0.201,-0.151C0.201,-0.142 0.202,-0.133 0.204,-0.123C0.206,-0.112 0.21,-0.103 0.217,-0.096C0.224,-0.089 0.234,-0.085 0.249,-0.085C0.254,-0.085 0.262,-0.087 0.273,-0.09C0.283,-0.092 0.294,-0.098 0.306,-0.107C0.318,-0.116 0.329,-0.129 0.339,-0.148L0.39,-0.116C0.367,-0.073 0.34,-0.042 0.307,-0.021C0.274,0 0.239,0.011 0.202,0.011C0.165,0.011 0.138,0.003 0.12,-0.012C0.101,-0.027 0.089,-0.048 0.083,-0.073C0.077,-0.097 0.074,-0.124 0.075,-0.151C0.076,-0.174 0.078,-0.201 0.08,-0.232C0.082,-0.263 0.085,-0.295 0.088,-0.33C0.091,-0.364 0.095,-0.397 0.098,-0.428L0.018,-0.427L0.027,-0.5C0.076,-0.5 0.113,-0.513 0.137,-0.539C0.16,-0.565 0.177,-0.602 0.186,-0.651L0.253,-0.651Z" style="fill:rgb(1,3,3);fill-rule:nonzero;"/>
        </g>
        <g transform="matrix(24,0,0,24,23.832,0)">
          <path d="M0.2,0.011C0.168,0.011 0.138,0.006 0.112,-0.003C0.085,-0.012 0.063,-0.026 0.046,-0.044C0.029,-0.061 0.021,-0.082 0.021,-0.105C0.021,-0.126 0.027,-0.142 0.04,-0.156C0.052,-0.169 0.067,-0.175 0.085,-0.175C0.103,-0.175 0.118,-0.169 0.129,-0.157C0.14,-0.145 0.146,-0.13 0.146,-0.113C0.146,-0.108 0.146,-0.103 0.145,-0.099C0.143,-0.093 0.142,-0.088 0.14,-0.083C0.143,-0.076 0.152,-0.07 0.167,-0.064C0.181,-0.058 0.193,-0.055 0.203,-0.055C0.232,-0.055 0.253,-0.061 0.265,-0.074C0.276,-0.087 0.282,-0.101 0.282,-0.117C0.282,-0.13 0.277,-0.141 0.268,-0.151C0.258,-0.16 0.245,-0.17 0.23,-0.179C0.215,-0.188 0.198,-0.198 0.181,-0.208C0.15,-0.226 0.124,-0.243 0.103,-0.258C0.082,-0.273 0.067,-0.29 0.058,-0.307C0.048,-0.324 0.043,-0.344 0.043,-0.367C0.043,-0.39 0.05,-0.413 0.065,-0.435C0.08,-0.457 0.101,-0.475 0.13,-0.49C0.158,-0.504 0.192,-0.511 0.233,-0.511C0.26,-0.511 0.286,-0.507 0.312,-0.498C0.337,-0.489 0.359,-0.477 0.376,-0.461C0.393,-0.444 0.401,-0.424 0.401,-0.401C0.401,-0.384 0.395,-0.368 0.384,-0.355C0.373,-0.342 0.357,-0.335 0.338,-0.335C0.32,-0.335 0.306,-0.341 0.295,-0.354C0.284,-0.366 0.278,-0.38 0.278,-0.396C0.278,-0.401 0.279,-0.406 0.28,-0.411C0.281,-0.416 0.282,-0.42 0.284,-0.425C0.279,-0.432 0.271,-0.438 0.26,-0.441C0.249,-0.444 0.238,-0.445 0.229,-0.445C0.22,-0.445 0.21,-0.443 0.2,-0.439C0.189,-0.435 0.18,-0.429 0.173,-0.422C0.166,-0.414 0.162,-0.404 0.162,-0.393C0.162,-0.384 0.164,-0.376 0.169,-0.369C0.173,-0.362 0.182,-0.354 0.195,-0.345C0.208,-0.335 0.228,-0.323 0.255,-0.307C0.277,-0.294 0.3,-0.281 0.323,-0.266C0.345,-0.251 0.365,-0.234 0.381,-0.215C0.396,-0.195 0.404,-0.171 0.404,-0.143C0.404,-0.113 0.395,-0.086 0.377,-0.063C0.359,-0.04 0.335,-0.022 0.304,-0.009C0.273,0.005 0.239,0.011 0.2,0.011Z" style="fill:rgb(1,3,3);fill-rule:nonzero;"/>
        </g>
        <g transform="matrix(24,0,0,24,34.536,0)">
          <path d="M0.273,-0.511C0.304,-0.511 0.331,-0.506 0.356,-0.496C0.38,-0.486 0.399,-0.472 0.414,-0.455C0.428,-0.437 0.435,-0.416 0.435,-0.391C0.435,-0.371 0.429,-0.355 0.418,-0.342C0.406,-0.329 0.39,-0.323 0.371,-0.322C0.348,-0.321 0.332,-0.328 0.323,-0.343C0.314,-0.357 0.309,-0.37 0.309,-0.381C0.309,-0.387 0.31,-0.394 0.312,-0.402C0.313,-0.409 0.316,-0.416 0.319,-0.423C0.316,-0.429 0.311,-0.434 0.302,-0.439C0.293,-0.443 0.283,-0.445 0.271,-0.445C0.25,-0.445 0.232,-0.438 0.219,-0.424C0.205,-0.409 0.194,-0.391 0.187,-0.369C0.179,-0.347 0.173,-0.324 0.17,-0.3C0.167,-0.275 0.165,-0.253 0.164,-0.233C0.163,-0.197 0.166,-0.168 0.174,-0.146C0.182,-0.124 0.193,-0.108 0.206,-0.098C0.219,-0.088 0.233,-0.082 0.247,-0.081C0.26,-0.08 0.274,-0.082 0.29,-0.087C0.306,-0.091 0.322,-0.1 0.339,-0.116C0.356,-0.131 0.371,-0.154 0.384,-0.185L0.441,-0.157C0.422,-0.114 0.401,-0.08 0.378,-0.055C0.355,-0.03 0.33,-0.013 0.304,-0.004C0.278,0.006 0.251,0.011 0.223,0.011C0.164,0.01 0.117,-0.008 0.081,-0.043C0.045,-0.078 0.027,-0.133 0.027,-0.207C0.027,-0.239 0.032,-0.273 0.042,-0.308C0.052,-0.343 0.067,-0.376 0.088,-0.407C0.108,-0.438 0.133,-0.463 0.164,-0.482C0.195,-0.501 0.231,-0.511 0.273,-0.511Z" style="fill:rgb(1,3,3);fill-rule:nonzero;"/>
        </g>
        <g transform="matrix(24,0,0,24,45.744,0)">
          <path d="M0.417,0.011C0.38,0.011 0.355,0.001 0.342,-0.019C0.329,-0.039 0.322,-0.067 0.322,-0.102C0.322,-0.122 0.323,-0.145 0.326,-0.17C0.329,-0.195 0.332,-0.22 0.335,-0.246C0.338,-0.272 0.34,-0.297 0.343,-0.32C0.346,-0.342 0.347,-0.362 0.347,-0.377C0.347,-0.387 0.346,-0.395 0.344,-0.402C0.342,-0.408 0.339,-0.412 0.335,-0.415C0.331,-0.418 0.326,-0.419 0.319,-0.419C0.307,-0.419 0.295,-0.412 0.282,-0.397C0.269,-0.382 0.256,-0.363 0.244,-0.338C0.231,-0.313 0.22,-0.285 0.211,-0.255C0.201,-0.224 0.193,-0.193 0.188,-0.162C0.182,-0.13 0.179,-0.1 0.179,-0.072C0.179,-0.063 0.179,-0.051 0.18,-0.036C0.181,-0.02 0.181,-0.008 0.182,-0L0.054,-0C0.053,-0.014 0.052,-0.024 0.052,-0.03C0.051,-0.035 0.051,-0.041 0.051,-0.048C0.051,-0.081 0.052,-0.116 0.053,-0.153C0.054,-0.19 0.056,-0.227 0.058,-0.265C0.06,-0.302 0.062,-0.339 0.065,-0.375C0.068,-0.411 0.071,-0.445 0.074,-0.476C0.077,-0.507 0.079,-0.535 0.082,-0.559C0.083,-0.57 0.085,-0.585 0.088,-0.604C0.09,-0.623 0.092,-0.639 0.095,-0.652L0.025,-0.649L0.029,-0.725C0.06,-0.725 0.086,-0.727 0.107,-0.73C0.128,-0.733 0.144,-0.737 0.156,-0.742C0.168,-0.747 0.176,-0.751 0.181,-0.755L0.235,-0.755C0.233,-0.736 0.23,-0.713 0.227,-0.686C0.224,-0.659 0.221,-0.634 0.218,-0.609C0.215,-0.584 0.212,-0.564 0.21,-0.551C0.209,-0.546 0.208,-0.536 0.207,-0.523C0.206,-0.509 0.204,-0.493 0.201,-0.474C0.198,-0.455 0.196,-0.436 0.193,-0.417C0.19,-0.397 0.186,-0.378 0.182,-0.36L0.183,-0.36C0.198,-0.4 0.216,-0.431 0.235,-0.453C0.254,-0.475 0.274,-0.49 0.295,-0.499C0.316,-0.507 0.335,-0.511 0.354,-0.511C0.397,-0.511 0.428,-0.497 0.447,-0.47C0.466,-0.442 0.476,-0.404 0.476,-0.357C0.476,-0.333 0.474,-0.306 0.47,-0.277C0.466,-0.248 0.462,-0.218 0.458,-0.189C0.453,-0.16 0.451,-0.133 0.451,-0.108C0.451,-0.097 0.452,-0.09 0.456,-0.087C0.459,-0.084 0.462,-0.082 0.466,-0.082C0.473,-0.082 0.481,-0.088 0.489,-0.099C0.497,-0.11 0.505,-0.131 0.514,-0.161L0.568,-0.145C0.565,-0.131 0.56,-0.115 0.553,-0.097C0.545,-0.079 0.535,-0.062 0.522,-0.046C0.509,-0.029 0.494,-0.016 0.477,-0.005C0.46,0.006 0.44,0.011 0.417,0.011Z" style="fill:rgb(1,3,3);fill-rule:nonzero;"/>
        </g>
        <g transform="matrix(24,0,0,24,59.52,0)">
          <path d="M0.28,-0.511C0.309,-0.511 0.335,-0.507 0.358,-0.498C0.381,-0.489 0.398,-0.476 0.411,-0.457C0.424,-0.438 0.43,-0.414 0.43,-0.385C0.43,-0.358 0.422,-0.335 0.406,-0.316C0.389,-0.297 0.368,-0.281 0.342,-0.269C0.315,-0.257 0.286,-0.247 0.255,-0.24C0.224,-0.232 0.193,-0.226 0.164,-0.222C0.164,-0.184 0.169,-0.155 0.178,-0.135C0.187,-0.114 0.198,-0.1 0.212,-0.093C0.226,-0.085 0.24,-0.081 0.254,-0.081C0.265,-0.081 0.279,-0.083 0.295,-0.088C0.31,-0.092 0.326,-0.101 0.342,-0.115C0.358,-0.129 0.372,-0.15 0.384,-0.177L0.44,-0.15C0.421,-0.107 0.4,-0.073 0.377,-0.05C0.354,-0.027 0.329,-0.011 0.304,-0.002C0.279,0.007 0.253,0.011 0.227,0.011C0.166,0.012 0.117,-0.006 0.081,-0.042C0.045,-0.078 0.027,-0.133 0.027,-0.207C0.027,-0.239 0.032,-0.273 0.042,-0.308C0.052,-0.343 0.067,-0.376 0.088,-0.407C0.108,-0.438 0.134,-0.463 0.166,-0.482C0.198,-0.501 0.236,-0.511 0.28,-0.511ZM0.269,-0.445C0.246,-0.445 0.228,-0.437 0.214,-0.421C0.2,-0.405 0.189,-0.385 0.182,-0.361C0.175,-0.336 0.17,-0.312 0.167,-0.287C0.203,-0.294 0.232,-0.303 0.253,-0.314C0.274,-0.325 0.29,-0.338 0.3,-0.353C0.309,-0.368 0.314,-0.383 0.313,-0.399C0.312,-0.416 0.307,-0.428 0.298,-0.435C0.289,-0.442 0.279,-0.445 0.269,-0.445Z" style="fill:rgb(1,3,3);fill-rule:nonzero;"/>
        </g>
        <g transform="matrix(24,0,0,24,70.8,0)">
          <path d="M0.156,-0.511C0.191,-0.511 0.215,-0.501 0.229,-0.48C0.242,-0.459 0.249,-0.43 0.249,-0.395C0.249,-0.379 0.247,-0.357 0.244,-0.33C0.241,-0.303 0.237,-0.274 0.233,-0.244C0.229,-0.214 0.225,-0.187 0.222,-0.162C0.219,-0.137 0.217,-0.119 0.217,-0.108C0.217,-0.097 0.219,-0.09 0.222,-0.087C0.225,-0.084 0.229,-0.082 0.232,-0.082C0.24,-0.082 0.248,-0.088 0.256,-0.099C0.264,-0.11 0.272,-0.131 0.281,-0.161L0.335,-0.145C0.332,-0.131 0.327,-0.115 0.32,-0.097C0.312,-0.079 0.302,-0.062 0.289,-0.046C0.276,-0.029 0.261,-0.016 0.244,-0.005C0.226,0.006 0.206,0.011 0.183,0.011C0.146,0.011 0.121,0.001 0.108,-0.019C0.094,-0.039 0.087,-0.067 0.087,-0.102C0.087,-0.121 0.089,-0.144 0.092,-0.171C0.095,-0.198 0.099,-0.225 0.104,-0.253C0.108,-0.281 0.112,-0.307 0.115,-0.332C0.118,-0.356 0.12,-0.376 0.12,-0.392C0.12,-0.403 0.118,-0.411 0.115,-0.414C0.112,-0.417 0.108,-0.418 0.104,-0.418C0.097,-0.418 0.089,-0.412 0.081,-0.401C0.073,-0.39 0.065,-0.369 0.056,-0.339L0.002,-0.355C0.005,-0.369 0.01,-0.385 0.018,-0.403C0.026,-0.421 0.037,-0.438 0.05,-0.455C0.063,-0.471 0.078,-0.484 0.096,-0.495C0.113,-0.506 0.133,-0.511 0.156,-0.511ZM0.191,-0.763C0.213,-0.763 0.231,-0.755 0.245,-0.739C0.258,-0.723 0.264,-0.703 0.263,-0.68C0.262,-0.657 0.255,-0.638 0.24,-0.623C0.225,-0.607 0.207,-0.599 0.185,-0.599C0.162,-0.599 0.144,-0.607 0.131,-0.623C0.117,-0.638 0.11,-0.657 0.111,-0.68C0.112,-0.703 0.121,-0.723 0.137,-0.739C0.153,-0.755 0.171,-0.763 0.191,-0.763Z" style="fill:rgb(1,3,3);fill-rule:nonzero;"/>
        </g>
        <g transform="matrix(24,0,0,24,79.056,0)">
          <path d="M0.453,0.011C0.416,0.011 0.392,0.001 0.379,-0.019C0.366,-0.039 0.359,-0.067 0.359,-0.102C0.359,-0.122 0.36,-0.145 0.363,-0.17C0.366,-0.195 0.369,-0.22 0.372,-0.246C0.375,-0.272 0.377,-0.297 0.38,-0.32C0.383,-0.342 0.384,-0.362 0.384,-0.377C0.384,-0.387 0.383,-0.395 0.381,-0.402C0.379,-0.408 0.376,-0.412 0.372,-0.415C0.368,-0.418 0.363,-0.419 0.356,-0.419C0.344,-0.419 0.332,-0.412 0.319,-0.397C0.306,-0.382 0.293,-0.363 0.281,-0.338C0.269,-0.313 0.258,-0.285 0.249,-0.255C0.24,-0.224 0.232,-0.193 0.227,-0.162C0.221,-0.13 0.218,-0.1 0.218,-0.072C0.218,-0.063 0.218,-0.051 0.219,-0.036C0.22,-0.02 0.22,-0.008 0.221,-0L0.092,-0C0.091,-0.014 0.09,-0.024 0.09,-0.03C0.089,-0.035 0.089,-0.041 0.089,-0.048C0.089,-0.062 0.09,-0.079 0.092,-0.098C0.093,-0.117 0.095,-0.137 0.098,-0.16C0.101,-0.182 0.103,-0.204 0.106,-0.226C0.108,-0.244 0.11,-0.262 0.113,-0.279C0.115,-0.296 0.117,-0.312 0.119,-0.327C0.121,-0.342 0.123,-0.355 0.124,-0.366C0.125,-0.377 0.125,-0.386 0.125,-0.392C0.125,-0.403 0.124,-0.411 0.121,-0.414C0.118,-0.417 0.114,-0.418 0.111,-0.418C0.104,-0.418 0.096,-0.412 0.088,-0.401C0.08,-0.39 0.072,-0.369 0.063,-0.339L0.008,-0.355C0.011,-0.369 0.016,-0.385 0.022,-0.403C0.028,-0.421 0.036,-0.438 0.047,-0.455C0.058,-0.471 0.071,-0.484 0.086,-0.495C0.101,-0.506 0.12,-0.511 0.142,-0.511C0.157,-0.511 0.17,-0.508 0.183,-0.503C0.196,-0.498 0.206,-0.489 0.214,-0.476C0.222,-0.463 0.226,-0.444 0.226,-0.42C0.226,-0.407 0.225,-0.397 0.224,-0.389C0.223,-0.381 0.221,-0.371 0.22,-0.36L0.221,-0.36C0.237,-0.4 0.255,-0.431 0.274,-0.453C0.293,-0.475 0.312,-0.49 0.333,-0.499C0.353,-0.507 0.373,-0.511 0.392,-0.511C0.421,-0.511 0.444,-0.505 0.461,-0.492C0.478,-0.479 0.491,-0.462 0.5,-0.439C0.508,-0.416 0.512,-0.388 0.512,-0.357C0.512,-0.333 0.51,-0.306 0.506,-0.277C0.502,-0.248 0.498,-0.218 0.494,-0.189C0.489,-0.16 0.487,-0.133 0.487,-0.108C0.487,-0.097 0.489,-0.09 0.492,-0.087C0.495,-0.084 0.499,-0.082 0.502,-0.082C0.509,-0.082 0.517,-0.088 0.525,-0.099C0.533,-0.11 0.541,-0.131 0.55,-0.161L0.604,-0.145C0.601,-0.131 0.596,-0.115 0.589,-0.097C0.581,-0.079 0.571,-0.062 0.558,-0.046C0.545,-0.029 0.53,-0.016 0.513,-0.005C0.496,0.006 0.476,0.011 0.453,0.011Z" style="fill:rgb(1,3,3);fill-rule:nonzero;"/>
        </g>
      </g>
    </g>
  </g>
  <defs>
    <linearGradient id="_Linear1" x1="0" y1="0" x2="1" y2="0" gradientUnits="userSpaceOnUse" gradientTransform="matrix(-0.707107,-0.707107,0.707107,-0.707107,0.693648,0.287319)">
      <stop offset="0" style="stop-color:white;stop-opacity:1"/>
      <stop offset="1" style="stop-color:rgb(29,29,27);stop-opacity:1"/>
    </linearGradient>
    <linearGradient id="_Linear2" x1="0" y1="0" x2="1" y2="0" gradientUnits="userSpaceOnUse" gradientTransform="matrix(0.707107,-0.707107,0.707107,0.707107,0.146445,0.35355)">
      <stop offset="0" style="stop-color:white;stop-opacity:1"/>
      <stop offset="1" style="stop-color:rgb(212,212,211);stop-opacity:1"/>
    </linearGradient>
  </defs>
</svg>