<?xml version="1.0" encoding="utf-8"?>
<svg width="100%" height="100%" viewBox="0 0 1129 1116" version="1.1" xmlns="http://www.w3.org/2000/svg">
  <g>
    <rect x="0.246" y="-798.062" width="1127.854" height="798.216" style="fill: url('#_Linear1');" transform="matrix(1, 0, 0, -1, 0, 0)"/>
  </g>
  <g>
    <path d="M 374.756 158.05 C 367.556 158.05 361.456 156.45 356.556 153.25 C 351.656 150.15 347.956 145.85 345.656 140.45 C 343.256 135.05 342.256 129.05 342.556 122.45 C 342.756 117.95 343.656 113.45 345.356 108.95 C 347.056 104.45 349.456 100.45 352.556 96.75 C 355.556 93.15 359.356 90.25 363.856 88.05 C 368.356 85.95 373.456 84.85 379.256 84.85 C 380.956 84.85 382.956 85.05 385.256 85.35 C 387.556 85.75 389.756 86.35 392.056 87.05 C 394.356 87.75 396.256 88.65 397.956 89.75 L 397.956 85.55 L 405.656 85.55 L 404.456 108.85 L 397.856 108.85 C 397.456 105.15 396.456 102.05 394.856 99.55 C 393.256 97.05 391.256 95.25 388.756 93.95 C 386.256 92.65 383.356 92.05 380.256 92.05 C 376.756 92.05 373.656 92.85 371.056 94.45 C 368.356 96.05 366.056 98.15 364.256 100.85 C 362.356 103.55 360.956 106.55 359.956 109.95 C 358.856 113.35 358.256 116.85 358.056 120.45 C 357.756 126.15 358.356 131.25 359.756 135.75 C 361.056 140.25 363.256 143.75 366.356 146.25 C 369.356 148.85 373.156 150.15 377.656 150.15 C 378.956 150.15 380.456 150.05 382.256 149.85 C 384.056 149.65 385.856 149.35 387.656 148.95 C 389.356 148.55 390.856 148.05 392.156 147.45 L 392.656 138.15 C 392.756 136.35 392.956 134.65 393.056 132.95 C 393.156 131.25 393.356 130.05 393.456 129.15 C 392.356 129.25 391.056 129.25 389.456 129.25 C 387.856 129.35 386.656 129.35 385.956 129.45 L 386.356 121.75 L 412.656 121.75 L 412.356 128.35 C 411.256 128.45 410.256 128.55 409.456 128.75 C 408.556 128.95 407.856 129.35 407.256 129.85 C 406.656 130.45 406.256 131.35 405.956 132.45 C 405.656 133.55 405.356 135.15 405.256 137.05 L 404.456 153.05 L 401.956 153.05 C 400.256 153.05 398.456 153.25 396.756 153.65 C 394.956 154.15 393.056 154.65 391.156 155.25 C 388.856 155.95 386.456 156.55 383.756 157.15 C 381.056 157.75 378.056 158.05 374.756 158.05 Z"/>
    <path d="M 433.731 157.55 C 430.931 157.55 428.631 156.95 426.931 155.65 C 425.131 154.35 423.831 152.55 423.031 150.25 C 422.131 147.95 421.731 145.25 421.731 142.15 C 421.731 139.65 421.931 136.95 422.431 134.05 C 422.831 131.15 423.231 128.15 423.731 125.25 C 424.131 122.35 424.331 119.65 424.331 117.25 C 424.331 116.15 424.131 115.35 423.831 115.05 C 423.431 114.75 423.031 114.65 422.731 114.65 C 422.031 114.65 421.231 115.25 420.431 116.35 C 419.631 117.45 418.831 119.55 417.931 122.55 L 412.531 120.95 C 412.831 119.55 413.331 117.95 414.131 116.15 C 414.831 114.35 415.831 112.65 417.131 110.95 C 418.431 109.35 419.931 108.05 421.631 106.95 C 423.331 105.85 425.331 105.35 427.631 105.35 C 431.331 105.35 433.931 106.35 435.231 108.35 C 436.531 110.35 437.131 113.15 437.131 116.65 C 437.131 118.65 437.031 120.85 436.731 123.35 C 436.431 125.85 436.131 128.45 435.831 131.05 C 435.531 133.65 435.231 136.05 434.931 138.35 C 434.631 140.65 434.531 142.65 434.531 144.15 C 434.531 145.15 434.631 145.95 434.831 146.55 C 435.031 147.25 435.331 147.65 435.731 147.95 C 436.131 148.25 436.631 148.35 437.331 148.35 C 438.431 148.35 439.631 147.65 440.931 146.15 C 442.131 144.65 443.331 142.75 444.431 140.15 C 445.531 137.65 446.631 134.95 447.531 131.85 C 448.431 128.85 449.231 125.75 449.831 122.55 C 450.331 119.45 450.631 116.45 450.631 113.65 C 450.631 112.75 450.631 111.45 450.631 109.95 C 450.531 108.45 450.431 107.25 450.331 106.45 L 463.231 106.45 C 463.331 107.85 463.431 108.85 463.531 109.35 C 463.531 109.95 463.531 110.55 463.531 111.25 C 463.531 112.65 463.431 114.35 463.331 116.25 C 463.131 118.25 462.931 120.35 462.631 122.65 C 462.331 124.95 462.031 127.15 461.731 129.45 C 461.531 131.25 461.331 132.95 461.131 134.65 C 460.831 136.35 460.631 137.85 460.431 139.25 C 460.231 140.75 460.131 141.95 460.031 143.05 C 459.831 144.15 459.831 145.05 459.831 145.65 C 459.831 146.75 460.031 147.45 460.331 147.75 C 460.631 148.05 460.931 148.25 461.231 148.25 C 461.931 148.25 462.731 147.65 463.531 146.55 C 464.331 145.45 465.131 143.35 466.031 140.35 L 471.431 141.95 C 471.131 143.35 470.731 144.95 470.131 146.75 C 469.531 148.55 468.731 150.25 467.631 151.85 C 466.531 153.55 465.231 154.85 463.731 155.95 C 462.231 157.05 460.331 157.55 458.131 157.55 C 456.031 157.55 454.031 156.95 452.331 155.65 C 450.631 154.35 449.731 151.95 449.731 148.45 C 449.731 147.15 449.831 145.95 449.931 145.05 C 450.031 144.15 450.131 143.05 450.231 141.95 L 450.131 141.95 C 448.631 145.95 446.931 149.05 445.131 151.35 C 443.331 153.65 441.431 155.25 439.531 156.15 C 437.631 157.05 435.631 157.55 433.731 157.55 Z"/>
    <path d="M 497.731 91.35 L 495.731 106.45 L 508.231 106.45 L 507.631 113.35 L 495.131 113.55 C 494.831 115.95 494.531 118.55 494.231 121.25 C 493.931 124.05 493.631 126.75 493.431 129.35 C 493.131 132.05 492.931 134.35 492.831 136.45 C 492.631 138.55 492.531 140.25 492.531 141.35 C 492.531 142.25 492.631 143.15 492.831 144.15 C 493.031 145.25 493.431 146.15 494.131 146.85 C 494.831 147.55 495.831 147.95 497.331 147.95 C 497.831 147.95 498.631 147.75 499.731 147.45 C 500.731 147.25 501.831 146.65 503.031 145.75 C 504.231 144.85 505.331 143.55 506.331 141.65 L 511.431 144.85 C 509.131 149.15 506.431 152.25 503.131 154.35 C 499.831 156.45 496.331 157.55 492.631 157.55 C 488.931 157.55 486.231 156.75 484.431 155.25 C 482.531 153.75 481.331 151.65 480.731 149.15 C 480.131 146.75 479.831 144.05 479.931 141.35 C 480.031 139.05 480.231 136.35 480.431 133.25 C 480.631 130.15 480.931 126.95 481.231 123.45 C 481.531 120.05 481.931 116.75 482.231 113.65 L 474.231 113.75 L 475.131 106.45 C 480.031 106.45 483.731 105.15 486.131 102.55 C 488.431 99.95 490.131 96.25 491.031 91.35 L 497.731 91.35 Z"/>
    <path d="M 531.931 157.55 C 528.731 157.55 525.731 157.05 523.131 156.15 C 520.431 155.25 518.231 153.85 516.531 152.05 C 514.831 150.35 514.031 148.25 514.031 145.95 C 514.031 143.85 514.631 142.25 515.931 140.85 C 517.131 139.55 518.631 138.95 520.431 138.95 C 522.231 138.95 523.731 139.55 524.831 140.75 C 525.931 141.95 526.531 143.45 526.531 145.15 C 526.531 145.65 526.531 146.15 526.431 146.55 C 526.231 147.15 526.131 147.65 525.931 148.15 C 526.231 148.85 527.131 149.45 528.631 150.05 C 530.031 150.65 531.231 150.95 532.231 150.95 C 535.131 150.95 537.231 150.35 538.431 149.05 C 539.531 147.75 540.131 146.35 540.131 144.75 C 540.131 143.45 539.631 142.35 538.731 141.35 C 537.731 140.45 536.431 139.45 534.931 138.55 C 533.431 137.65 531.731 136.65 530.031 135.65 C 526.931 133.85 524.331 132.15 522.231 130.65 C 520.131 129.15 518.631 127.45 517.731 125.75 C 516.731 124.05 516.231 122.05 516.231 119.75 C 516.231 117.45 516.931 115.15 518.431 112.95 C 519.931 110.75 522.031 108.95 524.931 107.45 C 527.731 106.05 531.131 105.35 535.231 105.35 C 537.931 105.35 540.531 105.75 543.131 106.65 C 545.631 107.55 547.831 108.75 549.531 110.35 C 551.231 112.05 552.031 114.05 552.031 116.35 C 552.031 118.05 551.431 119.65 550.331 120.95 C 549.231 122.25 547.631 122.95 545.731 122.95 C 543.931 122.95 542.531 122.35 541.431 121.05 C 540.331 119.85 539.731 118.45 539.731 116.85 C 539.731 116.35 539.831 115.85 539.931 115.35 C 540.031 114.85 540.131 114.45 540.331 113.95 C 539.831 113.25 539.031 112.65 537.931 112.35 C 536.831 112.05 535.731 111.95 534.831 111.95 C 533.931 111.95 532.931 112.15 531.931 112.55 C 530.831 112.95 529.931 113.55 529.231 114.25 C 528.531 115.05 528.131 116.05 528.131 117.15 C 528.131 118.05 528.331 118.85 528.831 119.55 C 529.231 120.25 530.131 121.05 531.431 121.95 C 532.731 122.95 534.731 124.15 537.431 125.75 C 539.631 127.05 541.931 128.35 544.231 129.85 C 546.431 131.35 548.431 133.05 550.031 134.95 C 551.531 136.95 552.331 139.35 552.331 142.15 C 552.331 145.15 551.431 147.85 549.631 150.15 C 547.831 152.45 545.431 154.25 542.331 155.55 C 539.231 156.95 535.831 157.55 531.931 157.55 Z"/>
    <path d="M 583.831 105.35 C 586.931 105.35 589.631 105.85 592.131 106.85 C 594.531 107.85 596.431 109.25 597.931 110.95 C 599.331 112.75 600.031 114.85 600.031 117.35 C 600.031 119.35 599.431 120.95 598.331 122.25 C 597.131 123.55 595.531 124.15 593.631 124.25 C 591.331 124.35 589.731 123.65 588.831 122.15 C 587.931 120.75 587.431 119.45 587.431 118.35 C 587.431 117.75 587.531 117.05 587.731 116.25 C 587.831 115.55 588.131 114.85 588.431 114.15 C 588.131 113.55 587.631 113.05 586.731 112.55 C 585.831 112.15 584.831 111.95 583.631 111.95 C 581.531 111.95 579.731 112.65 578.431 114.05 C 577.031 115.55 575.931 117.35 575.231 119.55 C 574.431 121.75 573.831 124.05 573.531 126.45 C 573.231 128.95 573.031 131.15 572.931 133.15 C 572.831 136.75 573.131 139.65 573.931 141.85 C 574.731 144.05 575.831 145.65 577.131 146.65 C 578.431 147.65 579.831 148.25 581.231 148.35 C 582.531 148.45 583.931 148.25 585.531 147.75 C 587.131 147.35 588.731 146.45 590.431 144.85 C 592.131 143.35 593.631 141.05 594.931 137.95 L 600.631 140.75 C 598.731 145.05 596.631 148.45 594.331 150.95 C 592.031 153.45 589.531 155.15 586.931 156.05 C 584.331 157.05 581.631 157.55 578.831 157.55 C 572.931 157.45 568.231 155.65 564.631 152.15 C 561.031 148.65 559.231 143.15 559.231 135.75 C 559.231 132.55 559.731 129.15 560.731 125.65 C 561.731 122.15 563.231 118.85 565.331 115.75 C 567.331 112.65 569.831 110.15 572.931 108.25 C 576.031 106.35 579.631 105.35 583.831 105.35 Z"/>
    <path d="M 644.931 157.55 C 641.231 157.55 638.731 156.55 637.431 154.55 C 636.131 152.55 635.431 149.75 635.431 146.25 C 635.431 144.25 635.531 141.95 635.831 139.45 C 636.131 136.95 636.431 134.45 636.731 131.85 C 637.031 129.25 637.231 126.75 637.531 124.45 C 637.831 122.25 637.931 120.25 637.931 118.75 C 637.931 117.75 637.831 116.95 637.631 116.25 C 637.431 115.65 637.131 115.25 636.731 114.95 C 636.331 114.65 635.831 114.55 635.131 114.55 C 633.931 114.55 632.731 115.25 631.431 116.75 C 630.131 118.25 628.831 120.15 627.631 122.65 C 626.331 125.15 625.231 127.95 624.331 130.95 C 623.331 134.05 622.531 137.15 622.031 140.25 C 621.431 143.45 621.131 146.45 621.131 149.25 C 621.131 150.15 621.131 151.35 621.231 152.85 C 621.331 154.45 621.331 155.65 621.431 156.45 L 608.631 156.45 C 608.531 155.05 608.431 154.05 608.431 153.45 C 608.331 152.95 608.331 152.35 608.331 151.65 C 608.331 148.35 608.431 144.85 608.531 141.15 C 608.631 137.45 608.831 133.75 609.031 129.95 C 609.231 126.25 609.431 122.55 609.731 118.95 C 610.031 115.35 610.331 111.95 610.631 108.85 C 610.931 105.75 611.131 102.95 611.431 100.55 C 611.531 99.45 611.731 97.95 612.031 96.05 C 612.231 94.15 612.431 92.55 612.731 91.25 L 605.731 91.55 L 606.131 83.95 C 609.231 83.95 611.831 83.75 613.931 83.45 C 616.031 83.15 617.631 82.75 618.831 82.25 C 620.031 81.75 620.831 81.35 621.331 80.95 L 626.731 80.95 C 626.531 82.85 626.231 85.15 625.931 87.85 C 625.631 90.55 625.331 93.05 625.031 95.55 C 624.731 98.05 624.431 100.05 624.231 101.35 C 624.131 101.85 624.031 102.85 623.931 104.15 C 623.831 105.55 623.631 107.15 623.331 109.05 C 623.031 110.95 622.831 112.85 622.531 114.75 C 622.231 116.75 621.831 118.65 621.431 120.45 L 621.531 120.45 C 623.031 116.45 624.831 113.35 626.731 111.15 C 628.631 108.95 630.631 107.45 632.731 106.55 C 634.831 105.75 636.731 105.35 638.631 105.35 C 642.931 105.35 646.031 106.75 647.931 109.45 C 649.831 112.25 650.831 116.05 650.831 120.75 C 650.831 123.15 650.631 125.85 650.231 128.75 C 649.831 131.65 649.431 134.65 649.031 137.55 C 648.531 140.45 648.331 143.15 648.331 145.65 C 648.331 146.75 648.431 147.45 648.831 147.75 C 649.131 148.05 649.431 148.25 649.831 148.25 C 650.531 148.25 651.331 147.65 652.131 146.55 C 652.931 145.45 653.731 143.35 654.631 140.35 L 660.031 141.95 C 659.731 143.35 659.231 144.95 658.531 146.75 C 657.731 148.55 656.731 150.25 655.431 151.85 C 654.131 153.55 652.631 154.85 650.931 155.95 C 649.231 157.05 647.231 157.55 644.931 157.55 Z"/>
    <path d="M 688.631 105.35 C 691.531 105.35 694.131 105.75 696.431 106.65 C 698.731 107.55 700.431 108.85 701.731 110.75 C 703.031 112.65 703.631 115.05 703.631 117.95 C 703.631 120.65 702.831 122.95 701.231 124.85 C 699.531 126.75 697.431 128.35 694.831 129.55 C 692.131 130.75 689.231 131.75 686.131 132.45 C 683.031 133.25 679.931 133.85 677.031 134.25 C 677.031 138.05 677.531 140.95 678.431 142.95 C 679.331 145.05 680.431 146.45 681.831 147.15 C 683.231 147.95 684.631 148.35 686.031 148.35 C 687.131 148.35 688.531 148.15 690.131 147.65 C 691.631 147.25 693.231 146.35 694.831 144.95 C 696.431 143.55 697.831 141.45 699.031 138.75 L 704.631 141.45 C 702.731 145.75 700.631 149.15 698.331 151.45 C 696.031 153.75 693.531 155.35 691.031 156.25 C 688.531 157.15 685.931 157.55 683.331 157.55 C 677.231 157.65 672.331 155.85 668.731 152.25 C 665.131 148.65 663.331 143.15 663.331 135.75 C 663.331 132.55 663.831 129.15 664.831 125.65 C 665.831 122.15 667.331 118.85 669.431 115.75 C 671.431 112.65 674.031 110.15 677.231 108.25 C 680.431 106.35 684.231 105.35 688.631 105.35 Z M 687.531 111.95 C 685.231 111.95 683.431 112.75 682.031 114.35 C 680.631 115.95 679.531 117.95 678.831 120.35 C 678.131 122.85 677.631 125.25 677.331 127.75 C 680.931 127.05 683.831 126.15 685.931 125.05 C 688.031 123.95 689.631 122.65 690.631 121.15 C 691.531 119.65 692.031 118.15 691.931 116.55 C 691.831 114.85 691.331 113.65 690.431 112.95 C 689.531 112.25 688.531 111.95 687.531 111.95 Z"/>
    <path d="M 723.231 105.35 C 726.731 105.35 729.131 106.35 730.531 108.45 C 731.831 110.55 732.531 113.45 732.531 116.95 C 732.531 118.55 732.331 120.75 732.031 123.45 C 731.731 126.15 731.331 129.05 730.931 132.05 C 730.531 135.05 730.131 137.75 729.831 140.25 C 729.531 142.75 729.331 144.55 729.331 145.65 C 729.331 146.75 729.531 147.45 729.831 147.75 C 730.131 148.05 730.531 148.25 730.831 148.25 C 731.631 148.25 732.431 147.65 733.231 146.55 C 734.031 145.45 734.831 143.35 735.731 140.35 L 741.131 141.95 C 740.831 143.35 740.331 144.95 739.631 146.75 C 738.831 148.55 737.831 150.25 736.531 151.85 C 735.231 153.55 733.731 154.85 732.031 155.95 C 730.231 157.05 728.231 157.55 725.931 157.55 C 722.231 157.55 719.731 156.55 718.431 154.55 C 717.031 152.55 716.331 149.75 716.331 146.25 C 716.331 144.35 716.531 142.05 716.831 139.35 C 717.131 136.65 717.531 133.95 718.031 131.15 C 718.431 128.35 718.831 125.75 719.131 123.25 C 719.431 120.85 719.631 118.85 719.631 117.25 C 719.631 116.15 719.431 115.35 719.131 115.05 C 718.831 114.75 718.431 114.65 718.031 114.65 C 717.331 114.65 716.531 115.25 715.731 116.35 C 714.931 117.45 714.131 119.55 713.231 122.55 L 707.831 120.95 C 708.131 119.55 708.631 117.95 709.431 116.15 C 710.231 114.35 711.331 112.65 712.631 110.95 C 713.931 109.35 715.431 108.05 717.231 106.95 C 718.931 105.85 720.931 105.35 723.231 105.35 Z M 726.731 80.15 C 728.931 80.15 730.731 80.95 732.131 82.55 C 733.431 84.15 734.031 86.15 733.931 88.45 C 733.831 90.75 733.131 92.65 731.631 94.15 C 730.131 95.75 728.331 96.55 726.131 96.55 C 723.831 96.55 722.031 95.75 720.731 94.15 C 719.331 92.65 718.631 90.75 718.731 88.45 C 718.831 86.15 719.731 84.15 721.331 82.55 C 722.931 80.95 724.731 80.15 726.731 80.15 Z"/>
    <path d="M 787.331 157.55 C 783.631 157.55 781.231 156.55 779.931 154.55 C 778.631 152.55 777.931 149.75 777.931 146.25 C 777.931 144.25 778.031 141.95 778.331 139.45 C 778.631 136.95 778.931 134.45 779.231 131.85 C 779.531 129.25 779.731 126.75 780.031 124.45 C 780.331 122.25 780.431 120.25 780.431 118.75 C 780.431 117.75 780.331 116.95 780.131 116.25 C 779.931 115.65 779.631 115.25 779.231 114.95 C 778.831 114.65 778.331 114.55 777.631 114.55 C 776.431 114.55 775.231 115.25 773.931 116.75 C 772.631 118.25 771.331 120.15 770.131 122.65 C 768.931 125.15 767.831 127.95 766.931 130.95 C 766.031 134.05 765.231 137.15 764.731 140.25 C 764.131 143.45 763.831 146.45 763.831 149.25 C 763.831 150.15 763.831 151.35 763.931 152.85 C 764.031 154.45 764.031 155.65 764.131 156.45 L 751.231 156.45 C 751.131 155.05 751.031 154.05 751.031 153.45 C 750.931 152.95 750.931 152.35 750.931 151.65 C 750.931 150.25 751.031 148.55 751.231 146.65 C 751.331 144.75 751.531 142.75 751.831 140.45 C 752.131 138.25 752.331 136.05 752.631 133.85 C 752.831 132.05 753.031 130.25 753.331 128.55 C 753.531 126.85 753.731 125.25 753.931 123.75 C 754.131 122.25 754.331 120.95 754.431 119.85 C 754.531 118.75 754.531 117.85 754.531 117.25 C 754.531 116.15 754.431 115.35 754.131 115.05 C 753.831 114.75 753.431 114.65 753.131 114.65 C 752.431 114.65 751.631 115.25 750.831 116.35 C 750.031 117.45 749.231 119.55 748.331 122.55 L 742.831 120.95 C 743.131 119.55 743.631 117.95 744.231 116.15 C 744.831 114.35 745.631 112.65 746.731 110.95 C 747.831 109.35 749.131 108.05 750.631 106.95 C 752.131 105.85 754.031 105.35 756.231 105.35 C 757.731 105.35 759.031 105.65 760.331 106.15 C 761.631 106.65 762.631 107.55 763.431 108.85 C 764.231 110.15 764.631 112.05 764.631 114.45 C 764.631 115.75 764.531 116.75 764.431 117.55 C 764.331 118.35 764.131 119.35 764.031 120.45 L 764.131 120.45 C 765.731 116.45 767.531 113.35 769.431 111.15 C 771.331 108.95 773.231 107.45 775.331 106.55 C 777.331 105.75 779.331 105.35 781.231 105.35 C 784.131 105.35 786.431 105.95 788.131 107.25 C 789.831 108.55 791.131 110.25 792.031 112.55 C 792.831 114.85 793.231 117.65 793.231 120.75 C 793.231 123.15 793.031 125.85 792.631 128.75 C 792.231 131.65 791.831 134.65 791.431 137.55 C 790.931 140.45 790.731 143.15 790.731 145.65 C 790.731 146.75 790.931 147.45 791.231 147.75 C 791.531 148.05 791.931 148.25 792.231 148.25 C 792.931 148.25 793.731 147.65 794.531 146.55 C 795.331 145.45 796.131 143.35 797.031 140.35 L 802.431 141.95 C 802.131 143.35 801.631 144.95 800.931 146.75 C 800.131 148.55 799.131 150.25 797.831 151.85 C 796.531 153.55 795.031 154.85 793.331 155.95 C 791.631 157.05 789.631 157.55 787.331 157.55 Z"/>
  </g>
  <g>
    <path d="M -0.17 0.262 L -0.17 797.619 L 1014.549 1116.131 L 1014.549 290.797 L -0.17 0.262 Z" style="fill: url('#_Linear2'); fill-rule: nonzero; stroke: rgb(190, 190, 190); stroke-width: 4px;"/>
  </g>
  <g style="fill: rgb(31, 32, 52);">
    <path d="M 353.161 741.786 L 353.161 737.429 L 375.407 744.42 L 375.407 748.776 L 366.609 746.012 L 366.609 773.729 L 362 772.281 L 362 744.563 L 353.161 741.786 Z"/>
    <path d="M 376.65 776.884 L 376.65 744.811 L 381.174 746.232 L 381.174 758.817 L 382.206 758.321 L 385.699 757.609 L 390.477 759.11 L 394.517 762.464 L 396.286 768.365 L 396.286 783.055 L 391.844 781.66 L 391.844 767.643 L 390.855 764.491 L 389.403 763.256 L 386.246 762.264 L 384.1 762.641 L 381.174 764.332 L 381.174 778.306 L 376.65 776.884 Z"/>
    <path d="M 398.455 773.951 L 398.455 771.805 L 399.928 767.301 L 403.106 764.89 L 406.683 764.205 L 411.861 765.832 L 415.439 768.766 L 417.291 771.263 L 419.101 775.347 L 419.101 780.65 L 402.854 775.544 L 403.674 778.18 L 405.694 780.836 L 407.757 782.557 L 410.83 783.523 L 412.808 783.114 L 415.271 781.488 L 418.406 785.652 L 415.439 787.645 L 411.861 788.33 L 406.683 786.703 L 403.106 783.769 L 399.928 779.382 L 398.455 773.951 Z M 403.233 771.834 L 414.87 775.491 L 414.324 773.256 L 412.977 771.275 L 410.872 769.499 L 407.631 768.48 L 405.61 768.919 L 403.464 770.79 L 403.233 771.834 Z"/>
    <path d="M 420.05 780.737 L 420.05 778.59 L 421.734 774.152 L 425.101 771.801 L 428.72 771.129 L 433.078 772.498 L 436.592 775.412 L 436.592 774.002 L 441.138 775.43 L 441.138 790.563 L 444.357 796.478 L 440.695 797.874 L 438.549 793.958 L 434.108 795.32 L 428.72 793.627 L 425.101 790.68 L 421.734 786.233 L 420.05 780.737 Z M 424.533 781.451 L 425.648 785.084 L 427.69 787.747 L 429.752 789.468 L 432.93 790.467 L 436.592 789.387 L 436.592 780.948 L 434.782 778.569 L 432.846 776.908 L 429.709 775.923 L 427.773 776.366 L 425.648 777.76 L 424.533 780.736 L 424.533 781.451 Z"/>
    <path d="M 443.37 780.616 L 443.37 776.133 L 447.285 777.363 L 447.285 770.418 L 451.809 771.84 L 451.809 778.785 L 457.24 780.491 L 457.24 784.974 L 451.809 783.268 L 451.809 792.402 L 452.799 795.597 L 454.23 796.782 L 457.197 797.715 L 457.197 802.198 L 453.157 800.928 L 449.095 797.631 L 447.285 791.717 L 447.285 781.846 L 443.37 780.616 Z"/>
    <path d="M 458.882 792.941 L 458.882 790.794 L 460.356 786.29 L 463.534 783.88 L 467.112 783.194 L 472.289 784.821 L 475.867 787.756 L 477.719 790.253 L 479.529 794.336 L 479.529 799.64 L 463.281 794.534 L 464.102 797.17 L 466.123 799.826 L 468.185 801.547 L 471.258 802.512 L 473.237 802.104 L 475.698 800.478 L 478.835 804.641 L 475.867 806.634 L 472.289 807.32 L 467.112 805.693 L 463.534 802.758 L 460.356 798.371 L 458.882 792.941 Z M 463.66 790.823 L 475.299 794.48 L 474.751 792.245 L 473.404 790.265 L 471.299 788.488 L 468.059 787.47 L 466.039 787.908 L 463.892 789.78 L 463.66 790.823 Z"/>
    <path d="M 481.825 809.936 L 481.825 788.216 L 486.307 789.625 L 486.307 791.393 L 489.485 790.224 L 492.031 791.024 L 496.115 794.391 L 497.63 799.392 L 493.462 799.576 L 492.284 796.365 L 491.085 795.21 L 489.885 794.833 L 486.307 796.465 L 486.307 811.345 L 481.825 809.936 Z"/>
    <path d="M 498.41 815.148 L 498.41 783.074 L 502.978 784.509 L 502.978 799.999 L 518.446 789.37 L 524.95 791.414 L 510.764 801.099 L 524.213 823.257 L 518.446 821.444 L 507.503 803.357 L 502.978 806.418 L 502.978 816.583 L 498.41 815.148 Z"/>
    <path d="M 523.962 816.148 L 523.962 801.458 L 528.445 802.866 L 528.445 816.863 L 529.434 820.078 L 530.907 821.256 L 534.001 822.228 L 536.21 821.892 L 539.136 820.223 L 539.136 806.226 L 543.661 807.648 L 543.661 829.368 L 539.136 827.946 L 539.136 825.147 L 538.105 826.191 L 534.611 826.903 L 529.833 825.402 L 525.772 822.062 L 523.962 816.148 Z"/>
    <path d="M 547.029 824.555 L 547.029 798.353 L 551.513 799.762 L 551.513 825.017 L 552.46 827.124 L 552.985 827.815 L 555.996 828.761 L 555.996 833.244 L 551.092 831.703 L 548.798 828.688 L 547.029 824.555 Z"/>
    <path d="M 555.303 815.791 L 555.303 811.308 L 559.217 812.538 L 559.217 805.593 L 563.742 807.015 L 563.742 813.96 L 569.172 815.666 L 569.172 820.149 L 563.742 818.443 L 563.742 827.577 L 564.731 830.772 L 566.163 831.957 L 569.129 832.89 L 569.129 837.373 L 565.089 836.103 L 561.027 832.806 L 559.217 826.892 L 559.217 817.021 L 555.303 815.791 Z"/>
    <path d="M 571.889 831.209 L 571.889 816.519 L 576.371 817.927 L 576.371 831.924 L 577.36 835.138 L 578.834 836.317 L 581.927 837.289 L 584.137 836.953 L 587.062 835.284 L 587.062 821.287 L 591.587 822.709 L 591.587 844.429 L 587.062 843.007 L 587.062 840.208 L 586.032 841.252 L 582.537 841.964 L 577.76 840.463 L 573.698 837.123 L 571.889 831.209 Z"/>
    <path d="M 595.356 845.613 L 595.356 823.893 L 599.839 825.302 L 599.839 827.071 L 603.017 825.901 L 605.563 826.702 L 609.646 830.068 L 611.162 835.069 L 606.994 835.254 L 605.816 832.043 L 604.616 830.887 L 603.417 830.51 L 599.839 832.142 L 599.839 847.022 L 595.356 845.613 Z"/>
    <path d="M 373.892 811.9 L 373.892 779.826 L 378.46 781.261 L 378.46 796.751 L 393.928 786.122 L 400.432 788.166 L 386.246 797.851 L 399.695 820.008 L 393.928 818.196 L 382.985 800.109 L 378.46 803.17 L 378.46 813.335 L 373.892 811.9 Z"/>
    <path d="M 398.266 809.773 L 398.266 807.626 L 399.949 803.188 L 403.316 800.837 L 406.936 800.165 L 411.293 801.534 L 414.807 804.448 L 414.807 803.038 L 419.354 804.466 L 419.354 819.599 L 422.574 825.514 L 418.911 826.91 L 416.765 822.994 L 412.324 824.356 L 406.936 822.663 L 403.316 819.715 L 399.949 815.269 L 398.266 809.773 Z M 402.748 810.487 L 403.864 814.121 L 405.905 816.783 L 407.968 818.504 L 411.145 819.503 L 414.807 818.423 L 414.807 809.984 L 412.998 807.605 L 411.061 805.944 L 407.925 804.959 L 405.989 805.402 L 403.864 806.797 L 402.748 809.772 L 402.748 810.487 Z"/>
    <rect x="348.494" y="337.748" width="4.743" height="20.72" transform="matrix(0.954003, 0.299797, 0, 1.048215, 92.004608, 347.564728)"/>
    <path d="M 422.406 798.355 L 426.699 795.348 L 431.014 801.061 L 426.7 804.019 L 422.406 798.355 Z"/>
    <path d="M 431.837 814.431 L 434.004 810.44 L 439.119 810.279 L 442.276 811.271 L 447.221 814.636 L 449.305 818.952 L 445.411 819.539 L 444.338 817.223 L 441.539 815.101 L 439.771 814.546 L 436.972 814.698 L 436.572 815.856 L 437.141 817.171 L 438.95 818.729 L 443.728 821.388 L 447.18 824.282 L 449.032 828.021 L 449.032 830.042 L 447.011 833.448 L 442.276 833.77 L 439.119 832.778 L 433.963 829.347 L 431.921 825.044 L 435.983 824.426 L 437.141 826.916 L 439.813 828.955 L 441.539 829.497 L 444.043 829.253 L 444.864 828.207 L 444.255 826.689 L 442.402 825.159 L 437.519 822.278 L 433.857 819.317 L 431.837 814.431 Z"/>
    <path d="M 450.465 826.177 L 450.465 824.031 L 451.937 819.527 L 455.116 817.116 L 458.693 816.43 L 463.871 818.057 L 467.448 820.992 L 469.3 823.489 L 471.11 827.572 L 471.11 832.876 L 454.863 827.77 L 455.684 830.406 L 457.704 833.062 L 459.767 834.783 L 462.839 835.749 L 464.818 835.34 L 467.28 833.714 L 470.416 837.878 L 467.448 839.87 L 463.871 840.556 L 458.693 838.929 L 455.116 835.995 L 451.937 831.607 L 450.465 826.177 Z M 455.242 824.059 L 466.88 827.717 L 466.333 825.482 L 464.986 823.501 L 462.882 821.725 L 459.64 820.706 L 457.62 821.145 L 455.473 823.016 L 455.242 824.059 Z"/>
    <path d="M 473.406 843.172 L 473.406 821.452 L 477.888 822.861 L 477.888 824.629 L 481.067 823.46 L 483.614 824.26 L 487.696 827.627 L 489.212 832.628 L 485.045 832.813 L 483.866 829.601 L 482.666 828.446 L 481.467 828.069 L 477.888 829.701 L 477.888 844.581 L 473.406 843.172 Z"/>
    <path d="M 488.729 832.309 L 490.897 828.318 L 496.011 828.158 L 499.168 829.15 L 504.114 832.514 L 506.198 836.831 L 502.304 837.417 L 501.23 835.101 L 498.431 832.98 L 496.664 832.424 L 493.865 832.576 L 493.464 833.734 L 494.032 835.049 L 495.843 836.608 L 500.62 839.267 L 504.071 842.16 L 505.924 845.9 L 505.924 847.92 L 503.904 851.326 L 499.168 851.648 L 496.011 850.656 L 490.854 847.226 L 488.813 842.922 L 492.875 842.304 L 494.032 844.794 L 496.706 846.833 L 498.431 847.376 L 500.936 847.131 L 501.757 846.085 L 501.146 844.567 L 499.294 843.038 L 494.412 840.157 L 490.75 837.196 L 488.729 832.309 Z"/>
    <path d="M 507.356 844.056 L 507.356 841.909 L 508.83 837.405 L 512.008 834.995 L 515.586 834.309 L 520.763 835.936 L 524.341 838.87 L 526.193 841.367 L 528.003 845.451 L 528.003 850.754 L 511.755 845.648 L 512.576 848.285 L 514.596 850.94 L 516.659 852.662 L 519.732 853.627 L 521.709 853.218 L 524.172 851.592 L 527.308 855.756 L 524.341 857.749 L 520.763 858.435 L 515.586 856.808 L 512.008 853.873 L 508.83 849.486 L 507.356 844.056 Z M 512.134 841.938 L 523.773 845.595 L 523.225 843.36 L 521.878 841.38 L 519.773 839.603 L 516.532 838.584 L 514.512 839.023 L 512.366 840.895 L 512.134 841.938 Z"/>
    <path d="M 529.035 844.975 L 531.203 840.984 L 536.318 840.824 L 539.475 841.816 L 544.42 845.18 L 546.504 849.497 L 542.61 850.084 L 541.537 847.768 L 538.738 845.646 L 536.97 845.091 L 534.171 845.243 L 533.771 846.4 L 534.339 847.715 L 536.149 849.274 L 540.926 851.933 L 544.378 854.827 L 546.23 858.566 L 546.23 860.587 L 544.21 863.993 L 539.475 864.315 L 536.318 863.323 L 531.161 859.892 L 529.12 855.589 L 533.181 854.97 L 534.339 857.46 L 537.012 859.5 L 538.738 860.042 L 541.242 859.797 L 542.063 858.751 L 541.452 857.233 L 539.601 855.704 L 534.718 852.823 L 531.056 849.862 L 529.035 844.975 Z"/>
    <path d="M 547.662 856.722 L 547.662 854.575 L 549.347 850.138 L 552.714 847.787 L 556.291 847.101 L 561.448 848.721 L 565.025 851.656 L 568.393 856.081 L 565.215 858.281 L 562.395 854.596 L 560.374 852.867 L 557.28 851.895 L 555.344 852.338 L 553.261 853.746 L 552.146 856.721 L 552.146 857.437 L 553.261 861.07 L 555.303 863.732 L 557.365 865.454 L 560.417 866.413 L 562.395 866.004 L 565.3 864.033 L 568.435 868.217 L 565.025 870.534 L 561.448 871.22 L 556.291 869.599 L 552.714 866.665 L 549.347 862.218 L 547.662 856.722 Z"/>
    <path d="M 570.562 873.704 L 570.562 841.63 L 575.087 843.052 L 575.087 855.637 L 576.119 855.141 L 579.612 854.428 L 584.389 855.929 L 588.43 859.283 L 590.199 865.185 L 590.199 879.875 L 585.757 878.479 L 585.757 864.462 L 584.768 861.31 L 583.316 860.075 L 580.159 859.083 L 578.012 859.461 L 575.087 861.151 L 575.087 875.126 L 570.562 873.704 Z"/>
  </g>
  <g clip-path="url(#_clip3)" transform="matrix(4.16667, 0, 0, 4.16667, 0, 0)">
    <path d="M 61.418 15.905 L 251.029 163.116 L 253.313 153.208 L 63.757 5.979 L 61.418 15.905 Z" style="fill: rgb(190, 24, 26); fill-rule: nonzero;"/>
    <path d="M 197.827 89.141 C 197.32 88.775 196.796 88.497 196.306 88.249 C 194.397 87.287 192.455 87.717 190.571 87.808 C 188.242 87.922 185.942 88.329 183.727 89.028 C 182.024 89.565 180.362 90.284 178.807 91.294 C 177.945 91.854 176.658 93.094 176.292 93.448 C 176.228 93.2 176.146 92.956 176.036 92.744 C 174.949 90.653 173.115 88.985 171.505 88.821 C 171.094 88.779 170.714 89.046 170.41 89.423 C 170.156 88.859 166.98 81.815 165.042 78.441 C 163.427 75.63 161.639 73.022 159.771 70.593 C 157.986 68.27 156.199 65.762 154.135 64.204 C 152.908 63.28 151.438 62.043 150.289 62.577 C 149.703 62.849 149.598 64.033 149.273 64.785 C 147.61 68.632 146.331 72.921 144.483 76.549 C 144.089 77.324 143.153 77.602 143.145 78.672 C 143.138 79.742 143.895 80.811 144.475 81.635 C 146.382 84.344 148.925 85.584 151.145 87.577 C 151.718 88.09 152.285 88.649 152.846 89.22 C 152.599 89.429 149.004 92.476 146.92 93.441 C 146.145 93.8 144.469 94.027 144.469 94.027 C 144.469 94.027 143.621 104.138 142.999 109.09 C 142.643 111.921 141.709 117.451 141.709 117.451 C 141.709 117.451 146.67 114.043 149.18 112.412 C 153.147 109.833 161.171 104.919 161.171 104.919 L 168.179 99.837 L 169.469 98.333 C 169.519 98.434 169.578 98.531 169.638 98.62 C 170.785 100.352 172.452 101.138 173.941 101.57 C 174.147 101.629 174.378 101.669 174.584 101.65 C 174.559 102.153 174.556 102.653 174.607 103.044 C 175.154 107.188 177.096 111.014 178.407 114.961 C 181.755 125.036 185.53 134.873 188.797 144.989 C 189.086 145.885 189.616 147.698 189.616 147.698 L 194.778 126.542 C 194.778 126.542 192.173 118.615 190.722 114.745 C 190.537 114.252 190.292 113.642 190.033 113.002 C 191.317 113.684 192.615 114.217 193.902 114.412 C 195.367 114.634 196.714 113.931 198.107 113.63 C 199.13 113.41 200.321 113.666 201.157 112.89 C 201.531 112.543 201.836 111.952 201.903 111.262 C 202.149 108.765 200.95 105.997 200.556 103.36 C 200.284 101.537 199.966 99.704 199.855 97.889 C 199.729 95.807 200.637 93.68 199.897 91.732 C 199.457 90.572 198.673 89.752 197.828 89.141 L 197.827 89.141 Z" style="fill:rgb(190,24,26);fill-rule:nonzero;"/>
    <path d="M 197.827 89.141 C 197.32 88.775 196.796 88.497 196.306 88.249 C 194.397 87.286 192.455 87.717 190.571 87.808 C 188.242 87.922 185.942 88.329 183.727 89.028 C 182.024 89.565 180.362 90.284 178.807 91.294 C 177.945 91.854 176.658 93.094 176.292 93.448 C 176.228 93.2 176.146 92.956 176.036 92.744 C 174.949 90.653 173.115 88.985 171.505 88.821 C 171.094 88.779 170.714 89.046 170.41 89.423 C 170.156 88.859 166.98 81.815 165.042 78.44 C 163.427 75.63 161.639 73.022 159.771 70.593 C 157.986 68.27 156.199 65.762 154.135 64.204 C 152.908 63.28 151.438 62.043 150.289 62.577 C 149.703 62.849 149.598 64.033 149.273 64.785 C 147.61 68.632 146.331 72.921 144.483 76.549 C 144.089 77.324 143.153 77.602 143.145 78.672 C 143.138 79.742 143.895 80.811 144.475 81.635 C 146.382 84.344 148.925 85.584 151.145 87.577 C 151.718 88.09 152.285 88.649 152.846 89.22 C 152.599 89.429 149.004 92.476 146.92 93.441 C 146.145 93.8 144.469 94.027 144.469 94.027 C 144.469 94.027 143.621 104.138 142.999 109.09 C 142.643 111.921 141.709 117.451 141.709 117.451 C 141.709 117.451 146.67 114.043 149.18 112.412 C 153.147 109.833 161.171 104.919 161.171 104.919 L 168.179 99.837 L 169.469 98.333 C 169.519 98.434 169.578 98.531 169.638 98.62 C 170.785 100.352 172.452 101.138 173.941 101.57 C 174.147 101.629 174.378 101.669 174.584 101.65 C 174.559 102.153 174.556 102.653 174.607 103.044 C 175.154 107.188 177.096 111.014 178.407 114.961 C 181.755 125.036 185.53 134.873 188.797 144.989 C 189.086 145.885 189.616 147.698 189.616 147.698 L 194.778 126.542 C 194.778 126.542 192.173 118.615 190.722 114.745 C 190.537 114.252 190.292 113.642 190.033 113.002 C 191.317 113.684 192.615 114.217 193.902 114.412 C 195.367 114.634 196.714 113.931 198.107 113.63 C 199.13 113.41 200.321 113.666 201.157 112.89 C 201.531 112.543 201.836 111.952 201.903 111.262 C 202.149 108.765 200.95 105.997 200.556 103.36 C 200.284 101.537 199.966 99.704 199.855 97.889 C 199.729 95.807 200.637 93.68 199.897 91.732 C 199.457 90.572 198.673 89.752 197.828 89.141 L 197.827 89.141 Z" style="fill:none;fill-rule:nonzero;stroke:white;stroke-width:3.12px;stroke-linejoin:bevel;"/>
    <path d="M 167.357 83.707 C 167.357 83.707 163.849 78.244 161.877 75.922 C 160.099 73.831 158.13 72.204 156.217 70.466 C 154.643 69.035 152.732 68.39 151.432 66.378 C 151.169 65.97 150.895 65.405 150.91 64.895 C 150.921 64.513 151.121 64.161 151.36 64.074 C 151.695 63.952 152.089 64.382 152.447 64.602 C 153.344 65.155 154.229 65.818 155.078 66.583 C 156.929 68.249 158.64 70.469 160.324 72.557 C 161.894 74.504 163.387 76.635 164.737 78.932 C 165.676 80.53 167.358 83.707 167.358 83.707 L 167.357 83.707 Z" style="fill:rgb(117,22,13);fill-rule:nonzero;"/>
    <path d="M 177.626 92.942 C 177.626 92.942 180.651 92.157 182.205 91.981 C 183.584 91.825 184.992 91.836 186.401 91.897 C 188.796 91.999 191.207 92.221 193.627 92.652 C 194.793 92.86 195.987 93.556 197.133 93.535 C 197.704 93.525 198.382 93.589 198.757 93.033 C 198.996 92.677 199.111 92.029 198.983 91.475 C 198.87 90.986 198.515 90.619 198.21 90.355 C 196.642 88.996 195.151 89.231 193.472 88.943 C 191.345 88.579 189.131 88.611 187.105 89.024 C 185.548 89.34 183.893 89.647 182.422 90.302 C 180.775 91.034 177.626 92.942 177.626 92.942" style="fill:rgb(117,22,13);fill-rule:nonzero;"/>
  </g>
  <g style="fill:rgb(1,3,3);">
    <path d="M 260.599 621.473 C 252.22 618.876 245.122 614.814 239.42 609.323 C 233.718 603.949 229.412 597.61 226.736 590.497 C 223.943 583.348 222.779 576.005 223.128 568.433 C 223.361 563.268 224.408 558.356 226.387 553.733 C 228.365 549.109 231.158 545.32 234.765 542.133 C 238.256 539.025 242.678 537.021 247.915 536.084 C 253.151 535.263 259.086 535.822 265.835 537.914 C 267.814 538.527 270.141 539.481 272.817 540.66 C 275.494 541.955 278.054 543.446 280.731 545.09 C 283.407 546.734 285.618 548.467 287.596 550.36 L 287.596 545.473 L 296.557 548.25 L 295.16 574.931 L 287.48 572.55 C 287.014 568.1 285.851 564.132 283.989 560.646 C 282.127 557.16 279.8 554.344 276.89 551.93 C 273.981 549.515 270.606 547.771 266.999 546.653 C 262.926 545.391 259.319 545.204 256.293 546.128 C 253.151 547.016 250.475 548.63 248.38 551.123 C 246.169 553.58 244.54 556.566 243.376 560.162 C 242.096 563.722 241.398 567.578 241.165 571.695 C 240.816 578.22 241.514 584.371 243.144 590.113 C 244.656 595.818 247.217 600.684 250.824 604.712 C 254.315 608.819 258.737 611.702 263.974 613.325 C 265.486 613.794 267.232 614.219 269.326 614.635 C 271.421 615.052 273.516 615.352 275.61 615.535 C 277.589 615.683 279.334 615.642 280.847 615.413 L 281.429 604.771 C 281.545 602.712 281.778 600.806 281.894 598.864 C 282.011 596.922 282.243 595.597 282.36 594.586 C 281.08 594.306 279.567 593.837 277.705 593.26 C 275.843 592.799 274.447 592.367 273.632 592.23 L 274.098 583.414 L 304.702 592.899 L 304.353 600.471 C 303.073 600.191 301.909 599.947 300.979 599.891 C 299.931 599.799 299.117 600.012 298.418 600.378 C 297.72 600.86 297.255 601.763 296.906 602.934 C 296.557 604.106 296.207 605.86 296.091 608.035 L 295.16 626.365 L 292.251 625.464 C 290.273 624.851 288.178 624.434 286.2 624.287 C 284.105 624.219 281.894 624.116 279.683 624.129 C 277.007 624.114 274.214 623.947 271.072 623.671 C 267.93 623.396 264.439 622.663 260.599 621.473 Z"/>
    <path d="M 329.227 642.16 C 325.969 641.15 323.292 639.622 321.314 637.496 C 319.219 635.334 317.706 632.771 316.775 629.806 C 315.728 626.805 315.263 623.519 315.263 619.911 C 315.263 617.002 315.495 613.932 316.077 610.738 C 316.543 607.508 317.008 604.161 317.59 600.966 C 318.056 597.736 318.288 594.666 318.288 591.873 C 318.288 590.593 318.056 589.59 317.706 589.133 C 317.241 588.64 316.775 588.379 316.426 588.271 C 315.612 588.018 314.681 588.428 313.75 589.42 C 312.819 590.411 311.888 592.566 310.841 595.733 L 304.557 591.923 C 304.906 590.402 305.488 588.721 306.419 586.915 C 307.233 585.073 308.397 583.455 309.91 581.946 C 311.423 580.552 313.168 579.581 315.146 578.914 C 317.125 578.247 319.452 578.386 322.128 579.216 C 326.434 580.55 329.46 582.651 330.972 585.448 C 332.485 588.244 333.183 591.719 333.183 595.791 C 333.183 598.119 333.067 600.643 332.718 603.444 C 332.369 606.245 332.02 609.162 331.671 612.08 C 331.322 614.997 330.972 617.682 330.623 620.25 C 330.274 622.818 330.158 625.109 330.158 626.855 C 330.158 628.019 330.274 628.986 330.507 629.756 C 330.74 630.643 331.089 631.216 331.554 631.71 C 332.02 632.203 332.602 632.5 333.416 632.752 C 334.696 633.149 336.093 632.767 337.605 631.49 C 339.002 630.178 340.398 628.399 341.678 625.771 C 342.958 623.258 344.238 620.513 345.286 617.23 C 346.333 614.064 347.264 610.745 347.962 607.237 C 348.544 603.81 348.893 600.427 348.893 597.169 C 348.893 596.122 348.893 594.609 348.893 592.863 C 348.777 591.082 348.66 589.649 348.544 588.682 L 363.555 593.335 C 363.672 595 363.788 596.2 363.905 596.818 C 363.905 597.516 363.905 598.214 363.905 599.029 C 363.905 600.658 363.788 602.6 363.672 604.775 C 363.439 607.03 363.206 609.402 362.857 611.97 C 362.508 614.538 362.159 616.99 361.81 619.558 C 361.577 621.581 361.344 623.487 361.112 625.393 C 360.763 627.263 360.53 628.937 360.297 630.494 C 360.064 632.167 359.948 633.527 359.832 634.771 C 359.599 635.979 359.599 637.027 359.599 637.725 C 359.599 639.005 359.832 639.892 360.181 640.349 C 360.53 640.806 360.879 641.147 361.228 641.255 C 362.043 641.508 362.974 641.098 363.905 640.107 C 364.836 639.115 365.766 636.96 366.814 633.793 L 373.098 637.603 C 372.749 639.124 372.283 640.841 371.585 642.719 C 370.887 644.598 369.956 646.287 368.676 647.753 C 367.396 649.334 365.883 650.378 364.137 651.117 C 362.392 651.856 360.181 651.753 357.621 650.96 C 355.177 650.202 352.85 648.783 350.871 646.657 C 348.893 644.531 347.846 641.413 347.846 637.341 C 347.846 635.828 347.962 634.467 348.079 633.456 C 348.195 632.445 348.311 631.201 348.428 629.957 L 348.311 629.921 C 346.566 634.035 344.587 637.029 342.493 639.056 C 340.398 641.084 338.187 642.26 335.976 642.622 C 333.765 642.984 331.438 642.845 329.227 642.16 Z"/>
    <path d="M 403.702 588.205 L 401.375 605.056 L 415.921 609.564 L 415.223 617.377 L 400.677 613.101 C 400.328 615.786 399.979 618.703 399.63 621.737 C 399.28 624.887 398.931 627.921 398.699 630.874 C 398.35 633.908 398.117 636.513 398 638.92 C 397.768 641.292 397.651 643.234 397.651 644.514 C 397.651 645.561 397.768 646.645 398 647.881 C 398.233 649.233 398.699 650.424 399.513 651.491 C 400.328 652.558 401.491 653.384 403.237 653.925 C 403.819 654.106 404.75 654.162 406.03 654.209 C 407.193 654.337 408.474 654.036 409.87 653.421 C 411.266 652.806 412.546 651.69 413.71 649.84 L 419.645 655.403 C 416.968 659.577 413.826 662.211 409.986 663.465 C 406.146 664.718 402.073 664.736 397.768 663.402 C 393.462 662.067 390.32 660.163 388.225 657.768 C 386.014 655.337 384.618 652.461 383.92 649.335 C 383.222 646.326 382.873 643.076 382.989 639.97 C 383.105 637.329 383.338 634.26 383.571 630.724 C 383.804 627.189 384.153 623.574 384.502 619.609 C 384.851 615.761 385.316 612.065 385.665 608.565 L 376.356 605.797 L 377.403 597.626 C 383.105 599.393 387.411 599.215 390.204 597.055 C 392.88 594.859 394.858 591.166 395.906 585.789 L 403.702 588.205 Z"/>
    <path d="M 443.5 677.575 C 439.777 676.421 436.286 674.757 433.26 672.772 C 430.118 670.751 427.558 668.329 425.58 665.621 C 423.601 663.03 422.67 660.297 422.67 657.621 C 422.67 655.177 423.369 653.532 424.881 652.371 C 426.278 651.291 428.023 651.134 430.118 651.783 C 432.213 652.432 433.958 653.672 435.238 655.465 C 436.518 657.258 437.216 659.22 437.216 661.198 C 437.216 661.78 437.216 662.362 437.1 662.791 C 436.867 663.417 436.751 663.963 436.518 664.473 C 436.867 665.395 437.915 666.418 439.66 667.657 C 441.289 668.861 442.686 669.642 443.849 670.003 C 447.224 671.049 449.668 671.108 451.064 670.028 C 452.344 668.912 453.043 667.499 453.043 665.637 C 453.043 664.125 452.461 662.664 451.413 661.176 C 450.25 659.768 448.737 658.135 446.991 656.547 C 445.246 654.959 443.268 653.182 441.289 651.405 C 437.682 648.193 434.656 645.277 432.213 642.774 C 429.769 640.271 428.023 637.752 426.976 635.449 C 425.812 633.11 425.231 630.602 425.231 627.926 C 425.231 625.249 426.045 622.825 427.791 620.806 C 429.536 618.787 431.98 617.45 435.355 616.75 C 438.613 616.131 442.569 616.542 447.34 618.021 C 450.482 618.995 453.508 620.398 456.534 622.383 C 459.443 624.332 462.003 626.522 463.981 628.997 C 465.959 631.588 466.89 634.204 466.89 636.88 C 466.89 638.859 466.192 640.504 464.912 641.62 C 463.632 642.736 461.77 642.974 459.559 642.289 C 457.464 641.64 455.835 640.436 454.555 638.527 C 453.275 636.734 452.577 634.888 452.577 633.026 C 452.577 632.445 452.693 631.899 452.81 631.353 C 452.926 630.807 453.043 630.378 453.275 629.868 C 452.693 628.873 451.762 627.886 450.482 627.141 C 449.202 626.395 447.922 625.882 446.875 625.557 C 445.828 625.233 444.664 625.105 443.5 625.209 C 442.22 625.278 441.173 625.652 440.358 626.214 C 439.544 626.893 439.078 627.912 439.078 629.192 C 439.078 630.239 439.311 631.242 439.893 632.237 C 440.358 633.196 441.406 634.452 442.918 635.968 C 444.431 637.6 446.759 639.718 449.901 642.554 C 452.461 644.86 455.137 647.202 457.814 649.777 C 460.374 652.316 462.701 655.016 464.563 657.804 C 466.308 660.672 467.239 663.753 467.239 667.012 C 467.239 670.503 466.192 673.32 464.097 675.347 C 462.003 677.375 459.21 678.604 455.603 678.998 C 451.995 679.51 448.039 678.982 443.5 677.575 Z"/>
    <path d="M 503.895 635.548 C 507.503 636.666 510.645 638.222 513.554 640.287 C 516.347 642.317 518.558 644.631 520.303 647.15 C 521.932 649.75 522.747 652.446 522.747 655.355 C 522.747 657.682 522.049 659.328 520.769 660.444 C 519.372 661.524 517.51 661.645 515.299 661.076 C 512.623 660.363 510.761 658.972 509.714 656.902 C 508.666 654.948 508.085 653.255 508.085 651.975 C 508.085 651.276 508.201 650.498 508.434 649.639 C 508.55 648.861 508.899 648.154 509.248 647.448 C 508.899 646.641 508.317 645.879 507.27 644.973 C 506.223 644.183 505.059 643.589 503.663 643.157 C 501.219 642.399 499.124 642.565 497.611 643.725 C 495.982 644.966 494.702 646.664 493.888 648.971 C 492.957 651.243 492.259 653.703 491.909 656.388 C 491.56 659.189 491.328 661.676 491.211 663.968 C 491.095 668.121 491.444 671.604 492.375 674.452 C 493.306 677.301 494.586 679.56 496.099 681.192 C 497.611 682.825 499.241 684.028 500.87 684.649 C 502.383 685.234 504.012 685.506 505.874 685.502 C 507.736 685.613 509.597 685.143 511.576 683.894 C 513.554 682.762 515.299 680.626 516.812 677.488 L 523.445 682.802 C 521.234 687.12 518.79 690.319 516.114 692.399 C 513.438 694.479 510.528 695.555 507.503 695.665 C 504.477 695.891 501.335 695.499 498.077 694.489 C 491.211 692.245 485.742 688.456 481.553 683.084 C 477.363 677.713 475.269 670.664 475.269 662.053 C 475.269 658.329 475.851 654.553 477.014 650.84 C 478.178 647.128 479.924 643.829 482.367 640.979 C 484.695 638.093 487.604 636.085 491.211 634.992 C 494.819 633.899 499.008 634.034 503.895 635.548 Z"/>
    <path d="M 574.996 718.328 C 570.691 716.994 567.781 714.928 566.269 712.132 C 564.756 709.336 563.941 705.825 563.941 701.752 C 563.941 699.425 564.058 696.785 564.407 693.984 C 564.756 691.183 565.105 688.382 565.454 685.464 C 565.803 682.547 566.036 679.71 566.385 677.141 C 566.734 674.69 566.85 672.398 566.85 670.653 C 566.85 669.489 566.734 668.522 566.501 667.635 C 566.269 666.865 565.92 666.291 565.454 665.798 C 564.989 665.305 564.407 665.008 563.592 664.755 C 562.196 664.323 560.799 664.704 559.287 665.981 C 557.774 667.258 556.261 669 554.865 671.476 C 553.352 673.917 552.072 676.778 551.024 679.945 C 549.861 683.192 548.93 686.511 548.348 689.938 C 547.65 693.445 547.301 696.828 547.301 700.086 C 547.301 701.133 547.301 702.53 547.417 704.311 C 547.533 706.209 547.533 707.606 547.65 708.573 L 532.755 703.957 C 532.638 702.291 532.522 701.092 532.522 700.393 C 532.406 699.776 532.406 699.077 532.406 698.263 C 532.406 694.423 532.522 690.386 532.638 686.116 C 532.755 681.847 532.987 677.613 533.22 673.263 C 533.453 669.03 533.686 664.796 534.035 660.715 C 534.384 656.634 534.733 652.786 535.082 649.287 C 535.431 645.787 535.664 642.601 536.013 639.917 C 536.129 638.673 536.362 636.999 536.711 634.896 C 536.944 632.758 537.177 630.968 537.526 629.563 L 529.38 627.388 L 529.845 618.688 C 533.453 619.806 536.478 620.511 538.922 620.919 C 541.366 621.328 543.228 621.439 544.624 621.29 C 546.021 621.141 546.952 620.964 547.533 620.679 L 553.817 622.626 C 553.585 624.765 553.235 627.333 552.886 630.367 C 552.537 633.401 552.188 636.202 551.839 639.003 C 551.49 641.804 551.141 644.023 550.908 645.464 C 550.792 646.01 550.675 647.137 550.559 648.614 C 550.443 650.207 550.21 651.997 549.861 654.1 C 549.512 656.202 549.279 658.341 548.93 660.444 C 548.581 662.663 548.115 664.73 547.65 666.68 L 547.766 666.716 C 549.512 662.603 551.606 659.644 553.817 657.77 C 556.028 655.895 558.356 654.87 560.799 654.58 C 563.243 654.407 565.454 654.627 567.665 655.312 C 572.669 656.863 576.276 659.61 578.487 663.437 C 580.698 667.38 581.862 672.163 581.862 677.632 C 581.862 680.425 581.629 683.495 581.164 686.725 C 580.698 689.956 580.233 693.303 579.767 696.533 C 579.186 699.727 578.953 702.797 578.953 705.706 C 578.953 706.986 579.069 707.837 579.535 708.33 C 579.884 708.788 580.233 709.129 580.698 709.273 C 581.513 709.525 582.444 709.116 583.375 708.124 C 584.306 707.133 585.237 704.977 586.284 701.811 L 592.568 705.62 C 592.219 707.141 591.637 708.823 590.822 710.665 C 589.891 712.471 588.728 714.089 587.215 715.482 C 585.702 716.991 583.957 717.963 581.978 718.63 C 580 719.297 577.673 719.158 574.996 718.328 Z"/>
    <path d="M 625.849 673.344 C 629.224 674.39 632.249 675.793 634.926 677.67 C 637.602 679.547 639.581 681.673 641.093 684.352 C 642.606 687.032 643.304 690.042 643.304 693.416 C 643.304 696.558 642.373 698.946 640.511 700.58 C 638.533 702.178 636.09 703.282 633.064 703.741 C 629.922 704.164 626.547 704.282 622.94 703.978 C 619.332 703.791 615.725 703.371 612.35 702.791 C 612.35 707.213 612.932 710.768 613.98 713.42 C 615.027 716.188 616.307 718.214 617.936 719.534 C 619.565 720.969 621.194 721.94 622.824 722.445 C 624.104 722.841 625.733 723.114 627.595 723.109 C 629.34 723.184 631.202 722.714 633.064 721.662 C 634.926 720.61 636.555 718.671 637.951 715.962 L 644.468 721.123 C 642.257 725.442 639.813 728.641 637.137 730.488 C 634.46 732.335 631.551 733.295 628.642 733.441 C 625.733 733.587 622.707 733.115 619.682 732.177 C 612.583 730.093 606.881 726.231 602.692 720.744 C 598.503 715.256 596.408 708.207 596.408 699.596 C 596.408 695.872 596.99 692.096 598.154 688.383 C 599.317 684.671 601.063 681.372 603.506 678.522 C 605.834 675.636 608.859 673.664 612.583 672.607 C 616.307 671.551 620.729 671.757 625.849 673.344 Z M 624.569 680.628 C 621.893 679.798 619.798 680.08 618.169 681.437 C 616.54 682.794 615.26 684.725 614.445 687.265 C 613.63 689.922 613.049 692.534 612.7 695.335 C 616.889 695.819 620.263 695.818 622.707 695.295 C 625.151 694.772 627.013 693.836 628.176 692.452 C 629.224 691.031 629.806 689.465 629.689 687.567 C 629.573 685.553 628.991 683.976 627.944 682.837 C 626.896 681.698 625.733 680.988 624.569 680.628 Z"/>
    <path d="M 666.112 685.822 C 670.185 687.085 672.978 689.114 674.607 692.063 C 676.12 694.975 676.935 698.602 676.935 702.675 C 676.935 704.537 676.702 707.025 676.353 710.059 C 676.004 713.092 675.538 716.323 675.073 719.67 C 674.607 723.016 674.142 726.014 673.793 728.815 C 673.444 731.616 673.211 733.639 673.211 734.919 C 673.211 736.199 673.444 737.085 673.793 737.543 C 674.142 738 674.607 738.377 674.956 738.485 C 675.887 738.774 676.818 738.364 677.749 737.372 C 678.68 736.381 679.611 734.226 680.658 731.059 L 686.942 734.869 C 686.593 736.39 686.011 738.071 685.197 739.913 C 684.266 741.719 683.102 743.337 681.589 744.73 C 680.077 746.24 678.331 747.211 676.353 747.878 C 674.258 748.509 671.931 748.37 669.254 747.54 C 664.949 746.206 662.04 744.141 660.527 741.344 C 658.898 738.512 658.083 735.001 658.083 730.928 C 658.083 728.717 658.316 726.113 658.665 723.079 C 659.014 720.046 659.479 717.048 660.061 713.97 C 660.527 710.856 660.992 707.975 661.341 705.174 C 661.69 702.489 661.923 700.234 661.923 698.372 C 661.923 697.092 661.69 696.089 661.341 695.631 C 660.992 695.174 660.527 694.914 660.061 694.769 C 659.247 694.517 658.316 694.927 657.385 695.918 C 656.454 696.91 655.523 699.065 654.476 702.231 L 648.192 698.422 C 648.541 696.901 649.123 695.219 650.054 693.413 C 650.985 691.607 652.265 690.026 653.777 688.516 C 655.29 687.123 657.036 686.151 659.13 685.52 C 661.109 684.853 663.436 684.993 666.112 685.822 Z M 670.185 657.76 C 672.745 658.553 674.84 660.133 676.469 662.5 C 677.982 664.831 678.68 667.375 678.564 670.015 C 678.447 672.655 677.633 674.614 675.887 675.819 C 674.142 677.14 672.047 677.421 669.487 676.628 C 666.811 675.798 664.716 674.218 663.203 671.888 C 661.574 669.637 660.76 667.174 660.876 664.533 C 660.992 661.893 662.04 659.89 663.901 658.605 C 665.763 657.32 667.858 657.039 670.185 657.76 Z"/>
    <path d="M 740.704 769.684 C 736.399 768.35 733.606 766.32 732.093 763.524 C 730.58 760.728 729.766 757.217 729.766 753.144 C 729.766 750.817 729.882 748.176 730.231 745.375 C 730.58 742.574 730.93 739.773 731.279 736.856 C 731.628 733.939 731.86 731.102 732.21 728.533 C 732.559 726.081 732.675 723.79 732.675 722.045 C 732.675 720.881 732.559 719.914 732.326 719.027 C 732.093 718.257 731.744 717.683 731.279 717.19 C 730.813 716.697 730.231 716.4 729.417 716.147 C 728.02 715.715 726.624 716.096 725.111 717.373 C 723.598 718.65 722.086 720.392 720.689 722.868 C 719.293 725.345 718.013 728.206 716.965 731.373 C 715.918 734.656 714.987 737.975 714.405 741.402 C 713.707 744.909 713.358 748.292 713.358 751.55 C 713.358 752.597 713.358 753.994 713.474 755.775 C 713.591 757.673 713.591 759.07 713.707 760.037 L 698.696 755.385 C 698.579 753.719 698.463 752.52 698.463 751.821 C 698.346 751.203 698.346 750.505 698.346 749.691 C 698.346 748.062 698.463 746.119 698.696 743.98 C 698.812 741.806 699.045 739.55 699.394 736.982 C 699.743 734.53 699.976 732.042 700.325 729.59 C 700.557 727.568 700.79 725.545 701.139 723.675 C 701.372 721.769 701.605 719.979 701.838 718.306 C 702.07 716.633 702.303 715.192 702.419 713.948 C 702.536 712.704 702.536 711.657 702.536 710.958 C 702.536 709.678 702.419 708.711 702.07 708.254 C 701.721 707.797 701.256 707.536 700.907 707.428 C 700.092 707.175 699.161 707.585 698.23 708.577 C 697.299 709.568 696.368 711.723 695.321 714.89 L 688.921 711.044 C 689.27 709.523 689.852 707.842 690.55 705.964 C 691.248 704.085 692.179 702.396 693.459 700.814 C 694.739 699.349 696.252 698.305 697.997 697.566 C 699.743 696.827 701.954 696.93 704.514 697.724 C 706.26 698.265 707.772 699.083 709.285 700.133 C 710.798 701.184 711.962 702.592 712.892 704.393 C 713.823 706.195 714.289 708.55 714.289 711.343 C 714.289 712.855 714.173 713.983 714.056 714.878 C 713.94 715.773 713.707 716.864 713.591 718.108 L 713.707 718.144 C 715.569 714.067 717.664 711.108 719.875 709.234 C 722.086 707.359 724.297 706.298 726.74 706.008 C 729.068 705.799 731.395 706.055 733.606 706.74 C 736.981 707.786 739.657 709.313 741.635 711.439 C 743.614 713.565 745.126 716.012 746.174 719.013 C 747.105 721.978 747.57 725.381 747.57 728.988 C 747.57 731.781 747.337 734.851 746.872 738.081 C 746.407 741.312 745.941 744.659 745.476 747.889 C 744.894 751.083 744.661 754.153 744.661 757.062 C 744.661 758.342 744.894 759.229 745.243 759.686 C 745.592 760.144 746.057 760.521 746.407 760.629 C 747.221 760.881 748.152 760.472 749.083 759.48 C 750.014 758.489 750.945 756.333 751.992 753.167 L 758.276 756.976 C 757.927 758.497 757.345 760.179 756.531 762.021 C 755.6 763.827 754.436 765.445 752.923 766.838 C 751.41 768.347 749.665 769.319 747.687 769.986 C 745.708 770.653 743.381 770.513 740.704 769.684 Z"/>
  </g>
  <g>
    <clipPath id="_clip3">
      <path d="M61.216,120.238L243.572,171.819L243.572,69.844L61.481,17.705L61.216,120.238Z"/>
    </clipPath>
  </g>
  <defs>
    <linearGradient id="_Linear1" x1="0" y1="0" x2="1" y2="0" gradientUnits="userSpaceOnUse" gradientTransform="matrix(-963.180664, -963.180664, 963.180664, -963.180664, 955.990845, -7.584983)">
      <stop offset="0" style="stop-color:white;stop-opacity:1"/>
      <stop offset="1" style="stop-color:rgb(29,29,27);stop-opacity:1"/>
    </linearGradient>
    <linearGradient id="_Linear2" x1="0" y1="0" x2="1" y2="0" gradientUnits="userSpaceOnUse" gradientTransform="matrix(-760.885986, 760.885986, 760.885986, 760.885986, 894.622913, 170.757585)">
      <stop offset="0" style="stop-color:white;stop-opacity:1"/>
      <stop offset="1" style="stop-color:rgb(212,212,211);stop-opacity:1"/>
    </linearGradient>
  </defs>
</svg>
