<svg xmlns="http://www.w3.org/2000/svg" xmlns:xlink="http://www.w3.org/1999/xlink" viewBox="0 0 432.3 102.3"><defs><style>.a{fill:none;}.b{clip-path:url(#a);}.c{fill:#7c7c7b;}.d{fill:#e3051b;}</style><clipPath id="a"><rect class="a" width="432.3" height="102.25"/></clipPath></defs><g class="b"><path class="c" d="M48.3,34.8c4.2-8.2,10.3-16,17.5-20.1,4.7-2.7,9.8-1.4,11.1,5.1,1,4.9.9,8.7-2.5,10.9-5.6,3.7-15.7,4.9-26.1,4.1"/><path class="c" d="M45.1,34.6c-11.8-1.3-23.5-4.9-28.7-10.1-2.4-2.4-1.5-5.6-.1-7.9C21.6,8.4,35.3,1.3,46.6.1c3.6-.4,5.9.5,6.1,4.5.4,8.3-2.1,19.5-7.6,30"/><path class="c" d="M43.7,37.1C36.9,48.6,26.2,58.7,11,61.8,2.6,63.6,0,57.7,0,51.2s1.6-13.3,12.9-15c7.2-1,19.5-.7,30.8.9"/><path class="c" d="M47,37.6c9,1.5,16.8,3.8,19.9,6.8s2,4.2.4,6.5c-4.2,5.9-14.9,10.6-21.1,11.2-3.2.4-4-1.5-4.1-3.7C41.7,53,43.5,45.2,47,37.6"/><path class="c" d="M41.5,46.4C36.4,58.5,28.8,73.3,23.1,75.2l-3.5-3.6c8.2-.5,16.7-17.9,19.3-23.5Z"/><polygon class="d" points="86.7 20.6 96.5 20.6 96.5 44.5 107.5 44.5 105.6 53.7 86.7 53.7 86.7 20.6"/><polygon class="d" points="142.1 20.6 164.2 20.6 162.4 29.7 157 29.7 157 53.7 147.2 53.7 147.2 29.7 140.2 29.7 142.1 20.6"/><polygon class="d" points="165.6 20.6 187.7 20.6 185.9 29.7 180.5 29.7 180.5 53.7 170.8 53.7 170.8 29.7 163.8 29.7 165.6 20.6"/><path class="d" d="M194.8,37.4a7.4,7.4,0,1,0,7.4-7.4,7.4,7.4,0,0,0-7.4,7.4m-9.6,0a17,17,0,1,1,17,17,17,17,0,0,1-17-17"/><path class="d" d="M116.4,37.4a7.4,7.4,0,1,0,7.4-7.4,7.4,7.4,0,0,0-7.4,7.4m-9.6,0a17,17,0,1,1,17,17,17,17,0,0,1-17-17"/><path class="d" d="M432,51.2V35.5H419.9l.8,4.6h5.7v8.6a9.1,9.1,0,0,1-4.5,1.1,8.4,8.4,0,0,1-6.2-2.5c-1.6-1.9-2.5-5.2-2.5-9.8,0-7.8,2.3-13.2,8.4-13.2a10.7,10.7,0,0,1,7,2.6l2.8-3.5a14.5,14.5,0,0,0-9.9-3.5,13,13,0,0,0-8.2,2.6c-4.2,3.1-6.2,7.9-6.2,14.7,0,5.2,1.1,9,3.7,12.1S417,54,421.6,54A20.5,20.5,0,0,0,432,51.2m-31.1,2.3V20.3h-5.2V35.5c0,3,.3,7.8.5,9.5h-.2a49.1,49.1,0,0,0-3.4-8.5l-8-16.3h-6.3V53.5h5.4l-.2-16c0-3,0-6.5-.3-9.3h.2a85.7,85.7,0,0,0,4.2,9.8l7.4,15.6Zm-31-9.3V20.3h-5.5V42.6c0,4.5-2,6.8-6,6.8s-5.9-1.7-5.9-6.8V20.3h-5.6v24c0,5.3,2.7,9.8,11.5,9.8s11.5-3.8,11.5-9.9M342.7,20.3h-23v4.6h8.4V53.5h5.5V24.9H342Zm-24.9,0H300.2V53.5h5.5V38.3H315V33.9h-9.3V24.8h11.4Zm-26.2,0H286V53.5h5.6Zm-10.3,0h-23v4.6h8.4V53.5h5.5V24.9h8.3ZM255.7,43.5c0-5-3.4-8.1-8.2-9.4l-3.9-1.2c-3.3-1-4.4-2-4.4-4.1s2.1-4.5,5.4-4.5,4.7.7,7.8,2.6l2.5-3.9a18.1,18.1,0,0,0-10.5-3.2c-6.7,0-11.3,4-11.3,9.8a8.6,8.6,0,0,0,1.4,4.9c1.3,1.9,3.4,3.1,6.4,4l3.6,1c3.4.9,4.9,2.5,4.9,4.9s-2.4,5.3-6.5,5.3a17.5,17.5,0,0,1-9-2.7l-2.1,4.2a21.1,21.1,0,0,0,10.9,3c8.5,0,13-5.2,13-10.7"/><path class="c" d="M432.3,97.7H417.2a22.7,22.7,0,0,0,1.9-2.8L432,73.2V69H412.5l-1.2,4.6h10.9a32.4,32.4,0,0,0,3.6-.2s-1.2,1.6-2.2,3.3L410.7,98.2v4.1h20.2Zm-24.2,0H395.8V69h-5.6v33.3h17Zm-31.8-8.8h-8.2c.8-2.2,4.2-14.2,4.2-14.2h.1c.2,1.3,3.6,13.5,3.9,14.2m10,13.4L375.7,69h-6.4l-10.9,33.3h5.7l2.7-8.8h10.7l2.7,8.8ZM360.2,69H342.7v33.3h5.5V87h9.2V82.6h-9.2V73.5h11.3Zm-34.4,4.5a6.2,6.2,0,0,1,4.6,1.6,6,6,0,0,1,1.3,4.2c0,3.9-1.9,5.9-5.9,5.9h-4.4V73.5Zm12,5.5a9.2,9.2,0,0,0-4.6-8.4c-1.8-1.1-3.6-1.6-8.4-1.6H316v33.3h5.4V89.6h5.7c6,0,10.7-4.1,10.7-10.6m-28.1,7.7H299.2v4.9h10.5Zm-21.5-.4c0,7.6-2.4,11.4-8.2,11.4h-3.7V73.4h3.5c3,0,4.7.8,6.3,2.9s2.1,5.7,2.1,10m6.1-.6c0-5.1-1.1-9.1-3.6-12s-6.8-4.7-13-4.7h-7v33.3H279c6.2,0,9-1.2,11.8-4.7s3.5-6.8,3.5-11.9m-32.2,16.6V69h-5.3V84.2c0,3,.4,7.8.5,9.5h-.1a73.7,73.7,0,0,0-3.4-8.5L245.8,69h-6.2v33.3H245l-.2-16.1c-.1-3-.1-6.5-.4-9.2l.2-.2a85.8,85.8,0,0,0,4.2,9.9l7.5,15.6ZM225.4,88.9h-8.1c.7-2.2,4.2-14.2,4.2-14.2h0c.2,1.3,3.6,13.5,3.9,14.2m10,13.4L224.8,69h-6.4l-10.9,33.3h5.7l2.7-8.8h10.8l2.7,8.8Zm-29.1-4.6H194V69h-5.6v33.3h17Zm-26.4,4.6V69h-5.2V84.2c0,3,.3,7.8.5,9.5h-.2a49.1,49.1,0,0,0-3.4-8.5l-8-16.3h-6.3v33.3h5.4V86.2c-.1-3-.1-6.5-.4-9.2l.2-.2a85.8,85.8,0,0,0,4.2,9.9l7.4,15.6ZM148.7,69h-5.6v33.3h5.6Zm-12.2,33.3V97.5H123.2V87.2h10.2V82.6H123.2V73.5h12.1l.8-4.5H117.6v33.3Zm-27.6,0V69h-5.5V82.4H92.1V69H86.6v33.3h5.5V86.9h11.3v15.4Zm-42-28.8c4.9,0,6.7,1.7,6.7,5.1a5.6,5.6,0,0,1-1.5,4c-1,1-2.6,1.4-5.4,1.4H63.8V73.5Zm14.2,28.8-4.9-8c-1.7-2.8-3.9-6-5.1-6.6,5.2,0,8.2-4.4,8.2-9.2S76,69,68.5,69H58.4v33.3h5.4V87.9a2.7,2.7,0,0,1,2.2,1c1.8,1.8,3.4,4.1,5.7,8.2l2.8,5.2Z"/></g></svg>
