<svg xmlns="http://www.w3.org/2000/svg" xmlns:xlink="http://www.w3.org/1999/xlink" viewBox="0 0 283.5 425.2"><defs><style>.a{fill:#1d1d1b;}.b{fill:url(#a);}</style><linearGradient id="a" x1="118.18" y1="65.51" x2="163.64" y2="125.83" gradientUnits="userSpaceOnUse"><stop offset="0" stop-color="#fff"/><stop offset="0.55" stop-color="#fdc303"/></linearGradient></defs><path class="a" d="M279.9,364c-3.1,0-5.2.9-6.3,3.3l-14.1,31.2-14.6-31.2c-1-2.4-3.5-3.3-6.6-3.3s-4.5,1.1-3.3,3.4L253.9,406a2.9,2.9,0,0,1-.1,3c-2.3,4.4-4.9,8.1-9.6,8.1a7.2,7.2,0,0,1-4.3-1.6c-.7-.5-1-.8-1.8-.8s-3.8,2.1-3.8,4.8,3.8,5.7,9.9,5.7c9.4,0,14.8-8.3,19.6-18.1l19.3-39.7c1.1-2.3-.3-3.4-3.2-3.4M98.7,362.5a29,29,0,0,0-18.1,6c-.1-3.4-1.4-4.8-4.9-4.8H74.4c-1.3,0-2,.5-2,2.1v39.3c0,2.3,1.7,3.3,4.1,3.3s4.1-1,4.1-3.3V380a6.1,6.1,0,0,1,2.4-4.7,21.8,21.8,0,0,1,13.6-4.9c8.6,0,12.8,4.7,12.8,12.9v21.8c0,2.3,1.7,3.3,4.2,3.3s4.1-1,4.1-3.3V383c0-14-6.8-20.5-19-20.5m-53.4,0a28.9,28.9,0,0,0-18,6c-.2-3.4-1.4-4.8-4.9-4.8H21.1c-1.3,0-2.1.5-2.1,2.1v39.3c0,2.3,1.7,3.3,4.2,3.3s4.1-1,4.1-3.3V380a6.1,6.1,0,0,1,2.4-4.7,21.8,21.8,0,0,1,13.6-4.9c8.5,0,12.8,4.7,12.8,12.9v21.8c0,2.3,1.7,3.3,4.2,3.3s4.1-1,4.1-3.3V383c0-14-6.8-20.5-19.1-20.5m159.5,38c-9.5,0-15.8-6.1-15.8-14.9s6.3-15.7,15.8-15.7a17.8,17.8,0,0,1,12.6,5.4,5.5,5.5,0,0,1,1.6,4v12.4a6.3,6.3,0,0,1-1.8,4.1c-2.7,3-7.8,4.7-12.4,4.7m-1.4,24.7c16.5,0,23.7-9.3,23.7-25.6V365.9c0-1.5-.8-2.2-2.3-2.2h-.9A4.8,4.8,0,0,0,219,368a23.4,23.4,0,0,0-15.2-5.5c-13.7,0-23.3,10.3-23.3,23.2s9.3,22.3,23.3,22.3a24.5,24.5,0,0,0,14.9-5c0,8.7-4.2,14.6-14.9,14.6a19.8,19.8,0,0,1-13.7-5.3,2.5,2.5,0,0,0-1.8-.8c-1.6,0-3.8,2-3.8,5s8.5,8.7,18.9,8.7m-53.9-23.3c-10.1,0-17-6.7-17-15.7s6.9-16.3,17-16.3,16.5,6.8,16.5,16.3-6.6,15.7-16.5,15.7m-.1,7.7c14,0,25-9.8,25-23.4s-11-23.7-25-23.7-25.2,9.7-25.2,23.7,10.8,23.4,25.2,23.4M5.7,353.8a5.7,5.7,0,0,0,0-11.3,5.7,5.7,0,1,0,0,11.3m0,54.6a4.1,4.1,0,0,0,4.4-4.5V368.1c0-2.9-1.7-4.6-4.4-4.6s-4.4,1.7-4.4,4.6v35.8a4.1,4.1,0,0,0,4.4,4.5"/><path class="b" d="M166,92.8c5.2-1.7,8-2.2,9.3-2.1s.6.2.8.6a4,4,0,0,1,0,1.1c-.5,2.9-3.9,11.2-23.5,29.3L149,125a31.6,31.6,0,0,1,9.9,4.4l.4-.4c26.6-24.6,26.8-34.1,26.8-37.2a10.4,10.4,0,0,0-3.2-8.1c-6.6-6.5-20-1-41.2,8.5-8.1,3.6-16.5,7.4-23.3,9.5-8.8,2.7-10.4,1.6-10.6,1.4s-.1-5,2.7-9.8,9.6-13.6,15.9-21l3.1-3.8a36.4,36.4,0,0,1-8.9-4.8l-1.8,2.2c-12.9,15.3-28.8,34.3-17.7,44.5,7.9,7.3,24.9-.3,44.6-9.1,7.4-3.3,14.4-6.5,20.3-8.5"/><path class="a" d="M141.7,301.2a31,31,0,0,1-31-31V155a31,31,0,0,1,62,0V270.2a31,31,0,0,1-31,31m0-168.3A22.1,22.1,0,0,0,119.6,155V270.2a22.2,22.2,0,0,0,44.3,0V155a22.2,22.2,0,0,0-22.2-22.1"/><path class="a" d="M141.7,70.9a35.5,35.5,0,1,1,35.5-35.5,35.5,35.5,0,0,1-35.5,35.5m0-62a26.6,26.6,0,1,0,26.6,26.5A26.5,26.5,0,0,0,141.7,8.9"/></svg>
