<?xml version="1.0" encoding="utf-8"?>
<!-- Generator: Adobe Illustrator 19.1.0, SVG Export Plug-In . SVG Version: 6.00 Build 0)  -->
<svg version="1.1" id="Ebene_1" xmlns="http://www.w3.org/2000/svg" xmlns:xlink="http://www.w3.org/1999/xlink" x="0px" y="0px"
	 width="307px" height="35px" viewBox="0 0 307 35" style="enable-background:new 0 0 307 35;" xml:space="preserve">
<path style="fill:#010202;" d="M119.1,33.6c-0.4,0-0.8-0.2-1.2-0.6c-0.4-0.3-0.6-0.6-0.6-0.9c0-0.1,0-0.4,0.3-0.6
	c0.2-0.1,0.3-0.2,0.5-0.2h0.2l1.3,0.4h0.6l0.2,0.2l0.1-0.1l0.7-0.1l0.2-0.1l0.7-0.3l0.3-0.3c0.5-0.5,0.5-0.6,0.6-0.7l0.6-1.4
	l0.2-0.3l-0.1-0.4l0.2-1.4v-0.9l0.2-0.4c-0.1-0.2-0.2-0.4-0.2-0.6v-0.2l0.1-0.9V23l0.1-0.7l-0.1-0.1v-2.4h0.1l-0.2-0.1l0.1-2.3
	c-0.1-0.1-0.1-0.3-0.1-0.3l0.1-0.5l0.1-0.7h0.1c0-0.3,0-0.4,0-0.4l-0.3-0.4l-0.1-1.5l-0.4-0.5l0.5-0.9l0.4-0.1l1-0.7
	c0.1-0.1,0.3-0.1,0.5-0.1c0.1,0,0.7,0,0.7,0.8v0.1l-0.1,0.3v0.4l-0.1,1.2v0.1v0.2l-0.2,0.5v0.3l0,0c0.3,0.2,0.3,0.5,0.3,0.6
	l-0.1,0.8l0.1,1.5l-0.1,0.6l0.1,0.4v0.8l0.1,0.6v0.3v0.5v0.5v0.3v0.3v0.3v0.2v0.2v0.1l0.2,0.6l-0.1,1.3c0,0.4-0.1,0.8-0.2,1.1
	l-0.1,0.3h-0.1l0.1,0.3l-0.3,1.3v0.1c0,0.2-0.1,0.4-0.3,0.9l-0.2,0.5l-0.2,0.5h-0.2l-0.3,0.4l-0.5,0.8l-0.8,0.8l-0.1,0.2l-0.1,0.1
	l-0.6,0.3l-0.1,0.1c-0.1,0.2-0.3,0.3-0.5,0.4l-0.2,0.1l-0.2-0.1c-0.1,0-0.7,0.2-0.7,0.2h-0.5l-0.6,0.2
	C119.6,33.6,119.3,33.6,119.1,33.6z M153.4,29L153.4,29h-0.6l-0.5,0.1l-0.8-0.4l-0.9-0.1l-0.9-0.6l-0.5-0.2l-0.1-0.1
	c-0.2-0.2-0.3-0.4-0.4-0.8c-0.1-0.3-0.2-0.6-0.2-0.9c0-0.2,0-0.4,0.3-0.9l0.1-0.3l0.3-0.3l0.2-0.1l0.5-0.5l0.9-0.3l0.3-0.2h0.1
	c0.2,0,0.4,0.1,0.5,0.2s0.2,0.3,0.2,0.5s-0.1,0.4-0.2,0.5l-0.5,0.5l-0.1,0.1l-0.1,0.2l0.1,0.4l0,0c0,0,0.1,0.3,0.2,0.3l0.9,0.5
	l0.1,0.2l0.2,0.1c0.2,0,0.3,0.1,0.3,0.1h0.5l0.6,0.1l0.3-0.1h1.4l0.4-0.1l1.3-0.3l0.9-0.3h0.3l0,0l0.1-0.2l0.4-0.2l0.5-0.3v-0.2
	l0.3-0.2l-0.1-0.3l0.2-1h-0.1l-0.1-0.4l-0.2-0.7v-0.2c-0.1,0-0.2-0.1-0.5-0.2l-0.2-0.1l-0.4-0.1h-0.5h-0.4h-0.9l-0.4-0.2l-0.2,0.1
	c-0.2,0.1-0.5,0.2-0.8,0.2h-1.1l-0.3-0.1l-0.3,0.2l-0.2,0.1h-0.2c-0.2,0-0.5,0-1.3-0.4c-0.3-0.1-0.6-0.3-0.9-0.5l-0.1-0.1l-0.1-0.4
	c-0.1-0.2-0.2-0.5-0.2-0.8s0.1-0.6,0.4-0.8l0.8-0.7l0.1-0.1l-0.3-0.1l-0.3-0.4l-0.1-0.2H151h-0.3l-0.3-0.5l0.1-0.3
	c-0.1-0.1-0.2-0.3-0.2-0.6v-0.2l0.1-0.5v-0.5l0.2-0.4v-0.5c0-0.2,0.1-0.3,0.6-0.9l0.3-0.3l0.1-0.1l0.1-0.1l0,0l0.2-0.1l0.1-0.1
	c0.3-0.3,0.5-0.4,0.6-0.5s0.3-0.1,0.4-0.2l0.1-0.1l0.4-0.1l1.8-0.4l1.7,0.2l0.3-0.2c0.3-0.2,0.6-0.3,0.8-0.3h0.1h0.1c0,0,0,0,0.1,0
	l0.4,0.1h0.9c0.1,0,0.2,0,0.3,0.1c0.1-0.3,0.4-0.4,0.6-0.4c0.2-0.1,0.4-0.1,0.6-0.2l0.5-0.2l0.5,0.7v0.2c0,0.2-0.1,0.3-0.1,0.4
	c0.1,0,0.2,0,0.3,0.1h0.1l0.1-0.6v-1c0-0.2,0.1-0.4,0.1-0.5l-0.2-0.3V9.3l-0.1-2.1c0-0.3,0.1-0.6,0.2-0.8l0.2-0.3L162.7,6V5.8
	c0.1-0.5,0.3-1.1,0.7-1.7s0.9-1,1.4-1.3l1.2-0.7l0.3-0.2l0.5-0.1l0.7-0.2l0.4,0.1h0.7c0.2,0,0.4,0.1,0.6,0.2c0.1,0,0.1,0.1,0.2,0.2
	l0,0c0.1,0,0.3,0,0.4,0.1l0.3,0.2l-0.3,0.7l-0.4,0.4l-0.3,0.3L168.8,4l-0.5,0.3l-1.1-0.5c-0.4-0.2-0.5-0.2-0.5-0.2s-0.2,0-0.7,0.2
	c-0.3,0.1-0.5,0.3-0.6,0.7l-0.3,0.8l-0.2,0.5l-0.2,0.7l0,0h0.1l-0.1,2.6l-0.2,0.2v0.1v0.1l0.3,0.6l-0.1,0.5l0.1,0.9
	c0,0.2,0,0.4-0.2,0.6c0.1,0.1,0.2,0.2,0.2,0.3v0.2l1.2,0.1l0.7-0.1l0.9-0.1l0.4-0.1h0.3h0.7l0.3,0.5c0.1-0.2,0.2-0.4,0.3-0.5
	l0.1-0.1l0.7-0.4l0.5-0.3l0.2,0.1c0.3,0.1,0.5,0.2,0.6,0.3c0.2,0.2,0.2,0.4,0.2,0.7l0.5-0.2l0.8-0.4l0.5-0.2L174,12l0.3-0.1
	c0.3-0.1,0.5-0.1,0.7-0.1l0.7,0.1l0.1,0.2c0.1,0,0.2-0.1,0.3-0.1c0.2,0,0.5,0.1,0.9,0.5c0.2,0.2,0.3,0.4,0.3,0.7v0.1l0.3-0.3
	l0.4-0.2l0.5-0.2l0.7-0.2h0.2l0.5-0.3l0.4,0.1l1.2-0.3h0.6h0.5l0.5,0.2l1.2,0.2l0.5,0.3v0.2c0.3,0,0.5,0.2,0.6,0.4l0.1-0.3l0.3,0.2
	v0.5v0.5l0,0c0,0,0,0.1,0.1,0.1l0.2,0.1l0.2,1.9l-0.1,0.2l0.1,0.2v0.3l-0.1,1l0.1,0.6v0.8h-0.1l0.4,0.8l-0.2,0.4l-0.3,0.4l-0.4,0.2
	l-0.3,0.2l-0.5,0.2c-0.4,0.1-0.5,0.2-0.6,0.2c-0.2,0-0.4-0.1-0.5-0.2s-0.2-0.3-0.2-0.4l-0.3,0.1c-0.2,0.1-0.4,0.2-0.7,0.2h-0.3
	l-0.4,0.2h-0.4l-1,0.2l-0.3-0.1l-0.1,0.1l-0.3,0.1h-0.4l-0.7-0.1h-0.4c-0.4-0.1-0.8-0.2-1-0.4c-0.2-0.2-0.4-0.4-0.6-0.6l-0.3-0.1
	l-0.1-0.5V20l-0.2-0.6l0.5-0.9l0.1-0.3c0.1-0.2,0.2-0.4,0.5-0.6l0.8-0.7l0.4-0.1l0.5-0.2c0.2-0.2,0.5-0.4,0.8-0.4l0,0l0.3-0.1
	c0.1-0.1,0.2-0.1,0.3-0.2c0.1-0.1,0.3-0.1,0.6-0.2l1.3-0.2h0.4l0.4-0.1l0.8-0.1l-0.1-0.4l0.1-0.6h-0.3l-0.3-0.4
	c-0.2-0.3-0.2-0.3-0.2-0.3l0,0c0,0-0.1,0-0.3-0.1l-0.6-0.1h-0.5h-0.2h-0.1l-0.1-0.1c0,0-0.1,0-0.1-0.1l-0.2,0.2l-1,0.5
	c-0.2,0.1-0.2,0.1-0.2,0.1l-0.2,0.2c-0.1,0.2-0.4,0.4-0.7,0.4l-0.4-0.1l-0.3-0.1h-0.2c-0.2-0.1-0.4-0.2-0.5-0.3
	c-0.2-0.2-0.3-0.4-0.3-0.6l0,0l-0.3,0.3l-0.3,0.4l-0.5,0.2l-0.5-0.3l-0.1-0.1h-0.5l-0.5-0.2c-0.1,0.1-0.2,0.1-0.3,0.2
	c-0.1,0.1-0.3,0.1-0.6,0.1l-0.4,0.2l-0.2-0.1l-0.7,0.6c0,0.1-0.1,0.2-0.1,0.6v1l0,0h0.1l0.1,0.7l0.1,2v0.4h0.2l-0.2,0.8l0.1,0.3v0.1
	c0,0.2-0.1,0.5-0.3,0.7s-0.4,0.3-0.6,0.3h-0.3l-0.7,0.4l-0.8-0.5l0.1-0.5l0.1-0.5l-0.1-0.8l0.2-0.4v-0.1v-0.5l-0.1-0.3v-0.3v-0.5
	l0.2-0.2l0.1-0.1c-0.3-0.2-0.3-0.4-0.3-0.5v-0.8l-0.1-0.8v-0.1c0-0.1,0-0.1,0.1-0.1h-0.1l-0.1-0.4v-0.5l-0.1-0.2l-0.3,0.2l-0.7,0.5
	l-0.5,0.4l-1.2-0.2l-1,0.1c-0.2,0-0.4,0-0.6-0.1c-0.1,0-0.2-0.1-0.3-0.1l0,0l0.2,1.4c0,0.2-0.1,0.4-0.2,0.5l0.1,0.1l0.1,0.4l0.1,1.2
	l0.1,0.6l-0.3,0.3l0.2,0.2v0.4v0.3v0.2l0.1,0.6l-0.3,0.1v0.3l-1.3,0.5l-1.1,0.1l-0.5-0.4v-0.4V21l0.1-0.2l0.1-0.7l0.2-0.4v-0.3
	l-0.1-0.7l0.2-0.2c0.1-0.1,0.1-0.2,0.1-0.2v-0.1l-0.2-0.7v-1.1v-1.7v-0.3h-0.3l-0.6-0.1l0,0h-0.1c-0.3,0.1-0.4,0.1-0.5,0.1
	c-0.4,0-0.7-0.3-0.7-0.7l0,0h-0.1c-0.2,0.1-0.4,0.1-0.5,0.1h-0.2l0,0L160,14v1.2h-0.3c0,0.1,0,0.1,0,0.2c0,0.3-0.1,0.5-0.2,0.6
	l-0.4,0.5l-0.1,0.2l-0.8,0.7l-0.1,0.2c-0.2,0.2-0.4,0.4-0.8,0.6l-0.6,0.3c-0.3,0.2-0.7,0.3-1.3,0.4c0,0.4-0.3,0.6-0.6,0.6l-0.5,0.1
	l-0.4,0.2l-0.4-0.1c-0.1,0-0.2,0.1-0.2,0.2c-0.1,0.1-0.1,0.1-0.1,0.2l0,0l0,0l0.9,0.1l0.7-0.1l0.4,0.2l0.1-0.1
	c0.3-0.2,0.5-0.3,0.8-0.3h1.5l0.1,0.1l0,0l0.4-0.1h0.3c0.7,0,0.9,0.1,1,0.2l0.3,0.1l0.8,0.2l0.6,0.4V21h0.1c0.2,0,0.6,0.1,0.8,0.6
	l0.1,0.4l0.3,1.1v0.2c0,0.5-0.2,1-0.5,1.8l-0.1,0.3l-0.2,0.1c0,0-0.1,0-0.1,0.1l0,0c0,0-0.1,0.2-0.2,0.4l-0.4,0.6h-0.2l-0.2,0.2
	l-0.4,0.3c0,0,0,0.1-0.1,0.2l-0.1,0.1l-2.2,1.1h-0.2l-0.5,0.2l-1.3,0.2l-0.9,0.3h-1.1h-0.1h-0.2V29L153.4,29z M180.3,20.2l0.3-0.3
	l0.3,0.1l0.2-0.1l0.4,0.1c0,0,0.1,0,0.5-0.2l0.3-0.2h0.1c0.6,0,0.8-0.1,0.8-0.2l0.2-0.3l0.3-0.3l-0.1-0.4l0.2-0.1l-0.1-0.1l0.1-0.5
	l-0.1-0.8l-0.8-0.1h-0.5l-0.2-0.1l0,0h-0.6l-0.5,0.2l-0.2-0.1l-1.6,0.8l-0.2,0.1l-0.3,0.4l-0.1,0.1v0.2l0.2,0.9l0,0l0,0
	c0.1,0.1,0.1,0.1,0.2,0.2c0,0,0.1,0.1,0.2,0.1c0.1,0,0.2,0.1,0.4,0.1h0.2l0.2,0.2L180.3,20.2z M154,16.9c0,0,0.1,0,0.2,0
	c0.1,0,0.4,0,0.7,0s0.5,0,0.6-0.1l0.8-0.3l0.3-0.1l0.2-0.2l0.4-0.3l0.1-0.3l0.1-0.1v-0.3v-0.3c0-0.2,0-0.3,0-0.4l-0.5-0.5l-0.4-0.2
	l-0.7-0.3l-0.2-0.1h-0.1l-0.3,0.2l-0.6-0.1l-0.5,0.2h-0.3l-0.2,0.1l-0.1,0.1l-0.4,0.4c-0.1,0.1-0.2,0.2-0.2,0.2l0,0
	c0,0,0,0.1-0.1,0.4l-0.1,0.5v0.1v0.2l0.5,0.3l-0.1,0.4l0.3,0.1L154,16.9z M43.3,24.1c-0.2,0-0.5,0-0.7-0.1c-0.9-0.2-1.1-0.3-1.1-0.3
	l0,0c-0.7,0-0.8-0.5-0.8-0.6v-0.2l0.1-0.2l0.3-0.3l0.5-0.1c0.3-0.1,0.4-0.1,0.5-0.1c0,0,0.1-0.1,0.1-0.2v-0.3l0.2-0.6v-0.2v-0.4l0,0
	c0-0.1,0-0.2,0-0.3l0.1-1.3l0.1-0.2c0-0.1,0-0.2,0-0.2v-0.3l-0.2-0.3v-0.8v-1l0.2-0.5c0,0,0,0,0-0.1l-0.3-0.2v-0.7v-0.2
	c0-0.2,0.1-0.4,0.2-0.5h-0.1l-0.2-0.7l0.1-0.7l-0.1-1l0.1-0.2L42.2,11V9.8l-0.4-0.5l0.4-0.8l0,0l-0.1-0.7c-0.1,0-0.2-0.1-0.3-0.1
	l-0.6-0.2v-1L42,6.2h1L43.4,6c0.2-0.1,0.5-0.1,0.9-0.1h0.9L45.6,6L46,5.9l0.3,0.2h0.3h0.5h0.4L48,6l0.9,0.3h1l0.4,0.2l1.3,0.2
	L52.5,7l0.9,0.2l1.5,0.5L54.8,8l0.3-0.1L55.6,8l0.5,0.1l0.5,0.4v0.1h0.1c0.4,0,0.6,0.2,0.8,0.4c0.3,0,0.7,0.2,1.2,0.6
	c0.5,0.3,0.9,0.8,1.3,1.2l0.3,0.4l-0.2,0.2l0.2,0.1v0.1c0.1,0.2,0.2,0.4,0.3,0.8l0.1,0.4l-0.2,0.1l0.2,0.2c0.1,0.2,0.1,0.3,0.1,0.5
	v0.1l-0.1,0.5v0.5c0,0.5-0.2,0.9-0.4,1.1l-0.2,0.3h0.1l-0.4,0.5l-0.1,0.3l-0.2,0.4l-0.4,0.5l-1,0.6l-0.5,0.8l-0.5,0.4l-0.8,0.8
	c-0.3,0.3-0.6,0.4-0.8,0.5l-0.8,0.3c-0.1,0.2-0.1,0.3-0.2,0.4l-0.1,0.1L54,21.8l-1.4,0.7L51.8,23c-0.4,0.2-0.8,0.4-1.1,0.4
	c-0.1,0-0.2,0-0.4-0.1c-0.2,0.1-0.4,0.2-0.8,0.3l-0.7,0.2l-0.5,0.1L47.2,24l-0.4,0.1l-0.6-0.2c-0.3,0.2-0.6,0.2-1,0.3h-0.3l-0.1-0.1
	c-0.1,0-0.2-0.1-0.3-0.1l-0.2,0.1C44.1,24,43.7,24.1,43.3,24.1z M47.7,22l1.8-0.5h0.3l1.3-0.5l0.9-0.4l0.3-0.1l0.3-0.2l0.9-0.3
	l0.7-0.7l0.3-0.1l0,0l0.2-0.6l0.6-0.3l0.2-0.3l0.5-0.6l0.1-0.2h-0.2l0.6-0.7c0.2-0.2,0.4-0.5,0.5-0.7c0.1-0.3,0.2-0.8,0.3-1.3
	c0-0.3,0.1-0.7,0.2-1l-0.1-0.1c0-0.1-0.1-0.1-0.1-0.2h-0.2v-0.5l0,0c0,0,0-0.1-0.1-0.2L56.7,12l0,0l0,0l-0.6-0.4
	c-0.1,0-0.2-0.1-0.3-0.2s-0.2-0.2-0.3-0.3l-0.1-0.2l0,0c-0.3,0-0.5,0-0.6-0.1h-0.1l-1.2-0.6L53,10.1l-0.3-0.2l-0.6-0.1V9.6l-0.2,0.1
	l-0.4-0.1c-0.3-0.2-0.4-0.2-0.5-0.2l-0.4-0.1c-0.2,0-0.3-0.1-0.4-0.2c0,0-0.1-0.1-0.2-0.1s-0.3,0.1-0.4,0.1c-0.3,0-0.6-0.1-0.8-0.3
	l-0.2-0.1l-0.7-0.1l-1.7-0.2l-0.9,0.1l-0.2,0.4H45c0,0.2,0,0.3-0.1,0.5v0.1c0.2,0.6,0.2,0.7,0.2,0.8L45,11l0,0v1.1l0,0
	c0.1,0.1,0.1,0.2,0.1,0.4v0.3l-0.2,0.1l0.2,0.5L45,15.6l0.1,0.4L45,16.5l0.1,0.1L45,17.3l0.1,0.6c0,0.3-0.1,0.6-0.2,0.7l-0.1,0.1
	l0.3,0.2v0.6V21l0.1,0.3c0,0.1,0.1,0.3,0.1,0.4c0.1,0.1,0.1,0.3,0.1,0.4s0,0.2-0.1,0.3H47L47.7,22z M2.6,24.1c-0.2,0-0.5,0-0.7-0.1
	c-0.9-0.2-1.1-0.3-1.1-0.3l0,0c-0.7,0-0.8-0.5-0.8-0.6v-0.2l0.1-0.2l0.3-0.3l0.5-0.1c0.3-0.1,0.4-0.1,0.5-0.1c0,0,0.1-0.1,0.1-0.2
	v-0.3l0.2-0.6v-0.2v-0.4l0,0c0-0.1,0-0.2,0-0.3l0.1-1.3l0.1-0.1c0-0.1,0-0.2,0-0.2v-0.3L1.7,18v-0.8v-1l0.2-0.5c0,0,0,0,0-0.1
	l-0.3-0.2v-0.7v-0.2c0-0.2,0.1-0.4,0.2-0.5H1.7l-0.2-0.7l0.1-0.7l-0.1-1l0.1-0.2l-0.1-0.3V9.9L1.1,9.4l0.4-0.8l0,0L1.4,7.9
	c-0.1,0-0.2-0.1-0.3-0.1L0.5,7.6v-1l0.8-0.3h1l0.4-0.2C2.9,6,3.2,6,3.6,6h0.9l0.4,0.1L5.3,6l0.3,0.2h0.3h0.5h0.4l0.5-0.1l0.9,0.3h1
	l0.4,0.2l1.3,0.2l0.9,0.3l0.9,0.2l1.5,0.5l-0.1,0.3L14.4,8l0.5,0.1l0.5,0.1l0.5,0.4v0.1H16c0.4,0,0.6,0.2,0.8,0.4
	c0.3,0,0.7,0.2,1.2,0.6c0.5,0.3,0.9,0.8,1.3,1.2l0.3,0.4l-0.2,0.2l0.2,0.1v0.1c0.1,0.2,0.2,0.4,0.3,0.8l0.1,0.4L19.8,13l0.2,0.2
	c0.1,0.2,0.1,0.3,0.1,0.5v0.1L20,14.3v0.5c0,0.5-0.2,0.9-0.4,1.1l-0.2,0.3h0.1l-0.4,0.5L19,17l-0.2,0.4l-0.4,0.5l-1,0.6l-0.5,0.8
	l-0.5,0.4l-0.8,0.8c-0.3,0.3-0.6,0.4-0.8,0.5L14,21.3c-0.1,0.2-0.1,0.3-0.2,0.4l-0.1,0.1l-0.4,0.1l-1.4,0.7l-0.8,0.5
	c-0.4,0.2-0.8,0.4-1.1,0.4c-0.1,0-0.2,0-0.4-0.1c-0.2,0.1-0.4,0.2-0.8,0.3l-0.7,0.2L7.6,24l-1.1,0.1l-0.4,0.1L5.5,24
	c-0.3,0.2-0.6,0.2-1,0.3H4.2l-0.1-0.1c-0.1,0-0.2-0.1-0.3-0.1l-0.2,0.1C3.3,24,3,24.1,2.6,24.1z M7,22l1.8-0.5h0.3l1.3-0.5l0.9-0.4
	l0.3-0.1l0.3-0.2l0.9-0.3l0.7-0.7l0.3-0.1l0,0l0.2-0.6l0.6-0.3l0.2-0.3l0.5-0.6l0.1-0.2h-0.2l0.6-0.7c0.2-0.2,0.4-0.5,0.5-0.7
	c0.1-0.3,0.2-0.8,0.3-1.3c0-0.3,0.1-0.7,0.2-1l-0.1-0.1c0-0.1-0.1-0.1-0.1-0.2h-0.2v-0.5l0,0c0,0,0-0.1-0.1-0.2L16,12l0,0l0,0
	l-0.6-0.4c-0.1,0-0.2-0.1-0.3-0.2s-0.2-0.2-0.3-0.3l-0.1-0.2l0,0c-0.3,0-0.5,0-0.6-0.1H14l-1.2-0.6l-0.5-0.1L12,9.9l-0.6-0.1V9.6
	l-0.2,0.1l-0.4-0.1c-0.3-0.2-0.4-0.2-0.5-0.2L9.9,9.3c-0.2,0-0.3-0.1-0.4-0.2c0,0-0.1-0.1-0.2-0.1C9.2,9,9,9.1,8.9,9.1
	C8.6,9.1,8.3,9,8.1,8.8L7.9,8.7L7.2,8.6L5.5,8.4L4.6,8.5L4.4,8.9H4.3c0,0.2,0,0.3-0.1,0.5v0.1c0.2,0.6,0.2,0.7,0.2,0.8L4.3,11l0,0
	v1.1l0,0c0.1,0.1,0.1,0.2,0.1,0.4v0.3l-0.2,0.1l0.2,0.5l-0.1,2.2L4.4,16l-0.1,0.5l0.1,0.1l-0.1,0.7l0.1,0.6c0,0.3-0.1,0.6-0.2,0.7
	l-0.1,0.1l0.3,0.2v0.6V21l0.1,0.3c0,0.1,0.1,0.3,0.1,0.4c0.1,0.1,0.1,0.3,0.1,0.4s0,0.2-0.1,0.3h1.7L7,22z M90.8,21.4l-0.1-0.1V21
	v-0.4l0.1-0.4v-0.5l0.2-0.4c-0.1-0.2-0.2-0.4-0.2-0.5l0.1-3v-1l0.3-0.5c-0.1-0.1-0.1-0.2-0.2-0.3c0-0.1-0.1-0.3-0.1-0.5v-2.3
	l0.1-0.8c-0.1-0.1-0.1-0.2-0.2-0.3V10V9.2L90.7,8l0.1-0.3l-0.2-0.3V7V6.8l0.1-0.3c-0.2-0.2-0.2-0.4-0.2-0.5V4.1l-0.2-0.9l0,0L90,3
	l0.1-0.3c0-0.2,0.2-0.4,0.5-0.6l0.8-0.4c0.4-0.2,0.7-0.3,0.9-0.3c0.7,0,0.8,0.4,0.8,0.6v0.1L93,2.8V4c0,0.2,0,0.3-0.1,0.4H93v0.8
	l-0.1,1.9v0.7l-0.2,0.5C92.9,8.6,93,8.8,93,9v0.1l-0.1,0.2l-0.1,0.1l0.1,0.6l0.1,0.2v0.2l-0.1,0.2L93,11v0.4l0.1,0.2L93,12.5l1-0.8
	l0.2,0.1l0.4-0.2l0.5-0.1l0.6-0.1h0.1c0.1,0,0.3,0.1,0.5,0.3l0.2-0.3l0.7,0.1l1.3,0.1l0.7,0.6l0.4,0.2l0.2,0.4l0.1,0.1
	c0.3,0.3,0.4,0.7,0.4,1.2v0.7c0,0.4,0,0.5-0.1,0.6c0,0.1-0.1,0.1-0.1,0.2l0.1,0.3l-0.2,0.3l0.1,0.1v2l-0.2,0.2l0.1,0.8V20v0.2
	c0,0.4-0.2,0.8-0.8,0.8H99l-0.5,0.3L98,21.6l-0.9-0.8l0.1-0.6l0.3-1l-0.1-0.8l0.3-1c0-0.1,0-0.2,0-0.4c-0.2-0.2-0.2-0.5-0.2-0.6
	c0-0.2,0.1-0.5,0.2-0.8c0-0.1,0.1-0.2,0.1-0.4l-0.1-0.9l0.1-0.3l-0.2-0.3l-0.3-0.1l-0.5-0.3h-0.2l-0.7-0.1h-0.7h-0.4
	c-0.1,0-0.2,0.1-0.4,0.1l-0.5,0.3l-0.4,0.2L93.3,14L93,14.4l0.1,0.5L93,16.4l0.1,0.8H93l0.1,1.3v0.3v0.3L93,19.3v0.9l-0.4,0.7
	l-0.3-0.1h-0.1c-0.1,0-0.2,0.1-0.3,0.1h-0.1c-0.3,0.3-0.5,0.4-0.7,0.4L90.8,21.4L90.8,21.4z M71.9,21.8l-0.7-0.1h-0.4
	c-0.4-0.1-0.8-0.2-1-0.4c-0.2-0.2-0.4-0.4-0.6-0.6l-0.3-0.1l-0.1-0.5v-0.2l-0.2-0.6l0.5-0.9l0.1-0.3c0.1-0.2,0.2-0.4,0.5-0.6
	l0.8-0.7l0.4-0.1l0.5-0.2c0.2-0.2,0.5-0.4,0.8-0.4l0,0l0.3-0.1c0.1-0.1,0.2-0.1,0.3-0.2c0.1-0.1,0.3-0.1,0.6-0.2l1.3-0.2h0.4
	l0.4-0.1l0.8-0.1l-0.1-0.4l0.1-0.6H76l-0.3-0.4c-0.2-0.3-0.2-0.3-0.2-0.3l0,0c0,0-0.1,0-0.3-0.1l-0.6-0.1h-0.5h-0.2h-0.1l-0.1-0.1
	c0,0-0.1,0-0.1-0.1l-0.2,0.2l-1,0.5c-0.2,0.1-0.2,0.1-0.2,0.1L72,14.1c-0.1,0.2-0.4,0.4-0.7,0.4l-0.4-0.1l-0.3-0.1h-0.2
	c-0.2-0.1-0.4-0.2-0.5-0.3c-0.2-0.2-0.3-0.4-0.3-0.6l0,0l-0.3,0.3L69,14.1l-0.5,0.2L68,14l-0.1-0.1h-0.5l-0.5-0.2
	c-0.1,0.1-0.2,0.1-0.3,0.2C66.5,14,66.3,14,66,14l-0.4,0.2l-0.2-0.1l-0.7,0.6c0,0.1-0.1,0.2-0.1,0.6v1l0,0h0.1l0.1,0.7l0.1,2v0.4
	h0.2l-0.2,0.8l0.1,0.3v0.1c0,0.2-0.1,0.5-0.3,0.7c-0.2,0.2-0.4,0.3-0.6,0.3h-0.3L63.1,22l-0.8-0.5l0.1-0.5l0.1-0.5l-0.1-0.8l0.2-0.4
	v-0.1v-0.5l-0.1-0.3v-0.3v-0.5l0.2-0.2c0,0,0-0.1,0.1-0.1c-0.3-0.2-0.3-0.4-0.3-0.5V16l-0.1-0.8v-0.1c0-0.1,0-0.1,0.1-0.2h-0.1
	l-0.1-0.4V14l-0.2-0.5v-0.2c0.1-0.3,0.2-0.6,0.5-0.9l0.1-0.1l0.7-0.4l0.5-0.3l0.2,0.1c0.3,0.1,0.5,0.2,0.6,0.3
	c0.2,0.2,0.2,0.4,0.2,0.7l0.5-0.2l0.8-0.4l0.5-0.2L67,12l0.3-0.1c0.3-0.1,0.5-0.1,0.7-0.1l0.7,0.1l0.1,0.2c0.1,0,0.2-0.1,0.3-0.1
	c0.2,0,0.6,0.1,0.9,0.5c0.2,0.2,0.3,0.4,0.3,0.7v0.1l0.3-0.3l0.4-0.1l0.5-0.2l0.7-0.2h0.2l0.5-0.3l0.4,0.1l1.2-0.3h0.6h0.5l0.5,0.2
	l1.2,0.2l0.5,0.3v0.2c0.3,0,0.5,0.2,0.6,0.4l0.1,0.2l0.3,0.2v0.5v0.5l0,0c0,0,0,0.1,0.1,0.1l0.2,0.1l0.2,1.9L79.2,17l0.1,0.2v0.3
	l-0.1,1l0.1,0.6v0.8h-0.1l0.4,0.8l-0.2,0.4l-0.3,0.4l-0.4,0.2l-0.3,0.2l-0.5,0.2c-0.3,0.1-0.5,0.2-0.6,0.2c-0.2,0-0.4-0.1-0.5-0.2
	s-0.2-0.3-0.2-0.4l-0.3,0.1c-0.2,0.1-0.4,0.2-0.7,0.2h-0.3l-0.4,0.2h-0.4l-1,0.2l-0.3-0.1l-0.1,0.1l-0.3,0.1L71.9,21.8z M72.7,20.2
	l0.3-0.3l0.3,0.1l0.2-0.1l0.4,0.1c0,0,0.1,0,0.4-0.2l0.3-0.2h0.1c0.6,0,0.8-0.1,0.8-0.2l0.2-0.3l0.3-0.3l-0.1-0.4l0.2-0.1L76,18.2
	l0.1-0.5L76,16.9l-0.8-0.1h-0.5l-0.2-0.1l0,0h-0.6l-0.5,0.2l-0.2-0.1l0,0l-1.5,0.7l-0.2,0.1L71.2,18l-0.1,0.1v0.2l0.2,0.9l0,0l0,0
	c0.1,0.1,0.1,0.1,0.2,0.2c0,0,0.1,0,0.2,0.1c0.1,0,0.2,0.1,0.4,0.1h0.2l0.2,0.2L72.7,20.2z M146.8,21.4c-0.3-0.4-0.4-0.6-0.4-0.8
	v-0.1v-0.1l0.2-1V19l0,0l-0.1-0.5l0.2-1.8l-0.1-0.3V16v-0.8V15l-0.1-0.1v-0.7c-0.1-0.1-0.1-0.3-0.2-0.4l-0.1-0.1l0,0l-0.5-0.3H145
	l-0.8-0.1l-0.2,0.3l-0.4-0.1l-0.7,0.1h-0.2l-0.3,0.2l-0.5,0.2c-0.1,0-0.1,0.1-0.1,0.1V15l-0.1,0.6l0.2,0.5v0.4v1.3l-0.2,0.4l0.2,0.3
	l0.1,1.2l0.1,0.3v0.1c0,0.1,0,0.3-0.1,0.4c-0.1,0.2-0.2,0.3-0.4,0.3l-0.7,0.2c-0.2,0.2-0.4,0.3-0.6,0.3c-0.1,0-0.3,0-0.6-0.3h-0.4
	l0.1-0.5v-0.1l0,0l0.1-0.6v-0.9l0.1-0.3l-0.1-0.5v-0.7v-1.3V16h-0.1v-2.6h0.1l-0.2-0.5l-0.3-0.4l0.3-0.6l0.3-0.4l0.4-0.2l0.3-0.2
	c0.2-0.1,0.4-0.2,0.7-0.2c0.2,0,0.4,0.1,0.5,0.1c0.2,0.2,0.3,0.3,0.4,0.5v0.3c0.1-0.1,0.2-0.2,0.3-0.2c0.4-0.3,0.7-0.5,1-0.5
	c0.1,0,0.2,0,0.3,0.1c0,0,0,0,0.1,0c0.3-0.2,0.5-0.2,0.8-0.2h0.1l0.7,0.1l0.3-0.1l1,0.1c0.3,0,0.6,0.1,0.8,0.3
	c0.4,0,0.7,0.2,0.9,0.5l0.4,0.6c0.1,0.2,0.2,0.5,0.2,1v0.6v0.2v0.2l-0.2,0.3l0.1,0.1l0.1,0.1v0.5c0,0.1,0,0.2-0.1,0.3l-0.1,0.2
	l0.2,0.2v0.5v0.6l0.1,0.4v1l0.1,1.2l-0.2,0.6L146.8,21.4L146.8,21.4z M120.1,21.4c-0.3-0.4-0.4-0.6-0.4-0.8v-0.1v-0.1l0.2-1V19l0,0
	l-0.1-0.5l0.2-1.8l-0.1-0.3V16v-0.8V15l-0.1-0.1v-0.7c-0.1-0.1-0.1-0.3-0.2-0.4l-0.1-0.1l0,0l-0.5-0.3h-0.7l-0.8-0.1l-0.2,0.3
	l-0.4-0.1l-0.7,0.1H116l-0.3,0.2l-0.5,0.2c-0.1,0-0.1,0.1-0.1,0.1V15l-0.1,0.6l0.2,0.5v0.4v1.3l-0.2,0.4l0.2,0.3l0.1,1.2l0.1,0.3
	v0.1c0,0.1,0,0.3-0.1,0.4c-0.1,0.2-0.2,0.3-0.4,0.3l-0.7,0.2c-0.2,0.2-0.4,0.3-0.6,0.3c-0.1,0-0.3,0-0.6-0.3h-0.4l0.1-0.5v-0.1l0,0
	l0.1-0.6v-0.9l0.1-0.3l-0.1-0.5v-0.7v-1.3V16h-0.1v-2.6h0.1l-0.2-0.5h-0.1l0.3-0.6l0.3-0.4l0.4-0.2l0.3-0.2c0.2-0.1,0.4-0.2,0.7-0.2
	c0.2,0,0.4,0.1,0.5,0.1c0.2,0.2,0.3,0.3,0.4,0.5v0.3c0.1-0.1,0.2-0.2,0.3-0.2c0.4-0.3,0.7-0.5,1-0.5c0.1,0,0.2,0,0.3,0.1
	c0,0,0,0,0.1,0c0.3-0.2,0.5-0.2,0.8-0.2h0.1l0.7,0.1l0.3-0.1l1,0.1c0.3,0,0.6,0.1,0.8,0.3c0.4,0,0.7,0.2,0.9,0.5l0.4,0.6
	c0.1,0.2,0.2,0.5,0.2,1v0.6v0.2v0.2l-0.2,0.3l0.1,0.1l0.1,0.1v0.5c0,0.1,0,0.2-0.1,0.3l-0.1,0.2l0.2,0.2v0.5v0.6l0.1,0.4v1l0.1,1.2
	l-0.2,0.6l-1.9,0.9L120.1,21.4z M84.1,21.7l-0.2-0.2l-0.4-0.1l-0.7-0.2l-1-0.2l-0.5-0.4L80.7,20l-0.2-0.1l-0.2-0.2L80,19.2L79.8,19
	l-0.1-0.8V18l-0.3-0.3l0.2-0.7l-0.1-1l0.4-0.7l0.5-0.9l0.6-0.5l1-0.9l0.3-0.3l0.5-0.3l0.2-0.1l0.4-0.3l1.4-0.4l0.4-0.1h0.1h0.1h0.1
	l0,0l0.3,0.1l0.4-0.1l1,0.2l0.8-0.1h0.1c0.1,0,0.3,0.1,0.4,0.1l0.4,0.2l-0.1,0.4c-0.1,0.3-0.2,0.5-0.3,0.6s-0.2,0.1-0.3,0.2v0.2
	l-0.6,0.4l-0.4,0.2H87h-0.1h-0.2h-0.3l-1.6-0.2c-0.1,0-0.1,0-0.2,0l0,0h-0.1l-0.8,0.2h-0.4c0,0-0.1,0-0.3,0.3l-0.1,0.1l-0.4,0.1
	l-0.2,0.5h-0.2l-0.3,0.7v0.3v0.5c0,0.3,0,0.5,0.1,0.6c0,0.1,0.1,0.3,0.2,0.4l0.1,0.2l-0.1,0.3l0,0l0,0c0.1,0.1,0.2,0.2,0.4,0.5
	l0.3,0.4H83l0.2,0.3l0.6,0.4l0.2,0.2l0.2,0.1l0.2,0.1h0.4L86,20c0.1,0,0.2-0.1,0.4-0.2l0.2-0.1l0.2,0.1l0.6-0.4h0.1
	c0.1,0,0.2-0.1,0.3-0.1c0.1-0.1,0.3-0.2,0.6-0.6c0.2-0.3,0.4-0.3,0.6-0.3s0.4,0.1,0.5,0.2s0.2,0.3,0.2,0.5c0,0.1,0,0.2,0,0.3
	l-0.1,0.4l0.1,0.2l-0.2,0.1L89,20.7l-0.3,0.1l-0.4,0.3h-0.2l-0.5,0.3h-0.8c0,0-0.1,0-0.2,0.1L86,21.8l-0.9,0.1L84.1,21.7z
	 M190.3,21.4l-0.7,0.1l-0.1-0.1c-0.1,0-0.2-0.1-0.4-0.2s-0.4-0.2-0.5-0.4c-0.4-0.4-0.6-0.9-0.6-1.4c0,0,0,0,0-0.1h-0.1v-0.7v-0.5
	c0-0.3,0-0.5,0.1-0.6l0.1-0.2l-0.1-0.4v-0.7v-0.6c0-0.1,0-0.2,0.1-0.5l-0.2-0.2v-0.4v-1.2c0-0.1,0-0.2,0-0.2l-0.1-0.1l-0.1-0.1v-0.2
	c0-0.2,0.1-0.5,0.5-0.7l0.1-0.1l0.8-0.3c0.3-0.1,0.5-0.2,0.7-0.2s0.5,0.1,0.7,0.6l0.2,0.4l-0.1,0.2c-0.1,0.3-0.2,0.6-0.2,0.9
	l0.1,0.5v0.4l-0.2,0.5c0,0.1,0,0.3,0,0.3v0.2l0,0c0,0,0,0,0,0.1l0.2,0.4l-0.2,0.8l0.1,0.2l-0.1,0.6l-0.1,0.5l0.1,0.2l0.1,1.2
	c0,0,0.2,0.1,0.7,0.3l0.7,0.2c0.1,0,0.3,0,0.5,0s0.3,0,0.3,0l0.7-0.3l0.4,0.1l0,0l0.2-0.2l0.2-0.1l0.4-0.6l0.4-0.3
	c0,0,0-0.1,0.1-0.3l0.1-1.1l-0.2-0.2v-0.6v-1.6l-0.1-0.5l-0.1-0.6c0-0.1,0-0.2,0-0.3l-0.1-0.6v-0.2l0.1-0.3v-0.8l0.6,0.2l0.9-0.3
	l0.1-0.1h0.2c0.1,0,0.5,0,0.6,0.5c0.1,0.2,0.1,0.4,0.1,0.7l-0.1,2l-0.2,1.8c0.1,0.1,0.1,0.2,0.1,0.3l-0.1,1.7l0.2,0.3l0.1,0.9l0,0
	c0.1,0.1,0.2,0.2,0.3,0.4l0.1,0.2l-0.1,0.2c-0.1,0.3-0.3,0.6-0.6,0.7l-1.4,0.6l-0.2-0.1c-0.3-0.2-0.5-0.5-0.6-0.9l-1.4,0.7l-1.3,0.2
	l-0.4,0.1h-0.2c-0.1,0-0.3,0-0.4-0.1l-0.2-0.1L190.3,21.4L190.3,21.4z M130.5,21.4l-0.7,0.1l-0.1-0.1c-0.1,0-0.2-0.1-0.4-0.2
	s-0.4-0.2-0.5-0.4c-0.4-0.4-0.6-0.9-0.6-1.4c0,0,0,0,0-0.1h-0.1v-0.7v-0.5c0-0.3,0-0.5,0.1-0.6l0.1-0.2l-0.1-0.4v-0.7v-0.7l0,0
	c0,0,0-0.2,0.1-0.4l-0.2-0.2v-0.4v-1.2c0-0.1,0-0.2,0-0.2l-0.1-0.2l0,0v-0.2c0-0.2,0.1-0.5,0.5-0.7l0.1-0.1l0.8-0.3
	c0.3-0.1,0.5-0.2,0.7-0.2s0.5,0.1,0.7,0.6l0.2,0.4l-0.1,0.2c-0.1,0.3-0.2,0.6-0.2,0.9l0.1,0.5v0.4l-0.2,0.5c0,0.2,0,0.3,0,0.3v0.2
	l0,0c0,0,0,0,0,0.1l0.2,0.4l-0.2,0.8l0.1,0.2l-0.1,0.6l-0.1,0.5l0.1,0.2l0.1,1.2c0,0,0.2,0.1,0.7,0.3l0.7,0.2c0.1,0,0.3,0,0.5,0
	s0.3,0,0.3,0l0.7-0.3l0.4,0.1l0,0l0.2-0.2l0.2-0.1l0.4-0.6l0.4-0.3c0,0,0-0.1,0.1-0.3l0.1-1.1l-0.2-0.2v-0.6v-1.6l-0.1-0.5l-0.1-0.6
	c0-0.1,0-0.2,0-0.3l-0.1-0.6v-0.2l0.1-0.3v-0.8l0.6,0.2l0.8-0.3l0.1-0.1h0.2c0.1,0,0.5,0,0.6,0.5c0.1,0.2,0.1,0.4,0.1,0.7l-0.1,2
	l-0.2,1.8c0.1,0.1,0.1,0.2,0.1,0.3l-0.1,1.7l0.2,0.3l0.1,0.9l0,0c0.1,0.1,0.2,0.2,0.3,0.4l0.1,0.2l-0.1,0.2
	c-0.1,0.3-0.3,0.6-0.6,0.7l-1.4,0.6l-0.2-0.1c-0.3-0.2-0.5-0.5-0.6-0.9l-1.4,0.7l-1.3,0.2l-0.4,0.1h-0.2c-0.1,0-0.3,0-0.4-0.1
	l-0.2-0.1L130.5,21.4L130.5,21.4z M22,21.7c-0.2,0-0.4-0.1-0.5-0.2c-0.2-0.2-0.3-0.4-0.3-0.6s0.1-0.5,0.2-0.7l-0.1-0.1l0.2-2
	l0.2-0.5h0.1c0-0.1,0-0.2,0-0.2s0-0.1-0.2-0.2l-0.1-0.1v-0.5v-0.1c0-0.2,0-0.4,0.1-0.5l-0.1-0.1v-0.6h-0.2v-0.7v-0.3v-0.4
	c0-0.1,0-0.2,0-0.2s0,0-0.1-0.1l-0.3-0.2l0.1-0.3c0.1-0.3,0.4-0.6,0.8-0.9l1.1-0.6h0.2c0.2,0,0.5,0.1,0.8,0.5l0.2,0.2L24,12.6
	c-0.1,0.2-0.2,0.4-0.2,0.6l-0.1,1.1l-0.1,0.2l0.1,0.1V15v0.3v1.9v1.5l0.1,0.6v0.4v0.7v0.1c-0.1,0.2-0.2,0.4-0.8,0.8l-0.5,0.4
	C22.5,21.6,22.2,21.7,22,21.7z M105.1,21.5h-0.4l-0.3-0.2l-1-0.4l-0.4-0.4l-0.7-0.4l-0.5-0.7l-0.5-0.4l0.2-0.4c0-0.1,0-0.1,0.1-0.1
	l-0.3-0.4l-0.1-0.7v-0.5c0-0.2,0-0.5,0.1-0.8c0.2-0.6,0.3-0.8,0.4-0.9l0.3-0.4l0.2-0.5l0.5-0.5l0.5-0.7l0.5-0.3l0.6-0.4L105,12
	l0.4-0.1l0.8-0.3l0.7-0.1l0.4-0.2h0.3c0.3,0,0.6,0.1,0.9,0.3l0.1-0.2l0.5,0.4l0.2,0.2l0.4,0.2l0.9,0.9c0.2,0.2,0.3,0.3,0.3,0.4
	c0.1,0.1,0.1,0.2,0.2,0.3s0.1,0.3,0.2,0.4l0.3,0.8l0.1,0.4l-0.7,0.3l-0.4-0.1l-0.4,0.1l-0.3-0.1l-0.4,0.1l-0.8-0.1h-0.6l-0.8-0.1h-1
	h-0.6l-1.3,0.2h-0.5l-0.5,0.2c0,0.2-0.1,0.3-0.1,0.4l0,0c0.1,0.1,0.2,0.2,0.2,0.3l0.3,1l0.2,0.3l0.2,0.1l0.2,0.5
	c0,0.1,0,0.1,0.1,0.2l0.6,0.3l0.2,0.4l0.4,0.1l0.1,0.3h0.1l0.8,0.3l0.6-0.1l1.8-0.3l0.9-0.5l0.5-0.6c0.2-0.3,0.5-0.4,0.7-0.4
	c0.5,0,0.8,0.3,0.8,0.8c0,0.2,0,0.3-0.1,0.5l-0.8,1.4h-0.5l-0.1,0.1c-0.1,0.1-0.3,0.2-0.6,0.2l-1.8,0.3l-0.3,0.1l-0.7-0.1l-0.9,0.1
	L105.1,21.5z M107.7,14l0.7-0.1l0,0l-0.6-0.4l-0.2-0.2l-0.8-0.1l0,0l-0.4,0.2l-0.6,0.1l-0.8,0.3l0,0h0.2h0.1l0.3-0.1l0.3,0.1
	l0.5,0.1l0.6-0.1l0.5-0.1L107.7,14z M28.7,21.5h-0.4L28,21.3l-1-0.4l-0.4-0.4l-0.7-0.4l-0.5-0.7L24.9,19l0.2-0.4
	c0-0.1,0-0.1,0.1-0.1l-0.3-0.4l-0.1-0.7v-0.5c0-0.2,0-0.5,0.1-0.8c0.2-0.6,0.3-0.8,0.4-0.9l0.3-0.4l0.2-0.5l0.5-0.5l0.5-0.7l0.5-0.3
	l0.6-0.4l0.7-0.4l0.4-0.1l0.8-0.3l0.7-0.1l0.4-0.2h0.3c0.3,0,0.6,0.1,0.9,0.3l0.1-0.2l0.5,0.4l0.2,0.2l0.4,0.2l0.9,0.9
	c0.2,0.2,0.3,0.3,0.3,0.4c0.1,0.1,0.1,0.2,0.2,0.3s0.1,0.3,0.2,0.4l0.3,0.8l0.1,0.4l-0.7,0.3l-0.4-0.1l-0.4,0.1l-0.3-0.1l-0.4,0.1
	l-0.8-0.1h-0.6l-0.8-0.1h-1h-0.6L28,15.7h-0.5L27,15.9c0,0.2-0.1,0.3-0.1,0.4l0,0c0.1,0.1,0.2,0.2,0.2,0.3l0.3,1l0.2,0.3l0.2,0.1
	l0.2,0.5c0,0.1,0,0.1,0.1,0.2l0.6,0.3l0.2,0.4l0.4,0.1l0.1,0.3h0.1l0.8,0.3l0.6-0.1l1.8-0.3l0.9-0.5l0.5-0.6
	c0.2-0.3,0.5-0.4,0.7-0.4c0.5,0,0.8,0.3,0.8,0.8c0,0.2,0,0.3-0.1,0.4l-0.8,1.4h-0.5l-0.1,0.1c-0.1,0.1-0.3,0.2-0.6,0.2l-1.8,0.3
	l-0.3,0.1l-0.7-0.1l-0.9,0.1H28.7z M31.3,14l0.7-0.1l0,0l-0.6-0.4l-0.2-0.2l-0.8-0.1l0,0L30,13.4l-0.6,0.1l-0.8,0.3l0,0h0.2h0.1
	l0.3-0.1l0.3,0.1l0.5,0.1l0.6-0.1l0.5-0.1L31.3,14z M123.2,8.3l0.2-0.3c0.2-0.4,0.5-0.6,0.8-0.9V7l0.8-0.9c0.2-0.2,0.4-0.3,0.6-0.3
	h0.5l0.2,0.4l0.1,0.1c0.1,0.2,0.2,0.4,0.2,0.6V7l0,0l0.1,0.2L125,8.4l-0.6,0.5l-0.6,0.4L123.2,8.3z M21.8,9.2c-0.1,0-0.3,0-0.5-0.2
	c-0.1-0.1-0.2-0.3-0.2-0.5c0-0.4,0.1-0.6,0.3-0.7l1-1L23,6l0.1-0.1c0.1-0.1,0.3-0.1,0.5-0.1c0.3,0,0.5,0.1,0.7,0.3
	c0.2,0.2,0.3,0.4,0.3,0.7c0,0.4-0.2,0.6-0.3,0.7L23.6,8l-0.2,0.2l-0.6,0.4C22.2,9.2,22,9.2,21.8,9.2z"/>
</svg>
