<?xml version="1.0" encoding="utf-8"?>
<svg viewBox="0 19.257 226.772 160.582" xmlns="http://www.w3.org/2000/svg">
  <g>
    <path d="M 108.726 60.072 C 115.727 60.072 123.026 58.011 128.527 52.849 C 129.011 52.394 129.294 52.152 129.577 51.985 C 129.838 51.83 130.098 51.739 130.514 51.6 L 131.448 51.269 C 132.418 53.097 133.856 54.15 136.292 54.635 L 136.426 53.889 L 135.883 53.756 C 133.952 53.278 132.73 52.26 132.005 50.408 C 131.594 49.354 131.147 48.5 130.705 47.92 C 130.59 47.769 130.183 47.387 129.492 46.789 C 129.52 46.797 122.493 41.031 122.472 41.01 C 121.54 40.167 121.467 39.874 121.467 39.482 C 121.467 38.773 122.354 37.85 123.34 38.225 C 123.515 38.291 125.7 39.419 128.235 40.823 C 130.77 42.226 132.873 43.374 132.907 43.374 C 132.942 43.374 133.041 43.229 133.126 43.051 L 133.283 42.728 L 130.785 41.349 C 129.41 40.591 128.332 40.006 128.08 39.839 L 128.444 38.248 C 129.321 38.162 131.704 37.992 132.836 38.334 C 134.076 38.753 134.747 39.697 136.292 41.875 C 137.168 43.108 141.196 49.313 142.4 51.181 C 142.539 51.398 142.649 51.514 142.861 51.514 C 143.203 51.514 143.314 51.134 143.101 50.824 C 142.792 50.377 138.102 43.231 136.962 41.485 C 136.08 40.159 134.563 37.559 132.147 37.346 C 128.148 28.829 117.767 25.066 108.452 25.066 C 95.851 25.066 83.563 31.979 83.563 42.569 C 83.563 53.071 95.674 60.072 108.726 60.072 M 97.876 47.388 C 98.387 47.388 98.787 47.138 99.195 46.514 C 99.952 45.36 100.331 43.968 100.331 42.575 C 100.331 41.251 99.949 39.919 99.228 38.732 C 98.768 37.976 98.367 37.77 97.916 37.77 C 97.217 37.77 96.724 38.331 96.724 38.978 C 96.725 39.318 97.031 39.847 97.14 40.024 C 97.693 40.921 97.822 41.403 97.822 42.575 C 97.822 43.748 97.693 44.229 97.14 45.126 C 96.818 45.647 96.715 45.945 96.715 46.218 C 96.715 46.875 97.26 47.388 97.876 47.388 M 102.318 49.615 C 103.013 49.615 103.391 49.002 103.737 48.311 C 104.798 46.193 105.146 44.739 105.149 42.575 C 105.152 40.563 104.779 38.911 103.865 37.059 C 103.269 35.854 102.924 35.568 102.259 35.568 C 101.476 35.568 101.097 36.262 101.097 36.643 C 101.097 36.995 101.179 37.273 101.579 37.985 C 102.414 39.467 102.722 41.059 102.722 42.575 C 102.722 44.131 102.369 45.649 101.527 47.24 C 101.153 47.948 101.094 48.166 101.094 48.467 C 101.094 49.039 101.578 49.615 102.318 49.615 M 108.54 59.066 C 96.119 59.066 84.628 52.327 84.618 42.498 C 84.628 32.593 96.385 26.117 108.509 26.131 C 117.9 26.117 127.172 30.055 131.01 37.327 C 130.182 37.349 129.393 37.389 128.649 37.449 L 128.815 36.617 C 128.929 36.052 128.693 35.468 128.046 35.318 C 127.626 35.219 120.796 33.991 120.226 33.914 C 119.501 33.817 118.911 34.291 118.762 34.887 C 118.243 36.968 117.685 39.495 117.262 41.694 C 117.149 42.29 117.464 42.733 118.115 42.885 C 118.622 43.003 119.733 43.219 121.109 43.453 L 123.588 43.875 C 122.757 44.93 122.861 45.812 124.135 46.756 L 124.911 47.338 L 124.467 47.821 C 124.112 48.214 123.934 48.739 124.067 49.308 C 124.201 49.921 124.689 50.27 125.354 50.576 L 128.148 51.89 C 122.426 57.491 114.53 59.066 108.54 59.066 M 106.893 51.945 C 107.591 51.945 108.055 51.31 108.581 50.131 C 109.837 47.327 110.322 44.93 110.322 42.575 C 110.322 39.342 109.389 36.636 108.338 34.603 C 107.929 33.813 107.66 33.231 106.864 33.231 C 106.105 33.231 105.637 33.842 105.637 34.289 C 105.637 34.592 105.81 34.99 106.2 35.776 C 107.311 38.016 107.866 40.216 107.866 42.575 C 107.866 44.875 107.33 47.104 106.284 49.206 C 105.977 49.826 105.662 50.323 105.658 50.77 C 105.654 51.385 106.163 51.945 106.893 51.945 M 111.43 54.294 C 112.273 54.294 112.601 53.51 112.954 52.788 C 114.525 49.585 115.445 46.236 115.445 42.575 C 115.445 39.032 114.712 35.731 112.973 32.364 C 112.399 31.251 112.163 30.884 111.416 30.884 C 110.771 30.884 110.239 31.417 110.239 32.044 C 110.239 32.499 110.546 32.978 110.781 33.448 C 112.343 36.589 112.972 39.208 112.972 42.575 C 112.972 46.058 112.26 48.907 110.753 51.764 C 110.457 52.327 110.245 52.729 110.24 53.119 C 110.229 53.814 110.847 54.294 111.43 54.294 M 128.959 51.189 C 128.193 51.19 125.531 49.833 125.132 49.571 C 124.866 49.396 124.644 48.87 125.034 48.369 L 125.54 47.825 L 126.339 48.414 C 127.304 49.114 127.909 49.394 128.659 49.394 C 128.9 49.394 129.613 49.293 129.896 49.25 C 130.33 49.183 130.499 49.152 130.655 49.561 L 131.048 50.542 C 129.923 50.97 129.302 51.19 128.959 51.189 M 128.773 48.642 C 128.286 48.642 127.864 48.473 127.13 47.978 C 126.445 47.514 124.406 45.941 124.101 45.614 C 123.905 45.404 123.862 45.235 123.862 45.073 C 123.862 44.851 123.984 44.639 124.265 44.343 C 124.523 44.07 124.783 44.02 125.102 44.204 C 125.273 44.303 130.034 48.098 130.034 48.305 C 130.034 48.499 129.087 48.642 128.773 48.642 M 123.661 43.095 C 123.661 43.095 119.416 42.361 118.374 42.112 C 118.147 42.058 118.034 41.88 118.07 41.633 C 118.244 40.439 118.781 37.999 119.519 35.066 C 119.579 34.826 119.872 34.637 120.153 34.69 C 120.789 34.806 127.17 35.85 127.533 35.968 C 127.847 36.072 128.024 36.267 127.934 36.701 L 127.36 39.491 C 125.275 38.309 124.272 37.769 123.648 37.489 C 122.215 36.848 120.705 38.129 120.705 39.504 C 120.705 40.37 121.03 40.873 121.968 41.635 C 123.159 42.601 123.473 42.929 123.661 43.095" style="fill: rgb(39, 44, 46); fill-opacity: 1;"/>
  </g>
  <g>
    <path d="M 53.55 84.325 L 19.151 84.325 L 18.722 84.325 C 18.601 84.327 18.48 84.327 18.359 84.331 C 18.096 84.338 17.83 84.355 17.571 84.402 C 17.308 84.448 17.062 84.525 16.821 84.648 C 16.586 84.767 16.371 84.924 16.185 85.111 C 15.998 85.298 15.841 85.514 15.722 85.75 C 15.598 85.988 15.522 86.234 15.473 86.497 C 15.426 86.759 15.412 87.024 15.405 87.285 C 15.401 87.407 15.399 87.527 15.399 87.648 L 15.399 88.077 L 15.399 107.399 L 15.399 107.83 C 15.399 107.949 15.401 108.07 15.405 108.191 C 15.412 108.455 15.426 108.718 15.473 108.979 C 15.522 109.242 15.598 109.489 15.722 109.729 C 15.841 109.965 15.998 110.179 16.185 110.366 C 16.371 110.553 16.586 110.71 16.821 110.829 C 17.062 110.952 17.308 111.028 17.571 111.077 C 17.83 111.124 18.096 111.139 18.359 111.145 C 18.48 111.149 18.601 111.149 18.722 111.152 L 19.151 111.152 L 53.55 111.152 L 53.979 111.152 C 54.1 111.149 54.221 111.149 54.342 111.145 C 54.606 111.139 54.869 111.124 55.13 111.077 C 55.393 111.028 55.639 110.952 55.88 110.829 C 56.115 110.71 56.33 110.553 56.517 110.366 C 56.703 110.179 56.861 109.965 56.98 109.729 C 57.103 109.489 57.179 109.242 57.226 108.979 C 57.275 108.718 57.29 108.455 57.296 108.191 C 57.3 108.07 57.3 107.949 57.302 107.83 L 57.302 107.399 L 57.302 88.077 L 57.302 87.648 C 57.3 87.527 57.3 87.407 57.296 87.285 C 57.29 87.024 57.275 86.759 57.226 86.497 C 57.179 86.234 57.103 85.988 56.98 85.75 C 56.861 85.514 56.703 85.298 56.517 85.111 C 56.33 84.924 56.115 84.767 55.88 84.648 C 55.639 84.525 55.393 84.448 55.13 84.402 C 54.869 84.355 54.606 84.338 54.342 84.331 C 54.221 84.327 54.1 84.327 53.979 84.325 L 53.55 84.325" style="fill: rgb(23, 24, 26); fill-opacity: 1;"/>
    <path d="M 53.55 85.219 L 53.973 85.219 C 54.087 85.221 54.202 85.221 54.319 85.225 C 54.518 85.229 54.752 85.24 54.971 85.281 C 55.162 85.314 55.321 85.367 55.474 85.444 C 55.625 85.52 55.763 85.622 55.884 85.743 C 56.005 85.865 56.107 86.002 56.183 86.155 C 56.262 86.306 56.313 86.465 56.347 86.656 C 56.385 86.873 56.398 87.109 56.402 87.31 C 56.406 87.423 56.406 87.538 56.408 87.655 L 56.408 88.077 L 56.408 107.399 L 56.408 107.823 C 56.406 107.938 56.406 108.053 56.402 108.165 C 56.398 108.367 56.385 108.603 56.347 108.822 C 56.313 109.011 56.262 109.17 56.183 109.323 C 56.107 109.473 56.005 109.612 55.884 109.733 C 55.763 109.854 55.625 109.956 55.472 110.032 C 55.321 110.111 55.162 110.162 54.973 110.196 C 54.75 110.236 54.506 110.246 54.321 110.251 C 54.206 110.255 54.092 110.255 53.973 110.257 L 53.55 110.257 L 19.151 110.257 L 19.145 110.257 L 18.724 110.257 C 18.61 110.255 18.495 110.255 18.383 110.251 C 18.196 110.246 17.951 110.236 17.728 110.196 C 17.539 110.162 17.38 110.111 17.227 110.032 C 17.074 109.956 16.936 109.854 16.815 109.733 C 16.694 109.612 16.594 109.473 16.518 109.323 C 16.439 109.17 16.388 109.011 16.355 108.82 C 16.314 108.601 16.303 108.367 16.297 108.168 C 16.295 108.053 16.293 107.938 16.293 107.823 L 16.293 107.488 L 16.293 107.399 L 16.293 88.077 L 16.293 87.988 L 16.293 87.652 C 16.293 87.54 16.295 87.425 16.297 87.31 C 16.303 87.109 16.314 86.875 16.355 86.654 C 16.388 86.465 16.439 86.306 16.518 86.153 C 16.594 86.002 16.694 85.865 16.818 85.743 C 16.936 85.622 17.074 85.522 17.227 85.444 C 17.38 85.367 17.539 85.314 17.728 85.281 C 17.947 85.24 18.183 85.229 18.384 85.225 C 18.497 85.221 18.612 85.221 18.726 85.219 L 19.151 85.219 L 53.55 85.219 Z" style="fill: rgb(255, 255, 255); fill-opacity: 1;"/>
    <path d="M 26.413 93.381 C 26.767 92.937 27.01 92.34 26.946 91.731 C 26.426 91.756 25.79 92.073 25.423 92.519 C 25.094 92.899 24.801 93.521 24.877 94.105 C 25.461 94.156 26.045 93.812 26.413 93.381" style="fill: rgb(23, 24, 26); fill-opacity: 1;"/>
    <path d="M 26.939 94.218 C 26.092 94.167 25.37 94.7 24.966 94.7 C 24.561 94.7 23.94 94.243 23.27 94.256 C 22.397 94.269 21.588 94.761 21.144 95.547 C 20.233 97.116 20.904 99.446 21.79 100.724 C 22.221 101.357 22.739 102.053 23.422 102.028 C 24.068 102.003 24.321 101.61 25.104 101.61 C 25.888 101.61 26.117 102.028 26.799 102.015 C 27.508 102.003 27.952 101.383 28.381 100.75 C 28.876 100.028 29.077 99.331 29.09 99.293 C 29.077 99.28 27.723 98.762 27.712 97.206 C 27.697 95.902 28.773 95.281 28.825 95.243 C 28.217 94.345 27.268 94.243 26.939 94.218" style="fill: rgb(23, 24, 26); fill-opacity: 1;"/>
    <path d="M 35.392 92.454 C 37.235 92.454 38.517 93.724 38.517 95.574 C 38.517 97.43 37.207 98.705 35.345 98.705 L 33.307 98.705 L 33.307 101.95 L 31.83 101.95 L 31.83 92.454 L 35.392 92.454 Z M 33.307 97.468 L 34.997 97.468 C 36.279 97.468 37.01 96.777 37.01 95.58 C 37.01 94.382 36.279 93.698 35.003 93.698 L 33.307 93.698 L 33.307 97.468 Z" style="fill: rgb(23, 24, 26); fill-opacity: 1;"/>
    <path d="M 38.883 99.983 C 38.883 98.766 39.811 98.067 41.523 97.963 L 43.357 97.851 L 43.357 97.324 C 43.357 96.553 42.852 96.133 41.949 96.133 C 41.206 96.133 40.667 96.515 40.554 97.101 L 39.225 97.101 C 39.265 95.87 40.423 94.976 41.99 94.976 C 43.674 94.976 44.774 95.857 44.774 97.225 L 44.774 101.951 L 43.41 101.951 L 43.41 100.811 L 43.379 100.811 C 42.99 101.556 42.134 102.024 41.206 102.024 C 39.837 102.024 38.883 101.206 38.883 99.983 M 43.357 99.371 L 43.357 98.838 L 41.72 98.942 C 40.799 99.002 40.319 99.344 40.319 99.942 C 40.319 100.522 40.818 100.898 41.601 100.898 C 42.601 100.898 43.357 100.259 43.357 99.371" style="fill: rgb(23, 24, 26); fill-opacity: 1;"/>
    <path d="M 46.025 104.49 L 46.025 103.352 C 46.116 103.365 46.341 103.378 46.458 103.378 C 47.11 103.378 47.48 103.101 47.702 102.39 L 47.834 101.969 L 45.341 95.06 L 46.88 95.06 L 48.618 100.666 L 48.65 100.666 L 50.389 95.06 L 51.888 95.06 L 49.301 102.318 C 48.709 103.983 48.031 104.531 46.598 104.531 C 46.485 104.531 46.123 104.516 46.025 104.49" style="fill: rgb(24, 24, 27); fill-opacity: 1;"/>
  </g>
  <g>
    <path d="M 127.138 91.947 L 127.034 85.893 L 128.945 85.893 L 128.945 93.529 L 126.197 93.529 L 124.295 87.261 L 124.247 87.261 L 124.356 93.529 L 122.46 93.529 L 122.46 85.893 L 125.321 85.893 L 127.098 91.947 L 127.138 91.947 Z" style="fill: rgb(20, 23, 23); fill-opacity: 1;"/>
    <path d="M 92.434 86.602 L 91.377 93.601 L 89.296 93.601 L 90.724 85.893 L 94.159 85.893 L 95.583 93.601 L 93.507 93.601 L 92.478 86.602 L 92.434 86.602 Z" style="fill: rgb(20, 23, 23); fill-opacity: 1;"/>
    <path d="M 101.425 91.789 L 102.38 85.892 L 105.523 85.892 L 105.696 93.602 L 103.762 93.602 L 103.712 86.667 L 103.672 86.667 L 102.385 93.602 L 100.43 93.602 L 99.137 86.667 L 99.093 86.667 L 99.047 93.602 L 97.119 93.602 L 97.292 85.892 L 100.438 85.892 L 101.384 91.789 L 101.425 91.789 Z" style="fill: rgb(20, 23, 23); fill-opacity: 1;"/>
    <path d="M 117.599 92.444 C 118.138 92.444 118.302 92.078 118.34 91.889 C 118.357 91.807 118.359 91.694 118.359 91.596 L 118.359 85.891 L 120.315 85.891 L 120.315 91.419 C 120.315 91.564 120.298 91.853 120.29 91.929 C 120.16 93.368 119.018 93.831 117.599 93.831 C 116.18 93.831 115.042 93.368 114.911 91.929 C 114.902 91.853 114.891 91.564 114.894 91.419 L 114.894 85.891 L 116.845 85.891 L 116.845 91.596 C 116.839 91.694 116.849 91.807 116.859 91.889 C 116.898 92.078 117.062 92.444 117.599 92.444" style="fill: rgb(20, 23, 23); fill-opacity: 1;"/>
    <path d="M 86.048 91.424 C 86.122 91.613 86.098 91.852 86.064 91.997 C 86.002 92.252 85.829 92.518 85.313 92.518 C 84.83 92.518 84.541 92.236 84.541 91.816 L 84.534 91.069 L 82.468 91.069 L 82.468 91.661 C 82.468 93.384 83.819 93.901 85.266 93.901 C 86.667 93.901 87.813 93.428 87.996 92.142 C 88.092 91.474 88.022 91.038 87.992 90.876 C 87.664 89.257 84.736 88.781 84.519 87.879 C 84.48 87.718 84.488 87.561 84.508 87.475 C 84.565 87.223 84.734 86.952 85.214 86.952 C 85.668 86.952 85.934 87.236 85.934 87.65 L 85.934 88.13 L 87.857 88.13 L 87.857 87.589 C 87.857 85.909 86.348 85.646 85.252 85.646 C 83.883 85.646 82.764 86.102 82.557 87.36 C 82.505 87.7 82.499 88.007 82.575 88.395 C 82.908 89.975 85.654 90.429 86.048 91.424" style="fill: rgb(20, 23, 23); fill-opacity: 1;"/>
    <path d="M 111.123 91.414 C 111.202 91.597 111.169 91.834 111.139 91.977 C 111.079 92.232 110.902 92.485 110.395 92.485 C 109.917 92.485 109.628 92.214 109.628 91.796 L 109.628 91.054 L 107.578 91.054 L 107.578 91.645 C 107.578 93.352 108.918 93.862 110.355 93.862 C 111.732 93.862 112.87 93.392 113.053 92.118 C 113.145 91.458 113.077 91.026 113.043 90.861 C 112.721 89.266 109.823 88.791 109.612 87.893 C 109.574 87.742 109.583 87.581 109.6 87.497 C 109.654 87.251 109.821 86.982 110.297 86.982 C 110.749 86.982 111.009 87.257 111.009 87.669 L 111.009 88.144 L 112.91 88.144 L 112.91 87.611 C 112.91 85.949 111.417 85.687 110.339 85.687 C 108.982 85.687 107.869 86.132 107.67 87.382 C 107.61 87.718 107.602 88.021 107.688 88.411 C 108.018 89.975 110.731 90.423 111.123 91.414" style="fill: rgb(20, 23, 23); fill-opacity: 1;"/>
    <path d="M 133.686 92.366 C 134.243 92.366 134.437 92.018 134.471 91.805 C 134.486 91.723 134.492 91.613 134.49 91.514 L 134.49 90.401 L 133.702 90.401 L 133.702 89.267 L 136.431 89.267 L 136.431 91.339 C 136.431 91.484 136.425 91.59 136.407 91.847 C 136.277 93.246 135.058 93.751 133.688 93.751 C 132.325 93.751 131.113 93.246 130.984 91.847 C 130.958 91.59 130.956 91.484 130.956 91.339 L 130.956 88.095 C 130.956 87.956 130.972 87.711 130.99 87.589 C 131.157 86.139 132.325 85.685 133.688 85.685 C 135.058 85.685 136.26 86.135 136.397 87.589 C 136.425 87.827 136.414 88.095 136.414 88.095 L 136.415 88.348 L 134.471 88.348 L 134.471 87.916 C 134.471 87.916 134.471 87.731 134.448 87.623 C 134.414 87.456 134.264 87.064 133.675 87.064 C 133.121 87.064 132.954 87.434 132.91 87.623 C 132.883 87.723 132.879 87.862 132.879 87.987 L 132.879 91.514 C 132.879 91.613 132.883 91.723 132.892 91.805 C 132.932 92.018 133.126 92.366 133.686 92.366" style="fill: rgb(20, 23, 23); fill-opacity: 1;"/>
    <path d="M 100.7 99.867 L 100.7 102.934 L 101.886 102.934 C 102.808 102.934 103.435 102.249 103.435 101.395 C 103.435 100.551 102.808 99.867 101.886 99.867 L 100.7 99.867 Z M 99.15 98.43 L 101.998 98.43 C 103.721 98.43 104.997 99.753 104.997 101.395 C 104.997 103.047 103.721 104.369 101.988 104.369 L 100.7 104.369 L 100.7 106.753 L 99.15 106.753 L 99.15 98.43 Z" style="fill: rgb(20, 23, 23); fill-opacity: 1;"/>
    <path d="M 110.824 103.401 C 110.824 102.271 109.97 101.349 108.828 101.349 C 107.688 101.349 106.81 102.249 106.81 103.401 C 106.81 104.563 107.688 105.475 108.828 105.475 C 109.97 105.475 110.824 104.553 110.824 103.401 M 105.295 103.423 C 105.295 101.212 106.914 99.946 108.601 99.946 C 109.479 99.946 110.265 100.312 110.743 100.88 L 110.743 100.082 L 112.283 100.082 L 112.283 106.752 L 110.743 106.752 L 110.743 105.885 C 110.253 106.502 109.455 106.89 108.579 106.89 C 106.971 106.89 105.295 105.602 105.295 103.423" style="fill: rgb(20, 23, 23); fill-opacity: 1;"/>
    <path d="M 115.521 106.423 L 114.12 109.832 L 115.68 109.832 L 119.658 100.084 L 118.04 100.084 L 116.285 104.576 L 114.427 100.084 L 112.783 100.084 L 115.521 106.423 Z" style="fill: rgb(20, 23, 23); fill-opacity: 1;"/>
  </g>
  <g>
    <path d="M 180.988 89.656 L 180.988 95.441 L 184.557 95.441 C 185.349 95.464 186.114 95.153 186.664 94.584 C 187.782 93.496 187.807 91.708 186.72 90.59 C 186.702 90.571 186.683 90.552 186.664 90.534 C 186.121 89.952 185.353 89.632 184.557 89.655 L 180.988 89.655 L 180.988 89.656 Z M 180.988 97.477 L 180.988 104.187 L 178.859 104.187 L 178.859 87.615 L 184.505 87.615 C 185.866 87.587 187.182 88.104 188.161 89.05 C 189.151 89.941 189.708 91.216 189.688 92.548 C 189.717 93.886 189.159 95.171 188.161 96.065 C 187.174 97.006 185.955 97.476 184.505 97.476 L 180.988 97.476 L 180.988 97.477 Z" style="fill: rgb(79, 95, 101); fill-opacity: 1;"/>
    <path d="M 191.84 100.716 C 191.837 101.266 192.1 101.783 192.546 102.104 C 193.017 102.475 193.601 102.671 194.2 102.66 C 195.099 102.658 195.959 102.3 196.595 101.665 C 197.3 101.002 197.652 100.223 197.652 99.329 C 196.988 98.8 196.063 98.535 194.876 98.535 C 194.011 98.535 193.29 98.744 192.712 99.161 C 192.129 99.584 191.84 100.098 191.84 100.716 M 194.594 92.478 C 196.167 92.478 197.409 92.899 198.32 93.74 C 199.231 94.581 199.686 95.734 199.685 97.199 L 199.685 104.187 L 197.649 104.187 L 197.649 102.613 L 197.556 102.613 C 196.674 103.909 195.502 104.557 194.038 104.557 C 192.789 104.557 191.744 104.187 190.903 103.446 C 190.086 102.758 189.623 101.738 189.642 100.67 C 189.642 99.496 190.085 98.563 190.973 97.87 C 191.86 97.177 193.043 96.83 194.524 96.828 C 195.788 96.828 196.829 97.06 197.648 97.523 L 197.648 97.036 C 197.652 96.308 197.329 95.616 196.768 95.152 C 196.205 94.644 195.471 94.367 194.713 94.376 C 193.524 94.376 192.583 94.877 191.89 95.881 L 190.015 94.7 C 191.046 93.219 192.572 92.478 194.594 92.478" style="fill: rgb(79, 95, 101); fill-opacity: 1;"/>
    <path d="M 211.373 92.848 L 204.265 109.185 L 202.067 109.185 L 204.705 103.469 L 200.031 92.848 L 202.345 92.848 L 205.724 100.994 L 205.769 100.994 L 209.056 92.848 L 211.373 92.848 Z" style="fill: rgb(79, 95, 101); fill-opacity: 1;"/>
    <path d="M 172.385 96.03 C 172.386 95.381 172.331 94.734 172.222 94.094 L 163.243 94.094 L 163.243 97.761 L 168.386 97.761 C 168.173 98.944 167.487 99.989 166.485 100.654 L 166.485 103.034 L 169.553 103.034 C 171.35 101.377 172.385 98.927 172.385 96.03" style="fill: rgb(62, 129, 197); fill-opacity: 1;"/>
    <path d="M 163.243 105.333 C 165.812 105.333 167.975 104.49 169.553 103.035 L 166.484 100.655 C 165.63 101.234 164.529 101.564 163.243 101.564 C 160.76 101.564 158.652 99.891 157.898 97.635 L 154.737 97.635 L 154.737 100.088 C 156.353 103.303 159.644 105.333 163.243 105.333" style="fill: rgb(62, 184, 100); fill-opacity: 1;"/>
    <path d="M 157.898 97.635 C 157.5 96.453 157.5 95.173 157.898 93.991 L 157.898 91.538 L 154.737 91.538 C 153.385 94.228 153.385 97.398 154.737 100.088 L 157.898 97.635 Z" style="fill: rgb(255, 184, 60); fill-opacity: 1;"/>
    <path d="M 163.243 90.061 C 164.6 90.039 165.913 90.552 166.895 91.489 L 169.612 88.772 C 167.889 87.153 165.606 86.265 163.243 86.292 C 159.644 86.293 156.353 88.322 154.737 91.538 L 157.898 93.991 C 158.652 91.735 160.76 90.061 163.243 90.061" style="fill: rgb(255, 79, 58); fill-opacity: 1;"/>
  </g>
  <g>
    <path d="M 11.313 166.554 L 42.891 166.554 L 42.891 169.386 L 11.313 169.386 L 11.313 166.554 Z" style="fill: rgb(255, 175, 61); fill-opacity: 1;"/>
    <path d="M 11.313 149.72 L 42.891 149.72 L 42.891 152.551 L 11.313 152.551 L 11.313 149.72 Z" style="fill: rgb(16, 60, 128); fill-opacity: 1;"/>
    <path d="M 26.829 155.67 L 25.164 163.452 L 23.151 163.452 L 24.816 155.67 L 26.829 155.67 Z M 35.299 160.694 L 36.359 157.773 L 36.969 160.694 L 35.299 160.694 Z M 37.546 163.452 L 39.408 163.452 L 37.781 155.67 L 36.064 155.67 C 35.677 155.67 35.351 155.894 35.206 156.24 L 32.185 163.452 L 34.3 163.452 L 34.72 162.29 L 37.302 162.29 L 37.546 163.452 Z M 32.29 160.911 C 32.299 158.858 29.452 158.744 29.471 157.826 C 29.476 157.547 29.743 157.25 30.324 157.174 C 30.612 157.137 31.408 157.107 32.31 157.523 L 32.662 155.872 C 32.178 155.696 31.555 155.528 30.779 155.528 C 28.789 155.528 27.389 156.585 27.378 158.1 C 27.365 159.22 28.378 159.845 29.14 160.218 C 29.925 160.599 30.187 160.844 30.184 161.185 C 30.179 161.707 29.558 161.938 28.98 161.947 C 27.967 161.962 27.38 161.673 26.912 161.455 L 26.547 163.161 C 27.018 163.377 27.886 163.564 28.785 163.574 C 30.901 163.574 32.285 162.529 32.29 160.911 M 23.953 155.67 L 20.69 163.452 L 18.562 163.452 L 16.957 157.241 C 16.86 156.859 16.775 156.719 16.479 156.558 C 15.995 156.295 15.196 156.049 14.493 155.896 L 14.54 155.67 L 17.966 155.67 C 18.403 155.67 18.795 155.96 18.895 156.463 L 19.743 160.966 L 21.837 155.67 L 23.953 155.67 Z" style="fill: rgb(16, 60, 128); fill-opacity: 1;"/>
  </g>
  <g>
    <path d="M 54.332 166.509 L 85.706 166.509 L 85.706 169.322 L 54.332 169.322 L 54.332 166.509 Z" style="fill: rgb(255, 175, 61); fill-opacity: 1;"/>
    <path d="M 54.332 149.783 L 85.706 149.783 L 85.706 152.596 L 54.332 152.596 L 54.332 149.783 Z" style="fill: rgb(16, 60, 128); fill-opacity: 1;"/>
    <path d="M 69.395 155.136 L 67.823 162.486 L 65.921 162.486 L 67.494 155.136 L 69.395 155.136 Z M 77.395 159.882 L 78.396 157.122 L 78.971 159.882 L 77.395 159.882 Z M 79.518 162.486 L 81.276 162.486 L 79.74 155.136 L 78.118 155.136 C 77.751 155.136 77.444 155.348 77.308 155.675 L 74.455 162.486 L 76.452 162.486 L 76.847 161.388 L 79.287 161.388 L 79.518 162.486 Z M 74.554 160.086 C 74.562 158.147 71.872 158.039 71.889 157.173 C 71.896 156.909 72.147 156.629 72.696 156.557 C 72.968 156.522 73.72 156.493 74.571 156.886 L 74.905 155.326 C 74.447 155.161 73.858 155.002 73.126 155.002 C 71.246 155.002 69.924 156 69.913 157.431 C 69.901 158.49 70.858 159.079 71.577 159.432 C 72.318 159.792 72.567 160.023 72.563 160.345 C 72.558 160.838 71.972 161.056 71.426 161.065 C 70.47 161.08 69.916 160.806 69.473 160.6 L 69.128 162.211 C 69.573 162.415 70.393 162.593 71.242 162.601 C 73.241 162.601 74.548 161.615 74.554 160.086 M 66.678 155.136 L 63.597 162.486 L 61.587 162.486 L 60.071 156.62 C 59.978 156.26 59.899 156.127 59.619 155.974 C 59.162 155.726 58.407 155.494 57.743 155.349 L 57.788 155.136 L 61.024 155.136 C 61.436 155.136 61.807 155.41 61.901 155.885 L 62.702 160.138 L 64.68 155.136 L 66.678 155.136 Z" style="fill: rgb(16, 60, 128); fill-opacity: 1;"/>
    <path d="M 71.829 164.509 L 71.056 164.509 L 71.056 165.228 L 71.92 165.228 L 71.92 165.445 L 70.796 165.445 L 70.796 163.449 L 71.876 163.449 L 71.876 163.666 L 71.056 163.666 L 71.056 164.296 L 71.829 164.296 L 71.829 164.509 Z" style="fill: rgb(16, 60, 128); fill-opacity: 1;"/>
    <path d="M 72.319 163.343 L 72.579 163.343 L 72.579 165.445 L 72.319 165.445 L 72.319 163.343 Z" style="fill: rgb(16, 60, 128); fill-opacity: 1;"/>
    <path d="M 74 164.589 C 74.003 164.426 73.932 164.169 73.639 164.169 C 73.373 164.169 73.26 164.408 73.24 164.589 L 74 164.589 Z M 73.236 164.776 C 73.242 165.128 73.464 165.273 73.728 165.273 C 73.915 165.273 74.03 165.24 74.125 165.198 L 74.172 165.385 C 74.08 165.426 73.92 165.477 73.692 165.477 C 73.251 165.477 72.988 165.184 72.988 164.752 C 72.988 164.319 73.242 163.982 73.66 163.982 C 74.13 163.982 74.252 164.391 74.252 164.654 C 74.252 164.707 74.249 164.746 74.243 164.776 L 73.236 164.776 Z" style="fill: rgb(16, 60, 128); fill-opacity: 1;"/>
    <path d="M 75.669 165.394 C 75.601 165.426 75.45 165.477 75.257 165.477 C 74.825 165.477 74.544 165.184 74.544 164.746 C 74.544 164.305 74.846 163.982 75.314 163.982 C 75.468 163.982 75.604 164.02 75.675 164.059 L 75.616 164.257 C 75.554 164.225 75.456 164.189 75.314 164.189 C 74.985 164.189 74.808 164.435 74.808 164.731 C 74.808 165.062 75.021 165.267 75.305 165.267 C 75.453 165.267 75.55 165.231 75.625 165.198 L 75.669 165.394 Z" style="fill: rgb(16, 60, 128); fill-opacity: 1;"/>
    <path d="M 76.399 163.669 L 76.399 164.012 L 76.772 164.012 L 76.772 164.211 L 76.399 164.211 L 76.399 164.983 C 76.399 165.161 76.449 165.261 76.594 165.261 C 76.666 165.261 76.707 165.255 76.746 165.243 L 76.757 165.442 C 76.707 165.46 76.627 165.477 76.526 165.477 C 76.405 165.477 76.307 165.436 76.245 165.368 C 76.174 165.288 76.145 165.161 76.145 164.992 L 76.145 164.211 L 75.922 164.211 L 75.922 164.012 L 76.145 164.012 L 76.145 163.746 L 76.399 163.669 Z" style="fill: rgb(16, 60, 128); fill-opacity: 1;"/>
    <path d="M 77.136 164.459 C 77.136 164.291 77.133 164.146 77.124 164.012 L 77.352 164.012 L 77.364 164.296 L 77.373 164.296 C 77.438 164.104 77.597 163.982 77.772 163.982 C 77.799 163.982 77.82 163.985 77.844 163.988 L 77.844 164.234 C 77.817 164.228 77.79 164.228 77.754 164.228 C 77.571 164.228 77.441 164.364 77.405 164.56 C 77.399 164.595 77.396 164.64 77.396 164.681 L 77.396 165.445 L 77.136 165.445 L 77.136 164.459 Z" style="fill: rgb(16, 60, 128); fill-opacity: 1;"/>
    <path d="M 78.311 164.731 C 78.311 165.044 78.488 165.281 78.743 165.281 C 78.992 165.281 79.178 165.048 79.178 164.725 C 79.178 164.482 79.057 164.177 78.749 164.177 C 78.444 164.177 78.311 164.461 78.311 164.731 M 79.444 164.716 C 79.444 165.246 79.075 165.477 78.731 165.477 C 78.346 165.477 78.044 165.192 78.044 164.74 C 78.044 164.263 78.361 163.982 78.755 163.982 C 79.166 163.982 79.444 164.281 79.444 164.716" style="fill: rgb(16, 60, 128); fill-opacity: 1;"/>
    <path d="M 79.844 164.4 C 79.844 164.249 79.841 164.131 79.832 164.012 L 80.063 164.012 L 80.077 164.249 L 80.083 164.249 C 80.155 164.116 80.321 163.983 80.557 163.983 C 80.755 163.983 81.063 164.101 81.063 164.592 L 81.063 165.445 L 80.803 165.445 L 80.803 164.619 C 80.803 164.388 80.717 164.195 80.471 164.195 C 80.302 164.195 80.169 164.317 80.122 164.462 C 80.11 164.495 80.104 164.539 80.104 164.584 L 80.104 165.445 L 79.844 165.445 L 79.844 164.4 Z" style="fill: rgb(16, 60, 128); fill-opacity: 1;"/>
  </g>
  <g>
    <path d="M 105.822 168.217 C 105.842 167.874 106.136 167.613 106.479 167.633 C 106.822 167.653 107.084 167.947 107.063 168.29 C 107.044 168.617 106.774 168.874 106.446 168.875 C 106.105 168.882 105.823 168.611 105.816 168.27 C 105.816 168.252 105.816 168.235 105.818 168.217 L 105.822 168.217 Z M 107.487 168.217 L 107.487 167.188 L 107.04 167.188 L 107.04 167.438 C 106.885 167.239 106.645 167.128 106.394 167.137 C 105.8 167.137 105.318 167.618 105.318 168.213 C 105.318 168.807 105.8 169.288 106.394 169.288 C 106.645 169.298 106.885 169.186 107.04 168.987 L 107.04 169.237 L 107.487 169.237 L 107.487 168.217 Z M 122.598 168.217 C 122.619 167.874 122.913 167.613 123.257 167.633 C 123.599 167.653 123.86 167.947 123.841 168.29 C 123.821 168.617 123.551 168.874 123.222 168.875 C 122.882 168.88 122.602 168.607 122.597 168.266 C 122.597 168.249 122.597 168.233 122.598 168.217 M 124.966 169.091 L 124.966 169.142 L 125.013 169.142 C 125.021 169.145 125.03 169.145 125.039 169.142 C 125.042 169.136 125.042 169.129 125.039 169.123 C 125.042 169.117 125.042 169.11 125.039 169.103 C 125.03 169.101 125.021 169.101 125.013 169.103 L 124.966 169.091 Z M 125.013 169.054 C 125.033 169.053 125.052 169.059 125.069 169.071 C 125.083 169.082 125.09 169.099 125.089 169.116 C 125.089 169.131 125.084 169.145 125.073 169.155 C 125.061 169.166 125.045 169.173 125.028 169.175 L 125.091 169.245 L 125.041 169.245 L 124.983 169.175 L 124.964 169.175 L 124.964 169.245 L 124.923 169.245 L 124.923 169.056 L 125.013 169.054 Z M 125 169.31 C 125.021 169.31 125.043 169.306 125.062 169.297 C 125.081 169.289 125.097 169.277 125.112 169.262 C 125.168 169.202 125.168 169.108 125.112 169.048 C 125.097 169.033 125.081 169.021 125.062 169.013 C 125.043 169.005 125.021 169 125 169 C 124.978 169 124.958 169.005 124.937 169.013 C 124.919 169.021 124.901 169.032 124.886 169.048 C 124.83 169.108 124.83 169.202 124.886 169.262 C 124.901 169.278 124.919 169.289 124.937 169.297 C 124.96 169.306 124.983 169.311 125.007 169.31 L 125 169.31 Z M 125 168.946 C 125.028 168.946 125.055 168.951 125.082 168.962 C 125.106 168.971 125.13 168.986 125.148 169.005 C 125.168 169.023 125.182 169.045 125.194 169.069 C 125.216 169.12 125.216 169.177 125.194 169.228 C 125.182 169.252 125.168 169.274 125.148 169.293 C 125.13 169.311 125.106 169.326 125.082 169.336 C 125.056 169.347 125.028 169.353 125 169.353 C 124.917 169.352 124.842 169.304 124.806 169.228 C 124.785 169.177 124.785 169.12 124.806 169.069 C 124.817 169.045 124.833 169.023 124.851 169.005 C 124.871 168.986 124.893 168.971 124.919 168.962 C 124.946 168.95 124.976 168.945 125.007 168.946 L 125 168.946 Z M 124.254 168.217 L 124.254 166.362 L 123.823 166.362 L 123.823 167.438 C 123.669 167.239 123.428 167.128 123.177 167.137 C 122.584 167.137 122.101 167.618 122.101 168.213 C 122.101 168.807 122.584 169.288 123.177 169.288 C 123.428 169.298 123.669 169.186 123.823 168.987 L 123.823 169.237 L 124.254 169.237 L 124.254 168.217 Z M 113.041 167.537 C 113.322 167.531 113.555 167.754 113.562 168.036 L 112.486 168.036 C 112.502 167.749 112.745 167.527 113.032 167.537 L 113.041 167.537 Z M 113.041 167.137 C 112.447 167.145 111.972 167.634 111.98 168.228 C 111.989 168.822 112.477 169.297 113.071 169.288 C 113.381 169.304 113.685 169.205 113.925 169.009 L 113.71 168.677 C 113.54 168.814 113.33 168.889 113.112 168.892 C 112.804 168.919 112.531 168.696 112.496 168.389 L 114.024 168.389 L 114.024 168.217 C 114.024 167.571 113.624 167.141 113.047 167.141 L 113.041 167.137 Z M 118.442 168.213 C 118.462 167.87 118.757 167.608 119.099 167.629 C 119.442 167.649 119.704 167.943 119.683 168.286 C 119.664 168.613 119.393 168.869 119.066 168.871 C 118.724 168.875 118.445 168.602 118.44 168.261 C 118.44 168.245 118.44 168.229 118.442 168.213 M 120.107 168.213 L 120.107 167.188 L 119.66 167.188 L 119.66 167.438 C 119.506 167.239 119.265 167.128 119.014 167.137 C 118.42 167.137 117.938 167.618 117.938 168.213 C 117.938 168.807 118.42 169.288 119.014 169.288 C 119.265 169.298 119.506 169.186 119.66 168.987 L 119.66 169.237 L 120.107 169.237 L 120.107 168.213 Z M 115.916 168.213 C 115.894 168.786 116.343 169.268 116.916 169.289 C 116.948 169.291 116.98 169.29 117.012 169.288 C 117.282 169.302 117.546 169.215 117.753 169.043 L 117.538 168.682 C 117.384 168.8 117.194 168.864 117 168.867 C 116.636 168.837 116.365 168.519 116.395 168.155 C 116.421 167.832 116.677 167.576 117 167.55 C 117.194 167.552 117.384 167.617 117.538 167.735 L 117.753 167.373 C 117.546 167.202 117.282 167.114 117.012 167.128 C 116.44 167.095 115.949 167.534 115.917 168.107 C 115.915 168.139 115.915 168.172 115.916 168.204 L 115.916 168.213 Z M 121.682 167.137 C 121.46 167.13 121.252 167.246 121.14 167.438 L 121.14 167.188 L 120.697 167.188 L 120.697 169.245 L 121.144 169.245 L 121.144 168.092 C 121.144 167.752 121.291 167.563 121.575 167.563 C 121.671 167.561 121.765 167.579 121.854 167.614 L 121.992 167.184 C 121.889 167.148 121.782 167.129 121.674 167.128 L 121.682 167.137 Z M 109.695 167.352 C 109.442 167.201 109.15 167.127 108.856 167.137 C 108.335 167.137 107.995 167.386 107.995 167.795 C 107.995 168.131 108.245 168.338 108.705 168.402 L 108.92 168.432 C 109.166 168.467 109.282 168.531 109.282 168.647 C 109.282 168.806 109.118 168.897 108.813 168.897 C 108.567 168.904 108.326 168.828 108.129 168.682 L 107.913 169.03 C 108.174 169.212 108.486 169.306 108.804 169.297 C 109.398 169.297 109.742 169.017 109.742 168.626 C 109.742 168.234 109.471 168.075 109.024 168.01 L 108.808 167.98 C 108.615 167.954 108.46 167.916 108.46 167.778 C 108.46 167.64 108.606 167.537 108.851 167.537 C 109.078 167.54 109.301 167.6 109.497 167.714 L 109.695 167.352 Z M 115.466 167.137 C 115.244 167.13 115.036 167.246 114.924 167.438 L 114.924 167.188 L 114.48 167.188 L 114.48 169.245 L 114.927 169.245 L 114.927 168.092 C 114.927 167.752 115.074 167.563 115.358 167.563 C 115.454 167.561 115.549 167.579 115.638 167.614 L 115.776 167.184 C 115.674 167.148 115.566 167.129 115.457 167.128 L 115.466 167.137 Z M 111.649 167.188 L 110.913 167.188 L 110.913 166.564 L 110.461 166.564 L 110.461 167.188 L 110.052 167.188 L 110.052 167.597 L 110.469 167.597 L 110.469 168.544 C 110.469 169.022 110.655 169.306 111.184 169.306 C 111.382 169.306 111.575 169.251 111.743 169.146 L 111.614 168.763 C 111.494 168.835 111.358 168.875 111.218 168.88 C 111.003 168.88 110.922 168.742 110.922 168.535 L 110.922 167.597 L 111.653 167.597 L 111.649 167.188 Z M 104.963 169.245 L 104.963 167.954 C 104.992 167.532 104.674 167.167 104.252 167.137 C 104.219 167.135 104.187 167.135 104.154 167.137 C 103.864 167.118 103.588 167.258 103.431 167.503 C 103.289 167.265 103.028 167.125 102.751 167.137 C 102.51 167.125 102.281 167.241 102.149 167.442 L 102.149 167.188 L 101.701 167.188 L 101.701 169.245 L 102.153 169.245 L 102.153 168.113 C 102.117 167.85 102.301 167.607 102.566 167.571 C 102.595 167.567 102.626 167.566 102.656 167.567 C 102.953 167.567 103.104 167.761 103.104 168.109 L 103.104 169.254 L 103.556 169.254 L 103.556 168.113 C 103.521 167.848 103.708 167.605 103.973 167.571 C 104.002 167.567 104.03 167.566 104.059 167.567 C 104.365 167.567 104.511 167.761 104.511 168.109 L 104.511 169.254 L 104.963 169.245 Z" style="fill: rgb(24, 24, 27); fill-opacity: 1;"/>
    <path d="M 109.547 151.513 L 116.324 151.513 L 116.324 163.694 L 109.547 163.694 L 109.547 151.513 Z" style="fill: rgb(255, 101, 41); fill-opacity: 1;"/>
    <path d="M 109.977 157.605 C 109.975 155.228 111.065 152.981 112.935 151.513 C 109.572 148.87 104.702 149.454 102.059 152.817 C 99.415 156.181 99.999 161.051 103.363 163.694 C 106.172 165.902 110.126 165.902 112.935 163.694 C 111.066 162.227 109.975 159.981 109.977 157.605" style="fill: rgb(255, 50, 37); fill-opacity: 1;"/>
    <path d="M 125.47 157.605 C 125.47 161.883 122.001 165.351 117.723 165.351 C 115.987 165.351 114.301 164.768 112.936 163.694 C 116.3 161.051 116.883 156.181 114.24 152.817 C 113.859 152.333 113.421 151.895 112.936 151.513 C 116.299 148.869 121.169 149.452 123.813 152.815 C 124.886 154.18 125.47 155.866 125.47 157.603 L 125.47 157.605 Z" style="fill: rgb(255, 155, 56); fill-opacity: 1;"/>
    <path d="M 125.227 162.403 L 125.227 162.102 L 125.149 162.102 L 125.059 162.317 L 124.968 162.102 L 124.9 162.102 L 124.9 162.403 L 124.956 162.403 L 124.956 162.177 L 125.04 162.373 L 125.098 162.373 L 125.181 162.177 L 125.181 162.405 L 125.227 162.403 Z M 124.73 162.403 L 124.73 162.153 L 124.831 162.153 L 124.831 162.102 L 124.575 162.102 L 124.575 162.153 L 124.684 162.153 L 124.684 162.403 L 124.73 162.403 Z" style="fill: rgb(255, 155, 56); fill-opacity: 1;"/>
  </g>
  <g>
    <path d="M 164.477 169.042 L 164.477 169.094 L 164.524 169.094 C 164.533 169.096 164.541 169.096 164.549 169.094 C 164.552 169.087 164.552 169.081 164.549 169.074 C 164.552 169.068 164.552 169.061 164.549 169.055 C 164.541 169.053 164.533 169.053 164.524 169.055 L 164.477 169.042 Z M 164.524 169.006 C 164.543 169.005 164.564 169.011 164.58 169.023 C 164.593 169.034 164.6 169.051 164.599 169.068 C 164.6 169.083 164.594 169.096 164.583 169.106 C 164.572 169.118 164.555 169.125 164.539 169.126 L 164.601 169.197 L 164.551 169.197 L 164.494 169.126 L 164.474 169.126 L 164.474 169.197 L 164.434 169.197 L 164.434 168.999 L 164.524 169.006 Z M 164.511 169.261 C 164.533 169.261 164.553 169.257 164.573 169.249 C 164.591 169.24 164.609 169.229 164.623 169.214 C 164.684 169.152 164.684 169.051 164.622 168.989 C 164.608 168.975 164.591 168.964 164.573 168.956 C 164.553 168.948 164.533 168.943 164.511 168.943 C 164.49 168.943 164.468 168.948 164.449 168.956 C 164.429 168.964 164.412 168.976 164.397 168.991 C 164.341 169.051 164.341 169.145 164.397 169.206 C 164.427 169.236 164.468 169.253 164.511 169.252 L 164.511 169.261 Z M 164.511 168.898 C 164.539 168.898 164.567 168.903 164.592 168.914 C 164.618 168.923 164.64 168.938 164.659 168.956 C 164.678 168.975 164.693 168.997 164.705 169.021 C 164.726 169.071 164.726 169.129 164.705 169.18 C 164.693 169.204 164.678 169.226 164.659 169.244 C 164.64 169.262 164.618 169.277 164.592 169.287 C 164.567 169.298 164.539 169.304 164.511 169.304 C 164.428 169.304 164.353 169.255 164.318 169.18 C 164.296 169.129 164.296 169.071 164.318 169.021 C 164.329 168.997 164.344 168.975 164.363 168.956 C 164.382 168.938 164.405 168.923 164.429 168.914 C 164.452 168.904 164.476 168.899 164.5 168.898 L 164.511 168.898 Z M 161.423 167.095 C 161.532 167.095 161.639 167.114 161.741 167.15 L 161.603 167.58 C 161.515 167.544 161.419 167.527 161.325 167.528 C 161.033 167.528 160.895 167.717 160.895 168.057 L 160.895 169.206 L 160.449 169.206 L 160.449 167.155 L 160.89 167.155 L 160.89 167.404 C 161.002 167.212 161.209 167.097 161.432 167.103 L 161.423 167.095 Z M 159.879 167.554 L 159.151 167.554 L 159.151 168.48 C 159.151 168.694 159.224 168.823 159.448 168.823 C 159.587 168.818 159.723 168.779 159.842 168.707 L 159.971 169.089 C 159.804 169.194 159.611 169.249 159.414 169.249 C 158.885 169.249 158.701 168.965 158.701 168.488 L 158.701 167.554 L 158.284 167.554 L 158.284 167.146 L 158.701 167.146 L 158.701 166.523 L 159.151 166.523 L 159.151 167.146 L 159.879 167.146 L 159.879 167.554 Z M 157.732 167.67 C 157.536 167.557 157.314 167.497 157.087 167.494 C 156.843 167.494 156.697 167.584 156.697 167.734 C 156.697 167.885 156.851 167.911 157.044 167.937 L 157.259 167.966 C 157.706 168.031 157.977 168.22 157.977 168.581 C 157.977 168.941 157.633 169.25 157.042 169.25 C 156.726 169.259 156.415 169.166 156.156 168.984 L 156.371 168.636 C 156.568 168.783 156.808 168.858 157.053 168.851 C 157.358 168.851 157.521 168.761 157.521 168.602 C 157.521 168.486 157.406 168.421 157.161 168.387 L 156.946 168.357 C 156.487 168.293 156.238 168.086 156.238 167.751 C 156.238 167.344 156.573 167.095 157.096 167.095 C 157.389 167.085 157.679 167.159 157.931 167.309 L 157.732 167.67 Z M 154.327 167.992 C 154.343 167.709 154.581 167.49 154.866 167.496 C 155.146 167.49 155.379 167.713 155.385 167.994 L 154.327 167.992 Z M 155.853 168.172 C 155.853 167.528 155.454 167.099 154.88 167.099 C 154.288 167.107 153.813 167.595 153.822 168.188 C 153.83 168.78 154.318 169.254 154.911 169.246 C 155.216 169.257 155.515 169.154 155.749 168.959 L 155.536 168.628 C 155.366 168.764 155.156 168.839 154.938 168.842 C 154.631 168.869 154.359 168.646 154.324 168.34 L 155.846 168.34 C 155.853 168.286 155.853 168.232 155.853 168.172 M 162.969 167.528 C 162.881 167.527 162.794 167.543 162.713 167.576 C 162.637 167.606 162.568 167.652 162.509 167.711 C 162.451 167.772 162.405 167.846 162.374 167.926 C 162.309 168.097 162.309 168.287 162.374 168.458 C 162.405 168.538 162.451 168.611 162.509 168.673 C 162.568 168.731 162.637 168.777 162.713 168.808 C 162.877 168.872 163.059 168.872 163.222 168.808 C 163.303 168.778 163.375 168.732 163.437 168.673 C 163.497 168.611 163.542 168.538 163.573 168.458 C 163.638 168.287 163.638 168.097 163.573 167.926 C 163.542 167.846 163.497 167.772 163.437 167.711 C 163.375 167.651 163.303 167.605 163.222 167.576 C 163.141 167.539 163.054 167.518 162.965 167.516 L 162.969 167.528 Z M 162.969 167.099 C 163.117 167.099 163.262 167.126 163.399 167.181 C 163.529 167.233 163.648 167.31 163.748 167.408 C 163.848 167.505 163.927 167.622 163.981 167.75 C 164.092 168.025 164.092 168.333 163.981 168.608 C 163.927 168.737 163.848 168.853 163.748 168.95 C 163.648 169.048 163.529 169.125 163.399 169.177 C 163.116 169.288 162.801 169.288 162.518 169.177 C 162.388 169.125 162.27 169.048 162.17 168.95 C 162.072 168.853 161.994 168.736 161.941 168.608 C 161.829 168.333 161.829 168.025 161.941 167.75 C 161.994 167.622 162.072 167.505 162.17 167.408 C 162.27 167.31 162.388 167.232 162.518 167.181 C 162.66 167.122 162.812 167.092 162.965 167.092 L 162.969 167.099 Z M 151.767 168.172 C 151.787 167.831 152.081 167.569 152.422 167.589 C 152.765 167.61 153.026 167.903 153.005 168.246 C 152.987 168.572 152.716 168.828 152.389 168.83 C 152.05 168.837 151.769 168.569 151.761 168.23 C 151.76 168.211 151.761 168.192 151.762 168.172 L 151.767 168.172 Z M 153.426 168.172 L 153.426 167.148 L 152.976 167.148 L 152.976 167.397 C 152.822 167.199 152.582 167.087 152.331 167.097 C 151.739 167.097 151.258 167.578 151.258 168.17 C 151.258 168.763 151.739 169.244 152.331 169.244 C 152.582 169.253 152.822 169.142 152.976 168.943 L 152.976 169.192 L 153.422 169.192 L 153.426 168.172 Z M 150.914 169.197 L 150.914 167.908 C 150.944 167.488 150.626 167.125 150.206 167.095 C 150.174 167.093 150.141 167.093 150.109 167.095 C 149.82 167.076 149.543 167.215 149.387 167.459 C 149.246 167.223 148.985 167.083 148.708 167.095 C 148.468 167.083 148.24 167.198 148.108 167.399 L 148.108 167.146 L 147.661 167.146 L 147.661 169.197 L 148.112 169.197 L 148.112 168.061 C 148.075 167.799 148.257 167.557 148.519 167.52 C 148.55 167.515 148.582 167.514 148.615 167.516 C 148.911 167.516 149.061 167.709 149.061 168.057 L 149.061 169.197 L 149.512 169.197 L 149.512 168.061 C 149.477 167.796 149.664 167.554 149.928 167.519 C 149.956 167.515 149.986 167.514 150.014 167.516 C 150.32 167.516 150.465 167.709 150.465 168.057 L 150.465 169.197 L 150.914 169.197 Z" style="fill: rgb(2, 4, 7); fill-opacity: 1;"/>
    <path d="M 152.471 151.501 L 159.235 151.501 L 159.235 163.657 L 152.471 163.657 L 152.471 151.501 Z" style="fill: rgb(93, 117, 189); fill-opacity: 1;"/>
    <path d="M 152.9 157.58 C 152.897 155.207 153.986 152.966 155.852 151.501 C 152.496 148.863 147.635 149.445 144.998 152.802 C 142.36 156.159 142.942 161.018 146.299 163.657 C 149.102 165.86 153.048 165.86 155.852 163.657 C 153.987 162.192 152.898 159.952 152.9 157.58" style="fill: rgb(255, 50, 37); fill-opacity: 1;"/>
    <path d="M 168.118 162.368 L 168.118 162.068 L 168.041 162.068 L 167.95 162.283 L 167.86 162.068 L 167.781 162.068 L 167.781 162.368 L 167.837 162.368 L 167.837 162.143 L 167.92 162.338 L 167.978 162.338 L 168.062 162.143 L 168.062 162.37 L 168.118 162.368 Z M 167.622 162.368 L 167.622 162.128 L 167.722 162.128 L 167.722 162.076 L 167.468 162.076 L 167.468 162.128 L 167.568 162.128 L 167.568 162.377 L 167.622 162.368 Z" style="fill: rgb(46, 173, 225); fill-opacity: 1;"/>
    <path d="M 168.358 157.58 C 168.357 161.849 164.895 165.309 160.626 165.308 C 158.894 165.308 157.213 164.726 155.852 163.657 C 159.209 161.018 159.792 156.159 157.154 152.802 C 156.773 152.318 156.337 151.881 155.852 151.501 C 159.209 148.862 164.068 149.444 166.707 152.8 C 167.778 154.163 168.36 155.845 168.36 157.578 L 168.358 157.58 Z" style="fill: rgb(46, 173, 225); fill-opacity: 1;"/>
  </g>
  <g>
    <path d="M 208.284 149.242 L 189.255 149.242 L 189.255 169.859 L 208.284 169.859 L 208.284 149.242 Z" style="fill: rgb(17, 56, 124); fill-opacity: 1;"/>
    <path d="M 207.809 162.631 L 189.731 162.631 L 189.731 149.719 L 207.809 149.719 L 207.809 162.631 Z" style="fill: rgb(255, 255, 255); fill-opacity: 1;"/>
    <path d="M 203.342 152.063 L 199.795 160.53 L 197.478 160.53 L 195.733 153.771 C 195.627 153.356 195.534 153.204 195.213 153.026 C 194.684 152.743 193.815 152.474 193.051 152.307 L 193.102 152.063 L 196.828 152.063 C 197.304 152.063 197.732 152.378 197.839 152.924 L 198.763 157.823 L 201.041 152.063 L 203.342 152.063" style="fill: rgb(17, 56, 124); fill-opacity: 1;"/>
    <path d="M 194.086 164.107 C 194.332 164.06 194.675 164.025 195.14 164.025 C 195.644 164.025 196.012 164.136 196.253 164.347 C 196.477 164.539 196.622 164.848 196.622 165.217 C 196.622 165.59 196.51 165.899 196.297 166.11 C 196.023 166.396 195.592 166.53 195.105 166.53 C 194.978 166.53 194.858 166.523 194.769 166.506 L 194.769 167.99 L 194.086 167.99 L 194.086 164.107 Z M 194.769 165.94 C 194.853 165.964 194.965 165.971 195.105 165.971 C 195.62 165.971 195.935 165.706 195.935 165.245 C 195.935 164.808 195.644 164.574 195.166 164.574 C 194.978 164.574 194.842 164.592 194.769 164.61 L 194.769 165.94 Z" style="fill: rgb(255, 255, 255); fill-opacity: 1;"/>
    <path d="M 198.134 166.874 L 197.809 167.99 L 197.099 167.99 L 198.307 164.054 L 199.187 164.054 L 200.413 167.99 L 199.674 167.99 L 199.331 166.874 L 198.134 166.874 Z M 199.214 166.332 L 198.918 165.362 C 198.844 165.123 198.783 164.854 198.727 164.626 L 198.716 164.626 C 198.66 164.854 198.604 165.13 198.537 165.362 L 198.246 166.332 L 199.214 166.332 Z" style="fill: rgb(255, 255, 255); fill-opacity: 1;"/>
    <path d="M 201.862 167.99 L 201.862 166.348 L 200.67 164.054 L 201.452 164.054 L 201.906 165.064 C 202.035 165.357 202.129 165.577 202.231 165.847 L 202.241 165.847 C 202.337 165.595 202.445 165.35 202.572 165.064 L 203.026 164.054 L 203.804 164.054 L 202.549 166.332 L 202.549 167.99 L 201.862 167.99 Z" style="fill: rgb(255, 255, 255); fill-opacity: 1;"/>
  </g>
</svg>
