<?xml version="1.0" encoding="utf-8"?>
<svg viewBox="0 19.257 226.772 160.582" xmlns="http://www.w3.org/2000/svg">
  <defs>
    <clipPath id="clippath0" transform="">
      <path d="M 0 340.157 L 226.772 340.157 L 226.772 0 L 0 0 Z" style="fill: none; clip-rule: nonzero;"/>
    </clipPath>
    <clipPath id="clippath2" transform="">
      <path d="M 0 340.157 L 226.772 340.157 L 226.772 0 L 0 0 Z" style="fill: none; clip-rule: nonzero;"/>
    </clipPath>
    <clipPath id="clippath8" transform="">
      <path d="M 0 340.157 L 226.772 340.157 L 226.772 0 L 0 0 Z" style="fill: none; clip-rule: nonzero;"/>
    </clipPath>
  </defs>
  <g transform="matrix(1, 0, 0, -1, 0, 340.157013)">
    <g style="clip-path: url(#clippath0);">
      <g transform="translate(53.5498 255.832)">
        <path d="M 0 0 L -34.399 0 L -34.828 0 C -34.949 -0.002 -35.07 -0.002 -35.191 -0.006 C -35.454 -0.013 -35.72 -0.03 -35.979 -0.077 C -36.242 -0.123 -36.488 -0.2 -36.729 -0.323 C -36.964 -0.442 -37.179 -0.599 -37.365 -0.786 C -37.552 -0.973 -37.709 -1.189 -37.828 -1.425 C -37.952 -1.663 -38.028 -1.909 -38.077 -2.172 C -38.124 -2.434 -38.138 -2.699 -38.145 -2.96 C -38.149 -3.082 -38.151 -3.202 -38.151 -3.323 L -38.151 -3.752 L -38.151 -23.074 L -38.151 -23.505 C -38.151 -23.624 -38.149 -23.745 -38.145 -23.866 C -38.138 -24.13 -38.124 -24.393 -38.077 -24.654 C -38.028 -24.917 -37.952 -25.164 -37.828 -25.404 C -37.709 -25.64 -37.552 -25.854 -37.365 -26.041 C -37.179 -26.228 -36.964 -26.385 -36.729 -26.504 C -36.488 -26.627 -36.242 -26.703 -35.979 -26.752 C -35.72 -26.799 -35.454 -26.814 -35.191 -26.82 C -35.07 -26.824 -34.949 -26.824 -34.828 -26.827 L -34.399 -26.827 L 0 -26.827 L 0.429 -26.827 C 0.55 -26.824 0.671 -26.824 0.792 -26.82 C 1.056 -26.814 1.319 -26.799 1.58 -26.752 C 1.843 -26.703 2.089 -26.627 2.33 -26.504 C 2.565 -26.385 2.78 -26.228 2.967 -26.041 C 3.153 -25.854 3.311 -25.64 3.43 -25.404 C 3.553 -25.164 3.629 -24.917 3.676 -24.654 C 3.725 -24.393 3.74 -24.13 3.746 -23.866 C 3.75 -23.745 3.75 -23.624 3.752 -23.505 L 3.752 -23.074 L 3.752 -3.752 L 3.752 -3.323 C 3.75 -3.202 3.75 -3.082 3.746 -2.96 C 3.74 -2.699 3.725 -2.434 3.676 -2.172 C 3.629 -1.909 3.553 -1.663 3.43 -1.425 C 3.311 -1.189 3.153 -0.973 2.967 -0.786 C 2.78 -0.599 2.565 -0.442 2.33 -0.323 C 2.089 -0.2 1.843 -0.123 1.58 -0.077 C 1.319 -0.03 1.056 -0.013 0.792 -0.006 C 0.671 -0.002 0.55 -0.002 0.429 0 L 0 0" style="fill: rgb(23, 24, 26); fill-opacity: 1;"/>
      </g>
    </g>
    <g style="clip-path: url(#clippath0);">
      <g transform="translate(53.5498 254.9375)">
        <path d="M 0 0 L 0.423 0 C 0.537 -0.002 0.652 -0.002 0.769 -0.006 C 0.968 -0.01 1.202 -0.021 1.421 -0.062 C 1.612 -0.095 1.771 -0.148 1.924 -0.225 C 2.075 -0.301 2.213 -0.403 2.334 -0.524 C 2.455 -0.646 2.557 -0.783 2.633 -0.936 C 2.712 -1.087 2.763 -1.246 2.797 -1.437 C 2.835 -1.654 2.848 -1.89 2.852 -2.091 C 2.856 -2.204 2.856 -2.319 2.858 -2.436 L 2.858 -2.858 L 2.858 -22.18 L 2.858 -22.604 C 2.856 -22.719 2.856 -22.834 2.852 -22.946 C 2.848 -23.148 2.835 -23.384 2.797 -23.603 C 2.763 -23.792 2.712 -23.951 2.633 -24.104 C 2.557 -24.254 2.455 -24.393 2.334 -24.514 C 2.213 -24.635 2.075 -24.737 1.922 -24.813 C 1.771 -24.892 1.612 -24.943 1.423 -24.977 C 1.2 -25.017 0.956 -25.027 0.771 -25.032 C 0.656 -25.036 0.542 -25.036 0.423 -25.038 L 0 -25.038 L -34.399 -25.038 L -34.405 -25.038 L -34.826 -25.038 C -34.94 -25.036 -35.055 -25.036 -35.167 -25.032 C -35.354 -25.027 -35.599 -25.017 -35.822 -24.977 C -36.011 -24.943 -36.17 -24.892 -36.323 -24.813 C -36.476 -24.737 -36.614 -24.635 -36.735 -24.514 C -36.856 -24.393 -36.956 -24.254 -37.032 -24.104 C -37.111 -23.951 -37.162 -23.792 -37.195 -23.601 C -37.236 -23.382 -37.247 -23.148 -37.253 -22.949 C -37.255 -22.834 -37.257 -22.719 -37.257 -22.604 L -37.257 -22.269 L -37.257 -22.18 L -37.257 -2.858 L -37.257 -2.769 L -37.257 -2.433 C -37.257 -2.321 -37.255 -2.206 -37.253 -2.091 C -37.247 -1.89 -37.236 -1.656 -37.195 -1.435 C -37.162 -1.246 -37.111 -1.087 -37.032 -0.934 C -36.956 -0.783 -36.856 -0.646 -36.732 -0.524 C -36.614 -0.403 -36.476 -0.303 -36.323 -0.225 C -36.17 -0.148 -36.011 -0.095 -35.822 -0.062 C -35.603 -0.021 -35.367 -0.01 -35.166 -0.006 C -35.053 -0.002 -34.938 -0.002 -34.824 0 L -34.399 0 Z" style="fill: rgb(255, 255, 255); fill-opacity: 1;"/>
      </g>
    </g>
    <g style="clip-path: url(#clippath0);">
      <g transform="translate(26.4131 246.7764)">
        <path d="M 0 0 C 0.354 0.444 0.597 1.041 0.533 1.65 C 0.013 1.625 -0.623 1.308 -0.99 0.862 C -1.319 0.482 -1.612 -0.14 -1.536 -0.724 C -0.952 -0.775 -0.368 -0.431 0 0" style="fill: rgb(23, 24, 26); fill-opacity: 1;"/>
      </g>
    </g>
    <g style="clip-path: url(#clippath0);">
      <g transform="translate(26.939 245.9385)">
        <path d="M 0 0 C -0.847 0.051 -1.569 -0.482 -1.973 -0.482 C -2.378 -0.482 -2.999 -0.025 -3.669 -0.038 C -4.542 -0.051 -5.351 -0.543 -5.795 -1.329 C -6.706 -2.898 -6.035 -5.228 -5.149 -6.506 C -4.718 -7.139 -4.2 -7.835 -3.517 -7.81 C -2.871 -7.785 -2.618 -7.392 -1.835 -7.392 C -1.051 -7.392 -0.822 -7.81 -0.14 -7.797 C 0.569 -7.785 1.013 -7.165 1.442 -6.532 C 1.937 -5.81 2.138 -5.113 2.151 -5.075 C 2.138 -5.062 0.784 -4.544 0.773 -2.988 C 0.758 -1.684 1.834 -1.063 1.886 -1.025 C 1.278 -0.127 0.329 -0.025 0 0" style="fill: rgb(23, 24, 26); fill-opacity: 1;"/>
      </g>
    </g>
    <g style="clip-path: url(#clippath0);">
      <g transform="translate(35.3916 247.7026)">
        <path d="M 0 0 C 1.843 0 3.125 -1.27 3.125 -3.12 C 3.125 -4.976 1.815 -6.251 -0.047 -6.251 L -2.085 -6.251 L -2.085 -9.496 L -3.562 -9.496 L -3.562 0 Z M -2.085 -5.014 L -0.395 -5.014 C 0.887 -5.014 1.618 -4.323 1.618 -3.126 C 1.618 -1.928 0.887 -1.244 -0.389 -1.244 L -2.085 -1.244 Z" style="fill: rgb(23, 24, 26); fill-opacity: 1;"/>
      </g>
    </g>
    <g style="clip-path: url(#clippath0);">
      <g transform="translate(38.8828 240.1743)">
        <path d="M 0 0 C 0 1.217 0.928 1.916 2.64 2.02 L 4.474 2.132 L 4.474 2.659 C 4.474 3.43 3.969 3.85 3.066 3.85 C 2.323 3.85 1.784 3.468 1.671 2.882 L 0.342 2.882 C 0.382 4.113 1.54 5.007 3.107 5.007 C 4.791 5.007 5.891 4.126 5.891 2.758 L 5.891 -1.968 L 4.527 -1.968 L 4.527 -0.828 L 4.496 -0.828 C 4.107 -1.573 3.251 -2.041 2.323 -2.041 C 0.954 -2.041 0 -1.223 0 0 M 4.474 0.612 L 4.474 1.145 L 2.837 1.041 C 1.916 0.981 1.436 0.639 1.436 0.041 C 1.436 -0.539 1.935 -0.915 2.718 -0.915 C 3.718 -0.915 4.474 -0.276 4.474 0.612" style="fill: rgb(23, 24, 26); fill-opacity: 1;"/>
      </g>
    </g>
    <g style="clip-path: url(#clippath0);">
      <g transform="translate(46.0249 235.667)">
        <path d="M 0 0 L 0 1.138 C 0.091 1.125 0.316 1.112 0.433 1.112 C 1.085 1.112 1.455 1.389 1.677 2.1 L 1.809 2.521 L -0.684 9.43 L 0.855 9.43 L 2.593 3.824 L 2.625 3.824 L 4.364 9.43 L 5.863 9.43 L 3.276 2.172 C 2.684 0.507 2.006 -0.041 0.573 -0.041 C 0.46 -0.041 0.098 -0.026 0 0" style="fill: rgb(24, 24, 27); fill-opacity: 1;"/>
      </g>
    </g>
    <g style="clip-path: url(#clippath0);">
      <g transform="translate(127.1377 248.2104)">
        <path d="M 0 0 L -0.104 6.054 L 1.807 6.054 L 1.807 -1.582 L -0.941 -1.582 L -2.843 4.686 L -2.891 4.686 L -2.782 -1.582 L -4.678 -1.582 L -4.678 6.054 L -1.817 6.054 L -0.04 0 Z" style="fill: rgb(20, 23, 23); fill-opacity: 1;"/>
      </g>
    </g>
    <g style="clip-path: url(#clippath0);">
      <g transform="translate(92.4336 253.5547)">
        <path d="M 0 0 L -1.057 -6.999 L -3.138 -6.999 L -1.71 0.709 L 1.725 0.709 L 3.149 -6.999 L 1.073 -6.999 L 0.044 0 Z" style="fill: rgb(20, 23, 23); fill-opacity: 1;"/>
      </g>
    </g>
    <g style="clip-path: url(#clippath0);">
      <g transform="translate(101.4253 248.3682)">
        <path d="M 0 0 L 0.955 5.897 L 4.098 5.897 L 4.271 -1.813 L 2.337 -1.813 L 2.287 5.122 L 2.247 5.122 L 0.96 -1.813 L -0.995 -1.813 L -2.288 5.122 L -2.332 5.122 L -2.378 -1.813 L -4.306 -1.813 L -4.133 5.897 L -0.987 5.897 L -0.041 0 Z" style="fill: rgb(20, 23, 23); fill-opacity: 1;"/>
      </g>
    </g>
    <g style="clip-path: url(#clippath0);">
      <g transform="translate(117.5986 247.7134)">
        <path d="M 0 0 C 0.539 0 0.703 0.366 0.741 0.555 C 0.758 0.637 0.76 0.75 0.76 0.848 L 0.76 6.553 L 2.716 6.553 L 2.716 1.025 C 2.716 0.88 2.699 0.591 2.691 0.515 C 2.561 -0.924 1.419 -1.387 0 -1.387 C -1.419 -1.387 -2.557 -0.924 -2.688 0.515 C -2.697 0.591 -2.708 0.88 -2.705 1.025 L -2.705 6.553 L -0.754 6.553 L -0.754 0.848 C -0.76 0.75 -0.75 0.637 -0.74 0.555 C -0.701 0.366 -0.537 0 0 0" style="fill: rgb(20, 23, 23); fill-opacity: 1;"/>
      </g>
    </g>
    <g style="clip-path: url(#clippath0);">
      <g transform="translate(86.0479 248.7329)">
        <path d="M 0 0 C 0.074 -0.189 0.05 -0.428 0.016 -0.573 C -0.046 -0.828 -0.219 -1.094 -0.735 -1.094 C -1.218 -1.094 -1.507 -0.812 -1.507 -0.392 L -1.514 0.355 L -3.58 0.355 L -3.58 -0.237 C -3.58 -1.96 -2.229 -2.477 -0.782 -2.477 C 0.619 -2.477 1.765 -2.004 1.948 -0.718 C 2.044 -0.05 1.974 0.386 1.944 0.548 C 1.616 2.167 -1.312 2.643 -1.529 3.545 C -1.568 3.706 -1.56 3.863 -1.54 3.949 C -1.483 4.201 -1.314 4.472 -0.834 4.472 C -0.38 4.472 -0.114 4.188 -0.114 3.774 L -0.114 3.294 L 1.809 3.294 L 1.809 3.835 C 1.809 5.515 0.3 5.778 -0.796 5.778 C -2.165 5.778 -3.284 5.322 -3.491 4.064 C -3.543 3.724 -3.549 3.417 -3.473 3.029 C -3.14 1.449 -0.394 0.995 0 0" style="fill: rgb(20, 23, 23); fill-opacity: 1;"/>
      </g>
    </g>
    <g style="clip-path: url(#clippath0);">
      <g transform="translate(111.1235 248.7427)">
        <path d="M 0 0 C 0.079 -0.183 0.046 -0.42 0.016 -0.563 C -0.044 -0.818 -0.221 -1.071 -0.728 -1.071 C -1.206 -1.071 -1.495 -0.8 -1.495 -0.382 L -1.495 0.36 L -3.545 0.36 L -3.545 -0.231 C -3.545 -1.938 -2.205 -2.448 -0.768 -2.448 C 0.609 -2.448 1.747 -1.978 1.93 -0.704 C 2.022 -0.044 1.954 0.388 1.92 0.553 C 1.598 2.148 -1.3 2.623 -1.511 3.521 C -1.549 3.672 -1.54 3.833 -1.523 3.917 C -1.469 4.163 -1.302 4.432 -0.826 4.432 C -0.374 4.432 -0.114 4.157 -0.114 3.745 L -0.114 3.27 L 1.787 3.27 L 1.787 3.803 C 1.787 5.465 0.294 5.727 -0.784 5.727 C -2.141 5.727 -3.254 5.282 -3.453 4.032 C -3.513 3.696 -3.521 3.393 -3.435 3.003 C -3.105 1.439 -0.392 0.991 0 0" style="fill: rgb(20, 23, 23); fill-opacity: 1;"/>
      </g>
    </g>
    <g style="clip-path: url(#clippath0);">
      <g transform="translate(133.6855 247.791)">
        <path d="M 0 0 C 0.557 0 0.751 0.348 0.785 0.561 C 0.8 0.643 0.806 0.753 0.804 0.852 L 0.804 1.965 L 0.016 1.965 L 0.016 3.099 L 2.745 3.099 L 2.745 1.027 C 2.745 0.882 2.739 0.776 2.721 0.519 C 2.591 -0.88 1.372 -1.385 0.002 -1.385 C -1.361 -1.385 -2.573 -0.88 -2.702 0.519 C -2.728 0.776 -2.73 0.882 -2.73 1.027 L -2.73 4.271 C -2.73 4.41 -2.714 4.655 -2.696 4.777 C -2.529 6.227 -1.361 6.681 0.002 6.681 C 1.372 6.681 2.574 6.231 2.711 4.777 C 2.739 4.539 2.728 4.271 2.728 4.271 L 2.729 4.018 L 0.785 4.018 L 0.785 4.45 C 0.785 4.45 0.785 4.635 0.762 4.743 C 0.728 4.91 0.578 5.302 -0.011 5.302 C -0.565 5.302 -0.732 4.932 -0.776 4.743 C -0.803 4.643 -0.807 4.504 -0.807 4.379 L -0.807 0.852 C -0.807 0.753 -0.803 0.643 -0.794 0.561 C -0.754 0.348 -0.56 0 0 0" style="fill: rgb(20, 23, 23); fill-opacity: 1;"/>
      </g>
    </g>
    <g style="clip-path: url(#clippath0);">
      <g transform="translate(100.6997 240.2905)">
        <path d="M 0 0 L 0 -3.067 L 1.186 -3.067 C 2.108 -3.067 2.735 -2.382 2.735 -1.528 C 2.735 -0.684 2.108 0 1.186 0 Z M -1.55 1.437 L 1.298 1.437 C 3.021 1.437 4.297 0.114 4.297 -1.528 C 4.297 -3.18 3.021 -4.502 1.288 -4.502 L 0 -4.502 L 0 -6.886 L -1.55 -6.886 Z" style="fill: rgb(20, 23, 23); fill-opacity: 1;"/>
      </g>
    </g>
    <g style="clip-path: url(#clippath0);">
      <g transform="translate(110.8237 236.7559)">
        <path d="M 0 0 C 0 1.13 -0.854 2.052 -1.996 2.052 C -3.136 2.052 -4.014 1.152 -4.014 0 C -4.014 -1.162 -3.136 -2.074 -1.996 -2.074 C -0.854 -2.074 0 -1.152 0 0 M -5.529 -0.022 C -5.529 2.189 -3.91 3.455 -2.223 3.455 C -1.345 3.455 -0.559 3.089 -0.081 2.521 L -0.081 3.319 L 1.459 3.319 L 1.459 -3.351 L -0.081 -3.351 L -0.081 -2.484 C -0.571 -3.101 -1.369 -3.489 -2.245 -3.489 C -3.853 -3.489 -5.529 -2.201 -5.529 -0.022" style="fill: rgb(20, 23, 23); fill-opacity: 1;"/>
      </g>
    </g>
    <g style="clip-path: url(#clippath0);">
      <g transform="translate(115.5215 233.7344)">
        <path d="M 0 0 L -1.401 -3.409 L 0.159 -3.409 L 4.137 6.339 L 2.519 6.339 L 0.764 1.847 L -1.094 6.339 L -2.738 6.339 Z" style="fill: rgb(20, 23, 23); fill-opacity: 1;"/>
      </g>
    </g>
    <g style="clip-path: url(#clippath0);">
      <g transform="translate(180.9883 250.5015)">
        <path d="M 0 0 L 0 -5.785 L 3.569 -5.785 C 4.361 -5.808 5.126 -5.497 5.676 -4.928 C 6.794 -3.84 6.819 -2.052 5.732 -0.934 C 5.714 -0.915 5.695 -0.896 5.676 -0.878 C 5.133 -0.296 4.365 0.024 3.569 0.001 L 0 0.001 Z M 0 -7.821 L 0 -14.531 L -2.129 -14.531 L -2.129 2.041 L 3.517 2.041 C 4.878 2.069 6.194 1.552 7.173 0.606 C 8.163 -0.285 8.72 -1.56 8.7 -2.892 C 8.729 -4.23 8.171 -5.515 7.173 -6.409 C 6.186 -7.35 4.967 -7.82 3.517 -7.82 L 0 -7.82 Z" style="fill: rgb(79, 95, 101); fill-opacity: 1;"/>
      </g>
    </g>
    <g style="clip-path: url(#clippath0);">
      <g transform="translate(191.8398 239.4409)">
        <path d="M 0 0 C -0.003 -0.55 0.26 -1.067 0.706 -1.388 C 1.177 -1.759 1.761 -1.955 2.36 -1.944 C 3.259 -1.942 4.119 -1.584 4.755 -0.949 C 5.46 -0.286 5.812 0.493 5.812 1.387 C 5.148 1.916 4.223 2.181 3.036 2.181 C 2.171 2.181 1.45 1.972 0.872 1.555 C 0.289 1.132 0 0.618 0 0 M 2.754 8.238 C 4.327 8.238 5.569 7.817 6.48 6.976 C 7.391 6.135 7.846 4.982 7.845 3.517 L 7.845 -3.471 L 5.809 -3.471 L 5.809 -1.897 L 5.716 -1.897 C 4.834 -3.193 3.662 -3.841 2.198 -3.841 C 0.949 -3.841 -0.096 -3.471 -0.937 -2.73 C -1.754 -2.042 -2.217 -1.022 -2.198 0.046 C -2.198 1.22 -1.755 2.153 -0.867 2.846 C 0.02 3.539 1.203 3.886 2.684 3.888 C 3.948 3.888 4.989 3.656 5.808 3.193 L 5.808 3.68 C 5.812 4.408 5.489 5.1 4.928 5.564 C 4.365 6.072 3.631 6.349 2.873 6.34 C 1.684 6.34 0.743 5.839 0.05 4.835 L -1.825 6.016 C -0.794 7.497 0.732 8.238 2.754 8.238" style="fill: rgb(79, 95, 101); fill-opacity: 1;"/>
      </g>
    </g>
    <g style="clip-path: url(#clippath0);">
      <g transform="translate(211.373 247.3086)">
        <path d="M 0 0 L -7.108 -16.337 L -9.306 -16.337 L -6.668 -10.621 L -11.342 0 L -9.028 0 L -5.649 -8.146 L -5.604 -8.146 L -2.317 0 Z" style="fill: rgb(79, 95, 101); fill-opacity: 1;"/>
      </g>
    </g>
    <g style="clip-path: url(#clippath0);">
      <g transform="translate(172.3848 244.127)">
        <path d="M 0 0 C 0.001 0.649 -0.054 1.296 -0.163 1.936 L -9.142 1.936 L -9.142 -1.731 L -3.999 -1.731 C -4.212 -2.914 -4.898 -3.959 -5.9 -4.624 L -5.9 -7.004 L -2.832 -7.004 C -1.035 -5.347 0 -2.897 0 0" style="fill: rgb(62, 129, 197); fill-opacity: 1;"/>
      </g>
    </g>
    <g style="clip-path: url(#clippath0);">
      <g transform="translate(163.2432 234.8237)">
        <path d="M 0 0 C 2.569 0 4.732 0.843 6.31 2.298 L 3.241 4.678 C 2.387 4.099 1.286 3.769 0 3.769 C -2.483 3.769 -4.591 5.442 -5.345 7.698 L -8.506 7.698 L -8.506 5.245 C -6.89 2.03 -3.599 0 0 0" style="fill: rgb(62, 184, 100); fill-opacity: 1;"/>
      </g>
    </g>
    <g style="clip-path: url(#clippath0);">
      <g transform="translate(157.8984 242.522)">
        <path d="M 0 0 C -0.398 1.182 -0.398 2.462 0 3.644 L 0 6.097 L -3.161 6.097 C -4.513 3.407 -4.513 0.237 -3.161 -2.453 Z" style="fill: rgb(255, 184, 60); fill-opacity: 1;"/>
      </g>
    </g>
    <g style="clip-path: url(#clippath0);">
      <g transform="translate(163.2432 250.0957)">
        <path d="M 0 0 C 1.357 0.022 2.67 -0.491 3.652 -1.428 L 6.369 1.289 C 4.646 2.908 2.363 3.796 0 3.769 C -3.599 3.768 -6.89 1.739 -8.506 -1.477 L -5.345 -3.93 C -4.591 -1.674 -2.483 0 0 0" style="fill: rgb(255, 79, 58); fill-opacity: 1;"/>
      </g>
    </g>
    <g style="clip-path: url(#clippath0);">
      <g transform="translate(105.8223 171.9399)">
        <path d="M 0 0 C 0.02 0.343 0.314 0.604 0.657 0.584 C 1 0.564 1.262 0.27 1.241 -0.073 C 1.222 -0.4 0.952 -0.657 0.624 -0.658 C 0.283 -0.665 0.001 -0.394 -0.006 -0.053 C -0.006 -0.035 -0.006 -0.018 -0.004 0 Z M 1.665 0 L 1.665 1.029 L 1.218 1.029 L 1.218 0.779 C 1.063 0.978 0.823 1.089 0.572 1.08 C -0.022 1.08 -0.504 0.599 -0.504 0.004 C -0.504 -0.59 -0.022 -1.071 0.572 -1.071 C 0.823 -1.081 1.063 -0.969 1.218 -0.77 L 1.218 -1.02 L 1.665 -1.02 Z M 16.776 0 C 16.797 0.343 17.091 0.604 17.435 0.584 C 17.777 0.564 18.038 0.27 18.019 -0.073 C 17.999 -0.4 17.729 -0.657 17.4 -0.658 C 17.06 -0.663 16.78 -0.39 16.775 -0.049 C 16.775 -0.032 16.775 -0.016 16.776 0 M 19.144 -0.874 L 19.144 -0.925 L 19.191 -0.925 C 19.199 -0.928 19.208 -0.928 19.217 -0.925 C 19.22 -0.919 19.22 -0.912 19.217 -0.906 C 19.22 -0.9 19.22 -0.893 19.217 -0.886 C 19.208 -0.884 19.199 -0.884 19.191 -0.886 Z M 19.191 -0.837 C 19.211 -0.836 19.23 -0.842 19.247 -0.854 C 19.261 -0.865 19.268 -0.882 19.267 -0.899 C 19.267 -0.914 19.262 -0.928 19.251 -0.938 C 19.239 -0.949 19.223 -0.956 19.206 -0.958 L 19.269 -1.028 L 19.219 -1.028 L 19.161 -0.958 L 19.142 -0.958 L 19.142 -1.028 L 19.101 -1.028 L 19.101 -0.839 Z M 19.178 -1.093 C 19.199 -1.093 19.221 -1.089 19.24 -1.08 C 19.259 -1.072 19.275 -1.06 19.29 -1.045 C 19.346 -0.985 19.346 -0.891 19.29 -0.831 C 19.275 -0.816 19.259 -0.804 19.24 -0.796 C 19.221 -0.788 19.199 -0.783 19.178 -0.783 C 19.156 -0.783 19.136 -0.788 19.115 -0.796 C 19.097 -0.804 19.079 -0.815 19.064 -0.831 C 19.008 -0.891 19.008 -0.985 19.064 -1.045 C 19.079 -1.061 19.097 -1.072 19.115 -1.08 C 19.138 -1.089 19.161 -1.094 19.185 -1.093 Z M 19.178 -0.729 C 19.206 -0.729 19.233 -0.734 19.26 -0.745 C 19.284 -0.754 19.308 -0.769 19.326 -0.788 C 19.346 -0.806 19.36 -0.828 19.372 -0.852 C 19.394 -0.903 19.394 -0.96 19.372 -1.011 C 19.36 -1.035 19.346 -1.057 19.326 -1.076 C 19.308 -1.094 19.284 -1.109 19.26 -1.119 C 19.234 -1.13 19.206 -1.136 19.178 -1.136 C 19.095 -1.135 19.02 -1.087 18.984 -1.011 C 18.963 -0.96 18.963 -0.903 18.984 -0.852 C 18.995 -0.828 19.011 -0.806 19.029 -0.788 C 19.049 -0.769 19.071 -0.754 19.097 -0.745 C 19.124 -0.733 19.154 -0.728 19.185 -0.729 Z M 18.432 0 L 18.432 1.855 L 18.001 1.855 L 18.001 0.779 C 17.847 0.978 17.606 1.089 17.355 1.08 C 16.762 1.08 16.279 0.599 16.279 0.004 C 16.279 -0.59 16.762 -1.071 17.355 -1.071 C 17.606 -1.081 17.847 -0.969 18.001 -0.77 L 18.001 -1.02 L 18.432 -1.02 Z M 7.219 0.68 C 7.5 0.686 7.733 0.463 7.74 0.181 L 7.74 0.181 L 6.664 0.181 C 6.68 0.468 6.923 0.69 7.21 0.68 Z M 7.219 1.08 C 6.625 1.072 6.15 0.583 6.158 -0.011 C 6.167 -0.605 6.655 -1.08 7.249 -1.071 C 7.559 -1.087 7.863 -0.988 8.103 -0.792 L 7.888 -0.46 C 7.718 -0.597 7.508 -0.672 7.29 -0.675 C 6.982 -0.702 6.709 -0.479 6.674 -0.172 L 8.202 -0.172 L 8.202 0 C 8.202 0.646 7.802 1.076 7.225 1.076 Z M 12.62 0.004 C 12.64 0.347 12.935 0.609 13.277 0.588 C 13.62 0.568 13.882 0.274 13.861 -0.069 C 13.842 -0.396 13.571 -0.652 13.244 -0.654 C 12.902 -0.658 12.623 -0.385 12.618 -0.044 C 12.618 -0.028 12.618 -0.012 12.62 0.004 M 14.285 0.004 L 14.285 1.029 L 13.838 1.029 L 13.838 0.779 C 13.684 0.978 13.443 1.089 13.192 1.08 C 12.598 1.08 12.116 0.599 12.116 0.004 C 12.116 -0.59 12.598 -1.071 13.192 -1.071 C 13.443 -1.081 13.684 -0.969 13.838 -0.77 L 13.838 -1.02 L 14.285 -1.02 Z M 10.094 0.004 C 10.072 -0.569 10.521 -1.051 11.094 -1.072 C 11.126 -1.074 11.158 -1.073 11.19 -1.071 C 11.46 -1.085 11.724 -0.998 11.931 -0.826 L 11.716 -0.465 C 11.562 -0.583 11.372 -0.647 11.178 -0.65 C 10.814 -0.62 10.543 -0.302 10.573 0.062 C 10.599 0.385 10.855 0.641 11.178 0.667 C 11.372 0.665 11.562 0.6 11.716 0.482 L 11.931 0.844 C 11.724 1.015 11.46 1.103 11.19 1.089 C 10.618 1.122 10.127 0.683 10.095 0.11 C 10.093 0.078 10.093 0.045 10.094 0.013 Z M 15.86 1.08 C 15.638 1.087 15.43 0.971 15.318 0.779 L 15.318 1.029 L 14.875 1.029 L 14.875 -1.028 L 15.322 -1.028 L 15.322 0.125 C 15.322 0.465 15.469 0.654 15.753 0.654 C 15.849 0.656 15.943 0.638 16.032 0.603 L 16.17 1.033 C 16.067 1.069 15.96 1.088 15.852 1.089 Z M 3.873 0.865 C 3.62 1.016 3.328 1.09 3.034 1.08 C 2.513 1.08 2.173 0.831 2.173 0.422 C 2.173 0.086 2.423 -0.121 2.883 -0.185 L 3.098 -0.215 C 3.344 -0.25 3.46 -0.314 3.46 -0.43 C 3.46 -0.589 3.296 -0.68 2.991 -0.68 C 2.745 -0.687 2.504 -0.611 2.307 -0.465 L 2.091 -0.813 C 2.352 -0.995 2.664 -1.089 2.982 -1.08 C 3.576 -1.08 3.92 -0.8 3.92 -0.409 C 3.92 -0.017 3.649 0.142 3.202 0.207 L 2.986 0.237 C 2.793 0.263 2.638 0.301 2.638 0.439 C 2.638 0.577 2.784 0.68 3.029 0.68 C 3.256 0.677 3.479 0.617 3.675 0.503 Z M 9.644 1.08 C 9.422 1.087 9.214 0.971 9.102 0.779 L 9.102 1.029 L 8.658 1.029 L 8.658 -1.028 L 9.105 -1.028 L 9.105 0.125 C 9.105 0.465 9.252 0.654 9.536 0.654 C 9.632 0.656 9.727 0.638 9.816 0.603 L 9.954 1.033 C 9.852 1.069 9.744 1.088 9.635 1.089 Z M 5.827 1.029 L 5.091 1.029 L 5.091 1.653 L 4.639 1.653 L 4.639 1.029 L 4.23 1.029 L 4.23 0.62 L 4.647 0.62 L 4.647 -0.327 C 4.647 -0.805 4.833 -1.089 5.362 -1.089 C 5.56 -1.089 5.753 -1.034 5.921 -0.929 L 5.792 -0.546 C 5.672 -0.618 5.536 -0.658 5.396 -0.663 C 5.181 -0.663 5.1 -0.525 5.1 -0.318 L 5.1 0.62 L 5.831 0.62 Z M -0.859 -1.028 L -0.859 0.263 C -0.83 0.685 -1.148 1.05 -1.57 1.08 C -1.603 1.082 -1.635 1.082 -1.668 1.08 C -1.958 1.099 -2.234 0.959 -2.391 0.714 C -2.533 0.952 -2.794 1.092 -3.071 1.08 C -3.312 1.092 -3.541 0.976 -3.673 0.775 L -3.673 1.029 L -4.121 1.029 L -4.121 -1.028 L -3.669 -1.028 L -3.669 0.104 C -3.705 0.367 -3.521 0.61 -3.256 0.646 C -3.227 0.65 -3.196 0.651 -3.166 0.65 C -2.869 0.65 -2.718 0.456 -2.718 0.108 L -2.718 -1.037 L -2.266 -1.037 L -2.266 0.104 C -2.301 0.369 -2.114 0.612 -1.849 0.646 C -1.82 0.65 -1.792 0.651 -1.763 0.65 C -1.457 0.65 -1.311 0.456 -1.311 0.108 L -1.311 -1.037 Z" style="fill: rgb(24, 24, 27); fill-opacity: 1;"/>
      </g>
    </g>
    <g style="clip-path: url(#clippath0);">
      <g transform="">
        <path d="M 109.547 188.644 L 116.324 188.644 L 116.324 176.463 L 109.547 176.463 Z" style="fill: rgb(255, 101, 41); fill-opacity: 1;"/>
      </g>
      <g transform="translate(109.9771 182.5522)">
        <path d="M 0 0 C -0.002 2.377 1.088 4.624 2.958 6.092 C -0.405 8.735 -5.275 8.151 -7.918 4.788 C -10.562 1.424 -9.978 -3.446 -6.614 -6.089 C -3.805 -8.297 0.149 -8.297 2.958 -6.089 C 1.089 -4.622 -0.002 -2.376 0 0" style="fill: rgb(255, 50, 37); fill-opacity: 1;"/>
      </g>
      <g transform="translate(125.4697 182.5522)">
        <path d="M 0 0 C 0 -4.278 -3.469 -7.746 -7.747 -7.746 C -9.483 -7.746 -11.169 -7.163 -12.534 -6.089 C -9.17 -3.446 -8.587 1.424 -11.23 4.788 C -11.611 5.272 -12.049 5.71 -12.534 6.092 C -9.171 8.736 -4.301 8.153 -1.657 4.79 C -0.584 3.425 0 1.739 0 0.002 Z" style="fill: rgb(255, 155, 56); fill-opacity: 1;"/>
      </g>
      <g transform="translate(125.2266 177.7539)">
        <path d="M 0 0 L 0 0.301 L -0.078 0.301 L -0.168 0.086 L -0.259 0.301 L -0.327 0.301 L -0.327 0 L -0.271 0 L -0.271 0.226 L -0.187 0.03 L -0.129 0.03 L -0.046 0.226 L -0.046 -0.002 Z M -0.497 0 L -0.497 0.25 L -0.396 0.25 L -0.396 0.301 L -0.652 0.301 L -0.652 0.25 L -0.543 0.25 L -0.543 0 Z" style="fill: rgb(255, 155, 56); fill-opacity: 1;"/>
      </g>
      <g transform="translate(164.4766 171.1152)">
        <path d="M 0 0 L 0 -0.052 L 0.047 -0.052 C 0.056 -0.054 0.064 -0.054 0.072 -0.052 C 0.075 -0.045 0.075 -0.039 0.072 -0.032 C 0.075 -0.026 0.075 -0.019 0.072 -0.013 C 0.064 -0.011 0.056 -0.011 0.047 -0.013 Z M 0.047 0.036 C 0.066 0.037 0.087 0.031 0.103 0.019 C 0.116 0.008 0.123 -0.009 0.122 -0.026 C 0.123 -0.041 0.117 -0.054 0.106 -0.064 C 0.095 -0.076 0.078 -0.083 0.062 -0.084 L 0.124 -0.155 L 0.074 -0.155 L 0.017 -0.084 L -0.003 -0.084 L -0.003 -0.155 L -0.043 -0.155 L -0.043 0.043 Z M 0.034 -0.219 C 0.056 -0.219 0.076 -0.215 0.096 -0.207 C 0.114 -0.198 0.132 -0.187 0.146 -0.172 C 0.207 -0.11 0.207 -0.009 0.145 0.053 C 0.131 0.067 0.114 0.078 0.096 0.086 C 0.076 0.094 0.056 0.099 0.034 0.099 C 0.013 0.099 -0.009 0.094 -0.028 0.086 C -0.048 0.078 -0.065 0.066 -0.08 0.051 C -0.136 -0.009 -0.136 -0.103 -0.08 -0.164 C -0.05 -0.194 -0.009 -0.211 0.034 -0.21 Z M 0.034 0.144 C 0.062 0.144 0.09 0.139 0.115 0.128 C 0.141 0.119 0.163 0.104 0.182 0.086 C 0.201 0.067 0.216 0.045 0.228 0.021 C 0.249 -0.029 0.249 -0.087 0.228 -0.138 C 0.216 -0.162 0.201 -0.184 0.182 -0.202 C 0.163 -0.22 0.141 -0.235 0.115 -0.245 C 0.09 -0.256 0.062 -0.262 0.034 -0.262 C -0.049 -0.262 -0.124 -0.213 -0.159 -0.138 C -0.181 -0.087 -0.181 -0.029 -0.159 0.021 C -0.148 0.045 -0.133 0.067 -0.114 0.086 C -0.095 0.104 -0.072 0.119 -0.048 0.128 C -0.025 0.138 -0.001 0.143 0.023 0.144 Z M -3.054 1.947 C -2.945 1.947 -2.838 1.928 -2.736 1.892 L -2.874 1.462 C -2.962 1.498 -3.058 1.515 -3.152 1.514 C -3.444 1.514 -3.582 1.325 -3.582 0.985 L -3.582 -0.164 L -4.028 -0.164 L -4.028 1.887 L -3.587 1.887 L -3.587 1.638 C -3.475 1.83 -3.268 1.945 -3.045 1.939 Z M -4.598 1.488 L -5.326 1.488 L -5.326 0.562 C -5.326 0.348 -5.253 0.219 -5.029 0.219 C -4.89 0.224 -4.754 0.263 -4.635 0.335 L -4.506 -0.047 C -4.673 -0.152 -4.866 -0.207 -5.063 -0.207 C -5.592 -0.207 -5.776 0.077 -5.776 0.554 L -5.776 1.488 L -6.193 1.488 L -6.193 1.896 L -5.776 1.896 L -5.776 2.519 L -5.326 2.519 L -5.326 1.896 L -4.598 1.896 Z M -6.745 1.372 C -6.941 1.485 -7.163 1.545 -7.39 1.548 C -7.634 1.548 -7.78 1.458 -7.78 1.308 C -7.78 1.157 -7.626 1.131 -7.433 1.105 L -7.218 1.076 C -6.771 1.011 -6.5 0.822 -6.5 0.461 C -6.5 0.101 -6.844 -0.208 -7.435 -0.208 C -7.751 -0.217 -8.062 -0.124 -8.321 0.058 L -8.106 0.406 C -7.909 0.259 -7.669 0.184 -7.424 0.191 C -7.119 0.191 -6.956 0.281 -6.956 0.44 C -6.956 0.556 -7.071 0.621 -7.316 0.655 L -7.531 0.685 C -7.99 0.749 -8.239 0.956 -8.239 1.291 C -8.239 1.698 -7.904 1.947 -7.381 1.947 C -7.088 1.957 -6.798 1.883 -6.546 1.733 Z M -10.15 1.05 C -10.134 1.333 -9.896 1.552 -9.611 1.546 C -9.331 1.552 -9.098 1.329 -9.092 1.048 Z M -8.624 0.87 C -8.624 1.514 -9.023 1.943 -9.597 1.943 C -10.189 1.935 -10.664 1.447 -10.655 0.854 C -10.647 0.262 -10.159 -0.212 -9.566 -0.204 C -9.261 -0.215 -8.962 -0.112 -8.728 0.083 L -8.941 0.414 C -9.111 0.278 -9.321 0.203 -9.539 0.2 C -9.846 0.173 -10.118 0.396 -10.153 0.702 L -8.631 0.702 C -8.624 0.756 -8.624 0.81 -8.624 0.87 M -1.508 1.514 C -1.596 1.515 -1.683 1.499 -1.764 1.466 C -1.84 1.436 -1.909 1.39 -1.968 1.331 C -2.026 1.27 -2.072 1.196 -2.103 1.116 C -2.168 0.945 -2.168 0.755 -2.103 0.584 C -2.072 0.504 -2.026 0.431 -1.968 0.369 C -1.909 0.311 -1.84 0.265 -1.764 0.234 C -1.6 0.17 -1.418 0.17 -1.255 0.234 C -1.174 0.264 -1.102 0.31 -1.04 0.369 C -0.98 0.431 -0.935 0.504 -0.904 0.584 C -0.839 0.755 -0.839 0.945 -0.904 1.116 C -0.935 1.196 -0.98 1.27 -1.04 1.331 C -1.102 1.391 -1.174 1.437 -1.255 1.466 C -1.336 1.503 -1.423 1.524 -1.512 1.526 Z M -1.508 1.943 C -1.36 1.943 -1.215 1.916 -1.078 1.861 C -0.948 1.809 -0.829 1.732 -0.729 1.634 C -0.629 1.537 -0.55 1.42 -0.496 1.292 C -0.385 1.017 -0.385 0.709 -0.496 0.434 C -0.55 0.305 -0.629 0.189 -0.729 0.092 C -0.829 -0.006 -0.948 -0.083 -1.078 -0.135 C -1.361 -0.246 -1.676 -0.246 -1.959 -0.135 C -2.089 -0.083 -2.207 -0.006 -2.307 0.092 C -2.405 0.189 -2.483 0.306 -2.536 0.434 C -2.648 0.709 -2.648 1.017 -2.536 1.292 C -2.483 1.42 -2.405 1.537 -2.307 1.634 C -2.207 1.732 -2.089 1.81 -1.959 1.861 C -1.817 1.92 -1.665 1.95 -1.512 1.95 Z M -12.71 0.87 C -12.69 1.211 -12.396 1.473 -12.055 1.453 C -11.712 1.432 -11.451 1.139 -11.472 0.796 C -11.49 0.47 -11.761 0.214 -12.088 0.212 C -12.427 0.205 -12.708 0.473 -12.716 0.812 C -12.717 0.831 -12.716 0.85 -12.715 0.87 Z M -11.051 0.87 L -11.051 1.894 L -11.501 1.894 L -11.501 1.645 C -11.655 1.843 -11.895 1.955 -12.146 1.945 C -12.738 1.945 -13.219 1.464 -13.219 0.872 C -13.219 0.279 -12.738 -0.202 -12.146 -0.202 C -11.895 -0.211 -11.655 -0.1 -11.501 0.099 L -11.501 -0.15 L -11.055 -0.15 Z M -13.563 -0.155 L -13.563 1.134 C -13.533 1.554 -13.851 1.917 -14.271 1.947 C -14.303 1.949 -14.336 1.949 -14.368 1.947 C -14.657 1.966 -14.934 1.827 -15.09 1.583 C -15.231 1.819 -15.492 1.959 -15.769 1.947 C -16.009 1.959 -16.237 1.844 -16.369 1.643 L -16.369 1.896 L -16.816 1.896 L -16.816 -0.155 L -16.365 -0.155 L -16.365 0.981 C -16.402 1.243 -16.22 1.485 -15.958 1.522 C -15.927 1.527 -15.895 1.528 -15.862 1.526 C -15.566 1.526 -15.416 1.333 -15.416 0.985 L -15.416 -0.155 L -14.965 -0.155 L -14.965 0.981 C -15 1.246 -14.813 1.488 -14.549 1.523 C -14.521 1.527 -14.491 1.528 -14.463 1.526 C -14.157 1.526 -14.012 1.333 -14.012 0.985 L -14.012 -0.155 Z" style="fill: rgb(2, 4, 7); fill-opacity: 1;"/>
      </g>
      <g transform="">
        <path d="M 152.471 188.656 L 159.235 188.656 L 159.235 176.5 L 152.471 176.5 Z" style="fill: rgb(93, 117, 189); fill-opacity: 1;"/>
      </g>
      <g transform="translate(152.9004 182.5771)">
        <path d="M 0 0 C -0.003 2.373 1.086 4.614 2.952 6.079 C -0.404 8.717 -5.265 8.135 -7.902 4.778 C -10.54 1.421 -9.958 -3.438 -6.601 -6.077 C -3.798 -8.28 0.148 -8.28 2.952 -6.077 C 1.087 -4.612 -0.002 -2.372 0 0" style="fill: rgb(255, 50, 37); fill-opacity: 1;"/>
      </g>
      <g transform="translate(168.1182 177.7891)">
        <path d="M 0 0 L 0 0.3 L -0.077 0.3 L -0.168 0.085 L -0.258 0.3 L -0.337 0.3 L -0.337 0 L -0.281 0 L -0.281 0.225 L -0.198 0.03 L -0.14 0.03 L -0.056 0.225 L -0.056 -0.002 Z M -0.496 0 L -0.496 0.24 L -0.396 0.24 L -0.396 0.292 L -0.65 0.292 L -0.65 0.24 L -0.55 0.24 L -0.55 -0.009 Z" style="fill: rgb(46, 173, 225); fill-opacity: 1;"/>
      </g>
      <g transform="translate(168.3584 182.5771)">
        <path d="M 0 0 C -0.001 -4.269 -3.463 -7.729 -7.732 -7.728 C -9.464 -7.728 -11.145 -7.146 -12.506 -6.077 C -9.149 -3.438 -8.566 1.421 -11.204 4.778 C -11.585 5.262 -12.021 5.699 -12.506 6.079 C -9.149 8.718 -4.29 8.136 -1.651 4.78 C -0.58 3.417 0.002 1.735 0.002 0.002 Z" style="fill: rgb(46, 173, 225); fill-opacity: 1;"/>
      </g>
      <g transform="">
        <path d="M 208.284 190.915 L 189.255 190.915 L 189.255 170.298 L 208.284 170.298 Z" style="fill: rgb(17, 56, 124); fill-opacity: 1;"/>
        <path d="M 207.809 177.526 L 189.731 177.526 L 189.731 190.438 L 207.809 190.438 Z" style="fill: rgb(255, 255, 255); fill-opacity: 1;"/>
      </g>
      <g transform="translate(203.3418 188.0942)">
        <path d="M 0 0 L -3.547 -8.467 L -5.864 -8.467 L -7.609 -1.708 C -7.715 -1.293 -7.808 -1.141 -8.129 -0.963 C -8.658 -0.68 -9.527 -0.411 -10.291 -0.244 L -10.24 0 L -6.514 0 C -6.038 0 -5.61 -0.315 -5.503 -0.861 L -4.579 -5.76 L -2.301 0 L 0 0" style="fill: rgb(17, 56, 124); fill-opacity: 1;"/>
      </g>
      <g transform="translate(194.0859 176.0503)">
        <path d="M 0 0 C 0.246 0.047 0.589 0.082 1.054 0.082 C 1.558 0.082 1.926 -0.029 2.167 -0.24 C 2.391 -0.432 2.536 -0.741 2.536 -1.11 C 2.536 -1.483 2.424 -1.792 2.211 -2.003 C 1.937 -2.289 1.506 -2.423 1.019 -2.423 C 0.892 -2.423 0.772 -2.416 0.683 -2.399 L 0.683 -3.883 L 0 -3.883 Z M 0.683 -1.833 C 0.767 -1.857 0.879 -1.864 1.019 -1.864 C 1.534 -1.864 1.849 -1.599 1.849 -1.138 C 1.849 -0.701 1.558 -0.467 1.08 -0.467 C 0.892 -0.467 0.756 -0.485 0.683 -0.503 Z" style="fill: rgb(255, 255, 255); fill-opacity: 1;"/>
      </g>
      <g transform="translate(198.1338 173.2827)">
        <path d="M 0 0 L -0.325 -1.116 L -1.035 -1.116 L 0.173 2.82 L 1.053 2.82 L 2.279 -1.116 L 1.54 -1.116 L 1.197 0 Z M 1.08 0.542 L 0.784 1.512 C 0.71 1.751 0.649 2.02 0.593 2.248 L 0.582 2.248 C 0.526 2.02 0.47 1.744 0.403 1.512 L 0.112 0.542 Z" style="fill: rgb(255, 255, 255); fill-opacity: 1;"/>
      </g>
      <g transform="translate(201.8623 172.167)">
        <path d="M 0 0 L 0 1.642 L -1.192 3.936 L -0.41 3.936 L 0.044 2.926 C 0.173 2.633 0.267 2.413 0.369 2.143 L 0.379 2.143 C 0.475 2.395 0.583 2.64 0.71 2.926 L 1.164 3.936 L 1.942 3.936 L 0.687 1.658 L 0.687 0 Z" style="fill: rgb(255, 255, 255); fill-opacity: 1;"/>
      </g>
    </g>
    <g style="clip-path: url(#clippath2);">
      <g transform="">
        <path d="M 53.791 190.915 L 86.247 190.915 L 86.247 170.298 L 53.791 170.298 Z" style="fill: rgb(255, 255, 255); fill-opacity: 1;"/>
        <path d="M 54.332 173.648 L 85.706 173.648 L 85.706 170.835 L 54.332 170.835 Z" style="fill: rgb(255, 175, 61); fill-opacity: 1;"/>
        <path d="M 54.332 190.374 L 85.706 190.374 L 85.706 187.561 L 54.332 187.561 Z" style="fill: rgb(16, 60, 128); fill-opacity: 1;"/>
      </g>
      <g transform="translate(69.3945 185.021)">
        <path d="M 0 0 L -1.572 -7.35 L -3.474 -7.35 L -1.901 0 Z M 8 -4.746 L 9.001 -1.986 L 9.576 -4.746 Z M 10.123 -7.35 L 11.881 -7.35 L 10.345 0 L 8.723 0 C 8.356 0 8.049 -0.212 7.913 -0.539 L 5.06 -7.35 L 7.057 -7.35 L 7.452 -6.252 L 9.892 -6.252 Z M 5.159 -4.95 C 5.167 -3.011 2.477 -2.903 2.494 -2.037 C 2.501 -1.773 2.752 -1.493 3.301 -1.421 C 3.573 -1.386 4.325 -1.357 5.176 -1.75 L 5.51 -0.19 C 5.052 -0.025 4.463 0.134 3.731 0.134 C 1.851 0.134 0.529 -0.864 0.518 -2.295 C 0.506 -3.354 1.463 -3.943 2.182 -4.296 C 2.923 -4.656 3.172 -4.887 3.168 -5.209 C 3.163 -5.702 2.577 -5.92 2.031 -5.929 C 1.075 -5.944 0.521 -5.67 0.078 -5.464 L -0.267 -7.075 C 0.178 -7.279 0.998 -7.457 1.847 -7.465 C 3.846 -7.465 5.153 -6.479 5.159 -4.95 M -2.717 0 L -5.798 -7.35 L -7.808 -7.35 L -9.324 -1.484 C -9.417 -1.124 -9.496 -0.991 -9.776 -0.838 C -10.233 -0.59 -10.988 -0.358 -11.652 -0.213 L -11.607 0 L -8.371 0 C -7.959 0 -7.588 -0.274 -7.494 -0.749 L -6.693 -5.002 L -4.715 0 Z" style="fill: rgb(16, 60, 128); fill-opacity: 1;"/>
      </g>
      <g transform="translate(71.8286 175.6479)">
        <path d="M 0 0 L -0.773 0 L -0.773 -0.719 L 0.091 -0.719 L 0.091 -0.936 L -1.033 -0.936 L -1.033 1.06 L 0.047 1.06 L 0.047 0.843 L -0.773 0.843 L -0.773 0.213 L 0 0.213 Z" style="fill: rgb(16, 60, 128); fill-opacity: 1;"/>
      </g>
      <g transform="">
        <path d="M 72.319 176.814 L 72.579 176.814 L 72.579 174.712 L 72.319 174.712 Z" style="fill: rgb(16, 60, 128); fill-opacity: 1;"/>
      </g>
      <g transform="translate(74 175.5679)">
        <path d="M 0 0 C 0.003 0.163 -0.068 0.42 -0.361 0.42 C -0.627 0.42 -0.74 0.181 -0.76 0 Z M -0.764 -0.187 C -0.758 -0.539 -0.536 -0.684 -0.272 -0.684 C -0.085 -0.684 0.03 -0.651 0.125 -0.609 L 0.172 -0.796 C 0.08 -0.837 -0.08 -0.888 -0.308 -0.888 C -0.749 -0.888 -1.012 -0.595 -1.012 -0.163 C -1.012 0.27 -0.758 0.607 -0.34 0.607 C 0.13 0.607 0.252 0.198 0.252 -0.065 C 0.252 -0.118 0.249 -0.157 0.243 -0.187 Z" style="fill: rgb(16, 60, 128); fill-opacity: 1;"/>
      </g>
      <g transform="translate(75.6689 174.7627)">
        <path d="M 0 0 C -0.068 -0.032 -0.219 -0.083 -0.412 -0.083 C -0.844 -0.083 -1.125 0.21 -1.125 0.648 C -1.125 1.089 -0.823 1.412 -0.355 1.412 C -0.201 1.412 -0.065 1.374 0.006 1.335 L -0.053 1.137 C -0.115 1.169 -0.213 1.205 -0.355 1.205 C -0.684 1.205 -0.861 0.959 -0.861 0.663 C -0.861 0.332 -0.648 0.127 -0.364 0.127 C -0.216 0.127 -0.119 0.163 -0.044 0.196 Z" style="fill: rgb(16, 60, 128); fill-opacity: 1;"/>
      </g>
      <g transform="translate(76.3994 176.4883)">
        <path d="M 0 0 L 0 -0.343 L 0.373 -0.343 L 0.373 -0.542 L 0 -0.542 L 0 -1.314 C 0 -1.492 0.05 -1.592 0.195 -1.592 C 0.267 -1.592 0.308 -1.586 0.347 -1.574 L 0.358 -1.773 C 0.308 -1.791 0.228 -1.808 0.127 -1.808 C 0.006 -1.808 -0.092 -1.767 -0.154 -1.699 C -0.225 -1.619 -0.254 -1.492 -0.254 -1.323 L -0.254 -0.542 L -0.477 -0.542 L -0.477 -0.343 L -0.254 -0.343 L -0.254 -0.077 Z" style="fill: rgb(16, 60, 128); fill-opacity: 1;"/>
      </g>
      <g transform="translate(77.1362 175.6982)">
        <path d="M 0 0 C 0 0.168 -0.003 0.313 -0.012 0.447 L 0.216 0.447 L 0.228 0.163 L 0.237 0.163 C 0.302 0.355 0.461 0.477 0.636 0.477 C 0.663 0.477 0.684 0.474 0.708 0.471 L 0.708 0.225 C 0.681 0.231 0.654 0.231 0.618 0.231 C 0.435 0.231 0.305 0.095 0.269 -0.101 C 0.263 -0.136 0.26 -0.181 0.26 -0.222 L 0.26 -0.986 L 0 -0.986 Z" style="fill: rgb(16, 60, 128); fill-opacity: 1;"/>
      </g>
      <g transform="translate(78.311 175.4258)">
        <path d="M 0 0 C 0 -0.313 0.177 -0.55 0.432 -0.55 C 0.681 -0.55 0.867 -0.317 0.867 0.006 C 0.867 0.249 0.746 0.554 0.438 0.554 C 0.133 0.554 0 0.27 0 0 M 1.133 0.015 C 1.133 -0.515 0.764 -0.746 0.42 -0.746 C 0.035 -0.746 -0.267 -0.461 -0.267 -0.009 C -0.267 0.468 0.05 0.749 0.444 0.749 C 0.855 0.749 1.133 0.45 1.133 0.015" style="fill: rgb(16, 60, 128); fill-opacity: 1;"/>
      </g>
      <g transform="translate(79.8438 175.7573)">
        <path d="M 0 0 C 0 0.151 -0.003 0.269 -0.012 0.388 L 0.219 0.388 L 0.233 0.151 L 0.239 0.151 C 0.311 0.284 0.477 0.417 0.713 0.417 C 0.911 0.417 1.219 0.299 1.219 -0.192 L 1.219 -1.045 L 0.959 -1.045 L 0.959 -0.219 C 0.959 0.012 0.873 0.205 0.627 0.205 C 0.458 0.205 0.325 0.083 0.278 -0.062 C 0.266 -0.095 0.26 -0.139 0.26 -0.184 L 0.26 -1.045 L 0 -1.045 Z" style="fill: rgb(16, 60, 128); fill-opacity: 1;"/>
      </g>
    </g>
    <g style="clip-path: url(#clippath8);">
      <g transform="">
        <path d="M 10.769 190.981 L 43.436 190.981 L 43.436 170.23 L 10.769 170.23 Z" style="fill: rgb(255, 255, 255); fill-opacity: 1;"/>
        <path d="M 11.313 173.603 L 42.891 173.603 L 42.891 170.771 L 11.313 170.771 Z" style="fill: rgb(255, 175, 61); fill-opacity: 1;"/>
        <path d="M 11.313 190.437 L 42.891 190.437 L 42.891 187.606 L 11.313 187.606 Z" style="fill: rgb(16, 60, 128); fill-opacity: 1;"/>
      </g>
      <g transform="translate(26.8291 184.4868)">
        <path d="M 0 0 L -1.665 -7.782 L -3.678 -7.782 L -2.013 0 Z M 8.47 -5.024 L 9.53 -2.103 L 10.14 -5.024 Z M 10.717 -7.782 L 12.579 -7.782 L 10.952 0 L 9.235 0 C 8.848 0 8.522 -0.224 8.377 -0.57 L 5.356 -7.782 L 7.471 -7.782 L 7.891 -6.62 L 10.473 -6.62 Z M 5.461 -5.241 C 5.47 -3.188 2.623 -3.074 2.642 -2.156 C 2.647 -1.877 2.914 -1.58 3.495 -1.504 C 3.783 -1.467 4.579 -1.437 5.481 -1.853 L 5.833 -0.202 C 5.349 -0.026 4.726 0.142 3.95 0.142 C 1.96 0.142 0.56 -0.915 0.549 -2.43 C 0.536 -3.55 1.549 -4.175 2.311 -4.548 C 3.096 -4.929 3.358 -5.174 3.355 -5.515 C 3.35 -6.037 2.729 -6.268 2.151 -6.277 C 1.138 -6.292 0.551 -6.003 0.083 -5.785 L -0.282 -7.491 C 0.189 -7.707 1.057 -7.894 1.956 -7.904 C 4.072 -7.904 5.456 -6.859 5.461 -5.241 M -2.876 0 L -6.139 -7.782 L -8.267 -7.782 L -9.872 -1.571 C -9.969 -1.189 -10.054 -1.049 -10.35 -0.888 C -10.834 -0.625 -11.633 -0.379 -12.336 -0.226 L -12.289 0 L -8.863 0 C -8.426 0 -8.034 -0.29 -7.934 -0.793 L -7.086 -5.296 L -4.992 0 Z" style="fill: rgb(16, 60, 128); fill-opacity: 1;"/>
      </g>
      <g transform="translate(108.7256 280.0854)">
        <path d="M 0 0 C 7.001 0 14.3 2.061 19.801 7.223 C 20.285 7.678 20.568 7.92 20.851 8.087 C 21.112 8.242 21.372 8.333 21.788 8.472 L 22.722 8.803 C 23.692 6.975 25.13 5.922 27.566 5.437 L 27.7 6.183 L 27.157 6.316 C 25.226 6.794 24.004 7.812 23.279 9.664 C 22.868 10.718 22.421 11.572 21.979 12.152 C 21.864 12.303 21.457 12.685 20.766 13.283 C 20.794 13.275 13.767 19.041 13.746 19.062 C 12.814 19.905 12.741 20.198 12.741 20.59 C 12.741 21.299 13.628 22.222 14.614 21.847 C 14.789 21.781 16.974 20.653 19.509 19.249 C 22.044 17.846 24.147 16.698 24.181 16.698 C 24.216 16.698 24.315 16.843 24.4 17.021 L 24.557 17.344 L 22.059 18.723 C 20.684 19.481 19.606 20.066 19.354 20.233 L 19.718 21.824 C 20.595 21.91 22.978 22.08 24.11 21.738 C 25.35 21.319 26.021 20.375 27.566 18.197 C 28.442 16.964 32.47 10.759 33.674 8.891 C 33.813 8.674 33.923 8.558 34.135 8.558 C 34.477 8.558 34.588 8.938 34.375 9.248 C 34.066 9.695 29.376 16.841 28.236 18.587 C 27.354 19.913 25.837 22.513 23.421 22.726 C 19.422 31.243 9.041 35.006 -0.274 35.006 C -12.875 35.006 -25.163 28.093 -25.163 17.503 C -25.163 7.001 -13.052 0 0 0 M -10.85 12.684 C -10.339 12.684 -9.939 12.934 -9.531 13.558 C -8.774 14.712 -8.395 16.104 -8.395 17.497 C -8.395 18.821 -8.777 20.153 -9.498 21.34 C -9.958 22.096 -10.359 22.302 -10.81 22.302 C -11.509 22.302 -12.002 21.741 -12.002 21.094 C -12.001 20.754 -11.695 20.225 -11.586 20.048 C -11.033 19.151 -10.904 18.669 -10.904 17.497 C -10.904 16.324 -11.033 15.843 -11.586 14.946 C -11.908 14.425 -12.011 14.127 -12.011 13.854 C -12.011 13.197 -11.466 12.684 -10.85 12.684 M -6.408 10.457 C -5.713 10.457 -5.335 11.07 -4.989 11.761 C -3.928 13.879 -3.58 15.333 -3.577 17.497 C -3.574 19.509 -3.947 21.161 -4.861 23.013 C -5.457 24.218 -5.802 24.504 -6.467 24.504 C -7.25 24.504 -7.629 23.81 -7.629 23.429 C -7.629 23.077 -7.547 22.799 -7.147 22.087 C -6.312 20.605 -6.004 19.013 -6.004 17.497 C -6.004 15.941 -6.357 14.423 -7.199 12.832 C -7.573 12.124 -7.632 11.906 -7.632 11.605 C -7.632 11.033 -7.148 10.457 -6.408 10.457 M -0.186 1.006 C -12.607 1.006 -24.098 7.745 -24.108 17.574 C -24.098 27.479 -12.341 33.955 -0.217 33.941 C 9.174 33.955 18.446 30.017 22.284 22.745 C 21.456 22.723 20.667 22.683 19.923 22.623 L 20.089 23.455 C 20.203 24.02 19.967 24.604 19.32 24.754 C 18.9 24.853 12.07 26.081 11.5 26.158 C 10.775 26.255 10.185 25.781 10.036 25.185 C 9.517 23.104 8.959 20.577 8.536 18.378 C 8.423 17.782 8.738 17.339 9.389 17.187 C 9.896 17.069 11.007 16.853 12.383 16.619 L 14.862 16.197 C 14.031 15.142 14.135 14.26 15.409 13.316 L 16.185 12.734 L 15.741 12.251 C 15.386 11.858 15.208 11.333 15.341 10.764 C 15.475 10.151 15.963 9.802 16.628 9.496 L 19.422 8.182 C 13.7 2.581 5.804 1.006 -0.186 1.006 M -1.833 8.127 C -1.135 8.127 -0.671 8.762 -0.145 9.941 C 1.111 12.745 1.596 15.142 1.596 17.497 C 1.596 20.73 0.663 23.436 -0.388 25.469 C -0.797 26.259 -1.066 26.841 -1.862 26.841 C -2.621 26.841 -3.089 26.23 -3.089 25.783 C -3.089 25.48 -2.916 25.082 -2.526 24.296 C -1.415 22.056 -0.86 19.856 -0.86 17.497 C -0.86 15.197 -1.396 12.968 -2.442 10.866 C -2.749 10.246 -3.064 9.749 -3.068 9.302 C -3.072 8.687 -2.563 8.127 -1.833 8.127 M 2.704 5.778 C 3.547 5.778 3.875 6.562 4.228 7.284 C 5.799 10.487 6.719 13.836 6.719 17.497 C 6.719 21.04 5.986 24.341 4.247 27.708 C 3.673 28.821 3.437 29.188 2.69 29.188 C 2.045 29.188 1.513 28.655 1.513 28.028 C 1.513 27.573 1.82 27.094 2.055 26.624 C 3.617 23.483 4.246 20.864 4.246 17.497 C 4.246 14.014 3.534 11.165 2.027 8.308 C 1.731 7.745 1.519 7.343 1.514 6.953 C 1.503 6.258 2.121 5.778 2.704 5.778 M 20.233 8.883 C 19.467 8.882 16.805 10.239 16.406 10.501 C 16.14 10.676 15.918 11.202 16.308 11.703 L 16.814 12.247 L 17.613 11.658 C 18.578 10.958 19.183 10.678 19.933 10.678 C 20.174 10.678 20.887 10.779 21.17 10.822 C 21.604 10.889 21.773 10.92 21.929 10.511 L 22.322 9.53 C 21.197 9.102 20.576 8.882 20.233 8.883 M 20.047 11.43 C 19.56 11.43 19.138 11.599 18.404 12.094 C 17.719 12.558 15.68 14.131 15.375 14.458 C 15.179 14.668 15.136 14.837 15.136 14.999 C 15.136 15.221 15.258 15.433 15.539 15.729 C 15.797 16.002 16.057 16.052 16.376 15.868 C 16.547 15.769 21.308 11.974 21.308 11.767 C 21.308 11.573 20.361 11.43 20.047 11.43 M 14.935 16.977 C 14.935 16.977 10.69 17.711 9.648 17.96 C 9.421 18.014 9.308 18.192 9.344 18.439 C 9.518 19.633 10.055 22.073 10.793 25.006 C 10.853 25.246 11.146 25.435 11.427 25.382 C 12.063 25.266 18.444 24.222 18.807 24.104 C 19.121 24 19.298 23.805 19.208 23.371 L 18.634 20.581 C 16.549 21.763 15.546 22.303 14.922 22.583 C 13.489 23.224 11.979 21.943 11.979 20.568 C 11.979 19.702 12.304 19.199 13.242 18.437 C 14.433 17.471 14.747 17.143 14.935 16.977" style="fill: rgb(39, 44, 46); fill-opacity: 1;"/>
      </g>
    </g>
  </g>
</svg>