<?xml version="1.0" encoding="UTF-8" standalone="no"?>
<!DOCTYPE svg PUBLIC "-//W3C//DTD SVG 1.1//EN" "http://www.w3.org/Graphics/SVG/1.1/DTD/svg11.dtd">
<svg viewBox="0 0 1240 526" version="1.1" xmlns="http://www.w3.org/2000/svg" xmlns:xlink="http://www.w3.org/1999/xlink" xml:space="preserve" style="fill-rule:evenodd;clip-rule:evenodd;stroke-linejoin:round;stroke-miterlimit:2;">
    <g>
        <g transform="matrix(179.167,0,0,179.167,233.975,150.679)">
            <path d="M0.647,-0.041C0.646,-0.035 0.645,-0.021 0.643,0.002C0.642,0.014 0.64,0.023 0.635,0.029C0.632,0.031 0.626,0.032 0.618,0.032C0.596,0.032 0.569,0.026 0.536,0.015C0.501,0.004 0.477,-0.008 0.464,-0.023C0.459,-0.029 0.453,-0.049 0.448,-0.083C0.441,-0.128 0.432,-0.165 0.423,-0.194C0.398,-0.191 0.361,-0.182 0.312,-0.167C0.263,-0.152 0.232,-0.139 0.217,-0.129C0.207,-0.1 0.194,-0.065 0.177,-0.023C0.175,-0.014 0.173,-0.005 0.171,0.004C0.168,0.012 0.162,0.019 0.153,0.024C0.151,0.025 0.148,0.026 0.144,0.026C0.128,0.026 0.101,0.018 0.064,0.001C0.026,-0.016 0.006,-0.027 0.005,-0.032C0.002,-0.041 0.009,-0.064 0.024,-0.101C0.045,-0.154 0.058,-0.187 0.061,-0.199C0.047,-0.213 0.04,-0.227 0.04,-0.241C0.04,-0.244 0.04,-0.248 0.041,-0.252C0.042,-0.26 0.063,-0.274 0.102,-0.295L0.231,-0.736C0.233,-0.744 0.233,-0.759 0.232,-0.78C0.231,-0.798 0.233,-0.809 0.238,-0.814C0.241,-0.817 0.249,-0.819 0.262,-0.819C0.293,-0.819 0.338,-0.811 0.396,-0.795C0.454,-0.779 0.489,-0.765 0.5,-0.752C0.504,-0.678 0.519,-0.567 0.545,-0.419C0.578,-0.236 0.612,-0.11 0.647,-0.041ZM0.386,-0.345C0.377,-0.387 0.372,-0.415 0.37,-0.428C0.363,-0.473 0.358,-0.519 0.355,-0.567C0.342,-0.534 0.326,-0.489 0.308,-0.431C0.289,-0.37 0.278,-0.332 0.277,-0.317C0.29,-0.322 0.326,-0.332 0.386,-0.345Z" style="fill-rule:nonzero;"/>
        </g>
        <g transform="matrix(179.167,0,0,179.167,352.225,150.679)">
            <path d="M0.396,-0.523C0.399,-0.512 0.395,-0.504 0.385,-0.497C0.377,-0.493 0.369,-0.489 0.362,-0.484C0.32,-0.42 0.263,-0.334 0.191,-0.225C0.191,-0.119 0.191,-0.064 0.192,-0.061C0.193,-0.058 0.195,-0.049 0.2,-0.036C0.204,-0.022 0.206,-0.011 0.206,-0.003C0.206,0.01 0.2,0.018 0.189,0.023C0.182,0.026 0.172,0.028 0.159,0.028C0.134,0.028 0.106,0.022 0.075,0.011C0.036,-0.002 0.017,-0.019 0.017,-0.04C0.017,-0.046 0.02,-0.056 0.025,-0.069C0.03,-0.082 0.033,-0.093 0.033,-0.102L0.033,-0.498C0.026,-0.535 0.022,-0.555 0.022,-0.556C0.022,-0.577 0.031,-0.59 0.05,-0.595C0.058,-0.597 0.068,-0.598 0.079,-0.598C0.102,-0.598 0.127,-0.594 0.153,-0.587C0.178,-0.579 0.193,-0.571 0.198,-0.562C0.199,-0.559 0.2,-0.556 0.2,-0.552C0.2,-0.549 0.195,-0.533 0.186,-0.504L0.186,-0.456C0.202,-0.485 0.218,-0.513 0.233,-0.542C0.254,-0.578 0.269,-0.597 0.279,-0.599C0.294,-0.602 0.316,-0.593 0.346,-0.573C0.376,-0.553 0.393,-0.536 0.396,-0.523Z" style="fill-rule:nonzero;"/>
        </g>
        <g transform="matrix(179.167,0,0,179.167,423.891,150.679)">
            <path d="M0.389,-0.092C0.389,-0.055 0.377,-0.026 0.353,-0.004C0.328,0.018 0.294,0.029 0.25,0.03C0.239,0.03 0.228,0.028 0.215,0.025C0.192,0.019 0.18,0.016 0.179,0.015C0.167,0.012 0.155,0.01 0.143,0.007C0.13,0.004 0.12,-0.002 0.111,-0.009C0.096,-0.022 0.082,-0.041 0.068,-0.064C0.057,-0.083 0.046,-0.102 0.035,-0.121C0.024,-0.14 0.019,-0.152 0.019,-0.156C0.019,-0.165 0.026,-0.172 0.039,-0.177C0.042,-0.178 0.048,-0.179 0.057,-0.179C0.077,-0.179 0.102,-0.177 0.133,-0.173C0.163,-0.168 0.179,-0.165 0.182,-0.162C0.185,-0.159 0.188,-0.139 0.193,-0.104C0.197,-0.073 0.204,-0.058 0.214,-0.058C0.229,-0.058 0.237,-0.079 0.237,-0.12C0.237,-0.173 0.223,-0.206 0.195,-0.219C0.131,-0.249 0.089,-0.276 0.069,-0.299C0.044,-0.328 0.032,-0.371 0.032,-0.429C0.032,-0.467 0.042,-0.503 0.062,-0.537C0.082,-0.57 0.106,-0.59 0.133,-0.597C0.145,-0.6 0.184,-0.587 0.249,-0.559C0.255,-0.557 0.273,-0.553 0.302,-0.548C0.323,-0.544 0.337,-0.537 0.346,-0.527C0.359,-0.512 0.366,-0.487 0.368,-0.454C0.369,-0.429 0.369,-0.405 0.369,-0.38C0.374,-0.357 0.376,-0.344 0.376,-0.34C0.376,-0.321 0.367,-0.311 0.349,-0.308C0.34,-0.307 0.321,-0.31 0.294,-0.319C0.264,-0.329 0.245,-0.339 0.237,-0.35C0.235,-0.353 0.233,-0.378 0.231,-0.425C0.229,-0.47 0.224,-0.492 0.217,-0.492C0.207,-0.492 0.198,-0.479 0.189,-0.453C0.18,-0.427 0.176,-0.4 0.176,-0.372C0.176,-0.337 0.184,-0.314 0.199,-0.305C0.232,-0.287 0.264,-0.269 0.297,-0.251C0.329,-0.232 0.351,-0.213 0.364,-0.194C0.381,-0.169 0.389,-0.135 0.389,-0.092Z" style="fill-rule:nonzero;"/>
        </g>
        <g transform="matrix(179.167,0,0,179.167,497.35,150.679)">
            <path d="M0.442,-0.188C0.442,-0.175 0.431,-0.158 0.409,-0.137C0.391,-0.098 0.375,-0.069 0.361,-0.052C0.33,-0.012 0.293,0.012 0.248,0.019C0.239,0.02 0.23,0.021 0.221,0.021C0.184,0.021 0.138,0.003 0.083,-0.033C0.036,-0.065 0.012,-0.139 0.012,-0.254C0.012,-0.339 0.025,-0.417 0.051,-0.486C0.08,-0.561 0.115,-0.6 0.156,-0.603C0.189,-0.605 0.229,-0.596 0.276,-0.577C0.323,-0.558 0.355,-0.536 0.372,-0.513C0.386,-0.494 0.393,-0.468 0.393,-0.436C0.393,-0.427 0.392,-0.415 0.391,-0.399C0.39,-0.382 0.389,-0.371 0.39,-0.364C0.391,-0.346 0.392,-0.338 0.392,-0.339C0.392,-0.318 0.382,-0.307 0.361,-0.308C0.337,-0.309 0.314,-0.312 0.293,-0.319C0.264,-0.329 0.247,-0.343 0.241,-0.36C0.239,-0.366 0.242,-0.374 0.25,-0.384C0.257,-0.394 0.26,-0.402 0.259,-0.409C0.26,-0.414 0.261,-0.425 0.261,-0.444C0.261,-0.484 0.254,-0.505 0.24,-0.506C0.219,-0.507 0.201,-0.475 0.186,-0.409C0.173,-0.35 0.166,-0.286 0.166,-0.217C0.166,-0.135 0.176,-0.092 0.195,-0.087C0.21,-0.084 0.23,-0.1 0.255,-0.137C0.276,-0.168 0.287,-0.19 0.289,-0.201C0.29,-0.212 0.292,-0.223 0.293,-0.234C0.298,-0.253 0.31,-0.261 0.329,-0.26C0.341,-0.259 0.362,-0.251 0.392,-0.237C0.422,-0.223 0.438,-0.213 0.44,-0.206C0.441,-0.199 0.442,-0.193 0.442,-0.188Z" style="fill-rule:nonzero;"/>
        </g>
        <g transform="matrix(179.167,0,0,179.167,577.975,150.679)">
            <path d="M0.479,-0.015C0.476,0.004 0.468,0.017 0.457,0.022C0.452,0.024 0.444,0.025 0.432,0.025C0.409,0.025 0.382,0.022 0.351,0.015C0.32,0.008 0.301,0.001 0.294,-0.006C0.291,-0.009 0.29,-0.013 0.29,-0.018C0.29,-0.023 0.293,-0.033 0.299,-0.048C0.303,-0.053 0.307,-0.059 0.312,-0.066C0.317,-0.072 0.319,-0.08 0.319,-0.09C0.32,-0.353 0.318,-0.485 0.313,-0.487C0.303,-0.49 0.28,-0.466 0.244,-0.414C0.205,-0.359 0.186,-0.314 0.186,-0.281L0.186,-0.059C0.197,-0.048 0.2,-0.034 0.197,-0.017C0.193,0.004 0.182,0.018 0.165,0.025C0.162,0.026 0.158,0.027 0.153,0.027C0.135,0.027 0.109,0.023 0.074,0.015C0.039,0.006 0.02,0 0.017,-0.004C0.01,-0.015 0.009,-0.027 0.015,-0.041C0.016,-0.043 0.019,-0.047 0.025,-0.052C0.03,-0.057 0.033,-0.061 0.033,-0.066L0.033,-0.773C0.033,-0.778 0.03,-0.785 0.025,-0.794C0.02,-0.803 0.018,-0.81 0.02,-0.816C0.024,-0.83 0.034,-0.839 0.051,-0.843C0.062,-0.846 0.087,-0.842 0.126,-0.832C0.169,-0.821 0.192,-0.81 0.196,-0.799C0.199,-0.792 0.198,-0.781 0.193,-0.766C0.188,-0.751 0.186,-0.733 0.186,-0.712L0.186,-0.525C0.223,-0.572 0.259,-0.596 0.294,-0.596C0.317,-0.596 0.346,-0.588 0.382,-0.573C0.418,-0.557 0.439,-0.543 0.444,-0.53C0.463,-0.487 0.472,-0.33 0.472,-0.057C0.479,-0.041 0.481,-0.027 0.479,-0.015Z" style="fill-rule:nonzero;"/>
        </g>
        <g transform="matrix(179.167,0,0,179.167,667.558,150.679)">
            <path d="M0.21,-0.771C0.21,-0.766 0.209,-0.76 0.206,-0.752C0.203,-0.744 0.201,-0.739 0.2,-0.737C0.196,-0.724 0.192,-0.703 0.188,-0.675L0.188,-0.061C0.188,-0.053 0.19,-0.046 0.194,-0.04C0.198,-0.033 0.2,-0.028 0.2,-0.024C0.2,0.019 0.192,0.042 0.176,0.045C0.17,0.046 0.149,0.042 0.113,0.032C0.076,0.021 0.054,0.013 0.047,0.007C0.032,-0.006 0.025,-0.017 0.025,-0.028C0.025,-0.031 0.026,-0.034 0.029,-0.037C0.032,-0.04 0.033,-0.046 0.033,-0.054L0.033,-0.759C0.033,-0.763 0.032,-0.767 0.03,-0.772C0.027,-0.776 0.026,-0.78 0.026,-0.784C0.027,-0.8 0.04,-0.811 0.063,-0.816C0.07,-0.817 0.084,-0.817 0.105,-0.816C0.13,-0.814 0.151,-0.81 0.169,-0.805C0.196,-0.797 0.21,-0.786 0.21,-0.771Z" style="fill-rule:nonzero;"/>
        </g>
        <g transform="matrix(179.167,0,0,179.167,708.766,150.679)">
            <path d="M0.218,-0.704C0.219,-0.703 0.219,-0.7 0.219,-0.696C0.219,-0.681 0.216,-0.662 0.21,-0.639C0.203,-0.614 0.197,-0.6 0.191,-0.597C0.184,-0.594 0.156,-0.602 0.105,-0.619C0.054,-0.636 0.027,-0.648 0.024,-0.655C0.022,-0.658 0.021,-0.663 0.021,-0.67C0.021,-0.688 0.026,-0.707 0.035,-0.727C0.046,-0.75 0.058,-0.762 0.071,-0.765C0.086,-0.768 0.113,-0.762 0.151,-0.748C0.189,-0.733 0.211,-0.719 0.218,-0.704ZM0.215,-0.013C0.218,0.011 0.209,0.026 0.19,0.032C0.187,0.033 0.182,0.033 0.176,0.033C0.152,0.033 0.122,0.028 0.087,0.018C0.049,0.007 0.027,-0.004 0.02,-0.016C0.017,-0.021 0.02,-0.032 0.029,-0.047C0.035,-0.057 0.038,-0.075 0.038,-0.102L0.038,-0.522C0.03,-0.547 0.026,-0.564 0.026,-0.573C0.026,-0.582 0.038,-0.586 0.063,-0.586C0.083,-0.586 0.111,-0.58 0.147,-0.568C0.182,-0.555 0.204,-0.544 0.211,-0.535C0.213,-0.532 0.214,-0.529 0.214,-0.525C0.214,-0.52 0.21,-0.51 0.203,-0.495C0.195,-0.48 0.191,-0.469 0.191,-0.462L0.191,-0.06C0.191,-0.053 0.195,-0.045 0.203,-0.035C0.21,-0.025 0.214,-0.018 0.215,-0.013Z" style="fill-rule:nonzero;"/>
        </g>
        <g transform="matrix(179.167,0,0,179.167,751.766,150.679)">
            <path d="M0.472,-0.057C0.477,-0.044 0.48,-0.032 0.48,-0.019C0.48,0.001 0.472,0.015 0.457,0.022C0.452,0.024 0.444,0.025 0.432,0.025C0.409,0.025 0.382,0.022 0.351,0.015C0.32,0.008 0.301,0.001 0.294,-0.006C0.291,-0.01 0.289,-0.014 0.289,-0.019C0.289,-0.026 0.294,-0.038 0.304,-0.055C0.314,-0.071 0.319,-0.083 0.319,-0.09C0.32,-0.353 0.318,-0.485 0.313,-0.487C0.304,-0.49 0.281,-0.46 0.244,-0.397C0.205,-0.33 0.186,-0.28 0.186,-0.246L0.186,-0.059C0.195,-0.05 0.199,-0.04 0.199,-0.027C0.199,-0.002 0.188,0.016 0.165,0.025C0.162,0.026 0.158,0.027 0.153,0.027C0.135,0.027 0.109,0.023 0.074,0.015C0.039,0.006 0.02,-0.001 0.016,-0.006C0.012,-0.011 0.01,-0.017 0.01,-0.024C0.01,-0.031 0.014,-0.039 0.022,-0.048C0.029,-0.057 0.033,-0.063 0.033,-0.066L0.033,-0.531C0.033,-0.536 0.03,-0.543 0.025,-0.552C0.02,-0.561 0.018,-0.568 0.02,-0.574C0.024,-0.588 0.034,-0.597 0.051,-0.601C0.062,-0.604 0.087,-0.6 0.126,-0.59C0.169,-0.579 0.192,-0.568 0.196,-0.557C0.199,-0.55 0.198,-0.539 0.193,-0.524C0.186,-0.501 0.182,-0.487 0.182,-0.484C0.182,-0.477 0.183,-0.469 0.186,-0.46C0.196,-0.493 0.21,-0.523 0.228,-0.549C0.25,-0.58 0.272,-0.596 0.294,-0.596C0.317,-0.596 0.346,-0.588 0.382,-0.573C0.418,-0.557 0.439,-0.543 0.444,-0.53C0.463,-0.487 0.472,-0.33 0.472,-0.057Z" style="fill-rule:nonzero;"/>
        </g>
        <g transform="matrix(179.167,0,0,179.167,841.35,150.679)">
            <path d="M0.503,-0.091C0.504,-0.078 0.492,-0.055 0.465,-0.022C0.438,0.011 0.418,0.027 0.403,0.025C0.374,0.021 0.314,-0.056 0.221,-0.207C0.214,-0.2 0.203,-0.188 0.187,-0.172L0.187,-0.054C0.187,-0.051 0.188,-0.045 0.19,-0.036C0.191,-0.027 0.192,-0.021 0.193,-0.017C0.195,0.006 0.19,0.02 0.179,0.027C0.173,0.03 0.163,0.032 0.15,0.032C0.125,0.032 0.1,0.027 0.076,0.018C0.048,0.007 0.034,-0.005 0.034,-0.02L0.034,-0.762C0.034,-0.773 0.037,-0.784 0.044,-0.797C0.051,-0.81 0.058,-0.818 0.067,-0.821C0.069,-0.822 0.072,-0.822 0.075,-0.822C0.092,-0.822 0.117,-0.816 0.148,-0.805C0.179,-0.793 0.196,-0.783 0.199,-0.774C0.201,-0.769 0.202,-0.765 0.202,-0.762C0.202,-0.757 0.199,-0.75 0.194,-0.742C0.189,-0.733 0.186,-0.725 0.186,-0.718L0.186,-0.371L0.334,-0.574C0.343,-0.586 0.354,-0.592 0.367,-0.593C0.38,-0.594 0.397,-0.586 0.42,-0.569C0.445,-0.55 0.458,-0.532 0.459,-0.514C0.46,-0.507 0.444,-0.481 0.412,-0.436C0.363,-0.365 0.334,-0.323 0.325,-0.31L0.455,-0.131C0.46,-0.124 0.469,-0.117 0.484,-0.11C0.496,-0.104 0.502,-0.098 0.503,-0.091Z" style="fill-rule:nonzero;"/>
        </g>
        <g transform="matrix(179.167,0,0,179.167,932.725,150.679)">
            <path d="M0.389,-0.092C0.389,-0.055 0.377,-0.026 0.353,-0.004C0.328,0.018 0.294,0.029 0.25,0.03C0.239,0.03 0.228,0.028 0.215,0.025C0.192,0.019 0.18,0.016 0.179,0.015C0.167,0.012 0.155,0.01 0.143,0.007C0.13,0.004 0.12,-0.002 0.111,-0.009C0.096,-0.022 0.082,-0.041 0.068,-0.064C0.057,-0.083 0.046,-0.102 0.035,-0.121C0.024,-0.14 0.019,-0.152 0.019,-0.156C0.019,-0.165 0.026,-0.172 0.039,-0.177C0.042,-0.178 0.048,-0.179 0.057,-0.179C0.077,-0.179 0.102,-0.177 0.133,-0.173C0.163,-0.168 0.179,-0.165 0.182,-0.162C0.185,-0.159 0.188,-0.139 0.193,-0.104C0.197,-0.073 0.204,-0.058 0.214,-0.058C0.229,-0.058 0.237,-0.079 0.237,-0.12C0.237,-0.173 0.223,-0.206 0.195,-0.219C0.131,-0.249 0.089,-0.276 0.069,-0.299C0.044,-0.328 0.032,-0.371 0.032,-0.429C0.032,-0.467 0.042,-0.503 0.062,-0.537C0.082,-0.57 0.106,-0.59 0.133,-0.597C0.145,-0.6 0.184,-0.587 0.249,-0.559C0.255,-0.557 0.273,-0.553 0.302,-0.548C0.323,-0.544 0.337,-0.537 0.346,-0.527C0.359,-0.512 0.366,-0.487 0.368,-0.454C0.369,-0.429 0.369,-0.405 0.369,-0.38C0.374,-0.357 0.376,-0.344 0.376,-0.34C0.376,-0.321 0.367,-0.311 0.349,-0.308C0.34,-0.307 0.321,-0.31 0.294,-0.319C0.264,-0.329 0.245,-0.339 0.237,-0.35C0.235,-0.353 0.233,-0.378 0.231,-0.425C0.229,-0.47 0.224,-0.492 0.217,-0.492C0.207,-0.492 0.198,-0.479 0.189,-0.453C0.18,-0.427 0.176,-0.4 0.176,-0.372C0.176,-0.337 0.184,-0.314 0.199,-0.305C0.232,-0.287 0.264,-0.269 0.297,-0.251C0.329,-0.232 0.351,-0.213 0.364,-0.194C0.381,-0.169 0.389,-0.135 0.389,-0.092Z" style="fill-rule:nonzero;"/>
        </g>
        <g transform="matrix(179.167,0,0,179.167,273.391,329.846)">
            <path d="M0.479,-0.015C0.476,0.004 0.468,0.017 0.457,0.022C0.452,0.024 0.444,0.025 0.432,0.025C0.409,0.025 0.382,0.022 0.351,0.015C0.32,0.008 0.301,0.001 0.294,-0.006C0.291,-0.009 0.29,-0.013 0.29,-0.018C0.29,-0.023 0.293,-0.033 0.299,-0.048C0.303,-0.053 0.307,-0.059 0.312,-0.066C0.317,-0.072 0.319,-0.08 0.319,-0.09C0.32,-0.353 0.318,-0.485 0.313,-0.487C0.303,-0.49 0.28,-0.466 0.244,-0.414C0.205,-0.359 0.186,-0.314 0.186,-0.281L0.186,-0.059C0.197,-0.048 0.2,-0.034 0.197,-0.017C0.193,0.004 0.182,0.018 0.165,0.025C0.162,0.026 0.158,0.027 0.153,0.027C0.135,0.027 0.109,0.023 0.074,0.015C0.039,0.006 0.02,0 0.017,-0.004C0.01,-0.015 0.009,-0.027 0.015,-0.041C0.016,-0.043 0.019,-0.047 0.025,-0.052C0.03,-0.057 0.033,-0.061 0.033,-0.066L0.033,-0.773C0.033,-0.778 0.03,-0.785 0.025,-0.794C0.02,-0.803 0.018,-0.81 0.02,-0.816C0.024,-0.83 0.034,-0.839 0.051,-0.843C0.062,-0.846 0.087,-0.842 0.126,-0.832C0.169,-0.821 0.192,-0.81 0.196,-0.799C0.199,-0.792 0.198,-0.781 0.193,-0.766C0.188,-0.751 0.186,-0.733 0.186,-0.712L0.186,-0.525C0.223,-0.572 0.259,-0.596 0.294,-0.596C0.317,-0.596 0.346,-0.588 0.382,-0.573C0.418,-0.557 0.439,-0.543 0.444,-0.53C0.463,-0.487 0.472,-0.33 0.472,-0.057C0.479,-0.041 0.481,-0.027 0.479,-0.015Z" style="fill-rule:nonzero;"/>
        </g>
        <g transform="matrix(179.167,0,0,179.167,362.975,329.846)">
            <path d="M0.429,-0.168C0.435,-0.158 0.422,-0.128 0.39,-0.079C0.355,-0.026 0.321,0.009 0.288,0.028C0.284,0.03 0.278,0.031 0.27,0.031C0.244,0.031 0.21,0.023 0.168,0.007C0.123,-0.009 0.094,-0.026 0.08,-0.045C0.041,-0.095 0.022,-0.164 0.022,-0.253C0.022,-0.337 0.039,-0.411 0.073,-0.475C0.11,-0.545 0.156,-0.581 0.213,-0.582C0.234,-0.583 0.259,-0.577 0.288,-0.566C0.324,-0.552 0.354,-0.533 0.377,-0.509C0.383,-0.503 0.389,-0.485 0.394,-0.455C0.401,-0.423 0.404,-0.392 0.404,-0.361C0.404,-0.316 0.397,-0.284 0.382,-0.267C0.313,-0.245 0.243,-0.233 0.172,-0.23C0.171,-0.197 0.175,-0.163 0.184,-0.127C0.193,-0.091 0.203,-0.073 0.213,-0.072C0.226,-0.071 0.242,-0.082 0.261,-0.105C0.278,-0.124 0.288,-0.141 0.292,-0.154C0.297,-0.174 0.303,-0.195 0.311,-0.216C0.322,-0.217 0.343,-0.212 0.374,-0.2C0.405,-0.188 0.424,-0.177 0.429,-0.168ZM0.251,-0.474C0.24,-0.475 0.224,-0.457 0.204,-0.42C0.183,-0.383 0.171,-0.347 0.168,-0.313C0.198,-0.314 0.222,-0.322 0.24,-0.335C0.251,-0.343 0.256,-0.376 0.256,-0.435C0.256,-0.46 0.254,-0.473 0.251,-0.474Z" style="fill-rule:nonzero;"/>
        </g>
        <g transform="matrix(179.167,0,0,179.167,443.6,329.846)">
            <path d="M0.218,-0.704C0.219,-0.703 0.219,-0.7 0.219,-0.696C0.219,-0.681 0.216,-0.662 0.21,-0.639C0.203,-0.614 0.197,-0.6 0.191,-0.597C0.184,-0.594 0.156,-0.602 0.105,-0.619C0.054,-0.636 0.027,-0.648 0.024,-0.655C0.022,-0.658 0.021,-0.663 0.021,-0.67C0.021,-0.688 0.026,-0.707 0.035,-0.727C0.046,-0.75 0.058,-0.762 0.071,-0.765C0.086,-0.768 0.113,-0.762 0.151,-0.748C0.189,-0.733 0.211,-0.719 0.218,-0.704ZM0.215,-0.013C0.218,0.011 0.209,0.026 0.19,0.032C0.187,0.033 0.182,0.033 0.176,0.033C0.152,0.033 0.122,0.028 0.087,0.018C0.049,0.007 0.027,-0.004 0.02,-0.016C0.017,-0.021 0.02,-0.032 0.029,-0.047C0.035,-0.057 0.038,-0.075 0.038,-0.102L0.038,-0.522C0.03,-0.547 0.026,-0.564 0.026,-0.573C0.026,-0.582 0.038,-0.586 0.063,-0.586C0.083,-0.586 0.111,-0.58 0.147,-0.568C0.182,-0.555 0.204,-0.544 0.211,-0.535C0.213,-0.532 0.214,-0.529 0.214,-0.525C0.214,-0.52 0.21,-0.51 0.203,-0.495C0.195,-0.48 0.191,-0.469 0.191,-0.462L0.191,-0.06C0.191,-0.053 0.195,-0.045 0.203,-0.035C0.21,-0.025 0.214,-0.018 0.215,-0.013Z" style="fill-rule:nonzero;"/>
        </g>
        <g transform="matrix(179.167,0,0,179.167,486.6,329.846)">
            <path d="M0.522,-0.422C0.531,-0.401 0.536,-0.377 0.536,-0.35C0.536,-0.292 0.518,-0.229 0.482,-0.16C0.448,-0.095 0.41,-0.045 0.367,-0.012C0.362,-0.008 0.355,-0.006 0.346,-0.006C0.327,-0.006 0.308,-0.015 0.29,-0.034C0.269,-0.055 0.259,-0.079 0.258,-0.108C0.258,-0.135 0.273,-0.149 0.302,-0.149C0.329,-0.175 0.351,-0.212 0.367,-0.26C0.382,-0.303 0.389,-0.345 0.389,-0.385C0.389,-0.394 0.389,-0.402 0.388,-0.409C0.371,-0.408 0.341,-0.4 0.3,-0.384C0.255,-0.366 0.223,-0.348 0.203,-0.331C0.203,-0.338 0.203,-0.301 0.202,-0.222C0.201,-0.157 0.201,-0.106 0.202,-0.069C0.203,-0.018 0.205,0.01 0.209,0.014C0.213,0.018 0.215,0.029 0.216,0.046C0.217,0.063 0.215,0.074 0.21,0.077C0.209,0.078 0.206,0.079 0.202,0.079C0.185,0.079 0.154,0.073 0.11,0.061C0.065,0.048 0.041,0.039 0.037,0.033C0.034,0.03 0.033,0.025 0.033,0.019C0.033,0.008 0.036,-0.005 0.042,-0.02L0.042,-0.657C0.042,-0.706 0.086,-0.749 0.174,-0.786C0.248,-0.817 0.314,-0.833 0.372,-0.833C0.385,-0.833 0.394,-0.832 0.399,-0.829C0.41,-0.824 0.42,-0.814 0.429,-0.8C0.441,-0.781 0.449,-0.769 0.454,-0.764C0.455,-0.763 0.466,-0.754 0.487,-0.737C0.499,-0.727 0.507,-0.716 0.51,-0.705C0.513,-0.697 0.514,-0.688 0.514,-0.679C0.514,-0.626 0.479,-0.569 0.409,-0.507C0.423,-0.496 0.446,-0.485 0.479,-0.472C0.496,-0.465 0.511,-0.449 0.522,-0.422ZM0.352,-0.685C0.35,-0.688 0.344,-0.69 0.335,-0.69C0.314,-0.69 0.29,-0.684 0.263,-0.671C0.232,-0.656 0.212,-0.639 0.203,-0.619L0.203,-0.515C0.246,-0.549 0.283,-0.584 0.314,-0.619C0.345,-0.654 0.357,-0.676 0.352,-0.685Z" style="fill-rule:nonzero;"/>
        </g>
        <g transform="matrix(179.167,0,0,179.167,585.141,329.846)">
            <path d="M0.384,-0.483C0.383,-0.471 0.379,-0.46 0.372,-0.451C0.365,-0.442 0.357,-0.437 0.348,-0.437C0.345,-0.437 0.343,-0.437 0.341,-0.438C0.332,-0.441 0.311,-0.443 0.278,-0.443L0.278,-0.048C0.278,-0.049 0.28,-0.043 0.285,-0.032C0.289,-0.021 0.291,-0.011 0.291,-0.002C0.291,0.017 0.278,0.028 0.251,0.029C0.237,0.03 0.211,0.024 0.174,0.011C0.133,-0.002 0.112,-0.015 0.109,-0.026C0.108,-0.031 0.11,-0.041 0.116,-0.056C0.122,-0.07 0.125,-0.082 0.125,-0.09L0.125,-0.444L0.091,-0.444C0.078,-0.444 0.063,-0.455 0.044,-0.478C0.025,-0.5 0.016,-0.518 0.016,-0.531C0.016,-0.541 0.02,-0.55 0.028,-0.558C0.035,-0.566 0.044,-0.57 0.053,-0.57L0.125,-0.57L0.125,-0.66C0.115,-0.673 0.11,-0.688 0.11,-0.703C0.11,-0.717 0.116,-0.726 0.128,-0.729C0.134,-0.73 0.142,-0.731 0.153,-0.731C0.178,-0.731 0.207,-0.727 0.24,-0.72C0.273,-0.712 0.294,-0.704 0.304,-0.696C0.309,-0.692 0.311,-0.687 0.311,-0.682C0.311,-0.675 0.306,-0.665 0.295,-0.652C0.284,-0.639 0.279,-0.629 0.278,-0.624L0.278,-0.57L0.31,-0.57C0.317,-0.57 0.331,-0.558 0.352,-0.534C0.373,-0.51 0.384,-0.493 0.384,-0.483Z" style="fill-rule:nonzero;"/>
        </g>
        <g transform="matrix(179.167,0,0,179.167,701.6,329.846)">
            <path d="M0.486,-0.545C0.46,-0.479 0.43,-0.378 0.397,-0.242C0.367,-0.119 0.352,-0.05 0.353,-0.033L0.353,0.016C0.352,0.037 0.344,0.05 0.329,0.053C0.314,0.056 0.278,0.049 0.221,0.034C0.164,0.019 0.132,0.006 0.125,-0.003C0.122,-0.008 0.12,-0.016 0.12,-0.025C0.12,-0.034 0.119,-0.041 0.118,-0.044C0.087,-0.141 0.065,-0.221 0.051,-0.282C0.034,-0.358 0.022,-0.442 0.015,-0.534C0.015,-0.536 0.014,-0.542 0.013,-0.551C0.012,-0.558 0.011,-0.564 0.011,-0.569C0.011,-0.584 0.018,-0.594 0.031,-0.599C0.037,-0.601 0.063,-0.596 0.108,-0.586C0.153,-0.575 0.178,-0.565 0.182,-0.556C0.184,-0.552 0.185,-0.547 0.185,-0.542C0.185,-0.535 0.183,-0.527 0.179,-0.517C0.175,-0.506 0.173,-0.499 0.173,-0.496C0.18,-0.444 0.187,-0.398 0.194,-0.358C0.21,-0.262 0.223,-0.205 0.232,-0.187C0.242,-0.245 0.26,-0.32 0.285,-0.413C0.297,-0.458 0.309,-0.502 0.322,-0.547C0.324,-0.559 0.326,-0.571 0.328,-0.583C0.333,-0.596 0.341,-0.605 0.353,-0.608C0.361,-0.611 0.382,-0.605 0.417,-0.59C0.455,-0.574 0.478,-0.559 0.486,-0.545Z" style="fill-rule:nonzero;"/>
        </g>
        <g transform="matrix(179.167,0,0,179.167,791.183,329.846)">
            <path d="M0.354,-0.566C0.391,-0.549 0.419,-0.514 0.439,-0.461C0.457,-0.413 0.466,-0.356 0.466,-0.291C0.466,-0.201 0.451,-0.123 0.42,-0.057C0.386,0.014 0.344,0.046 0.293,0.039C0.274,0.034 0.246,0.029 0.209,0.022C0.182,0.019 0.157,0.014 0.135,0.007C0.097,-0.003 0.067,-0.035 0.044,-0.09C0.023,-0.141 0.013,-0.2 0.013,-0.268C0.013,-0.337 0.024,-0.399 0.045,-0.455C0.069,-0.516 0.103,-0.559 0.146,-0.584C0.153,-0.588 0.163,-0.59 0.176,-0.59C0.189,-0.59 0.216,-0.586 0.255,-0.577C0.28,-0.577 0.313,-0.573 0.354,-0.566ZM0.242,-0.476C0.224,-0.476 0.207,-0.454 0.192,-0.411C0.177,-0.367 0.169,-0.325 0.169,-0.285C0.169,-0.237 0.175,-0.19 0.186,-0.143C0.199,-0.092 0.213,-0.065 0.23,-0.061C0.251,-0.056 0.27,-0.08 0.287,-0.133C0.303,-0.184 0.311,-0.24 0.311,-0.301C0.311,-0.335 0.307,-0.369 0.298,-0.402C0.286,-0.451 0.267,-0.476 0.242,-0.476Z" style="fill-rule:nonzero;"/>
        </g>
        <g transform="matrix(179.167,0,0,179.167,877.183,329.846)">
            <path d="M0.472,-0.057C0.477,-0.044 0.48,-0.032 0.48,-0.019C0.48,0.001 0.472,0.015 0.457,0.022C0.452,0.024 0.444,0.025 0.432,0.025C0.409,0.025 0.382,0.022 0.351,0.015C0.32,0.008 0.301,0.001 0.294,-0.006C0.291,-0.01 0.289,-0.014 0.289,-0.019C0.289,-0.026 0.294,-0.038 0.304,-0.055C0.314,-0.071 0.319,-0.083 0.319,-0.09C0.32,-0.353 0.318,-0.485 0.313,-0.487C0.304,-0.49 0.281,-0.46 0.244,-0.397C0.205,-0.33 0.186,-0.28 0.186,-0.246L0.186,-0.059C0.195,-0.05 0.199,-0.04 0.199,-0.027C0.199,-0.002 0.188,0.016 0.165,0.025C0.162,0.026 0.158,0.027 0.153,0.027C0.135,0.027 0.109,0.023 0.074,0.015C0.039,0.006 0.02,-0.001 0.016,-0.006C0.012,-0.011 0.01,-0.017 0.01,-0.024C0.01,-0.031 0.014,-0.039 0.022,-0.048C0.029,-0.057 0.033,-0.063 0.033,-0.066L0.033,-0.531C0.033,-0.536 0.03,-0.543 0.025,-0.552C0.02,-0.561 0.018,-0.568 0.02,-0.574C0.024,-0.588 0.034,-0.597 0.051,-0.601C0.062,-0.604 0.087,-0.6 0.126,-0.59C0.169,-0.579 0.192,-0.568 0.196,-0.557C0.199,-0.55 0.198,-0.539 0.193,-0.524C0.186,-0.501 0.182,-0.487 0.182,-0.484C0.182,-0.477 0.183,-0.469 0.186,-0.46C0.196,-0.493 0.21,-0.523 0.228,-0.549C0.25,-0.58 0.272,-0.596 0.294,-0.596C0.317,-0.596 0.346,-0.588 0.382,-0.573C0.418,-0.557 0.439,-0.543 0.444,-0.53C0.463,-0.487 0.472,-0.33 0.472,-0.057Z" style="fill-rule:nonzero;"/>
        </g>
        <g transform="matrix(179.167,0,0,179.167,8.22457,509.013)">
            <path d="M0.479,-0.015C0.476,0.004 0.468,0.017 0.457,0.022C0.452,0.024 0.444,0.025 0.432,0.025C0.409,0.025 0.382,0.022 0.351,0.015C0.32,0.008 0.301,0.001 0.294,-0.006C0.291,-0.009 0.29,-0.013 0.29,-0.018C0.29,-0.023 0.293,-0.033 0.299,-0.048C0.303,-0.053 0.307,-0.059 0.312,-0.066C0.317,-0.072 0.319,-0.08 0.319,-0.09C0.32,-0.353 0.318,-0.485 0.313,-0.487C0.303,-0.49 0.28,-0.466 0.244,-0.414C0.205,-0.359 0.186,-0.314 0.186,-0.281L0.186,-0.059C0.197,-0.048 0.2,-0.034 0.197,-0.017C0.193,0.004 0.182,0.018 0.165,0.025C0.162,0.026 0.158,0.027 0.153,0.027C0.135,0.027 0.109,0.023 0.074,0.015C0.039,0.006 0.02,0 0.017,-0.004C0.01,-0.015 0.009,-0.027 0.015,-0.041C0.016,-0.043 0.019,-0.047 0.025,-0.052C0.03,-0.057 0.033,-0.061 0.033,-0.066L0.033,-0.773C0.033,-0.778 0.03,-0.785 0.025,-0.794C0.02,-0.803 0.018,-0.81 0.02,-0.816C0.024,-0.83 0.034,-0.839 0.051,-0.843C0.062,-0.846 0.087,-0.842 0.126,-0.832C0.169,-0.821 0.192,-0.81 0.196,-0.799C0.199,-0.792 0.198,-0.781 0.193,-0.766C0.188,-0.751 0.186,-0.733 0.186,-0.712L0.186,-0.525C0.223,-0.572 0.259,-0.596 0.294,-0.596C0.317,-0.596 0.346,-0.588 0.382,-0.573C0.418,-0.557 0.439,-0.543 0.444,-0.53C0.463,-0.487 0.472,-0.33 0.472,-0.057C0.479,-0.041 0.481,-0.027 0.479,-0.015Z" style="fill-rule:nonzero;"/>
        </g>
        <g transform="matrix(179.167,0,0,179.167,97.8079,509.013)">
            <path d="M0.218,-0.704C0.219,-0.703 0.219,-0.7 0.219,-0.696C0.219,-0.681 0.216,-0.662 0.21,-0.639C0.203,-0.614 0.197,-0.6 0.191,-0.597C0.184,-0.594 0.156,-0.602 0.105,-0.619C0.054,-0.636 0.027,-0.648 0.024,-0.655C0.022,-0.658 0.021,-0.663 0.021,-0.67C0.021,-0.688 0.026,-0.707 0.035,-0.727C0.046,-0.75 0.058,-0.762 0.071,-0.765C0.086,-0.768 0.113,-0.762 0.151,-0.748C0.189,-0.733 0.211,-0.719 0.218,-0.704ZM0.215,-0.013C0.218,0.011 0.209,0.026 0.19,0.032C0.187,0.033 0.182,0.033 0.176,0.033C0.152,0.033 0.122,0.028 0.087,0.018C0.049,0.007 0.027,-0.004 0.02,-0.016C0.017,-0.021 0.02,-0.032 0.029,-0.047C0.035,-0.057 0.038,-0.075 0.038,-0.102L0.038,-0.522C0.03,-0.547 0.026,-0.564 0.026,-0.573C0.026,-0.582 0.038,-0.586 0.063,-0.586C0.083,-0.586 0.111,-0.58 0.147,-0.568C0.182,-0.555 0.204,-0.544 0.211,-0.535C0.213,-0.532 0.214,-0.529 0.214,-0.525C0.214,-0.52 0.21,-0.51 0.203,-0.495C0.195,-0.48 0.191,-0.469 0.191,-0.462L0.191,-0.06C0.191,-0.053 0.195,-0.045 0.203,-0.035C0.21,-0.025 0.214,-0.018 0.215,-0.013Z" style="fill-rule:nonzero;"/>
        </g>
        <g transform="matrix(179.167,0,0,179.167,140.808,509.013)">
            <path d="M0.472,-0.057C0.477,-0.044 0.48,-0.032 0.48,-0.019C0.48,0.001 0.472,0.015 0.457,0.022C0.452,0.024 0.444,0.025 0.432,0.025C0.409,0.025 0.382,0.022 0.351,0.015C0.32,0.008 0.301,0.001 0.294,-0.006C0.291,-0.01 0.289,-0.014 0.289,-0.019C0.289,-0.026 0.294,-0.038 0.304,-0.055C0.314,-0.071 0.319,-0.083 0.319,-0.09C0.32,-0.353 0.318,-0.485 0.313,-0.487C0.304,-0.49 0.281,-0.46 0.244,-0.397C0.205,-0.33 0.186,-0.28 0.186,-0.246L0.186,-0.059C0.195,-0.05 0.199,-0.04 0.199,-0.027C0.199,-0.002 0.188,0.016 0.165,0.025C0.162,0.026 0.158,0.027 0.153,0.027C0.135,0.027 0.109,0.023 0.074,0.015C0.039,0.006 0.02,-0.001 0.016,-0.006C0.012,-0.011 0.01,-0.017 0.01,-0.024C0.01,-0.031 0.014,-0.039 0.022,-0.048C0.029,-0.057 0.033,-0.063 0.033,-0.066L0.033,-0.531C0.033,-0.536 0.03,-0.543 0.025,-0.552C0.02,-0.561 0.018,-0.568 0.02,-0.574C0.024,-0.588 0.034,-0.597 0.051,-0.601C0.062,-0.604 0.087,-0.6 0.126,-0.59C0.169,-0.579 0.192,-0.568 0.196,-0.557C0.199,-0.55 0.198,-0.539 0.193,-0.524C0.186,-0.501 0.182,-0.487 0.182,-0.484C0.182,-0.477 0.183,-0.469 0.186,-0.46C0.196,-0.493 0.21,-0.523 0.228,-0.549C0.25,-0.58 0.272,-0.596 0.294,-0.596C0.317,-0.596 0.346,-0.588 0.382,-0.573C0.418,-0.557 0.439,-0.543 0.444,-0.53C0.463,-0.487 0.472,-0.33 0.472,-0.057Z" style="fill-rule:nonzero;"/>
        </g>
        <g transform="matrix(179.167,0,0,179.167,230.391,509.013)">
            <path d="M0.384,-0.483C0.383,-0.471 0.379,-0.46 0.372,-0.451C0.365,-0.442 0.357,-0.437 0.348,-0.437C0.345,-0.437 0.343,-0.437 0.341,-0.438C0.332,-0.441 0.311,-0.443 0.278,-0.443L0.278,-0.048C0.278,-0.049 0.28,-0.043 0.285,-0.032C0.289,-0.021 0.291,-0.011 0.291,-0.002C0.291,0.017 0.278,0.028 0.251,0.029C0.237,0.03 0.211,0.024 0.174,0.011C0.133,-0.002 0.112,-0.015 0.109,-0.026C0.108,-0.031 0.11,-0.041 0.116,-0.056C0.122,-0.07 0.125,-0.082 0.125,-0.09L0.125,-0.444L0.091,-0.444C0.078,-0.444 0.063,-0.455 0.044,-0.478C0.025,-0.5 0.016,-0.518 0.016,-0.531C0.016,-0.541 0.02,-0.55 0.028,-0.558C0.035,-0.566 0.044,-0.57 0.053,-0.57L0.125,-0.57L0.125,-0.66C0.115,-0.673 0.11,-0.688 0.11,-0.703C0.11,-0.717 0.116,-0.726 0.128,-0.729C0.134,-0.73 0.142,-0.731 0.153,-0.731C0.178,-0.731 0.207,-0.727 0.24,-0.72C0.273,-0.712 0.294,-0.704 0.304,-0.696C0.309,-0.692 0.311,-0.687 0.311,-0.682C0.311,-0.675 0.306,-0.665 0.295,-0.652C0.284,-0.639 0.279,-0.629 0.278,-0.624L0.278,-0.57L0.31,-0.57C0.317,-0.57 0.331,-0.558 0.352,-0.534C0.373,-0.51 0.384,-0.493 0.384,-0.483Z" style="fill-rule:nonzero;"/>
        </g>
        <g transform="matrix(179.167,0,0,179.167,302.058,509.013)">
            <path d="M0.429,-0.168C0.435,-0.158 0.422,-0.128 0.39,-0.079C0.355,-0.026 0.321,0.009 0.288,0.028C0.284,0.03 0.278,0.031 0.27,0.031C0.244,0.031 0.21,0.023 0.168,0.007C0.123,-0.009 0.094,-0.026 0.08,-0.045C0.041,-0.095 0.022,-0.164 0.022,-0.253C0.022,-0.337 0.039,-0.411 0.073,-0.475C0.11,-0.545 0.156,-0.581 0.213,-0.582C0.234,-0.583 0.259,-0.577 0.288,-0.566C0.324,-0.552 0.354,-0.533 0.377,-0.509C0.383,-0.503 0.389,-0.485 0.394,-0.455C0.401,-0.423 0.404,-0.392 0.404,-0.361C0.404,-0.316 0.397,-0.284 0.382,-0.267C0.313,-0.245 0.243,-0.233 0.172,-0.23C0.171,-0.197 0.175,-0.163 0.184,-0.127C0.193,-0.091 0.203,-0.073 0.213,-0.072C0.226,-0.071 0.242,-0.082 0.261,-0.105C0.278,-0.124 0.288,-0.141 0.292,-0.154C0.297,-0.174 0.303,-0.195 0.311,-0.216C0.322,-0.217 0.343,-0.212 0.374,-0.2C0.405,-0.188 0.424,-0.177 0.429,-0.168ZM0.251,-0.474C0.24,-0.475 0.224,-0.457 0.204,-0.42C0.183,-0.383 0.171,-0.347 0.168,-0.313C0.198,-0.314 0.222,-0.322 0.24,-0.335C0.251,-0.343 0.256,-0.376 0.256,-0.435C0.256,-0.46 0.254,-0.473 0.251,-0.474Z" style="fill-rule:nonzero;"/>
        </g>
        <g transform="matrix(179.167,0,0,179.167,382.683,509.013)">
            <path d="M0.472,-0.057C0.477,-0.044 0.48,-0.032 0.48,-0.019C0.48,0.001 0.472,0.015 0.457,0.022C0.452,0.024 0.444,0.025 0.432,0.025C0.409,0.025 0.382,0.022 0.351,0.015C0.32,0.008 0.301,0.001 0.294,-0.006C0.291,-0.01 0.289,-0.014 0.289,-0.019C0.289,-0.026 0.294,-0.038 0.304,-0.055C0.314,-0.071 0.319,-0.083 0.319,-0.09C0.32,-0.353 0.318,-0.485 0.313,-0.487C0.304,-0.49 0.281,-0.46 0.244,-0.397C0.205,-0.33 0.186,-0.28 0.186,-0.246L0.186,-0.059C0.195,-0.05 0.199,-0.04 0.199,-0.027C0.199,-0.002 0.188,0.016 0.165,0.025C0.162,0.026 0.158,0.027 0.153,0.027C0.135,0.027 0.109,0.023 0.074,0.015C0.039,0.006 0.02,-0.001 0.016,-0.006C0.012,-0.011 0.01,-0.017 0.01,-0.024C0.01,-0.031 0.014,-0.039 0.022,-0.048C0.029,-0.057 0.033,-0.063 0.033,-0.066L0.033,-0.531C0.033,-0.536 0.03,-0.543 0.025,-0.552C0.02,-0.561 0.018,-0.568 0.02,-0.574C0.024,-0.588 0.034,-0.597 0.051,-0.601C0.062,-0.604 0.087,-0.6 0.126,-0.59C0.169,-0.579 0.192,-0.568 0.196,-0.557C0.199,-0.55 0.198,-0.539 0.193,-0.524C0.186,-0.501 0.182,-0.487 0.182,-0.484C0.182,-0.477 0.183,-0.469 0.186,-0.46C0.196,-0.493 0.21,-0.523 0.228,-0.549C0.25,-0.58 0.272,-0.596 0.294,-0.596C0.317,-0.596 0.346,-0.588 0.382,-0.573C0.418,-0.557 0.439,-0.543 0.444,-0.53C0.463,-0.487 0.472,-0.33 0.472,-0.057Z" style="fill-rule:nonzero;"/>
        </g>
        <g transform="matrix(179.167,0,0,179.167,517.058,509.013)">
            <path d="M0.479,-0.015C0.476,0.004 0.468,0.017 0.457,0.022C0.452,0.024 0.444,0.025 0.432,0.025C0.409,0.025 0.382,0.022 0.351,0.015C0.32,0.008 0.301,0.001 0.294,-0.006C0.291,-0.009 0.29,-0.013 0.29,-0.018C0.29,-0.023 0.293,-0.033 0.299,-0.048C0.303,-0.053 0.307,-0.059 0.312,-0.066C0.317,-0.072 0.319,-0.08 0.319,-0.09C0.32,-0.353 0.318,-0.485 0.313,-0.487C0.303,-0.49 0.28,-0.466 0.244,-0.414C0.205,-0.359 0.186,-0.314 0.186,-0.281L0.186,-0.059C0.197,-0.048 0.2,-0.034 0.197,-0.017C0.193,0.004 0.182,0.018 0.165,0.025C0.162,0.026 0.158,0.027 0.153,0.027C0.135,0.027 0.109,0.023 0.074,0.015C0.039,0.006 0.02,0 0.017,-0.004C0.01,-0.015 0.009,-0.027 0.015,-0.041C0.016,-0.043 0.019,-0.047 0.025,-0.052C0.03,-0.057 0.033,-0.061 0.033,-0.066L0.033,-0.773C0.033,-0.778 0.03,-0.785 0.025,-0.794C0.02,-0.803 0.018,-0.81 0.02,-0.816C0.024,-0.83 0.034,-0.839 0.051,-0.843C0.062,-0.846 0.087,-0.842 0.126,-0.832C0.169,-0.821 0.192,-0.81 0.196,-0.799C0.199,-0.792 0.198,-0.781 0.193,-0.766C0.188,-0.751 0.186,-0.733 0.186,-0.712L0.186,-0.525C0.223,-0.572 0.259,-0.596 0.294,-0.596C0.317,-0.596 0.346,-0.588 0.382,-0.573C0.418,-0.557 0.439,-0.543 0.444,-0.53C0.463,-0.487 0.472,-0.33 0.472,-0.057C0.479,-0.041 0.481,-0.027 0.479,-0.015Z" style="fill-rule:nonzero;"/>
        </g>
        <g transform="matrix(179.167,0,0,179.167,606.641,509.013)">
            <path d="M0.429,-0.168C0.435,-0.158 0.422,-0.128 0.39,-0.079C0.355,-0.026 0.321,0.009 0.288,0.028C0.284,0.03 0.278,0.031 0.27,0.031C0.244,0.031 0.21,0.023 0.168,0.007C0.123,-0.009 0.094,-0.026 0.08,-0.045C0.041,-0.095 0.022,-0.164 0.022,-0.253C0.022,-0.337 0.039,-0.411 0.073,-0.475C0.11,-0.545 0.156,-0.581 0.213,-0.582C0.234,-0.583 0.259,-0.577 0.288,-0.566C0.324,-0.552 0.354,-0.533 0.377,-0.509C0.383,-0.503 0.389,-0.485 0.394,-0.455C0.401,-0.423 0.404,-0.392 0.404,-0.361C0.404,-0.316 0.397,-0.284 0.382,-0.267C0.313,-0.245 0.243,-0.233 0.172,-0.23C0.171,-0.197 0.175,-0.163 0.184,-0.127C0.193,-0.091 0.203,-0.073 0.213,-0.072C0.226,-0.071 0.242,-0.082 0.261,-0.105C0.278,-0.124 0.288,-0.141 0.292,-0.154C0.297,-0.174 0.303,-0.195 0.311,-0.216C0.322,-0.217 0.343,-0.212 0.374,-0.2C0.405,-0.188 0.424,-0.177 0.429,-0.168ZM0.251,-0.474C0.24,-0.475 0.224,-0.457 0.204,-0.42C0.183,-0.383 0.171,-0.347 0.168,-0.313C0.198,-0.314 0.222,-0.322 0.24,-0.335C0.251,-0.343 0.256,-0.376 0.256,-0.435C0.256,-0.46 0.254,-0.473 0.251,-0.474Z" style="fill-rule:nonzero;"/>
        </g>
        <g transform="matrix(179.167,0,0,179.167,687.266,509.013)">
            <path d="M0.396,-0.523C0.399,-0.512 0.395,-0.504 0.385,-0.497C0.377,-0.493 0.369,-0.489 0.362,-0.484C0.32,-0.42 0.263,-0.334 0.191,-0.225C0.191,-0.119 0.191,-0.064 0.192,-0.061C0.193,-0.058 0.195,-0.049 0.2,-0.036C0.204,-0.022 0.206,-0.011 0.206,-0.003C0.206,0.01 0.2,0.018 0.189,0.023C0.182,0.026 0.172,0.028 0.159,0.028C0.134,0.028 0.106,0.022 0.075,0.011C0.036,-0.002 0.017,-0.019 0.017,-0.04C0.017,-0.046 0.02,-0.056 0.025,-0.069C0.03,-0.082 0.033,-0.093 0.033,-0.102L0.033,-0.498C0.026,-0.535 0.022,-0.555 0.022,-0.556C0.022,-0.577 0.031,-0.59 0.05,-0.595C0.058,-0.597 0.068,-0.598 0.079,-0.598C0.102,-0.598 0.127,-0.594 0.153,-0.587C0.178,-0.579 0.193,-0.571 0.198,-0.562C0.199,-0.559 0.2,-0.556 0.2,-0.552C0.2,-0.549 0.195,-0.533 0.186,-0.504L0.186,-0.456C0.202,-0.485 0.218,-0.513 0.233,-0.542C0.254,-0.578 0.269,-0.597 0.279,-0.599C0.294,-0.602 0.316,-0.593 0.346,-0.573C0.376,-0.553 0.393,-0.536 0.396,-0.523Z" style="fill-rule:nonzero;"/>
        </g>
        <g transform="matrix(179.167,0,0,179.167,758.933,509.013)">
            <path d="M0.69,-0.521C0.659,-0.437 0.627,-0.333 0.596,-0.21C0.567,-0.101 0.554,-0.039 0.555,-0.024L0.555,0.013C0.554,0.03 0.548,0.04 0.537,0.042C0.528,0.043 0.499,0.038 0.451,0.026C0.401,0.013 0.374,0.003 0.371,-0.005C0.37,-0.008 0.369,-0.024 0.369,-0.051C0.351,-0.106 0.337,-0.189 0.326,-0.3C0.323,-0.281 0.311,-0.233 0.292,-0.154C0.277,-0.095 0.27,-0.057 0.27,-0.04C0.269,-0.026 0.269,-0.012 0.268,0.001C0.267,0.02 0.26,0.031 0.249,0.034C0.246,0.035 0.242,0.035 0.236,0.035C0.212,0.035 0.185,0.03 0.156,0.021C0.121,0.01 0.101,-0.003 0.094,-0.018C0.092,-0.022 0.091,-0.028 0.093,-0.035C0.093,-0.042 0.093,-0.051 0.091,-0.062C0.077,-0.136 0.063,-0.21 0.049,-0.283C0.035,-0.36 0.024,-0.437 0.016,-0.515C0.014,-0.536 0.013,-0.548 0.013,-0.551C0.013,-0.578 0.022,-0.592 0.039,-0.591C0.054,-0.59 0.078,-0.583 0.111,-0.57C0.147,-0.555 0.166,-0.544 0.168,-0.535C0.169,-0.53 0.169,-0.516 0.166,-0.492C0.17,-0.441 0.18,-0.35 0.197,-0.22L0.266,-0.549C0.271,-0.573 0.282,-0.587 0.297,-0.59C0.302,-0.591 0.323,-0.583 0.358,-0.566C0.393,-0.549 0.41,-0.537 0.41,-0.531C0.413,-0.468 0.428,-0.365 0.454,-0.22C0.493,-0.412 0.52,-0.523 0.533,-0.554C0.538,-0.579 0.552,-0.59 0.573,-0.587C0.589,-0.585 0.61,-0.578 0.636,-0.565C0.667,-0.55 0.685,-0.536 0.69,-0.521Z" style="fill-rule:nonzero;"/>
        </g>
        <g transform="matrix(179.167,0,0,179.167,884.35,509.013)">
            <path d="M0.412,-0.747C0.413,-0.742 0.41,-0.732 0.402,-0.717C0.394,-0.7 0.39,-0.687 0.39,-0.678C0.391,-0.674 0.391,-0.668 0.39,-0.659C0.387,-0.644 0.383,-0.635 0.377,-0.632C0.369,-0.629 0.351,-0.634 0.324,-0.647C0.297,-0.66 0.281,-0.67 0.278,-0.677C0.275,-0.682 0.279,-0.697 0.289,-0.722C0.298,-0.743 0.305,-0.759 0.312,-0.77C0.315,-0.775 0.321,-0.778 0.329,-0.778C0.324,-0.778 0.34,-0.775 0.377,-0.768C0.398,-0.764 0.41,-0.757 0.412,-0.747ZM0.244,-0.747C0.245,-0.742 0.242,-0.732 0.234,-0.717C0.226,-0.7 0.222,-0.687 0.222,-0.678C0.223,-0.674 0.223,-0.668 0.222,-0.659C0.219,-0.644 0.215,-0.635 0.209,-0.632C0.201,-0.629 0.183,-0.634 0.156,-0.647C0.129,-0.66 0.113,-0.67 0.11,-0.677C0.107,-0.682 0.111,-0.697 0.121,-0.722C0.13,-0.743 0.137,-0.759 0.144,-0.77C0.147,-0.775 0.153,-0.778 0.161,-0.778C0.156,-0.778 0.172,-0.775 0.209,-0.768C0.23,-0.764 0.242,-0.757 0.244,-0.747ZM0.486,-0.015C0.485,-0.006 0.481,0.002 0.474,0.009C0.467,0.016 0.458,0.018 0.449,0.017C0.366,0.006 0.32,-0.01 0.311,-0.03C0.31,-0.033 0.309,-0.035 0.309,-0.038C0.309,-0.041 0.311,-0.045 0.314,-0.049C0.317,-0.053 0.318,-0.057 0.319,-0.06C0.32,-0.063 0.321,-0.065 0.323,-0.068C0.324,-0.073 0.325,-0.085 0.324,-0.103C0.316,-0.097 0.304,-0.081 0.288,-0.055C0.271,-0.026 0.257,-0.006 0.244,0.005C0.223,0.025 0.198,0.035 0.171,0.035C0.155,0.035 0.139,0.029 0.124,0.016C0.117,0.01 0.104,-0.003 0.085,-0.023C0.053,-0.059 0.036,-0.079 0.033,-0.082C0.019,-0.101 0.012,-0.118 0.012,-0.135C0.012,-0.14 0.013,-0.146 0.014,-0.151C0.027,-0.21 0.066,-0.265 0.132,-0.318C0.18,-0.356 0.248,-0.396 0.336,-0.439C0.336,-0.46 0.331,-0.474 0.32,-0.48C0.313,-0.484 0.29,-0.476 0.25,-0.458C0.21,-0.439 0.182,-0.422 0.166,-0.409C0.161,-0.404 0.152,-0.396 0.14,-0.387C0.129,-0.38 0.118,-0.378 0.109,-0.381C0.102,-0.383 0.086,-0.395 0.062,-0.417C0.038,-0.439 0.025,-0.454 0.023,-0.461C0.018,-0.479 0.023,-0.493 0.04,-0.503C0.041,-0.504 0.054,-0.508 0.08,-0.515C0.105,-0.528 0.129,-0.542 0.154,-0.555C0.206,-0.58 0.25,-0.593 0.286,-0.595C0.301,-0.596 0.319,-0.588 0.338,-0.571C0.355,-0.556 0.373,-0.541 0.391,-0.526C0.408,-0.51 0.426,-0.496 0.445,-0.482C0.466,-0.463 0.477,-0.445 0.477,-0.428L0.477,-0.05C0.484,-0.033 0.487,-0.021 0.486,-0.015ZM0.326,-0.307C0.293,-0.294 0.265,-0.275 0.242,-0.249C0.225,-0.228 0.207,-0.207 0.19,-0.186C0.176,-0.172 0.163,-0.154 0.151,-0.132C0.138,-0.109 0.132,-0.093 0.132,-0.082C0.132,-0.077 0.134,-0.074 0.138,-0.074C0.152,-0.074 0.183,-0.104 0.232,-0.165C0.281,-0.225 0.312,-0.272 0.326,-0.307Z" style="fill-rule:nonzero;"/>
        </g>
        <g transform="matrix(179.167,0,0,179.167,975.725,509.013)">
            <path d="M0.396,-0.523C0.399,-0.512 0.395,-0.504 0.385,-0.497C0.377,-0.493 0.369,-0.489 0.362,-0.484C0.32,-0.42 0.263,-0.334 0.191,-0.225C0.191,-0.119 0.191,-0.064 0.192,-0.061C0.193,-0.058 0.195,-0.049 0.2,-0.036C0.204,-0.022 0.206,-0.011 0.206,-0.003C0.206,0.01 0.2,0.018 0.189,0.023C0.182,0.026 0.172,0.028 0.159,0.028C0.134,0.028 0.106,0.022 0.075,0.011C0.036,-0.002 0.017,-0.019 0.017,-0.04C0.017,-0.046 0.02,-0.056 0.025,-0.069C0.03,-0.082 0.033,-0.093 0.033,-0.102L0.033,-0.498C0.026,-0.535 0.022,-0.555 0.022,-0.556C0.022,-0.577 0.031,-0.59 0.05,-0.595C0.058,-0.597 0.068,-0.598 0.079,-0.598C0.102,-0.598 0.127,-0.594 0.153,-0.587C0.178,-0.579 0.193,-0.571 0.198,-0.562C0.199,-0.559 0.2,-0.556 0.2,-0.552C0.2,-0.549 0.195,-0.533 0.186,-0.504L0.186,-0.456C0.202,-0.485 0.218,-0.513 0.233,-0.542C0.254,-0.578 0.269,-0.597 0.279,-0.599C0.294,-0.602 0.316,-0.593 0.346,-0.573C0.376,-0.553 0.393,-0.536 0.396,-0.523Z" style="fill-rule:nonzero;"/>
        </g>
        <g transform="matrix(179.167,0,0,179.167,1047.39,509.013)">
            <path d="M0.384,-0.483C0.383,-0.471 0.379,-0.46 0.372,-0.451C0.365,-0.442 0.357,-0.437 0.348,-0.437C0.345,-0.437 0.343,-0.437 0.341,-0.438C0.332,-0.441 0.311,-0.443 0.278,-0.443L0.278,-0.048C0.278,-0.049 0.28,-0.043 0.285,-0.032C0.289,-0.021 0.291,-0.011 0.291,-0.002C0.291,0.017 0.278,0.028 0.251,0.029C0.237,0.03 0.211,0.024 0.174,0.011C0.133,-0.002 0.112,-0.015 0.109,-0.026C0.108,-0.031 0.11,-0.041 0.116,-0.056C0.122,-0.07 0.125,-0.082 0.125,-0.09L0.125,-0.444L0.091,-0.444C0.078,-0.444 0.063,-0.455 0.044,-0.478C0.025,-0.5 0.016,-0.518 0.016,-0.531C0.016,-0.541 0.02,-0.55 0.028,-0.558C0.035,-0.566 0.044,-0.57 0.053,-0.57L0.125,-0.57L0.125,-0.66C0.115,-0.673 0.11,-0.688 0.11,-0.703C0.11,-0.717 0.116,-0.726 0.128,-0.729C0.134,-0.73 0.142,-0.731 0.153,-0.731C0.178,-0.731 0.207,-0.727 0.24,-0.72C0.273,-0.712 0.294,-0.704 0.304,-0.696C0.309,-0.692 0.311,-0.687 0.311,-0.682C0.311,-0.675 0.306,-0.665 0.295,-0.652C0.284,-0.639 0.279,-0.629 0.278,-0.624L0.278,-0.57L0.31,-0.57C0.317,-0.57 0.331,-0.558 0.352,-0.534C0.373,-0.51 0.384,-0.493 0.384,-0.483Z" style="fill-rule:nonzero;"/>
        </g>
        <g transform="matrix(179.167,0,0,179.167,1119.06,509.013)">
            <path d="M0.389,-0.092C0.389,-0.055 0.377,-0.026 0.353,-0.004C0.328,0.018 0.294,0.029 0.25,0.03C0.239,0.03 0.228,0.028 0.215,0.025C0.192,0.019 0.18,0.016 0.179,0.015C0.167,0.012 0.155,0.01 0.143,0.007C0.13,0.004 0.12,-0.002 0.111,-0.009C0.096,-0.022 0.082,-0.041 0.068,-0.064C0.057,-0.083 0.046,-0.102 0.035,-0.121C0.024,-0.14 0.019,-0.152 0.019,-0.156C0.019,-0.165 0.026,-0.172 0.039,-0.177C0.042,-0.178 0.048,-0.179 0.057,-0.179C0.077,-0.179 0.102,-0.177 0.133,-0.173C0.163,-0.168 0.179,-0.165 0.182,-0.162C0.185,-0.159 0.188,-0.139 0.193,-0.104C0.197,-0.073 0.204,-0.058 0.214,-0.058C0.229,-0.058 0.237,-0.079 0.237,-0.12C0.237,-0.173 0.223,-0.206 0.195,-0.219C0.131,-0.249 0.089,-0.276 0.069,-0.299C0.044,-0.328 0.032,-0.371 0.032,-0.429C0.032,-0.467 0.042,-0.503 0.062,-0.537C0.082,-0.57 0.106,-0.59 0.133,-0.597C0.145,-0.6 0.184,-0.587 0.249,-0.559C0.255,-0.557 0.273,-0.553 0.302,-0.548C0.323,-0.544 0.337,-0.537 0.346,-0.527C0.359,-0.512 0.366,-0.487 0.368,-0.454C0.369,-0.429 0.369,-0.405 0.369,-0.38C0.374,-0.357 0.376,-0.344 0.376,-0.34C0.376,-0.321 0.367,-0.311 0.349,-0.308C0.34,-0.307 0.321,-0.31 0.294,-0.319C0.264,-0.329 0.245,-0.339 0.237,-0.35C0.235,-0.353 0.233,-0.378 0.231,-0.425C0.229,-0.47 0.224,-0.492 0.217,-0.492C0.207,-0.492 0.198,-0.479 0.189,-0.453C0.18,-0.427 0.176,-0.4 0.176,-0.372C0.176,-0.337 0.184,-0.314 0.199,-0.305C0.232,-0.287 0.264,-0.269 0.297,-0.251C0.329,-0.232 0.351,-0.213 0.364,-0.194C0.381,-0.169 0.389,-0.135 0.389,-0.092Z" style="fill-rule:nonzero;"/>
        </g>
        <g transform="matrix(179.167,0,0,179.167,1192.52,509.013)">
            <path d="M0.198,-0.288C0.197,-0.263 0.19,-0.25 0.179,-0.247C0.176,-0.246 0.172,-0.246 0.169,-0.246C0.15,-0.246 0.125,-0.254 0.096,-0.269C0.067,-0.284 0.043,-0.303 0.024,-0.324C0.016,-0.333 0.016,-0.349 0.024,-0.372C0.032,-0.395 0.036,-0.407 0.036,-0.408L0.036,-0.786C0.036,-0.803 0.046,-0.815 0.066,-0.822C0.07,-0.823 0.076,-0.824 0.083,-0.824C0.102,-0.824 0.123,-0.82 0.147,-0.812C0.171,-0.804 0.186,-0.795 0.192,-0.786C0.193,-0.784 0.194,-0.766 0.194,-0.732L0.194,-0.324C0.194,-0.32 0.195,-0.314 0.196,-0.307C0.197,-0.299 0.198,-0.293 0.198,-0.288ZM0.198,-0.143C0.2,-0.137 0.2,-0.121 0.198,-0.094C0.195,-0.059 0.194,-0.038 0.194,-0.03C0.194,-0.003 0.193,0.017 0.19,0.032C0.187,0.047 0.179,0.055 0.165,0.058C0.157,0.06 0.134,0.053 0.096,0.038C0.056,0.021 0.032,0.007 0.024,-0.005C0.019,-0.012 0.021,-0.024 0.029,-0.041C0.033,-0.048 0.035,-0.061 0.036,-0.078C0.035,-0.093 0.035,-0.121 0.036,-0.162C0.039,-0.186 0.049,-0.198 0.066,-0.197C0.085,-0.196 0.111,-0.188 0.144,-0.175C0.177,-0.161 0.195,-0.15 0.198,-0.143Z" style="fill-rule:nonzero;"/>
        </g>
    </g>
</svg>
