<?xml version="1.0" encoding="utf-8"?>
<svg viewBox="0 0 2177 156" version="1.1" style="fill:rgb(31,32,52);" xmlns="http://www.w3.org/2000/svg">
  <g>
    <path d="M 0 26.604 L 0 7 L 100.088 7 L 100.088 26.604 L 60.504 26.604 L 60.504 151.309 L 39.767 151.309 L 39.767 26.604 L 0 26.604 Z"/>
    <path d="M 105.679 151.309 L 105.679 7 L 126.038 7 L 126.038 63.625 L 130.679 59.934 L 146.396 51.792 L 167.892 51.792 L 186.071 61.167 L 194.025 85.217 L 194.025 151.309 L 174.046 151.309 L 174.046 88.246 L 169.596 75.463 L 163.063 71.959 L 148.859 71.959 L 139.2 76.696 L 126.038 88.438 L 126.038 151.309 L 105.679 151.309 Z"/>
    <path d="M 203.788 107.284 L 203.788 97.625 L 210.417 75.279 L 224.713 59.938 L 240.809 51.796 L 264.105 51.796 L 280.2 59.938 L 288.534 68.554 L 296.68 84.367 L 296.68 108.229 L 223.575 108.229 L 227.271 118.929 L 236.359 128.021 L 245.638 132.85 L 259.463 132.85 L 268.367 128.209 L 279.446 117.417 L 293.555 131.713 L 280.2 144.875 L 264.105 153.017 L 240.809 153.017 L 224.713 144.875 L 210.417 129.629 L 203.788 107.284 Z M 225.28 90.996 L 277.646 90.996 L 275.184 81.717 L 269.121 74.709 L 259.655 69.692 L 245.071 69.692 L 235.98 74.521 L 226.321 85.979 L 225.28 90.996 Z"/>
    <path d="M 300.946 107.284 L 300.946 97.625 L 308.521 75.279 L 323.671 59.938 L 339.959 51.796 L 359.559 51.796 L 375.371 59.938 L 375.371 53.592 L 395.825 53.592 L 395.825 121.675 L 410.313 143.738 L 393.838 155.196 L 384.18 140.613 L 364.2 153.017 L 339.959 153.017 L 323.671 144.875 L 308.521 129.629 L 300.946 107.284 Z M 321.117 104.159 L 326.134 118.929 L 335.317 128.021 L 344.6 132.85 L 358.896 132.85 L 375.371 122.813 L 375.371 84.842 L 367.23 76.7 L 358.517 71.963 L 344.409 71.963 L 335.696 76.7 L 326.134 85.979 L 321.117 100.938 L 321.117 104.159 Z"/>
    <path d="M 405.871 73.767 L 405.871 53.596 L 423.484 53.596 L 423.484 22.35 L 443.842 22.35 L 443.842 53.596 L 468.271 53.596 L 468.271 73.767 L 443.842 73.767 L 443.842 114.863 L 448.292 127.834 L 454.73 131.15 L 468.084 131.15 L 468.084 151.317 L 449.901 151.317 L 431.626 142.229 L 423.484 118.175 L 423.484 73.767 L 405.871 73.767 Z"/>
    <path d="M 475.663 107.284 L 475.663 97.625 L 482.292 75.279 L 496.592 59.938 L 512.688 51.796 L 535.984 51.796 L 552.08 59.938 L 560.413 68.554 L 568.555 84.367 L 568.555 108.229 L 495.455 108.229 L 499.146 118.929 L 508.238 128.021 L 517.517 132.85 L 531.342 132.85 L 540.242 128.209 L 551.321 117.417 L 565.43 131.713 L 552.08 144.875 L 535.984 153.017 L 512.688 153.017 L 496.592 144.875 L 482.292 129.629 L 475.663 107.284 Z M 497.159 90.996 L 549.521 90.996 L 547.059 81.717 L 541.001 74.709 L 531.53 69.692 L 516.951 69.692 L 507.859 74.521 L 498.201 85.979 L 497.159 90.996 Z"/>
    <path d="M 578.884 151.317 L 578.884 53.596 L 599.051 53.596 L 599.051 61.55 L 613.351 51.8 L 624.809 51.8 L 643.18 61.175 L 649.997 81.534 L 631.247 88.254 L 625.947 75.471 L 620.547 71.967 L 615.151 71.967 L 599.051 84.371 L 599.051 151.317 L 578.884 151.317 Z"/>
  </g>
  <g>
    <path d="M 653.505 151.309 L 653.505 7 L 674.055 7 L 674.055 76.696 L 743.651 7 L 772.913 7 L 709.088 70.634 L 769.597 151.309 L 743.651 151.309 L 694.413 85.404 L 674.055 105.575 L 674.055 151.309 L 653.505 151.309 Z"/>
    <path d="M 768.467 119.692 L 768.467 53.596 L 788.638 53.596 L 788.638 116.567 L 793.088 129.634 L 799.717 132.854 L 813.634 132.854 L 823.576 128.213 L 836.738 116.567 L 836.738 53.596 L 857.097 53.596 L 857.097 151.317 L 836.738 151.317 L 836.738 138.725 L 832.101 144.879 L 816.38 153.021 L 794.888 153.021 L 776.613 143.742 L 768.467 119.692 Z"/>
    <path d="M 872.255 124.892 L 872.255 7 L 892.426 7 L 892.426 120.629 L 896.684 128.775 L 899.055 131.142 L 912.593 131.142 L 912.593 151.309 L 890.53 151.309 L 880.209 140.988 L 872.255 124.892 Z"/>
    <path d="M 909.476 73.767 L 909.476 53.596 L 927.088 53.596 L 927.088 22.35 L 947.447 22.35 L 947.447 53.596 L 971.876 53.596 L 971.876 73.767 L 947.447 73.767 L 947.447 114.863 L 951.897 127.834 L 958.334 131.15 L 971.688 131.15 L 971.688 151.317 L 953.505 151.317 L 935.23 142.229 L 927.088 118.175 L 927.088 73.767 L 909.476 73.767 Z"/>
    <path d="M 984.101 119.692 L 984.101 53.596 L 1004.268 53.596 L 1004.268 116.567 L 1008.718 129.634 L 1015.347 132.854 L 1029.268 132.854 L 1039.209 128.213 L 1052.372 116.567 L 1052.372 53.596 L 1072.73 53.596 L 1072.73 151.317 L 1052.372 151.317 L 1052.372 138.725 L 1047.73 144.879 L 1032.013 153.021 L 1010.518 153.021 L 992.243 143.742 L 984.101 119.692 Z"/>
    <path d="M 1089.684 151.317 L 1089.684 53.596 L 1109.855 53.596 L 1109.855 61.55 L 1124.155 51.8 L 1135.609 51.8 L 1153.98 61.175 L 1160.797 81.534 L 1142.051 88.254 L 1136.747 75.471 L 1131.351 71.967 L 1125.951 71.967 L 1109.855 84.371 L 1109.855 151.317 L 1089.684 151.317 Z"/>
  </g>
  <g>
    <path d="M 1202.989 149.134 L 1202.989 4.825 L 1223.539 4.825 L 1223.539 74.517 L 1293.135 4.825 L 1322.393 4.825 L 1258.572 68.454 L 1319.08 149.134 L 1293.135 149.134 L 1243.897 83.229 L 1223.539 103.396 L 1223.539 149.134 L 1202.989 149.134 Z"/>
    <path d="M 1312.647 105.104 L 1312.647 95.446 L 1320.222 73.1 L 1335.376 57.759 L 1351.66 49.617 L 1371.264 49.617 L 1387.076 57.759 L 1387.076 51.417 L 1407.53 51.417 L 1407.53 119.5 L 1422.018 141.563 L 1405.539 153.017 L 1395.88 138.438 L 1375.901 150.842 L 1351.66 150.842 L 1335.376 142.696 L 1320.222 127.454 L 1312.647 105.104 Z M 1332.818 101.979 L 1337.835 116.754 L 1347.022 125.842 L 1356.301 130.671 L 1370.601 130.671 L 1387.076 120.634 L 1387.076 82.663 L 1378.93 74.521 L 1370.222 69.788 L 1356.11 69.788 L 1347.401 74.521 L 1337.835 83.8 L 1332.818 98.763 L 1332.818 101.979 Z"/>
    <rect x="1430.547" y="51.417" width="20.358" height="97.721"/>
    <path d="M 1463.693 78.596 L 1473.447 57.575 L 1496.456 49.621 L 1510.66 49.621 L 1532.914 57.763 L 1542.289 74.242 L 1524.768 82.384 L 1519.939 73.484 L 1507.347 67.896 L 1499.393 67.896 L 1486.797 72.538 L 1484.997 78.313 L 1487.555 83.425 L 1495.701 87.875 L 1517.193 93.084 L 1532.722 101.225 L 1541.056 115.429 L 1541.056 124.521 L 1531.964 142.7 L 1510.66 150.846 L 1496.456 150.846 L 1473.26 142.7 L 1464.072 126.225 L 1482.347 117.704 L 1487.555 127.267 L 1499.581 132.663 L 1507.347 132.663 L 1518.614 128.025 L 1522.306 122.154 L 1519.56 116.188 L 1511.231 111.929 L 1489.26 105.867 L 1472.785 97.725 L 1463.693 78.596 Z"/>
    <path d="M 1547.501 105.109 L 1547.501 95.45 L 1554.131 73.104 L 1568.431 57.763 L 1584.526 49.621 L 1607.818 49.621 L 1623.918 57.763 L 1632.251 66.379 L 1640.393 82.196 L 1640.393 106.059 L 1567.293 106.059 L 1570.985 116.759 L 1580.076 125.846 L 1589.356 130.675 L 1603.181 130.675 L 1612.081 126.038 L 1623.16 115.242 L 1637.268 129.538 L 1623.918 142.7 L 1607.818 150.846 L 1584.526 150.846 L 1568.431 142.7 L 1554.131 127.459 L 1547.501 105.109 Z M 1568.997 88.821 L 1621.36 88.821 L 1618.897 79.542 L 1612.839 72.538 L 1603.368 67.517 L 1588.789 67.517 L 1579.697 72.346 L 1570.039 83.804 L 1568.997 88.821 Z"/>
    <path d="M 1650.722 149.138 L 1650.722 51.417 L 1670.889 51.417 L 1670.889 59.371 L 1685.189 49.617 L 1696.647 49.617 L 1715.018 58.992 L 1721.835 79.35 L 1703.085 86.071 L 1697.785 73.288 L 1692.385 69.788 L 1686.989 69.788 L 1670.889 82.192 L 1670.889 149.138 L 1650.722 149.138 Z"/>
    <path d="M 1719.664 78.596 L 1729.418 57.575 L 1752.427 49.621 L 1766.631 49.621 L 1788.881 57.763 L 1798.256 74.242 L 1780.739 82.384 L 1775.91 73.484 L 1763.314 67.896 L 1755.36 67.896 L 1742.768 72.538 L 1740.968 78.313 L 1743.527 83.425 L 1751.668 87.875 L 1773.164 93.084 L 1788.693 101.225 L 1797.027 115.429 L 1797.027 124.521 L 1787.935 142.7 L 1766.631 150.846 L 1752.427 150.846 L 1729.227 142.7 L 1720.043 126.225 L 1738.318 117.704 L 1743.527 127.267 L 1755.552 132.663 L 1763.314 132.663 L 1774.585 128.025 L 1778.277 122.154 L 1775.531 116.188 L 1767.197 111.929 L 1745.231 105.867 L 1728.752 97.725 L 1719.664 78.596 Z"/>
    <path d="M 1803.472 105.109 L 1803.472 95.45 L 1810.102 73.104 L 1824.397 57.763 L 1840.493 49.621 L 1863.789 49.621 L 1879.885 57.763 L 1888.218 66.379 L 1896.364 82.196 L 1896.364 106.059 L 1823.26 106.059 L 1826.956 116.759 L 1836.043 125.846 L 1845.322 130.675 L 1859.147 130.675 L 1868.052 126.038 L 1879.131 115.242 L 1893.239 129.538 L 1879.885 142.7 L 1863.789 150.846 L 1840.493 150.846 L 1824.397 142.7 L 1810.102 127.459 L 1803.472 105.109 Z M 1824.964 88.821 L 1877.331 88.821 L 1874.868 79.542 L 1868.806 72.538 L 1859.339 67.517 L 1844.756 67.517 L 1835.664 72.346 L 1826.006 83.804 L 1824.964 88.821 Z"/>
    <path d="M 1901.01 78.596 L 1910.764 57.575 L 1933.773 49.621 L 1947.977 49.621 L 1970.227 57.763 L 1979.602 74.242 L 1962.085 82.384 L 1957.256 73.484 L 1944.66 67.896 L 1936.706 67.896 L 1924.114 72.538 L 1922.314 78.313 L 1924.872 83.425 L 1933.014 87.875 L 1954.51 93.084 L 1970.039 101.225 L 1978.373 115.429 L 1978.373 124.521 L 1969.281 142.7 L 1947.977 150.846 L 1933.773 150.846 L 1910.572 142.7 L 1901.389 126.225 L 1919.664 117.704 L 1924.872 127.267 L 1936.898 132.663 L 1944.66 132.663 L 1955.931 128.025 L 1959.623 122.154 L 1956.877 116.188 L 1948.543 111.929 L 1926.577 105.867 L 1910.102 97.725 L 1901.01 78.596 Z"/>
    <path d="M 1984.818 105.109 L 1984.818 95.45 L 1992.393 73.104 L 2007.543 57.763 L 2023.639 49.621 L 2046.839 49.621 L 2062.939 57.763 L 2078.089 72.917 L 2063.789 87.309 L 2051.102 74.713 L 2042.01 69.792 L 2028.089 69.792 L 2019.381 74.525 L 2010.006 83.804 L 2004.985 98.767 L 2004.985 101.984 L 2010.006 116.759 L 2019.189 125.846 L 2028.468 130.675 L 2042.202 130.675 L 2051.102 126.038 L 2064.168 113.063 L 2078.277 127.459 L 2062.939 142.7 L 2046.839 150.846 L 2023.639 150.846 L 2007.543 142.7 L 1992.393 127.459 L 1984.818 105.109 Z"/>
    <path d="M 2087.848 149.134 L 2087.848 4.825 L 2108.206 4.825 L 2108.206 61.45 L 2112.848 57.754 L 2128.564 49.613 L 2150.06 49.613 L 2168.239 58.988 L 2176.194 83.038 L 2176.194 149.134 L 2156.214 149.134 L 2156.214 86.067 L 2151.764 73.284 L 2145.231 69.784 L 2131.027 69.784 L 2121.368 74.517 L 2108.206 86.259 L 2108.206 149.134 L 2087.848 149.134 Z"/>
  </g>
  <g>
    <path d="M 1421.264 19.599 L 1440.582 -0.003 L 1459.994 19.596 L 1440.58 39.01 L 1421.264 19.599 Z"/>
  </g>
</svg>
