<?xml version="1.0" encoding="utf-8"?>
<svg viewBox="0 0 572 273" version="1.1" style="fill:rgb(31,32,52);" xmlns="http://www.w3.org/2000/svg">
  <g>
    <path d="M 194.978 12.233 L 194.978 0.906 L 252.811 0.906 L 252.811 12.233 L 229.94 12.233 L 229.94 84.289 L 217.958 84.289 L 217.958 12.233 L 194.978 12.233 Z"/>
    <path d="M 256.043 84.289 L 256.043 0.906 L 267.805 0.906 L 267.805 33.624 L 270.488 31.492 L 279.569 26.785 L 291.99 26.785 L 302.494 32.202 L 307.09 46.099 L 307.09 84.289 L 295.545 84.289 L 295.545 47.849 L 292.973 40.465 L 289.199 38.439 L 280.993 38.439 L 275.411 41.175 L 267.805 47.96 L 267.805 84.289 L 256.043 84.289 Z"/>
    <path d="M 312.73 58.848 L 312.73 53.267 L 316.559 40.354 L 324.821 31.492 L 334.123 26.785 L 347.582 26.785 L 356.884 31.492 L 361.698 36.469 L 366.403 45.607 L 366.403 59.394 L 324.164 59.394 L 326.299 65.577 L 331.551 70.829 L 336.912 73.62 L 344.901 73.62 L 350.043 70.939 L 356.446 64.701 L 364.598 72.963 L 356.884 80.569 L 347.582 85.273 L 334.123 85.273 L 324.821 80.569 L 316.559 71.76 L 312.73 58.848 Z M 325.15 49.437 L 355.406 49.437 L 353.983 44.075 L 350.481 40.027 L 345.01 37.126 L 336.585 37.126 L 331.332 39.917 L 325.751 46.536 L 325.15 49.437 Z"/>
    <path d="M 368.87 58.848 L 368.87 53.267 L 373.247 40.354 L 382.001 31.492 L 391.412 26.785 L 402.736 26.785 L 411.873 31.492 L 411.873 27.825 L 423.691 27.825 L 423.691 67.165 L 432.062 79.912 L 422.543 86.532 L 416.961 78.107 L 405.418 85.273 L 391.412 85.273 L 382.001 80.569 L 373.247 71.76 L 368.87 58.848 Z M 380.523 57.041 L 383.423 65.577 L 388.729 70.829 L 394.092 73.62 L 402.354 73.62 L 411.873 67.821 L 411.873 45.88 L 407.169 41.175 L 402.135 38.439 L 393.982 38.439 L 388.948 41.175 L 383.423 46.536 L 380.523 55.182 L 380.523 57.041 Z"/>
    <path d="M 429.495 39.479 L 429.495 27.825 L 439.671 27.825 L 439.671 9.769 L 451.435 9.769 L 451.435 27.825 L 465.552 27.825 L 465.552 39.479 L 451.435 39.479 L 451.435 63.225 L 454.007 70.72 L 457.727 72.636 L 465.442 72.636 L 465.442 84.289 L 454.937 84.289 L 444.377 79.037 L 439.671 65.139 L 439.671 39.479 L 429.495 39.479 Z"/>
    <path d="M 469.822 58.848 L 469.822 53.267 L 473.653 40.354 L 481.915 31.492 L 491.215 26.785 L 504.676 26.785 L 513.976 31.492 L 518.791 36.469 L 523.497 45.607 L 523.497 59.394 L 481.258 59.394 L 483.391 65.577 L 488.643 70.829 L 494.006 73.62 L 501.993 73.62 L 507.137 70.939 L 513.538 64.701 L 521.69 72.963 L 513.976 80.569 L 504.676 85.273 L 491.215 85.273 L 481.915 80.569 L 473.653 71.76 L 469.822 58.848 Z M 482.242 49.437 L 512.498 49.437 L 511.077 44.075 L 507.575 40.027 L 502.104 37.126 L 493.677 37.126 L 488.425 39.917 L 482.845 46.536 L 482.242 49.437 Z"/>
    <path d="M 529.464 84.289 L 529.464 27.825 L 541.117 27.825 L 541.117 32.421 L 549.379 26.785 L 555.999 26.785 L 566.614 32.202 L 570.554 43.966 L 559.72 47.849 L 556.656 40.465 L 553.538 38.439 L 550.419 38.439 L 541.117 45.607 L 541.117 84.289 L 529.464 84.289 Z"/>
  </g>
  <g>
    <path d="M 277.388 177.569 L 277.388 94.187 L 289.26 94.187 L 289.26 134.456 L 329.475 94.187 L 346.38 94.187 L 309.505 130.954 L 344.467 177.569 L 329.475 177.569 L 301.024 139.489 L 289.26 151.143 L 289.26 177.569 L 277.388 177.569 Z"/>
    <path d="M 343.814 159.296 L 343.814 121.106 L 355.467 121.106 L 355.467 157.489 L 358.039 165.041 L 361.868 166.9 L 369.911 166.9 L 375.656 164.219 L 383.261 157.489 L 383.261 121.106 L 395.025 121.106 L 395.025 177.569 L 383.261 177.569 L 383.261 170.293 L 380.581 173.849 L 371.498 178.555 L 359.079 178.555 L 348.518 173.192 L 343.814 159.296 Z"/>
    <path d="M 403.783 162.304 L 403.783 94.187 L 415.436 94.187 L 415.436 159.842 L 417.9 164.549 L 419.267 165.916 L 427.092 165.916 L 427.092 177.569 L 414.342 177.569 L 408.379 171.606 L 403.783 162.304 Z"/>
    <path d="M 425.29 132.759 L 425.29 121.106 L 435.466 121.106 L 435.466 103.051 L 447.229 103.051 L 447.229 121.106 L 461.345 121.106 L 461.345 132.759 L 447.229 132.759 L 447.229 156.505 L 449.801 164.001 L 453.522 165.916 L 461.236 165.916 L 461.236 177.569 L 450.731 177.569 L 440.172 172.317 L 435.466 158.421 L 435.466 132.759 L 425.29 132.759 Z"/>
    <path d="M 468.407 159.296 L 468.407 121.106 L 480.061 121.106 L 480.061 157.489 L 482.633 165.041 L 486.462 166.9 L 494.505 166.9 L 500.25 164.219 L 507.855 157.489 L 507.855 121.106 L 519.619 121.106 L 519.619 177.569 L 507.855 177.569 L 507.855 170.293 L 505.175 173.849 L 496.091 178.555 L 483.673 178.555 L 473.112 173.192 L 468.407 159.296 Z"/>
    <path d="M 529.416 177.569 L 529.416 121.106 L 541.07 121.106 L 541.07 125.701 L 549.332 120.066 L 555.952 120.066 L 566.567 125.483 L 570.506 137.246 L 559.672 141.131 L 556.608 133.745 L 553.49 131.721 L 550.372 131.721 L 541.07 138.887 L 541.07 177.569 L 529.416 177.569 Z"/>
  </g>
  <g>
    <path d="M 8.093 270.85 L 8.093 187.467 L 19.965 187.467 L 19.965 227.736 L 60.18 187.467 L 77.085 187.467 L 40.21 224.234 L 75.172 270.85 L 60.18 270.85 L 31.729 232.769 L 19.965 244.425 L 19.965 270.85 L 8.093 270.85 Z"/>
    <path d="M 71.455 245.409 L 71.455 239.829 L 75.832 226.916 L 84.586 218.052 L 93.997 213.347 L 105.323 213.347 L 114.458 218.052 L 114.458 214.386 L 126.276 214.386 L 126.276 253.725 L 134.649 266.473 L 125.128 273.094 L 119.548 264.668 L 108.003 271.835 L 93.997 271.835 L 84.586 267.129 L 75.832 258.321 L 71.455 245.409 Z M 83.108 243.603 L 86.008 252.139 L 91.316 257.391 L 96.677 260.182 L 104.939 260.182 L 114.458 254.381 L 114.458 232.442 L 109.754 227.736 L 104.72 225.001 L 96.569 225.001 L 91.535 227.736 L 86.008 233.099 L 83.108 241.742 L 83.108 243.603 Z"/>
    <rect x="139.576" y="214.386" width="11.764" height="56.464"/>
    <path d="M 158.73 230.089 L 164.366 217.943 L 177.661 213.347 L 185.867 213.347 L 198.725 218.052 L 204.142 227.573 L 194.019 232.277 L 191.23 227.135 L 183.952 223.907 L 179.356 223.907 L 172.08 226.587 L 171.04 229.924 L 172.517 232.88 L 177.224 235.452 L 189.642 238.46 L 198.615 243.166 L 203.43 251.372 L 203.43 256.624 L 198.177 267.129 L 185.867 271.835 L 177.661 271.835 L 164.255 267.129 L 158.949 257.61 L 169.508 252.685 L 172.517 258.212 L 179.466 261.33 L 183.952 261.33 L 190.463 258.65 L 192.598 255.257 L 191.011 251.81 L 186.197 249.348 L 173.503 245.846 L 163.982 241.142 L 158.73 230.089 Z"/>
    <path d="M 207.156 245.409 L 207.156 239.829 L 210.985 226.916 L 219.247 218.052 L 228.547 213.347 L 242.007 213.347 L 251.308 218.052 L 256.123 223.031 L 260.829 232.169 L 260.829 245.957 L 218.59 245.957 L 220.724 252.139 L 225.977 257.391 L 231.338 260.182 L 239.327 260.182 L 244.469 257.5 L 250.87 251.263 L 259.024 259.525 L 251.308 267.129 L 242.007 271.835 L 228.547 271.835 L 219.247 267.129 L 210.985 258.321 L 207.156 245.409 Z M 219.574 235.998 L 249.832 235.998 L 248.408 230.637 L 244.907 226.587 L 239.435 223.688 L 231.011 223.688 L 225.758 226.479 L 220.176 233.099 L 219.574 235.998 Z"/>
    <path d="M 266.796 270.85 L 266.796 214.386 L 278.451 214.386 L 278.451 218.982 L 286.711 213.347 L 293.333 213.347 L 303.946 218.763 L 307.886 230.527 L 297.053 234.412 L 293.989 227.025 L 290.869 225.001 L 287.751 225.001 L 278.451 232.169 L 278.451 270.85 L 266.796 270.85 Z"/>
    <path d="M 306.632 230.089 L 312.266 217.943 L 325.562 213.347 L 333.77 213.347 L 346.626 218.052 L 352.043 227.573 L 341.922 232.277 L 339.131 227.135 L 331.854 223.907 L 327.258 223.907 L 319.982 226.587 L 318.942 229.924 L 320.42 232.88 L 325.124 235.452 L 337.544 238.46 L 346.517 243.166 L 351.332 251.372 L 351.332 256.624 L 346.08 267.129 L 333.77 271.835 L 325.562 271.835 L 312.158 267.129 L 306.851 257.61 L 317.41 252.685 L 320.42 258.212 L 327.367 261.33 L 331.854 261.33 L 338.366 258.65 L 340.498 255.257 L 338.912 251.81 L 334.097 249.348 L 321.404 245.846 L 311.884 241.142 L 306.632 230.089 Z"/>
    <path d="M 355.056 245.409 L 355.056 239.829 L 358.887 226.916 L 367.147 218.052 L 376.449 213.347 L 389.908 213.347 L 399.21 218.052 L 404.025 223.031 L 408.729 232.169 L 408.729 245.957 L 366.491 245.957 L 368.625 252.139 L 373.877 257.391 L 379.24 260.182 L 387.227 260.182 L 392.371 257.5 L 398.772 251.263 L 406.924 259.525 L 399.21 267.129 L 389.908 271.835 L 376.449 271.835 L 367.147 267.129 L 358.887 258.321 L 355.056 245.409 Z M 367.476 235.998 L 397.732 235.998 L 396.311 230.637 L 392.809 226.587 L 387.338 223.688 L 378.911 223.688 L 373.659 226.479 L 368.079 233.099 L 367.476 235.998 Z"/>
    <path d="M 411.415 230.089 L 417.051 217.943 L 430.345 213.347 L 438.553 213.347 L 451.411 218.052 L 456.826 227.573 L 446.705 232.277 L 443.914 227.135 L 436.637 223.907 L 432.041 223.907 L 424.765 226.587 L 423.725 229.924 L 425.203 232.88 L 429.907 235.452 L 442.328 238.46 L 451.3 243.166 L 456.115 251.372 L 456.115 256.624 L 450.863 267.129 L 438.553 271.835 L 430.345 271.835 L 416.941 267.129 L 411.634 257.61 L 422.193 252.685 L 425.203 258.212 L 432.152 261.33 L 436.637 261.33 L 443.149 258.65 L 445.283 255.257 L 443.695 251.81 L 438.88 249.348 L 426.187 245.846 L 416.668 241.142 L 411.415 230.089 Z"/>
    <path d="M 459.839 245.409 L 459.839 239.829 L 464.216 226.916 L 472.97 218.052 L 482.272 213.347 L 495.677 213.347 L 504.979 218.052 L 513.733 226.806 L 505.471 235.122 L 498.138 227.846 L 492.886 225.001 L 484.844 225.001 L 479.811 227.736 L 474.394 233.099 L 471.494 241.742 L 471.494 243.603 L 474.394 252.139 L 479.701 257.391 L 485.063 260.182 L 492.996 260.182 L 498.138 257.5 L 505.69 250.004 L 513.842 258.321 L 504.979 267.129 L 495.677 271.835 L 482.272 271.835 L 472.97 267.129 L 464.216 258.321 L 459.839 245.409 Z"/>
    <path d="M 519.372 270.85 L 519.372 187.467 L 531.134 187.467 L 531.134 220.186 L 533.817 218.052 L 542.898 213.347 L 555.318 213.347 L 565.823 218.763 L 570.419 232.661 L 570.419 270.85 L 558.874 270.85 L 558.874 234.412 L 556.302 227.025 L 552.528 225.001 L 544.322 225.001 L 538.74 227.736 L 531.134 234.52 L 531.134 270.85 L 519.372 270.85 Z"/>
  </g>
  <g>
    <path d="M 134.215 196.002 L 145.376 184.678 L 156.592 196.002 L 145.376 207.22 L 134.215 196.002 Z"/>
  </g>
</svg>