<?xml version="1.0" encoding="utf-8"?>
<svg viewBox="0 0 572 273" version="1.1" style="fill-rule:evenodd;clip-rule:evenodd;stroke-linejoin:round;stroke-miterlimit:2;" xmlns="http://www.w3.org/2000/svg">
  <g transform="matrix(1, 0, 0, 1, 479.396729, 136.9991)" style="fill:rgb(31,32,52);fill-rule:nonzero;">
    <path d="M -284.419 -124.766 L -284.419 -136.093 L -226.586 -136.093 L -226.586 -124.766 L -249.457 -124.766 L -249.457 -52.71 L -261.439 -52.71 L -261.439 -124.766 L -284.419 -124.766 Z"/>
    <path d="M -223.354 -52.71 L -223.354 -136.093 L -211.592 -136.093 L -211.592 -103.375 L -208.909 -105.507 L -199.828 -110.214 L -187.407 -110.214 L -176.903 -104.797 L -172.307 -90.9 L -172.307 -52.71 L -183.852 -52.71 L -183.852 -89.15 L -186.424 -96.534 L -190.198 -98.56 L -198.404 -98.56 L -203.986 -95.824 L -211.592 -89.039 L -211.592 -52.71 L -223.354 -52.71 Z"/>
    <path d="M -166.667 -78.151 L -166.667 -83.732 L -162.838 -96.645 L -154.576 -105.507 L -145.274 -110.214 L -131.815 -110.214 L -122.513 -105.507 L -117.699 -100.53 L -112.994 -91.392 L -112.994 -77.605 L -155.233 -77.605 L -153.098 -71.422 L -147.846 -66.17 L -142.485 -63.379 L -134.496 -63.379 L -129.354 -66.06 L -122.951 -72.298 L -114.799 -64.036 L -122.513 -56.43 L -131.815 -51.726 L -145.274 -51.726 L -154.576 -56.43 L -162.838 -65.239 L -166.667 -78.151 Z M -154.247 -87.562 L -123.991 -87.562 L -125.414 -92.924 L -128.916 -96.972 L -134.387 -99.873 L -142.812 -99.873 L -148.065 -97.082 L -153.646 -90.463 L -154.247 -87.562 Z"/>
    <path d="M -110.527 -78.151 L -110.527 -83.732 L -106.15 -96.645 L -97.396 -105.507 L -87.985 -110.214 L -76.661 -110.214 L -67.524 -105.507 L -67.524 -109.174 L -55.706 -109.174 L -55.706 -69.834 L -47.335 -57.087 L -56.854 -50.467 L -62.436 -58.892 L -73.979 -51.726 L -87.985 -51.726 L -97.396 -56.43 L -106.15 -65.239 L -110.527 -78.151 Z M -98.874 -79.958 L -95.974 -71.422 L -90.668 -66.17 L -85.305 -63.379 L -77.043 -63.379 L -67.524 -69.178 L -67.524 -91.119 L -72.228 -95.824 L -77.262 -98.56 L -85.415 -98.56 L -90.449 -95.824 L -95.974 -90.463 L -98.874 -81.817 L -98.874 -79.958 Z"/>
    <path d="M -49.902 -97.52 L -49.902 -109.174 L -39.726 -109.174 L -39.726 -127.23 L -27.962 -127.23 L -27.962 -109.174 L -13.845 -109.174 L -13.845 -97.52 L -27.962 -97.52 L -27.962 -73.774 L -25.39 -66.279 L -21.67 -64.363 L -13.955 -64.363 L -13.955 -52.71 L -24.46 -52.71 L -35.02 -57.962 L -39.726 -71.86 L -39.726 -97.52 L -49.902 -97.52 Z"/>
    <path d="M -9.575 -78.151 L -9.575 -83.732 L -5.744 -96.645 L 2.518 -105.507 L 11.818 -110.214 L 25.279 -110.214 L 34.579 -105.507 L 39.394 -100.53 L 44.1 -91.392 L 44.1 -77.605 L 1.861 -77.605 L 3.994 -71.422 L 9.246 -66.17 L 14.609 -63.379 L 22.596 -63.379 L 27.74 -66.06 L 34.141 -72.298 L 42.293 -64.036 L 34.579 -56.43 L 25.279 -51.726 L 11.818 -51.726 L 2.518 -56.43 L -5.744 -65.239 L -9.575 -78.151 Z M 2.845 -87.562 L 33.101 -87.562 L 31.68 -92.924 L 28.178 -96.972 L 22.707 -99.873 L 14.28 -99.873 L 9.028 -97.082 L 3.448 -90.463 L 2.845 -87.562 Z"/>
    <path d="M 50.067 -52.71 L 50.067 -109.174 L 61.72 -109.174 L 61.72 -104.578 L 69.982 -110.214 L 76.602 -110.214 L 87.217 -104.797 L 91.157 -93.033 L 80.323 -89.15 L 77.259 -96.534 L 74.141 -98.56 L 71.022 -98.56 L 61.72 -91.392 L 61.72 -52.71 L 50.067 -52.71 Z"/>
  </g>
  <g transform="matrix(1, 0, 0, 1, 555.294922, 136.9991)" style="fill:rgb(31,32,52);fill-rule:nonzero;">
    <path d="M -277.907 40.57 L -277.907 -42.812 L -266.035 -42.812 L -266.035 -2.543 L -225.82 -42.812 L -208.915 -42.812 L -245.79 -6.045 L -210.828 40.57 L -225.82 40.57 L -254.271 2.49 L -266.035 14.144 L -266.035 40.57 L -277.907 40.57 Z"/>
    <path d="M -211.481 22.297 L -211.481 -15.893 L -199.828 -15.893 L -199.828 20.49 L -197.256 28.042 L -193.427 29.901 L -185.384 29.901 L -179.639 27.22 L -172.034 20.49 L -172.034 -15.893 L -160.27 -15.893 L -160.27 40.57 L -172.034 40.57 L -172.034 33.294 L -174.714 36.85 L -183.797 41.556 L -196.216 41.556 L -206.777 36.193 L -211.481 22.297 Z"/>
    <path d="M -151.512 25.305 L -151.512 -42.812 L -139.859 -42.812 L -139.859 22.843 L -137.395 27.55 L -136.028 28.917 L -128.203 28.917 L -128.203 40.57 L -140.953 40.57 L -146.916 34.607 L -151.512 25.305 Z"/>
    <path d="M -130.005 -4.24 L -130.005 -15.893 L -119.829 -15.893 L -119.829 -33.948 L -108.066 -33.948 L -108.066 -15.893 L -93.95 -15.893 L -93.95 -4.24 L -108.066 -4.24 L -108.066 19.506 L -105.494 27.002 L -101.773 28.917 L -94.059 28.917 L -94.059 40.57 L -104.564 40.57 L -115.123 35.318 L -119.829 21.422 L -119.829 -4.24 L -130.005 -4.24 Z"/>
    <path d="M -86.888 22.297 L -86.888 -15.893 L -75.234 -15.893 L -75.234 20.49 L -72.662 28.042 L -68.833 29.901 L -60.79 29.901 L -55.045 27.22 L -47.44 20.49 L -47.44 -15.893 L -35.676 -15.893 L -35.676 40.57 L -47.44 40.57 L -47.44 33.294 L -50.12 36.85 L -59.204 41.556 L -71.622 41.556 L -82.183 36.193 L -86.888 22.297 Z"/>
    <path d="M -25.879 40.57 L -25.879 -15.893 L -14.225 -15.893 L -14.225 -11.298 L -5.963 -16.933 L 0.657 -16.933 L 11.272 -11.516 L 15.211 0.247 L 4.377 4.132 L 1.313 -3.254 L -1.805 -5.278 L -4.923 -5.278 L -14.225 1.888 L -14.225 40.57 L -25.879 40.57 Z"/>
  </g>
  <g transform="matrix(1, 0, 0, 1, 285.999878, 136.9991)" style="fill:rgb(31,32,52);fill-rule:nonzero;">
    <path d="M -277.907 133.851 L -277.907 50.468 L -266.035 50.468 L -266.035 90.737 L -225.82 50.468 L -208.915 50.468 L -245.79 87.235 L -210.828 133.851 L -225.82 133.851 L -254.271 95.77 L -266.035 107.426 L -266.035 133.851 L -277.907 133.851 Z"/>
    <path d="M -214.545 108.41 L -214.545 102.83 L -210.168 89.917 L -201.414 81.053 L -192.003 76.348 L -180.677 76.348 L -171.542 81.053 L -171.542 77.387 L -159.724 77.387 L -159.724 116.726 L -151.351 129.474 L -160.872 136.095 L -166.452 127.669 L -177.997 134.836 L -192.003 134.836 L -201.414 130.13 L -210.168 121.322 L -214.545 108.41 Z M -202.892 106.604 L -199.992 115.14 L -194.684 120.392 L -189.323 123.183 L -181.061 123.183 L -171.542 117.382 L -171.542 95.443 L -176.246 90.737 L -181.28 88.002 L -189.431 88.002 L -194.465 90.737 L -199.992 96.1 L -202.892 104.743 L -202.892 106.604 Z"/>
    <rect x="-146.424" y="77.387" width="11.764" height="56.464"/>
    <path d="M -127.27 93.09 L -121.634 80.944 L -108.339 76.348 L -100.133 76.348 L -87.275 81.053 L -81.858 90.574 L -91.981 95.278 L -94.77 90.136 L -102.048 86.908 L -106.644 86.908 L -113.92 89.588 L -114.96 92.925 L -113.483 95.881 L -108.776 98.453 L -96.358 101.461 L -87.385 106.167 L -82.57 114.373 L -82.57 119.625 L -87.823 130.13 L -100.133 134.836 L -108.339 134.836 L -121.745 130.13 L -127.051 120.611 L -116.492 115.686 L -113.483 121.213 L -106.534 124.331 L -102.048 124.331 L -95.537 121.651 L -93.402 118.258 L -94.989 114.811 L -99.803 112.349 L -112.497 108.847 L -122.018 104.143 L -127.27 93.09 Z"/>
    <path d="M -78.844 108.41 L -78.844 102.83 L -75.015 89.917 L -66.753 81.053 L -57.453 76.348 L -43.993 76.348 L -34.692 81.053 L -29.877 86.032 L -25.171 95.17 L -25.171 108.958 L -67.41 108.958 L -65.276 115.14 L -60.023 120.392 L -54.662 123.183 L -46.673 123.183 L -41.531 120.501 L -35.13 114.264 L -26.976 122.526 L -34.692 130.13 L -43.993 134.836 L -57.453 134.836 L -66.753 130.13 L -75.015 121.322 L -78.844 108.41 Z M -66.426 98.999 L -36.168 98.999 L -37.592 93.638 L -41.093 89.588 L -46.565 86.689 L -54.989 86.689 L -60.242 89.48 L -65.824 96.1 L -66.426 98.999 Z"/>
    <path d="M -19.204 133.851 L -19.204 77.387 L -7.549 77.387 L -7.549 81.983 L 0.711 76.348 L 7.333 76.348 L 17.946 81.764 L 21.886 93.528 L 11.053 97.413 L 7.989 90.026 L 4.869 88.002 L 1.751 88.002 L -7.549 95.17 L -7.549 133.851 L -19.204 133.851 Z"/>
    <path d="M 20.632 93.09 L 26.266 80.944 L 39.562 76.348 L 47.77 76.348 L 60.626 81.053 L 66.043 90.574 L 55.922 95.278 L 53.131 90.136 L 45.854 86.908 L 41.258 86.908 L 33.982 89.588 L 32.942 92.925 L 34.42 95.881 L 39.124 98.453 L 51.544 101.461 L 60.517 106.167 L 65.332 114.373 L 65.332 119.625 L 60.08 130.13 L 47.77 134.836 L 39.562 134.836 L 26.158 130.13 L 20.851 120.611 L 31.41 115.686 L 34.42 121.213 L 41.367 124.331 L 45.854 124.331 L 52.366 121.651 L 54.498 118.258 L 52.912 114.811 L 48.097 112.349 L 35.404 108.847 L 25.884 104.143 L 20.632 93.09 Z"/>
    <path d="M 69.056 108.41 L 69.056 102.83 L 72.887 89.917 L 81.147 81.053 L 90.449 76.348 L 103.908 76.348 L 113.21 81.053 L 118.025 86.032 L 122.729 95.17 L 122.729 108.958 L 80.491 108.958 L 82.625 115.14 L 87.877 120.392 L 93.24 123.183 L 101.227 123.183 L 106.371 120.501 L 112.772 114.264 L 120.924 122.526 L 113.21 130.13 L 103.908 134.836 L 90.449 134.836 L 81.147 130.13 L 72.887 121.322 L 69.056 108.41 Z M 81.476 98.999 L 111.732 98.999 L 110.311 93.638 L 106.809 89.588 L 101.338 86.689 L 92.911 86.689 L 87.659 89.48 L 82.079 96.1 L 81.476 98.999 Z"/>
    <path d="M 125.415 93.09 L 131.051 80.944 L 144.345 76.348 L 152.553 76.348 L 165.411 81.053 L 170.826 90.574 L 160.705 95.278 L 157.914 90.136 L 150.637 86.908 L 146.041 86.908 L 138.765 89.588 L 137.725 92.925 L 139.203 95.881 L 143.907 98.453 L 156.328 101.461 L 165.3 106.167 L 170.115 114.373 L 170.115 119.625 L 164.863 130.13 L 152.553 134.836 L 144.345 134.836 L 130.941 130.13 L 125.634 120.611 L 136.193 115.686 L 139.203 121.213 L 146.152 124.331 L 150.637 124.331 L 157.149 121.651 L 159.283 118.258 L 157.695 114.811 L 152.88 112.349 L 140.187 108.847 L 130.668 104.143 L 125.415 93.09 Z"/>
    <path d="M 173.839 108.41 L 173.839 102.83 L 178.216 89.917 L 186.97 81.053 L 196.272 76.348 L 209.677 76.348 L 218.979 81.053 L 227.733 89.807 L 219.471 98.123 L 212.138 90.847 L 206.886 88.002 L 198.844 88.002 L 193.811 90.737 L 188.394 96.1 L 185.494 104.743 L 185.494 106.604 L 188.394 115.14 L 193.701 120.392 L 199.063 123.183 L 206.996 123.183 L 212.138 120.501 L 219.69 113.005 L 227.842 121.322 L 218.979 130.13 L 209.677 134.836 L 196.272 134.836 L 186.97 130.13 L 178.216 121.322 L 173.839 108.41 Z"/>
    <path d="M 233.372 133.851 L 233.372 50.468 L 245.134 50.468 L 245.134 83.187 L 247.817 81.053 L 256.898 76.348 L 269.318 76.348 L 279.823 81.764 L 284.419 95.662 L 284.419 133.851 L 272.874 133.851 L 272.874 97.413 L 270.302 90.026 L 266.528 88.002 L 258.322 88.002 L 252.74 90.737 L 245.134 97.521 L 245.134 133.851 L 233.372 133.851 Z"/>
  </g>
  <g transform="matrix(1, 0, 0, 1, 285.999878, 136.9991)" style="fill:rgb(31,32,52);fill-rule:nonzero;">
    <path d="M -151.785 59.003 L -140.624 47.679 L -129.408 59.003 L -140.624 70.221 L -151.785 59.003 Z"/>
  </g>
</svg>
