<svg xmlns="http://www.w3.org/2000/svg" viewBox="0 0 1093 308"><defs><style>.a{stroke:#000;stroke-miterlimit:22.93;}</style></defs><title>ticket_header</title><path class="a" d="M45.4,100.8a14.4,14.4,0,0,1-7.9,4.1,21,21,0,0,1-7.1-.2,13.7,13.7,0,0,0-5.7.3c-2.3.4-4.5,1.1-6.5.9a13,13,0,0,1-5.5-1.6c-.7-.3-.8-1.6-.9-2.4-.4-2.4-2.4-3.4-3.4-5.2C10,95,12.3,95.3,14.2,94l-.7-1.4c-.8-2-1.7-4-2.4-6a9.7,9.7,0,0,1,.1-3.4,3.9,3.9,0,0,0,.2-1.4c-.5-1.9.4-3.9,1-6s2-5.8,3-8.7,1.8-6,3.9-8.6a.5.5,0,0,0,.2-.4c.8-2.3,1.7-4.5,2.5-6.8s.7-1.9,1.3-3a45.1,45.1,0,0,0,2.1-4.9A37.6,37.6,0,0,1,28.7,35a35.9,35.9,0,0,0,2.5-8.9c.3-1.9-.2-2.2-2.1-1.4l-4.5,2.2-3.4,1.3c-1.1.2-1.1-.3-1.1-1.1l1.5-.7c0-.2-.2-.2-.2-.3a6.9,6.9,0,0,0-1.3,1.1,8.8,8.8,0,0,0-2.3.7,35.9,35.9,0,0,1-2.5-3.3c-.5-1.1,0-2.6,1.1-4.1,5.7-6.5,12.7-9.1,20-10.1,12.2-1.3,23.1.7,32.5,6.4,6.2,3.9,11.4,8.9,14.7,15.8a23.2,23.2,0,0,1,1.5,5.9,17.9,17.9,0,0,1,.9,4.6c-.1,2.6-.5,5.4-.8,8.1a.3.3,0,0,0-.1.2c-2.2,3.2-1.9,7-4.1,10.1s-4.1,6.4-6.3,9.6A78.7,78.7,0,0,1,65,82.2a45.5,45.5,0,0,1-11,8.6c-2.2,1.3-4.1,2.3-6.1,3.7a23.7,23.7,0,0,0-2.8,2.7c-1.2-.4-1.9,0-2.1,1.4l2-1.5C45.1,98.2,45.3,99.4,45.4,100.8ZM19.5,22.3l3.3-2.5-.5-.5-3.2,2.4A.8.8,0,0,0,19.5,22.3ZM36,60.6c1.8-3.6,2.6-7.5,4.6-11.1a35.5,35.5,0,0,1-1.7,6.4c-.7,2-1.4,4-2.3,6s-.9,4.3-3,6.4c.2-1.3.4-2,.5-2.8-1.2,2-2.3,3.9-2.3,6.4.7-1,1.1-1.5,1.5-2.2h.5l-.6,2.8c-.6,2.1-1.4,4.3-1.8,6.5a5.4,5.4,0,0,1-2.3,4,34.5,34.5,0,0,1,2.3,2.8c2.3-1.3,4.5-2.8,6.7-4.3L43,78.2a53.9,53.9,0,0,0,6-4.7c3.4-3.4,6.8-7.1,10-10.6a54.8,54.8,0,0,0,9-11.6,76.7,76.7,0,0,0,4.5-9.1c2.8-6.3,1.4-12.3-3.6-15.3-6.7-3.7-14.2-5.3-22.4-5.4l-2.9.2a21.8,21.8,0,0,1,.9,2.9c.6,2.6,1.2,5.5.2,8.5a17.9,17.9,0,0,0-.2,2.3c0,1.9.1,3.9-1.7,5.8A3.6,3.6,0,0,0,42,43c1.6,2,0,3.5-1.5,5.2a6,6,0,0,0-1.1,1.2c-1.2,3.7-2.6,7.4-3.9,11C35.6,60.6,35.9,60.6,36,60.6ZM30.2,78.4a5.3,5.3,0,0,0-.6,1l.6.3a2.3,2.3,0,0,1,.4-1.1Zm5.5,10.4-1,.7c0,.1.1.2,0,.4l1.2-.6C35.9,89.1,35.9,88.9,35.7,88.8ZM55.6,74.3,38.5,87.4C44.9,84.1,50.7,80.2,55.6,74.3ZM49.2,90A55.7,55.7,0,0,0,63.1,78.8c.3-.4.4-.9,1.1-2-.9.7-1.3.8-1.5,1.1A124.8,124.8,0,0,1,46.5,90.7l-1.4,1.4a4.2,4.2,0,0,0-3.5,2.3c1.6-.7,2.9-1.1,3.5-2.3S48,90.8,49.2,90Zm-6.1-3.1,1.8-1.5,2-1.7a10.3,10.3,0,0,0,6.4-5.3l-6.4,5.5A13.9,13.9,0,0,0,45,85.4C44.3,85.4,43.6,85.4,43.1,86.9Zm18.1-2.8a23.7,23.7,0,0,0,6.4-6.2c2.2-1.2,3.2-3.3,4.4-5.1l-.6-.2c-1.2,1.6-2.5,3.4-3.9,5A35.1,35.1,0,0,0,61.2,84.1ZM75.9,67,75,68.1c0,.1.1.1.3.2l.9-.9A.5.5,0,0,0,75.9,67Z"/><path class="a" d="M101.8,104c-3.4,1.3-6.4,1.4-8.7-.8-3.7.2-4.6-2.6-5.7-5.2a15.8,15.8,0,0,1-1.2-5.8c-.6-5.6-1.5-11.2-.5-17s2.2-9.4,3.6-14.1,2.6-8.4,3.9-12.5a26.5,26.5,0,0,1,1.1-3c1.5-3.1,4.7-4.4,7.3-2.9a7,7,0,0,0,2.9.8c3.7-.2,4.5.3,4.8,3.9-.1.2.2.5.3.9l1.8-2c2.4,1.2,2.3,3.1,1.6,5.7-1.6,6.1-3.4,12.3-4.9,18.4s-2.3,9.8-3.6,14.7a38.1,38.1,0,0,0-.6,13.4C104.1,100.8,102,102.1,101.8,104ZM103,93.5l-.5-.2c-.1.1-.4.4-.3.5s.3.3.6.4A1.7,1.7,0,0,1,103,93.5Zm-.8-67.4c.4-3.3,1-6.7,1.7-10.1a2,2,0,0,1,1.6-2c2.2-.8,4.4-2.1,5.7.3a4.2,4.2,0,0,0,1.7.2c2.8-.2,3.5.3,3.6,3.2,0,.4.3.6.3,1.1l.8.2a11.5,11.5,0,0,1,1.4-1.9c.1.2.4.2.5.3-.5,1.9-.9,3.7-1.3,5.6h.2c.6-.9,1.3-2,2.1-3.4-1.2,4.5-2.5,8.6-3.4,12.7a3.1,3.1,0,0,1-2.6,2.2,29.9,29.9,0,0,1-3,0c-.3.1-.5.5-1,.9s-1.9,1.1-2.4,0-1.4-2.6-3.6-2.4c-.6,0-1.5-1.4-1.9-2.2A25.2,25.2,0,0,1,102.2,26.1Zm1.1,62.1c.4-2.7.8-4.9,1.1-6.9C102.5,85.5,102.5,85.8,103.3,88.2Zm1.8-11.5c2.6-8.9,5.2-17.9,7.8-26.7h-.7C110.4,53.6,104.5,74.6,105.1,76.7ZM110,16a1.6,1.6,0,0,0,0,.7,3.7,3.7,0,0,0,1-.7c-.3-.1-.6-.2-.7-.4Zm6.8,15.3c.3-1.5.6-2.6.8-3.8C116.1,29.2,116.1,29.2,116.8,31.3Z"/><path class="a" d="M148.8,95.7c.2.4-.5,1-.9,1.4-4.7,3.5-9.6,6.8-15.1,7.6a12.3,12.3,0,0,1-9.7-2.3c-4.2-3.3-7.5-7.5-8.1-13.3a25,25,0,0,1,1.1-10.4,121.8,121.8,0,0,1,4.7-13.6c1.3-3.4,3.6-6.7,5.7-10.1a14.2,14.2,0,0,1,3.5-4.4c1.3-.9,1.8-2.7,2.8-4.2a21.5,21.5,0,0,1,8.1-6.3,7.7,7.7,0,0,1,7.7.6,22.4,22.4,0,0,1,6.5,6.9,5.8,5.8,0,0,1,.7,5.3,11.8,11.8,0,0,0-.4,2.5,6.5,6.5,0,0,1-1.9,3.4c-2.4,2.3-4.1,5-6.2,7.6l-.7,1.1c-.4.3-1.2.4-1.4.8-1,2.1-3.3,3-4.8,4.4a5.8,5.8,0,0,0-1.4,1.2c-1.8,3.4-5.3,4.7-7.9,6.8a36.6,36.6,0,0,1-4.2,2.6,4.2,4.2,0,0,0-2.1,3.3,24.5,24.5,0,0,0,.6,7.2c.7,3,2,3.4,5.2,1.7s7.6-4.8,10.3-8.8,4.4-5.5,6.2-8.5,1.9-4.5,3-7.1c1-.7,1.9-.6,3.1.2s3.7,2.4,5,3.9a3.5,3.5,0,0,1,1.1,3.1c0,2.4-.5,4.9-3.2,6.8a7.4,7.4,0,0,0-2,2.3l-3,4.8h.2C150.1,93.1,148.8,94.1,148.8,95.7Zm-12.5-26c.1,0-.3-.4-.3-.7l3.4-4.1-.4-.2c-2.7,3.1-6.1,5.4-8.8,8.5a1.1,1.1,0,0,1,.2.6l1.9-1a23.7,23.7,0,0,0,2.1-1.5Zm-5.2-3.1s-.4.2-.4.4,0,.4.1.5a1.5,1.5,0,0,0,.7-.5C131.3,66.8,131.1,66.7,131.1,66.6Zm15.7-2.8L131.9,77.7C137.7,74.5,145.8,66.7,146.8,63.8Zm-9.3-7.3c.2,1.4-.7,2.3-1.3,3.3s-1.8,2.8-2.8,4.3-.8,1.9-1.2,2.9c1.2.5,1.9-.2,2.6-1,2.6-3.5,5.3-6.9,7.9-10.5,1.2-1.9,2.7-3.6,3.1-5.8-2-.4-2-.4-3.9,1.6a5.8,5.8,0,0,0-2.7,3.6C138.6,55.4,137.5,56.2,137.5,56.5Zm3.2-13.2a20.9,20.9,0,0,0-2.2,1.6c-.7.6-1.5,1-1.7,2.3l1.9-1.9C139.4,44.9,140.4,44.5,140.7,43.3Zm-2.2,9.1c1.5-1.2,3.4-2.2,4.2-4.1A7.7,7.7,0,0,0,138.5,52.4Zm6.8,34.3c-1.9,2.2-4.1,4.4-6,6.4a1,1,0,0,0,.5.4,24,24,0,0,0,5.9-6.4Zm5.7,1.8c-2.6,3-5.4,6-8,8.9,3.9-1.9,6.1-5.1,8.6-8.5Zm-6.7,2.2.9-1.1h-.3a3,3,0,0,0-.8.8A.8.8,0,0,0,144.3,90.7Z"/><path class="a" d="M242.4,34.7c0-.1-.1-.1-.2-.3a15.3,15.3,0,0,0-1.8,1.8,116.9,116.9,0,0,0-14.3,24.5,35.9,35.9,0,0,0-2.5,8.9h.6a25.2,25.2,0,0,0,1.2-2.9,83.8,83.8,0,0,1,12.4-25.3l.4-.4c0,1.4-.1,1.4-.9,2.9-4.4,7.6-8.6,15.2-11.1,23.4A38.9,38.9,0,0,0,225,84.6a8.5,8.5,0,0,0,3.9,6,4.9,4.9,0,0,0,2.4,0c2-.9,3.5-1.3,5,.1s3.1,0,3.8-1.6,1.6-5.5,2.6-8.5a17.6,17.6,0,0,1-3.3-.3,19.8,19.8,0,0,1-4.2-.1,9.9,9.9,0,0,1-3.1-1.2,13.8,13.8,0,0,1-2.6-2.2,4.5,4.5,0,0,1-.7-1.4,7.9,7.9,0,0,1,2.2-.9c2.6-.7,5.2-1.1,7.8-1.7l7.2-1.5c1.9-.4,3.7-.5,5.1.3a18.6,18.6,0,0,0,2.5,1c1.9.4,3.8.8,4.4,3.1.1.4,1.1.7,1.9,1.1-1.8,3.8-3.4,7.6-5.2,11.4l.7.3c.7-1.6,1.2-3.1,2-4.6a21.5,21.5,0,0,1,2.7-4.5l-.6,1.6c-1,1.9-1.9,3.8-2.8,5.7s-1.3,3.9-3.2,5.4a2.8,2.8,0,0,0-.9,2.3c.6,1.2,0,2.6-.4,3.8-.6,2.7-1.9,5.3-2.7,8a10.2,10.2,0,0,0-.1,3c-.2,1.1-.4,2.1-1.5,2.3s-1.4,0-2.6-.1l-2.3,1.4a34.7,34.7,0,0,1-4.5-4c-.7-.4-.8-1.4-1-2s0-2.5,0-3.6c.3-2.8.2-3.2-3-2.8a26,26,0,0,1-14.7-2.2c-4.3-2.1-8.8-4.2-12.2-7.8S202,83.9,201.8,79a14.3,14.3,0,0,0-.7-3.7c-.5-3,.5-6.1.9-9.1a33.6,33.6,0,0,1,3.8-12c2.4-4.4,4.7-8.9,7.2-13.2a100.8,100.8,0,0,1,9-12.7c5-6.4,11-12.3,18.4-15.7S255.1,8,262,10.3a46.1,46.1,0,0,1,7.1,2.5,13.1,13.1,0,0,1,4.9,3.4c1.1.8,1.3,2.4,1,4.5a6.5,6.5,0,0,0-1-.9,3.9,3.9,0,0,0-.6,2.4l-3.7,4.2a2.9,2.9,0,0,1-1.1.9c-1.6,0-1.8,1.4-2.6,2.3a12.8,12.8,0,0,1-1.1,2l-1.8,2a23.3,23.3,0,0,0-2.6,3.8c-.9,2.3-2,4.5-4.4,6-.7.4-1,1.4-1.7,2.2a23,23,0,0,1-3.5,4.2c5.2-10.2,12.4-19.2,19.2-28.5l-.4-.4a10.5,10.5,0,0,0-1.1.7A178.2,178.2,0,0,0,253.2,43c-1,1.8-2.2,3.7-3.3,5.5a2.7,2.7,0,0,1-2.4,1.6c-1.1-.1-1.1-1.1-1-2.1s-.1-.2-.3-.4c-3.2.6-4-.5-2.7-3.8a4.4,4.4,0,0,0,1-2.8c-.2-.9.9-2.1,1.6-3.2s1-.9,1.1-1.5a10,10,0,0,1,3.1-6.1c1.1-1,1.3-2.7,1.9-4.6a7.1,7.1,0,0,0-2.1,1.5c-2.2,2.5-4.3,5.3-6.4,7.9a15.9,15.9,0,0,1-2.4,2A12,12,0,0,0,242.4,34.7ZM216,49.4l18.3-25.2C228.3,28.7,216.8,44.8,216,49.4Zm2.7.3,1-1.2-.4-.3a11.3,11.3,0,0,1-1,1.3C218.5,49.5,218.6,49.7,218.7,49.7Zm2.6-4.4c4.4-6,8.9-12,13.2-18.1A57.7,57.7,0,0,0,221.3,45.3Zm1.4,14.6c3.5-5.9,6.6-11.7,10.5-17.4s8.3-11.2,12.8-17.2C238.9,29.1,223.6,52.4,222.7,59.9Zm29.8-25.3,2.3-3.7c.8-1.1,1.7-2.3,2.5-3.6l2.4-3.5c.7-1.1,1.9-2.2,1.9-3.8-2.5,2.4-9.8,13.3-11.7,17.4C251,36.7,251,36.7,252.5,34.6Zm10.6-14.4c-1.1,1.5-2,2.6-2.8,3.9-2.1,3-3.8,6-5.9,8.8l-1.2,1.9.5.2,1-1.8C257.8,29.6,262.3,23,263.1,20.2Z"/><path class="a" d="M300.7,95.7c.2.4-.5,1-.9,1.4-4.6,3.5-9.5,6.8-15.1,7.6a12.4,12.4,0,0,1-9.7-2.3c-4.2-3.3-7.5-7.5-8-13.3a24.9,24.9,0,0,1,1-10.4,121.8,121.8,0,0,1,4.7-13.6c1.3-3.4,3.7-6.7,5.7-10.1a14.2,14.2,0,0,1,3.5-4.4c1.3-.9,1.8-2.7,2.8-4.2a21.5,21.5,0,0,1,8.1-6.3,7.7,7.7,0,0,1,7.7.6,22.4,22.4,0,0,1,6.5,6.9,5.8,5.8,0,0,1,.7,5.3,11.8,11.8,0,0,0-.4,2.5,6.5,6.5,0,0,1-1.9,3.4,93.1,93.1,0,0,0-6.2,7.6l-.6,1.1c-.4.3-1.3.4-1.5.8-1,2.1-3.3,3-4.8,4.4a8.7,8.7,0,0,0-1.4,1.2c-1.7,3.4-5.3,4.7-7.9,6.8a36.6,36.6,0,0,1-4.2,2.6,3.8,3.8,0,0,0-2,3.3,24.5,24.5,0,0,0,.5,7.2c.7,3,2.1,3.4,5.2,1.7s7.6-4.8,10.3-8.8,4.4-5.5,6.2-8.5,1.9-4.5,3-7.1c1.1-.7,1.9-.6,3.1.2s3.7,2.4,5,3.9a3.2,3.2,0,0,1,1.1,3.1c0,2.4-.5,4.9-3.2,6.8a6,6,0,0,0-1.9,2.3c-1,1.5-2.1,3.2-3,4.8h.1C302,93.1,300.7,94.1,300.7,95.7Zm-12.5-26c.1,0-.3-.4-.3-.7l3.4-4.1-.4-.2c-2.7,3.1-6.1,5.4-8.8,8.5a1.1,1.1,0,0,1,.2.6l2-1a20.7,20.7,0,0,0,2-1.5A10,10,0,0,0,288.2,69.7ZM283,66.6s-.4.2-.4.4,0,.4.2.5a2.2,2.2,0,0,0,.6-.5C283.2,66.8,283,66.7,283,66.6Zm15.7-2.8c-5,4.8-9.9,9.4-14.9,13.9C289.6,74.5,297.7,66.7,298.7,63.8Zm-9.3-7.3c.2,1.4-.6,2.3-1.3,3.3s-1.8,2.8-2.8,4.3-.8,1.9-1.2,2.9c1.2.5,1.9-.2,2.6-1,2.6-3.5,5.3-6.9,7.9-10.5,1.2-1.9,2.7-3.6,3.1-5.8-2-.4-2-.4-3.9,1.6a5.8,5.8,0,0,0-2.7,3.6C290.5,55.4,289.4,56.2,289.4,56.5Zm3.2-13.2-2.2,1.6c-.7.6-1.5,1-1.6,2.3l1.9-1.9C291.3,44.9,292.3,44.5,292.6,43.3Zm-2.2,9.1c1.5-1.2,3.4-2.2,4.2-4.1A7.7,7.7,0,0,0,290.4,52.4Zm6.8,34.3c-1.9,2.2-4.1,4.4-6,6.4a.9.9,0,0,0,.6.4,25.3,25.3,0,0,0,5.8-6.4Zm5.7,1.8c-2.6,3-5.4,6-8,8.9,3.9-1.9,6.1-5.1,8.6-8.5Zm-6.7,2.2.9-1.1h-.3a3,3,0,0,0-.8.8A.8.8,0,0,0,296.2,90.7Z"/><path class="a" d="M322.7,91c1.2,1.6,0,2.7-.6,3.8a9.1,9.1,0,0,1-1.3,1.6c-.7,1-1.4,1.9-.6,2.7s1.9.2,2.7-.2a43,43,0,0,0,14.5-11.6,32.4,32.4,0,0,0,4.1-6.3c1.3-2.6.7-3.7-2.3-4.1s-7.8-1.1-11.6-1.9a27.1,27.1,0,0,1-10.9-4.9c-2.9-2.2-4.1-5.2-2.2-9.1a30.3,30.3,0,0,1,4.2-5.6,63.9,63.9,0,0,1,16.9-12.8c8.1-4.4,14.3-3.1,19.1,1.1,2.3,2,2,5.6,1.6,8.8s-.8,4.4-1.2,6.6-1.2,2-3,2.2-2.6.9-3.1.6-.8-1.5-1.3-2.3a.8.8,0,0,0-1-.2c-2,0-2.1-1.1-2.1-2.6s.3-5.2.3-7.7-.8-2-2.3-1.1-5.6,3.7-8.5,5.9a27.8,27.8,0,0,0-6.7,7.8c-1.6,3.2-.9,6.1,2.2,7.3a31,31,0,0,0,5.2,1.5c5.5,1,11.2,1.2,15.8,3.3a16.8,16.8,0,0,1,3.3,1.6c1.3,1.1,2.3,2.5.7,4.7a2.9,2.9,0,0,0-.9,1.7c-.5,4.7-4.6,7.9-8.3,11.1A72.2,72.2,0,0,1,326.9,104c-5.7,2.5-10.6,2.5-15,0-1.6-1-2.7-2.7-2-4.7a63.2,63.2,0,0,1,3.1-7.8c.8-1.4,1.1-1.4,3.5-2.2a5,5,0,0,0,.2,1.7c-1,.8-2.1,1.6-1.7,2.8,2.1,0,2-1.3,2.5-2.3s1.9-1.2,3.7-.8L320,93.8a5.3,5.3,0,0,0-1.7,3.6c.4-.6,1-.9,1-1l1.1-2.3A24.5,24.5,0,0,1,322.7,91Zm-2.6-33.1a18.6,18.6,0,0,1-1.4,2,1.1,1.1,0,0,1,.6.3l1.7-1.9A2.5,2.5,0,0,0,320.1,57.9Zm4.6,4.2,2.2-3.3-.8-.3c-.8,1.1-1.4,2.4-2.1,3.4Zm19.8,20.1-1.9,3.4.6.3c.7-1.2,1.5-2.3,2.2-3.4Zm6.8-.2c-1.1,1.6-2.1,3.2-3,4.7a.8.8,0,0,0,.7.3,55.3,55.3,0,0,1,3.2-4.6Z"/><path class="a" d="M392.7,63.4a2.7,2.7,0,0,1-1.2.6,1.5,1.5,0,0,1-.7-1.2,4.3,4.3,0,0,1,.5-1.3c2-2.7,1.8-5.7,3.6-9.1-1.2.4-2.1.5-2.6,1a24.1,24.1,0,0,0-3.7,3.5c-1.2,1.4-2.2,3.1-3.4,4.5s-2.4,5-3.7,7.5a53.4,53.4,0,0,0-5.6,24,9.6,9.6,0,0,0,1,3.4c.7,1.2,1.9.7,2.9-.2s3.2-3.1,4.7-4.7.9-1.5,1.5-1.9a2.3,2.3,0,0,1,1.9-.4c.7.1.7.9.3,1.6a24.8,24.8,0,0,1-1.8,3.1l.7.4.6-.9c.6-1.8,2.7-2.1,3.8-3.3a1.9,1.9,0,0,1,1.9-.1c.4.2.3,1.2.1,1.7s-1.5,2.9-2.3,4.7c2.5-1.3,2.6-3.7,4.8-5.5-1,3.6-2.2,6.4-4.7,8.7a20.9,20.9,0,0,1-14.5,6.7,8.9,8.9,0,0,1-2.9-.3c-3.7-1.7-7.8-2.9-10.3-6.2a18.8,18.8,0,0,1-4.3-12.3c0-3.1.4-6.4.7-9.5a19.8,19.8,0,0,1,2.2-8.3c0-.3.3-.7.3-1,1.1-5.4,4.3-10.2,7.6-14.8a15.8,15.8,0,0,1,3.7-4.1,32.5,32.5,0,0,1,13-7.1c6.2-1.8,11.2-.1,16.4,1.5a21.6,21.6,0,0,1,3.7,1.9,4.3,4.3,0,0,1,.7,1c.6,1.5.2,4.3-.9,6.6.2-.8.6-1.7.9-3a5,5,0,0,0-1.8,2.9,21,21,0,0,1-3.7,7.5,22.8,22.8,0,0,1-3.8,3.8c-2.7,1.9-4.2,1.1-4.2-1.6.1-.6,0-1,.1-1.4a6,6,0,0,0,2.2-3.5c-.3,0-.4,0-.6-.2s-1,2.5-1.6,3.7ZM375,55c-2.6,3.5-4.9,6.9-5.7,11.2,2.2-3.6,4.3-7.3,6.4-10.8Zm-2.9,9a25.2,25.2,0,0,0,3.6-5.9l1.1-1.6c-.2,0-.4,0-.4-.1s-.5,1.2-.7,1.9C373.6,59.8,372.8,61.8,372.1,64Zm4.1,7.1a89.1,89.1,0,0,1,6.2-11.3c.4-.4.4-1.1.6-1.7s-.6,0-.6.2a1,1,0,0,0-.7.5A45.6,45.6,0,0,0,375.5,70c-.2.8-.2,1.7-.4,2.7s-.5,1-.9,1.4h.5a8,8,0,0,0,.3-1.5Zm6-7.9c-1.3,3.1-3,6.1-4.1,9.2-2.2,5.8-2.7,7.9-1.9,9.7a57.7,57.7,0,0,1,7-18.8Zm17.9-2.5V61h.4c1.9-2.3,3.1-4.8,2.8-7.5C402.1,55.9,401.2,58.3,400.1,60.7Z"/><path class="a" d="M429.4,75.8c-1.3,2.6-2.2,5.2-3.3,7.8h.5c.7-1.6,1.5-3.2,2.3-4.9-.8,2.6-.9,5.5-4,7.4.8,1.1,1.7,2.2-.7,2.9-.7,1.3-1.2,2.7-1.8,4l.7.2,1.1-1.7c-.4,1.7-.3,3.3-1.8,4.8a2.9,2.9,0,0,0-.3,1.1c.4,1.8-.1,3-2,4.1a9.3,9.3,0,0,0-2.1,1.9l-1.7-1.5h-.6c-1.9,1.3-2.8,1.3-3.2-.4a3.9,3.9,0,0,0-3.2-2.6c-1.3-.2-2-1.5-1.7-3,.5-3.9.9-7.9,1.5-11.8a28.7,28.7,0,0,1,.5-4.1c.4-1.5.7-3.1,1.1-4.6s.4-1.8.7-2.8c.7-4,1.5-8.3,2.2-12.4.2-1,1-2.1,1.2-3.2a46.6,46.6,0,0,0,1.5-6.2,11.9,11.9,0,0,1,.7-2.7c.8-2.4,1.7-4.9,2.4-7.3,2.2-8.1,4.2-16,6.4-24,.4-1.1.6-2.3,1.1-3.6s2.2-2.3,3.4-1.2.4.8.7.7c3.1-.6,3.3,2.3,4.6,3.7s.2,2.3.2,3.5a4.6,4.6,0,0,1-.6,2.3c-1.5,2.8-.4,5.5-1.9,8.2a.9.9,0,0,0-.3.8c.7,2.1-.5,3.8-1.5,5.9a19.8,19.8,0,0,0-1.5,7.6c.2,1.5.4,3.6-1.7,5.2a2.9,2.9,0,0,0-.2,2.6c.6.9,1.7.4,2.5-.4s.7-.6.8-.9c2-2.9,5.2-5,8-7.2a11.4,11.4,0,0,1,7.3-2.2A19.2,19.2,0,0,1,460,47.5a11.2,11.2,0,0,1,2.1,3.7c2,5.3,1.7,11-.5,17.1a7.4,7.4,0,0,0,0,1.5c-.6,2.2-.9,4.4-1.6,6.6-.1.5-.9,1.1-1.5,1.8,1.2,2.1.8,4.4-.8,6.8-.4.8-.3,1.7-1.2,2.4s.2,1.4.5,2.2-2,2.3-1.5,4.2-2,9.4-5.3,12.1a3.7,3.7,0,0,0-.7-1.2c-.8.3-1.6,1-2.3.8s-1.1-.9-1.6-1.3a3.2,3.2,0,0,0-1.3-1c-1.9,0-2.1-1.3-2.3-2.7a25.3,25.3,0,0,1,.2-5.5,190.9,190.9,0,0,1,6.1-29.1,86.8,86.8,0,0,0,1.8-11,29.8,29.8,0,0,0-.2-5.1,7,7,0,0,0-2.3,1.1c-2.2,2-4.8,3.7-6,6.5a22.6,22.6,0,0,1-3.1,4.5c-.3-.1-.6-.2-.7-.4l-.7,1.5a12,12,0,0,0,1.4-1.2,50.5,50.5,0,0,1-2.5,4.5c-.2.4-.5,1-.9,1.1-2.3.5-2.6,2.6-3.2,4.2a6.1,6.1,0,0,0-.5,1.2A17.4,17.4,0,0,0,429.4,75.8Zm7.3-17A116.1,116.1,0,0,0,426.5,76a3.8,3.8,0,0,0-.7,3.1l1.1-1.8A111.7,111.7,0,0,1,440,56.2c.5-.8.8-1.6,1.5-2.6l1.9-1.9c-.1-.1-.4-.1-.6-.3a14.3,14.3,0,0,1-1.5,2.2A57,57,0,0,0,436.7,58.8Zm-9,5.6-.7,1.5h.5a7.4,7.4,0,0,1,.8-1.5Zm4.7-6.7c.1.2.2.2.4.2l1.7-2.2-1.5.5c.9-1.5,1.8-3,2.9-4.5-3.5,2.7-8.3,9.3-8.7,11.9l5.3-6.8A1.5,1.5,0,0,1,432.4,57.7Zm22.4,37.1h-.2v.4h.2C454.8,95,454.7,94.9,454.8,94.8Z"/><path class="a" d="M485.4,104c-3.5,1.3-6.4,1.4-8.8-.8-3.6.2-4.6-2.6-5.7-5.2a15.8,15.8,0,0,1-1.2-5.8c-.6-5.6-1.5-11.2-.4-17s2.2-9.4,3.5-14.1,2.6-8.4,4-12.5a15.4,15.4,0,0,1,1.1-3c1.5-3.1,4.6-4.4,7.2-2.9a7,7,0,0,0,3,.8c3.7-.2,4.5.3,4.7,3.9-.1.2.2.5.3.9l1.8-2c2.4,1.2,2.3,3.1,1.6,5.7-1.6,6.1-3.4,12.3-4.9,18.4s-2.3,9.8-3.5,14.7a38.2,38.2,0,0,0-.7,13.4C487.7,100.8,485.5,102.1,485.4,104Zm1.2-10.5-.6-.2c-.1.1-.4.4-.2.5s.2.3.5.4S486.3,94,486.6,93.5Zm-.8-67.4c.4-3.3.9-6.7,1.6-10.1a2,2,0,0,1,1.6-2c2.2-.8,4.4-2.1,5.8.3a3.4,3.4,0,0,0,1.6.2c2.9-.2,3.5.3,3.7,3.2,0,.4.2.6.2,1.1l.9.2a21.4,21.4,0,0,1,1.3-1.9c.2.2.4.2.6.3a57.3,57.3,0,0,0-1.4,5.6h.3l2-3.4c-1.2,4.5-2.4,8.6-3.4,12.7a3,3,0,0,1-2.6,2.2,29.7,29.7,0,0,1-3,0l-.9.9c-1,1.2-1.9,1.1-2.5,0s-1.3-2.6-3.5-2.4-1.5-1.4-1.9-2.2A15.4,15.4,0,0,1,485.8,26.1Zm1.1,62.1c.4-2.7.8-4.9,1-6.9C486,85.5,486,85.8,486.9,88.2Zm1.7-11.5L496.4,50h-.7C493.9,53.6,488.1,74.6,488.6,76.7ZM493.5,16a1.6,1.6,0,0,0,0,.7,2.6,2.6,0,0,0,1-.7c-.3-.1-.6-.2-.7-.4Zm6.8,15.3c.3-1.5.6-2.6.9-3.8C499.7,29.2,499.7,29.2,500.3,31.3Z"/><path class="a" d="M532.8,63.4a3,3,0,0,1-1.3.6,1.4,1.4,0,0,1-.6-1.2,2.7,2.7,0,0,1,.5-1.3c1.9-2.7,1.8-5.7,3.5-9.1a6.7,6.7,0,0,0-2.5,1,20.3,20.3,0,0,0-3.7,3.5c-1.2,1.4-2.2,3.1-3.4,4.5s-2.5,5-3.7,7.5a52.1,52.1,0,0,0-5.6,24,9.6,9.6,0,0,0,1,3.4c.6,1.2,1.9.7,2.8-.2a53.5,53.5,0,0,0,4.8-4.7c.5-.6.8-1.5,1.5-1.9a2.2,2.2,0,0,1,1.9-.4c.7.1.7.9.3,1.6s-1.1,2-1.8,3.1l.7.4.5-.9c.7-1.8,2.8-2.1,3.8-3.3s1.7-.4,1.9-.1.3,1.2.2,1.7-1.5,2.9-2.3,4.7c2.4-1.3,2.6-3.7,4.7-5.5-.9,3.6-2.1,6.4-4.6,8.7a21.2,21.2,0,0,1-14.6,6.7,8.6,8.6,0,0,1-2.8-.3c-3.7-1.7-7.8-2.9-10.4-6.2a19.3,19.3,0,0,1-4.2-12.3c0-3.1.4-6.4.7-9.5a21.2,21.2,0,0,1,2.1-8.3c0-.3.3-.7.3-1,1.1-5.4,4.4-10.2,7.7-14.8a17.4,17.4,0,0,1,3.6-4.1,32.9,32.9,0,0,1,13.1-7.1c6.1-1.8,11.2-.1,16.4,1.5a20.9,20.9,0,0,1,3.6,1.9,1.8,1.8,0,0,1,.7,1c.7,1.5.3,4.3-.8,6.6.1-.8.5-1.7.8-3a5.6,5.6,0,0,0-1.8,2.9,20.8,20.8,0,0,1-3.6,7.5,22.8,22.8,0,0,1-3.8,3.8c-2.8,1.9-4.3,1.1-4.3-1.6.2-.6,0-1,.2-1.4a5.4,5.4,0,0,0,2.1-3.5c-.2,0-.4,0-.5-.2s-1.1,2.5-1.6,3.7A20.6,20.6,0,0,0,532.8,63.4ZM515.1,55c-2.6,3.5-4.9,6.9-5.8,11.2,2.2-3.6,4.4-7.3,6.4-10.8Zm-2.9,9a21.9,21.9,0,0,0,3.5-5.9,7.6,7.6,0,0,0,1.1-1.6c-.1,0-.4,0-.4-.1a8.9,8.9,0,0,1-.7,1.9C513.7,59.8,512.9,61.8,512.2,64Zm4.1,7.1a102.8,102.8,0,0,1,6.1-11.3c.4-.4.4-1.1.7-1.7s-.7,0-.7.2-.5.4-.7.5A45.2,45.2,0,0,0,515.6,70a11,11,0,0,0-.4,2.7,17,17,0,0,1-1,1.4h.6a8,8,0,0,1,.3-1.5A16.7,16.7,0,0,0,516.3,71.1Zm6-7.9c-1.4,3.1-3,6.1-4.1,9.2-2.2,5.8-2.7,7.9-1.9,9.7a57.5,57.5,0,0,1,6.9-18.8Zm17.8-2.5V61h.4c1.9-2.3,3.2-4.8,2.9-7.5C542.2,55.9,541.2,58.3,540.1,60.7Z"/><path class="a" d="M569.4,75.8c-1.2,2.6-2.2,5.2-3.3,7.8h.6c.7-1.6,1.5-3.2,2.3-4.9-.8,2.6-.9,5.5-4.1,7.4.8,1.1,1.8,2.2-.7,2.9-.6,1.3-1.2,2.7-1.7,4l.7.2,1-1.7c-.4,1.7-.2,3.3-1.7,4.8s-.3.8-.3,1.1c.4,1.8-.1,3-2,4.1a7.6,7.6,0,0,0-2.1,1.9l-1.8-1.5h-.5c-1.9,1.3-2.9,1.3-3.3-.4a3.9,3.9,0,0,0-3.1-2.6,2.3,2.3,0,0,1-1.8-3c.6-3.9,1-7.9,1.5-11.8.2-1.4.3-2.7.6-4.1s.6-3.1,1.1-4.6l.6-2.8c.7-4,1.5-8.3,2.2-12.4.3-1,1.1-2.1,1.2-3.2a46.6,46.6,0,0,0,1.5-6.2,21.3,21.3,0,0,1,.7-2.7c.8-2.4,1.8-4.9,2.5-7.3,2.2-8.1,4.2-16,6.4-24a35.5,35.5,0,0,1,1.1-3.6c.6-1.7,2.1-2.3,3.4-1.2s.4.8.7.7c3.1-.6,3.2,2.3,4.6,3.7s.1,2.3.1,3.5a4.6,4.6,0,0,1-.5,2.3c-1.5,2.8-.4,5.5-1.9,8.2a.9.9,0,0,0-.3.8c.7,2.1-.5,3.8-1.5,5.9a18.1,18.1,0,0,0-1.5,7.6c.1,1.5.4,3.6-1.8,5.2a2.9,2.9,0,0,0-.1,2.6c.5.9,1.6.4,2.4-.4l.9-.9c2-2.9,5.1-5,8-7.2a11.2,11.2,0,0,1,7.2-2.2,19.3,19.3,0,0,1,13.4,5.5,11,11,0,0,1,2,3.7c2.1,5.3,1.8,11-.4,17.1a7.4,7.4,0,0,0,0,1.5c-.7,2.2-.9,4.4-1.6,6.6-.2.5-1,1.1-1.5,1.8,1.2,2.1.8,4.4-.8,6.8-.5.8-.3,1.7-1.3,2.4a7.3,7.3,0,0,0,.6,2.2c-1.1,1.2-2.1,2.3-1.5,4.2s-2.1,9.4-5.3,12.1a7.5,7.5,0,0,0-.7-1.2c-.8.3-1.7,1-2.3.8s-1.1-.9-1.7-1.3a2.9,2.9,0,0,0-1.2-1c-1.9,0-2.2-1.3-2.3-2.7a33.7,33.7,0,0,1,.1-5.5,204.3,204.3,0,0,1,6.2-29.1,86.3,86.3,0,0,0,1.7-11,29.3,29.3,0,0,0-.1-5.1,6.1,6.1,0,0,0-2.3,1.1c-2.2,2-4.8,3.7-6,6.5s-2.1,3-3.2,4.5c-.2-.1-.5-.2-.6-.4s-.3.7-.7,1.5,1.2-.9,1.3-1.2a49.2,49.2,0,0,1-2.4,4.5c-.3.4-.6,1-1,1.1-2.3.5-2.5,2.6-3.1,4.2a3.1,3.1,0,0,0-.5,1.2A18.2,18.2,0,0,0,569.4,75.8Zm7.4-17A116.1,116.1,0,0,0,566.6,76a3.5,3.5,0,0,0-.7,3.1l1.1-1.8a111.2,111.2,0,0,1,13-21.1,30,30,0,0,0,1.5-2.6l2-1.9c-.2-.1-.5-.1-.6-.3a14.3,14.3,0,0,1-1.5,2.2A45,45,0,0,0,576.8,58.8Zm-9,5.6c-.3.5-.4.9-.7,1.5h.4c.1-.5.6-.9.8-1.5Zm4.6-6.7.4.2c.4-.6,1-1.1,1.8-2.2a5.9,5.9,0,0,0-1.5.5,37.9,37.9,0,0,1,2.9-4.5c-3.6,2.7-8.4,9.3-8.8,11.9,1.9-2.5,3.7-4.7,5.4-6.8A1.1,1.1,0,0,1,572.4,57.7Zm22.5,37.1h-.3v.4h.3C594.9,95,594.8,94.9,594.9,94.8Z"/><path class="a" d="M629,102.8c-2.1,2.6-2.1,2.5-4,.8a4.5,4.5,0,0,0-2.2-.8c-3.5-.3-3.8-.1-4.1-4.1s-.4-6.6,0-10.2.4-7.8,1.8-11.8c.4-1.5.1-3,.3-4.7,1.2-6.4,2.6-12.8,3.8-19.1.4-2-.1-2.8-2-3.2a19,19,0,0,1-2.5-.3c-2.3-.5-4.6-1.2-5-4.1-3.2.3-5.2-.7-6.3-3.1s-.4-2.3,1.1-2.9l5.2-1.2c3.5-.4,6.9-.5,10.3-.8s3.3-.8,4-3.3c1.6-5.6,3.4-11,4.9-16.6a6.2,6.2,0,0,1,5.3-4.2h.7c.8,1.5,2.6,1.4,4.2,1.4s2.4.6,2.2,2.3,0,.8,0,1.6a11.3,11.3,0,0,0,2.1-1.5v2.3a6,6,0,0,0,0,1.9l1-1.9h.4a24.6,24.6,0,0,1-1.1,4.5,3.1,3.1,0,0,1-.9,1.8c-3.2,2.9-1.8,6.3-3.8,9.3h1l1.5-4.5h.5c-.5,1.8-.9,3.5-1.3,5.5l7.7,1.5a10.7,10.7,0,0,1,4.6,2.1,1.1,1.1,0,0,0,.8.8c1.9.9,1.9,2.5.1,4.1a11.1,11.1,0,0,1-5.7,2.6c-2.3.4-4.6.8-7.1,1s-3.8,1.3-5.7,2.2c-.3.1-.7.9-.8,1.5-1.4,5.5-2.9,11.3-4.1,16.9s-2,12.4-3,18.6c-.5,3.2-.8,6.3-1.2,9.4a3.5,3.5,0,0,0,.7,1.5c.8,1.1.8,1.8-.2,3.2a13.1,13.1,0,0,0-1.5,2.3Zm-4.8-20.6c.1.2.3.2.4.3s.3-.4.1-.4-.1-.3-.2-.3S624.2,82.1,624.2,82.2Zm3.5-19.7a14.3,14.3,0,0,0,.3-2.9h-.4a15.3,15.3,0,0,1-.7,2.9Zm5.8,5.8a6.2,6.2,0,0,0-.9,2.6,64.6,64.6,0,0,0-1.3,8.3c-.3,1-.7,2,0,2.9,1.1-4.8,2-9.1,3-13.6Zm3.9-17.4c-.9,4.6-3,9.3-3,13.9C635.9,60.2,637.3,55.5,637.4,50.9Z"/><path class="a" d="M683.6,95.7c.1.4-.6,1-1,1.4-4.6,3.5-9.5,6.8-15.1,7.6a12.5,12.5,0,0,1-9.7-2.3c-4.2-3.3-7.5-7.5-8-13.3a25,25,0,0,1,1.1-10.4,103.7,103.7,0,0,1,4.6-13.6c1.4-3.4,3.7-6.7,5.7-10.1a16.2,16.2,0,0,1,3.6-4.4c1.2-.9,1.8-2.7,2.7-4.2a22.6,22.6,0,0,1,8.2-6.3,7.6,7.6,0,0,1,7.6.6,24.1,24.1,0,0,1,6.6,6.9,6.1,6.1,0,0,1,.6,5.3c-.2.9-.2,1.7-.4,2.5a5.9,5.9,0,0,1-1.9,3.4,75.1,75.1,0,0,0-6.1,7.6l-.7,1.1c-.4.3-1.2.4-1.5.8-.9,2.1-3.3,3-4.8,4.4a7.7,7.7,0,0,0-1.3,1.2c-1.8,3.4-5.3,4.7-7.9,6.8s-2.9,1.8-4.2,2.6a4.2,4.2,0,0,0-2.1,3.3,24.5,24.5,0,0,0,.6,7.2c.6,3,2,3.4,5.1,1.7s7.7-4.8,10.4-8.8,4.4-5.5,6.1-8.5,1.9-4.5,3-7.1c1.1-.7,1.9-.6,3.2.2s3.6,2.4,5,3.9a3.7,3.7,0,0,1,1.1,3.1,7.7,7.7,0,0,1-3.3,6.8,8.7,8.7,0,0,0-1.9,2.3l-3,4.8h.1C684.8,93.1,683.6,94.1,683.6,95.7Zm-12.5-26c.1,0-.3-.4-.3-.7l3.4-4.1-.4-.2c-2.7,3.1-6.1,5.4-8.9,8.5a.7.7,0,0,1,.3.6l1.9-1,2.1-1.5Zm-5.2-3.1s-.4.2-.4.4,0,.4.1.5l.7-.5C666,66.8,665.9,66.7,665.9,66.6Zm15.6-2.8c-5,4.8-9.9,9.4-14.8,13.9C672.4,74.5,680.6,66.7,681.5,63.8Zm-9.2-7.3c.1,1.4-.7,2.3-1.4,3.3a50.8,50.8,0,0,1-2.7,4.3c-.5,1-.8,1.9-1.2,2.9,1.2.5,1.9-.2,2.6-1,2.5-3.5,5.3-6.9,7.9-10.5,1.2-1.9,2.7-3.6,3.1-5.8-2-.4-2-.4-4,1.6a6.1,6.1,0,0,0-2.7,3.6C673.4,55.4,672.3,56.2,672.3,56.5Zm3.1-13.2-2.2,1.6c-.6.6-1.5,1-1.6,2.3l1.9-1.9A3.2,3.2,0,0,0,675.4,43.3Zm-2.2,9.1c1.5-1.2,3.4-2.2,4.3-4.1A8.2,8.2,0,0,0,673.2,52.4Zm6.9,34.3-6,6.4a.7.7,0,0,0,.5.4,27.8,27.8,0,0,0,5.9-6.4A.8.8,0,0,1,680.1,86.7Zm5.7,1.8c-2.6,3-5.5,6-8.1,8.9,4-1.9,6.2-5.1,8.6-8.5A1.1,1.1,0,0,1,685.8,88.5Zm-6.7,2.2.8-1.1h-.3l-.8.8C678.8,90.4,679,90.6,679.1,90.7Z"/><path class="a" d="M477.2,136.7a5.1,5.1,0,0,0-.3,1.7,27.3,27.3,0,0,1,3.3-2.8c.4-.2,1.2.3,2.1.6-7.3,18.2-13.6,36.4-22.6,54.2a2.5,2.5,0,0,0,2.2-1.6c1.6-3.2,3.3-6.3,4.6-9.6,2.8-6.4,5.2-12.6,7.8-19s4.4-12,6.8-18a51.6,51.6,0,0,1,2.6-5.3c1.8,1,1.5,2.5.7,4.2a40.5,40.5,0,0,1-2.3,5.3c.2-1.2.7-2.3.9-3.7-1.5,1.8-4.5,10.1-4.6,12.8l.9-1.5a.3.3,0,0,1,.3.3,23.8,23.8,0,0,1-2.2,5.3v-1.3h-.5c-.7,1.5-2,3-.8,4.5s0,1.1-.3,1.5L468,183.7c-.5,1-1,1.8-2.3,1.7-.2,5.4-3.9,8.7-8.2,11.3-1.4.9-3.8,1.5-5.1,1.1-6.7-1.4-11.6-4.5-13-11.8a123.8,123.8,0,0,1-1.9-15.2c0-5.2,0-10.5,1.1-15.8s2.2-10.9,3.3-16.4c.7-2.8,3-4.1,5.6-3,.6.2,1.3.7,1.9.4,2.8-1,4.2.9,6,1.7a2.5,2.5,0,0,1,1.3,3.1c-.5,1.6-.4,3.4-2.1,4.8s-.5,1.8-.9,3l1.5-1.2c-.5,3.4-1.1,6.6-1.5,9.9l-.6,5.6c0,1.6-1.3,3.4-.2,4.9v.5c-1.8,3,.7,4.8.3,7.7,2.3-1.8,2.7-3.9,3.4-5.6a83,83,0,0,1,6.1-13.6,23.9,23.9,0,0,0,1.5-3.7,5.8,5.8,0,0,1,.8-1.8,6.8,6.8,0,0,0,2.1-4.4c0-.2,0-.5.1-.6,2.1-2.5,2.2-5.2,3.6-7.8s2.6-3.5,5.6-3.5c-.7,2.1-1.7,4.3-2.4,6.5s-2.4,4.6-3.4,6.9c-5,11.8-10.2,23.5-15.1,35.3a2.4,2.4,0,0,0-.3,1.4,3.8,3.8,0,0,0,1.3-1.2,36.6,36.6,0,0,0,2.1-5.1c4.1-9.5,8.2-19.1,12.2-28.7,1.2-2.9,2-5.7,3.1-8.7C475,139.9,476.1,138.4,477.2,136.7Zm-23.5,16.4v-1h-.1a2.6,2.6,0,0,1-.3,1.1Zm1.7-11.9a9.9,9.9,0,0,0-.3,1.5h.4a2.2,2.2,0,0,1,.4-1.3Zm.4,46.3c2.6-3.2,13.5-29,14-32.5C465,165.9,460.5,176.4,455.8,187.5Zm12.1-7.5a13.7,13.7,0,0,0-.7,2.4h.6a18.6,18.6,0,0,1,.9-2.4Zm6.7-15.3c-1.7,3.6-3.2,7.2-4.5,10.7C471.4,173.9,474.3,166.8,474.6,164.7Zm-2.5-14.4a4.7,4.7,0,0,1,.3-.9H472a1.9,1.9,0,0,1-.3.9Z"/><path class="a" d="M532.8,172.3c-1.5.4-2.8,1.2-2.5,3a3.7,3.7,0,0,1-.9,2.3c-4.8,6.1-10.1,11.9-16.9,15.9s-14.6,6.3-21.7,3.3c-4.9-2.2-9.1-4.9-10.8-10.2a20,20,0,0,1-.7-10.1c0-.1.3-.4.2-.5-.3-4,1.3-7.9,3.1-11.6,2.7-5.7,5.7-11.3,10.6-15.8,2.9-2.6,5.6-5.5,8.6-7.9a20.7,20.7,0,0,1,17.6-4.9,35.1,35.1,0,0,1,15.8,6.8c1.8,1.2,2.6,3.3,3.6,5.3,2.7,6.9-.6,13.8-4.1,20.7l.6-2.9c1.5-2.3,1.8-3,1.8-4.9a9.3,9.3,0,0,0-1.8,5.1C533.7,167.8,532.6,169.8,532.8,172.3Zm-36.8-20a19.5,19.5,0,0,0-7.1,10C491.1,159.1,493.4,155.9,496,152.3Zm-4.8,9.2c1.9-2.6,3.3-4.9,4.9-7.1A13.5,13.5,0,0,0,491.2,161.5Zm13.4-10.6a62.9,62.9,0,0,0-11.9,17.3,12,12,0,0,0-.5,2.6,16.7,16.7,0,0,1,1.2-1.9l10.1-15.4,2.4-3.4a18,18,0,0,1,2.1-1.9c0-.2-.2-.3-.4-.4a17,17,0,0,1-1.7,2.3A4.1,4.1,0,0,0,504.6,150.9ZM498.2,166c-.5,1.1-1,2.1-1.3,3-1.2,4-3.1,7.9-3.5,11.7A11,11,0,0,0,495,188c1.7,2,1.9,2.3,4.8.6a38.7,38.7,0,0,0,12.4-11.4c4.6-6.7,8.2-13.8,9.7-21.3.6-3.2,1.5-6.5.6-9.5s-2.5-3.7-5.7-2.2a36.5,36.5,0,0,0-5.6,4.1c-2,2-3.6,4.4-5.4,6.4a18.3,18.3,0,0,1-2.6,2.1,5.7,5.7,0,0,1,0,1.3c-1.5,2.1-2.1,4.5-4.5,5.9-.8.4-1.2,1.6-1.6,2.3-2.5,3.7-3.4,6.5-2.9,8.8,1-3,1.8-5.8,2.7-8.8Zm24.1,2.6c-1.7,2.7-3.3,5.5-4.9,8.2a17.3,17.3,0,0,0,5.4-7.9C522.7,168.7,522.5,168.7,522.3,168.6Zm1.7.1a52.2,52.2,0,0,1-2.6,4.7l.7.2c.8-1.5,1.8-3.1,2.8-4.6A1.6,1.6,0,0,1,524,168.7Zm.2,10.7a2.9,2.9,0,0,1,.8-.7c-.1-.1-.3-.1-.3-.3l-.8.8C524,179.2,524,179.4,524.2,179.4Zm8.3-15.4c-2.2,3.9-4.2,7.9-6.3,11.8.2.2.4.2.7.3a30.4,30.4,0,0,0,6.1-12Z"/><path class="a" d="M595,145.9a95.8,95.8,0,0,0-8.4,13,63.4,63.4,0,0,0-5.3,11.2c-1.1,3.3-2.9,6.5-3.3,9.9a4.8,4.8,0,0,1-4.2,4.4,21.4,21.4,0,0,1-3.8-1.2c-.7-.3-1.4-1-1.4-1.5-.1-2.2,0-4.4.1-6.6s.3-2.8.4-4.2c.6-4.2.9-8.4,2.1-12.5s.7-6,1.6-9c.4-.8,0-1.6,0-2.7a25,25,0,0,0-4.2,4.6c-3,4.9-5.2,9.9-7.9,14.9-1.1,1.9-1.6,3.9-2.6,5.8a23.7,23.7,0,0,0-2.5,7.5,4.4,4.4,0,0,1-.9,2.3c-.8,1-1.2,1.7-.8,2.6a12.1,12.1,0,0,1-.3,1.4c-.7,1.9-1.6,3.9-2.3,5.8s-3.6,4.1-5.6,3.3c-.5-.1-1.1-.7-1.8-.7-2.7.2-3-1.5-2.8-3.8s-.4-5,.5-7.4.2-5.4.4-8c.7-6,1.7-11.8,2.9-17.8a78.8,78.8,0,0,1,2.8-10.3c.9-1.7.7-3.6,1.1-5.5a15.1,15.1,0,0,1,1-3c.7-2.1,1.4-2.5,3.4-2.1a1.4,1.4,0,0,0,1.1.2c2.2-1.7,3.3.5,4.8.9s.5,1.8.2,2.9c-1.3,4.9-2.3,9.6-3.7,14.8a6.2,6.2,0,0,0,3.6-2.7,81,81,0,0,1,12.5-15c2.5-2.4,6.8-3.3,9.3-1.8.8.4,1.8,2.5,2,4.1s.7,0,1.1.2c-.3,3-.8,6-1.2,9.1,3.1-1.8,4.5-4.6,6.8-7a61.4,61.4,0,0,1,6-5.3c4.6-3.1,10.8-2.4,14.2.6s1.3,4.3,1.5,6.8-1.3,2.4.2,3.1-.1,1-.2,1.4c-2.9,4.5-3.8,9.1-4.1,13.9a14.7,14.7,0,0,1-.8,2.8v-2.6a28.4,28.4,0,0,0-1.7,4.8c-.1,1-1.2,2.1.3,2.7s-.3,2.1-.9,2.9-2.2,2.9-1.4,4.6a1.4,1.4,0,0,1-.1.9c-2.5,1.6-1.4,3.5-1.8,5.4s-.4,2-.7,3.3a2.9,2.9,0,0,0-.4-.8h-.6a33.2,33.2,0,0,1-.6,5.2,5.3,5.3,0,0,1-.6,2.4,29.3,29.3,0,0,1-1.9,4c0,.4-.4.7-1.2.8a16.6,16.6,0,0,1,.3-2.2c3-10.8,6.1-21.7,9.2-32.4.8-3.4,2.1-6.8,3-10.2a13.9,13.9,0,0,0,.6-4c-1.4,4.2-2.9,8.3-4,12.5-3.1,10.8-6.3,21.4-9.2,32.2-.5,1.5-.9,3-1.4,4.4s-1.8,1.5-2.5.5a7.5,7.5,0,0,0-.9-1.5,1.6,1.6,0,0,0-1.2-.4c-1.7.7-2.2-.1-2.4-1.2a6,6,0,0,1,.3-2.6c1-4.5,2.1-9.1,3.1-13.6s1.5-6.7,2.5-10,2-6.7,3.1-9.9q3.3-9.3,6.3-18.3a8.7,8.7,0,0,0,.5-2.2c-.1-.1-.4-.2-.5-.4A30.5,30.5,0,0,0,595,145.9Zm-33.9,16-1.8,2.2a110.3,110.3,0,0,0-6.9,17.2c-.2.5,0,1.1-.2,1.6,1.9-4.1,3.6-8.2,5.2-12.3l3.7-8.7c1.1-2.3,2.4-4.5,3.5-6.8.6-.5,1.7-.9.9-2.2a19.1,19.1,0,0,0-.7,2.4A11.4,11.4,0,0,0,561.1,161.9Zm-7.4-5.8c-.1.1-.4.2-.5.5v.4l.9-.2C553.9,156.5,553.9,156.3,553.7,156.1Zm3.7,3.2a10.8,10.8,0,0,0-1.1,1.8h.3a10.7,10.7,0,0,0,1.4-1.6C557.8,159.5,557.6,159.3,557.4,159.3Zm0-17.5c0-.4.2-.9,0-1.3H557a3.5,3.5,0,0,1-.3,1.4Zm3.8,12.1-.2-.4c-.2.3-.6.4-.6.5s.3.4.4.7S561.2,154.2,561.2,153.9Zm4.7-5.9a.7.7,0,0,1-.4-.5.5.5,0,0,0-.3.4.6.6,0,0,0,.1.4Zm11.4-5.4c.1.1.3.1.4.3l.2-.3a.3.3,0,0,0-.3-.3Zm3.1,26.5c1.5-3.4,3-6.8,4.7-10.2h-.6a51.6,51.6,0,0,0-4.6,10.2Zm.9-19.3a4.9,4.9,0,0,1,.1-1.2H581a5.3,5.3,0,0,0-.3,1.2Zm2.4,3.3-.5,1.1h.6a11.7,11.7,0,0,1,.5-1.1Zm3.7.5c-.4.7-1,1.4-1.6,2.3C587.1,155.3,587.1,155.3,587.4,153.6Zm-.1-4.5-.3-.3-.6.5.3.4C586.8,149.5,587,149.4,587.3,149.1Zm1.2-2.3h.4l.3-.2a.3.3,0,0,1-.3-.3C588.8,146.5,588.8,146.7,588.5,146.8Zm4.6,33.2c-.8,3-1.5,6-2.2,9a1.4,1.4,0,0,0,.7.3c.7-3.1,1.4-6.3,2.1-9.3Zm-.5,7.5v1.4a3.1,3.1,0,0,1,.5-1.2C593,187.5,592.7,187.5,592.6,187.5Zm2.2-12.9c-.2.8-.3,1.6-.6,2.5h.4c.3-.9.4-1.7.7-2.5Zm.9,2.5.4-.9c0-.1-.1-.4,0-.6h-.4a2.7,2.7,0,0,1-.3,1.2C595.6,176.9,595.6,177.1,595.7,177.1Zm1.4-10.9c-.3,1.5-.6,2.9-1,4.4C596.9,169.1,597.9,167.7,597.1,166.2Zm3.4-8.9a14.9,14.9,0,0,1,.4-1.8h-.3c-.1.6-.4,1.1-.5,1.8Zm3.8-13.1c-.1,0-.1.3-.1.3l.2.3c0-.2.2-.3.2-.4S604.3,144.4,604.3,144.2Z"/><path class="a" d="M320.7,286.6c-8.1,4.9-16,5.5-23.3,1.9a16.3,16.3,0,0,1-1.7,2.1c-1.3.8-2.1,2.6-3.4,1.2a1.3,1.3,0,0,0-.8.3c-1.4,1.7-2.4.8-3.3,0a3.6,3.6,0,0,0-2.1-.8c-2.4-.3-3.1-1-2.7-3.3,1-4.6,1.9-9.3,3-14s1.9-11.4,3.1-17.1c1-4.2,2.2-8.4,3.3-12.5.6-2.1,1.2-4,1.8-6,0-.3.3-.6.3-.8.5-4.7,1.9-9.3,3-13.9,2.1-8.1,4.6-16.1,6.9-24.1.7-2.2,1.8-2.9,4.1-2.8s2.2-.2,3.3-.1a4,4,0,0,1,2.4.8c1.2,1.8,1.4,2.1,3,2.7-1.8,2.4-2,5-2.7,7.4s0,1.5,1.2.7c-.7,2.4-1.2,4.8-2,7.1-.2.4-.3,1.1-.6,1.2-2.7,1.6-1.9,3.9-2.2,6,.3-1,.7-1.9.9-2.9h.4c-.8,3.3-1.7,6.4-2.6,9.6h-.3v-2.4a38.4,38.4,0,0,0-2.9,9.5c.6-.9,1-1.1,1-1.3a6.6,6.6,0,0,0,2,0,6,6,0,0,0,1.8-.9c8.2-5.6,16.2-5.9,24-3.6,1.1.3,1.9.8,2.9,1,2.7.4,3.8,2.3,4.3,4.6s1.2,2.7.7,4.4c1.5,1.6.5,4.1,1,6.2a4.9,4.9,0,0,0-3.2,4.1c-.1,4.4-1.9,8.6-3.7,12.8l-.6,2.6c-.3,1,.5,1,1.2,1C335,275.9,328.6,282,320.7,286.6Zm-19.6-15a.8.8,0,0,1,.4.7,9.4,9.4,0,0,0,.9-1.2c-.7,1.4-.5,3.3-2.5,4.1-.1,0-.3,1.3,0,1.6a16.8,16.8,0,0,0,2.6,2.7c3.5-1.7,3-.9,7.6-6a45.5,45.5,0,0,0,8.5-12.2c1.9-3.6,2.4-7.4,5-10.6a2.2,2.2,0,0,0,.3-1.3c.4-1.9.8-3.9,1.1-6s.5-2.7-.3-4.1a20.3,20.3,0,0,1-2.3,1.4c-3.8,2.6-6.4,6.1-9.2,9.5a28.9,28.9,0,0,0-3.1,5.1c-.9,1.6-1.9,3.4-2.7,5.2s-1.5,4.1-2.9,5.3-.9,3.2-1.7,4.7-.4.5-.4.6S301.3,271,301.1,271.6Zm-.5-3.4c2.4-5,5-10.2,7.5-15.2l-.6-.3c-3.1,4.9-6,9.9-7.5,15.4ZM313.7,214c.1-.3.1-.7.2-.9h-.2c-.2.2-.2.6-.3.9Zm13.7,41.8c-1.2,2.8-2.4,5.3-3.8,7.9s-3.1,5.1-3.9,7.9a34.2,34.2,0,0,0,8.1-15.5C327.8,256,327.7,256,327.4,255.8ZM325,268a44.5,44.5,0,0,0,5-11.8C327.8,259.4,325.1,265.6,325,268Zm9.9-3c1-3,2.3-6,2.5-9-2.8,5.3-5.3,10.5-7.8,15.8,0,.2-.1.5-.1.8s.1.3.5.7A27.1,27.1,0,0,0,334.9,265Zm-.3,6.1-.9,1.8h.4a5.6,5.6,0,0,0,.9-1.9Zm7-32.7a1.5,1.5,0,0,1-.4-.6l-.4.5.2.2Z"/><path class="a" d="M351.5,291.1c-.1-1.2-1.1-1.2-2.1-1.5l-1.4,2.5c-3-.8-3.5-3-3.1-6,.6-4.9.9-9.7,1.3-14.6.3-1.4.3-2.9.6-4.4.6-3.9,1.5-7.9,2.3-11.8s1.9-8.7,3.1-13.1c2.6-9.4,5.1-18.8,7.8-28.2,1.1-3.8,2.2-7.8,3.4-11.6a12.2,12.2,0,0,1,2.4-4.3c1.7-1.9,2.8-2.1,4.8-1.3s1.4-.1,1.8.2.1.9.3,1.5c3.5-3.6,4.5-3.2,6.1,1.9l1.9-1.2,1.5,1.5a52,52,0,0,0-1.8,5c-1.1,4.2-1.6,8.4-2.8,12.7-2.1,8.1-4.5,16.2-6.9,24.4a75.8,75.8,0,0,0-1.3,8.1c1.6-5.7,3.4-11.4,5-17.1h.7c-.4,1.2-.5,2.3-.9,3.5s-.7,2.7-1,4.1c-2.3,8.4-4.6,17-7.1,25.6-.7,2.7-1.2,5.3-1.9,8a2.1,2.1,0,0,1-.4,1c-2.9,2.5-2.6,5.6-3.4,8.6s-1,3.7-1.6,6.1c-1.3-1.5-.7-2.7-.6-3.8,2.5-10.4,4.5-20.7,7.1-31.1s6.3-23.7,9.3-35.4a56.4,56.4,0,0,0,1.5-9c-2.8,9-5.5,18-7.9,27s-4.5,18-7,27.1-2.7,18-6,27C353,293,351.7,292.6,351.5,291.1ZM350.4,281a16.6,16.6,0,0,0-.2,2.4c.1,0,.2-.2.4-.2a18.9,18.9,0,0,1,.5-2.3Zm1.5-6.5c-.1,0-.5.1-.6.3s.1.4.2.4.3-.2.4-.2Zm.3-4.8v1.1a2.1,2.1,0,0,0,.4-1.1Zm1.8-5.4-.7-.4c0,.2-.1.7-.1,1.3Zm.5-3.8c2.3-9.6,4.7-18.4,6.8-27.4C358.1,239.9,353.9,257.2,354.5,260.5Zm4.8-14.5c-.8,3.7-1.5,7.4-2.3,11.1h.5c.8-3.9,1.7-7.5,2.3-11.2Zm2.6-8.7c-.3,1.4-.7,2.7-1,4.1h.3c.3-1.4.7-2.7,1-4Zm3.9,24.8-1.2,5.7C365.2,265.9,366.7,263.9,365.8,262.1Zm2.2-6.8c-.1.1.2.3.3.3s.3-.4.3-.6-.3-.1-.3-.3A.7.7,0,0,0,368,255.3Zm9.4-50.7c-.2.8-.5,1.5-.7,2.3a2.1,2.1,0,0,0,1.5-1.1c.2-.4,0-.8.2-1.2Z"/><path class="a" d="M403.7,244c-.1.1-.4.1-.5.3-2.3,1.5-2.8,1.5-4-.3a2.2,2.2,0,0,0-2-1.4c-1.8,0-1.9-1.5-.7-2.8a31.6,31.6,0,0,1,13.9-9,30.1,30.1,0,0,1,4.9-1.4,22.8,22.8,0,0,1,18.5,3.8c2.3,1.7,4,4,3.7,7.2a62.7,62.7,0,0,1-1.1,7.9,8.7,8.7,0,0,1-1.5,2.1,11.3,11.3,0,0,1,0,2.6,2,2,0,0,1-1.3,2.3c-.3,0-.9,1.1-.7,1.1s.4,1.5-.6,2.2-.5.5-.7.8c-.9,2.8-1.9,5.7-2.8,8.6a2.4,2.4,0,0,1-.6,1c-.4,1.1-1,2.2-1.3,3.2-.6,3.3-2.3,6.4-2.2,9.7,0,.2-.1.5-.1.6-1.7,1.4-2.6,3.4-4.8,4.4l-.4.3c-1.1-1.3-2.5.5-3.6.4s-4.9.8-7.3,1.5a90.4,90.4,0,0,1-16,2.6c-3.6.1-7.2-.3-9.9-2.2a62.7,62.7,0,0,1-5.9-4.2c-3.2-3-3.5-7.3-1.5-12.2,3.7-8,10-13.7,17.9-17.7a37.4,37.4,0,0,1,16.9-3.8,29.5,29.5,0,0,1,9.4,2.3l1.2.4c1.2.4,1.6.2,2.1-1.1a82.6,82.6,0,0,0,2.4-13.6c.4-2.3-.3-3-2.7-2.4a45.8,45.8,0,0,0-14.5,6.1l-4.3,2.6A14.2,14.2,0,0,0,403.7,244Zm-18,21.6c-2.1,2-4.3,4.1-5.1,7A50.1,50.1,0,0,0,385.7,265.6Zm-1.9,4.3-.7,1.3.5.2a8.4,8.4,0,0,1,.6-1.4ZM387,276l6.2-8.9C389.1,270.1,386.7,273.7,387,276Zm4-1.2a3.7,3.7,0,0,1-.5,1.5c-.3,1.5-1,2.8-1.1,4.3s.3,3.2,2.9,2.9a94.8,94.8,0,0,0,18.4-4,4.6,4.6,0,0,0,2.8-2.7c2.2-4.2,2.6-8.7,4-13.1a3.4,3.4,0,0,0,0-2c-.3-1.9-.8-2.5-2.9-2.5a25.8,25.8,0,0,0-3.9.4c-6.7,1.5-12,5.5-16.4,10.9-.5.9-1.2,2-1.9,2.1-3,.8-2.9,3-3.7,4.8h.4c.7-1,1.1-1.9,1.7-2.9S391,274.6,391,274.8Z"/><path class="a" d="M454.1,277.9a282,282,0,0,0,15.2-23.8,90.2,90.2,0,0,0,5.8-14.2,46.7,46.7,0,0,0,.8-5.2c.6-2.4,1.8-3.4,4-2.7l6.2,1.9a3,3,0,0,1,2.2,3.7c-.1,2,.6,4.2-1.2,6.2,0,0-.3.2-.1.3,1.3,3.4-2.9,6.6-2.8,10a51.3,51.3,0,0,1-1.3,6.6c-.2.9.3,1.5.4,2.2a4.9,4.9,0,0,1-.8,4.7,3,3,0,0,0-.6,4c.7,1,.4,2.1.2,3.2a13.1,13.1,0,0,0-.6,3.8c.6,3.7.4,7.5,2.5,10.2-.7,1.8-2.1,2.3-3.4,2.9-3.2.8-7.9-1.1-8.8-3.8s-1.3-5.8-2-8.6c-.1-.8-.3-1.7-.5-2.8a15.4,15.4,0,0,0-4.3,4.1c-2.4,3.4-5,6.8-8.8,9.2s-6.8,2.8-10,1.5c-1.2-.6-2.4-.9-3.4-1.4-3.2-1.5-4.1-4.6-4.7-7.9a42.7,42.7,0,0,1-.9-10.1c.2-4.5.7-9,1.1-13.6,1.8-2.7,1-5.6,2.1-8.5s1.3-5.8,2.4-8.7a119.4,119.4,0,0,1,5.1-10.9c.9-1.9,2-2.3,3.9-1.8a23.3,23.3,0,0,0,2.5.7c3.2.4,3.4.6,3.2,4.3l1.4-2c.1.5.4.6.4.7-1.6,5.1-3.4,10-4.9,14.9-.9,3-2,6.1-2.9,9.1-.2,1.2.3,2.5-.1,3.8s-.8,3.2-.9,4.8,1.2,2.6-.3,4.5a2.3,2.3,0,0,0-.4,2c.2,2.5.7,4.9.9,7.5a8.7,8.7,0,0,1,.7,1.9C452.6,279.5,453.6,278.9,454.1,277.9Zm-9.8-25.2c0,.1.3.1.3.3s.3-.4.1-.6-.1-.1-.1-.2Zm1.1-6.4c2.1-1.1,1.9-2.5,1.6-4.5C446.4,243.6,446,244.8,445.4,246.3Zm6.8-1c-.5,1.8-.9,3.6-1.5,5.4A5.3,5.3,0,0,0,452.2,245.3Zm17.9,14.3c-1.8,1.5-5.2,7.3-6.2,9.9a6.6,6.6,0,0,0-2,2.8l.7.3a28.8,28.8,0,0,1,1.3-3.1C466.8,266.6,468.3,263.1,470.1,259.6Z"/><path class="a" d="M526.3,282.5c.2.4-.5,1-.9,1.4-4.6,3.5-9.6,6.8-15.1,7.6a11.9,11.9,0,0,1-9.7-2.3c-4.2-3.3-7.5-7.5-8-13.3a24.9,24.9,0,0,1,1-10.4,121.8,121.8,0,0,1,4.7-13.6c1.3-3.4,3.7-6.7,5.7-10.1a14.2,14.2,0,0,1,3.5-4.4c1.3-.9,1.8-2.7,2.8-4.2a22.5,22.5,0,0,1,8.1-6.3,7.7,7.7,0,0,1,7.7.6,22.4,22.4,0,0,1,6.5,6.9,6,6,0,0,1,.7,5.4,10,10,0,0,0-.4,2.4,6.5,6.5,0,0,1-1.9,3.4c-2.3,2.3-4.1,5.1-6.2,7.6a10.9,10.9,0,0,1-.6,1.1c-.4.3-1.3.4-1.5.9-1,2-3.3,2.9-4.8,4.3a5.8,5.8,0,0,0-1.4,1.2c-1.7,3.4-5.3,4.7-7.9,6.9s-2.8,1.7-4.2,2.5a4,4,0,0,0-2,3.3,24.5,24.5,0,0,0,.5,7.2c.7,3,2.1,3.4,5.2,1.7s7.6-4.8,10.3-8.8,4.4-5.5,6.2-8.5,1.9-4.5,3-7.1c1.1-.7,1.9-.6,3.1.2s3.7,2.4,5,3.9a3.2,3.2,0,0,1,1.1,3.1c0,2.5-.5,4.9-3.2,6.8a6.9,6.9,0,0,0-1.9,2.3c-1,1.5-2.1,3.2-3,4.8h.1C527.6,279.9,526.3,280.9,526.3,282.5Zm-12.5-26c.1,0-.3-.4-.3-.7l3.4-4.1-.4-.2c-2.7,3.1-6.1,5.4-8.8,8.6a.6.6,0,0,1,.2.5l2-1a11.5,11.5,0,0,0,2-1.5A10,10,0,0,0,513.8,256.5Zm-5.2-3.1s-.4.3-.4.4,0,.4.2.5a2.2,2.2,0,0,0,.6-.5Zm15.7-2.7c-5,4.7-9.9,9.4-14.9,13.9C515.2,261.3,523.3,253.5,524.3,250.7Zm-9.3-7.4c.2,1.4-.6,2.3-1.3,3.3s-1.8,2.8-2.8,4.3-.8,1.9-1.2,2.9c1.2.5,1.9-.1,2.6-1,2.6-3.5,5.3-6.9,7.9-10.5,1.2-1.9,2.7-3.6,3.1-5.8-2-.4-2-.4-3.9,1.6a5.8,5.8,0,0,0-2.7,3.6C516.1,242.2,515,243,515,243.3Zm3.2-13.2a20.9,20.9,0,0,0-2.2,1.6c-.7.6-1.5,1-1.6,2.3l1.9-1.9C516.9,231.7,517.9,231.3,518.2,230.1Zm-2.2,9.1c1.5-1.2,3.4-2.2,4.2-4.1A7.7,7.7,0,0,0,516,239.2Zm6.8,34.3c-1.9,2.2-4.1,4.4-6,6.4.1.2.3.3.5.5a27.4,27.4,0,0,0,5.9-6.4Zm5.7,1.8c-2.6,3-5.4,6-8,8.9,3.9-1.9,6.1-5.1,8.6-8.5A1.3,1.3,0,0,1,528.5,275.3Zm-6.7,2.2.9-1.1h-.3l-.8.8Z"/><path class="a" d="M554.3,234.2c4.6-2.3,4.6-2.3,6,.8a12,12,0,0,0,1.7-1.1c1.9,1.1,1.5,3.3,1.1,5.3-.8,3.7-1.7,7.4-2.6,11a20,20,0,0,0-.6,2.9c1-.8,1.6-1.1,2.1-1.6s3.4-3.8,5.1-5.9a60.4,60.4,0,0,1,15.1-13.9,15.5,15.5,0,0,1,8-2.6,61.5,61.5,0,0,1,7.4.6c.5.1,1.1.7,1.6.9s1,1.1,1.8,1.4c2.7,1.1,3.4,2.6,2.5,6l-.3.3c1.2,3.2-1.4,6.6-1.8,9.9a69.9,69.9,0,0,1-2.6,10.5L596,269c-.9,3.2-1.4,6.2-2.1,9.3s-1.9,8.2-2.7,12.3c-.3.7-.7,1.3-1.2,2.2a12.7,12.7,0,0,0-1.3-1.1l-1.6,2.1c-2-.5-2-.5-3.3-3.4a13.7,13.7,0,0,1-.8,1.4c-1.5,1.4-3,1.2-2.7-.7.3-3.8-1.2-7.2.5-11.4,1-2.1.7-4.4,1.1-6.7a13.5,13.5,0,0,1,.3-1.8c1.1-3.8,2.7-7.6,2.9-11.3.6-5.8,3.4-11.6,3.9-17.3a35.5,35.5,0,0,0,.4-5.2,45,45,0,0,0-4.9,3.6c-5,4.9-9.8,9.9-13.5,15.7-1.9,2.9-3.9,5.8-5.7,8.7a5.2,5.2,0,0,0-.7,1.5c-.9,1.6-2,3.2-2.8,5A18.3,18.3,0,0,0,560,276c-.6,2.7-.8,5.4-3.4,7.8a4.7,4.7,0,0,0-.4,1.7h.2l.3-.2h.8a16.2,16.2,0,0,1-1.7,3.5,8.2,8.2,0,0,1-8.1,2.9,37.5,37.5,0,0,0-3.9-.9c-1.5-.4-2.7-.9-2.9-2.7s-.3-5.6-.1-8.3a95.5,95.5,0,0,1,1.2-10.6c.4-3.4,1.2-6.8,1.9-10.4s1.4-7.6,2.3-11.4,2.2-8.3,3.6-12.5c.7-2.4.9-2.4,3.9-2.8C554,232.9,554.1,233.5,554.3,234.2Zm1.5,23.7c0-1.4.1-2.9.2-4.2C555,255.3,554.7,256.7,555.8,257.9Zm.5,22.3c1-2.2,2.1-4.5,3-6.7s2.2-4.5,3.1-6.8,2.9-4.1,3.2-6.4c-3.8,6.4-8.1,12.7-10.1,19.6Zm1.6-33.8a2.5,2.5,0,0,0,.2-1.2h-.4a5.3,5.3,0,0,1-.3,1.2Zm1.3,6c.7-3,1.2-5.8,1.9-8.8h-.3c-.7,3-1.2,5.8-1.9,8.8Zm3-13.3a9.5,9.5,0,0,1,.4-1.8h-.4a8,8,0,0,0-.4,1.8ZM590,287.9c1.3-6.5,2.7-12.9,4.1-19.1C592.1,275,590.2,281.4,590,287.9Zm.8-34.2c-.2.1-.3.2-.3.4s0,.2,0,.5a.9.9,0,0,1,.6-.3A1.1,1.1,0,0,0,590.8,253.7Zm6,2.8c-.7,2.5-1.2,4.6-1.9,6.7C596.9,260.3,597.2,259.2,596.8,256.5Zm2.2-7.9c-.3,1-.6,1.8-.9,2.7a12.9,12.9,0,0,1-.5,2.4h.4a48.3,48.3,0,0,0,1.6-5Z"/><path class="a" d="M706.6,252.8a35.3,35.3,0,0,1-7.9,7.5c.1-.5.3-.9.7-2.2-1.3,1.3-2.3,1.8-2.6,2.5-.8,2.5-3.1,3.4-5.2,4.5L679.1,271c-3.7,1.6-3.8,1.6-4.4,5.3s-.8,5.3-1.3,8a1.9,1.9,0,0,1-.5,1.6c-.9,2.1-1,2.1-.1,3.4a37.1,37.1,0,0,0-2.3,3.2l-1.9-1.1a14.9,14.9,0,0,0-1.5,2l-4-1.2.3-.4h-.5c-2.8,1.2-4,.8-4.3-1.8a49.1,49.1,0,0,1-.2-9.4c0-2.7.1-2.7-2.6-2.7s-3.6,0-5.1-.9a6.8,6.8,0,0,1-2.3-2.5,20,20,0,0,0-1.5-2.9c-.8-1.2-.7-1.9,1.1-2.6l3.1-.9,6.7-2.2c1.9-.7,2.5-1.5,2.7-3.4s1.3-6.1,1.8-9.1a4.4,4.4,0,0,0-1.5-4.7c-5.8-4.3-9-10.7-11.2-17.7a19.5,19.5,0,0,1-.1-11c.4-1.2.7-2.6,1-3.8,2-7.4,8-11.6,14.4-15.1,7.9-4.4,15.5-5.2,23.6-4.4,12.4,1.4,21.2,7.6,28.2,16.5,2,2.6,2.7,5.8,3.4,9.3-.2.2-.2.4,0,.5,1.3,4.8-.8,9.7-2.5,14.6-.1.7-.2,1.7-1.6,1.6a17.8,17.8,0,0,0-1.2,1.8h.1c-1.2,1.6-2.3,3.4-3.4,5s-4.9,5.5-7.5,8.2c-.8.8-1.8,1.6-2.6,2.5a.8.8,0,0,1,.4.4l2.6-2.6Zm-45-45.6a12.8,12.8,0,0,0-5.1,5.2l2-1.3,2.2-2.3A12.9,12.9,0,0,0,661.6,207.2Zm11.5,2.3a9.1,9.1,0,0,0-4.7,2.3,14,14,0,0,1-3,2.3,5.6,5.6,0,0,0-2.8,5.2,2.7,2.7,0,0,1-.3,1.4c-2.3,4.8-1.5,9.2-.8,13.6a7.1,7.1,0,0,0,3.1,5C667.4,229.1,670.2,219.3,673.1,209.5Zm-10.5,5.3c1.5-1.6,3.1-3.2,4.6-4.9-2.2,1-4.2,2.2-5.2,4.4C662.2,214.4,662.3,214.7,662.6,214.8Zm1.6-9.9-.4.3.3.4c.1-.2.4-.3.4-.4S664.4,204.9,664.2,204.9Zm9.2,70.8c-.5,2.2-.7,4.2-1,6.3.8-2.1,1.8-4.2,1.6-6.3Zm1.6-23.1-.6,2.4c-.1.7-.9,1.4-.1,2.6.5-2,1.1-3.5,1.4-5Zm1.5-4.3a.7.7,0,0,0-.4.6c0,.3.1.5.1.8a5.6,5.6,0,0,0,.4-1.2S676.5,248.5,676.5,248.3Zm6.1,4.5c7.5-5.6,14.9-11.3,20.3-19,3.1-4.3,5.7-8.8,6.3-13.8a10.4,10.4,0,0,0-2.7-8.3c-5.8-5.6-13.3-7.2-22.1-6.1a7.1,7.1,0,0,0-1.5.9l3,.4c2.6.6,3,1.4,2,4-.2.8-.9,1.6.2,2.3l2.7-3.6c.3,0,.4.2.5.2-4.7,15-10.2,30-13.9,45.1h.7c.8-2.7,1.7-5.3,2.5-7.9h.4c-.4,2.3-1,4.5-1.5,7.5C680.8,253.8,681.8,253.4,682.6,252.8Zm-2.4-17.1-.3.2a1.5,1.5,0,0,0-.1.6c.1-.1.2-.3.4-.3A.4.4,0,0,0,680.2,235.7Zm8.1,19.6,10.7-9.1a13,13,0,0,1,1.5-1.8c-.6,0-1,.1-1.1.4L687.1,255l-2.2,2.1-1.6.6a.8.8,0,0,1,.1.4,3.6,3.6,0,0,0,1.4-1A23.1,23.1,0,0,0,688.3,255.3ZM709,244.9c-6.5,6.6-13.2,13.1-20.7,18.2C697.1,259.1,703.7,252.8,709,244.9Zm-17.8,9.8a29.3,29.3,0,0,0,6.5-5.1l2.8-2.8-.6-.4a33.2,33.2,0,0,1-2.6,2.8C695.1,250.9,692.8,252.4,691.2,254.7Z"/><path class="a" d="M725.5,291.1c-.1-1.2-1.1-1.2-2.1-1.5l-1.4,2.5c-3-.8-3.6-3-3.1-6,.6-4.9.9-9.7,1.3-14.6.3-1.4.3-2.9.6-4.4.6-3.9,1.5-7.9,2.3-11.8s1.9-8.7,3.1-13.1c2.6-9.4,5.1-18.8,7.8-28.2,1.1-3.8,2.2-7.8,3.4-11.6a10.8,10.8,0,0,1,2.4-4.3c1.7-1.9,2.8-2.1,4.8-1.3s1.4-.1,1.8.2.1.9.3,1.5c3.5-3.6,4.4-3.2,6.1,1.9l1.9-1.2a21.1,21.1,0,0,0,1.5,1.5,52,52,0,0,0-1.8,5c-1.1,4.2-1.6,8.4-2.8,12.7-2.1,8.1-4.5,16.2-6.9,24.4a75.8,75.8,0,0,0-1.3,8.1c1.6-5.7,3.4-11.4,5-17.1h.7c-.4,1.2-.5,2.3-1,3.5s-.6,2.7-.9,4.1c-2.3,8.4-4.6,17-7.1,25.6-.7,2.7-1.2,5.3-1.9,8a2.1,2.1,0,0,1-.4,1c-2.9,2.5-2.6,5.6-3.4,8.6s-1,3.7-1.6,6.1c-1.3-1.5-.7-2.7-.6-3.8,2.5-10.4,4.5-20.7,7.1-31.1s6.3-23.7,9.3-35.4a56.4,56.4,0,0,0,1.5-9c-2.8,9-5.5,18-7.9,27s-4.5,18-7,27.1-2.7,18-6,27C727,293,725.7,292.6,725.5,291.1ZM724.4,281a16.6,16.6,0,0,0-.2,2.4c.1,0,.2-.2.4-.2a18.9,18.9,0,0,1,.5-2.3Zm1.5-6.5c-.1,0-.5.1-.6.3s.1.4.2.4.3-.2.4-.2Zm.3-4.8v1.1a2.1,2.1,0,0,0,.4-1.1Zm1.8-5.4-.7-.4c0,.2-.1.7-.1,1.3S727.8,264.4,728,264.3Zm.5-3.8c2.3-9.6,4.7-18.4,6.8-27.4C732.1,239.9,727.8,257.2,728.5,260.5Zm4.8-14.5c-.8,3.7-1.5,7.4-2.3,11.1h.5c.8-3.9,1.7-7.5,2.3-11.2Zm2.6-8.7c-.3,1.4-.7,2.7-1,4.1h.3c.3-1.4.7-2.7,1-4Zm3.9,24.8-1.2,5.7C739.2,265.9,740.7,263.9,739.8,262.1Zm2.2-6.8c-.1.1.2.3.3.3s.3-.4.3-.6-.3-.1-.3-.3A.7.7,0,0,0,742,255.3Zm9.4-50.7a20.2,20.2,0,0,0-.7,2.3,2.1,2.1,0,0,0,1.5-1.1c.2-.4,0-.8.2-1.2Z"/><path class="a" d="M777.7,244c-.1.1-.4.1-.5.3-2.3,1.5-2.8,1.5-4-.3a2.2,2.2,0,0,0-2-1.4c-1.8,0-1.9-1.5-.7-2.8a31.6,31.6,0,0,1,13.9-9,30.1,30.1,0,0,1,4.9-1.4c7.4-1.6,13.3.3,18.5,3.8,2.3,1.7,4,4,3.7,7.2a62.7,62.7,0,0,1-1.1,7.9,8.7,8.7,0,0,1-1.5,2.1,11.3,11.3,0,0,1,0,2.6,2,2,0,0,1-1.3,2.3c-.3,0-.9,1.1-.7,1.1s.4,1.5-.6,2.2-.5.5-.7.8c-.9,2.8-1.9,5.7-2.8,8.6a4.4,4.4,0,0,1-.6,1c-.4,1.1-1,2.2-1.3,3.2-.6,3.3-2.3,6.4-2.2,9.7,0,.2-.1.5-.1.6-1.7,1.4-2.6,3.4-4.8,4.4l-.4.3c-1.1-1.3-2.5.5-3.6.4s-4.9.8-7.3,1.5a90.4,90.4,0,0,1-16,2.6c-3.6.1-7.2-.3-9.9-2.2a62.7,62.7,0,0,1-5.9-4.2c-3.2-3-3.5-7.3-1.5-12.2,3.7-8,10-13.7,17.9-17.7a37.4,37.4,0,0,1,16.9-3.8,29.5,29.5,0,0,1,9.4,2.3l1.2.4c1.2.4,1.6.2,2.1-1.1a82.6,82.6,0,0,0,2.4-13.6c.4-2.3-.3-3-2.7-2.4a45.8,45.8,0,0,0-14.5,6.1l-4.3,2.6A14.2,14.2,0,0,0,777.7,244Zm-18,21.6c-2.1,2-4.3,4.1-5.1,7A50.1,50.1,0,0,0,759.7,265.6Zm-1.9,4.3-.7,1.3.5.2a8.4,8.4,0,0,1,.6-1.4ZM761,276l6.2-8.9C763.1,270.1,760.7,273.7,761,276Zm4-1.2a3.7,3.7,0,0,1-.5,1.5c-.3,1.5-1,2.8-1.1,4.3s.3,3.2,2.9,2.9a94.8,94.8,0,0,0,18.4-4,4.6,4.6,0,0,0,2.8-2.7c2.2-4.2,2.6-8.7,4-13.1a4.5,4.5,0,0,0,0-2c-.3-1.9-.8-2.5-2.9-2.5a25.8,25.8,0,0,0-3.9.4c-6.7,1.5-12,5.5-16.4,10.9-.5.9-1.2,2-1.9,2.1-3,.8-2.9,3-3.7,4.8h.4c.7-1,1.1-1.9,1.7-2.9S765,274.6,765,274.8Z"/><path class="a" d="M825.4,234.2c4.6-2.3,4.6-2.3,6,.8l1.8-1.1c1.9,1.1,1.5,3.3,1.1,5.3-.9,3.7-1.8,7.4-2.6,11a17.6,17.6,0,0,0-.7,2.9l2.2-1.6c1.6-1.9,3.4-3.8,5-5.9a60.4,60.4,0,0,1,15.1-13.9,15.5,15.5,0,0,1,8.1-2.6,59.9,59.9,0,0,1,7.3.6c.6.1,1.1.7,1.7.9s.9,1.1,1.7,1.4c2.8,1.1,3.4,2.6,2.5,6l-.3.3c1.2,3.2-1.3,6.6-1.8,9.9s-1.6,7-2.5,10.5-2,6.9-2.9,10.3-1.4,6.2-2.1,9.3-1.9,8.2-2.7,12.3a12.4,12.4,0,0,1-1.2,2.2,12,12,0,0,0-1.2-1.1c-.6.6-1.1,1.5-1.7,2.1s-2-.5-3.2-3.4c-.4.6-.6,1.1-.8,1.4s-3,1.2-2.8-.7c.3-3.8-1.2-7.2.6-11.4.9-2.1.7-4.4,1.1-6.7a12.4,12.4,0,0,1,.2-1.8c1.1-3.8,2.8-7.6,2.9-11.3.7-5.8,3.4-11.6,3.9-17.3.3-1.5.3-3,.5-5.2-2.2,1.5-3.7,2.5-5,3.6-5,4.9-9.8,9.9-13.4,15.7-1.9,2.9-4,5.8-5.8,8.7a5.2,5.2,0,0,0-.6,1.5,40.8,40.8,0,0,0-2.9,5,18.3,18.3,0,0,0-1.8,4.1c-.5,2.7-.8,5.4-3.4,7.8a4.7,4.7,0,0,0-.4,1.7h.3l.3-.2h.8a23.1,23.1,0,0,1-1.8,3.5,8.1,8.1,0,0,1-8,2.9,34.2,34.2,0,0,0-4-.9c-1.5-.4-2.7-.9-2.9-2.7s-.2-5.6-.1-8.3.6-7.1,1.2-10.6,1.3-6.8,1.9-10.4,1.4-7.6,2.4-11.4,2.1-8.3,3.5-12.5c.7-2.4,1-2.4,4-2.8A20.9,20.9,0,0,1,825.4,234.2Zm1.5,23.7a28.6,28.6,0,0,1,.3-4.2C826.1,255.3,825.8,256.7,826.9,257.9Zm.5,22.3c1-2.2,2.1-4.5,3-6.7s2.2-4.5,3.2-6.8,2.8-4.1,3.1-6.4c-3.8,6.4-8,12.7-10.1,19.6Zm1.7-33.8a4.9,4.9,0,0,0,.1-1.2h-.4a2.7,2.7,0,0,1-.3,1.2Zm1.2,6c.7-3,1.2-5.8,1.9-8.8h-.3c-.6,3-1.2,5.8-1.9,8.8Zm3-13.3c.1-.6.3-1.3.4-1.8h-.4c-.1.5-.3,1.1-.4,1.8Zm27.8,48.8c1.4-6.5,2.7-12.9,4.1-19.1C863.3,275,861.4,281.4,861.1,287.9Zm.8-34.2c-.1.1-.3.2-.3.4s0,.2,0,.5.3-.3.6-.3A.7.7,0,0,0,861.9,253.7Zm6,2.8c-.7,2.5-1.2,4.6-1.9,6.7C868,260.3,868.3,259.2,867.9,256.5Zm2.2-7.9c-.3,1-.6,1.8-.8,2.7s-.3,1.5-.6,2.4h.4c.7-1.7,1.1-3.3,1.7-5Z"/><path class="a" d="M906.1,282.5c.1.4-.6,1-1,1.4-4.6,3.5-9.5,6.8-15.1,7.6a12,12,0,0,1-9.7-2.3c-4.2-3.3-7.5-7.5-8-13.3a25,25,0,0,1,1.1-10.4,103.7,103.7,0,0,1,4.6-13.6c1.4-3.4,3.7-6.7,5.7-10.1a13.2,13.2,0,0,1,3.6-4.4c1.2-.9,1.7-2.7,2.7-4.2a23.8,23.8,0,0,1,8.2-6.3,7.6,7.6,0,0,1,7.6.6,22.4,22.4,0,0,1,6.5,6.9,6,6,0,0,1,.7,5.4,10,10,0,0,0-.4,2.4,5.9,5.9,0,0,1-1.9,3.4c-2.3,2.3-4.1,5.1-6.1,7.6l-.7,1.1c-.4.3-1.2.4-1.5.9-1,2-3.3,2.9-4.8,4.3a8.7,8.7,0,0,0-1.4,1.2c-1.7,3.4-5.3,4.7-7.9,6.9s-2.8,1.7-4.2,2.5a4.5,4.5,0,0,0-2,3.3,24.5,24.5,0,0,0,.5,7.2c.7,3,2.1,3.4,5.2,1.7s7.6-4.8,10.4-8.8,4.3-5.5,6.1-8.5,1.9-4.5,3-7.1c1.1-.7,1.9-.6,3.1.2s3.7,2.4,5.1,3.9a3.7,3.7,0,0,1,1.1,3.1,7.6,7.6,0,0,1-3.3,6.8,8.3,8.3,0,0,0-1.9,2.3c-1,1.5-2.1,3.2-3,4.8h.1C907.3,279.9,906.1,280.9,906.1,282.5Zm-12.6-26c.2,0-.2-.4-.2-.7s2.1-2.7,3.4-4.1l-.5-.2c-2.7,3.1-6.1,5.4-8.8,8.6a.6.6,0,0,1,.3.5l1.9-1a11.5,11.5,0,0,0,2-1.5A10,10,0,0,0,893.5,256.5Zm-5.2-3.1s-.4.3-.4.4,0,.4.2.5l.7-.5C888.5,253.7,888.3,253.5,888.3,253.4Zm15.7-2.7c-5,4.7-9.9,9.4-14.8,13.9C894.9,261.3,903.1,253.5,904,250.7Zm-9.2-7.4c.1,1.4-.7,2.3-1.4,3.3s-1.8,2.8-2.7,4.3a18.5,18.5,0,0,0-1.3,2.9c1.3.5,1.9-.1,2.6-1,2.6-3.5,5.3-6.9,7.9-10.5,1.3-1.9,2.8-3.6,3.2-5.8-2.1-.4-2.1-.4-4,1.6a5.8,5.8,0,0,0-2.7,3.6C895.8,242.2,894.8,243,894.8,243.3Zm3.1-13.2-2.2,1.6c-.7.6-1.5,1-1.6,2.3l1.9-1.9A3.2,3.2,0,0,0,897.9,230.1Zm-2.2,9.1c1.5-1.2,3.4-2.2,4.2-4.1A7.7,7.7,0,0,0,895.7,239.2Zm6.8,34.3c-1.9,2.2-4.1,4.4-6,6.4l.6.5a29.3,29.3,0,0,0,5.8-6.4Zm5.7,1.8c-2.5,3-5.4,6-8,8.9,4-1.9,6.1-5.1,8.6-8.5A1.3,1.3,0,0,1,908.2,275.3Zm-6.6,2.2a7.6,7.6,0,0,1,.8-1.1h-.3l-.8.8A.5.5,0,0,0,901.6,277.5Z"/><path class="a" d="M936.8,289.6c-2,2.6-2,2.5-3.9.8a4.5,4.5,0,0,0-2.2-.8c-3.5-.3-3.8-.1-4.1-4.1s-.4-6.6,0-10.2.4-7.7,1.8-11.8c.4-1.5.1-3,.3-4.7,1.2-6.4,2.6-12.8,3.8-19,.4-2.1-.2-2.9-2.1-3.3a9.9,9.9,0,0,1-2.4-.3c-2.3-.5-4.6-1.2-5.1-4.1-3.1.3-5.1-.7-6.2-3.1s-.4-2.3,1.1-2.9l5.1-1.2c3.6-.4,7-.5,10.4-.8s3.3-.8,4-3.3c1.6-5.6,3.4-11,4.9-16.6a6.2,6.2,0,0,1,5.3-4.2h.7c.8,1.5,2.5,1.4,4.2,1.4a2,2,0,0,1,2.2,2.3c-.2.4,0,.8,0,1.6a11.3,11.3,0,0,0,2.1-1.5v2.3a6,6,0,0,0,0,1.9l1-1.9h.4a24.6,24.6,0,0,1-1.1,4.5,3.1,3.1,0,0,1-.9,1.8c-3.2,2.9-1.8,6.3-3.9,9.3h1.1c.4-1.5,1-3,1.5-4.5h.4l-1.2,5.5,7.6,1.5a10.5,10.5,0,0,1,4.7,2.1,1.4,1.4,0,0,0,.8.9c1.9.8,1.9,2.4.1,4a11.4,11.4,0,0,1-5.7,2.6,52.8,52.8,0,0,1-7.1,1c-2,.1-3.8,1.4-5.7,2.2-.3.1-.7.9-.8,1.5-1.4,5.6-2.9,11.3-4.1,16.9s-2.1,12.4-3,18.6c-.6,3.2-.8,6.3-1.2,9.4a5.2,5.2,0,0,0,.6,1.5c.9,1.1.9,1.8-.1,3.2a13.1,13.1,0,0,0-1.5,2.3ZM932.1,269c.1.2.2.2.4.3s.3-.4.1-.4-.1-.3-.3-.3S932.1,268.9,932.1,269Zm3.5-19.7a14.3,14.3,0,0,0,.3-2.9h-.4c-.2,1-.4,1.9-.7,2.9Zm5.7,5.9a6.6,6.6,0,0,0-.8,2.5,50.4,50.4,0,0,0-1.3,8.4c-.3.9-.7,1.9,0,2.8,1-4.8,2-9.1,3-13.6Zm4-17.5c-1,4.6-3,9.3-3,13.9C943.8,247,945.2,242.3,945.3,237.7Z"/><path class="a" d="M991.5,282.5c.1.4-.6,1-1,1.4-4.6,3.5-9.5,6.8-15.1,7.6a12.1,12.1,0,0,1-9.7-2.3c-4.2-3.3-7.5-7.5-8-13.3a25,25,0,0,1,1.1-10.4,103.7,103.7,0,0,1,4.6-13.6c1.4-3.4,3.7-6.7,5.7-10.1a14.6,14.6,0,0,1,3.6-4.4c1.2-.9,1.7-2.7,2.7-4.2a23.8,23.8,0,0,1,8.2-6.3,7.6,7.6,0,0,1,7.6.6,22.4,22.4,0,0,1,6.5,6.9,6,6,0,0,1,.7,5.4c-.2.8-.2,1.6-.4,2.4a5.9,5.9,0,0,1-1.9,3.4c-2.3,2.3-4.1,5.1-6.1,7.6l-.7,1.1c-.4.3-1.2.4-1.5.9-1,2-3.3,2.9-4.8,4.3a5.1,5.1,0,0,0-1.3,1.2c-1.8,3.4-5.3,4.7-7.9,6.9l-4.3,2.5a4.5,4.5,0,0,0-2,3.3,28.5,28.5,0,0,0,.5,7.2c.7,3,2.1,3.4,5.2,1.7s7.7-4.8,10.4-8.8,4.3-5.5,6.1-8.5,1.9-4.5,3-7.1c1.1-.7,1.9-.6,3.1.2s3.7,2.4,5.1,3.9a3.7,3.7,0,0,1,1.1,3.1,7.6,7.6,0,0,1-3.3,6.8,8.3,8.3,0,0,0-1.9,2.3c-1,1.5-2.1,3.2-3,4.8h.1C992.7,279.9,991.5,280.9,991.5,282.5Zm-12.6-26c.2,0-.2-.4-.2-.7l3.4-4.1-.4-.2c-2.8,3.1-6.2,5.4-8.9,8.6a.6.6,0,0,1,.3.5l1.9-1a11.5,11.5,0,0,0,2-1.5A10,10,0,0,0,978.9,256.5Zm-5.1-3.1s-.4.3-.4.4,0,.4.1.5l.7-.5C973.9,253.7,973.8,253.5,973.8,253.4Zm15.6-2.7c-5,4.7-9.9,9.4-14.8,13.9C980.3,261.3,988.5,253.5,989.4,250.7Zm-9.2-7.4c.1,1.4-.7,2.3-1.4,3.3s-1.8,2.8-2.7,4.3a17.8,17.8,0,0,0-1.2,2.9c1.2.5,1.9-.1,2.5-1,2.6-3.5,5.4-6.9,7.9-10.5,1.3-1.9,2.8-3.6,3.2-5.8-2.1-.4-2.1-.4-4,1.6a6.1,6.1,0,0,0-2.7,3.6C981.3,242.2,980.2,243,980.2,243.3Zm3.1-13.2-2.2,1.6c-.7.6-1.5,1-1.6,2.3l1.9-1.9A3.2,3.2,0,0,0,983.3,230.1Zm-2.2,9.1c1.5-1.2,3.4-2.2,4.2-4.1A7.7,7.7,0,0,0,981.1,239.2Zm6.8,34.3c-1.9,2.2-4.1,4.4-6,6.4l.6.5a29.3,29.3,0,0,0,5.8-6.4Zm5.8,1.8c-2.6,3-5.5,6-8.1,8.9,4-1.9,6.2-5.1,8.6-8.5A.7.7,0,0,1,993.7,275.3Zm-6.7,2.2.8-1.1h-.3l-.8.8A.5.5,0,0,0,987,277.5Z"/><path class="a" d="M1019.4,234.2c4.6-2.3,4.6-2.3,6,.8l1.8-1.1c1.9,1.1,1.5,3.3,1.1,5.3-.9,3.7-1.8,7.4-2.6,11a17.6,17.6,0,0,0-.7,2.9l2.2-1.6c1.6-1.9,3.4-3.8,5-5.9a60.4,60.4,0,0,1,15.1-13.9,15.8,15.8,0,0,1,8.1-2.6,59.9,59.9,0,0,1,7.3.6c.6.1,1.1.7,1.7.9s.9,1.1,1.7,1.4c2.8,1.1,3.4,2.6,2.5,6l-.3.3c1.2,3.2-1.3,6.6-1.8,9.9s-1.6,7-2.5,10.5-1.9,6.9-2.9,10.3-1.4,6.2-2,9.3-2,8.2-2.8,12.3a12.4,12.4,0,0,1-1.2,2.2,12,12,0,0,0-1.2-1.1c-.6.6-1.1,1.5-1.7,2.1s-2-.5-3.2-3.4c-.4.6-.6,1.1-.8,1.4s-3,1.2-2.8-.7c.3-3.8-1.2-7.2.6-11.4.9-2.1.7-4.4,1.1-6.7a12.4,12.4,0,0,1,.2-1.8c1.1-3.8,2.8-7.6,2.9-11.3.7-5.8,3.4-11.6,4-17.3.2-1.5.2-3,.4-5.2a45,45,0,0,0-4.9,3.6c-5.1,4.9-9.9,9.9-13.5,15.7-1.9,2.9-4,5.8-5.8,8.7a5.2,5.2,0,0,0-.6,1.5,40.8,40.8,0,0,0-2.9,5,18.3,18.3,0,0,0-1.8,4.1c-.5,2.7-.8,5.4-3.4,7.8-.2.4-.2,1.2-.4,1.7h.3l.3-.2h.8a23.1,23.1,0,0,1-1.8,3.5,8.1,8.1,0,0,1-8,2.9,34.2,34.2,0,0,0-4-.9c-1.5-.4-2.7-.9-2.8-2.7s-.3-5.6-.2-8.3.6-7.1,1.2-10.6,1.3-6.8,2-10.4,1.3-7.6,2.3-11.4,2.1-8.3,3.5-12.5c.7-2.4,1-2.4,4-2.8A20.9,20.9,0,0,1,1019.4,234.2Zm1.5,23.7a28.6,28.6,0,0,1,.3-4.2C1020.1,255.3,1019.8,256.7,1020.9,257.9Zm.6,22.3c.9-2.2,2-4.5,2.9-6.7s2.2-4.5,3.2-6.8,2.8-4.1,3.1-6.4c-3.8,6.4-8,12.7-10.1,19.6A3.2,3.2,0,0,0,1021.5,280.2Zm1.6-33.8a4.9,4.9,0,0,0,.1-1.2h-.4a2.7,2.7,0,0,1-.3,1.2Zm1.2,6c.7-3,1.2-5.8,1.9-8.8h-.3c-.6,3-1.2,5.8-1.9,8.8Zm3-13.3c.1-.6.3-1.3.4-1.8h-.4c-.1.5-.3,1.1-.4,1.8Zm27.8,48.8c1.4-6.5,2.7-12.9,4.1-19.1C1057.3,275,1055.4,281.4,1055.1,287.9Zm.8-34.2c-.1.1-.3.2-.3.4s0,.2,0,.5.3-.3.6-.3A.7.7,0,0,0,1055.9,253.7Zm6,2.8c-.7,2.5-1.2,4.6-1.9,6.7C1062.1,260.3,1062.3,259.2,1061.9,256.5Zm2.2-7.9c-.3,1-.5,1.8-.8,2.7s-.3,1.5-.6,2.4h.4c.7-1.7,1.1-3.3,1.7-5Z"/></svg>