<svg xmlns="http://www.w3.org/2000/svg" viewBox="0 0 448.3 146.2"><title>ticket_header</title><path d="M63.2,146.4a27,27,0,0,1-4.1-.8C52.9,144,48.8,140.2,47,134s-2-10.7-.4-16c2.2-7.7,7.8-11.9,15.2-14,4.7-1.3,9.4-1.2,14.2-.8l6.7.7L81,110.3c-1.5-.3-3-.7-4.6-.9a48.9,48.9,0,0,0-13.2-.8c-4.2.5-6.5,2.8-7.1,6.9-.9,6.4-1.2,12.8.7,19.2,1.1,3.8,3.3,6.6,7.6,6.8a29,29,0,0,0,5.1-.1l5.6-.8V129.4l-9.8-.5.4-3.5h19v17.5c-3,.8-6.2,1.7-9.4,2.3s-5.2.7-7.9,1l-.4.2Z"/><path d="M387.7,146.4c-1.8-.3-3.6-.5-5.3-.9l-6.4-2.1c.8-2.4,1.5-4.5,2.3-6.6a34.4,34.4,0,0,0,11.5,3.7,14.8,14.8,0,0,0,6.6-.4c1.7-.5,2.2-1.9,2.4-3.4a11.5,11.5,0,0,0,0-3.7c-.3-1.7-1.8-2.5-3.2-3.2l-7.2-2.8c-3.2-1.2-6.3-2.7-8.6-5.4a10.3,10.3,0,0,1,.4-13.2,17.3,17.3,0,0,1,11.6-5.4,61.1,61.1,0,0,1,12.8.7l.8.3c-.5,2.1-1,4.2-1.4,6.2-2.8-.5-5.5-1.2-8.2-1.5a31,31,0,0,0-6.8-.1,3.1,3.1,0,0,0-2.9,2.6c-.6,2.9.1,4.9,2.8,6.2s5.6,2.2,8.4,3.4,6,2.6,8,5.4a11,11,0,0,1-.8,14.1,18.9,18.9,0,0,1-12.5,5.9l-.7.2Z"/><path d="M448.6,81.2c-1.9,6.6-10.2,7.6-15.9,4.5.4-1.1.7-2.2,1.1-3.3l5.3,1.7a8.2,8.2,0,0,0,2.7.1,2.1,2.1,0,0,0,2.3-1.6c.4-1.8.2-2.9-1.1-3.6l-4-1.9a14.2,14.2,0,0,1-3.6-2.1c-3.1-2.7-2.5-7.4,1.7-9.7,2.6-1.4,5.4-1,8.2-.8l2.2.3-.7,3.3-6.3-.8c-1.1-.2-2.2,0-2.6,1.2a2.9,2.9,0,0,0,1.3,3.5,26.3,26.3,0,0,0,3.5,1.5c2.9,1,5.2,2.6,5.9,5.7Z"/><path d="M360.4,85.1H335.9V16.9H291.7V85.1H267.4V17H242.3c.6-5.4,1.1-10.5,1.7-15.8H385.4c-.6,5.1-1.1,10.1-1.7,15.3l-23.3.6Z"/><path d="M143.9,3.3c-1.6,6.4-3.2,12.7-4.7,18.9-3.4-.8-6.6-1.8-10-2.3-5.4-.8-10.8-1.6-16.3-1.9a43.5,43.5,0,0,0-10.1.8,7.2,7.2,0,0,0-6.2,5.9C96,27.8,95.3,30.9,95,34c-.6,7.4-.7,14.9.9,22.3a35.9,35.9,0,0,0,2.7,8,9.1,9.1,0,0,0,8.9,5.7c4.9-.1,9.8-.6,14.7-.9V55.6L104,54.8l1.8-13.9h41.1V78.7l-8.3,2.8c-10.7,3-21.5,5-32.6,4.7-8.7-.2-16.8-2.6-23.5-8.3s-9-11.2-10.7-18.3a60.9,60.9,0,0,1-1.4-24.4c2-12.7,8.7-22.2,19.9-28.4A52.4,52.4,0,0,1,112.8.5a104.2,104.2,0,0,1,30.5,2.7Z"/><path d="M197.9,82.2c-6.5,0-12.3-.6-18-2.7a29.8,29.8,0,0,1-19-19.8,55.4,55.4,0,0,1-.4-32c3.3-11.4,10.9-18.5,22.3-21.6a55.8,55.8,0,0,1,31.1.5c11.8,3.6,19.3,11.5,22.3,23.5a50.6,50.6,0,0,1-.1,26.2c-3.4,13.1-12,21-25,24.4A51.5,51.5,0,0,1,197.9,82.2Zm-4.2-69c-2.6.5-5.1.9-7.6,1.5-5.3,1.1-8.3,4.3-9.3,9.7a97.5,97.5,0,0,0-1.1,25.3c.1,1.5.3,3,.5,4.7l17.5-10.5Zm10.2,31.7,16.2,9.8c.2-2.3.3-4.4.4-6.5.3-6.7.2-13.4-1.8-19.9s-6.2-11.8-13.2-14l-1.6-.4ZM179.7,64c2.1,4.8,9.5,9.5,14,8.9V55.6Zm38.2,1-14-8.4V73A29.4,29.4,0,0,0,214,70.1,7.1,7.1,0,0,0,217.9,65Z"/><path d="M133,103.1h8.7c5.2,9.8,10.4,19.7,15.8,29.7l14.9-29.7h8.5c1.7,14.2,3.4,28.3,5,42.6h-9.5c-1.2-10.5-2.4-21-3.6-31.9l-16.1,31.9h-2.9c-5.5-10.5-11.1-21-16.6-31.6h-.3l-3,31.4h-5.5C130,131.5,131.5,117.3,133,103.1Z"/><path d="M288.7,107.9H267.8l.7-4.5H300a6.1,6.1,0,0,1-.8,4.1l-21,32.5-.7,1.2h15.1a14.2,14.2,0,0,0,8.2-2.1l2.3-2,2.3,1.7c-1.9,3.6-4.6,6.4-8.7,7.1a48.3,48.3,0,0,1-7.6.3l-21.9-.4h-.9c0-1.5-.2-2.9.7-4.3,7.1-10.7,14-21.5,21-32.3Z"/><path d="M94.7,103.4H121l-.5,4.5H104.1v13.7h15.5l-.5,4.4h-15v15.2h18.2l-.4,4.4H94.7Z"/><path d="M311.4,103.4h26.3c-.1,1.4-.3,2.8-.5,4.5H320.8v13.7h15.5c-.2,1.5-.3,2.8-.5,4.3h-15v15.2H339c-.1,1.7-.2,3.1-.4,4.5H311.4Z"/><path d="M195.3,103.4h26.2c-.1,1.4-.3,2.8-.5,4.5H204.6v13.7h15.5l-.5,4.3h-15v15.2h18.2c-.1,1.7-.2,3.1-.4,4.6H195.3Z"/><path d="M262.9,103.4c-.1,1.5-.3,2.8-.4,4.5H249.1v37.8h-9.4V108H225.9l.4-4.6Z"/><path d="M356,141.1h17.1c-.1,1.6-.3,3-.4,4.5h-26V103.4H356Z"/><path d="M392,86.9V64.7c4.2-.3,8.4-.9,12.5,0s7.7,4.4,7.8,9.4a17.4,17.4,0,0,1-.8,6c-1.1,4-4.1,6.1-8,6.8S395.9,87.2,392,86.9Zm4.8-2.3a43.4,43.4,0,0,0,5.1,0c3.1-.5,4.4-1.7,4.9-4.7a30.1,30.1,0,0,0,.2-6.7,5.9,5.9,0,0,0-3.3-5.5c-2.1-1.1-4.5-1-6.9-.8Z"/><path d="M3.1,61.1c4.1-.3,8.2-.8,12.3,0,5.8,1.1,8.2,5.2,8.1,10.7a14,14,0,0,1-1.8,7c-2.1,3.2-5.2,4.5-8.8,4.7s-6.5.1-9.8.1ZM7.8,81h5.3a4.7,4.7,0,0,0,4.7-4.5,27,27,0,0,0,.4-6.3A7.4,7.4,0,0,0,7.8,63.5Z"/><path d="M56.7,73.5c3.4,6.1,5,7.9,7.6,8.2v1.4c-3,1.2-6.5.9-8.6-2.5L52,74.3H50.7v9.1H46V61.1l.8-.2c3,0,5.9-.1,8.9.1a5.4,5.4,0,0,1,5,4.1,6.6,6.6,0,0,1-2.5,7.4ZM50.8,63.2v8.6c1.7,0,3.5.1,4.5-1.5a5.4,5.4,0,0,0,.1-5.6C54.4,63,52.6,63.2,50.8,63.2Z"/><path d="M417,64.5h13.3c-.1.9-.1,1.6-.2,2.5h-8.2v7.2h7.7c-.1.8-.2,1.5-.3,2.4h-7.4v7.9h9a19.3,19.3,0,0,1-.1,2.5H417Z"/><path d="M41.4,61l-.2,2.4H33v7.2h7.7v2.3H33.1V81h9l-.2,2.4H28.2V61Z"/></svg>