<svg xmlns="http://www.w3.org/2000/svg" viewBox="0 0 381.72 116.37"><path d="M11.82,39.62h1.5a7.92,7.92,0,0,1,5.8,2.49q4.46,1.47,4.94,9.06l1.72,13q.54,0,3.22-14.4,1.18-3.07,5.16-5.33,4-1.6,13.32-1.6a3.78,3.78,0,0,1,3.22,2q3,.49,3,3.73Q55,56.37,55.87,68.41h.21Q63,46.24,64.25,43.88a10.23,10.23,0,0,1,7.31-3.38h.64q8.81,1,8.81,2l3.44,2.31q2.79,2.18,2.79,4.62,0,1.47-10.31,25.06L60.16,112.67a8.41,8.41,0,0,1-5.8,2.49H53.5q-3.65,0-10.1-6.4-2.15-2-3.87-12.26V96h-.43q-5.16,17.24-6.45,17.24a8.39,8.39,0,0,1-6.88,3q-3.65,0-10.1-6-1.5-2.27-5.59-20.79Q0,49.93,0,48.33V47.08q0-3.6,5.59-6A38,38,0,0,1,11.82,39.62ZM3.22,48q13.54,55.5,15,60.25,2.36,3.2,4.94,3.2h.64q4.35,0,6.45-9.78Q37.17,80.9,38.46,78l.21-.18h.21q.43.36,4.73,21.51.86,6.27,3,8.53,2.69,2.67,4.94,2.67,3.33,0,5.37-6.75Q81,48.68,81,47.62v-.36q0-3.29-9-4.09-5.53,0-6.88,8.18L52.86,88.67l-.65.36q-.75,0-1.93-17.77-1.72-19.28-3-25.77-11.82.67-11.82,1.6a6.77,6.77,0,0,0-3.65,6.4L24.28,88.14l-.21.18h-.21Q23,86.58,18.69,54.55q-1.45-11.37-3-11.37a5.17,5.17,0,0,0-3-.89Q3.22,43.4,3.22,48Zm2.15,2.84h.21Q18,56.59,18,60.06h-.21A135.53,135.53,0,0,1,5.37,51.35Zm2.36,9.42H8a34.81,34.81,0,0,1,11,6.75,6.38,6.38,0,0,1,.43,2.67h-.43Q10.1,64.28,8,61.83ZM9,45.13q2.15,0,7.52,4.44v.71h-.21L9,45.31Zm.86,24.35h.21a54.24,54.24,0,0,1,10.1,5.87l.64,4.44h-.21q-8.33-5.42-10.1-7.29Zm2.36,9.24h.43q7.84,4.62,9,6,0,4.8,2.36,4.8,1.34,0,2.15-2.31a35.21,35.21,0,0,1,6.23,3.91l-1.29,4.27q-1.29,0-17.19-11.37Q13.21,84.05,12.25,78.72ZM15,88.14a126.12,126.12,0,0,1,15,9.78v.18l-1.29,4.44h-.43q-9.24-5.47-12-8-.43,0-1.72-6.22l.21-.18ZM17,97.38a105.72,105.72,0,0,1,11,6.93v.18q-1.29,5-2.36,5Q18,106,18,102.18l-1.29-4.62Zm2.36,9.42h.21a16,16,0,0,1,4.73,3.2l-.43.36h-.43q-2.53,0-4.08-3.38ZM27.5,80.32q1.18,0,7.09,4.27-1.08,3.91-1.72,3.91l-6-4.62ZM29.44,73A80,80,0,0,0,37,78l-1.5,3.2a50.57,50.57,0,0,1-7.09-5Q28.79,73,29.44,73Zm1.5-6.93L49.42,77.83l.43,4.27h-.21q-13.22-8.18-18.91-13l-.64-.89Q30.19,66.1,30.94,66.1ZM32,59.17q16.76,9.78,16.76,10.66l.22,3h-.22L31.59,60.77Zm1.29-6.93h.43q11.6,6.49,14.18,8.89l.21,2.13-.21.18H47.7a145.53,145.53,0,0,1-14.4-10.66ZM38,47.44h.64q8.38,4.09,8.38,5.87v.36h-.21l-8.81-6ZM41.26,81h.21q7.2,3.47,8.59,5.33,0,3.91,2.36,3.91a3.54,3.54,0,0,0,1.93-1.42q6,3.38,6,3.91l-1.72,4.09h-.43Q52,93.29,43.4,87.25q-1.34-.71-1.93-4.44ZM43,89.92h.21A146.74,146.74,0,0,1,57.59,99l-1.93,4.8h-.43q-11-7.51-11-7.82Zm1.93,9.24h.43a79.33,79.33,0,0,1,9.45,6v.18q-1.08,3.91-3.22,3.91h-.43q-2.79,0-5.37-5.87Zm11.6-16.88Q63,85.87,63,86.54l-1.72,3.73q-.59,0-6-4.27Zm2.15-6.58q7.09,4,7.09,4.62-1.24,2.93-1.72,3.2L57.59,78.9A9.59,9.59,0,0,1,58.66,75.7Zm2.15-6.58a38.82,38.82,0,0,1,7.52,4.8v.18q-.86,2.49-1.29,2.49-6.77-4.31-7.09-5A6.18,6.18,0,0,1,60.81,69.12Zm2.36-6.75q7,4.31,8,5.33v.18q-.75,1.78-1.07,1.78h-.21a38.9,38.9,0,0,1-7.52-5.33Q62.63,62.37,63.17,62.37ZM65.32,56q2,.58,8.59,5.15l-.86,1.78q-8.38-4.71-8.38-6.22Q65,56,65.32,56Zm2.15-6.75q5.48,4.09,8.59,5.15l.43.53v.18q0,.93-.65,1.07A63,63,0,0,1,67,49.93v-.36ZM72,44.59h.21a25.92,25.92,0,0,1,7.09,4.27l-.64.53Z" transform="translate(0 0.15)"/><path d="M98.68,37.75h1.5q3.55,0,9.88,6a15.44,15.44,0,0,1,3.22,9.06v.89q0,6.89-6.45,9.06l-.21.18q4.94,2.58,4.94,7.29l.43,36.79q0,4.27-6.66,6.58a54.76,54.76,0,0,1-7.09.36H98q-2.63,0-5.8-2.67-3.87-2.22-3.87-4.8V106q5-41.94,6-41.95,2.31-3.55,4.73-3.55-7.74-4.84-7.74-13.15v-.53q0-6.71,6-8.89Zm-7.09,68.07q.75,3.38,3.87,3.38h3.87q4.3,0,5.8-2.49l.64-1.6-.43-37.5q-1.4-4.44-4.3-4.44h-.43q-4.08,0-4.08,6.75Zm1.5-.53h.43l4.08,2.49v.36H95.67a2.37,2.37,0,0,1-2.58-2.31ZM94,98h.43a106.38,106.38,0,0,1,10.1,6.4v.18q-.7,3.38-3.87,3.38h-.86q-1.45,0-6.45-4.44Zm1.5-7.46q7.84,4.84,9,6v5.51h-.43A94,94,0,0,1,94.38,95Q94.81,90.54,95.46,90.54Zm-.64-44.26V47.7A10.8,10.8,0,0,0,101.26,58l1.5.18q4.3-1.11,4.3-5.87v-2q-1.88-10-8-10Q94.81,41.53,94.81,46.28Zm1.5,37a68.26,68.26,0,0,1,8,5.15v4.44h-.21l-8.59-6Q95.89,83.25,96.32,83.25ZM96.75,44a43.68,43.68,0,0,1,8.81,5.51l.21.71V52q0,2.67-.86,2.67-8.59-7.82-8.59-9.42ZM97,76h.43l6.88,4.44V82.9l-.43.36q-6.07-3.51-7.09-5.51Zm.43-23.64h.43a48.12,48.12,0,0,1,6,4.09q-.22.53-1.29.53h-.43Q99.59,56.95,97.39,52.33Zm.86,16.35a22.36,22.36,0,0,1,5.8,3.55v1.6l-.43.36a53.28,53.28,0,0,1-5.8-4.62V69Z" transform="translate(0 0.15)"/><path d="M130.75,33.75H132q3.06,0,8.6,5.33a8.82,8.82,0,0,1,1.72,4.44q-3.44,66.21-3.87,67.36-2.74,5.33-9.88,5.33h-3.44a8.67,8.67,0,0,1-6.45-2.84q-3.87-1.78-3.87-5.15V108q0-2,10.1-70Q127.15,33.75,130.75,33.75Zm-12.68,74.12a4.22,4.22,0,0,0,4.51,3.73q7.14,0,8.81-1.78,1.5-1.29,1.5-10l2.36-42.66h.21l-.21-.18.21-.71.64-14.93q-1.4-5-4.94-5-3.06,0-3.65,6.4Zm2.36-4.8q.48,0,9.67,6a5.43,5.43,0,0,1-3.22,1.24h-4.3q-3,0-3-2.31Q119.84,103.07,120.43,103.07Zm1.07-7.29h.21l9.88,6.22q-.22,6.22-1.07,6.22l-10.1-6.93Q121,95.78,121.51,95.78Zm1.07-7.29h.21L132,94.18l-.43,5.87h-.43l-9.67-6.58Q122.15,88.49,122.58,88.49Zm1.07-7.29q7.47,4.4,8.81,5.51L132.25,88v2.31q0,1.29-.64,1.42l-8.81-6.4Q123.12,81.21,123.66,81.21Zm1.07-7.29h.21l8,5.15-.21.89v3l-.21.18v.18l-8.6-5.69Q124.25,73.92,124.73,73.92Zm.86-7.29q2.2.71,7.52,4.62v3l-.43.36-6.88-4.27-.64-.89Zm1.29-7.29q5.85,3.38,6.66,4.27v2.67h-.21a34.62,34.62,0,0,1-7.09-4.8Q126.4,59.35,126.88,59.35ZM128,52.06,134,56v1.42l-.43.36q-6-3.33-6-4.62v-.71Zm.65-7.11a12.51,12.51,0,0,1,5.8,3.2v1.07H134a24.2,24.2,0,0,1-5.37-3.73Zm4.3-5.69q1.5.36,1.5,1.24h-.21q-1.72-.62-1.72-.89Z" transform="translate(0 0.15)"/><path d="M159.65,33.75h1.29q3.06,0,8.6,5.33a8.82,8.82,0,0,1,1.72,4.44q-3.44,66.21-3.87,67.36-2.74,5.33-9.88,5.33h-3.44a8.67,8.67,0,0,1-6.45-2.84q-3.87-1.78-3.87-5.15V108q0-2,10.1-70Q156,33.75,159.65,33.75ZM147,107.87a4.22,4.22,0,0,0,4.51,3.73q7.14,0,8.81-1.78,1.5-1.29,1.5-10l2.36-42.66h.21l-.21-.18.21-.71L165,41.39q-1.4-5-4.94-5-3.06,0-3.65,6.4Zm2.36-4.8q.48,0,9.67,6a5.43,5.43,0,0,1-3.22,1.24h-4.3q-3,0-3-2.31Q148.74,103.07,149.33,103.07Zm1.07-7.29h.21l9.88,6.22q-.22,6.22-1.07,6.22l-10.1-6.93Q149.93,95.78,150.41,95.78Zm1.07-7.29h.21l9.24,5.69-.43,5.87h-.43l-9.67-6.58Q151.05,88.49,151.48,88.49Zm1.07-7.29q7.47,4.4,8.81,5.51L161.15,88v2.31q0,1.29-.64,1.42l-8.81-6.4Q152,81.21,152.56,81.21Zm1.07-7.29h.21l8,5.15-.21.89v3l-.21.18v.18l-8.6-5.69Q153.15,73.92,153.63,73.92Zm.86-7.29q2.2.71,7.52,4.62v3l-.43.36-6.88-4.27-.64-.89Zm1.29-7.29q5.85,3.38,6.66,4.27v2.67h-.21a34.62,34.62,0,0,1-7.09-4.8Q155.3,59.35,155.78,59.35Zm1.07-7.29,6,3.91v1.42l-.43.36q-6-3.33-6-4.62v-.71Zm.65-7.11a12.51,12.51,0,0,1,5.8,3.2v1.07h-.43a24.2,24.2,0,0,1-5.37-3.73Zm4.3-5.69q1.5.36,1.5,1.24h-.21q-1.72-.62-1.72-.89Z" transform="translate(0 0.15)"/><path d="M183,37.75h1.5q3.55,0,9.88,6a15.44,15.44,0,0,1,3.22,9.06v.89q0,6.89-6.45,9.06l-.21.18q4.94,2.58,4.94,7.29l.43,36.79q0,4.27-6.66,6.58a54.76,54.76,0,0,1-7.09.36h-.22q-2.63,0-5.8-2.67-3.87-2.22-3.87-4.8V106q5-41.94,6-41.95,2.31-3.55,4.73-3.55-7.74-4.84-7.74-13.15v-.53q0-6.71,6-8.89Zm-7.09,68.07q.75,3.38,3.87,3.38h3.87q4.3,0,5.8-2.49l.64-1.6-.43-37.5q-1.4-4.44-4.3-4.44h-.43q-4.08,0-4.08,6.75Zm1.5-.53h.43l4.08,2.49v.36H180a2.37,2.37,0,0,1-2.58-2.31Zm.86-7.29h.43a106.38,106.38,0,0,1,10.1,6.4v.18q-.7,3.38-3.87,3.38H184q-1.45,0-6.45-4.44Zm1.5-7.46q7.84,4.84,9,6v5.51h-.43A94,94,0,0,1,178.67,95Q179.09,90.54,179.74,90.54Zm-.64-44.26V47.7A10.8,10.8,0,0,0,185.54,58l1.5.18q4.3-1.11,4.3-5.87v-2q-1.88-10-7.95-10Q179.09,41.53,179.09,46.28Zm1.5,37a68.26,68.26,0,0,1,8,5.15v4.44h-.21l-8.59-6Q180.17,83.25,180.6,83.25ZM181,44a43.68,43.68,0,0,1,8.81,5.51l.21.71V52q0,2.67-.86,2.67-8.59-7.82-8.59-9.42Zm.21,32h.43l6.88,4.44V82.9l-.43.36Q182,79.74,181,77.74Zm.43-23.64h.43a48.12,48.12,0,0,1,6,4.09q-.22.53-1.29.53h-.43Q183.87,56.95,181.67,52.33Zm.86,16.35a22.36,22.36,0,0,1,5.8,3.55v1.6l-.43.36a53.28,53.28,0,0,1-5.8-4.62V69Z" transform="translate(0 0.15)"/><path d="M212.24,32.24h.43a9.6,9.6,0,0,1,6.66,3q3.65,2.13,3.65,5l-.21,6-.21,17.24a27.07,27.07,0,0,1,7.52-1.07h.21a20.69,20.69,0,0,1,13.32,5q7.3,5.42,7.31,16,0,13.73-9.88,25.59a12.64,12.64,0,0,1-9,4.09h-.21q-4.4,0-10.53-3.55a6,6,0,0,1-5.59,3h-.21q-3.92,0-9.88-5.51-2.15-3-2.15-11.91-4.3-50.92-4.3-55.81,0-4.44,7.09-6.58Zm-9.88,7.46L206.65,93h-.21l.21.18v.18q.54,11.91,1.72,11.91a5.63,5.63,0,0,0,4.51,2.67q2.79,0,2.79-3.73.27-1.6.86-1.6,7.31,5.69,12.25,5.69h1.29q6.39,0,12.68-15.46a33.85,33.85,0,0,0,1.93-11.2v-.18q0-13.42-11.39-16l-2.36-.18h-1.5a37.88,37.88,0,0,0-10.53,2.13q-1.94,0-2.58-2.49l.43-26.66q0-2.58-4.3-3.38-8.81.58-8.81,2.49A3.31,3.31,0,0,0,202.35,39.71ZM204.29,42l8.38,4.8,2.58,2.31v1.07H215a69.54,69.54,0,0,1-11.17-7.82v-.18l.21-.18Zm.64,8.18L215,56.77v2h-.21q-7.25-3.73-10.1-7.11l-.21-1.24.21-.18Zm.64,8.35q9.35,5.82,9.45,6.4.59,3.56,3.87,3.55l1.72-.36,11,6.58v.36H230.5A18.9,18.9,0,0,0,226,76q-7.79-6-20.63-14.57V60.5l-.21-1.78.21-.18Zm.21,8.35h.43L223,77.39l-3.65,2q-1.29,0-13.32-8.89V68.68Zm.64,8.53q.91,0,9.45,5.51l.86.36v.53l-2.15,3.38-6.88-4.27q-1.08-.53-1.07-4.44v-.18Zm.86,8.18q7.31,4.09,7.31,5,0,7.06,11.39,12.09,0,.36,1.5.36,1.66,0,3.22-2.84h.21l5.8,3.91q-3.44,3.87-4.3,4.09h-.21Q212.4,92.63,208.8,89.83l-1.29-1.07-.43-5Zm.64,8.35,23.64,14.75a3.42,3.42,0,0,1-1.93.53h-1.07q-3.71,0-11.6-5.69h-1.29q-1.08.53-1.07,1.24h-.43q-6-4.4-6-5.33l-.21-5.15-.21-.18Zm.64,8.53h.21a26.5,26.5,0,0,1,5.59,3.55v.89a1.69,1.69,0,0,1-1.07,1.78h-.43q-3.44,0-4.3-5Zm.21-63.27h.43a22.26,22.26,0,0,1,6,3.73v.53h-.43Zm21.49,38.92h.43q1.56,0,2.36,7.64a27.76,27.76,0,0,1-5.16,16h-.64q-11.39-4.35-11.39-11.73Q215.89,79.61,230.29,76.14Zm-8.17,13.51V90a6.61,6.61,0,0,0,4.08,6.22h.43a32,32,0,0,0,3-13.15v-.89h-.21Q222.12,84.9,222.12,89.65Zm8-23.28q2.26,0,10.74,6.58,1.29,0,2.36,5.33h-.43A170.68,170.68,0,0,1,226.63,66.9Q226.63,66.37,230.07,66.37Zm3.22,25.42L240,96q-1.93,4.58-2.79,4.8-5.8-3.91-5.8-4.27Zm-1.07-16.35h.21q10.8,6.4,11,6.93-.22,4.44-.64,4.44-8.7-4.75-8.81-6.58A10.46,10.46,0,0,0,232.22,75.43Zm2.58,9.24,7.52,5a15.14,15.14,0,0,1-1.72,4.62l-6.88-4.62Q234.32,84.67,234.8,84.67Z" transform="translate(0 0.15)"/><path d="M285.62,60.86h5.59a9.75,9.75,0,0,1,6.66,2.84q3.87,2,3.87,5.51-8.17,37.9-9.24,41.06-2.58,3.73-6,3.73h-.64a12.36,12.36,0,0,1-6.45-2.13,23.11,23.11,0,0,1-5.37.71h-.86q-8.43,0-15.9-7.46-5.16-4.58-5.16-16.35V84.14q0-16.66,10.74-21.51a25.84,25.84,0,0,1,7.09-1.42A36.08,36.08,0,0,1,279.17,63,9.27,9.27,0,0,1,285.62,60.86Zm-5.16,5.87a27.57,27.57,0,0,0-10.74-2.67q-10.85,0-13.75,13.33a75.58,75.58,0,0,0-.64,8.89q0,16.75,8.17,19.91a16.27,16.27,0,0,0,8,1.78l5.37-.89h1.29a3.9,3.9,0,0,0,2.58,1.6q0,.31,2.36.71,3.92,0,4.73-6.93,7.73-34.3,7.74-35.72,0-3.2-7.31-3.2h-.86q-6.23,0-6.23,2.84Zm-23.64,19a49.45,49.45,0,0,1,8,5.15v4.44l.21.18v.18l-.21.18h-.21L256.82,90v-.53l-.21-3.55Zm.64-7.29a28.73,28.73,0,0,1,8,4.62q0,3.2-.64,3.2-6.23-3.64-7.74-5.51V79.7Q257.09,78.45,257.47,78.45ZM257,94.09h.21A115.69,115.69,0,0,1,268.64,101l7.74,4.8V106l-4.94.71h-1.29q-4.19,0-8.17-3.55-2.36,0-4.73-7.82Zm2.58-22.39a25.66,25.66,0,0,1,7.52,4.8q0,1.38-.86,1.6A31.33,31.33,0,0,1,259,72.41v-.18Zm4.73-5.15,25.78,16,.43.71q-.22,2.67-.86,2.67-8.6-5.87-25.78-19Zm6.23,8.71h.64A43.09,43.09,0,0,1,280,81.47v.36q-.54,16.89-1.5,16.88a18.91,18.91,0,0,1-6.23,1.6H271q-4.94,0-4.94-6.58v-.18Q266.76,75.25,270.58,75.25Zm3.65,5.51a43.77,43.77,0,0,0-1.93,13.69v2.13l.21.89q3.22-.35,3.22-1.24a124.44,124.44,0,0,0,.86-13.51v-.18A6.68,6.68,0,0,0,274.23,80.76Zm4.94,19q2.53.71,6.88,4.27a4.51,4.51,0,0,1-2.36,4.09h-.86q-1.61,0-7.52-4.62l-2.79-2A38,38,0,0,0,279.17,99.78Zm-3.44-33.41h.43q3.81,1.42,14.18,8l1.72,1.6v.89q0,.93-.64,1.07Zm5.16,26.48h.21l6.45,4.09q-.86,5.33-1.5,5.33l-5.59-4.44.21-4.44Zm.86-7.64,7.31,4.8-.86,3.91q-5.32-2.53-7.09-5Q281.1,85.21,281.75,85.21Zm5.8-19.55h.21a11.36,11.36,0,0,1,6,3.73l-.21.53h-.43Q288.46,66,287.55,66Z" transform="translate(0 0.15)"/><path d="M317.36,33.75h1.29q3.06,0,8.59,5.33A8.82,8.82,0,0,1,329,43.53q-3.44,66.21-3.87,67.36-2.74,5.33-9.88,5.33h-3.44a8.67,8.67,0,0,1-6.45-2.84q-3.87-1.78-3.87-5.15V108q0-2,10.1-70Q313.76,33.75,317.36,33.75Zm-12.68,74.12a4.22,4.22,0,0,0,4.51,3.73q7.14,0,8.81-1.78,1.5-1.29,1.5-10l2.36-42.66h.21l-.21-.18.21-.71.64-14.93q-1.4-5-4.94-5-3.06,0-3.65,6.4Zm2.36-4.8q.48,0,9.67,6a5.42,5.42,0,0,1-3.22,1.24h-4.3q-3,0-3-2.31Q306.46,103.07,307,103.07Zm1.07-7.29h.21l9.88,6.22q-.22,6.22-1.07,6.22L307,101.29Q307.64,95.78,308.12,95.78Zm1.07-7.29h.21l9.24,5.69-.43,5.87h-.43l-9.67-6.58Q308.77,88.49,309.2,88.49Zm1.07-7.29q7.47,4.4,8.81,5.51L318.87,88v2.31q0,1.29-.64,1.42l-8.81-6.4Q309.74,81.21,310.27,81.21Zm1.07-7.29h.21l8,5.15-.21.89v3l-.21.18v.18l-8.59-5.69Q310.86,73.92,311.35,73.92Zm.86-7.29q2.2.71,7.52,4.62v3l-.43.36-6.88-4.27-.64-.89Zm1.29-7.29q5.85,3.38,6.66,4.27v2.67h-.21a34.65,34.65,0,0,1-7.09-4.8Q313,59.35,313.5,59.35Zm1.07-7.29,6,3.91v1.42l-.43.36q-6-3.33-6-4.62v-.71Zm.64-7.11a12.51,12.51,0,0,1,5.8,3.2v1.07h-.43a24.2,24.2,0,0,1-5.37-3.73Zm4.3-5.69q1.5.36,1.5,1.24h-.21q-1.72-.62-1.72-.89Z" transform="translate(0 0.15)"/><path d="M369.9,31.44h1.72a9.48,9.48,0,0,1,6.23,2.67q3.87,2.18,3.87,5.15-.43,6.71-7.52,70.56-2.1,4.44-6.45,4.44a28.71,28.71,0,0,1-6-1.78,18.73,18.73,0,0,1-10.1,2.84h-.43q-7.2,0-14.83-7.46-2.26-2.49-4.08-8.18a49.89,49.89,0,0,1-1.93-12.62V83.7q.86-19.06,14-23.11a14.81,14.81,0,0,1,4.94-.71,27.28,27.28,0,0,1,8.17,1.6V61.3q0-25.59,1.29-25.59Q361,31.44,369.9,31.44Zm-8.81,7.82Q361,66.1,360.23,66.1,354,62.72,349.7,62.72h-1.07q-11.44,0-14.61,16.88l-.43,6a42.19,42.19,0,0,0,4.73,19.73q4.57,5.33,10.53,5.33,4.62,0,10.53-3.73H360q0,1.16,4.73,2.49h.43q3.44,0,3.44-7.82l7.09-63.81q-.86-3.73-4.3-3.73-8.22,0-9.45,2.49A5.37,5.37,0,0,0,361.09,39.26ZM335.31,85.47q7.14,4.27,8.17,5.33v.36l.43,5.51h-.21q-8.38-5.24-8.38-6.22l-.43-4.8.21-.18Zm.43-7.46h.43l7.74,4.8-.43,4.62-.21.18H343l-8-5.51Zm.43,16.17a51.36,51.36,0,0,1,8.17,4.8q1.5,4.8,4.51,4.8h1.5l1.5-.18,4.94,3.38q-1.72,1.51-6.45,2.49-13.11-7.06-13.11-9.78A16.31,16.31,0,0,1,336.17,94.18Zm1.72-22.93q.75,0,7.09,4.09l.86.36v.36q-1.13,3.73-1.72,3.73l-7.52-5.33Zm1.29,32.53,8.81,5.33v.36h-.21q-4.4,0-8.38-5Zm3.22-37.86h.21q19.07,12,26.86,16.53-.32,4.44-.86,4.44-5-2.13-11-8.71-6.18-5.33-7.52-5.33L348,73a71.12,71.12,0,0,0-7.74-5.15A7.26,7.26,0,0,1,342.4,65.92Zm7.52,8h.22q7.36,5.2,10.31,9.06,0,14.71-2.36,15.29-5.37,4.44-8.17,4.44h-.64q-3.6,0-4.51-9.42H345l-.21-.18V88.49q0-9.29,4.08-14.4Zm-2.15-10.13h1.5q4.84,0,9.88,4.44l11,6.93a12,12,0,0,1-.43,4.09q-4-2.44-19.77-13.51l-2.58-1.6ZM352.92,80a30.36,30.36,0,0,0-2.15,11.38l.86,7.82q5.16-2.31,5.16-6.75l.21-6V84.23Q357,83.16,352.92,80Zm5.37,19.91a61.53,61.53,0,0,1,8.59,5.51v.18q-.22,2.84-1.72,2.84T360,105.73h-.43l-1.72.53-4.51-2.84v-.36ZM361.73,94q5,2.76,6,3.91l-.64,5.87h-.21q-6.93-4.44-7.52-5.15.91,0,2.15-4.62Zm0-8h.43q5.75,3.47,6.45,4.27-.38,5.51-1.07,5.51l-6-4.44.21-1.78Zm.64-23.64q8.33,5,8.59,5.69,0,2.84-.64,2.84l-7.52-4.62-.86-1.42Q362.11,62.37,362.38,62.37Zm-.21-7.82h.43l9.24,5.87-.21,2.31h-.21q-9.24-4.93-9.24-6.75Zm.64-7.64a54.44,54.44,0,0,1,9.45,5.87l.21.18v1.78q-1.4,0-10.1-6.75v-.71Zm-.21-7.82H363q4,1.65,10.31,6.75v.53l-.43.36q-4.62-3.64-10.31-7.29Zm8.17-2.84H371a6.55,6.55,0,0,1,3.22,1.6v.36l-.43.36Z" transform="translate(0 0.15)"/><path d="M25.18.28H35A20.27,20.27,0,0,1,40,.76a9,9,0,0,1,4,2.31,10.84,10.84,0,0,1,2.54,4.06A17.51,17.51,0,0,1,47.46,13a15.59,15.59,0,0,1-.82,5.33A11,11,0,0,1,43.8,22.8a9.59,9.59,0,0,1-3.77,2,17.16,17.16,0,0,1-4.75.53H25.18Zm5.37,4.24V21.11h4a15.48,15.48,0,0,0,3.24-.24,5.06,5.06,0,0,0,2.17-1,5.24,5.24,0,0,0,1.4-2.42,15.47,15.47,0,0,0,.54-4.59,14.17,14.17,0,0,0-.54-4.46,5.68,5.68,0,0,0-1.52-2.43,5.22,5.22,0,0,0-2.48-1.18A25.82,25.82,0,0,0,33,4.52Z" transform="translate(0 0.15)"/><path d="M63.12,19.56l5.08.8a7.89,7.89,0,0,1-3.09,4,9.49,9.49,0,0,1-5.28,1.38q-5,0-7.43-3.09a10,10,0,0,1-1.9-6.25A9.67,9.67,0,0,1,53,9.33a8.48,8.48,0,0,1,6.33-2.55,8.8,8.8,0,0,1,6.78,2.67q2.48,2.67,2.37,8.19H55.71A4.7,4.7,0,0,0,56.94,21a4,4,0,0,0,2.94,1.19,3.25,3.25,0,0,0,2-.62A3.76,3.76,0,0,0,63.12,19.56Zm.29-4.85a4.46,4.46,0,0,0-1.14-3.17,3.83,3.83,0,0,0-5.4.06A4.27,4.27,0,0,0,55.8,14.7Z" transform="translate(0 0.15)"/><path d="M77.5,25.33H72.4V7.18h4.73V9.76a7.92,7.92,0,0,1,2.18-2.41,4.2,4.2,0,0,1,2.2-.58,6.76,6.76,0,0,1,3.35.91L83.3,11.87a4.65,4.65,0,0,0-2.39-.79,2.94,2.94,0,0,0-1.81.56,3.75,3.75,0,0,0-1.17,2,27,27,0,0,0-.43,6.08Z" transform="translate(0 0.15)"/><path d="M110.05,25.33V22.62a7.3,7.3,0,0,1-2.76,2.29,8.13,8.13,0,0,1-3.62.84,7.42,7.42,0,0,1-3.48-.8A4.86,4.86,0,0,1,98,22.68a9.55,9.55,0,0,1-.69-4V7.18h5.09v8.34a21.82,21.82,0,0,0,.28,4.69,2.57,2.57,0,0,0,1,1.37,3.29,3.29,0,0,0,1.88.5,4.18,4.18,0,0,0,2.34-.67,3.48,3.48,0,0,0,1.41-1.67,18.39,18.39,0,0,0,.38-4.9V7.18h5.09V25.33ZM99.94,4V-.15h4.37V4Zm7.79,0V-.15h4.39V4Z" transform="translate(0 0.15)"/><path d="M119.84,25.33V.28h5.09v9a7.38,7.38,0,0,1,5.58-2.53,7.72,7.72,0,0,1,5.82,2.4q2.3,2.4,2.3,6.9,0,4.65-2.35,7.16a7.51,7.51,0,0,1-5.7,2.51,7.39,7.39,0,0,1-3.25-.78,7.66,7.66,0,0,1-2.76-2.3v2.67Zm5.06-9.47a7.36,7.36,0,0,0,.94,4.17,4.08,4.08,0,0,0,3.52,1.91,3.68,3.68,0,0,0,2.87-1.36,6.41,6.41,0,0,0,1.19-4.28,6.79,6.79,0,0,0-1.2-4.49,3.88,3.88,0,0,0-3.06-1.38,3.94,3.94,0,0,0-3,1.34A5.92,5.92,0,0,0,124.9,15.87Z" transform="translate(0 0.15)"/><path d="M153.88,19.56l5.08.8a7.89,7.89,0,0,1-3.09,4,9.49,9.49,0,0,1-5.28,1.38q-5,0-7.43-3.09a10,10,0,0,1-1.9-6.25,9.67,9.67,0,0,1,2.5-7.07,8.48,8.48,0,0,1,6.33-2.55,8.8,8.8,0,0,1,6.78,2.67q2.48,2.67,2.37,8.19H146.47A4.7,4.7,0,0,0,147.7,21a4,4,0,0,0,2.94,1.19,3.25,3.25,0,0,0,2-.62A3.76,3.76,0,0,0,153.88,19.56Zm.29-4.85A4.46,4.46,0,0,0,153,11.53a3.83,3.83,0,0,0-5.4.06,4.27,4.27,0,0,0-1.07,3.11Z" transform="translate(0 0.15)"/><path d="M168.25,25.33h-5.09V7.18h4.73V9.76a7.92,7.92,0,0,1,2.18-2.41,4.2,4.2,0,0,1,2.2-.58,6.76,6.76,0,0,1,3.35.91l-1.58,4.19a4.65,4.65,0,0,0-2.39-.79,2.94,2.94,0,0,0-1.81.56,3.75,3.75,0,0,0-1.17,2,27,27,0,0,0-.43,6.08Z" transform="translate(0 0.15)"/><path d="M181.63,12.72,177,11.93A6.77,6.77,0,0,1,179.69,8a10.29,10.29,0,0,1,5.66-1.26,12.85,12.85,0,0,1,5.08.76,5,5,0,0,1,2.35,1.93,9.4,9.4,0,0,1,.68,4.3l-.05,5.61a18.38,18.38,0,0,0,.24,3.53,9.9,9.9,0,0,0,.92,2.44h-5q-.2-.48-.49-1.42-.13-.43-.18-.56a9.22,9.22,0,0,1-2.79,1.79,8.42,8.42,0,0,1-3.17.6,6.81,6.81,0,0,1-4.69-1.52,5.19,5.19,0,0,1-.93-6.59,5,5,0,0,1,2.18-1.85,17.89,17.89,0,0,1,4.05-1.12,29.09,29.09,0,0,0,4.95-1.18V13a2.41,2.41,0,0,0-.73-2,4.55,4.55,0,0,0-2.74-.59,3.82,3.82,0,0,0-2.12.5A3.5,3.5,0,0,0,181.63,12.72Zm6.82,3.9q-1,.31-3.1.73a9.74,9.74,0,0,0-2.77.84,2,2,0,0,0-1,1.69,2.29,2.29,0,0,0,.8,1.74,2.88,2.88,0,0,0,2,.73,4.58,4.58,0,0,0,2.63-.85,3,3,0,0,0,1.21-1.59,9,9,0,0,0,.2-2.34Z" transform="translate(0 0.15)"/><path d="M211.14,25.33V22.62a7.3,7.3,0,0,1-2.76,2.29,8.13,8.13,0,0,1-3.62.84,7.41,7.41,0,0,1-3.48-.8A4.87,4.87,0,0,1,199,22.68a9.56,9.56,0,0,1-.69-4V7.18h5.09v8.34a21.81,21.81,0,0,0,.28,4.69,2.56,2.56,0,0,0,1,1.37,3.29,3.29,0,0,0,1.89.5,4.18,4.18,0,0,0,2.34-.67,3.48,3.48,0,0,0,1.41-1.67,18.36,18.36,0,0,0,.38-4.9V7.18h5.09V25.33Z" transform="translate(0 0.15)"/><path d="M219.35,20.16l5.11-.73a3.5,3.5,0,0,0,1.32,2.13,4.67,4.67,0,0,0,2.79.73,5.28,5.28,0,0,0,3-.68,1.5,1.5,0,0,0,.67-1.28,1.22,1.22,0,0,0-.36-.91,4.2,4.2,0,0,0-1.7-.63q-6.16-1.28-7.81-2.34a4.61,4.61,0,0,1-2.28-4.08,4.92,4.92,0,0,1,2-4q2-1.61,6.13-1.61A11.22,11.22,0,0,1,234,8a6.22,6.22,0,0,1,2.65,3.59l-4.8.84a2.81,2.81,0,0,0-1.17-1.62,4.48,4.48,0,0,0-2.46-.56,5.82,5.82,0,0,0-2.88.53,1.13,1.13,0,0,0-.58,1,1,1,0,0,0,.51.87A19.93,19.93,0,0,0,230.05,14a14.65,14.65,0,0,1,5.68,2.14,4.33,4.33,0,0,1,1.6,3.57,5.37,5.37,0,0,1-2.21,4.29q-2.21,1.79-6.54,1.79a11.23,11.23,0,0,1-6.23-1.5A6.94,6.94,0,0,1,219.35,20.16Z" transform="translate(0 0.15)"/><path d="M250.31,20.16l5.11-.73a3.5,3.5,0,0,0,1.32,2.13,4.67,4.67,0,0,0,2.79.73,5.28,5.28,0,0,0,3-.68,1.5,1.5,0,0,0,.67-1.28,1.22,1.22,0,0,0-.36-.91,4.2,4.2,0,0,0-1.7-.63q-6.16-1.28-7.81-2.34A4.61,4.61,0,0,1,251,12.35a4.92,4.92,0,0,1,2-4q2-1.61,6.13-1.61A11.22,11.22,0,0,1,265,8a6.22,6.22,0,0,1,2.65,3.59l-4.8.84a2.81,2.81,0,0,0-1.17-1.62,4.48,4.48,0,0,0-2.46-.56,5.82,5.82,0,0,0-2.88.53,1.13,1.13,0,0,0-.58,1,1,1,0,0,0,.51.87A19.93,19.93,0,0,0,261,14a14.65,14.65,0,0,1,5.68,2.14,4.33,4.33,0,0,1,1.6,3.57,5.37,5.37,0,0,1-2.21,4.29q-2.21,1.79-6.54,1.79a11.23,11.23,0,0,1-6.23-1.5A6.94,6.94,0,0,1,250.31,20.16Z" transform="translate(0 0.15)"/><path d="M281.58,7.18V11H278.1v7.31a17.17,17.17,0,0,0,.1,2.59,1.06,1.06,0,0,0,.45.61,1.5,1.5,0,0,0,.86.24,6.93,6.93,0,0,0,2-.46L282,25a10.67,10.67,0,0,1-4,.72,6.74,6.74,0,0,1-2.48-.44,3.62,3.62,0,0,1-1.62-1.13,4.29,4.29,0,0,1-.72-1.87,21.88,21.88,0,0,1-.16-3.38V11h-2.34V7.18H273V3.58L278.1.78V7.18Z" transform="translate(0 0.15)"/><path d="M288.92,12.72l-4.62-.79A6.78,6.78,0,0,1,287,8a10.29,10.29,0,0,1,5.66-1.26,12.86,12.86,0,0,1,5.08.76,5,5,0,0,1,2.35,1.93,9.4,9.4,0,0,1,.68,4.3l-.05,5.61a18.38,18.38,0,0,0,.24,3.53,9.9,9.9,0,0,0,.92,2.44h-5q-.2-.48-.49-1.42-.13-.43-.18-.56a9.21,9.21,0,0,1-2.79,1.79,8.42,8.42,0,0,1-3.17.6,6.81,6.81,0,0,1-4.69-1.52,5.19,5.19,0,0,1-.93-6.59,5,5,0,0,1,2.18-1.85,17.89,17.89,0,0,1,4.05-1.12,29.06,29.06,0,0,0,4.95-1.18V13a2.41,2.41,0,0,0-.72-2,4.55,4.55,0,0,0-2.74-.59,3.81,3.81,0,0,0-2.12.5A3.5,3.5,0,0,0,288.92,12.72Zm6.82,3.9q-1,.31-3.1.73a9.74,9.74,0,0,0-2.77.84,2,2,0,0,0-1,1.69,2.29,2.29,0,0,0,.8,1.74,2.88,2.88,0,0,0,2,.73,4.59,4.59,0,0,0,2.63-.85,3,3,0,0,0,1.21-1.59,9,9,0,0,0,.2-2.34Z" transform="translate(0 0.15)"/><path d="M310.64,25.33h-5.09V7.18h4.73V9.76a7.92,7.92,0,0,1,2.18-2.41,4.2,4.2,0,0,1,2.2-.58,6.76,6.76,0,0,1,3.35.91l-1.58,4.19a4.65,4.65,0,0,0-2.39-.79,2.94,2.94,0,0,0-1.81.56,3.74,3.74,0,0,0-1.17,2,26.93,26.93,0,0,0-.43,6.08Z" transform="translate(0 0.15)"/><path d="M320,25.33V.28h5.09v13.3l6-6.39h6.27l-6.58,6.63,7.05,11.52h-5.49l-4.84-8.15-2.37,2.34v5.81Z" transform="translate(0 0.15)"/><path d="M352,19.56l5.08.8a7.89,7.89,0,0,1-3.09,4,9.49,9.49,0,0,1-5.28,1.38q-5,0-7.43-3.09a10,10,0,0,1-1.9-6.25,9.67,9.67,0,0,1,2.5-7.07,8.48,8.48,0,0,1,6.33-2.55A8.8,8.8,0,0,1,355,9.45q2.48,2.67,2.37,8.19H344.59A4.7,4.7,0,0,0,345.82,21a4,4,0,0,0,2.94,1.19,3.25,3.25,0,0,0,2-.62A3.77,3.77,0,0,0,352,19.56Zm.29-4.85a4.46,4.46,0,0,0-1.14-3.17,3.83,3.83,0,0,0-5.4.06,4.27,4.27,0,0,0-1.07,3.11Z" transform="translate(0 0.15)"/></svg>
