<svg xmlns="http://www.w3.org/2000/svg" width="68.01mm" height="30.67mm" viewBox="0 0 192.79 86.93"><defs><style>.cls-1,.cls-2{fill:#000;}.cls-1{stroke:#000;stroke-miterlimit:22.93;stroke-width:2px;}</style></defs><path class="cls-1" d="M59.49,69.71A31.82,31.82,0,0,1,48.9,72.1a137.6,137.6,0,0,1-3.46-24.83q-1.77.16-5.74.16a73.94,73.94,0,0,1-11.57-.78q-2.28,11.59-6.57,17.76T11.45,70.58a6.64,6.64,0,0,1-5.17-2.69A8.78,8.78,0,0,1,4,62.15a9.39,9.39,0,0,1,2-5.32Q8.07,54,10.39,54a3.52,3.52,0,0,1,2.47,1.29,3.74,3.74,0,0,1,1.25,2.53,6,6,0,0,1-.89,3,2.52,2.52,0,0,1-2.11,1.54,1.77,1.77,0,0,1-.63-.25A2.72,2.72,0,0,0,11.7,59.8a2.82,2.82,0,0,0-.63-1.71,1.8,1.8,0,0,0-1.44-.84q-4,0-4,3.45a5.77,5.77,0,0,0,1.77,4.67q1.77,1.5,6,1.5,6,0,8.38-6.89a43.92,43.92,0,0,0,2.34-14.24Q10,42.62,10,36.29A5.2,5.2,0,0,1,11.13,33a3.47,3.47,0,0,1,2.81-1.48h.89a5.9,5.9,0,0,0-1.48,3.95,6.8,6.8,0,0,0,2.87,5.43,19.05,19.05,0,0,0,7.85,3.41q-.25-3.16-.25-6.33a28.5,28.5,0,0,1,1.65-10.46A18.44,18.44,0,0,1,31,20.15a26.31,26.31,0,0,1,8.74-4.81,31.83,31.83,0,0,1,9.92-1.58q3,0,3.55.08a165.75,165.75,0,0,0-4.14,29.89,22.86,22.86,0,0,0,2.32-.7l.17,3.62q-1.82.16-2.49.25v3q0,13.07,1.65,19.77A26.11,26.11,0,0,0,59,67.53ZM46.78,15.78A14.89,14.89,0,0,0,34.9,20.46q-4.67,4.93-6,20.64-.21,2.75-.42,3.95,3.5.37,5.53.37a83.85,83.85,0,0,0,11.27-.95q-.21-4.89-.21-7.65A121.77,121.77,0,0,1,46.78,15.78Z" transform="translate(-2.22 -6.68)"/><path class="cls-1" d="M74.39,62.64q-.59,2.8-2.36,2.8-2.83,0-2.83-2.88A4.75,4.75,0,0,1,71,58.9a5.91,5.91,0,0,1,4-1.56A4.28,4.28,0,0,1,78.32,59a5.75,5.75,0,0,1,1.44,3.82q0,4.11-4.14,7a14.07,14.07,0,0,1-8.15,2.94,4.91,4.91,0,0,1-3.34-1.62,5.16,5.16,0,0,1-1.69-3.84A83.05,83.05,0,0,1,64,53.64Q65.49,45,66.14,36.41t.65-25l-5.19.16.09-1.4A56,56,0,0,0,77.31,8V9.45l-3.55,1.11Q71.19,30.91,70,38a156.42,156.42,0,0,1-3.63,15.85q-2.43,8.72-2.43,12a6.31,6.31,0,0,0,1.37,3.64q1.37,1.91,2.85,1.91a9,9,0,0,0,6.06-2.16,7.18,7.18,0,0,0,2.51-5.73,3.8,3.8,0,0,0-.83-2.38,2.6,2.6,0,0,0-2.15-1.07q-3.36,0-3.36,2.59c0,.63.4.95,1.19.95a2.87,2.87,0,0,0,2.26-1.11Z" transform="translate(-2.22 -6.68)"/><path class="cls-1" d="M98.87,71.6q-9.75,0-12.16.31t-4.18.68V70.33L88,70.17A294.47,294.47,0,0,0,86.07,36l-4.69-.16V34.36q4.35.08,6,.08a29.84,29.84,0,0,0,8.06-1.52v1.89l-3.8.9L90.8,49l-1,20.88a73.08,73.08,0,0,0,9.08-.53Zm-3-49.54-.51.08a5.3,5.3,0,0,0-4.77-2.51A7.46,7.46,0,0,0,86.16,21a4,4,0,0,0-2,3.25,4.25,4.25,0,0,0,1.69,3.54,5.39,5.39,0,0,0,3.29,1.32q3.21,0,3.21-2.75,0-3.12-2.47-3.12a1.91,1.91,0,0,0-1,.34,1,1,0,0,0-.54.83q0,1,1.2,1a2.67,2.67,0,0,0,1.33-.49Q90.42,27,88.9,27a1.48,1.48,0,0,1-1.2-.78,2.52,2.52,0,0,1-.53-1.32,2.29,2.29,0,0,1,.89-1.79,3.19,3.19,0,0,1,2.15-.76,5.75,5.75,0,0,1,3.12.9,2.85,2.85,0,0,1,1.44,2.55A3.51,3.51,0,0,1,93,28.79,6.84,6.84,0,0,1,89.07,30a6.26,6.26,0,0,1-4.35-1.69,5.48,5.48,0,0,1-1.86-4.23,6.69,6.69,0,0,1,1.94-4.73A5.71,5.71,0,0,1,89,17.3Q94.6,17.3,95.83,22.07Z" transform="translate(-2.22 -6.68)"/><path class="cls-1" d="M125.64,68.64a31,31,0,0,1-7.52,1.19q-7.05,0-11.91-6a21.85,21.85,0,0,1-4.85-14.1q0-7.4,5.91-13.26a18.63,18.63,0,0,1,13.47-5.86,13.83,13.83,0,0,1,7.05,2.12q3.59,2.12,3.59,5A6.55,6.55,0,0,1,129,42.46a7.32,7.32,0,0,1-5.09,2.26,7.64,7.64,0,0,1-4.31-1.25,3.78,3.78,0,0,1-1.9-3.27,3.66,3.66,0,0,1,1.22-2.94,5,5,0,0,1,3.33-1,4.23,4.23,0,0,1,2.22.6,1.76,1.76,0,0,1,1,1.54,1.6,1.6,0,0,1-.78,1.17,2.46,2.46,0,0,1-1.46.6h-.51a8.06,8.06,0,0,0,.42-1.77q0-1-1.31-1a1.61,1.61,0,0,0-1.33.86,3.12,3.12,0,0,0-.57,1.73q0,3.29,3.13,3.29a4.39,4.39,0,0,0,3.44-1.5,5.29,5.29,0,0,0,1.33-3.64,5.4,5.4,0,0,0-2.22-4.34,7.7,7.7,0,0,0-5-1.79q-5.74,0-9.58,5.8A21.87,21.87,0,0,0,107.23,50a27.15,27.15,0,0,0,3,12.85q3,5.69,7.89,5.69a6.18,6.18,0,0,0,5.7-3.12Z" transform="translate(-2.22 -6.68)"/><path class="cls-1" d="M157.3,61.82q2,0,2,1.85a2.51,2.51,0,0,1-1.08,2,3.38,3.38,0,0,1-2,.84,3.84,3.84,0,0,1-2.51-1.15,3.65,3.65,0,0,1-1.29-2.84,4.58,4.58,0,0,1,1.56-3.68,5.77,5.77,0,0,1,3.88-1.34,6.21,6.21,0,0,1,4.64,1.91,6.7,6.7,0,0,1,1.86,4.87,6.33,6.33,0,0,1-3.15,5.55,12.36,12.36,0,0,1-6.9,2.06q-6.84,0-12.71-5.53A17.76,17.76,0,0,1,135.69,53a19.34,19.34,0,0,1,5.7-13.52q5.7-6.08,12.12-6.08a14.53,14.53,0,0,1,8.93,3.1q4.12,3.1,4.12,6.48A8.25,8.25,0,0,1,163,49.82a14.22,14.22,0,0,1-8.85,2.67,18.11,18.11,0,0,1-7.94-1.4q-2.79-1.4-2.79-3.91a4.59,4.59,0,0,1,1.73-3.7A5.61,5.61,0,0,1,148.82,42a5.74,5.74,0,0,1,3.06.84,2.39,2.39,0,0,1,1.37,2,3.41,3.41,0,0,1-1,2.3,2.59,2.59,0,0,1-1.84,1.07q-1.73,0-1.73-1.19,2-.53,2-1.83a1.92,1.92,0,0,0-.76-1.61,2.88,2.88,0,0,0-1.82-.59q-.76,0-1.44,1.21a5.05,5.05,0,0,0-.68,2.49q0,1.81,2.64,3.1a14.41,14.41,0,0,0,6.4,1.29,6.5,6.5,0,0,0,5-1.89,7.15,7.15,0,0,0,1.77-5.1,9.76,9.76,0,0,0-2.58-6.37,8,8,0,0,0-6.33-3q-4.69,0-8,5.12t-3.29,13.87a18.56,18.56,0,0,0,3.78,12,11.5,11.5,0,0,0,9.31,4.73,9,9,0,0,0,5.13-1.75,5.19,5.19,0,0,0,2.55-4.42,3.7,3.7,0,0,0-1.82-3.08,6.76,6.76,0,0,0-4-1.27,3,3,0,0,0-2,.75,2.3,2.3,0,0,0-.84,1.78q0,1.79,2.15,1.79a1.14,1.14,0,0,0,1-.77A3.6,3.6,0,0,0,157.3,61.82Z" transform="translate(-2.22 -6.68)"/><path class="cls-2" d="M6.33,78.39v.15a1.66,1.66,0,0,0-.67.09c-.25.08-.39.2-.44.36a5.28,5.28,0,0,0-.07,1.11V91.6a4.66,4.66,0,0,0,.08,1.14.69.69,0,0,0,.3.35,1.65,1.65,0,0,0,.8.14v.15H2.22v-.15q.77,0,1-.29a2.88,2.88,0,0,0,.19-1.32V80.23a3,3,0,0,0-.21-1.4q-.21-.33-.94-.29v-.15Z" transform="translate(-2.22 -6.68)"/><path class="cls-2" d="M22,78.39h2.43v.15a1.13,1.13,0,0,0-1.23,1.25,5.45,5.45,0,0,0,.06.7l1.62,11.36a2.88,2.88,0,0,0,.33,1.09,1.05,1.05,0,0,0,.76.29v.15H22.47v-.15q.69,0,.69-.65a5.26,5.26,0,0,0-.06-.6L21.52,81,16,93.38h-.1L10.34,81,8.78,92.06a3.55,3.55,0,0,0,0,.58q0,.59.7.58v.15H7.09v-.15a1.19,1.19,0,0,0,.68-.13A.83.83,0,0,0,8,92.69a3.71,3.71,0,0,0,.13-.63L9.9,80A2.32,2.32,0,0,0,9,78.74a1.93,1.93,0,0,0-.83-.2v-.15h2.9l5.41,12.26Z" transform="translate(-2.22 -6.68)"/><path class="cls-2" d="M47.84,93.61h-.26L43.33,82.18,39.16,93.61h-.24l-5-13.38A4.68,4.68,0,0,0,33.27,79a1.2,1.2,0,0,0-1-.44v-.15H35.9v.15q-.53,0-.53.38a2.23,2.23,0,0,0,.17.68l4.08,10.9L43,81.29l-.32-.88a4.17,4.17,0,0,0-.82-1.51,1.27,1.27,0,0,0-.88-.36v-.15h3.6v.15c-.35,0-.52.15-.52.44a3.07,3.07,0,0,0,.22.7L48.3,90.54l4.06-11.05a.12.12,0,0,1,0-.05l.16-.52q0-.38-.55-.38v-.15h2.25v.15q-.92,0-1.45,1.46Z" transform="translate(-2.22 -6.68)"/><path class="cls-2" d="M69.46,93.38H66.55V91.07a7,7,0,0,1-5.3,2.41,5.11,5.11,0,0,1-3.63-1.25,4.5,4.5,0,0,1-1.34-3.46v-9a1.72,1.72,0,0,0-.2-1,1.33,1.33,0,0,0-.93-.22v-.15h4.09v.15a1.58,1.58,0,0,0-.92.2q-.27.2-.27.94v8.23a4.73,4.73,0,0,0,1.24,3.69,4.14,4.14,0,0,0,2.83,1.1,5.78,5.78,0,0,0,4.43-2.19V80.37a2.93,2.93,0,0,0-.24-1.58,1,1,0,0,0-.75-.25h-.15v-.15h4.06v.15a1.55,1.55,0,0,0-.95.24,1.14,1.14,0,0,0-.19.77V91.76a3.78,3.78,0,0,0,.07.95.7.7,0,0,0,.3.37,1.47,1.47,0,0,0,.77.15Z" transform="translate(-2.22 -6.68)"/><path class="cls-2" d="M83.81,78.39h3v.15a1.39,1.39,0,0,0-.94.28,1.61,1.61,0,0,0-.26,1.09V93.56L73.3,80.83V91.91a2.7,2.7,0,0,0,.08.78.6.6,0,0,0,.24.35,2.77,2.77,0,0,0,.78.18v.15h-3v-.15q.79,0,1-.27a2.73,2.73,0,0,0,.19-1.31V81.5a5.31,5.31,0,0,0-.38-2.18q-.38-.84-1.76-.78v-.15h2.9l11.54,12V79.77q0-.85-.31-1a1.55,1.55,0,0,0-.8-.19Z" transform="translate(-2.22 -6.68)"/><path class="cls-2" d="M88.32,78.54v-.15h7.07a17.42,17.42,0,0,1,4.26.41,7.66,7.66,0,0,1,2.72,1.3,6.3,6.3,0,0,1,1.84,2.26,6.87,6.87,0,0,1,.68,3.08,7.85,7.85,0,0,1-.71,3.22,8.41,8.41,0,0,1-1.92,2.73A6.63,6.63,0,0,1,99.71,93a14.94,14.94,0,0,1-4.15.42H88.32v-.15h.19a.71.71,0,0,0,.74-.44,4.86,4.86,0,0,0,.18-1.6V80.27a2.92,2.92,0,0,0-.21-1.47A1.16,1.16,0,0,0,88.32,78.54Zm5.25.16H91.21V90.33A2.82,2.82,0,0,0,91.59,92a2.21,2.21,0,0,0,1.3.77,10.2,10.2,0,0,0,2.48.24q4.33,0,6.08-2.16a7.34,7.34,0,0,0,1.75-4.72,6.83,6.83,0,0,0-2.4-5.2Q98.4,78.7,93.57,78.7Z" transform="translate(-2.22 -6.68)"/><path class="cls-2" d="M106.41,78.56v-.17h9.68v2.07h-.16a3.83,3.83,0,0,0-.53-1.35,1.72,1.72,0,0,0-1.05-.2h-5.08v6.73H114a1.91,1.91,0,0,0,.89-.13.45.45,0,0,0,.2-.37h.16v1.41h-.16a.52.52,0,0,0-.25-.4,1.7,1.7,0,0,0-.72-.1h-4.84v4.63a4.16,4.16,0,0,0,.2,1.51.94.94,0,0,0,.63.58,5.41,5.41,0,0,0,1.31.12h2.71a9.39,9.39,0,0,0,1.65-.09,1.23,1.23,0,0,0,.61-.34,2.23,2.23,0,0,0,.39-1.13h.16v2.06H106.41v-.15a1.77,1.77,0,0,0,.81-.2q.28-.17.28-.87V80.05a3.23,3.23,0,0,0-.15-1.16Q107.21,78.56,106.41,78.56Z" transform="translate(-2.22 -6.68)"/><path class="cls-2" d="M118,78.54v-.15h4.37q1.66,0,2.4.07a4.21,4.21,0,0,1,1.52.47A2.81,2.81,0,0,1,127.49,80a3.32,3.32,0,0,1,.4,1.69,3.8,3.8,0,0,1-.71,2.17,5.7,5.7,0,0,1-2,1.75l1.09,1.63q.35.61,1.89,2.67a9.49,9.49,0,0,0,2.37,2.52,3.4,3.4,0,0,0,1.62.45,3.66,3.66,0,0,0,1.78-.58l.06.2a5.07,5.07,0,0,1-3.26,1,3.56,3.56,0,0,1-2.3-.77,24.44,24.44,0,0,1-3.34-4.23.06.06,0,0,1,0,0l-1.55-2.32-1.37,0H120.9v5.73a2,2,0,0,0,.19,1q.19.3.9.3v.15h-4v-.15q.74,0,.93-.3a2.28,2.28,0,0,0,.18-1.12V79.89a2.54,2.54,0,0,0-.16-1Q118.81,78.55,118,78.54Zm2.88.25v7h1.61a4,4,0,0,0,2.83-.87,3,3,0,0,0,.92-2.3,4.36,4.36,0,0,0-.91-2.62,3.7,3.7,0,0,0-3.19-1.24Z" transform="translate(-2.22 -6.68)"/><path class="cls-2" d="M134.4,93.38v-.15a1.21,1.21,0,0,0,.94-.26,1.47,1.47,0,0,0,.21-.91V79.79a2,2,0,0,0-.17-.94q-.17-.29-1-.31v-.15h4.13v.15a1.64,1.64,0,0,0-.8.14.69.69,0,0,0-.3.34,3.16,3.16,0,0,0-.07.88V90.42a2.36,2.36,0,0,0,.67,1.91,3.62,3.62,0,0,0,2.29.55h1.88a2.66,2.66,0,0,0,2-.65,3.79,3.79,0,0,0,.7-2.45H145v3.6Z" transform="translate(-2.22 -6.68)"/><path class="cls-2" d="M154.71,86.48h-4.52l-2.33,5.66a3.24,3.24,0,0,0-.24.75c0,.22.17.34.51.34v.15h-2.29v-.15a1.31,1.31,0,0,0,.77-.22,2.74,2.74,0,0,0,.69-1.13l5.58-13.71h.28l5.49,13.24a5.58,5.58,0,0,0,.42,1,1.36,1.36,0,0,0,1.29.86v.15h-3.6v-.15c.33,0,.49-.12.49-.38A2.41,2.41,0,0,0,157,92a.35.35,0,0,1-.07-.13c0-.07,0-.1,0-.1Zm-4.37-.42h4.16L152.42,81Z" transform="translate(-2.22 -6.68)"/><path class="cls-2" d="M173.93,78.39h3v.15a1.39,1.39,0,0,0-.94.28,1.61,1.61,0,0,0-.26,1.09V93.56L163.42,80.83V91.91a2.7,2.7,0,0,0,.08.78.6.6,0,0,0,.24.35,2.77,2.77,0,0,0,.78.18v.15h-3v-.15q.79,0,1-.27a2.73,2.73,0,0,0,.19-1.31V81.5a5.31,5.31,0,0,0-.38-2.18q-.38-.84-1.76-.78v-.15h2.9l11.54,12V79.77q0-.85-.31-1a1.55,1.55,0,0,0-.8-.19Z" transform="translate(-2.22 -6.68)"/><path class="cls-2" d="M178.44,78.54v-.15h7.07a17.42,17.42,0,0,1,4.26.41,7.66,7.66,0,0,1,2.72,1.3,6.3,6.3,0,0,1,1.84,2.26,6.87,6.87,0,0,1,.68,3.08,7.85,7.85,0,0,1-.71,3.22,8.41,8.41,0,0,1-1.92,2.73A6.63,6.63,0,0,1,189.83,93a14.94,14.94,0,0,1-4.15.42h-7.23v-.15h.19a.71.71,0,0,0,.74-.44,4.86,4.86,0,0,0,.18-1.6V80.27a2.92,2.92,0,0,0-.21-1.47A1.16,1.16,0,0,0,178.44,78.54Zm5.25.16h-2.36V90.33a2.82,2.82,0,0,0,.38,1.63,2.21,2.21,0,0,0,1.3.77,10.2,10.2,0,0,0,2.48.24q4.33,0,6.08-2.16a7.34,7.34,0,0,0,1.75-4.72,6.83,6.83,0,0,0-2.4-5.2Q188.52,78.7,183.69,78.7Z" transform="translate(-2.22 -6.68)"/></svg>
