<svg xmlns="http://www.w3.org/2000/svg" viewBox="0 0 280.7 64"><path d="M19.2,50.6h-.4a1.1,1.1,0,0,1-.9-.4,1.6,1.6,0,0,1-.2-1,9.9,9.9,0,0,0,.3-2.4V44.2c.2-3.8.3-7.8.4-11.7a7.8,7.8,0,0,0-1.6-4.9c-.1-.3-.4-.4-.7-.6h-.3a2.9,2.9,0,0,0-.2.9c-.2,1.3-.3,2.7-.4,4.1s-.3,4.9-.6,7.4-1.1,5.8-3.4,8.3a4.6,4.6,0,0,1-3.4,1.9H6.3a6.2,6.2,0,0,1-4.2-1.7A6.1,6.1,0,0,1,.7,43.4a1.6,1.6,0,0,1,1.5-1.6h.2c.9,0,1.1.6,1.3,1.3a23.9,23.9,0,0,0,2,4.3c.1.3.3.6.6.6a1,1,0,0,0,.7-.5A13.8,13.8,0,0,0,11.2,39l.2-1.3a59.5,59.5,0,0,0,.7-8.4,2.9,2.9,0,0,0-.2-.9h-.2a1.1,1.1,0,0,0-.8.3L9.6,29.9,8.4,31a1.3,1.3,0,0,1-.9.5H7a1.3,1.3,0,0,1,.1-1.5,9.8,9.8,0,0,1,4.1-3.7,2.4,2.4,0,0,0,1.3-2.2c.2-3.8.4-8.2.8-12.5a12.2,12.2,0,0,1,.6-2.6c.1-.5.3-1.1.4-1.6s.1-1.3-.1-1.5a2.6,2.6,0,0,0-1.8-.9h-.5a12.7,12.7,0,0,0-8.2,7.8c-.1.2-.1.5-.2.7a4.2,4.2,0,0,1-.4,1,1.5,1.5,0,0,1-1.1.8,1.3,1.3,0,0,1-1.1-.9,1.7,1.7,0,0,1,0-1.4l.2-.6A15,15,0,0,1,4.3,7.1l.3-.2C6.2,5.5,7.9,4,10.2,3.6a14.7,14.7,0,0,1,3.1-.2H14a8.5,8.5,0,0,1,2.3.3h.5a2.4,2.4,0,0,1,1,.5l.6.8.9,1.1a2.9,2.9,0,0,0,1.9.9A3.2,3.2,0,0,0,23,6.4l3.1-2.2.6-.5a2.5,2.5,0,0,1,1.4-.6,1.6,1.6,0,0,1,1.2.5h.1v.2a6.5,6.5,0,0,1-3.6,3.7,10.7,10.7,0,0,1-4.3.9,11.3,11.3,0,0,1-3.6-.6h-.4c-.4,0-.6.1-.8.9v.4a10.9,10.9,0,0,0-.4,2.5c-.2,3.3-.4,6.6-.5,9.9v2.5c-.1.6.2.9.8,1,2.4.5,3.8,1.7,4.2,3.8a2.5,2.5,0,0,0,.4.7l.7.6a6.3,6.3,0,0,1,1.1,1.2l.4.3q.1,0,.3-.3a7.1,7.1,0,0,0,1-1.4l.2-.3c1.1-1.6,2.1-3,4.1-3.5h.5c1.7,0,4.7,1.1,5.5,2.1a2.2,2.2,0,0,1,.2,1.1v9.7c-.1.7-.1,1.5-.2,2.2s-.2,2.1-.2,3.1a6.4,6.4,0,0,0,1,2.3l.3.4c.1.2.2.4.4.4s.3-.2.4-.4l.2-.6a42.9,42.9,0,0,0,1.9-5,27,27,0,0,0,.4-2.8v-.9c.1-1.5.3-3,.4-4.4s.3-3.8.4-5.7A1.6,1.6,0,0,1,41.8,26h.7c1.2.3,1,1.2.9,1.8v.3c-.1.4-.1.7-.2,1.1s-.1.9-.1,1.4-.1,1.4-.2,2.1-.3,4.2-.3,6.3a17.9,17.9,0,0,0,1.1,4.7c.2.6.5,1,.9,1s.7-.3,1-.8a6.2,6.2,0,0,0,.9-2.7,10.9,10.9,0,0,0,.1-1.8,6.6,6.6,0,0,1,0-1.4c.3-4.1.6-7.7,1-11.2A1.8,1.8,0,0,1,49.3,25h.2a1.8,1.8,0,0,1,1.1.4,1.4,1.4,0,0,1,.3,1.1,28.1,28.1,0,0,1-.1,2.9c-.1,2.2-.2,4.5-.2,6.8a48.4,48.4,0,0,0,.4,7.6c.2,1.8.9,2,1.3,2a4.6,4.6,0,0,0,2.2-.9,6.5,6.5,0,0,1,1.6-.9h.2a1,1,0,0,1,.9.6c.1.3.1,1-.2,1.2A5.9,5.9,0,0,1,55,47a10.3,10.3,0,0,1-3.5.7h0a5.6,5.6,0,0,1-3.7-1.3H47a7.4,7.4,0,0,1-2.8.6,6,6,0,0,1-2.9-.8h-.4s-.2,0-.3.5v.3c-.4,1.1-.7,2.3-2.1,2.5l-2.2.2a5.1,5.1,0,0,1-3-.9c-.3-.3-.5-.4-.7-.4s-.4.1-.7.4a6.9,6.9,0,0,1-3.8.9,4.3,4.3,0,0,1-2.6-.6,3.1,3.1,0,0,1-1.2-1.6,22.6,22.6,0,0,1-.4-9.4c.1-.6.3-1.2.4-1.8l.3-1.5a.7.7,0,0,0-.1-.5.8.8,0,0,0-.6-.2h-2v.3a3.7,3.7,0,0,0-.1,1.1c-.1,1.5-.1,3.1-.2,4.7l-.3,8C21.1,49.7,20.5,50.6,19.2,50.6ZM31.5,28.9l-.8.2A10.9,10.9,0,0,0,29,31.3c-1.9,3.4-2.1,7.2-2.1,10.1a6.2,6.2,0,0,0,.1,1.3c0,1,.1,2.1.2,3.2a5.3,5.3,0,0,0,.6,1.4.6.6,0,0,0,.6.4.5.5,0,0,0,.5-.3,1,1,0,0,1,.4-.5,11,11,0,0,0,1.6-3,18.4,18.4,0,0,0,.4-4.1,9.7,9.7,0,0,0,.1-1.7V36.8c.2-2.3.4-4.7.5-7a2,2,0,0,0-.2-.9Z"/><path d="M182.5,46h-1a3.8,3.8,0,0,1-2.8-3.8l.3-5.8c.1-1.4.2-2.8.2-4.2s0-2.2,0-3.4V27.4a2.8,2.8,0,0,0-1.8,1.5v.2a19.9,19.9,0,0,0-2.9,8.9c-.1,1.5-.3,2.9-.5,4.3a7.7,7.7,0,0,0-.2,1.5,1.3,1.3,0,0,1-1.4,1.2h-.6a1.9,1.9,0,0,1-.9-.4,1.7,1.7,0,0,1-.1-1.2l.3-2.1c.4-2.1.8-4.3,1.1-6.5a42.1,42.1,0,0,0,.1-5V28.1c0-.1-.2-.4-.3-.4l-.5.3c-1.6,1.5-2.2,3.5-2.9,5.5v.3a30.5,30.5,0,0,0-1.2,8.5,1.9,1.9,0,0,1-1.6,2.2h-.2a1.4,1.4,0,0,1-1.1-.4,1.8,1.8,0,0,1-.2-1.3,77.8,77.8,0,0,0,.7-15.2v-.5c0-.1-.1-.1-.1-.3h0l-.5.5L162.9,29a10.2,10.2,0,0,0-.8,1.5,3.7,3.7,0,0,1-.5,1.1,3.4,3.4,0,0,1-.6.6h-.3l-.3.2v-.3l-.2-.3a1.1,1.1,0,0,1-.2-.8c.2-2.5,1.9-4.2,3.6-5.8a3.4,3.4,0,0,1,1.7-.7h.3a1.7,1.7,0,0,1,1.8,1.7,17.9,17.9,0,0,0,.2,2.3V29l.5-.6,2-2.2a3.1,3.1,0,0,1,2.3-1.1,2.2,2.2,0,0,1,2.2,2.2l.3.5c.1.1.1.1.1.2h.1l.8-.7.7-.4a10.8,10.8,0,0,1,2.6-1.4h.2a2.9,2.9,0,0,1,1.8,1,2.4,2.4,0,0,1,.7,1.8c.1,3.1.1,5.9,0,8.5a19.5,19.5,0,0,1-.2,2.5c-.1.8-.1,1.5-.2,2.3a4.1,4.1,0,0,0,.4,1.7c.2.5.5.8.8.8s.5-.2.7-.7a23.6,23.6,0,0,0,2.3-5.2c.6-3,1.2-6.1,1.7-9,.1-1.1.3-2.2.5-3.3s1-1.5,1.6-1.5h.2a1,1,0,0,1,.9.4,1.4,1.4,0,0,1,.2,1.3c-.1,1.1-.2,2.2-.4,3.4s-.2,2.6-.4,3.9-.3,3.6-.4,5.5l-.2,1.8v.3l1.1,1.9.2.3.4-.3a3.1,3.1,0,0,0,1.2-1,22.4,22.4,0,0,0,2-4.4c.8-3,1.5-6.1,2.1-9.1l.4-1.6a1.6,1.6,0,0,1,1.6-1.5h.2a1,1,0,0,1,.9.4,2,2,0,0,1,.2,1.3l-.3,2.8c-.2,1.5-.4,3-.5,4.6s-.1,4.6-.1,6.9v.7a1.7,1.7,0,0,0,.3.6,2.1,2.1,0,0,0,1-.6,18.2,18.2,0,0,0,3.6-6.7c.4-1.7.8-3.5,1.1-5.3s.3-1.5.4-2.3a.6.6,0,0,1,.1-.4,1.8,1.8,0,0,1,.2-1c.5-1.2.8-1.4,1.1-1.4h0a2.8,2.8,0,0,1,2.1.8,20.7,20.7,0,0,1,4,7l.6,2.2.2.8c.1-.4.3-.8.4-1.2s.9-2.4,1.3-3.6a9.4,9.4,0,0,0,.4-1.6,18.7,18.7,0,0,1,.7-2.2c.1-.5.8-.9,1.3-1.1h.2c.3,0,1.1.2,1.1.7a2.8,2.8,0,0,0,1.4,1.8,3,3,0,0,1,.8.8,18.6,18.6,0,0,1,4.7,7.8c1.1,3.9-.2,6.9-3.7,8.3a4.7,4.7,0,0,1-1.7.3,5.8,5.8,0,0,1-2.9-.8c-.5-.2-.8-.6-.6-1a1.1,1.1,0,0,1,.9-.6h.3a2.5,2.5,0,0,0,1.2.2,2.7,2.7,0,0,0,2.1-1.1,4.5,4.5,0,0,0,1.1-4.7,35.6,35.6,0,0,0-3.2-6.6c-.4-.7-.6-.8-.7-.8s-.2.1-.6,1l-.8,2.1c-1.1,2.8-2.2,5.7-3.5,8.5a5.9,5.9,0,0,1-5.4,3.3,4.4,4.4,0,0,1-1.6-.2,1.1,1.1,0,0,1-1-.9,1.2,1.2,0,0,1,1.1-.9,3.9,3.9,0,0,0,3.3-3.4,15.4,15.4,0,0,0-2.3-10.6h-.1v1.1a25.4,25.4,0,0,0-.4,2.9,18.2,18.2,0,0,1-4.9,10.1,4.5,4.5,0,0,1-3.3,1.4h0l-1.6-.2c-.5-.1-.9-.7-1.3-1.2l-.2-.3-.5-.9h0a4.7,4.7,0,0,0-.9,1.2,4.1,4.1,0,0,1-3.1,2H191a4.3,4.3,0,0,1-4.2-2.3V43a5.6,5.6,0,0,1-.5.8A4,4,0,0,1,182.5,46Z"/><path d="M261.9,63.1c-1.8,0-3-1.3-3.1-3.5a12.6,12.6,0,0,1,.5-3.7,39.6,39.6,0,0,1,1.6-5.3,17.6,17.6,0,0,1,4.8-5.9,7.7,7.7,0,0,0,2.2-2.6,5.9,5.9,0,0,1-2.8.6h-2a1.5,1.5,0,0,1-1-.2,1.4,1.4,0,0,0-1.1-.5,3.4,3.4,0,0,0-1.4.5,5,5,0,0,1-2.6.8,4.6,4.6,0,0,1-2-.5,3.3,3.3,0,0,1-1.5-2,34.4,34.4,0,0,1,.3-4.6,6.6,6.6,0,0,1,.1-1.4c0-.5.1-1,.1-1.5v-.5l-1-.4c-.2,0-.2.6-.3,1.3a20.7,20.7,0,0,1-2.7,9.1,4.6,4.6,0,0,1-4.2,2.3h-.2c-1.7-.1-2.8-1-3.6-2.8,0-.1,0-.1-.1-.2a3.6,3.6,0,0,1-3,1.6h-.2c-2-.1-3.3-1.3-3.8-3.5a17.6,17.6,0,0,1-.1-5.6c.1-1,.2-2.1.2-3.2s.1-.5.1-.7a1.3,1.3,0,0,0,.1-.6,7.1,7.1,0,0,0,.1-1.4v-.5h-.1l-.2.3-1.2,1.1a1.6,1.6,0,0,1-1,.5h-.4a1.2,1.2,0,0,1,.1-1.3l.5-.6a8,8,0,0,1,2.1-2,2.8,2.8,0,0,1,1.2-.4,1.2,1.2,0,0,1,1,.5,2.1,2.1,0,0,1,.6,1.6c-.1,1.3-.2,2.5-.2,3.8s-.2,3-.2,4.5a14.6,14.6,0,0,0,.3,3.6c.1.3.1.7.2,1a1.8,1.8,0,0,0,.4,1c.2.3.4.4.5.4s.2-.2.3-.4a15.6,15.6,0,0,0,1.2-3.4q.9-4.5,1.5-8.7a1.5,1.5,0,0,1,1.6-1.5h0a1.2,1.2,0,0,1,1,.4,1.8,1.8,0,0,1,.4,1.3v2.8c-.1,2.5-.1,5,0,7.4a6.9,6.9,0,0,0,.6,2.6c.1.3.3.5.4.5l.7-.4c1.9-1.7,2.3-3.9,2.7-6.1a54.8,54.8,0,0,0,.5-5.7v-.2a9.9,9.9,0,0,0-.3-2.4,1.4,1.4,0,0,1,.2-1.3,1.2,1.2,0,0,1,1-.5h0a2.1,2.1,0,0,1,1.5,1,6.1,6.1,0,0,1,.7,1.4l.9,1.7.5.4c.1,0,.3-.2.5-.8s1.1-2.9,1.6-4a2.7,2.7,0,0,1,2.4-1.5l1,.2c.7.1,1.2.8,1.6,1.3l.2.2a1.5,1.5,0,0,1,.1,1.3c-.6,1.8-1.5,3.7-3.7,4.6a1.7,1.7,0,0,0-1,1.2q-.5,3.2-.6,6.6a2.6,2.6,0,0,0,.4,1c.1,0,.1.1.2.2h.3l.9-.5a41.1,41.1,0,0,0,2.1-4.2c.5-1.5,1.1-2.9,1.6-4.3l.9-2.5c1.1-2.9,3.2-4.5,6-4.5h1.5l.8.8.7.7h-.5l-.4.2-1,.3h-.8a2.2,2.2,0,0,0-1.7,1,9.4,9.4,0,0,0-2.4,4.5v.2a19.8,19.8,0,0,0-1.1,6.8,3.2,3.2,0,0,0,.5,1.4h.2a2.5,2.5,0,0,0,1.1-.4,9.5,9.5,0,0,0,3.1-5c.5-1.7.8-3.3,1.2-5l.3-1.7a1.8,1.8,0,0,1,1.9-1.5h.3a1.1,1.1,0,0,1,1,.5,2.5,2.5,0,0,1,.2,1.5h-.1a31.5,31.5,0,0,1-.9,4.2,47.1,47.1,0,0,0-.9,11.2v2.1c-.1,5.7-1.5,10-4.5,13.5a6.9,6.9,0,0,1-5.3,2.5Zm6-16.5a17.3,17.3,0,0,0-5.5,9.8,14.8,14.8,0,0,0-.1,3.7c0,.1.1.5.3.5s.4-.2.6-.3a23.1,23.1,0,0,0,1.6-1.9c2.5-3.2,2.7-7,3-10.7v-1ZM258.6,28l-.2.5a2.2,2.2,0,0,0,.6-1.3Z"/><path d="M75.9,49.4a1.9,1.9,0,0,1-2-1.9l-.6-12.1V33.2c-.1.1-.1.2-.1.4a19.8,19.8,0,0,0-.8,2.6,23.2,23.2,0,0,1-5,11.2,3.4,3.4,0,0,1-2.6,1.5c-1.1,0-2-.9-2.6-2.3s-.7-4.6-.5-6.9a1.9,1.9,0,0,1,1.3-1.6h.2c.6.2.7,1,.7,1.5v.2c.1.9.1,1.9.2,2.8l.3,2.8a5.4,5.4,0,0,0,.3,1c.1.1.2.2.2.3l.6-.6a5.6,5.6,0,0,0,1.2-1.6c1.1-3,2.5-6.3,3.4-9.7a46,46,0,0,0,1.4-7.4l.3-1.5c.5-3.4,1-6.4,1.3-9.5s.2-3.4.2-5,.1-2.3.1-3.5a38,38,0,0,1,.6-5c.1-.5,1-1,1.5-1h0c.5,0,1.3.6,1.3,1.1,0,2-.1,4.1-.2,6.1v1.1c0,.3-.1.5-.1.8s-.1.6-.1,1V33.6a47.6,47.6,0,0,0,.6,6.5,4.3,4.3,0,0,1,.2-1.1c.3-1.2.5-2.4.8-3.7s1-4.6,1.6-7c1.1-4.7,2.1-8.6,3.2-12.6s1.7-5.5,2.6-8.2,1-3.1,1.4-4.6a1.4,1.4,0,0,1,1.3-1.1h.6a1.9,1.9,0,0,1,1.1,1.4c-.1,1-.2,2.1-.4,3.1v.5c-.3,1.9-.6,3.9-1,5.8s-.5,3.1-.7,4.6a6.8,6.8,0,0,0-.2,1.4l-.2,2.6-.6,7.4v1.8c-.3,3.7-.6,7.4-.7,11.2a4.6,4.6,0,0,0,1.6,3.9.1.1,0,0,1,.1-.1,4.3,4.3,0,0,1,.4-.7,28.8,28.8,0,0,0,2.9-8.2c.4-2.4.9-4.7,1.4-7.1l.9-4.2c.1-.8.6-1.2,1.1-1.2h.5a1.4,1.4,0,0,1,1,1.3c0,1.5-.2,3-.3,4.5s-.3,2.2-.3,3.4c-.3,3.5-.6,7-.7,10.4a2.2,2.2,0,0,0,1,1.4,2.3,2.3,0,0,0,1.1-.7v-.2a19.3,19.3,0,0,0,1.9-3.8,45,45,0,0,0,1.8-11.2,12.1,12.1,0,0,1,.6-3.4,2.3,2.3,0,0,1,1.5-1.2h.3a.9.9,0,0,1,.7.3,1.4,1.4,0,0,1,.3,1.2c0,.7-.1,1.4-.1,2.1s-.2,2.4-.2,3.6c-.1,4.4-.2,7.8-.1,10.9a2.2,2.2,0,0,0,1,1.5,1.9,1.9,0,0,0,1.1-.8q1.5-2.4,2.7-4.8c.8-1.7,1.4-3.4,2-5a20.5,20.5,0,0,0,.5-2.4c0-1.6.1-3.1.1-4.6s.2-5.6.5-8.3,1-7.9,1.7-11.8l.4-2.3a6,6,0,0,1,1.1-2.6,2.2,2.2,0,0,1,2.1-.9,2.3,2.3,0,0,1,2.2,1.1A19.1,19.1,0,0,1,120,5.5a13.7,13.7,0,0,1,.1,6.7,15.5,15.5,0,0,0-.6,3.1c-.3,1.6-.7,3.3-1.2,5s-1.6,4.6-2.4,6.9-.9,2.3-1.3,3.5a13.6,13.6,0,0,0-.4,1.7v.3c0,2.9,0,5.8.1,8.6a10.7,10.7,0,0,0,.7,3.2c.2.7.4.7.4.7h0c.2,0,.4-.1.8-.4a11.8,11.8,0,0,0,4.2-5.5,41.3,41.3,0,0,1,1.4-4.2c.3-1,.7-1.9,1-2.8a5.8,5.8,0,0,0,.2-1.8V26.8c0-1.9,0-3.9.1-5.9s.2-6.1.5-9.1a15.6,15.6,0,0,1,2.7-7.6,2.4,2.4,0,0,1,2.1-1l1.3.2a2.2,2.2,0,0,1,1.8,2.5v.6a80.8,80.8,0,0,1-1.1,8.6c-.6,3-1.4,5.9-2.1,8.8s-.9,3.5-1.3,5.3a33.6,33.6,0,0,0-.4,8.4c0,1.2.1,2.5.1,3.8a3.1,3.1,0,0,0,.5,1.8v.3l.5.2a2.3,2.3,0,0,0,1.8-2.3V39.3a22.7,22.7,0,0,1,.1-4.5,45.1,45.1,0,0,1,1.6-7.8,3.5,3.5,0,0,1,3.8-2.9h.8a1.7,1.7,0,0,1,1.7,1.6,21.7,21.7,0,0,1-2.6,14.1l-1.5,2.6c-.2.3,0,1.2.4,1.9s.3.4.4.4a1.8,1.8,0,0,0,1.2-1.2,24.4,24.4,0,0,0,1-4.6,44.1,44.1,0,0,1,3-9.7l.7-1.5c.7-1.3,1.5-2.8,3.4-2.8h.3l1-.3.5-.2a1.5,1.5,0,0,1,.9-.2,1.4,1.4,0,0,1,1.3,1.4c.1.3.2.6.3.6l.6-.3.4-.2a6.1,6.1,0,0,1,1.8-.9,5.1,5.1,0,0,1,1.7-.3h1l.3.8h-.1c-.1.1-.1.2-.2.2a1,1,0,0,1-.5.6l-.8.6a6.9,6.9,0,0,1-4.1,1.7h-.2c-.5,0-.8.2-.8,1v1.6c-.1,2.2-.2,4.5-.5,6.7a38.8,38.8,0,0,1-1,5.5,1.5,1.5,0,0,1-1.7,1.2h-.9a1.3,1.3,0,0,1-.9-.4,1.4,1.4,0,0,1-.3-1.3l.3-1.7a15.7,15.7,0,0,0,.4-2.3l.6-7.7V29a.1.1,0,0,0-.1-.1l-.4.9a10.7,10.7,0,0,0-1.2,2.7c-.5,1.8-.9,3.7-1.3,5.5s-.3,1.5-.5,2.3l-.3,1.3c-.2,1-.4,2-.7,3s-.9,1.6-1.6,1.7h-.3l-2.3.2a4.8,4.8,0,0,1-3.4-1.1,1.9,1.9,0,0,0-1-.2h-1.2l-.9.2h-.4c-2.6,0-4-1.4-4.3-4.2h0l-.5.7c-.7.9-1.4,1.7-2,2.6a7.2,7.2,0,0,1-5.1,2.8h-.3a3.9,3.9,0,0,1-4-3.7,19.1,19.1,0,0,0-.4-2.1c0-.2-.1-.4-.1-.6l-1.4,2.5a5.9,5.9,0,0,1-5,3,5,5,0,0,1-2.4-.6l-1.2-.8-.4-.3A5,5,0,0,1,95.7,47h-.1c-1.7,0-3.4-.2-4.3-2.1h0a.9.9,0,0,0-.3.5,4,4,0,0,1-3.7,2.5,4.6,4.6,0,0,1-3.9-2.4,7,7,0,0,1-1-3c0-1.9.1-3.8.1-5.7a14.8,14.8,0,0,0,.1-2.1,1.7,1.7,0,0,0,.1-.7l.3-2.9c.2-2.3.4-4.6.7-6.9v-1l-.2.7c-.4,1.3-.8,2.7-1.1,4.1a75.5,75.5,0,0,0-2.3,11.5,38.6,38.6,0,0,1-1.2,5.7c-.2.8-.5,1.6-.7,2.4a1.9,1.9,0,0,1-2.1,1.8Zm58.5-22.8a32.4,32.4,0,0,0-1.8,10.7C134,34.7,135,28.8,134.4,26.6ZM116.6,4.7c-1.2,2.9-2.3,12.7-1.7,15.6C116.5,15.8,117.9,10.4,116.6,4.7Zm11.6,1.2-.3.8a8.6,8.6,0,0,0-.7,2.1c-.2,2.2-.4,4.4-.5,6.5s-.1,1.5-.2,2.2.1-.4.2-.6.7-3,1-4.5.5-3.2.8-5.1a4.5,4.5,0,0,0-.1-1.1.4.4,0,0,0-.1-.3Z"/><path d="M102,15.6c-.4-.1-1.2-.7-1.1-1.1a23.1,23.1,0,0,1,.8-4.3,1.1,1.1,0,0,1,1.2-.8h.1a1.1,1.1,0,0,1,.6,1v.2a1.7,1.7,0,0,1,.1.7v.3h0c-.1.2-.1.5-.2.8a17.4,17.4,0,0,1-.5,2.2,1.3,1.3,0,0,1-1,.9Z"/><path d="M98.9,15.3c-1,0-1.1-1-1.2-1.3a8.6,8.6,0,0,1,.1-2.8,1.4,1.4,0,0,1,1.3-1.4h0c.9,0,.9.8,1,1.2v2.2a2.8,2.8,0,0,1-.1.9c-.1.3-.3,1.1-1,1.2Z"/><path d="M278.2,31a2,2,0,0,1-1.5-.9,2.7,2.7,0,0,1-.4-1.7V11.7a37.4,37.4,0,0,1,.5-3.9,1.6,1.6,0,0,1,1-1.1h.2a1.5,1.5,0,0,1,1.2.7,4.3,4.3,0,0,1,.5,1.8v4.9c.1,1.5.1,3,.2,4.5s.2,4.8.2,7.3a10.9,10.9,0,0,1-.5,3.8,1.9,1.9,0,0,1-1.3,1.3Z"/><path d="M277.8,41a2.2,2.2,0,0,1-2.1-2.3v-.3h3.1c.3,0,.8.6.8,1a1.6,1.6,0,0,1-.6,1.2,2.8,2.8,0,0,1-1.2.4Z"/></svg>