<svg xmlns="http://www.w3.org/2000/svg" viewBox="0 0 243.2 218.1">
  <defs>
    <style>
      .a, .b, .l {
        fill: #d7b46a;
      }

      .a {
        stroke: #100000;
      }

      .a, .l {
        stroke-linejoin: round;
      }

      .a, .e, .h, .j, .l {
        stroke-width: 0.22px;
      }

      .b, .m {
        fill-rule: evenodd;
      }

      .c, .d, .e, .f, .g, .h, .i, .j, .k, .n {
        fill: none;
      }

      .c, .d, .e, .f, .g, .i, .j, .k, .m, .n {
        stroke: #fff;
      }

      .c, .d, .e, .f, .g, .i {
        stroke-miterlimit: 2.61;
      }

      .c {
        stroke-width: 0.72px;
      }

      .d {
        stroke-width: 0.2px;
      }

      .f {
        stroke-width: 0.2px;
      }

      .g {
        stroke-width: 0.21px;
      }

      .h, .l {
        stroke: #1d1d1b;
      }

      .h, .j, .k, .m {
        stroke-miterlimit: 22.93;
      }

      .i {
        stroke-width: 0.25px;
      }

      .k, .n {
        stroke-width: 0.75px;
      }

      .m {
        fill: #8b8b8c;
        stroke-width: 2px;
      }

      .n {
        stroke-linejoin: bevel;
      }
    </style>
  </defs>
  <polygon class="a" points="25.2 176.4 212.8 174.3 243 215.2 -0.6 215.2 25.2 176.4"/>
  <path class="b" d="M211.8,176.9l1.4-4.7h1l.6,4.9-1.9,27a3.5,3.5,0,0,1-3.1-.3S211.7,177,211.8,176.9Z"/>
  <path class="c" d="M211.8,176.9l1.4-4.7h1l.6,4.9-1.9,27a3.5,3.5,0,0,1-3.1-.3S211.7,177,211.8,176.9Z"/>
  <path class="b" d="M213.1,176.5c.3,0,.3.5.7.6s.2-.5.5-.5.5.6.5.5l-.3-2.7c-.1-.3-.3-.5-.4-.5l-.4.3-.4-.3c-.1,0-.3.3-.4.1l-.2-.3a19.8,19.8,0,0,0-.8,2.6.4.4,0,0,1,.3.2c.1.2.1.4.3.4s.4-.4.6-.4"/>
  <path class="b" d="M211.8,176.9l.4-1.8,1-2.9h1l.6,4.9-1.9,27a3.1,3.1,0,0,1-1.7.1,3,3,0,0,1-1.4-.4Z"/>
  <path class="d" d="M211.8,176.9l.4-1.8,1-2.9h1l.6,4.9-1.9,27a3.1,3.1,0,0,1-1.7.1,3,3,0,0,1-1.4-.4Z"/>
  <path class="b" d="M213.1,176.5c.3,0,.3.5.7.6s.2-.5.5-.5.5.6.5.5l-.3-2.7c-.1-.3-.3-.5-.4-.5l-.4.3-.4-.3c-.1,0-.3.3-.4.1l-.2-.3a19.8,19.8,0,0,0-.8,2.6.4.4,0,0,1,.3.2c.1.2.1.4.3.4S212.9,176.5,213.1,176.5Z"/>
  <path class="e" d="M213.1,176.5c.3,0,.3.5.7.6s.2-.5.5-.5.5.6.5.5l-.3-2.7c-.1-.3-.3-.5-.4-.5l-.4.3-.4-.3c-.1,0-.3.3-.4.1l-.2-.3a19.8,19.8,0,0,0-.8,2.6.4.4,0,0,1,.3.2c.1.2.1.4.3.4S212.9,176.5,213.1,176.5Z"/>
  <path class="b" d="M202,174.8l1.9-4.5,1,.2v5l-4.8,26.6a3.9,3.9,0,0,1-1.7,0,5,5,0,0,1-1.3-.6Z"/>
  <path class="c" d="M202,174.8l1.9-4.5,1,.2v5l-4.8,26.6a3.9,3.9,0,0,1-1.7,0,5,5,0,0,1-1.3-.6Z"/>
  <path class="b" d="M204.5,175.2h.6L200.2,202l-.6.2s4.8-26.9,4.9-27"/>
  <path class="b" d="M203.4,174.6c.3,0,.2.5.6.6s.2-.4.5-.3.5.5.5.5v-2.7a1,1,0,0,0-.4-.6l-.3.2c-.2,0-.3-.2-.4-.3s-.4.2-.5.1v-.3a14.5,14.5,0,0,0-1.1,2.5.4.4,0,0,1,.3.2c0,.2.1.4.3.4s.3-.4.6-.3"/>
  <path class="b" d="M203.5,174.6c.3,0,.2.5.5.5s.3-.3.5-.3.5.5.5.4a20.9,20.9,0,0,0-.1-2.5c0-.4-.2-.5-.3-.5l-.3.2c-.2,0-.3-.3-.4-.3s-.3.2-.4,0l-.2-.2-.9,2.3s.1,0,.2.2.1.5.3.5.3-.4.6-.3"/>
  <path class="b" d="M203.6,174.6c.2.1.1.5.4.5s.3-.4.5-.4.4.4.4.3v-2.3c-.1-.3-.2-.5-.3-.5s-.2.2-.4.2l-.3-.3c-.1,0-.3.2-.4.1h-.1a10.2,10.2,0,0,0-.8,2.1l.2.2c0,.2.1.4.2.4s.3-.4.6-.2"/>
  <path class="b" d="M203.6,174.7c.3,0,.2.3.5.3s.2-.4.4-.4.3.3.3.3v-2.2c0-.3-.1-.5-.2-.5s-.2.2-.4.2l-.3-.3-.3.2a.1.1,0,0,0-.1-.1,8.4,8.4,0,0,0-.8,1.9.4.4,0,0,1,.2.3l.2.3c.2-.1.3-.2.5,0"/>
  <path class="b" d="M203.7,174.7c.2,0,.2.3.4.2s.2-.3.4-.3.3.2.3.1v-2l-.2-.4c-.1-.1-.2.2-.4.1l-.3-.2c-.1-.1-.2.2-.2.1h-.2l-.6,1.7c0,.1.1.1.1.3s.1.3.2.3a.5.5,0,0,1,.5.1"/>
  <path class="b" d="M203.8,174.7c.1.1.1.2.3.2s.2-.4.3-.4h.3v-1.8c0-.2-.1-.4-.2-.4a.4.4,0,0,1-.3.2l-.3-.3s-.1.2-.2.2h-.1l-.5,1.5a.4.4,0,0,1,.1.3c0,.2.1.2.2.2s.2.2.4.2"/>
  <path class="b" d="M203.8,174.8h.4c.1,0,.1-.3.2-.4h.2a9.2,9.2,0,0,0,.1-1.6c-.1-.3-.1-.5-.2-.5a.4.4,0,0,1-.3.2l-.2-.3c-.1,0-.2.2-.2.3h-.1a5,5,0,0,0-.5,1.3v.3c.1.2.2.4.3.4s.1.2.2.2"/>
  <path class="b" d="M203.9,174.8c.1,0,.1.1.3-.1s.1-.3.2-.4.2,0,.2-.1v-1.4a2,2,0,0,0-.1-.5s-.2.3-.3.2l-.2-.2c-.1-.1-.1.1-.2.2s0,.2-.1.2-.3,1-.3,1.1.1.2.1.4,0,.3.1.4.1.2.3.2"/>
  <path class="b" d="M204,174.8h.2c.1-.1.1-.3.2-.4a.4.4,0,0,0,.1-.3,4.9,4.9,0,0,1,.1-1.2v-.4s-.2.2-.3.1a.2.2,0,0,1-.2-.2v.6c0,.1-.2.7-.2.9v.4c0,.1.1.3.1.4s.1.2.3.2"/>
  <path class="b" d="M204,174.9c.1,0,.2-.1.2-.3s.1-.3.2-.4a.8.8,0,0,1,.1-.4v-1.4l-.3.2a.4.4,0,0,1-.2-.3,1,1,0,0,1-.1.4v.3c0,.1-.1.5-.1.7v.8c.1.3.1.4.2.4"/>
  <path class="b" d="M204.1,174.9c.3,0,.3-2.5.3-2.5s-.1.3-.2.2a.4.4,0,0,1-.2-.3s-.2,2.6.1,2.6"/>
  <path class="b" d="M202.1,174.8l.6-1.7,1.2-2.8,1,.2.2,5-4.8,26.6a4.5,4.5,0,0,1-1.8,0,5,5,0,0,1-1.3-.6S202,174.9,202.1,174.8Z"/>
  <path class="f" d="M202.1,174.8l.6-1.7,1.2-2.8,1,.2.2,5-4.8,26.6a4.5,4.5,0,0,1-1.8,0,5,5,0,0,1-1.3-.6S202,174.9,202.1,174.8Z"/>
  <path class="b" d="M203.4,174.6c.3,0,.2.5.6.6s.2-.4.5-.3.5.5.5.5v-2.7a1,1,0,0,0-.4-.6l-.3.2c-.2,0-.3-.2-.4-.3s-.4.2-.5.1v-.3a14.5,14.5,0,0,0-1.1,2.5.4.4,0,0,1,.3.2c0,.2.1.4.3.4S203.1,174.5,203.4,174.6Z"/>
  <path class="e" d="M203.4,174.6c.3,0,.2.5.6.6s.2-.4.5-.3.5.5.5.5v-2.7a1,1,0,0,0-.4-.6l-.3.2c-.2,0-.3-.2-.4-.3s-.4.2-.5.1v-.3a14.5,14.5,0,0,0-1.1,2.5.4.4,0,0,1,.3.2c0,.2.1.4.3.4S203.1,174.5,203.4,174.6Z"/>
  <path class="b" d="M198.7,170.5l1.9-5.2h1v5.7l-5,30.7a3.1,3.1,0,0,1-1.7.1,2.6,2.6,0,0,1-1.3-.7S198.6,170.5,198.7,170.5Z"/>
  <path class="c" d="M198.7,170.5l1.9-5.2h1v5.7l-5,30.7a3.1,3.1,0,0,1-1.7.1,2.6,2.6,0,0,1-1.3-.7S198.6,170.5,198.7,170.5Z"/>
  <path class="b" d="M201.1,170.9h.6l-5,30.9c-.4.2-.6.1-.6.1l5-31"/>
  <path class="b" d="M200.1,170.1c.3.1.2.7.5.8s.3-.5.6-.5.5.7.5.6v-3.1c-.1-.4-.3-.6-.4-.6l-.4.2c-.1.1-.2-.2-.4-.3s-.3.3-.4.1l-.2-.4-1,2.9a.2.2,0,0,1,.2.2c.1.3.1.6.3.6s.4-.5.7-.5"/>
  <path class="b" d="M200.5,170.3c.1.1.1.2.3.1s.2-.4.3-.5.2.1.2-.1V168a1.2,1.2,0,0,0-.1-.5s-.2.3-.3.2-.2-.3-.3-.3l-.2.3v.2a5.3,5.3,0,0,0-.5,1.5c0,.1.1.2.1.4l.2.4c.1.2.1.1.3.1"/>
  <path class="b" d="M200.7,170.5c.4,0,.4-2.8.4-2.8a.2.2,0,0,1-.3.1v-.2s-.3,2.9,0,2.9"/>
  <path class="b" d="M198.7,170.5l.6-2,1.3-3.2h1v5.7l-5,30.7a3.1,3.1,0,0,1-1.7.1,3.5,3.5,0,0,1-1.4-.7Z"/>
  <path class="g" d="M198.7,170.5l.6-2,1.3-3.2h1v5.7l-5,30.7a3.1,3.1,0,0,1-1.7.1,3.5,3.5,0,0,1-1.4-.7Z"/>
  <path class="b" d="M200.1,170.1c.3.1.2.7.5.8s.3-.5.6-.5.5.7.5.6v-3.1c-.1-.4-.3-.6-.4-.6l-.4.2c-.1.1-.2-.2-.4-.3s-.3.3-.4.1l-.2-.4-1,2.9a.2.2,0,0,1,.2.2c.1.3.1.6.3.6S199.8,170.1,200.1,170.1Z"/>
  <path class="e" d="M200.1,170.1c.3.1.2.7.5.8s.3-.5.6-.5.5.7.5.6v-3.1c-.1-.4-.3-.6-.4-.6l-.4.2c-.1.1-.2-.2-.4-.3s-.3.3-.4.1l-.2-.4-1,2.9a.2.2,0,0,1,.2.2c.1.3.1.6.3.6S199.8,170.1,200.1,170.1Z"/>
  <path class="b" d="M206.7,170.4l-1-5.6-.6.2-.3,6.1,1.9,33.1a1,1,0,0,0,1,0,2,2,0,0,0,.9-.6Z"/>
  <path class="e" d="M206.7,170.4l-1-5.6-.6.2-.3,6.1,1.9,33.1a1,1,0,0,0,1,0,2,2,0,0,0,.9-.6Z"/>
  <path class="b" d="M206.7,170.4l-.4-2.4h-.2l2.2,35.8.3-.3Z"/>
  <path class="h" d="M206.7,170.4l-.4-2.4h-.2l2.2,35.8.3-.3Z"/>
  <path class="b" d="M205.8,170.1c-.1,0-.1.6-.3.7s-.2-.5-.3-.4-.3.7-.3.6v-3.4c0-.4.1-.6.2-.6s.1.2.2.3.2-.3.3-.4.2.3.2.1v-.4a30.3,30.3,0,0,1,.6,3.2s-.1-.1-.2.2-.1.5-.2.5S206,170,205.8,170.1Z"/>
  <path class="h" d="M205.8,170.1c-.1,0-.1.6-.3.7s-.2-.5-.3-.4-.3.7-.3.6v-3.4c0-.4.1-.6.2-.6s.1.2.2.3.2-.3.3-.4.2.3.2.1v-.4a30.3,30.3,0,0,1,.6,3.2s-.1-.1-.2.2-.1.5-.2.5S206,170,205.8,170.1Z"/>
  <path class="h" d="M205.8,170.1c-.2.1-.2.5-.3.6s-.2-.5-.3-.5-.3.5-.3.4.1-2,.1-2.9l.2-.6c.1-.1.1.2.2.2l.3-.3s.1.2.2.1h.1l.4,2.6s-.1,0-.1.3-.1.5-.2.5S205.9,169.9,205.8,170.1Z"/>
  <path class="b" d="M205.7,170.2c-.1,0-.1.4-.3.4s-.1-.5-.2-.5-.2.4-.2.3a24.4,24.4,0,0,1,.1-2.7,1.5,1.5,0,0,1,.1-.6c.1,0,.1.3.2.3l.3-.4s.1.3.1.2h.1l.4,2.4c0,.1-.1.1-.1.3s-.1.4-.2.4S205.9,169.9,205.7,170.2Z"/>
  <path class="h" d="M205.7,170.2c-.1,0-.1.4-.3.4s-.1-.5-.2-.5-.2.4-.2.3a24.4,24.4,0,0,1,.1-2.7,1.5,1.5,0,0,1,.1-.6c.1,0,.1.3.2.3l.3-.4s.1.3.1.2h.1l.4,2.4c0,.1-.1.1-.1.3s-.1.4-.2.4S205.9,169.9,205.7,170.2Z"/>
  <path class="b" d="M205.7,170.2c-.1,0-.1.3-.3.3s-.1-.5-.2-.5-.2.3-.2.2a21.8,21.8,0,0,0,.1-2.5.8.8,0,0,1,.2-.6v.3c.1,0,.2-.3.2-.3s.2.2.2.2h.1l.3,2.1c0,.1-.1.1-.1.4s0,.3-.1.4S205.8,170,205.7,170.2Z"/>
  <path class="h" d="M205.7,170.2c-.1,0-.1.3-.3.3s-.1-.5-.2-.5-.2.3-.2.2a21.8,21.8,0,0,0,.1-2.5.8.8,0,0,1,.2-.6v.3c.1,0,.2-.3.2-.3s.2.2.2.2h.1l.3,2.1c0,.1-.1.1-.1.4s0,.3-.1.4S205.8,170,205.7,170.2Z"/>
  <path class="b" d="M205.6,170.2c-.1.1-.1.3-.2.2s-.1-.4-.2-.5-.1.2-.1,0v-2.1c.1-.4.1-.6.2-.6s.1.3.2.2v-.3c.1,0,.1.2.2.3h0s.3,1.7.3,1.8-.1.2-.1.4-.1.2-.1.3S205.8,170.2,205.6,170.2Z"/>
  <path class="h" d="M205.6,170.2c-.1.1-.1.3-.2.2s-.1-.4-.2-.5-.1.2-.1,0v-2.1c.1-.4.1-.6.2-.6s.1.3.2.2v-.3c.1,0,.1.2.2.3h0s.3,1.7.3,1.8-.1.2-.1.4-.1.2-.1.3S205.8,170.2,205.6,170.2Z"/>
  <path class="b" d="M205.6,170.3h-.2c-.1,0-.1-.4-.1-.5s-.2.1-.2-.1.1-1.3.1-1.9,0-.6.1-.6.1.3.2.2v-.3c.1,0,.1.3.1.4h.1l.2,1.6a2,2,0,0,0-.1.5c0,.2-.1.3-.1.4Z"/>
  <path class="h" d="M205.6,170.3h-.2c-.1,0-.1-.4-.1-.5s-.2.1-.2-.1.1-1.3.1-1.9,0-.6.1-.6.1.3.2.2v-.3c.1,0,.1.3.1.4h.1l.2,1.6a2,2,0,0,0-.1.5c0,.2-.1.3-.1.4Z"/>
  <path class="b" d="M205.6,170.3c-.1,0-.1.1-.2-.1s-.1-.4-.1-.5-.1,0-.1-.2v-1.7a1.2,1.2,0,0,1,.1-.5l.2.2v.3l.2,1.3c0,.2-.1.3-.1.5a.7.7,0,0,1-.1.5C205.7,170.3,205.6,170.3,205.6,170.3Z"/>
  <path class="h" d="M205.6,170.3c-.1,0-.1.1-.2-.1s-.1-.4-.1-.5-.1,0-.1-.2v-1.7a1.2,1.2,0,0,1,.1-.5l.2.2v.3l.2,1.3c0,.2-.1.3-.1.5a.7.7,0,0,1-.1.5C205.7,170.3,205.6,170.3,205.6,170.3Z"/>
  <path class="b" d="M205.5,170.4c-.1,0-.1-.1-.1-.3a.7.7,0,0,1-.1-.5c-.1-.1-.1-.1-.1-.3v-1.5a1.8,1.8,0,0,0,.1-.5s.1.3.2.2a.5.5,0,0,0,.1-.3,1,1,0,0,0,.1.4V169a.7.7,0,0,1-.1.5v.6C205.6,170.3,205.6,170.4,205.5,170.4Z"/>
  <path class="h" d="M205.5,170.4c-.1,0-.1-.1-.1-.3a.7.7,0,0,1-.1-.5c-.1-.1-.1-.1-.1-.3v-1.5a1.8,1.8,0,0,0,.1-.5s.1.3.2.2a.5.5,0,0,0,.1-.3,1,1,0,0,0,.1.4V169a.7.7,0,0,1-.1.5v.6C205.6,170.3,205.6,170.4,205.5,170.4Z"/>
  <path class="b" d="M205.5,170.4c-.1,0-.1-.1-.1-.4a.6.6,0,0,1-.1-.4v-2.2c0-.1.1.2.2.1s.1-.2.1-.3v.9c0,.2.1.7.1.9v.5a1.1,1.1,0,0,0-.1.5A.6.6,0,0,1,205.5,170.4Z"/>
  <path class="h" d="M205.5,170.4c-.1,0-.1-.1-.1-.4a.6.6,0,0,1-.1-.4v-2.2c0-.1.1.2.2.1s.1-.2.1-.3v.9c0,.2.1.7.1.9v.5a1.1,1.1,0,0,0-.1.5A.6.6,0,0,1,205.5,170.4Z"/>
  <path class="b" d="M205.4,170.4a15.1,15.1,0,0,1-.1-3s.1.3.2.2a.5.5,0,0,0,.1-.3S205.6,170.5,205.4,170.4Z"/>
  <path class="h" d="M205.4,170.4a15.1,15.1,0,0,1-.1-3s.1.3.2.2a.5.5,0,0,0,.1-.3S205.6,170.5,205.4,170.4Z"/>
  <path class="b" d="M206.7,170.4l-1-5.6h-.6l-.2,6.2,1.8,33a1.1,1.1,0,0,0,1.1.1,1.9,1.9,0,0,0,.8-.7Z"/>
  <path class="e" d="M206.7,170.4l-1-5.6h-.6l-.2,6.2,1.8,33a1.1,1.1,0,0,0,1.1.1,1.9,1.9,0,0,0,.8-.7Z"/>
  <path class="b" d="M205.8,170.1c-.1,0-.1.6-.3.7s-.2-.5-.3-.4-.3.7-.3.6v-3.4c0-.4.1-.6.2-.6s.1.2.2.3.2-.3.3-.4.2.3.2.1v-.4a30.3,30.3,0,0,1,.6,3.2s-.1-.1-.2.2-.1.5-.2.5S206,170,205.8,170.1Z"/>
  <path class="e" d="M205.8,170.1c-.1,0-.1.6-.3.7s-.2-.5-.3-.4-.3.7-.3.6v-3.4c0-.4.1-.6.2-.6s.1.2.2.3.2-.3.3-.4.2.3.2.1v-.4a30.3,30.3,0,0,1,.6,3.2s-.1-.1-.2.2-.1.5-.2.5S206,170,205.8,170.1Z"/>
  <path class="b" d="M218.1,170l-.5-5.7h-.8l-1.3,6.1L213,203.6a2.4,2.4,0,0,0,1.5.1,2.2,2.2,0,0,0,1.2-.5Z"/>
  <path class="e" d="M218.1,170l-.5-5.7h-.8l-1.3,6.1L213,203.6a2.4,2.4,0,0,0,1.5.1,2.2,2.2,0,0,0,1.2-.5Z"/>
  <path class="b" d="M218.1,170l-.2-2.4h-.2l-2.4,35.9.4-.3Z"/>
  <path class="h" d="M218.1,170l-.2-2.4h-.2l-2.4,35.9.4-.3Z"/>
  <path class="b" d="M217,169.6c-.2,0-.3.6-.6.7s-.1-.5-.4-.5-.5.6-.5.6l.7-3.3a1,1,0,0,1,.4-.7c.1,0,.1.3.3.3s.2-.2.4-.3.2.3.3.1l.2-.3a29.1,29.1,0,0,1,.3,3.2.2.2,0,0,0-.3.1c-.1.3-.2.6-.3.6S217.3,169.6,217,169.6Z"/>
  <path class="h" d="M217,169.6c-.2,0-.3.6-.6.7s-.1-.5-.4-.5-.5.6-.5.6l.7-3.3a1,1,0,0,1,.4-.7c.1,0,.1.3.3.3s.2-.2.4-.3.2.3.3.1l.2-.3a29.1,29.1,0,0,1,.3,3.2.2.2,0,0,0-.3.1c-.1.3-.2.6-.3.6S217.3,169.6,217,169.6Z"/>
  <path class="b" d="M216.9,169.6c-.2,0-.2.6-.5.6s-.1-.5-.3-.5-.5.6-.5.5l.6-3.1c.1-.4.3-.6.4-.6l.3.3.3-.3c.1-.1.2.2.3.1l.2-.3a25.3,25.3,0,0,1,.3,3s-.2-.1-.3.2-.2.5-.3.5S217.2,169.4,216.9,169.6Z"/>
  <path class="h" d="M216.9,169.6c-.2,0-.2.6-.5.6s-.1-.5-.3-.5-.5.6-.5.5l.6-3.1c.1-.4.3-.6.4-.6l.3.3.3-.3c.1-.1.2.2.3.1l.2-.3a25.3,25.3,0,0,1,.3,3s-.2-.1-.3.2-.2.5-.3.5S217.2,169.4,216.9,169.6Z"/>
  <path class="b" d="M216.9,169.6c-.2,0-.3.5-.5.5s-.1-.5-.3-.5-.4.5-.4.4l.6-2.9q.1-.6.3-.6c.1,0,.1.3.3.3l.3-.3c.1,0,.2.3.3.2v-.2a21.3,21.3,0,0,1,.2,2.7s-.1,0-.2.2-.2.5-.3.5S217.2,169.4,216.9,169.6Z"/>
  <path class="h" d="M216.9,169.6c-.2,0-.3.5-.5.5s-.1-.5-.3-.5-.4.5-.4.4l.6-2.9q.1-.6.3-.6c.1,0,.1.3.3.3l.3-.3c.1,0,.2.3.3.2v-.2a21.3,21.3,0,0,1,.2,2.7s-.1,0-.2.2-.2.5-.3.5S217.2,169.4,216.9,169.6Z"/>
  <path class="b" d="M216.8,169.7c-.2,0-.2.4-.4.3s-.1-.4-.3-.5l-.3.3c.2-.9.3-1.8.5-2.7a1.4,1.4,0,0,1,.3-.5c.1-.1.1.2.3.2l.3-.3c.1,0,.1.3.2.2h.1a16.6,16.6,0,0,1,.2,2.4l-.2.2c-.1.3-.1.4-.2.4S217,169.4,216.8,169.7Z"/>
  <path class="h" d="M216.8,169.7c-.2,0-.2.4-.4.3s-.1-.4-.3-.5l-.3.3c.2-.9.3-1.8.5-2.7a1.4,1.4,0,0,1,.3-.5c.1-.1.1.2.3.2l.3-.3c.1,0,.1.3.2.2h.1a16.6,16.6,0,0,1,.2,2.4l-.2.2c-.1.3-.1.4-.2.4S217,169.4,216.8,169.7Z"/>
  <path class="b" d="M216.8,169.7c-.2,0-.2.3-.4.2s-.1-.4-.2-.5-.3.3-.3.2.3-1.7.4-2.4a1.4,1.4,0,0,1,.3-.6c.1,0,.1.3.3.3l.3-.3c.1-.1.1.2.2.2h.1V169l-.2.3c-.1.2-.1.3-.2.4S216.9,169.5,216.8,169.7Z"/>
  <path class="h" d="M216.8,169.7c-.2,0-.2.3-.4.2s-.1-.4-.2-.5-.3.3-.3.2.3-1.7.4-2.4a1.4,1.4,0,0,1,.3-.6c.1,0,.1.3.3.3l.3-.3c.1-.1.1.2.2.2h.1V169l-.2.3c-.1.2-.1.3-.2.4S216.9,169.5,216.8,169.7Z"/>
  <path class="b" d="M216.7,169.7c-.2,0-.2.3-.3.2s-.1-.5-.2-.5H216a14.3,14.3,0,0,1,.4-2.2l.2-.6c.1,0,.1.3.3.3l.3-.3v.3h.1v1.9c-.1,0-.2.1-.2.3l-.3.3C216.9,169.7,216.9,169.7,216.7,169.7Z"/>
  <path class="h" d="M216.7,169.7c-.2,0-.2.3-.3.2s-.1-.5-.2-.5H216a14.3,14.3,0,0,1,.4-2.2l.2-.6c.1,0,.1.3.3.3l.3-.3v.3h.1v1.9c-.1,0-.2.1-.2.3l-.3.3C216.9,169.7,216.9,169.7,216.7,169.7Z"/>
  <path class="b" d="M216.6,169.8h-.2c-.2-.1-.1-.4-.2-.5s-.2,0-.1-.1l.3-2,.2-.5c.1,0,.1.3.3.2s.2-.2.2-.3.1.3.1.4h.1v1.6c0,.2-.1.3-.1.5l-.3.4C216.8,169.8,216.8,169.8,216.6,169.8Z"/>
  <path class="h" d="M216.6,169.8h-.2c-.2-.1-.1-.4-.2-.5s-.2,0-.1-.1l.3-2,.2-.5c.1,0,.1.3.3.2s.2-.2.2-.3.1.3.1.4h.1v1.6c0,.2-.1.3-.1.5l-.3.4C216.8,169.8,216.8,169.8,216.6,169.8Z"/>
  <path class="b" d="M216.6,169.8c-.1,0-.2.1-.3-.1v-.5c-.1-.1-.2-.1-.1-.2l.3-1.8c0-.3.1-.5.2-.5s0,.3.2.3l.2-.3c.1,0,.1.2.1.3v1.6c0,.2-.1.3-.1.5l-.2.5C216.8,169.8,216.7,169.8,216.6,169.8Z"/>
  <path class="h" d="M216.6,169.8c-.1,0-.2.1-.3-.1v-.5c-.1-.1-.2-.1-.1-.2l.3-1.8c0-.3.1-.5.2-.5s0,.3.2.3l.2-.3c.1,0,.1.2.1.3v1.6c0,.2-.1.3-.1.5l-.2.5C216.8,169.8,216.7,169.8,216.6,169.8Z"/>
  <path class="b" d="M216.5,169.8c-.1,0-.1,0-.2-.2v-.8l.3-1.5c.1-.3.1-.5.2-.5s0,.3.2.2l.2-.3v1.8l-.2.5c0,.2-.1.4-.1.6S216.6,169.8,216.5,169.8Z"/>
  <path class="h" d="M216.5,169.8c-.1,0-.1,0-.2-.2v-.8l.3-1.5c.1-.3.1-.5.2-.5s0,.3.2.2l.2-.3v1.8l-.2.5c0,.2-.1.4-.1.6S216.6,169.8,216.5,169.8Z"/>
  <path class="b" d="M216.5,169.9c-.1,0-.2-.2-.2-.4v-.9l.3-1.3a1.2,1.2,0,0,1,.1-.5s0,.3.2.2l.2-.3v.5a.6.6,0,0,0-.1.4,1.9,1.9,0,0,1-.1.8,1.3,1.3,0,0,1-.1.6,4.3,4.3,0,0,1-.1.5Z"/>
  <path class="h" d="M216.5,169.9c-.1,0-.2-.2-.2-.4v-.9l.3-1.3a1.2,1.2,0,0,1,.1-.5s0,.3.2.2l.2-.3v.5a.6.6,0,0,0-.1.4,1.9,1.9,0,0,1-.1.8,1.3,1.3,0,0,1-.1.6,4.3,4.3,0,0,1-.1.5Z"/>
  <path class="b" d="M216.4,169.9c-.3,0,.3-3,.3-3a.2.2,0,0,0,.2.2l.2-.3A17.3,17.3,0,0,1,216.4,169.9Z"/>
  <path class="h" d="M216.4,169.9c-.3,0,.3-3,.3-3a.2.2,0,0,0,.2.2l.2-.3A17.3,17.3,0,0,1,216.4,169.9Z"/>
  <path class="b" d="M218.1,170l-.4-5.7h-.9l-1.3,6.1-2.4,33a1.7,1.7,0,0,0,1.4.2,3.6,3.6,0,0,0,1.3-.5S218.2,170.1,218.1,170Z"/>
  <path class="e" d="M218.1,170l-.4-5.7h-.9l-1.3,6.1-2.4,33a1.7,1.7,0,0,0,1.4.2,3.6,3.6,0,0,0,1.3-.5S218.2,170.1,218.1,170Z"/>
  <path class="e" d="M217,169.6c-.2,0-.3.6-.6.7s-.1-.5-.4-.5-.5.6-.5.6l.7-3.3a1,1,0,0,1,.4-.7c.1,0,.1.3.3.3s.2-.2.4-.3.2.3.3.1l.2-.3a29.1,29.1,0,0,1,.3,3.2.2.2,0,0,0-.3.1c-.1.3-.2.6-.3.6S217.3,169.6,217,169.6Z"/>
  <path class="b" d="M211.5,173.8l-1.4-5.3h-1.5l-1.5,5.4-.2,29.8a8.4,8.4,0,0,0,4.4.2s.3-29.9.2-30"/>
  <path class="i" d="M211.5,173.8l-1.4-5.3h-1.5l-1.5,5.4-.2,29.8a8.4,8.4,0,0,0,4.4.2S211.6,173.9,211.5,173.8Z"/>
  <path class="e" d="M209.6,173.2c-.4,0-.4.6-.9.6s-.3-.6-.7-.6-.8.5-.8.4l.7-2.9a.9.9,0,0,1,.7-.4l.4.3.7-.2c.2,0,.4.3.6.1l.3-.2a20.2,20.2,0,0,1,.8,2.9s-.3-.1-.4.1-.3.5-.6.5S210,173.2,209.6,173.2Z"/>
  <path class="b" d="M202.4,197.6l.3-.2-6.9-22.9h-.2l-.2.3C195.7,177,201.7,197,202.4,197.6Z"/>
  <path class="j" d="M202.4,197.6l.3-.2-6.9-22.9h-.2l-.2.3C195.7,177,201.7,197,202.4,197.6Z"/>
  <path class="b" d="M201.1,198h.8c-.4-.5-3.4-9.8-3.8-11.2a14.6,14.6,0,0,1-.7-3c-.2-.8-.7-1.9-.9-2.8a40.3,40.3,0,0,0-1.6-5.8h-.7Z"/>
  <path class="j" d="M201.1,198h.8c-.4-.5-3.4-9.8-3.8-11.2a14.6,14.6,0,0,1-.7-3c-.2-.8-.7-1.9-.9-2.8a40.3,40.3,0,0,0-1.6-5.8h-.7Z"/>
  <path class="b" d="M201.9,197.9l.5-.3c-.7-.6-6.7-20.6-7-22.7l-.5.2a40.3,40.3,0,0,1,1.6,5.8c.2.9.7,2,.9,2.8a14.6,14.6,0,0,0,.7,3C198.5,188.1,201.5,197.4,201.9,197.9Z"/>
  <path class="j" d="M201.9,197.9l.5-.3c-.7-.6-6.7-20.6-7-22.7l-.5.2a40.3,40.3,0,0,1,1.6,5.8c.2.9.7,2,.9,2.8a14.6,14.6,0,0,0,.7,3C198.5,188.1,201.5,197.4,201.9,197.9Z"/>
  <path class="b" d="M194.2,175.1h.7l.5-.2.2-.3h.2l-.9-1.4c-.4.3-.4.4-.9.2Z"/>
  <path class="j" d="M194.2,175.1h.7l.5-.2.2-.3h.2l-.9-1.4c-.4.3-.4.4-.9.2Z"/>
  <path class="b" d="M194,173.3c.5.2.5.1.9-.2l-.9-1.2Z"/>
  <path class="j" d="M194,173.3c.5.2.5.1.9-.2l-.9-1.2Z"/>
  <path class="b" d="M201.2,198.4c.5.1.4.2.6-.1h-.5Z"/>
  <path class="j" d="M201.2,198.4c.5.1.4.2.6-.1h-.5Z"/>
  <path class="b" d="M202.7,199.1l.4-.2-3.4-23.6h-.2l-.2.3C199.3,177.7,202.1,198.5,202.7,199.1Z"/>
  <path class="j" d="M202.7,199.1l.4-.2-3.4-23.6h-.2l-.2.3C199.3,177.7,202.1,198.5,202.7,199.1Z"/>
  <path class="b" d="M201.4,199.3h.8c-.3-.6-1.9-10.3-2.1-11.8a28.3,28.3,0,0,1-.2-2.9c-.1-.9-.4-2.1-.4-3a48.6,48.6,0,0,0-.8-6H198Z"/>
  <path class="j" d="M201.4,199.3h.8c-.3-.6-1.9-10.3-2.1-11.8a28.3,28.3,0,0,1-.2-2.9c-.1-.9-.4-2.1-.4-3a48.6,48.6,0,0,0-.8-6H198Z"/>
  <path class="b" d="M202.2,199.4l.5-.3c-.6-.6-3.4-21.4-3.4-23.5h-.6a48.6,48.6,0,0,1,.8,6c0,.9.3,2.1.4,3a28.3,28.3,0,0,0,.2,2.9C200.3,189.1,201.9,198.8,202.2,199.4Z"/>
  <path class="j" d="M202.2,199.4l.5-.3c-.6-.6-3.4-21.4-3.4-23.5h-.6a48.6,48.6,0,0,1,.8,6c0,.9.3,2.1.4,3a28.3,28.3,0,0,0,.2,2.9C200.3,189.1,201.9,198.8,202.2,199.4Z"/>
  <path class="b" d="M198,175.7h1.3l.2-.3h.2l-.7-1.5c-.4.2-.4.3-.9,0Z"/>
  <path class="j" d="M198,175.7h1.3l.2-.3h.2l-.7-1.5c-.4.2-.4.3-.9,0Z"/>
  <path class="b" d="M198.1,173.8c.5.3.5.2.9,0l-.7-1.3Z"/>
  <path class="j" d="M198.1,173.8c.5.3.5.2.9,0l-.7-1.3Z"/>
  <path class="b" d="M201.4,199.8c.5.1.4.1.7-.1h-.5Z"/>
  <path class="b" d="M200.3,199.2l.2-.4-10.3-28.4h-.3v.4C190.4,173.4,199.4,198.4,200.3,199.2Z"/>
  <path class="j" d="M200.3,199.2l.2-.4-10.3-28.4h-.3v.4C190.4,173.4,199.4,198.4,200.3,199.2Z"/>
  <path class="b" d="M199,199.6h.7c-.5-.7-4.8-12.3-5.5-14.1l-1.1-3.6c-.4-1.1-1-2.5-1.3-3.6s-2-6.5-2.5-7.2h-.7Z"/>
  <path class="j" d="M199,199.6h.7c-.5-.7-4.8-12.3-5.5-14.1l-1.1-3.6c-.4-1.1-1-2.5-1.3-3.6s-2-6.5-2.5-7.2h-.7Z"/>
  <path class="b" d="M199.7,199.5l.6-.3c-.9-.8-9.9-25.8-10.5-28.4l-.5.2c.5.7,2.1,6,2.5,7.2s.9,2.5,1.3,3.6l1.1,3.6C194.9,187.2,199.2,198.8,199.7,199.5Z"/>
  <path class="b" d="M188.6,171.1h.7l.5-.2v-.4h.3l-1.2-1.8c-.4.3-.3.4-.9.1Z"/>
  <path class="b" d="M188.1,168.7c.6.3.5.2.9-.1l-1.1-1.5Z"/>
  <path class="j" d="M188.1,168.7c.6.3.5.2.9-.1l-1.1-1.5Z"/>
  <polygon class="b" points="217.2 185.9 217 186.6 217 186.8 217.1 186.7 217.3 186.7 217.4 186.1 217.3 185.9 217.2 185.9"/>
  <polygon class="b" points="193.2 185.6 193.2 202.1 203.6 205.6 218.1 204.9 218.2 186.9 204.5 187.9 193.2 185.6"/>
  <polygon class="k" points="193.2 185.6 193.2 202.1 203.6 205.6 218.1 204.9 218.2 186.9 204.5 187.9 193.2 185.6"/>
  <rect class="l" x="-0.5" y="215.1" width="243.5" height="2.94"/>
  <path class="m" d="M67.1,181.1c-7.2-.7-2.9-12.4-2.8-14.7s1.1-4.1,1.6-6.2c1.7-8.9,4.7-15.2,8-26.2.7-3.5,1.3-6.7,2.5-11.5,1.9-.4.5-9.6,11.4-10.1l11.2-.8c8.2-4.2,6.5-6,6.5-13.9-1,1.1-1.8,2-3.4,1.8l-3.8-2.7-2.5-8.3,1.4-13.2c1.8-7.4,6.4-14.6,11.6-20l2.9.6c4-2.7,10.7-1.4,15.5,3.5,12.5,12.6,12.1,26.4,3.5,36.4l-.9,6.1-2.2-3.5-1.3,9.5c1.4,1.5,2.3,2.9,3.6,4.5l9.1,3a52,52,0,0,1,10.5,1.7c3.3,6,5.8,9.4,6.3,18.4,2.4,7.9,4,17.1,7.2,23.7s4.6,9.2,2.4,15c2.7,10.7-22.2,9.9-35,8.7-7.2-.6-19.7-2.3-25.6-3.2C95.4,182.5,76.5,186.7,67.1,181.1Z"/>
  <path class="j" d="M67.1,181.1c-7.2-.7-2.9-12.4-2.8-14.7s1.1-4.1,1.6-6.2c1.7-8.9,4.7-15.2,8-26.2.7-3.5,1.3-6.7,2.5-11.5,1.9-.4.5-9.6,11.4-10.1l11.2-.8c8.2-4.2,6.5-6,6.5-13.9-1,1.1-1.8,2-3.4,1.8l-3.8-2.7-2.5-8.3,1.4-13.2c1.8-7.4,6.4-14.6,11.6-20l2.9.6c4-2.7,10.7-1.4,15.5,3.5,12.5,12.6,12.1,26.4,3.5,36.4l-.9,6.1-2.2-3.5-1.3,9.5c1.4,1.5,2.3,2.9,3.6,4.5l9.1,3a52,52,0,0,1,10.5,1.7c3.3,6,5.8,9.4,6.3,18.4,2.4,7.9,4,17.1,7.2,23.7s4.6,9.2,2.4,15c2.7,10.7-22.2,9.9-35,8.7-7.2-.6-19.7-2.3-25.6-3.2C95.4,182.5,76.5,186.7,67.1,181.1Z"/>
  <polygon class="b" points="10.7 170.5 26.5 159.6 26.6 159.6 26.8 159.6 26.9 159.6 27.1 159.6 27.3 159.6 27.4 159.6 27.6 159.6 27.7 159.6 27.9 159.6 28 159.6 28.2 159.6 28.4 159.6 28.5 159.6 28.7 159.6 28.8 159.6 29 159.6 13.6 170.5 13.4 170.5 13.3 170.5 13.1 170.5 12.9 170.5 12.7 170.5 12.5 170.5 12.3 170.5 12.2 170.5 12 170.5 11.8 170.5 11.6 170.5 11.4 170.5 11.2 170.5 11 170.5 10.9 170.5 10.7 170.5"/>
  <polygon class="n" points="10.7 170.5 26.5 159.6 26.6 159.6 26.8 159.6 26.9 159.6 27.1 159.6 27.3 159.6 27.4 159.6 27.6 159.6 27.7 159.6 27.9 159.6 28 159.6 28.2 159.6 28.4 159.6 28.5 159.6 28.7 159.6 28.8 159.6 29 159.6 13.6 170.5 13.4 170.5 13.3 170.5 13.1 170.5 12.9 170.5 12.7 170.5 12.5 170.5 12.3 170.5 12.2 170.5 12 170.5 11.8 170.5 11.6 170.5 11.4 170.5 11.2 170.5 11 170.5 10.9 170.5 10.7 170.5"/>
  <polygon class="b" points="13.6 170.5 29 159.6 31 159.6 32.9 159.7 34.8 159.7 36.5 159.8 38.3 159.8 39.9 159.8 41.5 159.9 43 159.9 44.5 160 45.9 160 47.2 160 48.5 160.1 49.7 160.1 50.9 160.2 52 160.2 53.1 160.2 54.1 160.3 55 160.3 55.9 160.3 56.7 160.4 57.5 160.4 58.2 160.4 58.9 160.5 59.5 160.5 60.1 160.5 60.6 160.6 61.1 160.6 61.6 160.7 62 160.7 62.3 160.7 62.6 160.8 62.9 160.8 53.5 171.9 53.2 171.9 52.8 171.8 52.4 171.8 52 171.7 51.4 171.7 50.9 171.7 50.2 171.6 49.6 171.6 48.8 171.5 48 171.5 47.2 171.4 46.3 171.4 45.3 171.4 44.2 171.3 43.1 171.3 42 171.2 40.7 171.2 39.4 171.1 38.1 171.1 36.6 171.1 35.1 171 33.5 171 31.9 170.9 30.2 170.9 28.4 170.8 26.5 170.8 24.5 170.7 22.5 170.7 20.4 170.6 18.2 170.6 16 170.5 13.6 170.5"/>
  <polygon class="n" points="13.6 170.5 29 159.6 31 159.6 32.9 159.7 34.8 159.7 36.5 159.8 38.3 159.8 39.9 159.8 41.5 159.9 43 159.9 44.5 160 45.9 160 47.2 160 48.5 160.1 49.7 160.1 50.9 160.2 52 160.2 53.1 160.2 54.1 160.3 55 160.3 55.9 160.3 56.7 160.4 57.5 160.4 58.2 160.4 58.9 160.5 59.5 160.5 60.1 160.5 60.6 160.6 61.1 160.6 61.6 160.7 62 160.7 62.3 160.7 62.6 160.8 62.9 160.8 53.5 171.9 53.2 171.9 52.8 171.8 52.4 171.8 52 171.7 51.4 171.7 50.9 171.7 50.2 171.6 49.6 171.6 48.8 171.5 48 171.5 47.2 171.4 46.3 171.4 45.3 171.4 44.2 171.3 43.1 171.3 42 171.2 40.7 171.2 39.4 171.1 38.1 171.1 36.6 171.1 35.1 171 33.5 171 31.9 170.9 30.2 170.9 28.4 170.8 26.5 170.8 24.5 170.7 22.5 170.7 20.4 170.6 18.2 170.6 16 170.5 13.6 170.5"/>
  <polygon class="b" points="53.5 171.9 62.9 160.8 62.8 161 62.8 161.2 62.7 161.4 62.7 161.6 62.6 161.7 62.6 161.9 62.5 162.1 62.5 162.3 62.5 162.4 62.5 162.6 62.5 162.8 62.5 163 62.4 163.1 62.5 163.3 62.5 163.5 62.5 163.6 62.5 163.8 62.5 164 62.5 164.1 62.6 164.3 62.6 164.4 62.7 164.6 62.7 164.8 62.8 164.9 62.8 165.1 62.9 165.2 63 165.4 63.1 165.5 63.1 165.7 63.2 165.8 63.3 166 63.4 166.1 54.2 178.1 54 178 53.9 177.8 53.8 177.6 53.7 177.5 53.6 177.3 53.5 177.1 53.4 176.9 53.4 176.8 53.3 176.6 53.2 176.4 53.2 176.2 53.1 176 53.1 175.8 53.1 175.6 53 175.4 53 175.2 53 175 53 174.9 53 174.7 53 174.5 53 174.3 53 174 53 173.8 53.1 173.6 53.1 173.4 53.1 173.2 53.2 173 53.2 172.8 53.3 172.6 53.4 172.4 53.4 172.1 53.5 171.9"/>
  <polygon class="n" points="53.5 171.9 62.9 160.8 62.8 161 62.8 161.2 62.7 161.4 62.7 161.6 62.6 161.7 62.6 161.9 62.5 162.1 62.5 162.3 62.5 162.4 62.5 162.6 62.5 162.8 62.5 163 62.4 163.1 62.5 163.3 62.5 163.5 62.5 163.6 62.5 163.8 62.5 164 62.5 164.1 62.6 164.3 62.6 164.4 62.7 164.6 62.7 164.8 62.8 164.9 62.8 165.1 62.9 165.2 63 165.4 63.1 165.5 63.1 165.7 63.2 165.8 63.3 166 63.4 166.1 54.2 178.1 54 178 53.9 177.8 53.8 177.6 53.7 177.5 53.6 177.3 53.5 177.1 53.4 176.9 53.4 176.8 53.3 176.6 53.2 176.4 53.2 176.2 53.1 176 53.1 175.8 53.1 175.6 53 175.4 53 175.2 53 175 53 174.9 53 174.7 53 174.5 53 174.3 53 174 53 173.8 53.1 173.6 53.1 173.4 53.1 173.2 53.2 173 53.2 172.8 53.3 172.6 53.4 172.4 53.4 172.1 53.5 171.9"/>
  <polygon class="b" points="54.2 178.1 63.4 166.1 63.4 166.4 63.3 166.7 63.3 167 63.2 167.3 63.2 167.6 63.1 167.9 63.1 168.1 63 168.4 63 168.7 63 169 62.9 169.2 62.9 169.5 62.9 169.8 62.9 170 62.8 170.3 62.8 170.5 62.8 170.7 62.8 171 62.8 171.2 62.8 171.4 62.8 171.7 62.8 171.9 62.8 172.1 62.8 172.3 62.8 172.5 62.8 172.7 62.9 172.9 62.9 173 62.9 173.2 63 173.4 63 173.5 63.1 173.7 53.8 187.1 53.7 186.9 53.6 186.7 53.6 186.5 53.5 186.3 53.5 186.1 53.5 185.9 53.4 185.7 53.4 185.4 53.4 185.2 53.4 184.9 53.4 184.7 53.4 184.4 53.4 184.2 53.4 183.9 53.4 183.6 53.4 183.3 53.4 183 53.5 182.7 53.5 182.4 53.5 182.1 53.6 181.8 53.6 181.5 53.6 181.2 53.7 180.9 53.7 180.5 53.8 180.2 53.9 179.9 53.9 179.5 54 179.2 54 178.8 54.1 178.5 54.2 178.1"/>
  <polygon class="n" points="54.2 178.1 63.4 166.1 63.4 166.4 63.3 166.7 63.3 167 63.2 167.3 63.2 167.6 63.1 167.9 63.1 168.1 63 168.4 63 168.7 63 169 62.9 169.2 62.9 169.5 62.9 169.8 62.9 170 62.8 170.3 62.8 170.5 62.8 170.7 62.8 171 62.8 171.2 62.8 171.4 62.8 171.7 62.8 171.9 62.8 172.1 62.8 172.3 62.8 172.5 62.8 172.7 62.9 172.9 62.9 173 62.9 173.2 63 173.4 63 173.5 63.1 173.7 53.8 187.1 53.7 186.9 53.6 186.7 53.6 186.5 53.5 186.3 53.5 186.1 53.5 185.9 53.4 185.7 53.4 185.4 53.4 185.2 53.4 184.9 53.4 184.7 53.4 184.4 53.4 184.2 53.4 183.9 53.4 183.6 53.4 183.3 53.4 183 53.5 182.7 53.5 182.4 53.5 182.1 53.6 181.8 53.6 181.5 53.6 181.2 53.7 180.9 53.7 180.5 53.8 180.2 53.9 179.9 53.9 179.5 54 179.2 54 178.8 54.1 178.5 54.2 178.1"/>
  <polygon class="b" points="53.8 187.1 63.1 173.7 63.3 173.7 63.4 173.7 63.6 173.7 63.7 173.7 63.9 173.7 64 173.7 64.2 173.7 64.4 173.7 64.5 173.7 64.7 173.7 64.8 173.7 65 173.7 65.1 173.7 65.3 173.7 65.5 173.7 65.6 173.7 56.7 187.1 56.5 187.1 56.3 187.1 56.2 187.1 56 187.1 55.8 187.1 55.6 187.1 55.4 187.1 55.2 187.1 55 187.1 54.9 187.1 54.7 187.1 54.5 187.1 54.3 187.1 54.1 187.1 53.9 187.1 53.8 187.1"/>
  <polygon class="n" points="53.8 187.1 63.1 173.7 63.3 173.7 63.4 173.7 63.6 173.7 63.7 173.7 63.9 173.7 64 173.7 64.2 173.7 64.4 173.7 64.5 173.7 64.7 173.7 64.8 173.7 65 173.7 65.1 173.7 65.3 173.7 65.5 173.7 65.6 173.7 56.7 187.1 56.5 187.1 56.3 187.1 56.2 187.1 56 187.1 55.8 187.1 55.6 187.1 55.4 187.1 55.2 187.1 55 187.1 54.9 187.1 54.7 187.1 54.5 187.1 54.3 187.1 54.1 187.1 53.9 187.1 53.8 187.1"/>
  <polygon class="b" points="56.7 187.1 65.6 173.7 65.7 173.9 65.8 174.1 65.8 174.3 65.9 174.5 66 174.8 66.1 175 66.1 175.2 66.2 175.4 66.2 175.6 66.3 175.8 66.3 176.1 66.4 176.3 66.4 176.5 66.4 176.7 66.4 176.9 66.5 177.2 66.5 177.4 66.5 177.6 66.5 177.8 66.5 178 66.5 178.2 66.5 178.5 66.5 178.7 66.4 178.9 66.4 179.1 66.4 179.3 66.3 179.5 66.3 179.8 66.2 180 66.2 180.2 66.1 180.4 66.1 180.6 57.2 195.2 57.3 195 57.4 194.7 57.5 194.5 57.5 194.2 57.6 194 57.6 193.7 57.7 193.4 57.7 193.2 57.7 192.9 57.7 192.7 57.7 192.4 57.8 192.2 57.8 191.9 57.7 191.7 57.7 191.4 57.7 191.1 57.7 190.9 57.7 190.6 57.6 190.4 57.6 190.1 57.5 189.9 57.5 189.6 57.4 189.4 57.4 189.1 57.3 188.8 57.2 188.6 57.2 188.3 57.1 188.1 57 187.8 56.9 187.6 56.8 187.3 56.7 187.1"/>
  <polygon class="n" points="56.7 187.1 65.6 173.7 65.7 173.9 65.8 174.1 65.8 174.3 65.9 174.5 66 174.8 66.1 175 66.1 175.2 66.2 175.4 66.2 175.6 66.3 175.8 66.3 176.1 66.4 176.3 66.4 176.5 66.4 176.7 66.4 176.9 66.5 177.2 66.5 177.4 66.5 177.6 66.5 177.8 66.5 178 66.5 178.2 66.5 178.5 66.5 178.7 66.4 178.9 66.4 179.1 66.4 179.3 66.3 179.5 66.3 179.8 66.2 180 66.2 180.2 66.1 180.4 66.1 180.6 57.2 195.2 57.3 195 57.4 194.7 57.5 194.5 57.5 194.2 57.6 194 57.6 193.7 57.7 193.4 57.7 193.2 57.7 192.9 57.7 192.7 57.7 192.4 57.8 192.2 57.8 191.9 57.7 191.7 57.7 191.4 57.7 191.1 57.7 190.9 57.7 190.6 57.6 190.4 57.6 190.1 57.5 189.9 57.5 189.6 57.4 189.4 57.4 189.1 57.3 188.8 57.2 188.6 57.2 188.3 57.1 188.1 57 187.8 56.9 187.6 56.8 187.3 56.7 187.1"/>
  <polygon class="b" points="57.2 195.2 66.1 180.6 66 180.9 66 181.2 65.9 181.5 65.9 181.8 65.8 182 65.8 182.3 65.8 182.6 65.7 182.8 65.7 183.1 65.7 183.4 65.7 183.6 65.6 183.9 65.6 184.1 65.6 184.4 65.6 184.6 65.6 184.9 65.6 185.1 65.6 185.3 65.6 185.6 65.6 185.8 65.7 186 65.7 186.2 65.7 186.4 65.7 186.7 65.8 186.9 65.8 187.1 65.9 187.3 65.9 187.5 66 187.7 66 187.8 66.1 188 66.2 188.2 57.4 204.1 57.3 203.9 57.2 203.7 57.1 203.5 57.1 203.3 57 203 57 202.8 56.9 202.6 56.9 202.3 56.8 202.1 56.8 201.8 56.8 201.6 56.8 201.3 56.7 201 56.7 200.8 56.7 200.5 56.7 200.2 56.7 199.9 56.7 199.6 56.7 199.3 56.7 199.1 56.8 198.8 56.8 198.4 56.8 198.1 56.9 197.8 56.9 197.5 56.9 197.2 57 196.9 57 196.6 57.1 196.2 57.1 195.9 57.2 195.6 57.2 195.2"/>
  <polygon class="n" points="57.2 195.2 66.1 180.6 66 180.9 66 181.2 65.9 181.5 65.9 181.8 65.8 182 65.8 182.3 65.8 182.6 65.7 182.8 65.7 183.1 65.7 183.4 65.7 183.6 65.6 183.9 65.6 184.1 65.6 184.4 65.6 184.6 65.6 184.9 65.6 185.1 65.6 185.3 65.6 185.6 65.6 185.8 65.7 186 65.7 186.2 65.7 186.4 65.7 186.7 65.8 186.9 65.8 187.1 65.9 187.3 65.9 187.5 66 187.7 66 187.8 66.1 188 66.2 188.2 57.4 204.1 57.3 203.9 57.2 203.7 57.1 203.5 57.1 203.3 57 203 57 202.8 56.9 202.6 56.9 202.3 56.8 202.1 56.8 201.8 56.8 201.6 56.8 201.3 56.7 201 56.7 200.8 56.7 200.5 56.7 200.2 56.7 199.9 56.7 199.6 56.7 199.3 56.7 199.1 56.8 198.8 56.8 198.4 56.8 198.1 56.9 197.8 56.9 197.5 56.9 197.2 57 196.9 57 196.6 57.1 196.2 57.1 195.9 57.2 195.6 57.2 195.2"/>
  <path class="b" d="M13,204.7a15.6,15.6,0,0,1,.8-7.7h2.6a16.8,16.8,0,0,0,.3-8.9c-1.6.3-3.1,1.6-4.8,1.9-1.3-2.5-1.2-6.1-.2-10.2-2.1-2.8-2.9-6.6-1-9.3h2.9c25.4.6,36.9.9,39.9,1.4-.8,2.4-.7,4.5.7,6.2-.8,3.8-1.2,7.1-.4,9h2.9a11.4,11.4,0,0,1,.5,8.1c-.6,3.6-.8,6.7.2,8.9Z"/>
  <path class="k" d="M13,204.7a15.6,15.6,0,0,1,.8-7.7h2.6a16.8,16.8,0,0,0,.3-8.9c-1.6.3-3.1,1.6-4.8,1.9-1.3-2.5-1.2-6.1-.2-10.2-2.1-2.8-2.9-6.6-1-9.3h2.9c25.4.6,36.9.9,39.9,1.4-.8,2.4-.7,4.5.7,6.2-.8,3.8-1.2,7.1-.4,9h2.9a11.4,11.4,0,0,1,.5,8.1c-.6,3.6-.8,6.7.2,8.9Z"/>
  <line class="k" x1="11.7" y1="179.7" x2="54.1" y2="178.2"/>
  <line class="k" x1="16.7" y1="188.1" x2="53.8" y2="187"/>
  <line class="k" x1="16.2" y1="197" x2="57.3" y2="195.2"/>
  <g>
    <path d="M15.9,43.2h-.4a.8.8,0,0,1-.8-.4,1.1,1.1,0,0,1-.1-.8,14.9,14.9,0,0,0,.2-2.1V37.7c.1-3.4.3-6.8.3-10.2a6.6,6.6,0,0,0-1.3-4.4l-.7-.5a.1.1,0,0,1-.1-.1.1.1,0,0,1-.1.1,2.4,2.4,0,0,0-.2.8l-.3,3.5c-.2,2.2-.3,4.4-.6,6.5A12.7,12.7,0,0,1,9,40.7a3.9,3.9,0,0,1-3,1.6H4.6A4.8,4.8,0,0,1,.9,40.8,5.3,5.3,0,0,1-.2,36.9a1.2,1.2,0,0,1,1.3-1.3h.1c.8,0,1,.5,1.2,1a18.4,18.4,0,0,0,1.7,3.8c.1.3.3.5.5.5s.4-.1.7-.4a12.9,12.9,0,0,0,3.6-7.4l.2-1.2a44,44,0,0,0,.5-7.3,1.7,1.7,0,0,0-.1-.7H9.3l-.7.3a5.7,5.7,0,0,0-1.1,1.1l-1,.9a1.3,1.3,0,0,1-.9.4H5.2c-.4-.5,0-1.1.1-1.3a8.9,8.9,0,0,1,3.6-3.3A1.9,1.9,0,0,0,10,19.9c.2-3.5.4-7.2.7-10.9a14.2,14.2,0,0,1,.5-2.2c.1-.5.3-1,.4-1.5a1.7,1.7,0,0,0-.1-1.2A2,2,0,0,0,10,3.2H9.5a10.9,10.9,0,0,0-7.1,6.9c-.1.2-.2.3-.2.5l-.3,1a1.6,1.6,0,0,1-1.1.7,1.6,1.6,0,0,1-.9-.9,1.3,1.3,0,0,1,0-1.2l.2-.5A11.8,11.8,0,0,1,2.9,5.3l.2-.2a10.9,10.9,0,0,1,5-2.9L10.7,2h.6l2.1.3h.4a1.2,1.2,0,0,1,.8.4l.6.7a3.9,3.9,0,0,0,.8,1,2.2,2.2,0,0,0,1.6.8,2.9,2.9,0,0,0,1.6-.6l2.7-2,.5-.4a2.1,2.1,0,0,1,1.2-.5,1.7,1.7,0,0,1,1.1.4h.1v.2a5.4,5.4,0,0,1-3.1,3.2,10,10,0,0,1-3.8.8A11.8,11.8,0,0,1,14.7,6h-.4c-.2,0-.4.2-.6.9v.3a17,17,0,0,0-.4,2.2c-.2,2.9-.3,5.7-.4,8.6v2.2a.8.8,0,0,0,.7.9,4.2,4.2,0,0,1,3.7,3.3c0,.2.2.4.4.6s.3.3.6.5l.9,1c.2.3.3.3.4.3l.2-.2.9-1.3.2-.3c.9-1.4,1.8-2.6,3.5-2.9h.5c1.4,0,4.1.9,4.7,1.9a1.3,1.3,0,0,1,.2.9v1.7c.1,2.2.1,4.5,0,6.8a12.3,12.3,0,0,1-.2,1.9c0,.9-.1,1.8-.1,2.7a5,5,0,0,0,.9,2l.2.4c.1.2.2.3.4.3s.2-.2.3-.4l.2-.5A37.5,37.5,0,0,0,33,35.3a21.7,21.7,0,0,0,.4-2.5V32l.3-3.9c.2-1.6.3-3.2.4-4.9a1.5,1.5,0,0,1,1.5-1.5h.6c1,.3.9,1.1.8,1.6a.4.4,0,0,1-.1.3,2.8,2.8,0,0,1-.1.9c0,.4-.1.8-.1,1.2s-.1,1.2-.2,1.8-.2,3.7-.2,5.6a13,13,0,0,0,.9,4c.2.6.5.9.8.9a1,1,0,0,0,.9-.7,5.2,5.2,0,0,0,.8-2.3,4.3,4.3,0,0,0,0-1.6,4.9,4.9,0,0,1,.1-1.2c.2-3.5.5-6.7.8-9.8.1-1,.6-1.6,1.5-1.6h.2a1.7,1.7,0,0,1,1,.3,1.2,1.2,0,0,1,.2,1,20.9,20.9,0,0,1-.1,2.5c-.1,1.9-.2,3.9-.2,5.9a37.7,37.7,0,0,0,.4,6.7c.2,1.5.8,1.7,1.1,1.7a4.1,4.1,0,0,0,1.9-.8,6.1,6.1,0,0,1,1.4-.7h.2a1,1,0,0,1,.8.4c.1.3.1.9-.2,1.1a6.2,6.2,0,0,1-1.7,1.1,9.9,9.9,0,0,1-3.1.6h0a5.4,5.4,0,0,1-3.2-1.1c0-.1-.2-.1-.3-.1h-.4a5.2,5.2,0,0,1-2.4.5,5.4,5.4,0,0,1-2.5-.6h-.4s-.2,0-.3.4V40c-.3.9-.6,2-1.8,2.2l-1.9.2a3.9,3.9,0,0,1-2.6-.9l-.6-.3-.7.3a5.1,5.1,0,0,1-3.2.8,4.3,4.3,0,0,1-2.4-.5,3.6,3.6,0,0,1-1-1.4,18.6,18.6,0,0,1-.3-8.2l.3-1.5a6.9,6.9,0,0,0,.2-1.3c.1-.3.1-.4,0-.5l-.5-.2H18.1v.3a2.8,2.8,0,0,1-.1.9v4.1l-.3,7C17.5,42.4,17,43.2,15.9,43.2ZM26.6,24.3l-.7.2a8,8,0,0,0-1.5,1.8c-1.7,3-1.8,6.3-1.8,8.9v1.1l.3,2.8a2.8,2.8,0,0,0,.4,1.2.7.7,0,0,0,.6.4c.2,0,.3-.1.4-.3l.4-.5a9.4,9.4,0,0,0,1.4-2.6c.2-1.1.3-2.3.4-3.5V31.2c.2-2,.3-4.1.4-6.1a1,1,0,0,0-.2-.8Z"/>
    <path d="M158.3,39.2h-.9a3.3,3.3,0,0,1-2.4-3.3c0-1.7.1-3.4.2-5.1s.2-2.4.2-3.6V23c-.9.1-1.2.7-1.6,1.3h0a16.8,16.8,0,0,0-2.6,7.8c-.1,1.3-.2,2.5-.4,3.8a5.9,5.9,0,0,0-.2,1.3,1,1,0,0,1-1.2,1h-.5a1,1,0,0,1-.8-.4,1.2,1.2,0,0,1-.1-1l.3-1.8c.3-1.8.7-3.8.9-5.7s.1-2.9.1-4.4V23.6c0-.1-.2-.3-.3-.4a.5.5,0,0,0-.4.3c-1.4,1.3-1.9,3.1-2.5,4.8v.2a30.8,30.8,0,0,0-1.1,7.4c0,.6,0,1.8-1.4,2h-.2a1.1,1.1,0,0,1-.9-.4,1.4,1.4,0,0,1-.2-1.1,66.2,66.2,0,0,0,.6-13.3v-.6h0l-.4.5-1.1,1.5a7.5,7.5,0,0,0-.7,1.2,5.4,5.4,0,0,1-.5,1.1,1,1,0,0,1-.5.4c-.1.1-.2.1-.2.2l-.3.2v-.3c0-.1-.1-.2-.1-.3a2.1,2.1,0,0,1-.3-.7c.3-2.2,1.7-3.6,3.2-5a2.6,2.6,0,0,1,1.5-.7h.3A1.5,1.5,0,0,1,145,22a13.6,13.6,0,0,0,.2,2v.4l.5-.5,1.6-1.9a2.9,2.9,0,0,1,2.1-1.1c.8,0,1.7.5,1.9,2l.3.4v.2c0-.1,0-.1.1-.1l.6-.6.6-.4a16.7,16.7,0,0,1,2.3-1.2h.2a2.7,2.7,0,0,1,1.6.8,2.5,2.5,0,0,1,.6,1.6V31c-.1.7-.1,1.5-.2,2.2s-.1,1.3-.2,2a3.4,3.4,0,0,0,.4,1.5c.2.4.4.7.7.7s.4-.2.6-.6a19.5,19.5,0,0,0,1.9-4.6c.6-2.6,1.1-5.3,1.5-7.8.2-1,.4-2,.5-2.9a1.4,1.4,0,0,1,1.4-1.3h.1c.4,0,.7.1.8.3a1.3,1.3,0,0,1,.2,1.2l-.3,2.9-.3,3.4c-.2,1.6-.3,3.2-.4,4.7l-.2,1.7v.2l1,1.7v.3l.4-.2a4.5,4.5,0,0,0,1-.9,20,20,0,0,0,1.8-3.9c.7-2.6,1.3-5.3,1.9-7.9l.3-1.4c.1-.6.4-1.4,1.4-1.4a.1.1,0,0,1,.1.1,1,1,0,0,1,.8.3c.3.3.2.8.2,1.2l-.3,2.4c-.1,1.3-.3,2.6-.4,4s-.1,4-.1,6v.6a1.3,1.3,0,0,0,.3.5,1.9,1.9,0,0,0,.9-.5,16.3,16.3,0,0,0,3.1-5.8,37.3,37.3,0,0,0,.9-4.6c.1-.7.3-1.3.4-2v-.4c.1-.3.1-.6.2-.9s.7-1.2,1-1.2h0a2.8,2.8,0,0,1,1.9.7,18.9,18.9,0,0,1,3.4,6.1l.6,2V30l.4-1c.4-1,.8-2.1,1.1-3.1a8.3,8.3,0,0,0,.4-1.5,12.1,12.1,0,0,1,.5-1.8,1.9,1.9,0,0,1,1.2-1h.2c.2,0,.9.3,1,.6s.6,1.2,1.1,1.6l.8.7a18.9,18.9,0,0,1,4.1,6.9c1,3.3-.2,6-3.3,7.2a3.2,3.2,0,0,1-1.4.3,6.8,6.8,0,0,1-2.6-.7c-.5-.2-.7-.6-.5-1a.9.9,0,0,1,.8-.4h.2l1.1.3a2.4,2.4,0,0,0,1.8-1,4.1,4.1,0,0,0,1-4.1,33.3,33.3,0,0,0-2.8-5.8c-.4-.6-.6-.6-.6-.6s-.2,0-.5.8l-.7,1.8c-1,2.4-2,5-3.1,7.4a5.1,5.1,0,0,1-4.7,2.9h-1.4c-.2-.1-.8-.2-.8-.8s.4-.8.9-.9a3.2,3.2,0,0,0,2.8-2.9,12.9,12.9,0,0,0-1.9-9.2h-.1v.9a21.7,21.7,0,0,0-.4,2.5,15.9,15.9,0,0,1-4.3,8.9,3.6,3.6,0,0,1-2.8,1.2h0l-1.4-.2c-.5-.1-.8-.6-1.2-1.1v-.2a2,2,0,0,1-.4-.8h-.1l-.8,1a3.2,3.2,0,0,1-2.6,1.8h-.3a3.9,3.9,0,0,1-3.7-2v.2a4.3,4.3,0,0,1-.4.7A3.5,3.5,0,0,1,158.3,39.2Z"/>
    <path d="M227.5,54.1c-1.6,0-2.6-1.1-2.6-3a9.7,9.7,0,0,1,.3-3.3,27.4,27.4,0,0,1,1.5-4.6,15,15,0,0,1,4.1-5.1,6.2,6.2,0,0,0,2-2.3,5.9,5.9,0,0,1-2.5.5h-1.8a1.1,1.1,0,0,1-.8-.2,1.2,1.2,0,0,0-.9-.4,2.7,2.7,0,0,0-1.3.5,4.6,4.6,0,0,1-2.2.6,3.7,3.7,0,0,1-1.8-.4,2.7,2.7,0,0,1-1.3-1.8c0-1.3.1-2.7.2-4s.1-.7.1-1.1a6.8,6.8,0,0,1,.2-1.4v-.4l-.9-.4c-.1,0-.2.6-.2,1.2a19.3,19.3,0,0,1-2.3,7.9,4.3,4.3,0,0,1-3.8,2h-.1a3.5,3.5,0,0,1-3.1-2.4c0-.1-.1-.1-.1-.2a3.4,3.4,0,0,1-2.6,1.4h-.2a3.4,3.4,0,0,1-3.3-3.1,13,13,0,0,1-.1-4.8,13.1,13.1,0,0,0,.1-2.8,1.9,1.9,0,0,1,.2-.7V23.6h0l-.3.2a4.7,4.7,0,0,1-1,1,1.2,1.2,0,0,1-.8.4h-.4a1,1,0,0,1,.1-1.2l.4-.5a7.3,7.3,0,0,1,1.8-1.7,2.5,2.5,0,0,1,1.1-.4,1.8,1.8,0,0,1,.9.4,1.9,1.9,0,0,1,.4,1.5c0,1-.1,2.1-.1,3.2s-.2,2.7-.2,4a16.3,16.3,0,0,0,.3,3.1c0,.3.1.6.1.9l.4.9.4.3a.3.3,0,0,0,.3-.3,20.8,20.8,0,0,0,1-3c.5-2.6,1-5.2,1.4-7.6.1-.6.3-1.3,1.3-1.3h0a1.2,1.2,0,0,1,.9.3,1.7,1.7,0,0,1,.4,1.2v8.9a6.6,6.6,0,0,0,.6,2.2c.1.3.2.5.4.5l.6-.4c1.6-1.4,2-3.4,2.3-5.3a27.4,27.4,0,0,0,.4-5h0a7.1,7.1,0,0,0-.2-2.1,1.6,1.6,0,0,1,.2-1.2,1.2,1.2,0,0,1,.8-.4h.1a2,2,0,0,1,1.3.9l.6,1.2a10.9,10.9,0,0,0,.8,1.5.5.5,0,0,0,.4.3c.1,0,.3-.2.4-.6s1-2.6,1.4-3.5a2.2,2.2,0,0,1,2.1-1.3h.9c.6.1,1,.7,1.4,1.2V22a1.1,1.1,0,0,1,.1,1.1,6.2,6.2,0,0,1-3.2,4,1.8,1.8,0,0,0-.9,1c-.2,1.8-.4,3.8-.5,5.8a2,2,0,0,0,.4.8c0,.1.1.2.1.3l.3-.2.8-.4a25.3,25.3,0,0,0,1.8-3.7c.5-1.2,1-2.5,1.4-3.8l.8-2.1a5.3,5.3,0,0,1,5.2-3.9h.8c.2,0,.4,0,.5.2l.8.7.5.5-.4.2h-.4l-.8.3h-.7c-.6,0-1,.4-1.5.8a9.6,9.6,0,0,0-2.1,4h0a15.8,15.8,0,0,0-1,6,1.5,1.5,0,0,0,.4,1.2h.2l.9-.3a9.1,9.1,0,0,0,2.8-4.4c.3-1.5.7-2.9,1-4.3l.3-1.5a1.5,1.5,0,0,1,1.6-1.4h.3c.4.1.7.2.8.5s.2.9.2,1.3-.5,2.5-.8,3.7a46.4,46.4,0,0,0-.9,9.8v1.9c0,4.9-1.3,8.7-3.9,11.7a5.4,5.4,0,0,1-4.6,2.2Zm5.2-14.4a15.3,15.3,0,0,0-4.7,8.6,10.5,10.5,0,0,0-.1,3.1c0,.2,0,.5.3.5a.5.5,0,0,0,.4-.3,11,11,0,0,0,1.5-1.6c2.1-2.7,2.3-6.1,2.6-9.3v-.9ZM225,22.8l-.6,1.2A1.7,1.7,0,0,0,225,22.8Z"/>
    <g>
      <path d="M65.3,42.1a1.6,1.6,0,0,1-1.7-1.6c-.2-3.4-.3-6.9-.5-10.3V28.4a.8.8,0,0,0-.1-.4.4.4,0,0,1-.1.3l-.6,2.4a19.8,19.8,0,0,1-4.4,9.7,2.8,2.8,0,0,1-2.2,1.3c-1,0-1.8-.7-2.3-2a12.3,12.3,0,0,1-.5-6A1.7,1.7,0,0,1,54,32.3h.1c.6.2.7.9.7,1.3v.2l.3,2.5a19.4,19.4,0,0,0,.2,2.4,1.6,1.6,0,0,0,.3.8c0,.1.1.2.1.3s.4-.3.5-.5a4.5,4.5,0,0,0,1.1-1.4c1.2-3.1,2.2-5.8,3-8.5s.9-4.3,1.2-6.4l.2-1.3c.5-3,.9-5.7,1.1-8.3s.2-3,.3-4.4,0-2,.1-3a29.6,29.6,0,0,1,.5-4.4c0-.4.8-.8,1.2-.9h0c.5,0,1.2.6,1.2,1S66,5.3,65.9,7V8a2,2,0,0,1-.1.7v5.2c-.1,4.7-.1,9.7,0,14.5a52.7,52.7,0,0,0,.4,5.6l.3-.9c.2-1.1.4-2.1.7-3.2s.8-4.1,1.3-6.1,1.8-7.3,2.8-11S72.8,8,73.6,5.6s.8-2.7,1.3-4A1,1,0,0,1,76,.7h.5A1.4,1.4,0,0,1,77.4,2a20.6,20.6,0,0,1-.3,2.6v.5c-.3,1.7-.6,3.4-.8,5.1l-.7,4a4.5,4.5,0,0,0-.1,1.1l-.2,2.4c-.2,2.1-.4,4.3-.5,6.4l-.2,1.5-.6,9.8a4.1,4.1,0,0,0,1.4,3.4h.1l.4-.5A29.4,29.4,0,0,0,78.3,31c.3-2.1.8-4.1,1.2-6.1s.5-2.5.8-3.8a1.1,1.1,0,0,1,1-1h.4c.4.2,1,.8.9,1.3l-.3,3.8-.3,3c-.2,3.1-.4,6.1-.5,9.1a1.8,1.8,0,0,0,.8,1.2,1.3,1.3,0,0,0,.9-.6l.2-.2A16.6,16.6,0,0,0,85,34.4a37.8,37.8,0,0,0,1.6-9.8,9.3,9.3,0,0,1,.5-2.9,2,2,0,0,1,1.3-1.1h.3l.6.2a1.8,1.8,0,0,1,.3,1.1c-.1.6-.1,1.2-.2,1.8s-.1,2.1-.1,3.2c-.1,3.8-.1,6.8-.1,9.5a2.2,2.2,0,0,0,.9,1.3,1.8,1.8,0,0,0,.9-.6c.9-1.5,1.7-2.9,2.4-4.3a38.3,38.3,0,0,0,1.7-4.3,5.4,5.4,0,0,0,.4-2.2c.1-1.3.1-2.6.2-4s.1-4.8.4-7.2S97,8.2,97.6,4.9l.3-2.1a5.5,5.5,0,0,1,1-2.2,2.1,2.1,0,0,1,1.8-.8,2,2,0,0,1,1.9.9,17.5,17.5,0,0,1,1.2,3.2,11.4,11.4,0,0,1,0,5.8c-.2.9-.3,1.8-.5,2.7a39.3,39.3,0,0,1-1,4.4c-.6,2-1.4,4-2.1,6L99,25.9a7.8,7.8,0,0,0-.2,1.4v.3c-.1,2.4-.1,5,0,7.5a8.2,8.2,0,0,0,.6,2.8c.2.6.3.6.4.6l.6-.3a9.6,9.6,0,0,0,3.7-4.9l1.2-3.7.9-2.4a3.9,3.9,0,0,0,.2-1.5V22.4c0-1.6,0-3.4.1-5.1a69.7,69.7,0,0,1,.4-7.9,14.2,14.2,0,0,1,2.3-6.6,2.2,2.2,0,0,1,1.9-1l1.2.2a2,2,0,0,1,1.5,2.2v.6a67.2,67.2,0,0,1-1,7.5c-.5,2.5-1.1,5.1-1.8,7.6s-.7,3.1-1.1,4.6a30.4,30.4,0,0,0-.4,7.4c.1,1,.1,2.2.1,3.2a3.7,3.7,0,0,0,.5,1.7V37c0,.1.2.2.4.2a2,2,0,0,0,1.6-2,10.9,10.9,0,0,0-.1-1.8c0-1.3,0-2.6.1-4a58.7,58.7,0,0,1,1.4-6.8,3.2,3.2,0,0,1,3.4-2.5h.6a1.6,1.6,0,0,1,1.6,1.4,19.1,19.1,0,0,1-2.4,12.3L115.5,36c-.2.3,0,1.1.3,1.7l.3.4a1.5,1.5,0,0,0,1.1-1.1,18.3,18.3,0,0,0,.9-4,36.7,36.7,0,0,1,2.6-8.5,6.7,6.7,0,0,1,.6-1.2c.6-1.2,1.3-2.5,2.9-2.5h.3l.9-.2.4-.2h.8c1,0,1.1.9,1.2,1.2s.1.5.2.5l.6-.2.3-.2a3.7,3.7,0,0,1,1.5-.8,9,9,0,0,1,1.6-.3h.8l.3.7H133c-.1.1-.1.2-.2.2l-.4.6-.8.5a6.2,6.2,0,0,1-3.5,1.5H128c-.5,0-.8.1-.8.8v1.4c-.1,1.9-.2,3.9-.4,5.8a23.7,23.7,0,0,1-.9,4.9,1.2,1.2,0,0,1-1.4,1h-.8a1,1,0,0,1-.8-.4c-.3-.2-.3-.6-.3-1.1l.3-1.5.3-2c.2-2.2.4-4.5.5-6.6l.2-2h-.1l-.4.8a16.3,16.3,0,0,0-1.1,2.3c-.4,1.6-.7,3.3-1.1,4.8s-.3,1.3-.4,2a5.2,5.2,0,0,0-.2,1.1,26.8,26.8,0,0,1-.7,2.7c-.2.5-.7,1.3-1.4,1.4h-.2l-2.1.2a4.6,4.6,0,0,1-2.9-1,1.4,1.4,0,0,0-.9-.2h-2.1c-2.3,0-3.6-1.1-3.8-3.6h0l-.5.6L104.2,38c-1.4,1.5-2.8,2.4-4.4,2.4h-.3A3.3,3.3,0,0,1,96,37.2l-.3-1.9a.6.6,0,0,1-.1-.4L94.3,37A5.2,5.2,0,0,1,90,39.6a5.4,5.4,0,0,1-2.1-.5l-1-.7-.4-.3a4.5,4.5,0,0,1-3.9,2h0c-1.6,0-3-.2-3.8-1.9h-.1l-.3.4a3.2,3.2,0,0,1-3.2,2.1,3.9,3.9,0,0,1-3.3-2,5.7,5.7,0,0,1-.9-2.7c0-1.6,0-3.3.1-4.9s.1-1.2.1-1.8a1.5,1.5,0,0,1,.1-.7l.2-2.4.6-6.1v-.9l-.2.6L71,23.5a57.1,57.1,0,0,0-2,10,40.3,40.3,0,0,1-1.1,5,16,16,0,0,0-.5,2.1,1.8,1.8,0,0,1-1.9,1.5Zm51-19.8a27.1,27.1,0,0,0-1.5,9.3C115.9,29.3,116.9,24.2,116.3,22.3ZM100.8,3.1c-1,2.6-2,11.1-1.5,13.7C100.7,12.8,101.9,8.2,100.8,3.1Zm10.1,1.1a1.9,1.9,0,0,1-.2.7,6.4,6.4,0,0,0-.6,1.8c-.2,1.9-.4,3.9-.5,5.7s-.1,1.3-.1,2v-.6l.9-3.9c.2-1.3.5-2.8.7-4.5a3.1,3.1,0,0,0-.1-.9V4.2Z"/>
      <path d="M88.1,12.6c-.4,0-1.1-.5-1-.9A26.6,26.6,0,0,1,87.8,8a1,1,0,0,1,1-.7H89a1.8,1.8,0,0,1,.5.8v.2c.1.2.1.4.2.6v.3h-.1c0,.2-.1.4-.1.7a13.3,13.3,0,0,1-.5,1.9,1.1,1.1,0,0,1-.9.7Z"/>
      <path d="M85.4,12.4a1,1,0,0,1-1-1.1,4.9,4.9,0,0,1,0-2.4,1.4,1.4,0,0,1,1.1-1.3h0c.8,0,.9.7.9,1.1v.2a1.4,1.4,0,0,1,0,.9v.8c0,.3.1.5-.1.8a1.2,1.2,0,0,1-.9,1Z"/>
    </g>
    <g>
      <path d="M241.8,26.1a2,2,0,0,1-1.4-.8,2.5,2.5,0,0,1-.3-1.5V9.3a19.7,19.7,0,0,1,.4-3.5,1.6,1.6,0,0,1,.9-.9h.1a1.5,1.5,0,0,1,1.1.6,3.8,3.8,0,0,1,.4,1.6V9.3a14.8,14.8,0,0,0,.1,2.1c0,1.3.1,2.6.1,3.9s.2,4.2.2,6.4A15.7,15.7,0,0,1,243,25c-.1.4-.7,1.1-1.2,1.1Z"/>
      <path d="M241.4,34.8a1.8,1.8,0,0,1-1.8-2v-.2h.2l.9-.2h1.5a1,1,0,0,1,.8.9,1.5,1.5,0,0,1-.6,1,1.9,1.9,0,0,1-1,.3Z"/>
    </g>
  </g>
</svg>
