<?xml version="1.0" encoding="utf-8"?>
<!DOCTYPE svg PUBLIC "-//W3C//DTD SVG 1.1//EN" "http://www.w3.org/Graphics/SVG/1.1/DTD/svg11.dtd">
<svg viewBox="77.286 38.914 357.428 467.746" version="1.1" xmlns="http://www.w3.org/2000/svg">
  <path d="M 257.558 75.448 L 291.508 173.119 L 394.89 175.225 L 312.491 237.696 L 342.434 336.668 L 257.558 277.607 L 172.682 336.668 L 202.625 237.696 L 120.226 175.225 L 223.608 173.119 Z M 431 49.629 L 431 495.252 C 431.15 499.549 427.658 503.09 423.359 503 L 88.639 503 C 84.34 503.089 80.85 499.549 81 495.252 L 81 49.629 C 80.859 45.355 84.364 41.853 88.639 42 L 423.359 42 C 427.634 41.852 431.141 45.354 431 49.629 Z M 97 487 L 415 487 L 415 58 L 97 58 Z M 210.715 367 C 213.573 367 216.214 368.525 217.643 371 C 220.722 376.333 216.873 383 210.715 383 L 124.08 383 C 121.222 383 118.581 381.475 117.152 379 C 114.073 373.667 117.922 367 124.08 367 Z M 387.92 403 C 390.778 403 393.419 404.525 394.848 407 C 397.927 412.333 394.078 419 387.92 419 L 124.08 419 C 121.222 419 118.581 417.475 117.152 415 C 114.073 409.667 117.922 403 124.08 403 Z M 387.92 440 C 390.778 440 393.419 441.525 394.848 444 C 397.927 449.333 394.078 456 387.92 456 L 124.08 456 C 121.222 456 118.581 454.475 117.152 452 C 114.073 446.667 117.922 440 124.08 440 Z"/>
</svg>
