<?xml version="1.0" encoding="utf-8"?>
<svg viewBox="143.076 356.316 578.134 291.689" xmlns="http://www.w3.org/2000/svg">
  <path d="M 167.053 361.23 Q 172.153 361.23 176.353 364.98 Q 180.553 368.73 183.553 375.555 Q 186.553 382.38 188.128 392.13 Q 189.703 401.88 189.703 413.73 Q 189.703 439.38 183.553 452.805 Q 177.403 466.23 167.053 466.23 L 145.603 466.23 L 145.603 465.48 Q 146.053 465.33 146.653 464.73 Q 146.953 464.28 147.328 463.305 Q 147.703 462.33 147.703 460.68 L 147.703 366.78 Q 147.703 365.13 147.328 364.155 Q 146.953 363.18 146.653 362.73 Q 146.053 362.13 145.603 361.98 L 145.603 361.23 Z M 175.603 445.38 L 175.603 382.23 Q 175.603 377.88 173.053 374.805 Q 170.503 371.73 166.903 371.58 L 160.603 371.58 L 160.603 455.88 L 166.903 455.88 Q 170.503 455.88 173.053 452.805 Q 175.603 449.73 175.603 445.38 Z M 240.599 460.98 Q 240.899 462.63 241.349 463.53 Q 241.799 464.43 242.249 464.88 Q 242.849 465.48 243.299 465.48 L 243.299 466.23 L 226.949 466.23 L 226.949 465.48 Q 227.249 465.48 227.699 464.88 Q 227.999 464.58 228.224 463.755 Q 228.449 462.93 228.149 461.58 L 225.749 445.83 L 211.799 445.83 L 209.399 460.98 Q 209.099 462.63 209.249 463.53 Q 209.399 464.43 209.699 464.88 Q 210.149 465.48 210.599 465.48 L 210.599 466.23 L 196.799 466.23 L 196.799 465.48 Q 197.399 465.48 197.999 464.88 Q 198.449 464.43 198.899 463.605 Q 199.349 462.78 199.649 461.13 L 212.999 374.13 Q 213.449 371.28 212.699 370.38 Q 212.249 369.78 211.799 369.78 L 211.799 369.03 L 228.449 369.03 L 228.449 369.78 Q 227.999 369.78 227.549 370.38 Q 227.249 370.83 227.024 371.655 Q 226.799 372.48 227.099 374.13 Z M 212.999 437.43 L 224.549 437.43 L 218.699 396.63 Z M 277.393 399.33 Q 277.243 396.48 277.393 392.655 Q 277.543 388.83 277.018 385.38 Q 276.493 381.93 274.768 379.605 Q 273.043 377.28 269.293 377.28 Q 265.393 377.28 263.218 379.83 Q 261.043 382.38 261.043 386.88 Q 261.043 391.23 262.918 396.03 Q 264.793 400.83 267.568 405.855 Q 270.343 410.88 273.643 415.905 Q 276.943 420.93 279.718 425.88 Q 282.493 430.83 284.368 435.555 Q 286.243 440.28 286.243 444.48 Q 286.243 448.68 284.368 452.805 Q 282.493 456.93 279.493 460.23 Q 276.493 463.53 272.743 465.63 Q 268.993 467.73 265.243 467.73 Q 262.093 467.58 259.918 466.53 Q 257.743 465.48 255.343 465.33 Q 254.143 465.33 253.393 465.705 Q 252.643 466.08 252.043 466.38 Q 251.443 466.98 250.993 467.43 L 250.243 467.13 Q 250.843 464.73 251.068 461.43 Q 251.293 458.13 251.068 454.455 Q 250.843 450.78 250.318 447.18 Q 249.793 443.58 248.893 440.58 L 249.793 440.13 Q 251.143 443.73 252.193 446.955 Q 253.243 450.18 254.818 452.58 Q 256.393 454.98 258.868 456.405 Q 261.343 457.83 265.543 457.83 Q 270.193 457.38 272.143 455.43 Q 274.093 453.48 274.093 449.73 Q 274.093 445.68 272.218 441.105 Q 270.343 436.53 267.568 431.73 Q 264.793 426.93 261.493 421.905 Q 258.193 416.88 255.418 411.93 Q 252.643 406.98 250.768 402.18 Q 248.893 397.38 248.893 393.03 Q 248.893 388.68 250.768 384.18 Q 252.643 379.68 255.568 376.005 Q 258.493 372.33 262.093 369.93 Q 265.693 367.53 269.143 367.53 Q 270.643 367.53 271.918 367.98 Q 273.193 368.43 274.393 368.88 Q 275.593 369.33 277.018 369.78 Q 278.443 370.23 280.393 370.23 Q 282.493 370.08 283.918 369.48 Q 285.343 368.88 286.393 367.38 L 286.993 367.83 Q 285.643 369.93 284.143 373.98 Q 282.643 378.03 281.368 382.68 Q 280.093 387.33 279.193 391.83 Q 278.293 396.33 278.293 399.33 Z M 356.541 407.73 L 378.441 407.73 L 378.441 466.23 L 377.391 466.23 L 370.041 456.33 Q 367.791 460.68 363.816 464.205 Q 359.841 467.73 354.591 467.73 Q 349.191 467.73 344.841 464.13 Q 340.491 460.53 337.491 453.705 Q 334.491 446.88 332.841 437.13 Q 331.191 427.38 331.191 415.08 Q 331.191 402.48 332.841 392.28 Q 334.491 382.08 337.566 374.805 Q 340.641 367.53 345.066 363.63 Q 349.491 359.73 354.891 359.73 Q 358.791 359.58 362.691 361.005 Q 366.591 362.43 370.791 362.43 Q 375.141 362.43 377.241 359.43 L 377.991 359.88 Q 376.641 361.98 375.216 365.28 Q 373.791 368.58 372.516 372.48 Q 371.241 376.38 370.266 380.355 Q 369.291 384.33 368.841 387.48 Q 369.741 385.53 371.841 385.53 Q 373.491 385.53 374.616 386.805 Q 375.741 388.08 375.741 389.73 Q 375.741 391.68 374.541 392.805 Q 373.341 393.93 371.691 393.93 Q 369.891 393.93 368.616 392.205 Q 367.341 390.48 367.341 386.13 Q 367.341 382.83 366.516 379.905 Q 365.691 376.98 364.191 374.805 Q 362.691 372.63 360.516 371.355 Q 358.341 370.08 355.641 370.08 Q 351.291 370.08 348.291 373.155 Q 345.291 376.23 345.291 381.03 L 345.291 446.43 Q 345.291 451.68 347.841 454.53 Q 350.391 457.38 355.641 457.38 Q 360.441 457.38 362.991 455.28 Q 365.541 453.18 365.541 446.88 L 365.541 418.23 Q 363.591 419.58 362.016 421.68 Q 360.441 423.78 359.166 426.18 Q 357.891 428.58 356.841 431.13 Q 355.791 433.68 355.041 435.63 L 354.141 435.18 Q 355.191 431.88 355.941 428.055 Q 356.691 424.23 356.991 420.48 Q 357.291 416.73 357.216 413.43 Q 357.141 410.13 356.541 407.73 Z M 425.592 440.28 L 426.492 440.88 Q 425.442 443.88 424.767 447.405 Q 424.092 450.93 423.792 454.38 Q 423.492 457.83 423.642 460.905 Q 423.792 463.98 424.242 466.23 L 392.292 466.23 L 392.292 465.48 Q 392.742 465.48 393.192 464.88 Q 393.492 464.43 393.867 463.605 Q 394.242 462.78 394.242 461.13 L 394.242 374.13 Q 394.242 372.48 393.867 371.655 Q 393.492 370.83 393.192 370.38 Q 392.742 369.78 392.292 369.78 L 392.292 369.03 L 424.092 369.03 Q 423.492 371.28 423.417 374.355 Q 423.342 377.43 423.642 380.88 Q 423.942 384.33 424.617 387.855 Q 425.292 391.38 426.192 394.38 L 425.292 394.98 Q 424.392 392.58 423.117 389.505 Q 421.842 386.43 420.192 383.73 Q 418.542 381.03 416.292 379.155 Q 414.042 377.28 411.192 377.28 L 406.092 377.28 L 406.092 404.58 Q 410.742 404.43 413.367 402.18 Q 415.992 399.93 418.092 394.53 L 418.992 394.98 Q 417.792 398.88 417.567 402.405 Q 417.342 405.93 417.342 409.38 Q 417.342 411.93 417.567 415.38 Q 417.792 418.83 418.992 422.73 L 418.092 423.18 Q 415.992 417.93 413.367 415.68 Q 410.742 413.43 406.092 413.13 L 406.092 457.83 L 411.492 457.83 Q 414.342 457.83 416.517 456.03 Q 418.692 454.23 420.417 451.53 Q 422.142 448.83 423.417 445.755 Q 424.692 442.68 425.592 440.28 Z M 462.839 399.33 Q 462.689 396.48 462.839 392.655 Q 462.989 388.83 462.464 385.38 Q 461.939 381.93 460.214 379.605 Q 458.489 377.28 454.739 377.28 Q 450.839 377.28 448.664 379.83 Q 446.489 382.38 446.489 386.88 Q 446.489 391.23 448.364 396.03 Q 450.239 400.83 453.014 405.855 Q 455.789 410.88 459.089 415.905 Q 462.389 420.93 465.164 425.88 Q 467.939 430.83 469.814 435.555 Q 471.689 440.28 471.689 444.48 Q 471.689 448.68 469.814 452.805 Q 467.939 456.93 464.939 460.23 Q 461.939 463.53 458.189 465.63 Q 454.439 467.73 450.689 467.73 Q 447.539 467.58 445.364 466.53 Q 443.189 465.48 440.789 465.33 Q 439.589 465.33 438.839 465.705 Q 438.089 466.08 437.489 466.38 Q 436.889 466.98 436.439 467.43 L 435.689 467.13 Q 436.289 464.73 436.514 461.43 Q 436.739 458.13 436.514 454.455 Q 436.289 450.78 435.764 447.18 Q 435.239 443.58 434.339 440.58 L 435.239 440.13 Q 436.589 443.73 437.639 446.955 Q 438.689 450.18 440.264 452.58 Q 441.839 454.98 444.314 456.405 Q 446.789 457.83 450.989 457.83 Q 455.639 457.38 457.589 455.43 Q 459.539 453.48 459.539 449.73 Q 459.539 445.68 457.664 441.105 Q 455.789 436.53 453.014 431.73 Q 450.239 426.93 446.939 421.905 Q 443.639 416.88 440.864 411.93 Q 438.089 406.98 436.214 402.18 Q 434.339 397.38 434.339 393.03 Q 434.339 388.68 436.214 384.18 Q 438.089 379.68 441.014 376.005 Q 443.939 372.33 447.539 369.93 Q 451.139 367.53 454.589 367.53 Q 456.089 367.53 457.364 367.98 Q 458.639 368.43 459.839 368.88 Q 461.039 369.33 462.464 369.78 Q 463.889 370.23 465.839 370.23 Q 467.939 370.08 469.364 369.48 Q 470.789 368.88 471.839 367.38 L 472.439 367.83 Q 471.089 369.93 469.589 373.98 Q 468.089 378.03 466.814 382.68 Q 465.539 387.33 464.639 391.83 Q 463.739 396.33 463.739 399.33 Z M 501.892 369.03 Q 505.192 369.03 508.942 371.43 Q 512.692 373.83 515.917 378.18 Q 519.142 382.53 521.317 388.68 Q 523.492 394.83 523.492 402.48 Q 523.492 410.58 521.317 416.805 Q 519.142 423.03 515.917 427.305 Q 512.692 431.58 508.942 433.755 Q 505.192 435.93 501.892 435.93 L 497.242 435.93 L 497.242 460.98 Q 497.242 462.63 497.542 463.53 Q 497.842 464.43 498.142 464.88 Q 498.592 465.48 499.192 465.48 L 499.192 466.23 L 483.292 466.23 L 483.292 465.48 Q 483.742 465.48 484.192 464.88 Q 484.492 464.43 484.867 463.605 Q 485.242 462.78 485.242 461.13 L 485.242 374.13 Q 485.242 372.48 484.867 371.655 Q 484.492 370.83 484.192 370.38 Q 483.742 369.78 483.292 369.78 L 483.292 369.03 Z M 510.442 417.78 L 510.442 387.48 Q 510.442 386.28 509.917 384.705 Q 509.392 383.13 508.342 381.78 Q 507.292 380.43 505.867 379.53 Q 504.442 378.63 502.492 378.63 L 497.242 378.63 L 497.242 426.33 L 503.242 426.33 Q 504.742 426.33 506.017 425.43 Q 507.292 424.53 508.267 423.255 Q 509.242 421.98 509.842 420.48 Q 510.442 418.98 510.442 417.78 Z M 569.139 440.28 L 570.039 440.88 Q 568.989 443.88 568.314 447.405 Q 567.639 450.93 567.339 454.38 Q 567.039 457.83 567.189 460.905 Q 567.339 463.98 567.789 466.23 L 535.839 466.23 L 535.839 465.48 Q 536.289 465.48 536.739 464.88 Q 537.039 464.43 537.414 463.605 Q 537.789 462.78 537.789 461.13 L 537.789 374.13 Q 537.789 372.48 537.414 371.655 Q 537.039 370.83 536.739 370.38 Q 536.289 369.78 535.839 369.78 L 535.839 369.03 L 567.639 369.03 Q 567.039 371.28 566.964 374.355 Q 566.889 377.43 567.189 380.88 Q 567.489 384.33 568.164 387.855 Q 568.839 391.38 569.739 394.38 L 568.839 394.98 Q 567.939 392.58 566.664 389.505 Q 565.389 386.43 563.739 383.73 Q 562.089 381.03 559.839 379.155 Q 557.589 377.28 554.739 377.28 L 549.639 377.28 L 549.639 404.58 Q 554.289 404.43 556.914 402.18 Q 559.539 399.93 561.639 394.53 L 562.539 394.98 Q 561.339 398.88 561.114 402.405 Q 560.889 405.93 560.889 409.38 Q 560.889 411.93 561.114 415.38 Q 561.339 418.83 562.539 422.73 L 561.639 423.18 Q 559.539 417.93 556.914 415.68 Q 554.289 413.43 549.639 413.13 L 549.639 457.83 L 555.039 457.83 Q 557.889 457.83 560.064 456.03 Q 562.239 454.23 563.964 451.53 Q 565.689 448.83 566.964 445.755 Q 568.239 442.68 569.139 440.28 Z M 608.186 369.03 L 621.986 369.03 L 621.986 369.78 Q 621.386 369.78 620.936 370.38 Q 620.636 370.83 620.336 371.655 Q 620.036 372.48 620.036 374.13 L 620.036 466.23 L 610.136 466.23 L 592.736 402.93 L 592.736 460.98 Q 592.736 462.63 593.036 463.53 Q 593.336 464.43 593.636 464.88 Q 594.086 465.48 594.686 465.48 L 594.686 466.23 L 580.886 466.23 L 580.886 465.48 Q 581.336 465.48 581.786 464.88 Q 582.086 464.43 582.461 463.605 Q 582.836 462.78 582.836 461.13 L 582.836 374.13 Q 582.836 372.48 582.461 371.655 Q 582.086 370.83 581.786 370.38 Q 581.336 369.78 580.886 369.78 L 580.886 369.03 L 595.286 369.03 L 610.136 424.23 L 610.136 374.13 Q 610.136 372.48 609.761 371.655 Q 609.386 370.83 609.086 370.38 Q 608.636 369.78 608.186 369.78 Z M 660.582 399.33 Q 660.432 396.48 660.582 392.655 Q 660.732 388.83 660.207 385.38 Q 659.682 381.93 657.957 379.605 Q 656.232 377.28 652.482 377.28 Q 648.582 377.28 646.407 379.83 Q 644.232 382.38 644.232 386.88 Q 644.232 391.23 646.107 396.03 Q 647.982 400.83 650.757 405.855 Q 653.532 410.88 656.832 415.905 Q 660.132 420.93 662.907 425.88 Q 665.682 430.83 667.557 435.555 Q 669.432 440.28 669.432 444.48 Q 669.432 448.68 667.557 452.805 Q 665.682 456.93 662.682 460.23 Q 659.682 463.53 655.932 465.63 Q 652.182 467.73 648.432 467.73 Q 645.282 467.58 643.107 466.53 Q 640.932 465.48 638.532 465.33 Q 637.332 465.33 636.582 465.705 Q 635.832 466.08 635.232 466.38 Q 634.632 466.98 634.182 467.43 L 633.432 467.13 Q 634.032 464.73 634.257 461.43 Q 634.482 458.13 634.257 454.455 Q 634.032 450.78 633.507 447.18 Q 632.982 443.58 632.082 440.58 L 632.982 440.13 Q 634.332 443.73 635.382 446.955 Q 636.432 450.18 638.007 452.58 Q 639.582 454.98 642.057 456.405 Q 644.532 457.83 648.732 457.83 Q 653.382 457.38 655.332 455.43 Q 657.282 453.48 657.282 449.73 Q 657.282 445.68 655.407 441.105 Q 653.532 436.53 650.757 431.73 Q 647.982 426.93 644.682 421.905 Q 641.382 416.88 638.607 411.93 Q 635.832 406.98 633.957 402.18 Q 632.082 397.38 632.082 393.03 Q 632.082 388.68 633.957 384.18 Q 635.832 379.68 638.757 376.005 Q 641.682 372.33 645.282 369.93 Q 648.882 367.53 652.332 367.53 Q 653.832 367.53 655.107 367.98 Q 656.382 368.43 657.582 368.88 Q 658.782 369.33 660.207 369.78 Q 661.632 370.23 663.582 370.23 Q 665.682 370.08 667.107 369.48 Q 668.532 368.88 669.582 367.38 L 670.182 367.83 Q 668.832 369.93 667.332 373.98 Q 665.832 378.03 664.557 382.68 Q 663.282 387.33 662.382 391.83 Q 661.482 396.33 661.482 399.33 Z M 717.485 369.03 Q 716.885 371.28 716.81 374.355 Q 716.735 377.43 717.035 380.88 Q 717.335 384.33 718.01 387.855 Q 718.685 391.38 719.585 394.38 L 718.685 394.98 Q 717.785 392.58 716.51 389.505 Q 715.235 386.43 713.585 383.73 Q 711.935 381.03 709.685 379.155 Q 707.435 377.28 704.585 377.28 L 703.235 377.28 L 703.235 460.98 Q 703.235 462.63 703.535 463.53 Q 703.835 464.43 704.135 464.88 Q 704.585 465.48 705.185 465.48 L 705.185 466.23 L 689.435 466.23 L 689.435 465.48 Q 689.885 465.48 690.335 464.88 Q 690.635 464.43 691.01 463.605 Q 691.385 462.78 691.385 461.13 L 691.385 377.28 L 689.885 377.28 Q 687.035 377.28 684.86 379.155 Q 682.685 381.03 680.96 383.73 Q 679.235 386.43 677.96 389.505 Q 676.685 392.58 675.785 394.98 L 675.035 394.38 Q 675.935 391.38 676.61 387.855 Q 677.285 384.33 677.585 380.88 Q 677.885 377.43 677.735 374.355 Q 677.585 371.28 677.135 369.03 Z" />
  <path d="M 221.72 537.253 L 222.47 537.703 Q 221.12 539.803 219.695 543.103 Q 218.27 546.403 216.995 550.303 Q 215.72 554.203 214.745 558.178 Q 213.77 562.153 213.32 565.303 Q 214.22 563.353 216.32 563.353 Q 217.97 563.353 219.095 564.628 Q 220.22 565.903 220.22 567.553 Q 220.22 569.503 219.02 570.628 Q 217.82 571.753 216.17 571.753 Q 214.37 571.753 213.095 570.028 Q 211.82 568.303 211.82 563.953 Q 211.82 560.653 210.995 557.728 Q 210.17 554.803 208.67 552.628 Q 207.17 550.453 204.995 549.178 Q 202.82 547.903 200.12 547.903 Q 195.77 547.903 193.22 550.978 Q 190.67 554.053 190.82 558.853 L 190.82 624.403 Q 190.82 628.903 193.745 631.603 Q 196.67 634.303 201.92 634.903 Q 206.12 634.903 208.82 633.628 Q 211.52 632.353 213.32 630.253 Q 215.12 628.153 216.395 625.228 Q 217.67 622.303 218.87 618.853 Q 218.12 619.753 216.32 619.753 Q 214.67 619.753 213.47 618.553 Q 212.27 617.353 212.27 615.703 Q 212.27 613.903 213.47 612.703 Q 214.67 611.503 216.47 611.503 Q 218.42 611.503 219.545 612.778 Q 220.67 614.053 220.67 615.853 Q 220.67 618.253 219.17 623.803 Q 217.67 629.353 217.67 638.353 Q 217.67 642.853 218.12 643.903 Q 218.57 644.953 218.72 644.953 L 217.97 645.253 Q 217.52 644.803 216.92 644.203 Q 216.32 643.753 215.42 643.378 Q 214.52 643.003 213.32 643.003 Q 210.77 643.003 208.145 644.278 Q 205.52 645.553 201.32 645.553 Q 189.62 645.703 183.17 632.128 Q 176.72 618.553 176.42 593.353 Q 176.27 580.603 177.77 570.328 Q 179.27 560.053 182.27 552.778 Q 185.27 545.503 189.62 541.528 Q 193.97 537.553 199.37 537.553 Q 203.27 537.403 207.17 538.828 Q 211.07 540.253 215.27 540.253 Q 219.77 540.253 221.72 537.253 Z M 271.867 638.803 Q 272.167 640.453 272.617 641.353 Q 273.067 642.253 273.517 642.703 Q 274.117 643.303 274.567 643.303 L 274.567 644.053 L 258.217 644.053 L 258.217 643.303 Q 258.517 643.303 258.967 642.703 Q 259.267 642.403 259.492 641.578 Q 259.717 640.753 259.417 639.403 L 257.017 623.653 L 243.067 623.653 L 240.667 638.803 Q 240.367 640.453 240.517 641.353 Q 240.667 642.253 240.967 642.703 Q 241.417 643.303 241.867 643.303 L 241.867 644.053 L 228.067 644.053 L 228.067 643.303 Q 228.667 643.303 229.267 642.703 Q 229.717 642.253 230.167 641.428 Q 230.617 640.603 230.917 638.953 L 244.267 551.953 Q 244.717 549.103 243.967 548.203 Q 243.517 547.603 243.067 547.603 L 243.067 546.853 L 259.717 546.853 L 259.717 547.603 Q 259.267 547.603 258.817 548.203 Q 258.517 548.653 258.292 549.478 Q 258.067 550.303 258.367 551.953 Z M 244.267 615.253 L 255.817 615.253 L 249.967 574.453 Z M 310.461 546.853 L 324.261 546.853 L 324.261 547.603 Q 323.661 547.603 323.211 548.203 Q 322.911 548.653 322.611 549.478 Q 322.311 550.303 322.311 551.953 L 322.311 644.053 L 312.411 644.053 L 295.011 580.753 L 295.011 638.803 Q 295.011 640.453 295.311 641.353 Q 295.611 642.253 295.911 642.703 Q 296.361 643.303 296.961 643.303 L 296.961 644.053 L 283.161 644.053 L 283.161 643.303 Q 283.611 643.303 284.061 642.703 Q 284.361 642.253 284.736 641.428 Q 285.111 640.603 285.111 638.953 L 285.111 551.953 Q 285.111 550.303 284.736 549.478 Q 284.361 548.653 284.061 548.203 Q 283.611 547.603 283.161 547.603 L 283.161 546.853 L 297.561 546.853 L 312.411 602.053 L 312.411 551.953 Q 312.411 550.303 312.036 549.478 Q 311.661 548.653 311.361 548.203 Q 310.911 547.603 310.461 547.603 Z M 375.315 546.853 Q 374.715 549.103 374.64 552.178 Q 374.565 555.253 374.865 558.703 Q 375.165 562.153 375.84 565.678 Q 376.515 569.203 377.415 572.203 L 376.515 572.803 Q 375.615 570.403 374.34 567.328 Q 373.065 564.253 371.415 561.553 Q 369.765 558.853 367.515 556.978 Q 365.265 555.103 362.415 555.103 L 361.065 555.103 L 361.065 638.803 Q 361.065 640.453 361.365 641.353 Q 361.665 642.253 361.965 642.703 Q 362.415 643.303 363.015 643.303 L 363.015 644.053 L 347.265 644.053 L 347.265 643.303 Q 347.715 643.303 348.165 642.703 Q 348.465 642.253 348.84 641.428 Q 349.215 640.603 349.215 638.953 L 349.215 555.103 L 347.715 555.103 Q 344.865 555.103 342.69 556.978 Q 340.515 558.853 338.79 561.553 Q 337.065 564.253 335.79 567.328 Q 334.515 570.403 333.615 572.803 L 332.865 572.203 Q 333.765 569.203 334.44 565.678 Q 335.115 562.153 335.415 558.703 Q 335.715 555.253 335.565 552.178 Q 335.415 549.103 334.965 546.853 Z M 420.813 618.103 L 421.713 618.703 Q 420.663 621.703 419.988 625.228 Q 419.313 628.753 419.013 632.203 Q 418.713 635.653 418.863 638.728 Q 419.013 641.803 419.463 644.053 L 387.513 644.053 L 387.513 643.303 Q 387.963 643.303 388.413 642.703 Q 388.713 642.253 389.088 641.428 Q 389.463 640.603 389.463 638.953 L 389.463 551.953 Q 389.463 550.303 389.088 549.478 Q 388.713 548.653 388.413 548.203 Q 387.963 547.603 387.513 547.603 L 387.513 546.853 L 419.313 546.853 Q 418.713 549.103 418.638 552.178 Q 418.563 555.253 418.863 558.703 Q 419.163 562.153 419.838 565.678 Q 420.513 569.203 421.413 572.203 L 420.513 572.803 Q 419.613 570.403 418.338 567.328 Q 417.063 564.253 415.413 561.553 Q 413.763 558.853 411.513 556.978 Q 409.263 555.103 406.413 555.103 L 401.313 555.103 L 401.313 582.403 Q 405.963 582.253 408.588 580.003 Q 411.213 577.753 413.313 572.353 L 414.213 572.803 Q 413.013 576.703 412.788 580.228 Q 412.563 583.753 412.563 587.203 Q 412.563 589.753 412.788 593.203 Q 413.013 596.653 414.213 600.553 L 413.313 601.003 Q 411.213 595.753 408.588 593.503 Q 405.963 591.253 401.313 590.953 L 401.313 635.653 L 406.713 635.653 Q 409.563 635.653 411.738 633.853 Q 413.913 632.053 415.638 629.353 Q 417.363 626.653 418.638 623.578 Q 419.913 620.503 420.813 618.103 Z M 464.36 605.803 Q 465.11 612.553 466.31 619.228 Q 467.51 625.903 469.085 631.228 Q 470.66 636.553 472.685 639.928 Q 474.71 643.303 477.26 643.303 L 477.26 644.053 Q 474.26 644.053 471.635 644.053 Q 469.01 644.053 466.685 643.228 Q 464.36 642.403 462.26 640.303 Q 460.16 638.203 458.285 633.853 Q 456.41 629.503 454.61 622.453 Q 452.81 615.403 451.16 604.903 L 447.86 604.903 L 447.86 638.803 Q 447.86 640.453 448.16 641.353 Q 448.46 642.253 448.76 642.703 Q 449.21 643.303 449.81 643.303 L 449.81 644.053 L 434.06 644.053 L 434.06 643.303 Q 434.51 643.303 434.96 642.703 Q 435.26 642.253 435.635 641.428 Q 436.01 640.603 436.01 638.953 L 436.01 551.953 Q 436.01 550.303 435.635 549.478 Q 435.26 548.653 434.96 548.203 Q 434.51 547.603 434.06 547.603 L 434.06 546.853 L 454.31 546.853 Q 457.16 546.853 460.31 548.878 Q 463.46 550.903 466.01 554.728 Q 468.56 558.553 470.285 563.878 Q 472.01 569.203 472.01 575.803 Q 472.01 586.603 468.485 593.428 Q 464.96 600.253 460.31 603.103 Z M 447.86 556.303 L 447.86 595.453 L 455.81 595.453 Q 457.16 595.453 458.06 594.028 Q 458.96 592.603 458.96 590.503 L 458.96 561.253 Q 458.96 559.153 458.06 557.728 Q 457.16 556.303 455.81 556.303 Z M 511.208 546.853 L 525.008 546.853 L 525.008 547.603 Q 524.408 547.603 523.808 548.203 Q 523.358 548.653 522.908 549.478 Q 522.458 550.303 522.158 551.953 L 508.808 638.803 Q 508.508 640.453 508.658 641.353 Q 508.808 642.253 509.108 642.703 Q 509.558 643.303 510.008 643.303 L 510.008 644.053 L 493.358 644.053 L 493.358 643.303 Q 493.808 643.303 494.258 642.703 Q 494.558 642.253 494.783 641.353 Q 495.008 640.453 494.708 638.803 L 481.208 551.953 Q 480.908 550.303 480.458 549.478 Q 480.008 548.653 479.558 548.203 Q 478.958 547.603 478.358 547.603 L 478.358 546.853 L 494.858 546.853 L 494.858 547.603 Q 494.408 547.753 493.958 548.203 Q 493.058 549.103 493.508 551.503 L 502.958 614.803 L 512.408 551.953 Q 512.858 549.103 512.108 548.203 Q 511.658 547.603 511.208 547.603 Z M 533.608 546.853 L 549.358 546.853 L 549.358 547.603 Q 548.758 547.603 548.308 548.203 Q 548.008 548.653 547.708 549.478 Q 547.408 550.303 547.408 551.953 L 547.408 638.953 Q 547.408 640.603 547.708 641.428 Q 548.008 642.253 548.308 642.703 Q 548.758 643.303 549.358 643.303 L 549.358 644.053 L 533.608 644.053 L 533.608 643.303 Q 534.058 643.303 534.508 642.703 Q 534.808 642.253 535.183 641.353 Q 535.558 640.453 535.558 638.803 L 535.558 551.953 Q 535.558 550.303 535.183 549.478 Q 534.808 548.653 534.508 548.203 Q 534.058 547.603 533.608 547.603 Z M 597.86 618.103 L 598.61 618.703 Q 597.71 621.703 597.035 625.228 Q 596.36 628.753 596.06 632.203 Q 595.76 635.653 595.91 638.728 Q 596.06 641.803 596.51 644.053 L 563.96 644.053 L 563.96 643.303 Q 564.41 643.303 564.86 642.703 Q 565.16 642.253 565.535 641.428 Q 565.91 640.603 565.91 638.953 L 565.91 551.953 Q 565.91 550.303 565.535 549.478 Q 565.16 548.653 564.86 548.203 Q 564.41 547.603 563.96 547.603 L 563.96 546.853 L 579.86 546.853 L 579.86 547.603 Q 579.26 547.603 578.81 548.203 Q 578.36 548.653 578.06 549.478 Q 577.76 550.303 577.76 551.953 L 577.76 635.653 L 583.76 635.653 Q 586.61 635.653 588.785 633.853 Q 590.96 632.053 592.685 629.353 Q 594.41 626.653 595.685 623.578 Q 596.96 620.503 597.86 618.103 Z M 642.602 618.103 L 643.352 618.703 Q 642.452 621.703 641.777 625.228 Q 641.102 628.753 640.802 632.203 Q 640.502 635.653 640.652 638.728 Q 640.802 641.803 641.252 644.053 L 608.702 644.053 L 608.702 643.303 Q 609.152 643.303 609.602 642.703 Q 609.902 642.253 610.277 641.428 Q 610.652 640.603 610.652 638.953 L 610.652 551.953 Q 610.652 550.303 610.277 549.478 Q 609.902 548.653 609.602 548.203 Q 609.152 547.603 608.702 547.603 L 608.702 546.853 L 624.602 546.853 L 624.602 547.603 Q 624.002 547.603 623.552 548.203 Q 623.102 548.653 622.802 549.478 Q 622.502 550.303 622.502 551.953 L 622.502 635.653 L 628.502 635.653 Q 631.352 635.653 633.527 633.853 Q 635.702 632.053 637.427 629.353 Q 639.152 626.653 640.427 623.578 Q 641.702 620.503 642.602 618.103 Z M 686.752 618.103 L 687.652 618.703 Q 686.602 621.703 685.927 625.228 Q 685.252 628.753 684.952 632.203 Q 684.652 635.653 684.802 638.728 Q 684.952 641.803 685.402 644.053 L 653.452 644.053 L 653.452 643.303 Q 653.902 643.303 654.352 642.703 Q 654.652 642.253 655.027 641.428 Q 655.402 640.603 655.402 638.953 L 655.402 551.953 Q 655.402 550.303 655.027 549.478 Q 654.652 548.653 654.352 548.203 Q 653.902 547.603 653.452 547.603 L 653.452 546.853 L 685.252 546.853 Q 684.652 549.103 684.577 552.178 Q 684.502 555.253 684.802 558.703 Q 685.102 562.153 685.777 565.678 Q 686.452 569.203 687.352 572.203 L 686.452 572.803 Q 685.552 570.403 684.277 567.328 Q 683.002 564.253 681.352 561.553 Q 679.702 558.853 677.452 556.978 Q 675.202 555.103 672.352 555.103 L 667.252 555.103 L 667.252 582.403 Q 671.902 582.253 674.527 580.003 Q 677.152 577.753 679.252 572.353 L 680.152 572.803 Q 678.952 576.703 678.727 580.228 Q 678.502 583.753 678.502 587.203 Q 678.502 589.753 678.727 593.203 Q 678.952 596.653 680.152 600.553 L 679.252 601.003 Q 677.152 595.753 674.527 593.503 Q 671.902 591.253 667.252 590.953 L 667.252 635.653 L 672.652 635.653 Q 675.502 635.653 677.677 633.853 Q 679.852 632.053 681.577 629.353 Q 683.302 626.653 684.577 623.578 Q 685.852 620.503 686.752 618.103 Z" />
  <path d="M 408.399 484.398 L 414.839 484.398 L 414.839 484.748 Q 414.559 484.748 414.279 485.028 Q 414.069 485.238 413.859 485.623 Q 413.649 486.008 413.509 486.778 L 407.279 527.308 Q 407.139 528.078 407.209 528.498 Q 407.279 528.918 407.419 529.128 Q 407.629 529.408 407.839 529.408 L 407.839 529.758 L 400.069 529.758 L 400.069 529.408 Q 400.279 529.408 400.489 529.128 Q 400.629 528.918 400.734 528.498 Q 400.839 528.078 400.699 527.308 L 394.399 486.778 Q 394.259 486.008 394.049 485.623 Q 393.839 485.238 393.629 485.028 Q 393.349 484.748 393.069 484.748 L 393.069 484.398 L 400.769 484.398 L 400.769 484.748 Q 400.559 484.818 400.349 485.028 Q 399.929 485.448 400.139 486.568 L 404.549 516.108 L 408.959 486.778 Q 409.169 485.448 408.819 485.028 Q 408.609 484.748 408.399 484.748 Z M 429.266 483.698 Q 431.576 483.698 433.396 485.378 Q 435.216 487.058 436.546 490.103 Q 437.876 493.148 438.576 497.453 Q 439.276 501.758 439.276 507.078 Q 439.276 518.488 436.581 524.438 Q 433.886 530.388 429.266 530.388 Q 424.716 530.388 421.951 524.473 Q 419.186 518.558 419.186 507.078 Q 419.186 501.828 419.921 497.488 Q 420.656 493.148 421.951 490.103 Q 423.246 487.058 425.101 485.378 Q 426.956 483.698 429.266 483.698 Z M 433.256 521.218 L 433.256 492.938 Q 433.256 490.978 432.066 489.613 Q 430.876 488.248 429.266 488.248 Q 427.656 488.248 426.466 489.613 Q 425.276 490.978 425.276 492.938 L 425.276 521.218 Q 425.276 523.178 426.466 524.578 Q 427.656 525.978 429.266 525.978 Q 430.876 525.978 432.066 524.578 Q 433.256 523.178 433.256 521.218 Z M 459.159 484.398 L 465.599 484.398 L 465.599 484.748 Q 465.319 484.748 465.109 485.028 Q 464.969 485.238 464.829 485.623 Q 464.689 486.008 464.689 486.778 L 464.689 529.758 L 460.069 529.758 L 451.949 500.218 L 451.949 527.308 Q 451.949 528.078 452.089 528.498 Q 452.229 528.918 452.369 529.128 Q 452.579 529.408 452.859 529.408 L 452.859 529.758 L 446.419 529.758 L 446.419 529.408 Q 446.629 529.408 446.839 529.128 Q 446.979 528.918 447.154 528.533 Q 447.329 528.148 447.329 527.378 L 447.329 486.778 Q 447.329 486.008 447.154 485.623 Q 446.979 485.238 446.839 485.028 Q 446.629 484.748 446.419 484.748 L 446.419 484.398 L 453.139 484.398 L 460.069 510.158 L 460.069 486.778 Q 460.069 486.008 459.894 485.623 Q 459.719 485.238 459.579 485.028 Q 459.369 484.748 459.159 484.748 Z" />
</svg>
