<svg viewBox="0 0 1864 996" xmlns="http://www.w3.org/2000/svg" xml:space="preserve" style="fill-rule:evenodd;clip-rule:evenodd;stroke-linejoin:round;stroke-miterlimit:2"><path d="M803.375 1098.27V987.2c0-4.066-1.483-7.074-4.448-9.023-2.965-1.948-6.396-2.923-10.294-2.923-4.066 0-7.625.975-10.675 2.923-3.05 1.949-4.575 4.957-4.575 9.023v111.07c0 4.07 1.525 7.08 4.575 9.02 3.05 1.95 6.609 2.93 10.675 2.93 3.898 0 7.329-.98 10.294-2.93 2.965-1.94 4.448-4.95 4.448-9.02Zm-61.254.51V986.438c0-12.878 4.617-22.409 13.852-28.594 9.235-6.185 20.122-9.277 32.66-9.277 12.37 0 23.172 3.092 32.407 9.277 9.234 6.185 13.852 15.716 13.852 28.594v112.342c0 12.71-4.618 22.15-13.852 28.34-9.235 6.18-20.037 9.28-32.407 9.28-12.538 0-23.425-3.1-32.66-9.28-9.235-6.19-13.852-15.63-13.852-28.34ZM962.483 1133.6h-27.195l-42.7-106.75c0 5.76.169 17.67.508 35.71.339 18.05.508 31.98.508 41.81v29.23h-31.262V951.617h27.45l42.7 107.003c0-5.59-.17-17.45-.509-35.58-.338-18.13-.508-32.112-.508-41.94v-29.483h31.008V1133.6ZM1075.33 1106.4v27.2h-81.584V951.617h81.584v27.196h-50.07v47.277h41.18v27.19h-41.18v53.12h50.07ZM1246.39 1133.6h-27.2l-42.7-106.75c0 5.76.17 17.67.51 35.71.34 18.05.51 31.98.51 41.81v29.23h-31.26V951.617h27.45l42.7 107.003c0-5.59-.17-17.45-.51-35.58-.34-18.13-.51-32.112-.51-41.94v-29.483h31.01V1133.6ZM1275.55 951.617h31.517V1133.6h-31.517zM1395.77 1098.02v-39.14h-14.74v-26.69h46.26v66.59c0 12.71-4.62 22.15-13.86 28.34-9.23 6.18-20.03 9.28-32.4 9.28-12.54 0-23.43-3.1-32.66-9.28-9.24-6.19-13.85-15.63-13.85-28.34V986.438c0-12.878 4.61-22.409 13.85-28.594 9.23-6.185 20.12-9.277 32.66-9.277 12.37 0 23.17 3.092 32.4 9.277 9.24 6.185 13.86 15.716 13.86 28.594v29.742h-31.52v-28.726c0-3.897-1.48-6.82-4.45-8.768-2.96-1.949-6.39-2.923-10.29-2.923-4.24 0-7.84.932-10.8 2.796-2.97 1.863-4.45 4.829-4.45 8.895v110.566c0 3.89 1.52 6.82 4.57 8.77 3.05 1.94 6.61 2.92 10.68 2.92 3.9 0 7.33-.98 10.29-2.92 2.97-1.95 4.45-4.88 4.45-8.77ZM1554.35 951.617V1133.6h-31.52v-80.32h-37.11v80.32h-31.51V951.617h31.51v74.473h37.11v-74.473h31.52ZM1632.63 1133.6h-31.26V978.813h-29.74v-27.196h90.48v27.196h-29.48V1133.6ZM1876.88 956.192c-4.06 23.383-10.16 57.488-18.29 102.298-8.14 44.82-12.71 69.86-13.73 75.11h-29.74l-19.06-96.07-19.06 96.07h-29.74c-8.64-46.6-19.4-105.73-32.28-177.408v-4.575h29.48l18.3 122.763 18.56-100.142h29.74l18.3 99.382 18.04-122.003h29.48v4.575ZM1896.46 951.617h31.517V1133.6h-31.517zM2006.26 1133.6h-31.27V978.813h-29.73v-27.196h90.48v27.196h-29.48V1133.6ZM2153.42 951.617V1133.6h-31.52v-80.32h-37.11v80.32h-31.51V951.617h31.51v74.473h37.11v-74.473h31.52Z" style="fill:#fff;fill-rule:nonzero;stroke:#000;stroke-width:5.11px" transform="matrix(1.21 0 0 1.23419 -820.143 -1167.59)"/><g><path d="M790.074 1133.6h-15.669c-1.931-9.22-3.203-15.49-3.818-18.83h-20.013l-3.687 18.83h-15.668v-2.37l21.593-91.9h15.668l21.594 91.9v2.37Zm-22.252-32.78-7.241-36.21c-2.019 9.65-4.433 21.72-7.242 36.21h14.483ZM919.764 1133.6h-16.195v-80.18h-15.405v-14.09h46.873v14.09h-15.273v80.18ZM1030.63 1133.6h-16.73l-10.66-37.52h-7.111v37.52h-16.063v-94.27h25.804c7.11 0 12.71 1.88 16.79 5.66 4.08 3.77 6.12 9.26 6.12 16.46v11.58c0 9.05-3.64 15.67-10.93 19.89 1.41 4.3 3.54 10.7 6.39 19.22 2.85 8.51 4.98 14.88 6.39 19.09v2.37Zm-18.04-60.3v-11.98c0-2.02-.62-3.84-1.85-5.47-1.23-1.62-2.94-2.43-5.13-2.43h-9.481v28.57h9.481c2.19 0 3.9-.9 5.13-2.7 1.23-1.8 1.85-3.8 1.85-5.99ZM1079.34 1039.33h16.326v94.272h-16.326zM1176.25 1133.6h-28.44v-94.27h26.46c6.15 0 11.19 1.71 15.14 5.13 3.95 3.43 5.93 7.9 5.93 13.43v11.59c0 5.53-2.77 10.49-8.3 14.88 7.38 3.6 11.06 9.04 11.06 16.32v11.59c0 6.06-1.93 11.13-5.79 15.21-3.86 4.08-9.22 6.12-16.06 6.12Zm5.53-21.86v-11.58c0-2.46-.7-4.48-2.11-6.06-1.4-1.58-3.47-2.37-6.19-2.37h-9.35v28.18h9.35c2.72 0 4.79-.77 6.19-2.31 1.41-1.53 2.11-3.49 2.11-5.86Zm-2.37-40.42v-10.53c0-5-2.11-7.5-6.32-7.5h-8.96v25.01h8.96c2.1 0 3.68-.68 4.74-2.04 1.05-1.36 1.58-3.01 1.58-4.94ZM1293.03 1039.33v76.23c0 6.58-2.39 11.48-7.17 14.68-4.79 3.21-10.34 4.81-16.66 4.81-6.49 0-12.13-1.6-16.92-4.81-4.78-3.2-7.17-8.1-7.17-14.68v-76.23h16.19v75.84c0 2.02.79 3.53 2.37 4.54 1.58 1.01 3.43 1.51 5.53 1.51 2.11 0 3.93-.5 5.47-1.51 1.53-1.01 2.3-2.52 2.3-4.54v-75.84h16.06ZM1368.61 1133.6h-16.2v-80.18h-15.4v-14.09h46.87v14.09h-15.27v80.18ZM1475 1100.29v15.27c0 6.58-2.4 11.48-7.18 14.68-4.78 3.21-10.38 4.81-16.79 4.81-6.49 0-12.13-1.6-16.92-4.81-4.78-3.2-7.17-8.1-7.17-14.68v-58.19c0-6.68 2.39-11.61 7.17-14.82 4.79-3.2 10.43-4.8 16.92-4.8 6.41 0 12.01 1.6 16.79 4.8 4.78 3.21 7.18 8.14 7.18 14.82v34.36h-31.87v23.57c0 2.1.79 3.66 2.37 4.67 1.58 1.01 3.42 1.52 5.53 1.52 2.02 0 3.8-.51 5.33-1.52 1.54-1.01 2.31-2.57 2.31-4.67v-15.01H1475Zm-31.87-22.65h15.54v-19.88c0-2.11-.77-3.66-2.31-4.67-1.53-1.01-3.31-1.52-5.33-1.52-2.11 0-3.95.51-5.53 1.52s-2.37 2.56-2.37 4.67v19.88ZM1627.99 1107.93v7.63c0 6.58-2.39 11.48-7.18 14.68-4.78 3.21-10.38 4.81-16.78 4.81-6.5 0-12.14-1.6-16.92-4.81-4.79-3.2-7.18-8.1-7.18-14.68v-15.27h16.2v14.88c0 2.02.79 3.53 2.37 4.54 1.58 1.01 3.42 1.51 5.53 1.51 2.02 0 3.84-.5 5.46-1.51 1.63-1.01 2.44-2.52 2.44-4.54v-6.32c0-4.39-.55-7.51-1.65-9.35-1.1-1.84-3.62-3.73-7.57-5.66-7.02-3.43-11.5-5.93-13.43-7.51-5.79-4.56-8.69-11.63-8.69-21.2v-7.76c0-6.68 2.33-11.61 6.98-14.82 4.65-3.2 10.14-4.8 16.46-4.8s11.8 1.6 16.46 4.8c4.65 3.21 6.97 8.14 6.97 14.82v15.4h-16.19v-14.88c0-2.02-.73-3.53-2.17-4.54-1.45-1.01-3.14-1.51-5.07-1.51-1.85 0-3.51.46-5.01 1.38-1.49.92-2.23 2.48-2.23 4.67v6.19c0 4.21.52 7.35 1.58 9.42 1.05 2.06 3.33 3.92 6.84 5.59 3.07 1.41 5.27 2.46 6.59 3.16 1.31.7 3.09 1.71 5.33 3.03 2.24 1.32 3.82 2.57 4.74 3.75.92 1.19 1.97 2.7 3.16 4.54 1.18 1.85 1.97 3.95 2.37 6.32.39 2.37.59 5.05.59 8.04ZM1728.52 1039.33v94.27h-16.33v-41.61h-19.22v41.61h-16.33v-94.27h16.33v38.58h19.22v-38.58h16.33ZM1810.41 1115.3v-57.54c0-2.11-.76-3.66-2.3-4.67-1.54-1.01-3.31-1.52-5.33-1.52-2.11 0-3.95.51-5.53 1.52s-2.37 2.56-2.37 4.67v57.54c0 2.1.79 3.66 2.37 4.67 1.58 1.01 3.42 1.52 5.53 1.52 2.02 0 3.79-.51 5.33-1.52s2.3-2.57 2.3-4.67Zm-31.73.26v-58.19c0-6.68 2.4-11.61 7.18-14.82 4.78-3.2 10.42-4.8 16.92-4.8 6.41 0 12 1.6 16.79 4.8 4.78 3.21 7.17 8.14 7.17 14.82v58.19c0 6.58-2.39 11.48-7.17 14.68-4.79 3.21-10.38 4.81-16.79 4.81-6.5 0-12.14-1.6-16.92-4.81-4.78-3.2-7.18-8.1-7.18-14.68ZM1947.61 1039.33v77.29c0 6.31-2.17 10.97-6.52 13.95-4.34 2.99-9.28 4.48-14.81 4.48-6.76 0-11.81-2.11-15.14-6.32-3.25 4.21-8.21 6.32-14.88 6.32-5.7 0-10.75-1.49-15.14-4.48-4.39-2.98-6.58-7.64-6.58-13.95v-77.29h16.19v77.02c0 1.67.62 2.94 1.84 3.82 1.23.88 2.64 1.32 4.22 1.32 1.58 0 3-.44 4.28-1.32 1.27-.88 1.91-2.15 1.91-3.82v-77.02h16.19v77.02c0 1.67.66 2.94 1.97 3.82a7.68 7.68 0 0 0 4.35 1.32c1.58 0 2.98-.44 4.21-1.32 1.23-.88 1.85-2.15 1.85-3.82v-77.02h16.06Z" style="fill-rule:nonzero;stroke:#000;stroke-width:3.41px" transform="matrix(1.21 0 0 1.23419 -689.033 -407.045)"/></g><g><path d="M1374.71 1665.15v-137.93h-189.85v137.93h-117.17v-281.8c0-66.25 18.17-118.28 54.51-156.1 36.34-37.82 89.11-56.73 158.33-56.73 69.71 0 122.85 18.91 159.44 56.73 36.58 37.82 54.88 89.85 54.88 156.1v281.8h-120.14Zm0-281.8c0-33.62-7.54-58.95-22.62-76.01-15.08-17.06-39.18-25.58-72.3-25.58-32.63 0-56.61 8.52-71.94 25.58-15.32 17.06-22.99 42.39-22.99 76.01v40.05h189.85v-40.05ZM1583.09 1665.15v-484.99h230.64c47.46 0 83.05 11.99 106.78 35.96 23.74 23.98 35.6 54.51 35.6 91.59 0 23.73-5.07 44.62-15.2 62.66-10.14 18.05-24.6 32.02-43.38 41.9v1.49c25.7 9.39 45.6 24.35 59.69 44.86 14.09 20.52 21.14 45.12 21.14 73.79 0 19.28-2.97 36.96-8.9 53.02-5.93 16.07-14.96 30.04-27.07 41.9-12.11 11.87-27.31 21.14-45.61 27.81-18.29 6.68-39.55 10.01-63.77 10.01h-249.92Zm120.14-198v86.77h105.31c17.3 0 29.41-4.21 36.33-12.61 6.92-8.41 10.39-18.54 10.39-30.41 0-11.86-3.84-22.12-11.5-30.77-7.66-8.65-19.4-12.98-35.22-12.98h-105.31Zm0-175.76v79.36h90.47c15.82 0 27.07-3.84 33.75-11.5 6.67-7.66 10.01-16.93 10.01-27.81 0-11.37-2.97-20.89-8.9-28.55-5.94-7.66-17.55-11.5-34.86-11.5h-90.47ZM2047.33 1665.15v-484.99h230.63c47.46 0 83.05 11.99 106.79 35.96 23.73 23.98 35.59 54.51 35.59 91.59 0 23.73-5.07 44.62-15.2 62.66-10.14 18.05-24.6 32.02-43.38 41.9v1.49c25.71 9.39 45.6 24.35 59.69 44.86 14.09 20.52 21.14 45.12 21.14 73.79 0 19.28-2.97 36.96-8.9 53.02-5.93 16.07-14.95 30.04-27.07 41.9-12.11 11.87-27.31 21.14-45.61 27.81-18.29 6.68-39.55 10.01-63.77 10.01h-249.91Zm120.13-198v86.77h105.31c17.3 0 29.41-4.21 36.33-12.61 6.93-8.41 10.39-18.54 10.39-30.41 0-11.86-3.83-22.12-11.5-30.77-7.66-8.65-19.4-12.98-35.22-12.98h-105.31Zm0-175.76v79.36h90.47c15.83 0 27.07-3.84 33.75-11.5 6.67-7.66 10.01-16.93 10.01-27.81 0-11.37-2.97-20.89-8.9-28.55s-17.55-11.5-34.86-11.5h-90.47ZM2806.71 1665.15v-137.93h-189.85v137.93h-117.17v-281.8c0-66.25 18.17-118.28 54.51-156.1 36.33-37.82 89.11-56.73 158.33-56.73 69.71 0 122.85 18.91 159.44 56.73 36.58 37.82 54.87 89.85 54.87 156.1v281.8h-120.13Zm0-281.8c0-33.62-7.54-58.95-22.62-76.01-15.08-17.06-39.18-25.58-72.31-25.58-32.63 0-56.6 8.52-71.93 25.58-15.33 17.06-22.99 42.39-22.99 76.01v40.05h189.85v-40.05Z" style="fill-rule:nonzero;stroke:#000;stroke-width:3.68px" transform="matrix(1 0 0 1.24932 -1065.61 -1270.37)"/></g></svg>
