<svg xmlns="http://www.w3.org/2000/svg" viewBox="0 0 603.9 275.5"><title>Zeichenfläche 1</title><path d="M602.5,120.1c.2,1.7.3,3.2.4,4.8l-7.1.8-29.2,2.9L533.7,132l-25.4,2.4L483.2,137l-21.3,2.1-21.3,2.2L423.2,143l-17.4,1.7-17.3,1.7-17.8,1.8-17.2,1.7-17.8,1.8-17.2,1.7-17.8,1.8L283.5,157l-17.8,1.7-17.2,1.8-17.8,1.7L213.4,164l-17.8,1.7-17.2,1.8-17.8,1.8L143.4,171l-17.8,1.8-17.2,1.7-17.8,1.8L73.3,178l-17.8,1.8-17.2,1.7-17.8,1.8-7.1.6-.4-4.8,294.6-29.5Z"/><path d="M253,234.8l-10.6,1.4c-.1-1-.2-1.8-.3-2.6-.6-7.2-1.1-14.4-2.7-21.4a42.1,42.1,0,0,0-2-6.3,7.4,7.4,0,0,0-1.6-2.7,3.2,3.2,0,0,0-5.3-.1,7.9,7.9,0,0,0-1.6,3,25.4,25.4,0,0,0-.9,5.4,90.6,90.6,0,0,0,1,18c.3,2.8.8,5.7,1.2,8.5-1.2.6-9.4,1.6-12.1,1.3,0-.7-.1-1.4-.1-2.2a120.3,120.3,0,0,0-1.6-20.7,33.3,33.3,0,0,0-2.8-9.3,10.1,10.1,0,0,0-2.2-2.9,2.9,2.9,0,0,0-3.9-.3,13.6,13.6,0,0,0-2.5,2.2l-4.4,7.3a4.5,4.5,0,0,0-.2,2.3c.4,5.7.9,11.4,1.3,17.1.3,3.2.5,6.4.8,9.9-4.2.4-8.2.7-12.4.8l-6.3-52.9c3.9-1.3,7.9-2.3,12.1-3.4l1.5,5.9,1.4-1.6a31.1,31.1,0,0,1,6.2-5.3c4.6-2.6,8.7-2.2,12.4,1.6a47,47,0,0,1,3.9,5.2,14.2,14.2,0,0,1,1.3,2.2l1.2-2.2c1.8-3.2,4.3-5.8,8-6.9a16.6,16.6,0,0,1,10.1.4,10,10,0,0,1,5.1,4.4,28.3,28.3,0,0,1,3.9,10.1,108.3,108.3,0,0,1,1.9,12.9c.3,6.3.3,12.7.4,19A13.7,13.7,0,0,1,253,234.8Z"/><path d="M352.3,136l-12.3.9-6.3-53.1,12.1-3.4,1.4,5.8,1.2-1,4.2-4.1a25.6,25.6,0,0,1,3.5-2.2,8.8,8.8,0,0,1,10.3,1.3,23.2,23.2,0,0,1,4.9,6.3l1.2,2c.5-.9.9-1.6,1.2-2.3,4.2-7.7,11.6-8.6,18.2-6.4a9.6,9.6,0,0,1,4.8,4.1,25.2,25.2,0,0,1,3.3,7.5,57.8,57.8,0,0,1,2.6,15.5c.4,6.4.3,12.9.5,19.4a12.8,12.8,0,0,1-.2,1.7l-10.5,1.5c-.2-.9-.3-1.7-.4-2.4-.7-6-1.2-12-2.1-18a61.9,61.9,0,0,0-2.3-9.2,12.2,12.2,0,0,0-2-3.5,3,3,0,0,0-5-.2,8.8,8.8,0,0,0-1.9,3.4,27.1,27.1,0,0,0-.9,5.7,113.7,113.7,0,0,0,1.4,20.2c.3,1.9.6,3.9.9,6.2l-12,1.2c-.1-.9-.1-1.6-.2-2.4-.3-5.2-.5-10.5-.9-15.7a44.3,44.3,0,0,0-2.7-12.5,20.2,20.2,0,0,0-2.2-4.1c-1.6-2-3.5-2.1-5.5-.5a10.2,10.2,0,0,0-1.8,1.8l-2.3,3.4a12.6,12.6,0,0,0-2.1,9.1c.9,7.7,1.3,15.4,1.9,23.1Z"/><path d="M184,241.7l-10.6,1.4c-.2-2.2-.4-4.2-.6-6.1a113.5,113.5,0,0,0-2.7-19.3,37.1,37.1,0,0,0-2.4-6.3c-.7-1.5-1.7-2.8-3.7-2.7s-2.9,1.5-3.7,3.1a20.9,20.9,0,0,0-1.4,9.3c.1,4.3.4,8.6.8,12.8s1,7.4,1.5,11.4l-12,1.2a17,17,0,0,1-.1-2.2,155.7,155.7,0,0,0-1.2-18.1,42.8,42.8,0,0,0-2.8-11.2,14.8,14.8,0,0,0-2.3-3.6c-1.4-1.5-2.9-1.5-4.6-.4a14.2,14.2,0,0,0-2.5,2.4c-1.4,2.3-2.7,4.6-4,6.9a3,3,0,0,0-.3,1.9l1.8,23.4q.2,1.8.3,3.9c-4.1.6-8.2.7-12.4.9l-6.3-53,12.1-3.4,1.5,6,1.7-1.8a23.8,23.8,0,0,1,6.2-5.2c4.4-2.5,8.4-2.1,11.9,1.5a60.7,60.7,0,0,1,4.3,5.7,14.2,14.2,0,0,1,1.1,1.8l1.1-1.9c4.1-7.9,11.4-8.9,18.2-6.7,2.3.7,3.8,2.4,5.1,4.4a28.1,28.1,0,0,1,4,10.4,98.2,98.2,0,0,1,1.8,13.1c.4,6.2.3,12.3.4,18.5A15.4,15.4,0,0,1,184,241.7Z"/><path d="M89.8,65.9,75,69.1c-2.7-22.3-5.3-44.5-8-66.9L79.7.9c1.8,11.6,3.6,23,5.5,34.7l11.7-3.7c-.2-1.8-.5-3.4-.6-5-.2-3.7-.5-7.3-.6-11A15.4,15.4,0,0,1,99.9,5.3c2.9-3.4,6.8-4.4,11.1-4.2s10.6,3,15.5,6.3l-8.9,8.4-1.5-.8a11.1,11.1,0,0,0-1.9-.9c-3.8-1.6-6.1-.5-7.1,3.6a26.7,26.7,0,0,0,.1,10.9L118.9,25c1.2,3.3,2.3,6.5,3.4,10l-12.2,4.4c3,9.5,6,18.9,9.1,28.5l-14,6.6c-2.1-10.4-4.2-20.6-6.3-31.1L88,47.1l-1.3-3.6h-.3C87.5,50.9,88.7,58.2,89.8,65.9Z"/><path d="M30.7,14.6H46l3,59.2c-5.2.6-10.2,1.2-15.5,1.5-.5-8.1-1-16.1-1.4-24.2L21.4,52.2l1.5,24.2c-4.9.7-9.8,1-14.9,1.6L1.1,15.2c1.7-.6,14.4-1.2,17.2-.9.6,7.9,1.3,15.8,2,24,3.9-.2,7.6-.7,11.6-1.1C31.5,29.7,31.1,22.3,30.7,14.6Z"/><path d="M175.3,153l-14.9,1.4c-2.4-21.1-4.7-42-7-63.1l17.2-.8c.7,8.1,1.4,16,2,24.3l11.5-1.1c.3-3.8-.2-7.5-.4-11.2s-.4-7.4-.5-11c1.5-.5,12.8-.6,15.2-.1q1.5,29.3,3,58.9l-15.5,1.6c-.5-8.1-1-16.1-1.5-24.3l-10.6,1C174.1,136.7,174.9,144.7,175.3,153Z"/><path d="M89,254.3a42.6,42.6,0,0,1-10-1.6,17.3,17.3,0,0,1-10.9-10.1,35.8,35.8,0,0,1-2.2-10.2A39.7,39.7,0,0,1,71,208.6c4.1-7.1,10.1-11.1,18.4-11.6a33,33,0,0,1,9.4.5,16,16,0,0,1,11.2,8,56.8,56.8,0,0,1,6.3,18.3,30.5,30.5,0,0,1-.2,12.4c-2.3,9.4-8.6,14.8-17.8,16.8C95.2,253.7,92.1,253.9,89,254.3Zm14.2-28.5A15.5,15.5,0,0,0,94.1,213c-3.7-1.7-7-.9-9.6,2.2a18.4,18.4,0,0,0-4.2,8.2,14.1,14.1,0,0,0-.3,5c.3,3.9,2.4,6.9,5,9.6s6.7,3.7,10.4,1.4S102.7,231.8,103.2,225.8Z"/><path d="M310.7,229.4c-2.2-17.8-4.4-35.4-6.6-53.1l13.4-3.5c.5,1.9,1,3.8,1.6,5.8l1.9-1.4c2.9-1.9,5.7-3.9,8.7-5.5a18.5,18.5,0,0,1,5.6-1.9c4.3-.9,7.8.4,10.2,4A39.9,39.9,0,0,1,349,181a67.3,67.3,0,0,1,3.8,17.8c.7,7.4,1.1,14.8,1.6,22.3v2.2l-14.7,2a9.3,9.3,0,0,1-.2-1.4c.1-5.5.3-11,.2-16.5a38.9,38.9,0,0,0-1.5-10.7,21.7,21.7,0,0,0-1.7-4.2,9.5,9.5,0,0,0-2.1-2.4,3.6,3.6,0,0,0-4.6-.3,11,11,0,0,0-3.1,2.6c-1.6,2.2-3,4.5-4.5,6.8a3.3,3.3,0,0,0-.3,2c.5,6.9,1.1,13.8,1.7,20.7.1,2.1.3,4.3.4,6.5Z"/><path d="M551.4,111.8l-14.8,2.1v-1.8c.1-5.7.3-11.4.1-17.1a68.5,68.5,0,0,0-1.6-10.1,13.5,13.5,0,0,0-2.2-4.7c-2.1-3-4.8-3.2-7.5-.9s-4.6,5.6-6.3,8.8a3.1,3.1,0,0,0-.3,1.3c.4,5,.9,10.1,1.3,15.1l.9,11.1v1.3c-4.4.6-8.8.7-13.3,1.1-2.2-17.7-4.4-35.3-6.5-53.1l13.3-3.5c.6,2,1.1,3.8,1.6,5.8l1.9-1.4a41.9,41.9,0,0,1,10.3-6.3,22.2,22.2,0,0,1,5.8-1.3,8.4,8.4,0,0,1,8.4,4.2,37.7,37.7,0,0,1,3.4,7c2.2,5.5,3.1,11.3,3.9,17.2a218.4,218.4,0,0,1,1.6,22.9Z"/><path d="M452.4,69.7l13.2-3.4,1.6,5.8a15.8,15.8,0,0,1,1.8-1.3c3-2,5.9-4,9-5.7a18.1,18.1,0,0,1,6.1-1.9,8.8,8.8,0,0,1,9.4,4,35.2,35.2,0,0,1,3.4,6.7,68.6,68.6,0,0,1,3.8,16.7,195.5,195.5,0,0,1,1.7,24.2v1.9l-14.7,2.1v-2.2c.1-4.1.3-8.3.3-12.4a52.7,52.7,0,0,0-1.5-13.1,32.6,32.6,0,0,0-1.5-4.4,8.1,8.1,0,0,0-1.7-2.4c-1.9-2-3.9-2.2-6.2-.6a17.1,17.1,0,0,0-2,1.8,24.3,24.3,0,0,0-2,2.5c-3.4,4.8-3.3,5-2.8,11s1.2,13.8,1.7,20.7v2.2l-12.8.9C458.3,121.4,452.6,72.5,452.4,69.7Z"/><path d="M436.1,95.7c-.3-3.2-.5-6.2-1-9.2a3.9,3.9,0,0,0-2.8-3c-4.6-1.7-8-1-10.8,2.4a33.7,33.7,0,0,0-2.1,3.1c-.6,1-1,2.1-1.7,3.3l-14-.9a4.1,4.1,0,0,1,.1-1.2A48.7,48.7,0,0,1,407.7,80c3.5-6.6,9.2-10.1,16.6-10.9a29,29,0,0,1,9.3.1A19.6,19.6,0,0,1,446,77.6a38.3,38.3,0,0,1,5,12.2,87.8,87.8,0,0,1,2.2,16.1l.9,14.7v2.3l-13.9,2.2c-.2-.9-.4-1.5-.6-2.3h-2.7a66.1,66.1,0,0,1-14.7-.9,22.4,22.4,0,0,1-6.7-2.4,10.2,10.2,0,0,1-5.3-7.3,19.7,19.7,0,0,1-.1-6.4,10.8,10.8,0,0,1,7.1-8.8,29.9,29.9,0,0,1,16.2-1.7l1.7.3Zm1.1,8.5a20.7,20.7,0,0,0-8.6,0,9,9,0,0,0-2.3.8c-2.2,1.2-2.5,3.5-.5,5.1a8.7,8.7,0,0,0,2.7,1.4c2.3.6,4.6,1.1,7,1.5a20,20,0,0,0,2.8.3C437.9,110.1,437.6,107.2,437.2,104.2Z"/><path d="M167.2,38.8,182,35.1a4.7,4.7,0,0,1,0,1.2,43.5,43.5,0,0,1-4.3,13.2C173,58,165.3,61.8,155.4,61l-3.4-.5c-6-.9-10.3-4.3-13.5-9.3a31.5,31.5,0,0,1-4-11.1,45.8,45.8,0,0,1,.2-19.5A22.4,22.4,0,0,1,146.3,5.4c3.6-2,7.4-3.5,11.7-3.4a18.8,18.8,0,0,1,14.4,7.2,34.7,34.7,0,0,1,6.1,12.5c.5,1.7.8,3.5,1.3,5.4L146.1,39.6a10.3,10.3,0,0,0,9.5,8C161.5,48,164.4,45.7,167.2,38.8Zm-.6-17.4c-2-3-4.3-5.1-7.9-5.4-6.4-.4-11.4,3.7-12.4,10.3a20,20,0,0,0-.3,3Z"/><path d="M270.2,210.7c2.2,6.9,9.5,10,15.7,6.8a9.2,9.2,0,0,0,4.7-5.7,3.3,3.3,0,0,1,2.8-2.5l12.7-3.2c0,.5.1.9.1,1.2a41.7,41.7,0,0,1-5.1,14.6,20.6,20.6,0,0,1-13.2,9.6,28.4,28.4,0,0,1-15.3-.9c-4.6-1.6-7.9-4.9-10.3-9.1a31,31,0,0,1-3.6-10.6,47.3,47.3,0,0,1,.1-19.1,22.6,22.6,0,0,1,11.6-15.3c3.6-2,7.3-3.7,11.6-3.5,6,.3,10.9,2.5,14.7,7.2a32.3,32.3,0,0,1,5.6,11.3c.7,2.1,1.1,4.3,1.7,6.6Zm20.5-18.3c-3.7-6-9.4-6.6-14.4-4s-7.1,8.7-5.6,11.7Z"/><path d="M252.3,111.6,218.7,124c.4,3.8,4.3,7.4,8.5,8a10.7,10.7,0,0,0,8-1.7c2.5-1.6,3.5-4.2,4.4-7l14.8-3.7a7.4,7.4,0,0,1,0,1.5,41.1,41.1,0,0,1-4.4,13.2c-4.7,8.3-12.4,12-22,11.1l-3.5-.4c-5.9-.9-10.2-4.2-13.4-9.1a32,32,0,0,1-4.2-11.9,49,49,0,0,1,.1-18.3,23.2,23.2,0,0,1,12.9-16.4c3.2-1.6,6.5-2.9,10.3-2.8a18.9,18.9,0,0,1,15.1,7.6,35.2,35.2,0,0,1,6,13.4C251.7,108.8,251.9,110.1,252.3,111.6Zm-13.2-5.8c-2.3-3.3-4.9-5.4-8.9-5.3-6.4.1-11.1,4.7-11.6,11.3v1.9Z"/><path d="M123.3,132.7a4.2,4.2,0,0,1-.1,1.3,38.8,38.8,0,0,1-4.8,14c-3.4,5.7-8.2,9.3-14.8,10.3a27.7,27.7,0,0,1-14-1.1,19.9,19.9,0,0,1-10.2-9,34.6,34.6,0,0,1-3.7-10.8,46.3,46.3,0,0,1,.2-18.9,23.1,23.1,0,0,1,12-15.7c3.9-2.1,8-3.6,12.6-3.1a18.6,18.6,0,0,1,11.3,5,7.5,7.5,0,0,1,1.5,1.6c4.4,5.3,6.4,11.6,7.7,18.4L87.4,137.2a10.3,10.3,0,0,0,9.7,8c4.6.2,8.9-1,11.3-8.7C113.2,135.2,118.1,133.9,123.3,132.7Zm-35.9-6.1c2.2-.4,19.2-7,20.3-8-2.1-2.9-4.7-5.1-8.5-5s-8.7,2.3-10.7,7A12.1,12.1,0,0,0,87.4,126.6Z"/><path d="M63.7,244.6l-11.3,9.8L33.9,232.3a34.9,34.9,0,0,0,.9,8.6c.5,2.8,1,5.6,1.6,8.4l2.2,8.7-14.7,3.2a482.5,482.5,0,0,1-9.6-68.5c1.5-.5,13.8-.5,16.4-.1-.1,9.2.5,18.3,1.3,27.4h.5l6.7-19c5.8,1.6,11.4,3.4,17.3,5.2L43.4,225.8c3.3,3.2,6.7,6.2,10,9.3Z"/><path d="M299.9,138.6l-7.8-66.4h1.4a104.9,104.9,0,0,1,22,5.8,38.7,38.7,0,0,1,8.7,4.7,18.1,18.1,0,0,1,7.4,11.2,60.2,60.2,0,0,1,1.4,11.2c0,7-2.3,13-7.8,17.4-3.5,2.7-7.1,5.5-10.9,7.9s-8.4,5-12.7,7.4Zm10.6-25.9a15.8,15.8,0,0,0,6.8-4.6c3.3-4,2.7-9.2-1.3-12.6a17.9,17.9,0,0,0-6.1-3.2l-1.5-.3C309.1,98.9,309.8,105.7,310.5,112.7Z"/><path d="M20.8,274.9l-.3-4.9,337.4-33.7c.1,1,.2,1.7.3,2.5a16.2,16.2,0,0,1,.1,2.3c-22.5,2.4-45,4.6-67.5,6.8l-67.5,6.8-67.4,6.7-67.5,6.8Z"/><path d="M591.1,69c-2.8-.7-5.2-1.3-7.7-1.7a14.6,14.6,0,0,0-9.2.7,7.9,7.9,0,0,0-2.3,1.4,3.1,3.1,0,0,0,.1,4.8,10,10,0,0,0,3.1,1.9l9.2,3.1a65,65,0,0,1,6.2,2.2c6.8,2.8,8.9,8.1,7.8,14.8A20.3,20.3,0,0,1,580.1,113c-6.6.7-13.1-.2-19.5-1.4l-6.5-1.4a3.7,3.7,0,0,1-1.1-.4c1.8-4.9,3.5-9.7,5.3-14.8l2.4,1.2c4.4,2,8.9,3.9,13.8,4.6,3.2.5,6.3.3,8.9-2.1a6.4,6.4,0,0,0,1.3-1.5c1-1.7.8-3.5-1-4.5a13,13,0,0,0-4.2-1.8c-2.7-.7-5.4-1-8-1.7a31.8,31.8,0,0,1-6.7-2.5,20.1,20.1,0,0,1-9.9-11.5,11.2,11.2,0,0,1,1.5-11.1,20.9,20.9,0,0,1,11.9-7.8c5.5-1.6,11.2-1.8,16.9-1.8,2.4-.1,4.8.1,7.2.2l2.2.3C593.4,59.8,592.3,64.4,591.1,69Z"/><path d="M11.5,172.1c1.2-24.3,2.4-48.2,3.6-72.4l4.6.9a69.3,69.3,0,0,1,14.1,4.2,51.2,51.2,0,0,1,5.2,2.7c5,2.9,7.6,7.4,8.4,13.1a29.7,29.7,0,0,1-4.8,20.9,67.3,67.3,0,0,1-6.2,7.9c-7.3,8.1-15.5,15.2-23.8,22.1Zm16.2-53.3c-.7,5.2-1.3,18.6-.8,19.7a27,27,0,0,0,6.4-5.2,17.4,17.4,0,0,0,2.4-3.6,6,6,0,0,0-.8-6.4C33.1,121,30.6,119.8,27.7,118.8Z"/><path d="M274.6,142.1l-15.5,2.1c-1.4-17.5-2.9-34.8-6.1-52.2l15.1-2.6c.1,1.5.2,2.9.3,4.6l1.6-1a43.6,43.6,0,0,1,18.4-7.4l1.5-.2h1.2c.8,4.2,1.7,8.4,2.6,12.6-2.7.5-5.1.8-7.5,1.4a26.3,26.3,0,0,0-8,3.2,11.1,11.1,0,0,0-5.5,8.6,51.4,51.4,0,0,0-.1,13c.5,5.6,1.3,11.1,2,16.7Z"/><path d="M203.1,73.3,6,93l-.4-4.5c.2-.1.2-.2.2-.2H6a10.1,10.1,0,0,1,1.7-.3L202.6,68.4C202.8,70,203,71.5,203.1,73.3Z"/><path d="M55.5,74.2c-.3-6.8-.5-13.2-1.1-19.5S52.8,42,51.9,35.4l16.4-3.8c.4,13.4.8,26.6,1,39.9Z"/><path d="M52.4,127.1,69,123.3c.5,13.4.8,26.5,1,39.8l-14,2.7A202,202,0,0,0,52.4,127.1Z"/><path d="M195.4,68l-6.3-2.4,3.8-6.4L188.4,58a3.4,3.4,0,0,1-2.3-1.9,8.2,8.2,0,0,1,1.6-9.7A7.7,7.7,0,0,1,201,51.8a15.3,15.3,0,0,1-1.3,7C198.2,61.8,196.9,64.8,195.4,68Z"/><path d="M67.4,17.5c.2,3.5-3.5,8.2-6.7,9a9,9,0,0,1-10.1-4,7.9,7.9,0,0,1,.8-8.9,19,19,0,0,1,2.5-2.4c4.5-3.7,11.3-1,13.1,4.1C67.2,16,67.2,16.8,67.4,17.5Z"/><path d="M59,118.5a9.1,9.1,0,0,1-8-5,7.7,7.7,0,0,1,1.2-8.3,15.2,15.2,0,0,1,2.2-2.2c4.6-3.9,11.3-1.3,13.2,3.6a11,11,0,0,1,.4,3.1A9.6,9.6,0,0,1,59,118.5Z"/></svg>