<?xml version="1.0" encoding="utf-8"?>
<svg viewBox="40.869 0 214.231 81.203" xmlns="http://www.w3.org/2000/svg">
  <rect style="fill: rgb(190, 24, 24);" x="144.061" y="7.529" width="235.086" height="8.824" transform="matrix(0.949145, 0.31484, -0.30644, 0.951931, -90.933647, -62.336014)"/>
  <g style="stroke-width: 4px;">
    <path style="fill: rgb(190, 24, 24); paint-order: stroke; stroke: rgb(255, 255, 255);" d="M 201.055 25.786 C 200.457 25.609 199.839 25.507 199.26 25.422 C 197.009 25.089 194.72 25.871 192.5 26.372 C 189.754 26.99 187.044 27.835 184.436 28.892 C 182.429 29.706 180.472 30.653 178.642 31.808 C 177.628 32.448 176.113 33.725 175.683 34.089 C 175.607 33.906 175.511 33.732 175.38 33.588 C 174.099 32.172 171.937 31.262 170.042 31.496 C 169.558 31.555 169.111 31.855 168.754 32.223 C 168.455 31.832 164.709 26.955 162.424 24.711 C 160.52 22.845 158.412 21.178 156.213 19.671 C 154.11 18.23 152.005 16.642 149.575 15.873 C 148.132 15.417 146.401 14.767 145.052 15.452 C 144.363 15.802 144.241 16.766 143.86 17.438 C 141.912 20.87 140.416 24.565 138.249 27.866 C 137.787 28.57 136.69 29.002 136.682 29.853 C 136.676 30.704 137.567 31.382 138.25 31.905 C 140.493 33.624 143.483 34.034 146.095 35.114 C 146.768 35.392 147.437 35.707 148.096 36.035 C 147.807 36.256 143.587 39.488 141.14 40.724 C 140.231 41.184 138.262 41.742 138.262 41.742 C 138.262 41.742 137.282 49.955 136.56 54.025 C 136.146 56.35 135.059 60.945 135.059 60.945 C 135.059 60.945 140.878 57.127 143.824 55.268 C 148.481 52.328 157.904 46.618 157.904 46.618 L 166.141 41 L 167.657 39.513 C 167.716 39.583 167.787 39.646 167.856 39.704 C 169.208 40.821 171.171 41.067 172.925 41.074 C 173.168 41.075 173.439 41.055 173.681 40.992 C 173.652 41.397 173.649 41.796 173.71 42.095 C 174.358 45.262 176.647 47.863 178.196 50.702 C 182.147 57.948 186.601 64.91 190.458 72.207 C 190.799 72.853 191.425 74.174 191.425 74.174 L 197.489 56.21 C 197.489 56.21 194.412 50.498 192.698 47.75 C 192.48 47.401 192.191 46.971 191.886 46.522 C 193.401 46.773 194.93 46.903 196.447 46.768 C 198.174 46.614 199.76 45.75 201.403 45.197 C 202.609 44.79 204.014 44.724 204.999 43.919 C 205.439 43.558 205.798 43.019 205.878 42.455 C 206.166 40.414 204.75 38.485 204.284 36.477 C 203.961 35.088 203.585 33.703 203.454 32.284 C 203.303 30.657 204.372 28.759 203.498 27.377 C 202.978 26.554 202.053 26.08 201.057 25.785 L 201.055 25.786 Z"/>
    <path d="M 165.155 28.372 C 165.155 28.372 161.021 24.825 158.698 23.428 C 156.604 22.169 154.286 21.322 152.034 20.375 C 150.18 19.596 147.933 19.517 146.402 18.213 C 146.091 17.949 145.768 17.561 145.785 17.154 C 145.798 16.847 146.032 16.523 146.312 16.399 C 146.706 16.226 147.171 16.478 147.591 16.572 C 148.648 16.808 149.688 17.133 150.689 17.549 C 152.868 18.453 154.883 19.828 156.866 21.107 C 158.716 22.298 160.475 23.651 162.066 25.171 C 163.173 26.228 165.156 28.372 165.156 28.372 L 165.155 28.372 Z" style="fill: rgb(118, 1, 1);"/>
    <path d="M 177.253 33.385 C 177.253 33.385 180.814 32.077 182.644 31.584 C 184.269 31.148 185.927 30.838 187.588 30.567 C 190.411 30.105 193.252 29.735 196.105 29.53 C 197.48 29.431 198.889 29.714 200.24 29.438 C 200.913 29.3 201.713 29.198 202.154 28.669 C 202.436 28.333 202.572 27.792 202.42 27.379 C 202.287 27.016 201.868 26.805 201.507 26.663 C 199.657 25.939 197.901 26.463 195.919 26.616 C 193.412 26.808 190.803 27.336 188.414 28.124 C 186.581 28.727 184.63 29.347 182.897 30.201 C 180.96 31.156 177.253 33.385 177.253 33.385 Z" style="fill: rgb(118, 1, 1);"/>
  </g>
</svg>
