<?xml version="1.0" encoding="UTF-8" standalone="no"?>
<!DOCTYPE svg PUBLIC "-//W3C//DTD SVG 1.1//EN" "http://www.w3.org/Graphics/SVG/1.1/DTD/svg11.dtd">
<svg viewBox="0 0 438 167" version="1.1" xmlns="http://www.w3.org/2000/svg" xmlns:xlink="http://www.w3.org/1999/xlink" xml:space="preserve" style="fill-rule:evenodd;clip-rule:evenodd;stroke-linejoin:round;stroke-miterlimit:2;">
    <g transform="matrix(1,0,0,1,-632,-1215)">
        <g transform="matrix(141.667,0,0,141.667,637.537,1321.17)">
            <path d="M0.613,-0.071C0.63,-0.033 0.608,-0.002 0.546,-0.002L0.546,-0L0.808,-0L0.808,-0.002C0.757,-0.002 0.714,-0.032 0.688,-0.089L0.409,-0.704L0.407,-0.704L0.12,-0.096C0.09,-0.032 0.043,-0.002 0.004,-0.002L0.004,-0L0.221,-0L0.221,-0.002C0.167,-0.002 0.141,-0.038 0.162,-0.082L0.259,-0.288L0.514,-0.288L0.613,-0.071ZM0.39,-0.564L0.497,-0.326L0.277,-0.326L0.39,-0.564Z" style="fill-rule:nonzero;"/>
        </g>
        <g transform="matrix(141.667,0,0,141.667,726.504,1321.17)">
            <path d="M0.719,-0.137L0.602,-0.387L0.719,-0.637C0.735,-0.672 0.774,-0.698 0.819,-0.698L0.819,-0.7L0.631,-0.7L0.631,-0.698C0.668,-0.698 0.688,-0.674 0.674,-0.643L0.579,-0.438L0.488,-0.634C0.474,-0.665 0.496,-0.698 0.541,-0.698L0.541,-0.7L0.293,-0.7L0.293,-0.698C0.34,-0.698 0.384,-0.671 0.405,-0.626L0.535,-0.346L0.438,-0.137L0.207,-0.634C0.193,-0.665 0.215,-0.698 0.26,-0.698L0.26,-0.7L0.012,-0.7L0.012,-0.698C0.059,-0.698 0.103,-0.671 0.124,-0.626L0.418,0.004L0.42,0.004L0.559,-0.295L0.699,0.004L0.701,0.004L1,-0.637C1.016,-0.672 1.055,-0.698 1.1,-0.698L1.1,-0.7L0.912,-0.7L0.912,-0.698C0.949,-0.698 0.969,-0.674 0.955,-0.643L0.719,-0.137Z" style="fill-rule:nonzero;"/>
        </g>
        <g transform="matrix(141.667,0,0,141.667,885.171,1321.17)">
            <path d="M0.009,-0.7L0.009,-0.698C0.04,-0.698 0.065,-0.673 0.065,-0.642L0.065,-0.058C0.065,-0.027 0.04,-0.002 0.009,-0.002L0.009,-0L0.488,-0L0.509,-0.153L0.507,-0.153C0.496,-0.09 0.442,-0.042 0.386,-0.042L0.207,-0.042C0.171,-0.042 0.141,-0.072 0.141,-0.108L0.141,-0.336L0.342,-0.336C0.374,-0.336 0.4,-0.31 0.4,-0.278L0.402,-0.278L0.402,-0.436L0.4,-0.436C0.4,-0.404 0.374,-0.378 0.342,-0.378L0.141,-0.378L0.141,-0.658L0.368,-0.658C0.407,-0.658 0.432,-0.632 0.437,-0.593L0.439,-0.593L0.432,-0.7L0.009,-0.7Z" style="fill-rule:nonzero;"/>
        </g>
        <g transform="matrix(141.667,0,0,141.667,958.838,1321.17)">
            <path d="M0.152,-0.608L0.693,-0L0.695,-0L0.695,-0.642C0.695,-0.673 0.72,-0.698 0.751,-0.698L0.751,-0.7L0.597,-0.7L0.597,-0.698C0.628,-0.698 0.653,-0.673 0.653,-0.642L0.653,-0.158L0.171,-0.7L0.006,-0.7L0.006,-0.698C0.063,-0.698 0.11,-0.651 0.11,-0.594L0.11,-0.058C0.11,-0.027 0.085,-0.002 0.054,-0.002L0.054,-0L0.208,-0L0.208,-0.002C0.177,-0.002 0.152,-0.027 0.152,-0.058L0.152,-0.608Z" style="fill-rule:nonzero;"/>
        </g>
    </g>
    <g transform="matrix(1,0,0,1,-39.5,9)">
        <g transform="matrix(48,0,0,48,56.78,153.6)">
            <path d="M0.689,-0.233L0.687,-0.233C0.672,-0.121 0.556,-0.038 0.421,-0.038C0.241,-0.038 0.12,-0.183 0.12,-0.351C0.12,-0.528 0.256,-0.662 0.419,-0.662C0.55,-0.662 0.637,-0.576 0.646,-0.513L0.648,-0.513L0.632,-0.664C0.557,-0.677 0.517,-0.704 0.424,-0.704C0.186,-0.704 0.036,-0.53 0.036,-0.344C0.036,-0.163 0.178,0.004 0.409,0.004C0.519,0.004 0.613,-0.034 0.661,-0.064L0.689,-0.233Z" style="fill-rule:nonzero;"/>
        </g>
        <g transform="matrix(48,0,0,48,90.956,153.6)">
            <path d="M0.009,-0.7L0.009,-0.698C0.04,-0.698 0.065,-0.673 0.065,-0.642L0.065,-0.058C0.065,-0.027 0.04,-0.002 0.009,-0.002L0.009,-0L0.488,-0L0.509,-0.153L0.507,-0.153C0.496,-0.09 0.442,-0.042 0.386,-0.042L0.207,-0.042C0.171,-0.042 0.141,-0.072 0.141,-0.108L0.141,-0.336L0.342,-0.336C0.374,-0.336 0.4,-0.31 0.4,-0.278L0.402,-0.278L0.402,-0.436L0.4,-0.436C0.4,-0.404 0.374,-0.378 0.342,-0.378L0.141,-0.378L0.141,-0.658L0.368,-0.658C0.407,-0.658 0.432,-0.632 0.437,-0.593L0.439,-0.593L0.432,-0.7L0.009,-0.7Z" style="fill-rule:nonzero;"/>
        </g>
        <g transform="matrix(48,0,0,48,115.916,153.6)">
            <path d="M0.197,-0.7L0.009,-0.7L0.009,-0.698C0.04,-0.698 0.065,-0.673 0.065,-0.642L0.065,-0.058C0.065,-0.027 0.04,-0.002 0.009,-0.002L0.009,-0L0.458,-0L0.499,-0.141L0.497,-0.141C0.478,-0.079 0.426,-0.042 0.37,-0.042L0.207,-0.042C0.171,-0.042 0.141,-0.072 0.141,-0.108L0.141,-0.642C0.141,-0.673 0.166,-0.698 0.197,-0.698L0.197,-0.7Z" style="fill-rule:nonzero;"/>
        </g>
        <g transform="matrix(48,0,0,48,135.884,153.6)">
            <path d="M0.634,-0.595L0.627,-0.7L0.029,-0.7L0.022,-0.595L0.024,-0.595C0.028,-0.632 0.059,-0.662 0.093,-0.662L0.29,-0.662L0.29,-0.058C0.29,-0.027 0.265,-0.002 0.234,-0.002L0.234,-0L0.422,-0L0.422,-0.002C0.391,-0.002 0.366,-0.027 0.366,-0.058L0.366,-0.662L0.563,-0.662C0.597,-0.662 0.628,-0.632 0.632,-0.595L0.634,-0.595Z" style="fill-rule:nonzero;"/>
        </g>
        <g transform="matrix(48,0,0,48,167.372,153.6)">
            <path d="M0.247,-0.7L0.059,-0.7L0.059,-0.698C0.09,-0.698 0.115,-0.673 0.115,-0.642L0.115,-0.058C0.115,-0.027 0.09,-0.002 0.059,-0.002L0.059,-0L0.247,-0L0.247,-0.002C0.216,-0.002 0.191,-0.027 0.191,-0.058L0.191,-0.642C0.191,-0.673 0.216,-0.698 0.247,-0.698L0.247,-0.7Z" style="fill-rule:nonzero;"/>
        </g>
        <g transform="matrix(48,0,0,48,182.06,153.6)">
            <path d="M0.689,-0.233L0.687,-0.233C0.672,-0.121 0.556,-0.038 0.421,-0.038C0.241,-0.038 0.12,-0.183 0.12,-0.351C0.12,-0.528 0.256,-0.662 0.419,-0.662C0.55,-0.662 0.637,-0.576 0.646,-0.513L0.648,-0.513L0.632,-0.664C0.557,-0.677 0.517,-0.704 0.424,-0.704C0.186,-0.704 0.036,-0.53 0.036,-0.344C0.036,-0.163 0.178,0.004 0.409,0.004C0.519,0.004 0.613,-0.034 0.661,-0.064L0.689,-0.233Z" style="fill-rule:nonzero;"/>
        </g>
        <g transform="matrix(48,0,0,48,235.436,153.6)">
            <path d="M0.689,-0.233L0.687,-0.233C0.672,-0.121 0.556,-0.038 0.421,-0.038C0.241,-0.038 0.12,-0.183 0.12,-0.351C0.12,-0.528 0.256,-0.662 0.419,-0.662C0.55,-0.662 0.637,-0.576 0.646,-0.513L0.648,-0.513L0.632,-0.664C0.557,-0.677 0.517,-0.704 0.424,-0.704C0.186,-0.704 0.036,-0.53 0.036,-0.344C0.036,-0.163 0.178,0.004 0.409,0.004C0.519,0.004 0.613,-0.034 0.661,-0.064L0.689,-0.233Z" style="fill-rule:nonzero;"/>
        </g>
        <g transform="matrix(48,0,0,48,269.612,153.6)">
            <path d="M0.374,-0.704C0.179,-0.704 0.036,-0.539 0.036,-0.355C0.036,-0.149 0.2,0.004 0.383,0.004C0.579,0.004 0.721,-0.16 0.721,-0.345C0.721,-0.55 0.557,-0.704 0.374,-0.704ZM0.355,-0.659C0.498,-0.659 0.637,-0.513 0.637,-0.32C0.637,-0.171 0.544,-0.041 0.403,-0.041C0.26,-0.041 0.12,-0.187 0.12,-0.379C0.12,-0.528 0.214,-0.659 0.355,-0.659Z" style="fill-rule:nonzero;"/>
        </g>
        <g transform="matrix(48,0,0,48,305.516,153.6)">
            <path d="M0.152,-0.608L0.693,-0L0.695,-0L0.695,-0.642C0.695,-0.673 0.72,-0.698 0.751,-0.698L0.751,-0.7L0.597,-0.7L0.597,-0.698C0.628,-0.698 0.653,-0.673 0.653,-0.642L0.653,-0.158L0.171,-0.7L0.006,-0.7L0.006,-0.698C0.063,-0.698 0.11,-0.651 0.11,-0.594L0.11,-0.058C0.11,-0.027 0.085,-0.002 0.054,-0.002L0.054,-0L0.208,-0L0.208,-0.002C0.177,-0.002 0.152,-0.027 0.152,-0.058L0.152,-0.608Z" style="fill-rule:nonzero;"/>
        </g>
        <g transform="matrix(48,0,0,48,343.676,153.6)">
            <path d="M0.689,-0.233L0.687,-0.233C0.672,-0.121 0.556,-0.038 0.421,-0.038C0.241,-0.038 0.12,-0.183 0.12,-0.351C0.12,-0.528 0.256,-0.662 0.419,-0.662C0.55,-0.662 0.637,-0.576 0.646,-0.513L0.648,-0.513L0.632,-0.664C0.557,-0.677 0.517,-0.704 0.424,-0.704C0.186,-0.704 0.036,-0.53 0.036,-0.344C0.036,-0.163 0.178,0.004 0.409,0.004C0.519,0.004 0.613,-0.034 0.661,-0.064L0.689,-0.233Z" style="fill-rule:nonzero;"/>
        </g>
        <g transform="matrix(48,0,0,48,377.852,153.6)">
            <path d="M0.009,-0.7L0.009,-0.698C0.04,-0.698 0.065,-0.673 0.065,-0.642L0.065,-0.058C0.065,-0.027 0.04,-0.002 0.009,-0.002L0.009,-0L0.488,-0L0.509,-0.153L0.507,-0.153C0.496,-0.09 0.442,-0.042 0.386,-0.042L0.207,-0.042C0.171,-0.042 0.141,-0.072 0.141,-0.108L0.141,-0.336L0.342,-0.336C0.374,-0.336 0.4,-0.31 0.4,-0.278L0.402,-0.278L0.402,-0.436L0.4,-0.436C0.4,-0.404 0.374,-0.378 0.342,-0.378L0.141,-0.378L0.141,-0.658L0.368,-0.658C0.407,-0.658 0.432,-0.632 0.437,-0.593L0.439,-0.593L0.432,-0.7L0.009,-0.7Z" style="fill-rule:nonzero;"/>
        </g>
        <g transform="matrix(48,0,0,48,402.812,153.6)">
            <path d="M0.009,-0.7L0.009,-0.698C0.04,-0.698 0.065,-0.673 0.065,-0.642L0.065,-0.058C0.065,-0.027 0.04,-0.002 0.009,-0.002L0.009,-0L0.197,-0L0.197,-0.002C0.166,-0.002 0.141,-0.027 0.141,-0.058L0.141,-0.32L0.244,-0.32C0.324,-0.186 0.463,-0.021 0.616,-0.003C0.631,-0.001 0.655,-0 0.689,-0L0.689,-0.002C0.526,-0.064 0.401,-0.215 0.326,-0.331C0.4,-0.357 0.454,-0.428 0.454,-0.51C0.454,-0.615 0.366,-0.7 0.26,-0.7L0.009,-0.7ZM0.234,-0.658C0.311,-0.658 0.374,-0.592 0.374,-0.51C0.374,-0.428 0.311,-0.362 0.234,-0.362L0.141,-0.362L0.141,-0.658L0.234,-0.658Z" style="fill-rule:nonzero;"/>
        </g>
        <g transform="matrix(48,0,0,48,428.732,153.6)">
            <path d="M0.634,-0.595L0.627,-0.7L0.029,-0.7L0.022,-0.595L0.024,-0.595C0.028,-0.632 0.059,-0.662 0.093,-0.662L0.29,-0.662L0.29,-0.058C0.29,-0.027 0.265,-0.002 0.234,-0.002L0.234,-0L0.422,-0L0.422,-0.002C0.391,-0.002 0.366,-0.027 0.366,-0.058L0.366,-0.662L0.563,-0.662C0.597,-0.662 0.628,-0.632 0.632,-0.595L0.634,-0.595Z" style="fill-rule:nonzero;"/>
        </g>
    </g>
</svg>
