<?xml version="1.0" encoding="utf-8"?>
<svg viewBox="83.646 211.258 678.861 179.282" xmlns="http://www.w3.org/2000/svg">
  <g transform="matrix(3.002688, 0, 0, 3.002688, 73.171524, 188.084595)">
    <path d="M 33.177662 31.922215 C 33.300514 36.488197 33.05481 40.762409 32.440552 44.74485 C 31.836533 48.727287 30.807652 52.238792 29.353907 55.279369 C 27.9104 58.319946 26.036915 60.700195 23.733448 62.420116 C 21.429981 64.140038 18.665821 65 15.4409676 65 C 13.0863113 65 11.2281818 64.897621 9.8665771 64.692871 C 8.5049725 64.477882 7.1331301 64.180984 5.75105 63.802197 L 5.75105 11.098877 C 7.2969327 10.761035 8.909359 10.4897375 10.5883303 10.2849846 C 12.2673016 10.069993 14.3250656 9.9624977 16.7616215 9.9624977 C 22.208042 9.9624977 26.262144 11.6619434 28.923927 15.0608368 C 31.585711 18.459732 33.003624 24.080191 33.177662 31.922215 Z M 12.7228765 59.594532 L 16.0552254 59.594532 C 18.112989 59.553581 19.863623 58.412083 21.307129 56.170044 C 22.760874 53.917767 23.871656 50.718506 24.639479 46.572266 C 25.417538 42.415787 25.786093 37.532436 25.745142 31.922215 C 25.663242 27.509796 25.212786 24.110905 24.393774 21.725536 C 23.574764 19.329931 22.515169 17.671434 21.214991 16.7500458 C 19.914812 15.8286591 18.491781 15.3679657 16.9459 15.3679657 C 16.0245132 15.3679657 15.3539476 15.388442 14.9342041 15.4293938 C 14.5144615 15.4703436 14.1663818 15.5266495 13.889966 15.5983124 C 13.6237879 15.6597395 13.2347584 15.7518778 12.7228765 15.8747292 L 12.7228765 59.594532 Z M 47.001854 24.750755 L 47.001854 65 C 45.578823 64.918098 44.237694 64.825966 42.978466 64.723587 C 41.719238 64.61097 40.66988 64.49324 39.830395 64.370384 L 39.830395 25.626072 C 40.751781 25.411083 41.842091 25.231924 43.101318 25.088596 C 44.360546 24.945271 45.660725 24.832657 47.001854 24.750755 Z M 47.001854 9.9624977 L 47.001854 17.256809 C 45.578823 17.174908 44.237694 17.093008 42.978466 17.011108 C 41.719238 16.929207 40.66988 16.801237 39.830395 16.6271973 L 39.830395 10.7763901 C 40.751781 10.5716372 41.852325 10.407836 43.13203 10.2849846 C 44.411736 10.1518946 45.701675 10.0443993 47.001854 9.9624977 Z M 77.195412 57.198925 L 77.195412 63.61792 C 76.140938 64.037666 75.163246 64.375504 74.262329 64.631447 C 73.36142 64.877151 72.306946 65 71.098907 65 C 68.959236 65 66.870758 64.657043 64.833473 63.971119 C 62.796185 63.27496 60.948296 62.077156 59.289799 60.377708 C 57.641541 58.678265 56.331123 56.354321 55.358547 53.405884 C 54.39621 50.447208 53.915043 46.700237 53.915043 42.164963 C 53.915043 38.561321 54.457638 35.387657 55.542824 32.64397 C 56.638252 29.890047 58.266037 27.729906 60.426174 26.163548 C 62.586315 24.586954 65.237862 23.798656 68.380814 23.798656 C 70.899269 23.798656 73.018463 24.366846 74.73838 25.503223 C 76.458305 26.629362 77.758484 28.083105 78.638916 29.864452 C 79.519356 31.6458 79.959572 33.524403 79.959572 35.500267 C 80.174561 39.318905 79.002357 42.27758 76.442947 44.376293 C 73.883537 46.464771 70.172401 47.50901 65.309525 47.50901 C 64.592888 47.50901 63.886494 47.488533 63.190334 47.447582 C 62.504414 47.406631 61.869682 47.32473 61.286137 47.201881 C 61.613739 49.802238 62.166573 51.91119 62.944633 53.528736 C 63.722694 55.136044 64.613365 56.379917 65.616653 57.260353 C 66.63018 58.140789 67.669296 58.739689 68.734009 59.057056 C 69.798729 59.37442 70.796898 59.533104 71.728516 59.533104 C 72.731804 59.533104 73.627602 59.343708 74.415894 58.964916 C 75.214432 58.586124 76.140938 57.997459 77.195412 57.198925 Z M 67.751198 29.1427 C 65.785576 29.1427 64.16291 30.253483 62.883205 32.475048 C 61.6035 34.696613 60.96365 37.885635 60.96365 42.042114 L 65.309525 42.042114 C 66.773506 42.042114 68.068565 41.909023 69.194702 41.642845 C 70.331078 41.366428 71.211517 40.767529 71.836014 39.846142 C 72.470749 38.91452 72.788116 37.465893 72.788116 35.500267 C 72.788116 33.483456 72.317184 31.922216 71.37532 30.816551 C 70.433456 29.700651 69.225418 29.1427 67.751198 29.1427 Z M 119.016907 29.265553 L 119.46225 29.265553 L 119.46225 10.8992424 C 120.383636 10.6944895 121.43811 10.5102119 122.625671 10.3464088 C 123.823479 10.17237 125.113419 10.0443993 126.495499 9.9624977 L 126.495499 65 C 125.031517 65 123.70063 64.928337 122.502823 64.785011 C 121.315254 64.631447 120.301735 64.51371 119.46225 64.431808 L 119.46225 39.90757 C 118.58181 38.187645 117.414719 36.585453 115.960976 35.100998 C 114.517471 33.606304 112.966469 32.106495 111.307976 30.601563 C 109.649475 29.086393 108.067764 27.489323 106.562836 25.810352 L 106.056068 25.810352 L 106.056068 65 C 104.592087 65 103.409645 64.959053 102.508728 64.877151 C 101.607819 64.79525 100.671074 64.708229 99.698502 64.616089 L 99.698502 21.280201 C 99.698502 19.314573 99.509102 17.558821 99.13031 16.0129395 C 98.761757 14.4568176 98.157738 13.1310434 97.318253 12.0356178 L 106.056068 9.9624977 L 106.056068 12.419529 C 106.393913 14.6820469 107.243637 16.7449284 108.60524 18.608177 C 109.966843 20.471426 111.579269 22.252773 113.44252 23.952221 C 115.316002 25.651669 117.174133 27.422779 119.016907 29.265553 Z M 142.784149 24.750755 L 142.784149 65 C 141.361115 64.918098 140.019989 64.825966 138.760757 64.723587 C 137.501526 64.61097 136.452179 64.49324 135.612686 64.370384 L 135.612686 25.626072 C 136.534073 25.411083 137.624374 25.231924 138.883606 25.088596 C 140.142838 24.945271 141.443008 24.832657 142.784149 24.750755 Z M 142.784149 9.9624977 L 142.784149 17.256809 C 141.361115 17.174908 140.019989 17.093008 138.760757 17.011108 C 137.501526 16.929207 136.452179 16.801237 135.612686 16.6271973 L 135.612686 10.7763901 C 136.534073 10.5716372 137.634613 10.407836 138.914322 10.2849846 C 140.194031 10.1518946 141.483963 10.0443993 142.784149 9.9624977 Z M 172.97771 57.198925 L 172.97771 63.61792 C 171.92323 64.037666 170.94554 64.375504 170.04462 64.631447 C 169.14371 64.877151 168.08923 65 166.881195 65 C 164.741531 65 162.653046 64.657043 160.615768 63.971119 C 158.578476 63.27496 156.730576 62.077156 155.072083 60.377708 C 153.423828 58.678265 152.113419 56.354321 151.140839 53.405884 C 150.178497 50.447208 149.697327 46.700237 149.697327 42.164963 C 149.697327 38.561321 150.239929 35.387657 151.325119 32.64397 C 152.420532 29.890047 154.048325 27.729906 156.208466 26.163548 C 158.368607 24.586954 161.020142 23.798656 164.163101 23.798656 C 166.681549 23.798656 168.80075 24.366846 170.52068 25.503223 C 172.2406 26.629362 173.54077 28.083105 174.4212 29.864452 C 175.30165 31.6458 175.74187 33.524403 175.74187 35.500267 C 175.95685 39.318905 174.78464 42.27758 172.22523 44.376293 C 169.66583 46.464771 165.954681 47.50901 161.091812 47.50901 C 160.375183 47.50901 159.668777 47.488533 158.972626 47.447582 C 158.286697 47.406631 157.651962 47.32473 157.06842 47.201881 C 157.396027 49.802238 157.948853 51.91119 158.726913 53.528736 C 159.504974 55.136044 160.39566 56.379917 161.398941 57.260353 C 162.412476 58.140789 163.451584 58.739689 164.516296 59.057056 C 165.581009 59.37442 166.579178 59.533104 167.510803 59.533104 C 168.51408 59.533104 169.40988 59.343708 170.19818 58.964916 C 170.99672 58.586124 171.92323 57.997459 172.97771 57.198925 Z M 163.533493 29.1427 C 161.567871 29.1427 159.945206 30.253483 158.665497 32.475048 C 157.385788 34.696613 156.745941 37.885635 156.745941 42.042114 L 161.091812 42.042114 C 162.555786 42.042114 163.850845 41.909023 164.97699 41.642845 C 166.113373 41.366428 166.993805 40.767529 167.618301 39.846142 C 168.25304 38.91452 168.5704 37.465893 168.5704 35.500267 C 168.5704 33.483456 168.09947 31.922216 167.157608 30.816551 C 166.215744 29.700651 165.007706 29.1427 163.533493 29.1427 Z M 198.44341 25.242161 L 198.44341 31.661156 C 197.98271 31.323313 197.41452 30.990591 196.73883 30.662987 C 196.07338 30.325144 195.19807 30.156223 194.11288 30.156223 C 192.39296 30.156223 191.02625 30.816551 190.01271 32.137207 C 189.00943 33.457859 188.50778 35.438843 188.50778 38.080151 L 188.50778 65 C 185.82552 64.836197 183.51694 64.544426 181.58203 64.12468 L 181.58203 31.354027 C 181.63322 29.920759 181.53084 28.671768 181.2749 27.607056 C 181.01897 26.532104 180.66064 25.580004 180.19995 24.750755 L 188.06244 24.750755 C 188.06244 24.750755 188.08292 25.052767 188.12387 25.656788 C 188.17506 26.260807 188.23137 26.982559 188.29279 27.822044 C 188.35422 28.66153 188.40541 29.480539 188.44635 30.279076 L 189.07597 30.279076 C 189.78236 28.05751 190.67816 26.424608 191.76335 25.380371 C 192.85878 24.325895 194.0361 23.798656 195.29533 23.798656 C 196.13483 23.798656 196.82587 23.936865 197.36845 24.21328 C 197.92128 24.47946 198.2796 24.82242 198.44341 25.242161 Z M 224.54794 57.198925 L 224.54794 63.61792 C 223.49345 64.037666 222.51576 64.375504 221.61485 64.631447 C 220.71394 64.877151 219.65947 65 218.45143 65 C 216.31177 65 214.22328 64.657043 212.186 63.971119 C 210.14871 63.27496 208.30081 62.077156 206.64232 60.377708 C 204.99406 58.678265 203.68365 56.354321 202.71107 53.405884 C 201.74873 50.447208 201.26756 46.700237 201.26756 42.164963 C 201.26756 38.561321 201.81017 35.387657 202.89536 32.64397 C 203.99077 29.890047 205.61856 27.729906 207.7787 26.163548 C 209.93884 24.586954 212.59038 23.798656 215.73334 23.798656 C 218.25179 23.798656 220.37099 24.366846 222.09091 25.503223 C 223.81084 26.629362 225.11101 28.083105 225.99144 29.864452 C 226.87189 31.6458 227.3121 33.524403 227.3121 35.500267 C 227.52708 39.318905 226.35487 42.27758 223.79547 44.376293 C 221.23607 46.464771 217.52492 47.50901 212.66205 47.50901 C 211.94542 47.50901 211.23901 47.488533 210.54286 47.447582 C 209.85693 47.406631 209.2222 47.32473 208.63866 47.201881 C 208.96626 49.802238 209.51909 51.91119 210.29715 53.528736 C 211.07521 55.136044 211.9659 56.379917 212.96918 57.260353 C 213.98271 58.140789 215.02182 58.739689 216.08653 59.057056 C 217.15125 59.37442 218.14941 59.533104 219.08104 59.533104 C 220.08432 59.533104 220.98012 59.343708 221.76842 58.964916 C 222.56696 58.586124 223.49345 57.997459 224.54794 57.198925 Z M 215.10373 29.1427 C 213.13811 29.1427 211.51544 30.253483 210.23573 32.475048 C 208.95602 34.696613 208.31618 37.885635 208.31618 42.042114 L 212.66205 42.042114 C 214.12602 42.042114 215.42108 41.909023 216.54723 41.642845 C 217.68361 41.366428 218.56404 40.767529 219.18854 39.846142 C 219.82327 38.91452 220.14064 37.465893 220.14064 35.500267 C 220.14064 33.483456 219.66971 31.922216 218.72784 30.816551 C 217.78598 29.700651 216.57794 29.1427 215.10373 29.1427 Z" style="stroke-opacity: 1; stroke-miterlimit: 4; stroke-linecap: butt; stroke-linejoin: miter; stroke-width: 3.38105px; stroke-dashoffset: 0px; paint-order: stroke;"/>
    <path d="M 31.827 -33.085 Q 32.016 -26.229 31.104 -20.254 Q 30.192 -14.278 28.022 -9.718 Q 25.852 -5.158 22.392 -2.579 Q 18.933 0 14.09 0 Q 10.567 0 8.523 -0.314 Q 6.479 -0.629 4.403 -1.195 L 4.403 -53.905 Q 6.73 -54.408 9.246 -54.723 Q 11.762 -55.037 15.41 -55.037 Q 23.587 -55.037 27.582 -49.943 Q 31.576 -44.848 31.827 -33.085 Z M 11.385 -5.409 L 14.719 -5.409 Q 17.801 -5.472 19.971 -8.837 Q 22.141 -12.203 23.304 -18.43 Q 24.468 -24.657 24.405 -33.085 Q 24.279 -39.69 23.053 -43.275 Q 21.826 -46.86 19.876 -48.244 Q 17.926 -49.628 15.599 -49.628 Q 14.215 -49.628 13.586 -49.565 Q 12.957 -49.502 12.549 -49.408 Q 12.14 -49.314 11.385 -49.125 Z" transform="matrix(1, 0, 0, 1, 1.34375, 65)"/>
    <path d="M 45.66 -40.256 L 45.66 0 Q 43.522 -0.126 41.635 -0.283 Q 39.748 -0.44 38.49 -0.629 L 38.49 -39.375 Q 39.874 -39.69 41.761 -39.91 Q 43.648 -40.13 45.66 -40.256 Z M 45.66 -55.037 L 45.66 -47.741 Q 43.522 -47.867 41.635 -47.993 Q 39.748 -48.118 38.49 -48.37 L 38.49 -54.22 Q 39.874 -54.534 41.792 -54.723 Q 43.71 -54.912 45.66 -55.037 Z" transform="matrix(1, 0, 0, 1, 1.34375, 65)"/>
    <path d="M 75.85 -7.8 L 75.85 -1.384 Q 74.277 -0.755 72.925 -0.377 Q 71.573 0 69.749 0 Q 66.541 0 63.49 -1.038 Q 60.439 -2.076 57.955 -4.623 Q 55.47 -7.171 54.024 -11.605 Q 52.577 -16.039 52.577 -22.833 Q 52.577 -28.242 54.212 -32.362 Q 55.848 -36.482 59.087 -38.841 Q 62.326 -41.199 67.044 -41.199 Q 70.818 -41.199 73.397 -39.501 Q 75.976 -37.803 77.297 -35.13 Q 78.617 -32.456 78.617 -29.5 Q 78.932 -23.776 75.095 -20.631 Q 71.258 -17.486 63.962 -17.486 Q 62.892 -17.486 61.855 -17.549 Q 60.817 -17.612 59.936 -17.801 Q 60.439 -13.901 61.603 -11.479 Q 62.767 -9.058 64.276 -7.737 Q 65.786 -6.416 67.39 -5.944 Q 68.994 -5.472 70.378 -5.472 Q 71.887 -5.472 73.082 -6.038 Q 74.277 -6.604 75.85 -7.8 Z M 66.415 -35.853 Q 63.459 -35.853 61.54 -32.519 Q 59.622 -29.186 59.622 -22.958 L 63.962 -22.958 Q 66.163 -22.958 67.862 -23.367 Q 69.56 -23.776 70.503 -25.16 Q 71.447 -26.544 71.447 -29.5 Q 71.447 -32.519 70.032 -34.186 Q 68.616 -35.853 66.415 -35.853 Z" transform="matrix(1, 0, 0, 1, 1.34375, 65)"/>
    <path d="M 117.672 -35.727 L 118.112 -35.727 L 118.112 -54.094 Q 119.496 -54.408 121.289 -54.66 Q 123.081 -54.912 125.157 -55.037 L 125.157 0 Q 122.956 0 121.163 -0.22 Q 119.37 -0.44 118.112 -0.566 L 118.112 -25.097 Q 116.791 -27.676 114.621 -29.909 Q 112.451 -32.142 109.967 -34.406 Q 107.482 -36.671 105.218 -39.187 L 104.715 -39.187 L 104.715 0 Q 102.513 0 101.161 -0.126 Q 99.808 -0.252 98.362 -0.377 L 98.362 -43.715 Q 98.362 -46.672 97.796 -48.999 Q 97.229 -51.326 95.971 -52.962 L 104.715 -55.037 L 104.715 -52.584 Q 105.218 -49.188 107.262 -46.389 Q 109.306 -43.59 112.105 -41.042 Q 114.904 -38.495 117.672 -35.727 Z" transform="matrix(1, 0, 0, 1, 1.34375, 65)"/>
    <path d="M 141.443 -40.256 L 141.443 0 Q 139.304 -0.126 137.417 -0.283 Q 135.53 -0.44 134.272 -0.629 L 134.272 -39.375 Q 135.656 -39.69 137.543 -39.91 Q 139.43 -40.13 141.443 -40.256 Z M 141.443 -55.037 L 141.443 -47.741 Q 139.304 -47.867 137.417 -47.993 Q 135.53 -48.118 134.272 -48.37 L 134.272 -54.22 Q 135.656 -54.534 137.575 -54.723 Q 139.493 -54.912 141.443 -55.037 Z" transform="matrix(1, 0, 0, 1, 1.34375, 65)"/>
    <path d="M 171.633 -7.8 L 171.633 -1.384 Q 170.06 -0.755 168.708 -0.377 Q 167.355 0 165.531 0 Q 162.323 0 159.273 -1.038 Q 156.222 -2.076 153.737 -4.623 Q 151.253 -7.171 149.806 -11.605 Q 148.36 -16.039 148.36 -22.833 Q 148.36 -28.242 149.995 -32.362 Q 151.63 -36.482 154.87 -38.841 Q 158.109 -41.199 162.827 -41.199 Q 166.601 -41.199 169.179 -39.501 Q 171.758 -37.803 173.079 -35.13 Q 174.4 -32.456 174.4 -29.5 Q 174.715 -23.776 170.878 -20.631 Q 167.041 -17.486 159.744 -17.486 Q 158.675 -17.486 157.637 -17.549 Q 156.599 -17.612 155.719 -17.801 Q 156.222 -13.901 157.386 -11.479 Q 158.549 -9.058 160.059 -7.737 Q 161.569 -6.416 163.172 -5.944 Q 164.776 -5.472 166.16 -5.472 Q 167.67 -5.472 168.865 -6.038 Q 170.06 -6.604 171.633 -7.8 Z M 162.198 -35.853 Q 159.241 -35.853 157.323 -32.519 Q 155.404 -29.186 155.404 -22.958 L 159.744 -22.958 Q 161.946 -22.958 163.644 -23.367 Q 165.343 -23.776 166.286 -25.16 Q 167.23 -26.544 167.23 -29.5 Q 167.23 -32.519 165.814 -34.186 Q 164.399 -35.853 162.198 -35.853 Z" transform="matrix(1, 0, 0, 1, 1.34375, 65)"/>
    <path d="M 197.103 -39.753 L 197.103 -33.337 Q 196.411 -33.84 195.404 -34.343 Q 194.398 -34.847 192.762 -34.847 Q 190.184 -34.847 188.674 -32.865 Q 187.164 -30.884 187.164 -26.921 L 187.164 0 Q 183.139 -0.252 180.245 -0.881 L 180.245 -33.651 Q 180.308 -35.79 179.931 -37.394 Q 179.553 -38.998 178.862 -40.256 L 186.724 -40.256 Q 186.724 -40.256 186.787 -39.344 Q 186.85 -38.432 186.944 -37.174 Q 187.039 -35.916 187.101 -34.721 L 187.73 -34.721 Q 188.8 -38.054 190.435 -39.627 Q 192.071 -41.199 193.958 -41.199 Q 195.216 -41.199 196.033 -40.791 Q 196.851 -40.382 197.103 -39.753 Z" transform="matrix(1, 0, 0, 1, 1.34375, 65)"/>
    <path d="M 223.203 -7.8 L 223.203 -1.384 Q 221.63 -0.755 220.278 -0.377 Q 218.925 0 217.101 0 Q 213.893 0 210.843 -1.038 Q 207.792 -2.076 205.307 -4.623 Q 202.823 -7.171 201.376 -11.605 Q 199.93 -16.039 199.93 -22.833 Q 199.93 -28.242 201.565 -32.362 Q 203.2 -36.482 206.44 -38.841 Q 209.679 -41.199 214.397 -41.199 Q 218.171 -41.199 220.749 -39.501 Q 223.328 -37.803 224.649 -35.13 Q 225.97 -32.456 225.97 -29.5 Q 226.285 -23.776 222.448 -20.631 Q 218.611 -17.486 211.314 -17.486 Q 210.245 -17.486 209.207 -17.549 Q 208.169 -17.612 207.289 -17.801 Q 207.792 -13.901 208.956 -11.479 Q 210.119 -9.058 211.629 -7.737 Q 213.139 -6.416 214.742 -5.944 Q 216.346 -5.472 217.73 -5.472 Q 219.24 -5.472 220.435 -6.038 Q 221.63 -6.604 223.203 -7.8 Z M 213.768 -35.853 Q 210.811 -35.853 208.893 -32.519 Q 206.974 -29.186 206.974 -22.958 L 211.314 -22.958 Q 213.516 -22.958 215.214 -23.367 Q 216.913 -23.776 217.856 -25.16 Q 218.8 -26.544 218.8 -29.5 Q 218.8 -32.519 217.384 -34.186 Q 215.969 -35.853 213.768 -35.853 Z" transform="matrix(1, 0, 0, 1, 1.34375, 65)"/>
    <path d="M 31.827 -33.085 Q 32.016 -26.229 31.104 -20.254 Q 30.192 -14.278 28.022 -9.718 Q 25.852 -5.158 22.392 -2.579 Q 18.933 0 14.09 0 Q 10.567 0 8.523 -0.314 Q 6.479 -0.629 4.403 -1.195 L 4.403 -53.905 Q 6.73 -54.408 9.246 -54.723 Q 11.762 -55.037 15.41 -55.037 Q 23.587 -55.037 27.582 -49.943 Q 31.576 -44.848 31.827 -33.085 Z M 11.385 -5.409 L 14.719 -5.409 Q 17.801 -5.472 19.971 -8.837 Q 22.141 -12.203 23.304 -18.43 Q 24.468 -24.657 24.405 -33.085 Q 24.279 -39.69 23.053 -43.275 Q 21.826 -46.86 19.876 -48.244 Q 17.926 -49.628 15.599 -49.628 Q 14.215 -49.628 13.586 -49.565 Q 12.957 -49.502 12.549 -49.408 Q 12.14 -49.314 11.385 -49.125 Z" transform="matrix(1, 0, 0, 1, 1.34375, 65)"/>
    <path d="M 45.66 -40.256 L 45.66 0 Q 43.522 -0.126 41.635 -0.283 Q 39.748 -0.44 38.49 -0.629 L 38.49 -39.375 Q 39.874 -39.69 41.761 -39.91 Q 43.648 -40.13 45.66 -40.256 Z M 45.66 -55.037 L 45.66 -47.741 Q 43.522 -47.867 41.635 -47.993 Q 39.748 -48.118 38.49 -48.37 L 38.49 -54.22 Q 39.874 -54.534 41.792 -54.723 Q 43.71 -54.912 45.66 -55.037 Z" transform="matrix(1, 0, 0, 1, 1.34375, 65)"/>
    <path d="M 75.85 -7.8 L 75.85 -1.384 Q 74.277 -0.755 72.925 -0.377 Q 71.573 0 69.749 0 Q 66.541 0 63.49 -1.038 Q 60.439 -2.076 57.955 -4.623 Q 55.47 -7.171 54.024 -11.605 Q 52.577 -16.039 52.577 -22.833 Q 52.577 -28.242 54.212 -32.362 Q 55.848 -36.482 59.087 -38.841 Q 62.326 -41.199 67.044 -41.199 Q 70.818 -41.199 73.397 -39.501 Q 75.976 -37.803 77.297 -35.13 Q 78.617 -32.456 78.617 -29.5 Q 78.932 -23.776 75.095 -20.631 Q 71.258 -17.486 63.962 -17.486 Q 62.892 -17.486 61.855 -17.549 Q 60.817 -17.612 59.936 -17.801 Q 60.439 -13.901 61.603 -11.479 Q 62.767 -9.058 64.276 -7.737 Q 65.786 -6.416 67.39 -5.944 Q 68.994 -5.472 70.378 -5.472 Q 71.887 -5.472 73.082 -6.038 Q 74.277 -6.604 75.85 -7.8 Z M 66.415 -35.853 Q 63.459 -35.853 61.54 -32.519 Q 59.622 -29.186 59.622 -22.958 L 63.962 -22.958 Q 66.163 -22.958 67.862 -23.367 Q 69.56 -23.776 70.503 -25.16 Q 71.447 -26.544 71.447 -29.5 Q 71.447 -32.519 70.032 -34.186 Q 68.616 -35.853 66.415 -35.853 Z" transform="matrix(1, 0, 0, 1, 1.34375, 65)"/>
    <path d="M 117.672 -35.727 L 118.112 -35.727 L 118.112 -54.094 Q 119.496 -54.408 121.289 -54.66 Q 123.081 -54.912 125.157 -55.037 L 125.157 0 Q 122.956 0 121.163 -0.22 Q 119.37 -0.44 118.112 -0.566 L 118.112 -25.097 Q 116.791 -27.676 114.621 -29.909 Q 112.451 -32.142 109.967 -34.406 Q 107.482 -36.671 105.218 -39.187 L 104.715 -39.187 L 104.715 0 Q 102.513 0 101.161 -0.126 Q 99.808 -0.252 98.362 -0.377 L 98.362 -43.715 Q 98.362 -46.672 97.796 -48.999 Q 97.229 -51.326 95.971 -52.962 L 104.715 -55.037 L 104.715 -52.584 Q 105.218 -49.188 107.262 -46.389 Q 109.306 -43.59 112.105 -41.042 Q 114.904 -38.495 117.672 -35.727 Z" transform="matrix(1, 0, 0, 1, 1.34375, 65)"/>
    <path d="M 141.443 -40.256 L 141.443 0 Q 139.304 -0.126 137.417 -0.283 Q 135.53 -0.44 134.272 -0.629 L 134.272 -39.375 Q 135.656 -39.69 137.543 -39.91 Q 139.43 -40.13 141.443 -40.256 Z M 141.443 -55.037 L 141.443 -47.741 Q 139.304 -47.867 137.417 -47.993 Q 135.53 -48.118 134.272 -48.37 L 134.272 -54.22 Q 135.656 -54.534 137.575 -54.723 Q 139.493 -54.912 141.443 -55.037 Z" transform="matrix(1, 0, 0, 1, 1.34375, 65)"/>
    <path d="M 171.633 -7.8 L 171.633 -1.384 Q 170.06 -0.755 168.708 -0.377 Q 167.355 0 165.531 0 Q 162.323 0 159.273 -1.038 Q 156.222 -2.076 153.737 -4.623 Q 151.253 -7.171 149.806 -11.605 Q 148.36 -16.039 148.36 -22.833 Q 148.36 -28.242 149.995 -32.362 Q 151.63 -36.482 154.87 -38.841 Q 158.109 -41.199 162.827 -41.199 Q 166.601 -41.199 169.179 -39.501 Q 171.758 -37.803 173.079 -35.13 Q 174.4 -32.456 174.4 -29.5 Q 174.715 -23.776 170.878 -20.631 Q 167.041 -17.486 159.744 -17.486 Q 158.675 -17.486 157.637 -17.549 Q 156.599 -17.612 155.719 -17.801 Q 156.222 -13.901 157.386 -11.479 Q 158.549 -9.058 160.059 -7.737 Q 161.569 -6.416 163.172 -5.944 Q 164.776 -5.472 166.16 -5.472 Q 167.67 -5.472 168.865 -6.038 Q 170.06 -6.604 171.633 -7.8 Z M 162.198 -35.853 Q 159.241 -35.853 157.323 -32.519 Q 155.404 -29.186 155.404 -22.958 L 159.744 -22.958 Q 161.946 -22.958 163.644 -23.367 Q 165.343 -23.776 166.286 -25.16 Q 167.23 -26.544 167.23 -29.5 Q 167.23 -32.519 165.814 -34.186 Q 164.399 -35.853 162.198 -35.853 Z" transform="matrix(1, 0, 0, 1, 1.34375, 65)"/>
    <path d="M 197.103 -39.753 L 197.103 -33.337 Q 196.411 -33.84 195.404 -34.343 Q 194.398 -34.847 192.762 -34.847 Q 190.184 -34.847 188.674 -32.865 Q 187.164 -30.884 187.164 -26.921 L 187.164 0 Q 183.139 -0.252 180.245 -0.881 L 180.245 -33.651 Q 180.308 -35.79 179.931 -37.394 Q 179.553 -38.998 178.862 -40.256 L 186.724 -40.256 Q 186.724 -40.256 186.787 -39.344 Q 186.85 -38.432 186.944 -37.174 Q 187.039 -35.916 187.101 -34.721 L 187.73 -34.721 Q 188.8 -38.054 190.435 -39.627 Q 192.071 -41.199 193.958 -41.199 Q 195.216 -41.199 196.033 -40.791 Q 196.851 -40.382 197.103 -39.753 Z" transform="matrix(1, 0, 0, 1, 1.34375, 65)"/>
    <path d="M 223.203 -7.8 L 223.203 -1.384 Q 221.63 -0.755 220.278 -0.377 Q 218.925 0 217.101 0 Q 213.893 0 210.843 -1.038 Q 207.792 -2.076 205.307 -4.623 Q 202.823 -7.171 201.376 -11.605 Q 199.93 -16.039 199.93 -22.833 Q 199.93 -28.242 201.565 -32.362 Q 203.2 -36.482 206.44 -38.841 Q 209.679 -41.199 214.397 -41.199 Q 218.171 -41.199 220.749 -39.501 Q 223.328 -37.803 224.649 -35.13 Q 225.97 -32.456 225.97 -29.5 Q 226.285 -23.776 222.448 -20.631 Q 218.611 -17.486 211.314 -17.486 Q 210.245 -17.486 209.207 -17.549 Q 208.169 -17.612 207.289 -17.801 Q 207.792 -13.901 208.956 -11.479 Q 210.119 -9.058 211.629 -7.737 Q 213.139 -6.416 214.742 -5.944 Q 216.346 -5.472 217.73 -5.472 Q 219.24 -5.472 220.435 -6.038 Q 221.63 -6.604 223.203 -7.8 Z M 213.768 -35.853 Q 210.811 -35.853 208.893 -32.519 Q 206.974 -29.186 206.974 -22.958 L 211.314 -22.958 Q 213.516 -22.958 215.214 -23.367 Q 216.913 -23.776 217.856 -25.16 Q 218.8 -26.544 218.8 -29.5 Q 218.8 -32.519 217.384 -34.186 Q 215.969 -35.853 213.768 -35.853 Z" transform="matrix(1, 0, 0, 1, 1.34375, 65)"/>
  </g>
</svg>
