<svg xmlns="http://www.w3.org/2000/svg" viewBox="0 0 751 340"><defs><style>.a{fill:#a2120f;}.b{fill:#fff7b2;stroke:#a2120f;stroke-miterlimit:22.93;}</style></defs><title>title</title><path class="a" d="M108,288.9a33.8,33.8,0,0,1-2.1,11.1c-1.6,4.1-3.1,6.9-4.7,8.3a19.5,19.5,0,0,1-4.2,1.9,2.8,2.8,0,0,0-2.3,2.8c0,4,1.9,7.6,5.8,10.6s5.8,5,5.8,5.9a12.1,12.1,0,0,1-1,2,5.2,5.2,0,0,1-4.1,2.1c-3.1,0-6.2-2.3-9.1-6.9A32.2,32.2,0,0,1,87.2,309V271.2c0-8-2.2-16.5-6.5-25.6S70,229.9,63.6,229.9c-.7,0-2.4,1.1-4.9,3.1s-3.6,3-5.6,4.9a74.4,74.4,0,0,0-6.2,6.3V317a21,21,0,0,0,1.7,7.5c.5,1,1,2,1.5,2.8a21,21,0,0,0,1.5,2.2c-.3.6-.7,1.1-1,1.6a1.5,1.5,0,0,1-1.3.7l-4.5-1.3a26.7,26.7,0,0,0-5.2-1.5H35.4a8.7,8.7,0,0,0-3.2.9L28,331.8a2.2,2.2,0,0,1-1.7-.7,3.7,3.7,0,0,1-1.1-2.7c0-.7.6-1.8,1.8-3.6l1.9-2.7a5,5,0,0,0,.4-1.3,5.8,5.8,0,0,0,.1-1.5,8.6,8.6,0,0,1-.1-1.5v-1.1a9.4,9.4,0,0,1,1-4.3V255.7h-.9c.1-1,.1-2.3.2-3.8s.1-2.4.1-2.8a9.9,9.9,0,0,0-.3-3.2h.9a23.6,23.6,0,0,0-1.2-7.5c-1.1-3.3-2.7-5-4.8-5a5,5,0,0,0-2.9.8,2.6,2.6,0,0,1-1.8.9,1.7,1.7,0,0,1-1.4-.5c-.3-.3-.4-1.3-.4-3s1.8-3.4,5.6-7.1l14.3-14c2.4,1.4,4.4,4.2,6,8.3l4.2,14,23.6-21.7a42.6,42.6,0,0,1,21.1,16.2,78.6,78.6,0,0,1,5.8,9.4,47.2,47.2,0,0,1,4.2,11.3l2.7,11.1c.3.9.6,1.7.8,2.4l.6,1.9a34.5,34.5,0,0,1,1.3,8.4Z"/><path class="a" d="M174.4,292.5c0,10.9-3.9,20.8-11.7,29.6s-12.9,11.5-18.3,11.5c-8.6,0-16-4.7-22.2-13.9-5-7.5-7.5-13.9-7.5-19.4v-7.8c0-7.7,3-16.2,9-25.8s12.4-15,18.4-15h5.5c5.4,0,11,3.7,16.9,11.2A46.8,46.8,0,0,1,174.4,292.5Zm-9.2,14.1v-8l-4-8.6a62.7,62.7,0,0,0-4.8-8.6,47.2,47.2,0,0,0-5.2-6.7c-4.9-5.4-10.2-8.1-15.7-8.1-3,0-5.7,1.6-8,4.8a17.8,17.8,0,0,0-3.5,11.2c0,7.2,3.6,14.9,10.7,23.2s13.6,12.3,19.3,12.3a8.5,8.5,0,0,0,6.4-3.2Z"/><path class="a" d="M222.9,250.7c0,7.8-3.4,13.5-10.3,17.1a38.7,38.7,0,0,1-10.4,3v31.3q0,8.5,4.5,12.3a12.1,12.1,0,0,0,8.1,2.6h1.7l1.5-.2a3.3,3.3,0,0,1,2.3.6c.5.3.7,1,.7,2s-2.9,3-8.7,7.5-9.2,6.8-10.1,6.8-4.2-2.2-8.5-6.4-7.5-9-7.5-12.7V269.6a2.6,2.6,0,0,0-1.5.1,6,6,0,0,0-1.3.9l-.9,1-.6.4c0-.1,0-.3.1-.3s-.6,0-1.6.3v-5.4a41.4,41.4,0,0,1,5.7-11.1,5,5,0,0,0,1.1-2.6V239.2q0-12,1.5-14.4c.7-1.2,4.8-3.9,12.1-8.3h1.4v35.3h9.7a9.8,9.8,0,0,0,5.6-1.4L221,247c.4,0,.8.4,1.2,1.1A4.4,4.4,0,0,1,222.9,250.7Z"/><path class="a" d="M265.1,281.3h-1.4a25.1,25.1,0,0,1-.2-3c0-.7.1-1.6.1-2.8s.1-2,.1-2.5a6.4,6.4,0,0,0-.8-3.7c-.6-1.1-2-1.6-3.9-1.6s-2.6,1.1-4.2,3.3-2.5,4-2.5,5.6v45.3a7.2,7.2,0,0,0,2.1,5c1.4,1.7,2.2,3.2,2.2,4.3s-.3,1.7-.7,1.9a2.9,2.9,0,0,1-1.7.5,18.2,18.2,0,0,0-3.7-2.4,10.7,10.7,0,0,0-4.9-1.1,14.1,14.1,0,0,0-5.7,1.1l-4.7,2.4H234l-1.2-2.4,1.4-2.1,1-1.4c1.6-2.7,2.4-4.9,2.4-6.4V277.1c0-3.6-1.1-6.3-3.3-7.9l-7.2-3.3c0-.9,2.1-3.5,6.4-7.7s6.7-6.4,7.3-6.4a10,10,0,0,1,2.2,1.5,30.6,30.6,0,0,1,8.3,12.1c.8-.3,2.5-2.6,5.3-6.9s5.4-6,9-6a29.3,29.3,0,0,1,6.6,1.6q5.4,1.7,6.3,3Z"/><path class="a" d="M338,268.8c0,1-2.5,3.6-7.6,7.8l-6.6,5.3c-2.4,1.9-5.1,3.8-8,5.9l-9.8,6.9-6.7,4.8c-1.6,1.1-2.3,1.9-2.3,2.3l2.5,3.8a12.1,12.1,0,0,0,2.3,2.6c4.3,4.4,9,6.5,14.2,6.5a15,15,0,0,0,10.9-4.4l7.7-9.7c.9,0,1.4.3,1.6,1a8,8,0,0,1,.4,3c0,6.3-2.8,12.7-8.3,19.2s-10.5,9.8-15.1,9.8h-6.7c-4.3,0-9.3-3.8-14.7-11.5s-8.2-14.7-8.2-21.5V284.7c0-6.4,2.7-13.4,8.1-20.9s11.5-12.1,17.2-12.1h4.8c2.2,0,6.8,2.6,13.7,7.8S338,267.8,338,268.8Zm-18.1,7.7c-3.1-1.8-6.7-6.1-11-12.7a6,6,0,0,0-5.3-3.2c-2.5,0-4.7,1.5-6.7,4.4l-2.4,5.2c-.8,1.7-1.6,3.4-2.3,5.1V287c.5.4.9,1.3,1,2.9a9,9,0,0,0,2.4,4.8c.4-.8,3.2-2.9,8.1-6.6,2.8-1.8,5.5-3.8,8.1-5.7Z"/><path class="a" d="M473,275.5c0,4.7-1,10.7-2.8,18a86.8,86.8,0,0,1-6.6,18.3,42.9,42.9,0,0,1-4.9,7.4,63.7,63.7,0,0,1-7.2,7.9q-10.7,9.9-18.3,9.9h-4.1a15.8,15.8,0,0,1-6.9-1.6,23.8,23.8,0,0,1-6.9-5.5l-11.6-13.3a24.6,24.6,0,0,0-6.7-5.5,13.1,13.1,0,0,0-6.2-1.8c-5,0-8,2.9-9.1,8.8s-2.7,8.7-4.7,8.7a1.7,1.7,0,0,1-1.7-1.3,7.1,7.1,0,0,1-.6-3.1,14.5,14.5,0,0,1,1.4-5.9,21.2,21.2,0,0,1,4.3-5.9l10.5-10.4a19.2,19.2,0,0,0,4.4-6.5,18.7,18.7,0,0,0,1.3-6.9V275.5c0-10.4-2.2-16-6.7-16.6-2.2-.4-3.2-1.3-3.2-2.6a2.1,2.1,0,0,1,.4-1.5c.2-.5.9-.7,1.9-.7h4a18.6,18.6,0,0,0,5-.8,22.7,22.7,0,0,0,5.9-2.6l12.4-7.3c.9,0,1.3.7,1.3,2.2s-.7,2.1-2.1,3.7a7.5,7.5,0,0,0-1.9,4.8v31a7.2,7.2,0,0,0,1.3,4.2,5.4,5.4,0,0,1,1.4,2.6c0,.9-1.4,1.9-4.3,2.8a10.9,10.9,0,0,0-7.1,5.6l.9.3,1.3.2h5.6a10.8,10.8,0,0,1,4.7,1.3,17.7,17.7,0,0,1,5.2,4c1.6,1.7,3.2,3.3,4.7,5l4.6,4.8c3.6,3.6,6.9,5.4,10,5.4,5.4,0,10.6-4.4,15.6-13.1s7.2-15.9,7.2-23.1V280c0-10.5-2.8-19.7-8.4-27.5s-11.9-12-18.6-12H420.9l-5.5,1.1a46,46,0,0,1-7.3,1.1H395.7a14.6,14.6,0,0,1-9.5-3.2,11.7,11.7,0,0,1-4.6-9.8,21.2,21.2,0,0,1,2.9-10.7q3-5.1,6.3-5.1c.6,0,1.1.8,1.4,2.3.9,3.4,3.1,5.1,6.7,5.1s8.7-1.4,12.9-1.9a71.7,71.7,0,0,1,10-.9h16.9c10.1,0,18.5,5.1,25.2,15.4a50.9,50.9,0,0,1,9.1,29.2Z"/><path class="a" d="M537.7,330.5c-4.8,3.9-7.4,5.9-7.9,5.9s-3.6-1.3-5.4-4l-5.5-8.9c-.2,0-3.1,2.2-8.5,6.8s-8.5,6.7-9.2,6.7c-4.7,0-9.6-3-14.7-9.1s-9-15.9-9-26.2,3.9-19.3,11.8-29.8,17-16.7,25.8-16.7c1.8,0,4.5,1.5,8.2,4.7s6.4,4.6,8,4.6,5.1-1.9,9-5.8h1.9v2.4a69.3,69.3,0,0,0-6.2,10.6,27.6,27.6,0,0,0-2.9,12.4v26.5q0,7.8,5.7,10.5c3.8,1.9,5.8,3,5.8,3.6Zm-12.2-50.6a4,4,0,0,0-2.4-.7l-1.5.2-1.3.5c-2.7,0-5.7-2-9.1-5.9s-6.1-5.9-8.1-5.9-5.8,2-8,5.9a27,27,0,0,0-3.3,13.5,13.2,13.2,0,0,1-.5,2,9.7,9.7,0,0,0-.5,2.7c0,5.4,2.3,11.8,7,19.2,3.4,5.7,7.4,8.5,12,8.5a12.6,12.6,0,0,0,5.5-1.3l3.1-1.6V293.5l1.1-1.9.9-1.7,2.4-5.1,2.7-6.6Z"/><path class="a" d="M655.4,328.2c0,.5-1.9,2.5-5.7,5.8s-5.8,4.9-6.2,4.9-4.1-2.2-7.2-6.4-4.4-7.9-4.4-11c.1-1,.2-2.8.3-5.2s.2-5.4.3-9.3.3-7.9.3-12.2.1-8.8.1-13.5c0-1.9-.8-4.1-2.4-6.7s-3.8-4.5-5.7-4.5-3.2,1.6-7.3,4.9-6.3,5.3-6.3,6.3v43.3c0,.2.2.6.4,1.4s.6,1.7,1.1,3,1,2.4,1.4,3.4l1.1,2.8a3,3,0,0,1-1.6.7.6.6,0,0,1-.6-.3c-.1-.3-.2-.4-.3-.4H610a9,9,0,0,1-2.8-.8l-1-.3-1.1-.5-2.6.6a9.9,9.9,0,0,0-2.7,1l-2.5,1.3h-2.8v-2.3c.6-2.5,1.1-5.1,1.6-7.7a39.6,39.6,0,0,0,.7-7.2V281.9a11.9,11.9,0,0,0-3.5-8.5q-2.8-3-5.1-3l-3.2,2.4-2.2,1.9c-3.7,3.4-5.6,5.8-5.6,7.2v41c0,3.9.5,6.7,1.6,8.2s1.7,2.8,1.7,3.5-.6,2.4-1.8,2.4-2-.8-4.8-2.3a8.6,8.6,0,0,0-4.4-1.2,12.2,12.2,0,0,0-3.5,1.4,11.4,11.4,0,0,1-4.1,1.5l-1.9-.2q-.6-.4-.6-2.1a23.7,23.7,0,0,0,2-5.3,36.7,36.7,0,0,0,.9-9V280a11.2,11.2,0,0,0-2-5.7c-1.3-2.2-2.7-3.2-4.1-3.2a8.8,8.8,0,0,0-2.4.3l-1.9.5c-.4,0-.6-.3-.6-.8s2.4-4.9,7.3-9.4l3-2.8,4.3-3.7c1.7,0,4.2,2.9,7.3,8.8l1.8,3.7c.6,1.5,1.3,3.2,2.2,5.2l19.6-17.7c2.3,0,5.5,2.8,9.6,8.5l2.4,3.5,3,5.1,21.1-17.7c3.3,1.8,6.5,5,9.7,9.6s5.2,9.1,5.2,12.9v34.4c0,6.1.5,10.2,1.7,12.4a3.4,3.4,0,0,0,3.4,1.9,3.4,3.4,0,0,1,2,.4A2.8,2.8,0,0,1,655.4,328.2Z"/><path class="a" d="M720.2,272.3c0,1-2.5,3.6-7.5,7.7l-6.6,5.3c-2.5,1.9-5.1,3.9-8.1,5.9l-9.7,6.9-6.8,4.9c-1.5,1.1-2.3,1.9-2.3,2.3l2.6,3.7a16,16,0,0,0,2.2,2.7c4.3,4.3,9.1,6.5,14.2,6.5a15.7,15.7,0,0,0,11-4.4l7.7-9.8a1.5,1.5,0,0,1,1.6,1.1,10.8,10.8,0,0,1,.4,3c0,6.2-2.8,12.6-8.3,19.2s-10.5,9.7-15.1,9.7h-6.7q-6.6,0-14.7-11.4c-5.5-7.6-8.2-14.7-8.2-21.6V288.2q0-9.6,8.1-21c5.7-8,11.5-12,17.2-12H696c2.1,0,6.7,2.6,13.7,7.7S720.2,271.2,720.2,272.3Zm-18.1,7.6c-3-1.8-6.7-6-10.9-12.7a6.3,6.3,0,0,0-5.3-3.2c-2.5,0-4.8,1.5-6.8,4.5l-2.4,5.1-2.2,5.2v11.7c.5.3.8,1.3,1,2.8s.8,3,2.3,4.8c.5-.7,3.2-2.9,8.2-6.5l8.1-5.8Z"/><path class="a" d="M56.4,37.5a38.2,38.2,0,0,1-1.5,9.4,51.3,51.3,0,0,1-3.6,9.6,28.2,28.2,0,0,1-2.7,4,37.9,37.9,0,0,1-4,4.1c-3.9,3.5-7.2,5.2-10,5.2H32.4a8.8,8.8,0,0,1-3.8-.9A10.7,10.7,0,0,1,24.9,66l-6.4-6.9a13,13,0,0,0-3.7-2.9,7.5,7.5,0,0,0-3.4-.9c-2.7,0-4.3,1.5-5,4.5S5,64.4,3.9,64.4a1.1,1.1,0,0,1-1-.6,4.3,4.3,0,0,1-.3-1.7A7.5,7.5,0,0,1,3.4,59a10.8,10.8,0,0,1,2.3-3.1l5.8-5.4A10,10,0,0,0,13.9,47a9.2,9.2,0,0,0,.7-3.6V37.5c0-5.5-1.2-8.4-3.7-8.7s-1.7-.7-1.7-1.4a1.1,1.1,0,0,1,.2-.8,1.2,1.2,0,0,1,1-.4h2.3a9.3,9.3,0,0,0,2.7-.4,13.5,13.5,0,0,0,3.2-1.3l6.8-3.9c.5,0,.7.4.7,1.2A3.5,3.5,0,0,1,25,23.7a3.7,3.7,0,0,0-1.1,2.5V42.5a3.6,3.6,0,0,0,.7,2.2,4.2,4.2,0,0,1,.8,1.4q0,.8-2.4,1.5a6.2,6.2,0,0,0-3.9,2.9l.5.2h3.8a6.5,6.5,0,0,1,2.6.6,12.7,12.7,0,0,1,2.8,2.2,31.9,31.9,0,0,1,2.6,2.6l2.5,2.5c2,1.9,3.8,2.8,5.5,2.8s5.8-2.3,8.5-6.8,4-8.4,4-12.2V39.9a23.3,23.3,0,0,0-4.7-14.5c-3.1-4.2-6.4-6.3-10.1-6.3H27.9l-3,.6-4,.6H14.1a8.5,8.5,0,0,1-5.2-1.7,6.1,6.1,0,0,1-2.5-5.2A10.6,10.6,0,0,1,8,7.8c1.1-1.7,2.2-2.6,3.4-2.6s.6.4.8,1.1A3.4,3.4,0,0,0,15.9,9l7-1a41.6,41.6,0,0,1,5.5-.4h9.2c5.5,0,10.1,2.7,13.8,8a26.7,26.7,0,0,1,5,15.4Z"/><path class="a" d="M88.6,35.8c0,.5-1.4,1.9-4.2,4.1l-3.6,2.8-4.4,3.1-5.3,3.6-3.7,2.5c-.9.6-1.3,1-1.3,1.2l1.4,2a8.7,8.7,0,0,0,1.2,1.4,11,11,0,0,0,7.8,3.4,8.8,8.8,0,0,0,6-2.3l4.2-5.1c.5,0,.8.2.9.5a6.3,6.3,0,0,1,.2,1.6c0,3.3-1.5,6.6-4.5,10.1s-5.8,5.1-8.3,5.1H71.4q-3.6,0-8.1-6c-3-4-4.5-7.7-4.5-11.3V44.1c0-3.3,1.5-7,4.4-10.9s6.3-6.4,9.5-6.4h2.6c1.2,0,3.7,1.4,7.5,4.1S88.6,35.2,88.6,35.8Zm-9.9,4c-1.7-.9-3.7-3.2-6-6.6a3.4,3.4,0,0,0-2.9-1.7,4.4,4.4,0,0,0-3.7,2.3l-1.3,2.7c-.5.9-.9,1.8-1.3,2.7v6.2q.4.1.6,1.5a4,4,0,0,0,1.3,2.5c.2-.4,1.7-1.6,4.4-3.5s3-2,4.4-3Z"/><path class="a" d="M112.3,42.3h-.8c0-.4-.1-.9-.1-1.5s.1-.9.1-1.5V38a3.2,3.2,0,0,0-.4-1.9,2.4,2.4,0,0,0-2.2-.9c-.6,0-1.4.6-2.3,1.8a4.8,4.8,0,0,0-1.3,2.9V63.7a4,4,0,0,0,1.1,2.6,3.9,3.9,0,0,1,1.2,2.3,1.3,1.3,0,0,1-.3,1l-1,.2-2-1.2a6,6,0,0,0-2.7-.6,7.5,7.5,0,0,0-3.1.6l-2.6,1.2h-.6l-.7-1.2.8-1.1.5-.8a6.6,6.6,0,0,0,1.3-3.4V40.1A4.7,4.7,0,0,0,95.4,36l-3.9-1.7c0-.5,1.2-1.9,3.5-4.1s3.7-3.3,4-3.3a3.1,3.1,0,0,1,1.2.8,15,15,0,0,1,4.5,6.3c.5-.1,1.4-1.3,2.9-3.6s3-3.2,5-3.2a22.4,22.4,0,0,1,3.6.8c1.9.7,3.1,1.2,3.4,1.7Z"/><path class="a" d="M272,194.5a20.6,20.6,0,0,1-1.2,5.7,30.9,30.9,0,0,1-4.8,9.6l-.6.7-.7,1.1c-1.2,1.8-2.4,3.6-3.5,5.4a35,35,0,0,1-4.1,5.4l-1.1,1.3a18.1,18.1,0,0,1-3.2-1.9,26.7,26.7,0,0,1-5.9-4.8c-2.1-2.4-3.2-4.7-3.2-7V193.4c0-2.1-.3-3.6-.9-4.3a2.6,2.6,0,0,0-2-.8h-.9c-.8,0-1.1-.4-1.1-1.2s1.4-1.7,4.1-3.6l4.3-2.9c.5,0,1.1.7,2.1,2a10.8,10.8,0,0,1,1.7,5.7v16.4a9.2,9.2,0,0,0,3.9,7.6,16.2,16.2,0,0,0,3.9,2.2,44.2,44.2,0,0,0,3.2-4.7,21.3,21.3,0,0,0,3.3-10.7,13.7,13.7,0,0,0-1.7-6c-1-2.2-2.2-3.3-3.4-3.3h-2.8c0-.1-.1-.3-.4-.7a1.6,1.6,0,0,1-.3-.8c0-.5,1.7-2.1,5-4.9s3-2.2,3.6-2.2,1.8,1,3.5,3a12.4,12.4,0,0,1,3.2,8Z"/><path class="a" d="M308,202a22.5,22.5,0,0,1-6.4,15.6c-3.7,4-7,6-10,6-4.7,0-8.8-2.4-12.2-7.3s-4.1-7.3-4.1-10.2V202c0-4,1.7-8.5,4.9-13.5s6.9-7.9,10.1-7.9h3c3,0,6.1,2,9.3,5.9A23.8,23.8,0,0,1,308,202Zm-5,7.4v-4.2l-2.2-4.5a31.5,31.5,0,0,0-2.7-4.5,25.3,25.3,0,0,0-2.8-3.5c-2.7-2.8-5.6-4.3-8.6-4.3a5.7,5.7,0,0,0-4.4,2.6,8.8,8.8,0,0,0-1.9,5.8c0,3.8,2,7.9,5.9,12.2s7.4,6.4,10.6,6.4a4.4,4.4,0,0,0,3.4-1.6Z"/><path class="a" d="M350.8,218.5c0,.3-1.1,1.4-3.4,3.1a26,26,0,0,1-3.4,2.6c-.4,0-1.5-.9-3.3-2.6s-3-3.7-3-4.9V196.6a7.6,7.6,0,0,0-.9-4,19.4,19.4,0,0,0-3.9-4.1L325,194v23.3c0,2.1.2,3.3.8,3.8s.5.7.5,1.5v1h-1.9a1.3,1.3,0,0,0-.7-.5A7,7,0,0,0,320,222a9.1,9.1,0,0,0-4,1.6h-1c0-.2-.1-.4-.1-.6v-.4a1.3,1.3,0,0,0,.1-.6,17,17,0,0,1,.9-3.5,18.6,18.6,0,0,0,.9-3.4V192.8a4.2,4.2,0,0,0-2.8-4.2c-1.8-.7-2.7-1.3-2.7-1.7a2.9,2.9,0,0,1,.9-1.3,16.4,16.4,0,0,1,2.6-2.3l3.6-2.7a3.2,3.2,0,0,1,2.1.9,10.5,10.5,0,0,1,2.1,3l2.6,5.5,12.8-9.1a16.3,16.3,0,0,1,5.5,5.2c1.9,2.8,2.9,5.3,2.9,7.6v17.7c0,3.8.7,5.8,2.2,5.9S350.8,217.8,350.8,218.5Z"/><path class="a" d="M244.5,99.9l-1.1,5.8a39.8,39.8,0,0,1-2.6,7.3,63.6,63.6,0,0,1-3.9,7.2,83.5,83.5,0,0,1-16.8,19.4c-2.3,1.9-4.5,3.8-6.8,5.5a78.6,78.6,0,0,1-6.7,4.5c-7.5,4.7-13.6,7-18.2,7H177.8l-4.5-.8a33.3,33.3,0,0,1-10.6-4.3,64.7,64.7,0,0,1-9.8-7.4c-8.8-7.9-15.4-16.4-19.6-25.3a64.1,64.1,0,0,1-6.4-28c0-5.1,1.5-12.3,4.6-21.6s6.5-16.3,10.3-21.3a85.6,85.6,0,0,1,20.8-19.3,81.7,81.7,0,0,1,9.5-5.6c3.3-1.6,6.7-3.1,10.2-4.4,5.4-2,9-3,11.1-3h8.9a19,19,0,0,1,5.7,1,43.3,43.3,0,0,1,7.6,3.2l4.2,2.2,4.1,2.2c1.1,0,1.9-.7,2.4-2.3s1.2-2.3,2.1-2.3a3.4,3.4,0,0,1,2.4,1.4,3.4,3.4,0,0,1,1.4,2.5l-5.1,8.4q-2.2,3.6-3.6,6-9,14.9-9,15.9c0,1.1,1.2,1.9,3.4,2.4,6.9,1.9,12.2,4.8,16,8.8a43.5,43.5,0,0,1,7,10.1c2.4,4.4,3.6,7.9,3.6,10.3Zm-18.3,2.7c0-5.1-2.4-11.3-7.1-18.6s-8-10.6-10.7-11.7c-.6,1-1,1.9-1.4,2.6a8.8,8.8,0,0,0-.8,2.6h-3.9l-1.4-1.7a3.3,3.3,0,0,1-.3-1.5,13.1,13.1,0,0,1,.3-3.3,3.9,3.9,0,0,1,1.4-2V66.9c-1.3-.3-2.6-.8-3.8-1.2a7.3,7.3,0,0,0-2.3-.7h-5.5l-3.6,3.3a8.8,8.8,0,0,0-2.5,6.7,9.1,9.1,0,0,0,3,6.7l1.4,1.2c.4,0,1.1-.5,2.1-1.4a4.2,4.2,0,0,1,2.9-1.3c1.5,0,2.2,1.3,2.2,3.9a6.8,6.8,0,0,1-2.3,4.8c-1.5,1.4-2.9,2.9-4.2,4.3a22.1,22.1,0,0,0-3.4,4.8l-6.7,11.8a5.4,5.4,0,0,1-1.7,2.1,3.2,3.2,0,0,1-1.7.6,6.5,6.5,0,0,1-2.4-.4,1.4,1.4,0,0,1-.6-1.2,4.2,4.2,0,0,1,.6-1.4l.2-.3a1.2,1.2,0,0,1-.8-1.1,8.7,8.7,0,0,1,.8-2.8c-.9-.7-2.3-2.8-4.1-6.5a60.1,60.1,0,0,0-3.1-6.1V82.2a91,91,0,0,1,6.5-13.6,22,22,0,0,1,9-8.9,53.7,53.7,0,0,1,15-5.2q9.3-1.5,11.7-3.9V47.9l-6.9-3.5L197,42c-8.8-4-14.9-5.9-18.6-5.9h-5.6c-6.3,0-13.1,4.5-20.3,13.5s-10.7,17.6-10.7,25.9c0,13.7,6.8,27.4,20.3,41.4s24.9,20,35.8,20h6.7c4.2,0,8.9-3,14-9s7.6-11.6,7.6-16.7Z"/><path class="a" d="M282.9,18.3c-.7.9-1.4,1.7-1.9,2.5a14.5,14.5,0,0,0-1.2,1.9c-2.2,3.5-3.2,6.4-3.2,8.6V134.8c0,7.3,1,12.3,2.9,14.9a6.3,6.3,0,0,1,1.6,4.2c0,1.2-.3,1.9-.8,2.2a3.3,3.3,0,0,1-2.1.5,32.2,32.2,0,0,1-4.6-2q-4.2-2.1-5.7-2.1a16.1,16.1,0,0,0-5.9,1.4l-6.7,2.7H253v-4.8c1-1.1,2-3.4,3-7a31.9,31.9,0,0,0,1.6-7.2V43.5a9.5,9.5,0,0,0-3.5-7,4.5,4.5,0,0,1-1.6-3.1l6.8-5.2,5-3.7c8.4-5.9,13.6-8.9,15.7-8.9a2.3,2.3,0,0,1,1.9.9C282.2,16.6,282.5,17.2,282.9,18.3Z"/><path class="a" d="M357.2,109.5c0,12.5-4.6,23.9-14,34s-15.3,13.1-21.8,13.1c-10.3,0-19.2-5.3-26.5-15.9-6-8.6-8.9-15.9-8.9-22.2v-9c0-8.7,3.5-18.5,10.7-29.5s14.8-17.2,21.9-17.2h6.6c6.5,0,13.2,4.3,20.2,12.9A51.8,51.8,0,0,1,357.2,109.5Zm-11,16.2v-9.1l-4.8-9.9a76,76,0,0,0-5.7-9.9,72.2,72.2,0,0,0-6.1-7.6c-6-6.2-12.2-9.3-18.8-9.3-3.6,0-6.8,1.8-9.6,5.5A20.3,20.3,0,0,0,297,98.2c0,8.3,4.3,17.2,12.8,26.6s16.2,14.1,23.1,14.1a10.3,10.3,0,0,0,7.6-3.7ZM329.8,33.4c0,2.9-3.2,7-9.5,12.4l-12,10.1H305V53.1l7.6-20.7a17.2,17.2,0,0,1,3.9-6.5,7,7,0,0,1,4.9-2.1c2.3,0,4.2,1.1,5.9,3.4A10.3,10.3,0,0,1,329.8,33.4Zm21.2,1c0,3-3.2,7.1-9.6,12.4l-12,10.1h-3.3V54.1l7.6-20.7a16.9,16.9,0,0,1,3.9-6.6,7.5,7.5,0,0,1,4.9-2c2.3,0,4.3,1.1,6,3.4A11,11,0,0,1,351,34.4Z"/><path class="a" d="M427.1,130.7c0,4.7-2.8,10-8.5,15.9s-13.5,10-20.7,10c-10.4,0-18.9-5.1-25.6-15.5-5.3-8.3-7.9-15.9-7.9-23V102.8c0-7.7,3.3-16,9.8-25.1s15-14.9,23.2-14.9a20.8,20.8,0,0,1,4.4.7,25.4,25.4,0,0,1,6.1,2.4l6.3,3.1h4.5a3,3,0,0,0,2-.8c1.7-1.3,2.9-2,3.6-2a2.5,2.5,0,0,1,2.8,2.8c0,2.1-1.8,5.3-5.3,9.6s-8.1,7.5-11.6,7.5-8.8-1.8-15.8-5.3c-3.3-1.8-6.1-2.7-8.3-2.7-3.7,0-6.9,2-9.7,6.2s-3.1,5.8-3.1,7.7v7.4c0,5.7,3.2,12.6,9.6,20.6s12.9,12.6,18.4,12.6h7.3a9.2,9.2,0,0,0,3.8-.9,27.5,27.5,0,0,0,3.8-2.5,29.2,29.2,0,0,0,3.7-3.4l3.8-3.7h3.4Z"/><path class="a" d="M508.2,145.1c0,1.4-2.6,3.8-7.7,7.3l-3.2,2.1a40.1,40.1,0,0,1-4.5,2.8q-2.4,0-4.8-2.7c-1.6-1.7-3-4.5-4.2-8.3l-6.7-20.6q-3.6-11.1-7.8-11.1a8.8,8.8,0,0,0-3.9,1.4,41.6,41.6,0,0,0-8.1,6.8v20.3c0,1,.7,2.8,2,5.2s2,4.1,2,4.9v2.7h-5.1l-4.7-2.2a10.4,10.4,0,0,0-3.8-1.2,7.4,7.4,0,0,0-3,1.2l-5.6,2.9h-2.4V152a38.6,38.6,0,0,0,1.9-5.4c.6-1.8,1.1-3.4,1.4-4.7s.7-2.5.9-3.4a4.6,4.6,0,0,1,.5-1.5V46.2c0-.9-1.4-3-4.1-6.2s-3.9-5-3.9-5.4.9-2.3,2.6-2.9c5.5-2.2,8.8-3.9,9.9-5.2a57.6,57.6,0,0,1,7.1-6.4c3.4-2.5,5.8-3.8,7.2-3.8a3.3,3.3,0,0,1,2.1,1,3,3,0,0,1,1.3,2.4c-1.7,1-3.1,2.9-4.4,5.5s-1.9,6.2-1.9,10.7V85.4h2.9c1.7-1.9,5.9-5.3,12.5-10.1,8.4-6.3,14-9.5,16.7-9.5s3.4,1.1,3.4,3.4-.3,1.8-.9,2-.9,1-.9,2.8,2.3,4.3,3.3,6.5a17.8,17.8,0,0,1,1.4,7c0,3.7-1.8,6.8-5.5,9.5s-5.5,4.4-5.5,5.5a11,11,0,0,1,2.5,2.4,17.7,17.7,0,0,1,3,4.3c.9,1.8,1.9,4.1,2.9,6.7a91.7,91.7,0,0,1,2.6,9.6,64.5,64.5,0,0,0,1.9,7.6,17.6,17.6,0,0,0,1.9,4.8q2.7,4.5,8.7,4.5ZM479.6,92.9a6,6,0,0,0-1.4-3.1c-.9-1.4-1.4-4-1.4-7.8H475L457.9,95.7v15.5a23.4,23.4,0,0,0,5.4-2.8c2.1-1.4,4.5-3.2,7.3-5.4C476.6,98.4,479.6,95,479.6,92.9Z"/><path class="a" d="M602,145.6c0,.7-2.4,2.9-7.3,6.8-1.6,1.3-4.1,3.1-7.5,5.5-.9,0-3.3-1.9-7.2-5.6s-6.6-8-6.6-10.8V97.7c0-3.7-.6-6.6-1.9-8.6s-4.1-5.3-8.6-9.1L545.6,92v50.9c0,4.6.6,7.3,1.9,8.2s1.1,1.7,1.1,3.4v2.1h-4.2a4.4,4.4,0,0,0-1.6-1.1,14.9,14.9,0,0,0-8-2.3c-2.2,0-5.1,1.2-8.7,3.4h-2.3c0-.4-.1-.8-.1-1.2a3.4,3.4,0,0,1-.1-1,2.5,2.5,0,0,0,.2-1.2c0-1.1.7-3.6,1.9-7.6s2.1-6.7,2.1-7.5V89.5a9.3,9.3,0,0,0-6.1-9.2c-4-1.6-5.9-2.8-5.9-3.8s.6-1.4,1.9-2.7a35.9,35.9,0,0,1,5.8-5l7.7-6a7.3,7.3,0,0,1,4.8,2.1,21.5,21.5,0,0,1,4.4,6.4l5.8,12.1L574,63.6c3.9,1.8,7.9,5.6,12,11.2s6.3,11.7,6.3,16.7V130c0,8.4,1.6,12.8,4.9,12.9S602,144,602,145.6Z"/><path class="a" d="M675.6,82.4c0,1.2-3,4.1-9.1,8.9-2.3,1.9-5,3.9-7.9,6.1s-6,4.4-9.5,6.8l-11.7,7.9-8,5.5c-1.9,1.3-2.8,2.2-2.8,2.6l3,4.3a22.2,22.2,0,0,0,2.7,3.1c5.2,5,10.8,7.4,17,7.4a18.7,18.7,0,0,0,13.1-5l9.1-11.2a1.8,1.8,0,0,1,2,1.2,10.8,10.8,0,0,1,.4,3.5c0,7.1-3.3,14.5-9.9,22s-12.5,11.1-18,11.1h-8c-5.2,0-11.1-4.3-17.6-13.1s-9.7-16.9-9.7-24.7V100.6c0-7.3,3.2-15.3,9.6-23.9s13.8-13.9,20.6-13.9h5.7c2.6,0,8.1,3,16.4,8.9S675.6,81.2,675.6,82.4Zm-21.7,8.8c-3.6-2.1-8-6.9-13-14.5-1.7-2.5-3.8-3.7-6.3-3.7s-5.7,1.7-8.1,5.1-1.9,3.9-2.9,5.9l-2.7,5.9v13.4q.9.6,1.2,3.3c.1,1.6,1,3.4,2.9,5.5.5-.9,3.8-3.4,9.7-7.5l9.6-6.6Z"/><path class="a" d="M727.4,96.7h-1.7a31.1,31.1,0,0,1-.2-3.4c0-.7,0-1.8.1-3.2s.1-2.3.1-2.9a8.2,8.2,0,0,0-.9-4.2q-1.2-1.8-4.8-1.8c-1.3,0-3,1.2-5,3.8s-2.9,4.5-2.9,6.3v51.9a8.5,8.5,0,0,0,2.4,5.8c1.8,2,2.7,3.6,2.7,4.9s-.3,1.9-.8,2.2a3.3,3.3,0,0,1-2.1.5,32.2,32.2,0,0,0-4.3-2.7,13.8,13.8,0,0,0-5.9-1.2,16.9,16.9,0,0,0-6.8,1.2l-5.7,2.7h-1.4l-1.4-2.7c.6-.9,1.2-1.7,1.6-2.4l1.2-1.6c1.9-3.1,2.9-5.6,2.9-7.4V91.9c0-4.1-1.3-7.1-4-9L682,79.1c0-1.1,2.5-4,7.6-8.8s8-7.3,8.8-7.3a8.9,8.9,0,0,1,2.6,1.7,36.6,36.6,0,0,1,9.9,13.8c.9-.3,3-2.9,6.3-7.9s6.5-6.9,10.8-6.9q1.7,0,7.8,1.8c4.3,1.3,6.8,2.5,7.5,3.5Z"/><path class="b" d="M113,285.9a33.8,33.8,0,0,1-2.1,11.1c-1.6,4.1-3.1,6.9-4.7,8.3a19.5,19.5,0,0,1-4.2,1.9,2.8,2.8,0,0,0-2.3,2.8c0,4,1.9,7.6,5.8,10.6s5.8,5,5.8,5.9a12.1,12.1,0,0,1-1,2,5.2,5.2,0,0,1-4.1,2.1c-3.1,0-6.2-2.3-9.1-6.9A32.2,32.2,0,0,1,92.2,306V268.2c0-8-2.2-16.5-6.5-25.6S75,226.9,68.6,226.9c-.7,0-2.4,1.1-4.9,3.1s-3.6,3-5.6,4.9a74.4,74.4,0,0,0-6.2,6.3V314a21,21,0,0,0,1.7,7.5c.5,1,1,2,1.5,2.8a21,21,0,0,0,1.5,2.2c-.3.6-.7,1.1-1,1.6a1.5,1.5,0,0,1-1.3.7l-4.5-1.3a26.7,26.7,0,0,0-5.2-1.5H40.4a8.7,8.7,0,0,0-3.2.9L33,328.8a2.2,2.2,0,0,1-1.7-.7,3.7,3.7,0,0,1-1.1-2.7c0-.7.6-1.8,1.8-3.6l1.9-2.7a5,5,0,0,0,.4-1.3,5.8,5.8,0,0,0,.1-1.5,8.6,8.6,0,0,1-.1-1.5v-1.1a9.4,9.4,0,0,1,1-4.3V252.7h-.9c.1-1,.1-2.3.2-3.8s.1-2.4.1-2.8a9.9,9.9,0,0,0-.3-3.2h.9a23.6,23.6,0,0,0-1.2-7.5c-1.1-3.3-2.7-5-4.8-5a5,5,0,0,0-2.9.8,2.6,2.6,0,0,1-1.8.9,1.7,1.7,0,0,1-1.4-.5c-.3-.3-.4-1.3-.4-3s1.8-3.4,5.6-7.1l14.3-14c2.4,1.4,4.4,4.2,6,8.3l4.2,14,23.6-21.7a42.6,42.6,0,0,1,21.1,16.2,78.6,78.6,0,0,1,5.8,9.4,47.2,47.2,0,0,1,4.2,11.3l2.7,11.1c.3.9.6,1.7.8,2.4l.6,1.9a34.5,34.5,0,0,1,1.3,8.4Z"/><path class="b" d="M179.4,289.5c0,10.9-3.9,20.8-11.7,29.6s-12.9,11.5-18.3,11.5c-8.6,0-16-4.7-22.2-13.9-5-7.5-7.5-13.9-7.5-19.4v-7.8c0-7.7,3-16.2,9-25.8s12.4-15,18.4-15h5.5c5.4,0,11,3.7,16.9,11.2A46.8,46.8,0,0,1,179.4,289.5Zm-9.2,14.1v-8l-4-8.6a62.7,62.7,0,0,0-4.8-8.6,47.2,47.2,0,0,0-5.2-6.7c-4.9-5.4-10.2-8.1-15.7-8.1-3,0-5.7,1.6-8,4.8a17.8,17.8,0,0,0-3.5,11.2c0,7.2,3.6,14.9,10.7,23.2s13.6,12.3,19.3,12.3a8.5,8.5,0,0,0,6.4-3.2Z"/><path class="b" d="M227.9,247.7c0,7.8-3.4,13.5-10.3,17.1a38.7,38.7,0,0,1-10.4,3v31.3q0,8.5,4.5,12.3a12.1,12.1,0,0,0,8.1,2.6h1.7l1.5-.2a3.3,3.3,0,0,1,2.3.6c.5.3.7,1,.7,2s-2.9,3-8.7,7.5-9.2,6.8-10.1,6.8-4.2-2.2-8.5-6.4-7.5-9-7.5-12.7V266.6a2.6,2.6,0,0,0-1.5.1,6,6,0,0,0-1.3.9l-.9,1-.6.4c0-.1,0-.3.1-.3s-.6,0-1.6.3v-5.4a41.4,41.4,0,0,1,5.7-11.1,5,5,0,0,0,1.1-2.6V236.2q0-12,1.5-14.4c.7-1.2,4.8-3.9,12.1-8.3h1.4v35.3h9.7a9.8,9.8,0,0,0,5.6-1.4L226,244c.4,0,.8.4,1.2,1.1A4.4,4.4,0,0,1,227.9,247.7Z"/><path class="b" d="M270.1,278.3h-1.4a25.1,25.1,0,0,1-.2-3c0-.7.1-1.6.1-2.8s.1-2,.1-2.5a6.4,6.4,0,0,0-.8-3.7c-.6-1.1-2-1.6-3.9-1.6s-2.6,1.1-4.2,3.3-2.5,4-2.5,5.6v45.3a7.2,7.2,0,0,0,2.1,5c1.4,1.7,2.2,3.2,2.2,4.3s-.3,1.7-.7,1.9a2.9,2.9,0,0,1-1.7.5,18.2,18.2,0,0,0-3.7-2.4,10.7,10.7,0,0,0-4.9-1.1,14.1,14.1,0,0,0-5.7,1.1l-4.7,2.4H239l-1.2-2.4,1.4-2.1,1-1.4c1.6-2.7,2.4-4.9,2.4-6.4V274.1c0-3.6-1.1-6.3-3.3-7.9l-7.2-3.3c0-.9,2.1-3.5,6.4-7.7s6.7-6.4,7.3-6.4a10,10,0,0,1,2.2,1.5,30.6,30.6,0,0,1,8.3,12.1c.8-.3,2.5-2.6,5.3-6.9s5.4-6,9-6a29.3,29.3,0,0,1,6.6,1.6q5.4,1.7,6.3,3Z"/><path class="b" d="M343,265.8c0,1-2.5,3.6-7.6,7.8l-6.6,5.3c-2.4,1.9-5.1,3.8-8,5.9l-9.8,6.9-6.7,4.8c-1.6,1.1-2.3,1.9-2.3,2.3l2.5,3.8a12.1,12.1,0,0,0,2.3,2.6c4.3,4.4,9,6.5,14.2,6.5a15,15,0,0,0,10.9-4.4l7.7-9.7c.9,0,1.4.3,1.6,1a8,8,0,0,1,.4,3c0,6.3-2.8,12.7-8.3,19.2s-10.5,9.8-15.1,9.8h-6.7c-4.3,0-9.3-3.8-14.7-11.5s-8.2-14.7-8.2-21.5V281.7c0-6.4,2.7-13.4,8.1-20.9s11.5-12.1,17.2-12.1h4.8c2.2,0,6.8,2.6,13.7,7.8S343,264.8,343,265.8Zm-18.1,7.7c-3.1-1.8-6.7-6.1-11-12.7a6,6,0,0,0-5.3-3.2c-2.5,0-4.7,1.5-6.7,4.4l-2.4,5.2c-.8,1.7-1.6,3.4-2.3,5.1V284c.5.4.9,1.3,1,2.9a9,9,0,0,0,2.4,4.8c.4-.8,3.2-2.9,8.1-6.6,2.8-1.8,5.5-3.8,8.1-5.7Z"/><path class="b" d="M478,272.5c0,4.7-1,10.7-2.8,18a86.8,86.8,0,0,1-6.6,18.3,42.9,42.9,0,0,1-4.9,7.4,63.7,63.7,0,0,1-7.2,7.9q-10.7,9.9-18.3,9.9h-4.1a15.8,15.8,0,0,1-6.9-1.6,23.8,23.8,0,0,1-6.9-5.5l-11.6-13.3a24.6,24.6,0,0,0-6.7-5.5,13.1,13.1,0,0,0-6.2-1.8c-5,0-8,2.9-9.1,8.8s-2.7,8.7-4.7,8.7a1.7,1.7,0,0,1-1.7-1.3,7.1,7.1,0,0,1-.6-3.1,14.5,14.5,0,0,1,1.4-5.9,21.2,21.2,0,0,1,4.3-5.9l10.5-10.4a19.2,19.2,0,0,0,4.4-6.5,18.7,18.7,0,0,0,1.3-6.9V272.5c0-10.4-2.2-16-6.7-16.6-2.2-.4-3.2-1.3-3.2-2.6a2.1,2.1,0,0,1,.4-1.5c.2-.5.9-.7,1.9-.7h4a18.6,18.6,0,0,0,5-.8,22.7,22.7,0,0,0,5.9-2.6l12.4-7.3c.9,0,1.3.7,1.3,2.2s-.7,2.1-2.1,3.7a7.5,7.5,0,0,0-1.9,4.8v31a7.2,7.2,0,0,0,1.3,4.2,5.4,5.4,0,0,1,1.4,2.6c0,.9-1.4,1.9-4.3,2.8a10.9,10.9,0,0,0-7.1,5.6l.9.3,1.3.2h5.6a10.8,10.8,0,0,1,4.7,1.3,17.7,17.7,0,0,1,5.2,4c1.6,1.7,3.2,3.3,4.7,5l4.6,4.8c3.6,3.6,6.9,5.4,10,5.4,5.4,0,10.6-4.4,15.6-13.1s7.2-15.9,7.2-23.1V277c0-10.5-2.8-19.7-8.4-27.5s-11.9-12-18.6-12H425.9l-5.5,1.1a46,46,0,0,1-7.3,1.1H400.7a14.6,14.6,0,0,1-9.5-3.2,11.7,11.7,0,0,1-4.6-9.8,21.2,21.2,0,0,1,2.9-10.7q3-5.1,6.3-5.1c.6,0,1.1.8,1.4,2.3.9,3.4,3.1,5.1,6.7,5.1s8.7-1.4,12.9-1.9a71.7,71.7,0,0,1,10-.9h16.9c10.1,0,18.5,5.1,25.2,15.4a50.9,50.9,0,0,1,9.1,29.2Z"/><path class="b" d="M542.7,327.5c-4.8,3.9-7.4,5.9-7.9,5.9s-3.6-1.3-5.4-4l-5.5-8.9c-.2,0-3.1,2.2-8.5,6.8s-8.5,6.7-9.2,6.7c-4.7,0-9.6-3-14.7-9.1s-9-15.9-9-26.2,3.9-19.3,11.8-29.8,17-16.7,25.8-16.7c1.8,0,4.5,1.5,8.2,4.7s6.4,4.6,8,4.6,5.1-1.9,9-5.8h1.9v2.4a69.3,69.3,0,0,0-6.2,10.6,27.6,27.6,0,0,0-2.9,12.4v26.5q0,7.8,5.7,10.5c3.8,1.9,5.8,3,5.8,3.6Zm-12.2-50.6a4,4,0,0,0-2.4-.7l-1.5.2-1.3.5c-2.7,0-5.7-2-9.1-5.9s-6.1-5.9-8.1-5.9-5.8,2-8,5.9a27,27,0,0,0-3.3,13.5,13.2,13.2,0,0,1-.5,2,9.7,9.7,0,0,0-.5,2.7c0,5.4,2.3,11.8,7,19.2,3.4,5.7,7.4,8.5,12,8.5a12.6,12.6,0,0,0,5.5-1.3l3.1-1.6V290.5l1.1-1.9.9-1.7,2.4-5.1,2.7-6.6Z"/><path class="b" d="M660.4,325.2c0,.5-1.9,2.5-5.7,5.8s-5.8,4.9-6.2,4.9-4.1-2.2-7.2-6.4-4.4-7.9-4.4-11c.1-1,.2-2.8.3-5.2s.2-5.4.3-9.3.3-7.9.3-12.2.1-8.8.1-13.5c0-1.9-.8-4.1-2.4-6.7s-3.8-4.5-5.7-4.5-3.2,1.6-7.3,4.9-6.3,5.3-6.3,6.3v43.3c0,.2.2.6.4,1.4s.6,1.7,1.1,3,1,2.4,1.4,3.4l1.1,2.8a3,3,0,0,1-1.6.7.6.6,0,0,1-.6-.3c-.1-.3-.2-.4-.3-.4H615a9,9,0,0,1-2.8-.8l-1-.3-1.1-.5-2.6.6a9.9,9.9,0,0,0-2.7,1l-2.5,1.3h-2.8v-2.3c.6-2.5,1.1-5.1,1.6-7.7a39.6,39.6,0,0,0,.7-7.2V278.9a11.9,11.9,0,0,0-3.5-8.5q-2.8-3-5.1-3l-3.2,2.4-2.2,1.9c-3.7,3.4-5.6,5.8-5.6,7.2v41c0,3.9.5,6.7,1.6,8.2s1.7,2.8,1.7,3.5-.6,2.4-1.8,2.4-2-.8-4.8-2.3a8.6,8.6,0,0,0-4.4-1.2,12.2,12.2,0,0,0-3.5,1.4,11.4,11.4,0,0,1-4.1,1.5l-1.9-.2q-.6-.4-.6-2.1a23.7,23.7,0,0,0,2-5.3,36.7,36.7,0,0,0,.9-9V277a11.2,11.2,0,0,0-2-5.7c-1.3-2.2-2.7-3.2-4.1-3.2a8.8,8.8,0,0,0-2.4.3l-1.9.5c-.4,0-.6-.3-.6-.8s2.4-4.9,7.3-9.4l3-2.8,4.3-3.7c1.7,0,4.2,2.9,7.3,8.8l1.8,3.7c.6,1.5,1.3,3.2,2.2,5.2l19.6-17.7c2.3,0,5.5,2.8,9.6,8.5l2.4,3.5,3,5.1,21.1-17.7c3.3,1.8,6.5,5,9.7,9.6s5.2,9.1,5.2,12.9v34.4c0,6.1.5,10.2,1.7,12.4a3.4,3.4,0,0,0,3.4,1.9,3.4,3.4,0,0,1,2,.4A2.8,2.8,0,0,1,660.4,325.2Z"/><path class="b" d="M725.2,269.3c0,1-2.5,3.6-7.5,7.7l-6.6,5.3c-2.5,1.9-5.1,3.9-8.1,5.9l-9.7,6.9-6.8,4.9c-1.5,1.1-2.3,1.9-2.3,2.3l2.6,3.7a16,16,0,0,0,2.2,2.7c4.3,4.3,9.1,6.5,14.2,6.5a15.7,15.7,0,0,0,11-4.4l7.7-9.8a1.5,1.5,0,0,1,1.6,1.1,10.8,10.8,0,0,1,.4,3c0,6.2-2.8,12.6-8.3,19.2s-10.5,9.7-15.1,9.7h-6.7q-6.6,0-14.7-11.4c-5.5-7.6-8.2-14.7-8.2-21.6V285.2q0-9.6,8.1-21c5.7-8,11.5-12,17.2-12H701c2.1,0,6.7,2.6,13.7,7.7S725.2,268.2,725.2,269.3Zm-18.1,7.6c-3-1.8-6.7-6-10.9-12.7a6.3,6.3,0,0,0-5.3-3.2c-2.5,0-4.8,1.5-6.8,4.5l-2.4,5.1-2.2,5.2v11.7c.5.3.8,1.3,1,2.8s.8,3,2.3,4.8c.5-.7,3.2-2.9,8.2-6.5l8.1-5.8Z"/><path class="b" d="M61.4,34.5a38.2,38.2,0,0,1-1.5,9.4,51.3,51.3,0,0,1-3.6,9.6,28.2,28.2,0,0,1-2.7,4,37.9,37.9,0,0,1-4,4.1c-3.9,3.5-7.2,5.2-10,5.2H37.4a8.8,8.8,0,0,1-3.8-.9A10.7,10.7,0,0,1,29.9,63l-6.4-6.9a13,13,0,0,0-3.7-2.9,7.5,7.5,0,0,0-3.4-.9c-2.7,0-4.3,1.5-5,4.5S10,61.4,8.9,61.4a1.1,1.1,0,0,1-1-.6,4.3,4.3,0,0,1-.3-1.7A7.5,7.5,0,0,1,8.4,56a10.8,10.8,0,0,1,2.3-3.1l5.8-5.4A10,10,0,0,0,18.9,44a9.2,9.2,0,0,0,.7-3.6V34.5c0-5.5-1.2-8.4-3.7-8.7s-1.7-.7-1.7-1.4a1.1,1.1,0,0,1,.2-.8,1.2,1.2,0,0,1,1-.4h2.3a9.3,9.3,0,0,0,2.7-.4,13.5,13.5,0,0,0,3.2-1.3l6.8-3.9c.5,0,.7.4.7,1.2A3.5,3.5,0,0,1,30,20.7a3.7,3.7,0,0,0-1.1,2.5V39.5a3.6,3.6,0,0,0,.7,2.2,4.2,4.2,0,0,1,.8,1.4q0,.8-2.4,1.5a6.2,6.2,0,0,0-3.9,2.9l.5.2h3.8a6.5,6.5,0,0,1,2.6.6,12.7,12.7,0,0,1,2.8,2.2,31.9,31.9,0,0,1,2.6,2.6l2.5,2.5c2,1.9,3.8,2.8,5.5,2.8s5.8-2.3,8.5-6.8,4-8.4,4-12.2V36.9a23.3,23.3,0,0,0-4.7-14.5c-3.1-4.2-6.4-6.3-10.1-6.3H32.9l-3,.6-4,.6H19.1a8.5,8.5,0,0,1-5.2-1.7,6.1,6.1,0,0,1-2.5-5.2A10.6,10.6,0,0,1,13,4.8c1.1-1.7,2.2-2.6,3.4-2.6s.6.4.8,1.1A3.4,3.4,0,0,0,20.9,6l7-1a41.6,41.6,0,0,1,5.5-.4h9.2c5.5,0,10.1,2.7,13.8,8a26.7,26.7,0,0,1,5,15.4Z"/><path class="b" d="M93.6,32.8c0,.5-1.4,1.9-4.2,4.1l-3.6,2.8-4.4,3.1-5.3,3.6-3.7,2.5c-.9.6-1.3,1-1.3,1.2l1.4,2a8.7,8.7,0,0,0,1.2,1.4,11,11,0,0,0,7.8,3.4,8.8,8.8,0,0,0,6-2.3l4.2-5.1c.5,0,.8.2.9.5a6.3,6.3,0,0,1,.2,1.6c0,3.3-1.5,6.6-4.5,10.1s-5.8,5.1-8.3,5.1H76.4q-3.6,0-8.1-6c-3-4-4.5-7.7-4.5-11.3V41.1c0-3.3,1.5-7,4.4-10.9s6.3-6.4,9.5-6.4h2.6c1.2,0,3.7,1.4,7.5,4.1S93.6,32.2,93.6,32.8Zm-9.9,4c-1.7-.9-3.7-3.2-6-6.6a3.4,3.4,0,0,0-2.9-1.7,4.4,4.4,0,0,0-3.7,2.3l-1.3,2.7c-.5.9-.9,1.8-1.3,2.7v6.2q.4.1.6,1.5a4,4,0,0,0,1.3,2.5c.2-.4,1.7-1.6,4.4-3.5s3-2,4.4-3Z"/><path class="b" d="M117.3,39.3h-.8c0-.4-.1-.9-.1-1.5s.1-.9.1-1.5V35a3.2,3.2,0,0,0-.4-1.9,2.4,2.4,0,0,0-2.2-.9c-.6,0-1.4.6-2.3,1.8a4.8,4.8,0,0,0-1.3,2.9V60.7a4,4,0,0,0,1.1,2.6,3.9,3.9,0,0,1,1.2,2.3,1.3,1.3,0,0,1-.3,1l-1,.2-2-1.2a6,6,0,0,0-2.7-.6,7.5,7.5,0,0,0-3.1.6l-2.6,1.2h-.6l-.7-1.2.8-1.1.5-.8a6.6,6.6,0,0,0,1.3-3.4V37.1a4.7,4.7,0,0,0-1.8-4.1l-3.9-1.7c0-.5,1.2-1.9,3.5-4.1s3.7-3.3,4-3.3a3.1,3.1,0,0,1,1.2.8,15,15,0,0,1,4.5,6.3c.5-.1,1.4-1.3,2.9-3.6s3-3.2,5-3.2a22.4,22.4,0,0,1,3.6.8c1.9.7,3.1,1.2,3.4,1.7Z"/><path class="b" d="M277,191.5a20.6,20.6,0,0,1-1.2,5.7,30.9,30.9,0,0,1-4.8,9.6l-.6.7-.7,1.1c-1.2,1.8-2.4,3.6-3.5,5.4a35,35,0,0,1-4.1,5.4l-1.1,1.3a18.1,18.1,0,0,1-3.2-1.9,26.7,26.7,0,0,1-5.9-4.8c-2.1-2.4-3.2-4.7-3.2-7V190.4c0-2.1-.3-3.6-.9-4.3a2.6,2.6,0,0,0-2-.8h-.9c-.8,0-1.1-.4-1.1-1.2s1.4-1.7,4.1-3.6l4.3-2.9c.5,0,1.1.7,2.1,2a10.8,10.8,0,0,1,1.7,5.7v16.4a9.2,9.2,0,0,0,3.9,7.6,16.2,16.2,0,0,0,3.9,2.2,44.2,44.2,0,0,0,3.2-4.7,21.3,21.3,0,0,0,3.3-10.7,13.7,13.7,0,0,0-1.7-6c-1-2.2-2.2-3.3-3.4-3.3h-2.8c0-.1-.1-.3-.4-.7a1.6,1.6,0,0,1-.3-.8c0-.5,1.7-2.1,5-4.9s3-2.2,3.6-2.2,1.8,1,3.5,3a12.4,12.4,0,0,1,3.2,8Z"/><path class="b" d="M313,199a22.5,22.5,0,0,1-6.4,15.6c-3.7,4-7,6-10,6-4.7,0-8.8-2.4-12.2-7.3s-4.1-7.3-4.1-10.2V199c0-4,1.7-8.5,4.9-13.5s6.9-7.9,10.1-7.9h3c3,0,6.1,2,9.3,5.9A23.8,23.8,0,0,1,313,199Zm-5,7.4v-4.2l-2.2-4.5a31.5,31.5,0,0,0-2.7-4.5,25.3,25.3,0,0,0-2.8-3.5c-2.7-2.8-5.6-4.3-8.6-4.3a5.7,5.7,0,0,0-4.4,2.6,8.8,8.8,0,0,0-1.9,5.8c0,3.8,2,7.9,5.9,12.2s7.4,6.4,10.6,6.4a4.4,4.4,0,0,0,3.4-1.6Z"/><path class="b" d="M355.8,215.5c0,.3-1.1,1.4-3.4,3.1a26,26,0,0,1-3.4,2.6c-.4,0-1.5-.9-3.3-2.6s-3-3.7-3-4.9V193.6a7.6,7.6,0,0,0-.9-4,19.4,19.4,0,0,0-3.9-4.1L330,191v23.3c0,2.1.2,3.3.8,3.8s.5.7.5,1.5v1h-1.9a1.3,1.3,0,0,0-.7-.5A7,7,0,0,0,325,219a9.1,9.1,0,0,0-4,1.6h-1c0-.2-.1-.4-.1-.6v-.4a1.3,1.3,0,0,0,.1-.6,17,17,0,0,1,.9-3.5,18.6,18.6,0,0,0,.9-3.4V189.8a4.2,4.2,0,0,0-2.8-4.2c-1.8-.7-2.7-1.3-2.7-1.7a2.9,2.9,0,0,1,.9-1.3,16.4,16.4,0,0,1,2.6-2.3l3.6-2.7a3.2,3.2,0,0,1,2.1.9,10.5,10.5,0,0,1,2.1,3l2.6,5.5,12.8-9.1a16.3,16.3,0,0,1,5.5,5.2c1.9,2.8,2.9,5.3,2.9,7.6v17.7c0,3.8.7,5.8,2.2,5.9S355.8,214.8,355.8,215.5Z"/><path class="b" d="M249.5,96.9l-1.1,5.8a39.8,39.8,0,0,1-2.6,7.3,63.6,63.6,0,0,1-3.9,7.2,83.5,83.5,0,0,1-16.8,19.4c-2.3,1.9-4.5,3.8-6.8,5.5a78.6,78.6,0,0,1-6.7,4.5c-7.5,4.7-13.6,7-18.2,7H182.8l-4.5-.8a33.3,33.3,0,0,1-10.6-4.3,64.7,64.7,0,0,1-9.8-7.4c-8.8-7.9-15.4-16.4-19.6-25.3a64.1,64.1,0,0,1-6.4-28c0-5.1,1.5-12.3,4.6-21.6s6.5-16.3,10.3-21.3a85.6,85.6,0,0,1,20.8-19.3,81.7,81.7,0,0,1,9.5-5.6c3.3-1.6,6.7-3.1,10.2-4.4,5.4-2,9-3,11.1-3h8.9a19,19,0,0,1,5.7,1,43.3,43.3,0,0,1,7.6,3.2l4.2,2.2,4.1,2.2c1.1,0,1.9-.7,2.4-2.3s1.2-2.3,2.1-2.3a3.4,3.4,0,0,1,2.4,1.4,3.4,3.4,0,0,1,1.4,2.5l-5.1,8.4q-2.2,3.6-3.6,6-9,14.9-9,15.9c0,1.1,1.2,1.9,3.4,2.4,6.9,1.9,12.2,4.8,16,8.8a43.5,43.5,0,0,1,7,10.1c2.4,4.4,3.6,7.9,3.6,10.3Zm-18.3,2.7c0-5.1-2.4-11.3-7.1-18.6s-8-10.6-10.7-11.7c-.6,1-1,1.9-1.4,2.6a8.8,8.8,0,0,0-.8,2.6h-3.9l-1.4-1.7a3.3,3.3,0,0,1-.3-1.5,13.1,13.1,0,0,1,.3-3.3,3.9,3.9,0,0,1,1.4-2V63.9c-1.3-.3-2.6-.8-3.8-1.2a7.3,7.3,0,0,0-2.3-.7h-5.5l-3.6,3.3a8.8,8.8,0,0,0-2.5,6.7,9.1,9.1,0,0,0,3,6.7l1.4,1.2c.4,0,1.1-.5,2.1-1.4a4.2,4.2,0,0,1,2.9-1.3c1.5,0,2.2,1.3,2.2,3.9a6.8,6.8,0,0,1-2.3,4.8c-1.5,1.4-2.9,2.9-4.2,4.3a22.1,22.1,0,0,0-3.4,4.8l-6.7,11.8a5.4,5.4,0,0,1-1.7,2.1,3.2,3.2,0,0,1-1.7.6,6.5,6.5,0,0,1-2.4-.4,1.4,1.4,0,0,1-.6-1.2,4.2,4.2,0,0,1,.6-1.4l.2-.3a1.2,1.2,0,0,1-.8-1.1,8.7,8.7,0,0,1,.8-2.8c-.9-.7-2.3-2.8-4.1-6.5a60.1,60.1,0,0,0-3.1-6.1V79.2a91,91,0,0,1,6.5-13.6,22,22,0,0,1,9-8.9,53.7,53.7,0,0,1,15-5.2q9.3-1.5,11.7-3.9V44.9l-6.9-3.5L202,39c-8.8-4-14.9-5.9-18.6-5.9h-5.6c-6.3,0-13.1,4.5-20.3,13.5s-10.7,17.6-10.7,25.9c0,13.7,6.8,27.4,20.3,41.4s24.9,20,35.8,20h6.7c4.2,0,8.9-3,14-9s7.6-11.6,7.6-16.7Z"/><path class="b" d="M287.9,15.3c-.7.9-1.4,1.7-1.9,2.5a14.5,14.5,0,0,0-1.2,1.9c-2.2,3.5-3.2,6.4-3.2,8.6V131.8c0,7.3,1,12.3,2.9,14.9a6.3,6.3,0,0,1,1.6,4.2c0,1.2-.3,1.9-.8,2.2a3.3,3.3,0,0,1-2.1.5,32.2,32.2,0,0,1-4.6-2q-4.2-2.1-5.7-2.1a16.1,16.1,0,0,0-5.9,1.4l-6.7,2.7H258v-4.8c1-1.1,2-3.4,3-7a31.9,31.9,0,0,0,1.6-7.2V40.5a9.5,9.5,0,0,0-3.5-7,4.5,4.5,0,0,1-1.6-3.1l6.8-5.2,5-3.7c8.4-5.9,13.6-8.9,15.7-8.9a2.3,2.3,0,0,1,1.9.9C287.2,13.6,287.5,14.2,287.9,15.3Z"/><path class="b" d="M362.2,106.5c0,12.5-4.6,23.9-14,34s-15.3,13.1-21.8,13.1c-10.3,0-19.2-5.3-26.5-15.9-6-8.6-8.9-15.9-8.9-22.2v-9c0-8.7,3.5-18.5,10.7-29.5s14.8-17.2,21.9-17.2h6.6c6.5,0,13.2,4.3,20.2,12.9A51.8,51.8,0,0,1,362.2,106.5Zm-11,16.2v-9.1l-4.8-9.9a76,76,0,0,0-5.7-9.9,72.2,72.2,0,0,0-6.1-7.6c-6-6.2-12.2-9.3-18.8-9.3-3.6,0-6.8,1.8-9.6,5.5A20.3,20.3,0,0,0,302,95.2c0,8.3,4.3,17.2,12.8,26.6s16.2,14.1,23.1,14.1a10.3,10.3,0,0,0,7.6-3.7ZM334.8,30.4c0,2.9-3.2,7-9.5,12.4l-12,10.1H310V50.1l7.6-20.7a17.2,17.2,0,0,1,3.9-6.5,7,7,0,0,1,4.9-2.1c2.3,0,4.2,1.1,5.9,3.4A10.3,10.3,0,0,1,334.8,30.4Zm21.2,1c0,3-3.2,7.1-9.6,12.4l-12,10.1h-3.3V51.1l7.6-20.7a16.9,16.9,0,0,1,3.9-6.6,7.5,7.5,0,0,1,4.9-2c2.3,0,4.3,1.1,6,3.4A11,11,0,0,1,356,31.4Z"/><path class="b" d="M432.1,127.7c0,4.7-2.8,10-8.5,15.9s-13.5,10-20.7,10c-10.4,0-18.9-5.1-25.6-15.5-5.3-8.3-7.9-15.9-7.9-23V99.8c0-7.7,3.3-16,9.8-25.1s15-14.9,23.2-14.9a20.8,20.8,0,0,1,4.4.7,25.4,25.4,0,0,1,6.1,2.4l6.3,3.1h4.5a3,3,0,0,0,2-.8c1.7-1.3,2.9-2,3.6-2a2.5,2.5,0,0,1,2.8,2.8c0,2.1-1.8,5.3-5.3,9.6s-8.1,7.5-11.6,7.5-8.8-1.8-15.8-5.3c-3.3-1.8-6.1-2.7-8.3-2.7-3.7,0-6.9,2-9.7,6.2s-3.1,5.8-3.1,7.7v7.4c0,5.7,3.2,12.6,9.6,20.6s12.9,12.6,18.4,12.6h7.3a9.2,9.2,0,0,0,3.8-.9,27.5,27.5,0,0,0,3.8-2.5,29.2,29.2,0,0,0,3.7-3.4l3.8-3.7h3.4Z"/><path class="b" d="M513.2,142.1c0,1.4-2.6,3.8-7.7,7.3l-3.2,2.1a40.1,40.1,0,0,1-4.5,2.8q-2.4,0-4.8-2.7c-1.6-1.7-3-4.5-4.2-8.3l-6.7-20.6q-3.6-11.1-7.8-11.1a8.8,8.8,0,0,0-3.9,1.4,41.6,41.6,0,0,0-8.1,6.8v20.3c0,1,.7,2.8,2,5.2s2,4.1,2,4.9v2.7h-5.1l-4.7-2.2a10.4,10.4,0,0,0-3.8-1.2,7.4,7.4,0,0,0-3,1.2l-5.6,2.9h-2.4V149a38.6,38.6,0,0,0,1.9-5.4c.6-1.8,1.1-3.4,1.4-4.7s.7-2.5.9-3.4a4.6,4.6,0,0,1,.5-1.5V43.2c0-.9-1.4-3-4.1-6.2s-3.9-5-3.9-5.4.9-2.3,2.6-2.9c5.5-2.2,8.8-3.9,9.9-5.2a57.6,57.6,0,0,1,7.1-6.4c3.4-2.5,5.8-3.8,7.2-3.8a3.3,3.3,0,0,1,2.1,1,3,3,0,0,1,1.3,2.4c-1.7,1-3.1,2.9-4.4,5.5s-1.9,6.2-1.9,10.7V82.4h2.9c1.7-1.9,5.9-5.3,12.5-10.1,8.4-6.3,14-9.5,16.7-9.5s3.4,1.1,3.4,3.4-.3,1.8-.9,2-.9,1-.9,2.8,2.3,4.3,3.3,6.5a17.8,17.8,0,0,1,1.4,7c0,3.7-1.8,6.8-5.5,9.5s-5.5,4.4-5.5,5.5a11,11,0,0,1,2.5,2.4,17.7,17.7,0,0,1,3,4.3c.9,1.8,1.9,4.1,2.9,6.7a91.7,91.7,0,0,1,2.6,9.6,64.5,64.5,0,0,0,1.9,7.6,17.6,17.6,0,0,0,1.9,4.8q2.7,4.5,8.7,4.5ZM484.6,89.9a6,6,0,0,0-1.4-3.1c-.9-1.4-1.4-4-1.4-7.8H480L462.9,92.7v15.5a23.4,23.4,0,0,0,5.4-2.8c2.1-1.4,4.5-3.2,7.3-5.4C481.6,95.4,484.6,92,484.6,89.9Z"/><path class="b" d="M607,142.6c0,.7-2.4,2.9-7.3,6.8-1.6,1.3-4.1,3.1-7.5,5.5-.9,0-3.3-1.9-7.2-5.6s-6.6-8-6.6-10.8V94.7c0-3.7-.6-6.6-1.9-8.6s-4.1-5.3-8.6-9.1L550.6,89v50.9c0,4.6.6,7.3,1.9,8.2s1.1,1.7,1.1,3.4v2.1h-4.2a4.4,4.4,0,0,0-1.6-1.1,14.9,14.9,0,0,0-8-2.3c-2.2,0-5.1,1.2-8.7,3.4h-2.3c0-.4-.1-.8-.1-1.2a3.4,3.4,0,0,1-.1-1,2.5,2.5,0,0,0,.2-1.2c0-1.1.7-3.6,1.9-7.6s2.1-6.7,2.1-7.5V86.5a9.3,9.3,0,0,0-6.1-9.2c-4-1.6-5.9-2.8-5.9-3.8s.6-1.4,1.9-2.7a35.9,35.9,0,0,1,5.8-5l7.7-6a7.3,7.3,0,0,1,4.8,2.1,21.5,21.5,0,0,1,4.4,6.4l5.8,12.1L579,60.6c3.9,1.8,7.9,5.6,12,11.2s6.3,11.7,6.3,16.7V127c0,8.4,1.6,12.8,4.9,12.9S607,141,607,142.6Z"/><path class="b" d="M680.6,79.4c0,1.2-3,4.1-9.1,8.9-2.3,1.9-5,3.9-7.9,6.1s-6,4.4-9.5,6.8l-11.7,7.9-8,5.5c-1.9,1.3-2.8,2.2-2.8,2.6l3,4.3a22.2,22.2,0,0,0,2.7,3.1c5.2,5,10.8,7.4,17,7.4a18.7,18.7,0,0,0,13.1-5l9.1-11.2a1.8,1.8,0,0,1,2,1.2,10.8,10.8,0,0,1,.4,3.5c0,7.1-3.3,14.5-9.9,22s-12.5,11.1-18,11.1h-8c-5.2,0-11.1-4.3-17.6-13.1s-9.7-16.9-9.7-24.7V97.6c0-7.3,3.2-15.3,9.6-23.9s13.8-13.9,20.6-13.9h5.7c2.6,0,8.1,3,16.4,8.9S680.6,78.2,680.6,79.4Zm-21.7,8.8c-3.6-2.1-8-6.9-13-14.5-1.7-2.5-3.8-3.7-6.3-3.7s-5.7,1.7-8.1,5.1-1.9,3.9-2.9,5.9l-2.7,5.9v13.4q.9.6,1.2,3.3c.1,1.6,1,3.4,2.9,5.5.5-.9,3.8-3.4,9.7-7.5l9.6-6.6Z"/><path class="b" d="M732.4,93.7h-1.7a31.1,31.1,0,0,1-.2-3.4c0-.7,0-1.8.1-3.2s.1-2.3.1-2.9a8.2,8.2,0,0,0-.9-4.2q-1.2-1.8-4.8-1.8c-1.3,0-3,1.2-5,3.8s-2.9,4.5-2.9,6.3v51.9a8.5,8.5,0,0,0,2.4,5.8c1.8,2,2.7,3.6,2.7,4.9s-.3,1.9-.8,2.2a3.3,3.3,0,0,1-2.1.5,32.2,32.2,0,0,0-4.3-2.7,13.8,13.8,0,0,0-5.9-1.2,16.9,16.9,0,0,0-6.8,1.2l-5.7,2.7h-1.4l-1.4-2.7c.6-.9,1.2-1.7,1.6-2.4l1.2-1.6c1.9-3.1,2.9-5.6,2.9-7.4V88.9c0-4.1-1.3-7.1-4-9L687,76.1c0-1.1,2.5-4,7.6-8.8s8-7.3,8.8-7.3a8.9,8.9,0,0,1,2.6,1.7,36.6,36.6,0,0,1,9.9,13.8c.9-.3,3-2.9,6.3-7.9s6.5-6.9,10.8-6.9q1.7,0,7.8,1.8c4.3,1.3,6.8,2.5,7.5,3.5Z"/></svg>