<svg id="Ebene_1" data-name="Ebene 1" xmlns="http://www.w3.org/2000/svg" viewBox="0 0 505.1 54.8"><defs><style>.cls-1{fill:#fefefd;}.cls-2{fill:#b1cb22;}</style></defs><title>title</title><path class="cls-1" d="M0,54.8V0H505.1V54.8ZM368.5,21.6a5.6,5.6,0,0,1-.5.8c-1.4,2.7-1.4,6.4,2.1,8.6a33,33,0,0,0,3.2,1.8c1.6,1,3.2,2,4.7,3.1a3.3,3.3,0,0,1,.9,3.5,3.1,3.1,0,0,1-2.5,2.4,5.9,5.9,0,0,1-6.1-2.3A23.8,23.8,0,0,1,368,35l.2-.2h-.9v8c0,.1.1.2.1.4l1-.3a3.3,3.3,0,0,1,1.3-.4l1.5.4a11.1,11.1,0,0,0,7.2-.1,6.8,6.8,0,0,0,4.2-8.2c-.7-2.3-2.5-3.6-4.6-4.6l-5.7-3a3.8,3.8,0,0,1-2-2.9,2.2,2.2,0,0,1,2.3-2.8h3.1a2.8,2.8,0,0,1,2.8,1.5c.7,1.3,1.2,2.8,1.9,4.2h.8V21.2h3.6c.4.8,1.1.4,1.7.5h2.1v1c0,3.4-.1,6.7,0,10.1s0,4.2.1,6.3a4.4,4.4,0,0,0,4.9,4.1,6.8,6.8,0,0,0,5.2-5c-.7-.3-1.1.1-1.4.7a3,3,0,0,1-2.7,1.3c-1-.2-1.5-.8-1.7-2.1a7.6,7.6,0,0,1-.1-1.5c-.1-4.6-.1-9.3-.1-14v-.9h6.4V23l1.1-.3c1.6-.4,2.5.2,2.5,1.9v15a1.8,1.8,0,0,1-1.4,1.9l-2,.4v.9h11.6v-.9l-1.5-.3a2.7,2.7,0,0,1-2.2-2.1,11,11,0,0,1-.2-1.8V27.1a1.9,1.9,0,0,1,.1-.8,37.1,37.1,0,0,1,2.3-3.2,1,1,0,0,1,1.6-.2,10.8,10.8,0,0,0,1.8,1.1,2.1,2.1,0,0,0,3.2-2v-.8h3.7v-.4h-3.1a1.4,1.4,0,0,1-1.1-.5,3.3,3.3,0,0,0-4.8-.5c-1.2,1-2.4.6-3.6.5a6.1,6.1,0,0,1-.1-1.4l-1.7.4a9.2,9.2,0,0,1-2.7.8l-6.8-.2-3-.2V12.3c-.6-.2-.9-.1-1.1.5a16.6,16.6,0,0,1-3.6,5.8,6.6,6.6,0,0,1-7,1.9V18.7a4.8,4.8,0,0,1-1.1.8l-1.1.5-1.3-.3c-2.5-.8-5-1-7.3.4h-.7l-7.4-.3-3.3-.2V12.3c-1-.4-1.1.4-1.3.9a14.1,14.1,0,0,1-6.2,7.4c-.2.1-.3.6-.6,1.1h3.8V36.5a26.4,26.4,0,0,0,.2,2.8,4.5,4.5,0,0,0,3.3,3.8c2.6.8,6.1-1.7,6.7-4.9-.7-.3-1,0-1.3.6a2.8,2.8,0,0,1-2.8,1.3c-1.1-.2-1.5-1-1.7-2.1s-.1-.8-.1-1.2V21.6ZM39.1,7.6l-.6.5a2.3,2.3,0,0,1-2.1.9H1.4v1H2.9c2.3.1,3.1.9,3.2,3.2V38.4c0,2.1-.7,2.9-2.8,3.3l-1.9.2v1H26.6c.3,0,.9-.2.9-.4,1-2.8,1.9-5.5,2.9-8.2-.7-.3-1.2-.2-1.5.5a20.5,20.5,0,0,1-2,3.1A5.9,5.9,0,0,1,22,40.7H13c-1.4,0-1.9-.6-1.9-2V26.7c0-.2.1-.4.1-.7h8.5a3.3,3.3,0,0,1,3.7,3.2,9.9,9.9,0,0,0,.2,1.7h1.1V19.1H23.6a4.1,4.1,0,0,1-.1,1.1c-.2,2.2-1.3,3.6-3.2,3.7H11.2V10.8H35.7l-1.2,1.3L39,16.4,43.6,12l-1.1-1.2L54.2,10l11.7-.8H42.8c-1.4,0-2.6,0-3.4-1.3Zm200,15.3.6-.2c1.9-.4,2.7.1,2.7,1.8.1,5,.1,10,.1,15,0,1.3-.7,1.9-2.1,2.2l-1.4.2v.9h11.8v-.9h-.4c-2.6-.2-3.5-1.1-3.5-3.7s0-6.5-.1-9.8a7,7,0,0,1,1.2-4c1.7-2.2,2.1-2,3.8-.7s3.1.9,3.9-.8h1c1.7-.4,2.3,0,2.6,1.6a2.8,2.8,0,0,1,.1.9c0,4.6.1,9.1,0,13.7,0,2.1-.7,2.8-2.9,2.9H256v.9h11.3v-.9h-.6c-2.4-.1-3-.8-3-3.3,0-4.1-.1-8.2,0-12.3a1.5,1.5,0,0,1,.2-1,9.8,9.8,0,0,1,4.1-2.7c2.4-.7,4,.2,4.6,2.3a5,5,0,0,1,.2,1.2V39.7c0,1.1-.7,1.7-1.8,2l-1.7.2v.9h11.3v-.9h-.9c-1.7-.2-2.3-.6-2.4-2.5s-.1-3.5-.2-5.3,0-6.3-.2-9.4a5.9,5.9,0,0,0-4-5.3,6.6,6.6,0,0,0-5.8,1.2c-1.2.9-2.3,2-3.5,3.1V18.9c-2.8.5-5.1,2-7.8,2.8,0-.1-.1-.2-.1-.4a3.3,3.3,0,0,0-4.3-2,6.1,6.1,0,0,0-2.3,1.5c-.9.9-1.5,1.9-2.4,3V18.9l-1.7.4-5.6,2.3C238.7,21.9,238.6,22.3,239.1,22.9ZM148.9,6.3V6.1l-9.8-1.6C132.4,3.6,125.7,2.7,119,2a53.4,53.4,0,0,0-14.4-.2A54.5,54.5,0,0,0,92.5,4.5c-3.2,1.2-5.4,3.2-5.9,6.7a43.4,43.4,0,0,0-.1,5.1,8.7,8.7,0,0,0,2.6,6.1c2.1,2.2,4.9,3.5,7.4,5.1a46,46,0,0,1,6.3,4.2,5,5,0,0,1-.5,8,8,8,0,0,1-6.4,1.1c-3.6-.8-6.2-2.7-7.2-6.4-.3-1-.6-2.1-.8-3.1h-1V43h1c.4-1.9.8-2.2,2.6-1.7l2.5.8a13.7,13.7,0,0,0,8.5.6c3.8-1,6.6-3.3,7.4-7.3a8.4,8.4,0,0,0-3.7-9.1,70.2,70.2,0,0,0-7.8-4.7,11.6,11.6,0,0,1-6.1-7.4A5.7,5.7,0,0,1,94,7.3a14.1,14.1,0,0,1,5.6-2.1c3.3-.4,6.6-.8,9.9-.9,5.3-.1,10.6.1,15.8.2s7.4.5,11.1.7l7.3.7ZM464.5,22.9l.9-.3c1.6-.2,2.3.3,2.3,1.8.1,4.7.2,9.4.2,14.1-.1,2.5-.7,3.1-3.2,3.3h-.2v.9h11.2v-.9H475c-2.2-.2-2.8-.7-2.8-3-.1-4.3,0-8.6,0-13a1.4,1.4,0,0,1,.3-.9,8.8,8.8,0,0,1,4.2-2.6c2.4-.7,4.7.7,4.8,3.1.2,4.7.1,9.4.2,14,0,.2-.1.3-.1.5a2.1,2.1,0,0,1-1.9,1.8l-1.8.2v.9h11.6v-.9l-1.5-.2c-1.5-.3-2-.8-2.1-2.3V37.5c-.1-3.9-.1-7.8-.1-11.7a1.4,1.4,0,0,1,.2-.7,23.4,23.4,0,0,1,3.9-2.5c2.9-1.2,5.3.3,5.3,3.4s.1,9,.1,13.6a2.1,2.1,0,0,1-1.9,2.1l-1.7.2v.9h11.3v-.9h-.7c-1.7-.3-2.5-.6-2.6-2.6s-.1-2.9-.1-4.3c-.1-3.5,0-7-.2-10.4a5.9,5.9,0,0,0-5.2-5.4,7,7,0,0,0-5.5,1.7c-1,.9-2,2-3.1,2.9l-.2-.5a5.5,5.5,0,0,0-6.7-4,8.2,8.2,0,0,0-4.6,2.6l-1.8,2-.3-.2V18.9c-2.9.6-5.4,2-8.1,3Zm-276.1,19-1.4-.2c-1.5-.2-1.9-.6-2.2-2.1V38.5c-.1-4,0-8-.1-12a2.4,2.4,0,0,1,1.1-2.3,15.6,15.6,0,0,1,2.8-1.6,3.8,3.8,0,0,1,4.3.4,4.3,4.3,0,0,1,1.3,3.4c.1,4.3.1,8.7.1,13.1a2.2,2.2,0,0,1-1.9,2.1,11.3,11.3,0,0,1-1.8.3v.9h11.6v-.9h-.5c-2.5-.2-3.1-.8-3.1-3.4V25.9c0-.3,0-.7.2-.8a9.8,9.8,0,0,1,4.3-2.7c2.7-.7,4.7.7,4.8,3.4s.1,5.8.2,8.7-.1,3.5-.2,5.2-.6,1.7-1.8,2l-1.8.2v.9h11.3a.9.9,0,0,0,.1-.5.8.8,0,0,0-.1-.4h-.4c-2.3-.2-2.9-.7-2.9-3s0-7.2-.1-10.8a17.1,17.1,0,0,0-.3-3.9c-.5-2.4-1.7-4.2-4.2-4.8s-4.8.2-6.8,1.9l-2.7,2.6a5.7,5.7,0,0,0-3.8-4.4c-2.7-.9-5,.1-7.1,1.9s-1.7,1.6-2.7,2.5v-5c-2.9.7-5.4,2.1-8.1,3.1l.5,1h.4c2.3-.6,2.8.2,2.8,1.8s.1.5.1.7c0,4.6.1,9.2,0,13.8,0,1.7-.7,2.4-2.4,2.7h-.9v.9h11.3ZM158.7,23.6a1.7,1.7,0,0,0-.2-.5,5.6,5.6,0,0,0-6.7-3.9,7.2,7.2,0,0,0-4.1,2.2l-2.3,2.5-.3-.2V18.9a63.1,63.1,0,0,0-8,3l.4,1c2.2-.7,3.2-.3,3.2,1.5.2,4.7.2,9.4.2,14.1,0,.4-.1.9-.1,1.3a2.1,2.1,0,0,1-1.8,1.9l-1.6.2v.9h11.3v-1h-1c-2-.2-2.5-.7-2.6-2.7,0-4.4-.1-8.9-.1-13.3a1.3,1.3,0,0,1,.4-.9,16.7,16.7,0,0,1,3.7-2.4c2.8-1.1,5.2.4,5.4,3.5s.1,5.5.1,8.3,0,3.6-.1,5.5a2,2,0,0,1-1.8,1.9l-1.8.2v.9h11.6v-.9l-1.6-.2a2,2,0,0,1-1.9-2.2c-.1-4,0-8.1-.2-12.1a3.4,3.4,0,0,1,1.8-3.6,11.4,11.4,0,0,1,3.4-1.5c2.6-.4,4.2,1,4.3,3.8.1,4.5,0,9,0,13.4a2.1,2.1,0,0,1-1.8,2.1l-1.7.3v.9h11.2v-.9l-1-.2c-1.7-.3-2-.6-2.3-2.3a10.9,10.9,0,0,1-.1-1.8c0-4.2.1-8.5-.2-12.7s-5-7.4-9.2-4.9A31.7,31.7,0,0,0,158.7,23.6ZM337.9,42.9c0-.6.2-1.1-.6-1.3s-2.8-1.1-2.8-3.4c0-4-.1-8,0-12.1a1.4,1.4,0,0,1,.3-.9l2.4-2.3a5.5,5.5,0,0,1,1.8-.6c1.4-.2,2.5.6,3,2.3a23.6,23.6,0,0,1,.8,4.5,67.1,67.1,0,0,1-.6,15.5,11.4,11.4,0,0,1-4.2,7.6,18,18,0,0,1-2.5,1.7,11.3,11.3,0,0,0,4.9-1.5,13.7,13.7,0,0,0,5.9-8.1c1.6-4.9,1.7-9.9,1.4-14.9a16.7,16.7,0,0,0-1.5-6.6c-2.1-4.6-7.1-4.8-9.5-1.7l-2.3,2.5V6.8c-2.8.9-5.4,2.2-8,3.2l.3,1,.9-.3c1.4-.4,2.2.1,2.4,1.6a8.8,8.8,0,0,1,.2,1.6V34c0,1.6-.1,3.3-.2,5a2.6,2.6,0,0,1-2.4,2.6l-1,.2v1.1ZM46.2,23c2.3-.8,3.3-.3,3.3,1.6q.2,7.3,0,14.7c0,1.7-.8,2.4-2.4,2.5h-.9v.9H57.6v-.9H57c-2.3-.1-2.9-.7-3.1-3V26.4a2.2,2.2,0,0,1,.6-1.5A7.7,7.7,0,0,1,58,22.6c2.6-.8,4.7-.2,4.9,2.9.3,4.7.1,9.5.1,14.3V40a2,2,0,0,1-1.7,1.7l-1.8.2v.9H70.9v-.9h-.4c-2.4-.1-3-.6-3-3s0-7.2-.1-10.7a13.3,13.3,0,0,0-.9-5.9,5.4,5.4,0,0,0-6.1-3A8.7,8.7,0,0,0,56,21.6l-1.9,2.1h-.3V18.9c-2.9.6-5.3,2.1-8,3Zm392.1-2.2h.6c2.4.1,3.1.8,3.1,3.2s0,7.1.1,10.7a25.6,25.6,0,0,0,.3,3.9,5.6,5.6,0,0,0,5.1,4.9,5.9,5.9,0,0,0,4.6-1.4c1.2-1,2.3-2.1,3.6-3.3v5c2.9-.8,5.3-2.1,8-3.1l-.4-1-.6.2c-1.8.5-2.6-.1-2.7-2s-.1-2.8-.2-4.2V19.8H452v1l1.8.2a2,2,0,0,1,1.7,1.7,7.6,7.6,0,0,1,.1,1.5q.1,6.2,0,12.3a1.1,1.1,0,0,1-.2.8,9.4,9.4,0,0,1-4.2,2.9c-2.3.6-4.3-.6-4.6-2.7a8.2,8.2,0,0,1-.2-2.2c-.1-4.9-.1-9.7-.1-14.6v-.9h-8ZM438.2,38c-.6.5-1.1,1.1-1.8,1.6a1.8,1.8,0,0,1-1.2.3c-.3-.1-.6-.7-.7-1a16.4,16.4,0,0,1-.2-2.2V25.2c0-2.4-.8-4.5-3.3-5.4a11.7,11.7,0,0,0-9,.2c-2.1.9-4,3-3.7,5.3a2.2,2.2,0,0,0,2,2.1,2,2,0,0,0,2.2-1.6c.1-.7,0-1.5.1-2.2a4,4,0,0,1,.7-1.8c1.3-1.6,5.6-1.6,6.3,1.4a20.9,20.9,0,0,1,.4,3.5c.1.6-.1.9-.7,1.1-2.6,1.2-5.3,2.2-7.8,3.6s-4.4,3.4-4.1,6.7,1.2,3.9,3.2,4.7a6,6,0,0,0,6.3-.8l3.1-2.3c.1.4.1.7.2,1a2.6,2.6,0,0,0,3,2.6,6.1,6.1,0,0,0,3.9-2.5A2.5,2.5,0,0,0,438.2,38ZM303.4,38a11.4,11.4,0,0,1-1.7,1.5,1.8,1.8,0,0,1-1.3.4,1.5,1.5,0,0,1-.7-1.2c-.1-1.2-.2-2.5-.2-3.8V24.8a4.9,4.9,0,0,0-2.7-4.7,14.4,14.4,0,0,0-3.7-1,10,10,0,0,0-7.3,1.7c-1.4,1.2-2.5,2.5-2.3,4.5a2.2,2.2,0,0,0,2.2,2.1,2.1,2.1,0,0,0,2.1-2.1,9.6,9.6,0,0,1,0-1.7,4.6,4.6,0,0,1,.9-2c1.7-1.7,5.4-.8,6.1,1.5a16.7,16.7,0,0,1,.5,3.9,1,1,0,0,1-.6.7c-1,.5-2,.8-3,1.2-2.8,1.2-5.6,2.3-7.7,4.6a6.6,6.6,0,0,0-.4,7.5c2,3,6.1,2.8,8.3,1.1l3.4-2.5v.7c.2,2.5,2,3.7,4.3,2.6a17.9,17.9,0,0,0,3.1-2.5A2.2,2.2,0,0,0,303.4,38ZM112.9,31.4a16.4,16.4,0,0,0,.2,2.3c.6,4.3,4,9.6,10,9.8a10.3,10.3,0,0,0,7.4-2.3c4.5-3.8,6.3-12,2.2-17.8a10.7,10.7,0,0,0-14.5-2.6C114.5,23.4,113.2,27.2,112.9,31.4Zm124.3-2.8c-.1-.8-.1-1.4-.2-2a8.3,8.3,0,0,0-5.1-6.8,10.1,10.1,0,0,0-13,5.4,16.4,16.4,0,0,0-1.1,7.6,11.2,11.2,0,0,0,3.8,8.4,9.1,9.1,0,0,0,10.3,1.3,11.5,11.5,0,0,0,5.1-7.4c.2-.7-.1-1-.8-1.2l-.8,1.8a6.4,6.4,0,0,1-6.9,3.5c-4.8-.8-7.4-5.9-7-10.6Zm86.5,5.1a31.9,31.9,0,0,1-2,3.3,6.2,6.2,0,0,1-9.9.1,13.3,13.3,0,0,1-2.1-11.3c.9-3.5,3.2-5.2,6.4-4.8a2.7,2.7,0,0,1,2.4,2.4c.1.4.1.8.2,1.3a2.6,2.6,0,0,0,3.2,2.1,2.1,2.1,0,0,0,1.8-2.9,6,6,0,0,0-3.6-4c-4.9-2.3-11.1.1-13.6,5.2a15,15,0,0,0-1.3,7.8,11.7,11.7,0,0,0,3.9,8.4,8.3,8.3,0,0,0,10.7.6,11.8,11.8,0,0,0,4.5-7.2C324.5,34,324.3,33.8,323.7,33.7ZM33.3,22.9c2.5-.7,3.3-.3,3.3,2q.1,7.2,0,14.4c0,1.4-.7,2.4-2.1,2.4l-1.3.2v.9H44.4v-.9H43.3c-1.6-.3-2-.7-2.2-2.4a14.8,14.8,0,0,1-.1-2.1c-.1-5.7-.1-11.5-.1-17.3V18.9c-2.9.6-5.4,2.1-8.1,3Z"/><path class="cls-2" d="M368.5,21.6h-9.6V36.8c0,.4.1.8.1,1.2s.6,1.9,1.7,2.1a2.8,2.8,0,0,0,2.8-1.3c.3-.6.6-.9,1.3-.6-.6,3.2-4.1,5.7-6.7,4.9a4.5,4.5,0,0,1-3.3-3.8,26.4,26.4,0,0,1-.2-2.8V21.7h-3.8c.3-.5.4-1,.6-1.1a14.1,14.1,0,0,0,6.2-7.4c.2-.5.3-1.3,1.3-.9v7.4l3.3.2,7.4.3h.7c2.3-1.4,4.8-1.2,7.3-.4l1.3.3,1.1-.5a4.8,4.8,0,0,0,1.1-.8v1.8a6.6,6.6,0,0,0,7-1.9,16.6,16.6,0,0,0,3.6-5.8c.2-.6.5-.7,1.1-.5v7.4l3,.2,6.8.2a9.2,9.2,0,0,0,2.7-.8l1.7-.4a6.1,6.1,0,0,0,.1,1.4c1.2.1,2.4.5,3.6-.5a3.3,3.3,0,0,1,4.8.5,1.4,1.4,0,0,0,1.1.5h3.1v.4H416V22a2.1,2.1,0,0,1-3.2,2,10.8,10.8,0,0,1-1.8-1.1,1,1,0,0,0-1.6.2,37.1,37.1,0,0,0-2.3,3.2,1.9,1.9,0,0,0-.1.8V37.7a11,11,0,0,0,.2,1.8,2.7,2.7,0,0,0,2.2,2.1l1.5.3v.9H399.3v-.9l2-.4a1.8,1.8,0,0,0,1.4-1.9v-15c0-1.7-.9-2.3-2.5-1.9l-1.1.3V21.7h-6.4v.9c0,4.7,0,9.4.1,14a7.6,7.6,0,0,0,.1,1.5c.2,1.3.7,1.9,1.7,2.1a3,3,0,0,0,2.7-1.3c.3-.6.7-1,1.4-.7a6.8,6.8,0,0,1-5.2,5,4.4,4.4,0,0,1-4.9-4.1c-.1-2.1-.1-4.2-.1-6.3s0-6.7,0-10.1v-1h-2.1c-.6-.1-1.3.3-1.7-.5h-3.6V27h-.8c-.7-1.4-1.2-2.9-1.9-4.2a2.8,2.8,0,0,0-2.8-1.5h-3.1a2.2,2.2,0,0,0-2.3,2.8,3.8,3.8,0,0,0,2,2.9l5.7,3c2.1,1,3.9,2.3,4.6,4.6a6.8,6.8,0,0,1-4.2,8.2,11.1,11.1,0,0,1-7.2.1l-1.5-.4a3.3,3.3,0,0,0-1.3.4l-1,.3c0-.2-.1-.3-.1-.4v-8h.9l-.2.2a23.8,23.8,0,0,0,2.3,4.5,5.9,5.9,0,0,0,6.1,2.3,3.1,3.1,0,0,0,2.5-2.4,3.3,3.3,0,0,0-.9-3.5c-1.5-1.1-3.1-2.1-4.7-3.1a33,33,0,0,1-3.2-1.8c-3.5-2.2-3.5-5.9-2.1-8.6A5.6,5.6,0,0,0,368.5,21.6Zm40.2-.2h-1.6v2.4Z"/><path class="cls-2" d="M39.1,7.6h.3C40.2,9,41.4,9,42.8,9H65.9L54.2,10l-11.7.8L43.6,12,39,16.4l-4.5-4.3,1.2-1.3H11.2V23.9h9.1c1.9-.1,3-1.5,3.2-3.7a4.1,4.1,0,0,0,.1-1.1h1.1V31H23.6a9.9,9.9,0,0,1-.2-1.7,3.3,3.3,0,0,0-3.7-3.2H11.2c0,.3-.1.5-.1.7V38.8c0,1.4.5,2,1.9,2h9a5.9,5.9,0,0,0,4.9-2.8,20.5,20.5,0,0,0,2-3.1c.3-.7.8-.8,1.5-.5-1,2.7-1.9,5.4-2.9,8.2,0,.2-.6.4-.9.4H1.4v-1l1.9-.2c2.1-.4,2.8-1.2,2.8-3.3V13C6,10.7,5.2,9.9,2.9,9.8H1.4v-1h35a2.3,2.3,0,0,0,2.1-.9Z"/><path class="cls-2" d="M239.1,22.9c-.5-.6-.4-1,.4-1.3l5.6-2.3,1.7-.4v4.9c.9-1.1,1.5-2.1,2.4-3a6.1,6.1,0,0,1,2.3-1.5,3.3,3.3,0,0,1,4.3,2c0,.2.1.3.1.4,2.7-.8,5-2.3,7.8-2.8v4.7c1.2-1.1,2.3-2.2,3.5-3.1a6.6,6.6,0,0,1,5.8-1.2,5.9,5.9,0,0,1,4,5.3c.2,3.1.2,6.2.2,9.4s0,3.6.2,5.3.7,2.3,2.4,2.5h.9v.9H269.4v-.9l1.7-.2c1.1-.3,1.8-.9,1.8-2V26a5,5,0,0,0-.2-1.2c-.6-2.1-2.2-3-4.6-2.3a9.8,9.8,0,0,0-4.1,2.7,1.5,1.5,0,0,0-.2,1c-.1,4.1,0,8.2,0,12.3,0,2.5.6,3.2,3,3.3h.6v.9H256.1v-.9h.5c2.2-.1,2.9-.8,2.9-2.9.1-4.6,0-9.1,0-13.7a2.8,2.8,0,0,0-.1-.9c-.3-1.6-.9-2-2.6-1.6h-1c-.8,1.7-2.3,2.1-3.9.8s-2.1-1.5-3.8.7a7,7,0,0,0-1.2,4c.1,3.3,0,6.5.1,9.8s.9,3.5,3.5,3.7h.4v.9H239v-.9l1.4-.2c1.4-.3,2.1-.9,2.1-2.2,0-5,0-10-.1-15,0-1.7-.8-2.2-2.7-1.8Z"/><path class="cls-2" d="M148.9,6.3l-5.2-.4-7.3-.7c-3.7-.2-7.4-.6-11.1-.7s-10.5-.3-15.8-.2c-3.3.1-6.6.5-9.9.9A14.1,14.1,0,0,0,94,7.3a5.7,5.7,0,0,0-2.7,6.9,11.6,11.6,0,0,0,6.1,7.4,70.2,70.2,0,0,1,7.8,4.7,8.4,8.4,0,0,1,3.7,9.1c-.8,4-3.6,6.3-7.4,7.3a13.7,13.7,0,0,1-8.5-.6l-2.5-.8c-1.8-.5-2.2-.2-2.6,1.7h-1V31.3h1c.2,1,.5,2.1.8,3.1,1,3.7,3.6,5.6,7.2,6.4a8,8,0,0,0,6.4-1.1,5,5,0,0,0,.5-8,46,46,0,0,0-6.3-4.2c-2.5-1.6-5.3-2.9-7.4-5.1a8.7,8.7,0,0,1-2.6-6.1,43.4,43.4,0,0,1,.1-5.1c.5-3.5,2.7-5.5,5.9-6.7a54.5,54.5,0,0,1,12.1-2.7A53.4,53.4,0,0,1,119,2c6.7.7,13.4,1.6,20.1,2.5l9.8,1.6Z"/><path class="cls-2" d="M464.5,22.9l-.5-1c2.7-1,5.2-2.4,8.1-3v4.7l.3.2,1.8-2a8.2,8.2,0,0,1,4.6-2.6,5.5,5.5,0,0,1,6.7,4l.2.5c1.1-.9,2.1-2,3.1-2.9a7,7,0,0,1,5.5-1.7,5.9,5.9,0,0,1,5.2,5.4c.2,3.4.1,6.9.2,10.4,0,1.4,0,2.8.1,4.3s.9,2.3,2.6,2.6h.7v.9H491.8v-.9l1.7-.2a2.1,2.1,0,0,0,1.9-2.1c0-4.6,0-9.1-.1-13.6s-2.4-4.6-5.3-3.4a23.4,23.4,0,0,0-3.9,2.5,1.4,1.4,0,0,0-.2.7c0,3.9,0,7.8.1,11.7v1.9c.1,1.5.6,2,2.1,2.3l1.5.2v.9H478v-.9l1.8-.2a2.1,2.1,0,0,0,1.9-1.8c0-.2.1-.3.1-.5-.1-4.6,0-9.3-.2-14-.1-2.4-2.4-3.8-4.8-3.1a8.8,8.8,0,0,0-4.2,2.6,1.4,1.4,0,0,0-.3.9c0,4.4-.1,8.7,0,13,0,2.3.6,2.8,2.8,3h.7v.9H464.5v-.9h.2c2.5-.2,3.1-.8,3.2-3.3,0-4.7-.1-9.4-.2-14.1,0-1.5-.7-2-2.3-1.8Z"/><path class="cls-2" d="M188.4,41.9v.9H177.1v-.9h.9c1.7-.3,2.4-1,2.4-2.7.1-4.6,0-9.2,0-13.8,0-.2-.1-.5-.1-.7s-.5-2.4-2.8-1.8h-.4l-.5-1c2.7-1,5.2-2.4,8.1-3.1v5c1-.9,1.8-1.8,2.7-2.5s4.4-2.8,7.1-1.9a5.7,5.7,0,0,1,3.8,4.4l2.7-2.6c2-1.7,4.2-2.6,6.8-1.9s3.7,2.4,4.2,4.8a17.1,17.1,0,0,1,.3,3.9c.1,3.6,0,7.2.1,10.8s.6,2.8,2.9,3h.4a.8.8,0,0,1,.1.4.9.9,0,0,1-.1.5H204.4v-.9l1.8-.2c1.2-.3,1.8-.8,1.8-2s.2-3.5.2-5.2-.1-5.8-.2-8.7-2.1-4.1-4.8-3.4a9.8,9.8,0,0,0-4.3,2.7c-.2.1-.2.5-.2.8V38.4c0,2.6.6,3.2,3.1,3.4h.5v.9H190.6v-.9a11.3,11.3,0,0,0,1.8-.3,2.2,2.2,0,0,0,1.9-2.1c0-4.4,0-8.8-.1-13.1a4.3,4.3,0,0,0-1.3-3.4,3.8,3.8,0,0,0-4.3-.4,15.6,15.6,0,0,0-2.8,1.6,2.4,2.4,0,0,0-1.1,2.3c.1,4,0,8,.1,12v1.1c.3,1.5.7,1.9,2.2,2.1Z"/><path class="cls-2" d="M158.7,23.6a31.7,31.7,0,0,1,4.6-3.6c4.2-2.5,8.9,0,9.2,4.9s.2,8.5.2,12.7a10.9,10.9,0,0,0,.1,1.8c.3,1.7.6,2,2.3,2.3l1,.2v.9H164.9v-.9l1.7-.3a2.1,2.1,0,0,0,1.8-2.1c0-4.4.1-8.9,0-13.4-.1-2.8-1.7-4.2-4.3-3.8a11.4,11.4,0,0,0-3.4,1.5,3.4,3.4,0,0,0-1.8,3.6c.2,4,.1,8.1.2,12.1a2,2,0,0,0,1.9,2.2l1.6.2v.9H151v-.9l1.8-.2a2,2,0,0,0,1.8-1.9c.1-1.9.1-3.7.1-5.5s0-5.6-.1-8.3-2.6-4.6-5.4-3.5a16.7,16.7,0,0,0-3.7,2.4,1.3,1.3,0,0,0-.4.9c0,4.4.1,8.9.1,13.3.1,2,.6,2.5,2.6,2.7h1v1H137.5v-.9l1.6-.2a2.1,2.1,0,0,0,1.8-1.9c0-.4.1-.9.1-1.3,0-4.7,0-9.4-.2-14.1,0-1.8-1-2.2-3.2-1.5l-.4-1a63.1,63.1,0,0,1,8-3v4.8l.3.2,2.3-2.5a7.2,7.2,0,0,1,4.1-2.2,5.6,5.6,0,0,1,6.7,3.9A1.7,1.7,0,0,1,158.7,23.6Z"/><path class="cls-2" d="M337.9,42.9H326.7V41.8l1-.2A2.6,2.6,0,0,0,330,39c.1-1.7.2-3.4.2-5V13.9a8.8,8.8,0,0,0-.2-1.6c-.2-1.5-1-2-2.4-1.6l-.9.3-.3-1c2.6-1,5.2-2.3,8-3.2V23.6l2.3-2.5c2.4-3.1,7.4-2.9,9.5,1.7a16.7,16.7,0,0,1,1.5,6.6c.3,5,.2,10-1.4,14.9a13.7,13.7,0,0,1-5.9,8.1,11.3,11.3,0,0,1-4.9,1.5,18,18,0,0,0,2.5-1.7,11.4,11.4,0,0,0,4.2-7.6,67.1,67.1,0,0,0,.6-15.5,23.6,23.6,0,0,0-.8-4.5c-.5-1.7-1.6-2.5-3-2.3a5.5,5.5,0,0,0-1.8.6l-2.4,2.3a1.4,1.4,0,0,0-.3.9c-.1,4.1,0,8.1,0,12.1,0,2.3.6,3,2.8,3.4S337.9,42.3,337.9,42.9Z"/><path class="cls-2" d="M46.2,23l-.4-1.1c2.7-.9,5.1-2.4,8-3v4.7h.3L56,21.6a8.7,8.7,0,0,1,4.4-2.4,5.4,5.4,0,0,1,6.1,3,13.3,13.3,0,0,1,.9,5.9c.1,3.5,0,7.1.1,10.7s.6,2.9,3,3h.4v.9H59.5v-.9l1.8-.2A2,2,0,0,0,63,40v-.2c0-4.8.2-9.6-.1-14.3-.2-3.1-2.3-3.7-4.9-2.9a7.7,7.7,0,0,0-3.5,2.3,2.2,2.2,0,0,0-.6,1.5V38.8c.2,2.3.8,2.9,3.1,3h.6v.9H46.2v-.9h.9c1.6-.1,2.4-.8,2.4-2.5q.2-7.3,0-14.7C49.5,22.7,48.5,22.2,46.2,23Z"/><path class="cls-2" d="M438.3,20.8v-1h8v.9c0,4.9,0,9.7.1,14.6a8.2,8.2,0,0,0,.2,2.2c.3,2.1,2.3,3.3,4.6,2.7a9.4,9.4,0,0,0,4.2-2.9,1.1,1.1,0,0,0,.2-.8q.1-6.2,0-12.3a7.6,7.6,0,0,0-.1-1.5,2,2,0,0,0-1.7-1.7l-1.8-.2v-1h7.8V33.7c.1,1.4.1,2.8.2,4.2s.9,2.5,2.7,2l.6-.2.4,1c-2.7,1-5.1,2.3-8,3.1v-5c-1.3,1.2-2.4,2.3-3.6,3.3a5.9,5.9,0,0,1-4.6,1.4,5.6,5.6,0,0,1-5.1-4.9,25.6,25.6,0,0,1-.3-3.9c-.1-3.6,0-7.1-.1-10.7s-.7-3.1-3.1-3.2Z"/><path class="cls-2" d="M438.2,38a2.5,2.5,0,0,1-1.1,2.8,6.1,6.1,0,0,1-3.9,2.5,2.6,2.6,0,0,1-3-2.6c-.1-.3-.1-.6-.2-1L426.9,42a6,6,0,0,1-6.3.8c-2-.8-2.9-2.5-3.2-4.7s1.5-5.3,4.1-6.7,5.2-2.4,7.8-3.6c.6-.2.8-.5.7-1.1a20.9,20.9,0,0,0-.4-3.5c-.7-3-5-3-6.3-1.4a4,4,0,0,0-.7,1.8c-.1.7,0,1.5-.1,2.2a2,2,0,0,1-2.2,1.6,2.2,2.2,0,0,1-2-2.1c-.3-2.3,1.6-4.4,3.7-5.3a11.7,11.7,0,0,1,9-.2c2.5.9,3.3,3,3.3,5.4V36.7a16.4,16.4,0,0,0,.2,2.2c.1.3.4.9.7,1a1.8,1.8,0,0,0,1.2-.3C437.1,39.1,437.6,38.5,438.2,38ZM430,29.2c-2.2,1-4.5,1.7-6.4,3.2a5,5,0,0,0-1.9,4.3,3.6,3.6,0,0,0,3.8,3.5,8.2,8.2,0,0,0,4.4-2.3.7.7,0,0,0,.1-.5Z"/><path class="cls-2" d="M303.4,38a2.2,2.2,0,0,1-.7,2.4,17.9,17.9,0,0,1-3.1,2.5c-2.3,1.1-4.1-.1-4.3-2.6v-.7l-3.4,2.5c-2.2,1.7-6.3,1.9-8.3-1.1a6.6,6.6,0,0,1,.4-7.5c2.1-2.3,4.9-3.4,7.7-4.6,1-.4,2-.7,3-1.2a1,1,0,0,0,.6-.7,16.7,16.7,0,0,0-.5-3.9c-.7-2.3-4.4-3.2-6.1-1.5a4.6,4.6,0,0,0-.9,2,9.6,9.6,0,0,0,0,1.7,2.1,2.1,0,0,1-2.1,2.1,2.2,2.2,0,0,1-2.2-2.1c-.2-2,.9-3.3,2.3-4.5a10,10,0,0,1,7.3-1.7,14.4,14.4,0,0,1,3.7,1,4.9,4.9,0,0,1,2.7,4.7V34.9c0,1.3.1,2.6.2,3.8a1.5,1.5,0,0,0,.7,1.2,1.8,1.8,0,0,0,1.3-.4A11.4,11.4,0,0,0,303.4,38Zm-8.1-8.8-1,.4c-1.4.7-2.9,1.3-4.3,2.1a5.6,5.6,0,0,0-3,3.7c-.5,2.5,1.3,4.9,3.6,4.8s3.2-1.2,4.6-2.3a.6.6,0,0,0,.1-.4Z"/><path class="cls-2" d="M112.9,31.4c.3-4.2,1.6-8,5.3-10.6a10.7,10.7,0,0,1,14.5,2.6c4.1,5.8,2.3,14-2.2,17.8a10.3,10.3,0,0,1-7.4,2.3c-6-.2-9.4-5.5-10-9.8A16.4,16.4,0,0,1,112.9,31.4Zm17.5,1.4h-.2V30.9a14.6,14.6,0,0,0-2.8-8,5.1,5.1,0,0,0-8.4.4,11.8,11.8,0,0,0-1.3,5.2,18.7,18.7,0,0,0,2.1,9.8c1.2,2.2,3.4,3.6,5.5,3.3s3.9-1.7,4.5-4.5S130.2,34.2,130.4,32.8Z"/><path class="cls-2" d="M237.2,28.6H221.5c-.4,4.7,2.2,9.8,7,10.6a6.4,6.4,0,0,0,6.9-3.5l.8-1.8c.7.2,1,.5.8,1.2a11.5,11.5,0,0,1-5.1,7.4,9.1,9.1,0,0,1-10.3-1.3,11.2,11.2,0,0,1-3.8-8.4,16.4,16.4,0,0,1,1.1-7.6,10.1,10.1,0,0,1,13-5.4,8.3,8.3,0,0,1,5.1,6.8C237.1,27.2,237.1,27.8,237.2,28.6Zm-5.5-1.7c.2-3.3-1.8-5.9-4.7-5.9a5.8,5.8,0,0,0-5.5,5.9h10.2Z"/><path class="cls-2" d="M323.7,33.7c.6.1.8.3.6,1a11.8,11.8,0,0,1-4.5,7.2,8.3,8.3,0,0,1-10.7-.6,11.7,11.7,0,0,1-3.9-8.4,15,15,0,0,1,1.3-7.8c2.5-5.1,8.7-7.5,13.6-5.2a6,6,0,0,1,3.6,4,2.1,2.1,0,0,1-1.8,2.9,2.6,2.6,0,0,1-3.2-2.1c-.1-.5-.1-.9-.2-1.3a2.7,2.7,0,0,0-2.4-2.4c-3.2-.4-5.5,1.3-6.4,4.8a13.3,13.3,0,0,0,2.1,11.3,6.2,6.2,0,0,0,9.9-.1A31.9,31.9,0,0,0,323.7,33.7Z"/><path class="cls-2" d="M33.3,22.9l-.5-1c2.7-.9,5.2-2.4,8.1-3V20c0,5.8,0,11.6.1,17.3a14.8,14.8,0,0,0,.1,2.1c.2,1.7.6,2.1,2.2,2.4h1.1v.9H33.3v-.9l1.3-.2c1.4,0,2.1-1,2.1-2.4q.1-7.2,0-14.4C36.6,22.6,35.8,22.2,33.3,22.9Z"/><path class="cls-1" d="M408.7,21.4l-1.6,2.4V21.4Z"/><path class="cls-1" d="M430,29.2v8.2a.7.7,0,0,1-.1.5,8.2,8.2,0,0,1-4.4,2.3,3.6,3.6,0,0,1-3.8-3.5,5,5,0,0,1,1.9-4.3C425.5,30.9,427.8,30.2,430,29.2Z"/><path class="cls-1" d="M295.3,29.2v8.3a.6.6,0,0,1-.1.4c-1.4,1.1-2.8,2.2-4.6,2.3s-4.1-2.3-3.6-4.8a5.6,5.6,0,0,1,3-3.7c1.4-.8,2.9-1.4,4.3-2.1Z"/><path class="cls-1" d="M130.4,32.8c-.2,1.4-.3,2.9-.6,4.3s-2.1,4.2-4.5,4.5-4.3-1.1-5.5-3.3a18.7,18.7,0,0,1-2.1-9.8,11.8,11.8,0,0,1,1.3-5.2,5.1,5.1,0,0,1,8.4-.4,14.6,14.6,0,0,1,2.8,8v1.9Zm-9.9-1.6a3.6,3.6,0,1,0,7.2,0c-.1-2.2-1.7-4-3.6-4A3.8,3.8,0,0,0,120.5,31.2Z"/><path class="cls-1" d="M231.7,26.9H221.5A5.8,5.8,0,0,1,227,21C229.9,21,231.9,23.6,231.7,26.9Z"/><path class="cls-2" d="M120.5,31.2a3.8,3.8,0,0,1,3.6-4c1.9,0,3.5,1.8,3.6,4a3.6,3.6,0,1,1-7.2,0Z"/></svg>