<svg xmlns="http://www.w3.org/2000/svg" viewBox="0 0 260.67 85.34"><defs><style>.cls-1{stroke:#000;stroke-miterlimit:10;stroke-width:0.5px;}</style></defs><path class="cls-1" d="M96.38,15.37a4.61,4.61,0,0,0,1.56-2.89q0-1.3-1.68-1.95a4,4,0,0,0-1-.29,6.94,6.94,0,0,0-.84-.06,10.48,10.48,0,0,0-2.21,0,13.44,13.44,0,0,0-2.15.41q-8.4,2.78-18.75,23.11a88.29,88.29,0,0,0-5.36,11.86,26.22,26.22,0,0,0-1.75,8.2,9.64,9.64,0,0,0,.75,3,8.12,8.12,0,0,1,.81,2.83c0,.35-.31.61-.94.77s-1.14-.26-1.93-1.12a8,8,0,0,1-2.74-6,23.37,23.37,0,0,1,.19-3,25.31,25.31,0,0,1,.59-3.07A31.66,31.66,0,0,1,62,43.84q.65-1.74,1.53-3.81Q64.77,37.2,66,34.78t2.52-4.41a75.81,75.81,0,0,1,9-12,33.77,33.77,0,0,1,9.17-7.11A24.3,24.3,0,0,0,80.5,14a73.43,73.43,0,0,0-10,7.4,105.19,105.19,0,0,0-9.43,9.51q-3,3.36-7.45,9.17T42.94,54.24q.37-2.07,1.12-5t2-6.64q1.18-3.89,2-6.79t1.18-4.72q2.49-12.8,12-17.94a1.51,1.51,0,0,0-.5-.12h-.31a16.25,16.25,0,0,0-9.67,5.07,39.15,39.15,0,0,0-2.77,4q-1.9,3-4.71,8l-4.71,8.57q-6.67,12-12.29,15.16-5,2.71-13.72,2.71Q1.07,56.6.28,46.8a9.44,9.44,0,0,1,4.05-8.61,13.62,13.62,0,0,1,9.74-2.72q10.35.77,11.23,8.38l-1.13-1.41a11.24,11.24,0,0,0-10.1-4.84,12.86,12.86,0,0,0-7.61,2.48A8.64,8.64,0,0,0,3.81,43a6.73,6.73,0,0,0-.74,3.72q.31,8.44,10.66,8.61,9.73-1,18-12,3-4.13,5.21-7.32a58.22,58.22,0,0,0,3.5-5.61q2.43-4.43,4.33-7.32t3.15-4.42q5.37-6.26,10.92-6.52A83.27,83.27,0,0,0,29.28,7.86q-10.1.3-10.1,8.85a7.63,7.63,0,0,0,3.55,6.55,13.91,13.91,0,0,0,7.8,2.11q6.67-.18,9.92-5.13l1-1.53q-.56,7.73-10.85,8.79-.62.06-1.06.06h-.62a13.27,13.27,0,0,1-8.85-2.88,9.36,9.36,0,0,1-3.55-8.08q.23-10,13.55-10.45a75.19,75.19,0,0,1,10.38.68q5.77.74,12.75,2.33a37,37,0,0,1,4.55,1.45q2.37.92,5.05,2.21.44.12.19.53l-.16.18a2.29,2.29,0,0,1-.22.24q-3.62.47-6.24,8.85A6.52,6.52,0,0,1,56,24.24q-.44,1.5-1.19,3.72t-1.74,4.77q-.94,2.57-1.81,4.9T49.7,41.7Q49,43.44,48.76,44q3.49-4.72,6.17-8.23t4.74-5.87a84.75,84.75,0,0,1,9.42-9.35A80.41,80.41,0,0,1,79.5,13.06q1.06-.59,2.4-1.18a33.33,33.33,0,0,1,3.17-1.18,23.71,23.71,0,0,1,8.69-1.33q4.74.41,4.74,2.6Q98.5,13.37,96.38,15.37Z" transform="translate(0.01)"/><path class="cls-1" d="M93.45,49.46q-2.62,3.72-5.38,3.71-3.62,0-4-3.3a10.09,10.09,0,0,1-6.49,2.83Q73,52.7,73,47.39q0-6.2,5.86-11.74,3.74-3.54,7.42-3.54a3.86,3.86,0,0,1,4.18,3l.37-.35a6,6,0,0,1,4.61-1.06q-2.81,4.07-4.71,7.43a48.12,48.12,0,0,0-3,6.08q-1.25,3.07-.75,4.25a.93.93,0,0,0,.94.65q2.68,0,8.67-9a.54.54,0,0,1,.87-.06.56.56,0,0,1,.09.79l-.09.09ZM85.72,33.53q-2.43,0-5.05,3.36-4.8,6-4.8,11.39,0,3,2.18,3,4.24,0,7.73-8.5a17.71,17.71,0,0,0,1.68-6.67Q87.47,33.53,85.72,33.53Z" transform="translate(0.01)"/><path class="cls-1" d="M111.41,43l-.56,1.12q-.5,1-1.37,2.89Q89.65,85.09,64.95,85.09q-13,0-13.78-9.79a9.33,9.33,0,0,1,3.9-8.5A13.89,13.89,0,0,1,64.61,64q10.17.77,11,7.67a4.91,4.91,0,0,0-.81-1.18q-3.24-4.9-10.23-4.6A13,13,0,0,0,57,68.37a8.47,8.47,0,0,0-2.65,3,7,7,0,0,0-.78,3.78,8.08,8.08,0,0,0,3.12,6.46,12,12,0,0,0,7.41,2.19q14.1-.24,25.76-13.93a96.62,96.62,0,0,0,6.11-8q2.93-4.25,5.86-9a7.61,7.61,0,0,1-2.43.47q-4.61,0-4.61-5.31,0-6.19,6-11.8,3.93-3.6,7.3-3.6,4.61,0,4.61,5.31A12.4,12.4,0,0,1,111.41,43Zm-3.93-8.85q-2.24,0-5.05,3.36a26.88,26.88,0,0,0-3.49,5.81,14.1,14.1,0,0,0-1.18,5.52q0,3,2.18,3a5,5,0,0,0,3.43-1.59q2.81-4.78,5.43-10.09a11.53,11.53,0,0,0,.56-3.36Q109.35,34.12,107.48,34.12Z" transform="translate(0.01)"/><path class="cls-1" d="M182.38,18.54a13,13,0,0,1-9.54,2.66q-10.17-.65-11-7.61a4.42,4.42,0,0,0,.75,1.18,12.27,12.27,0,0,0,10.23,4.66,13.89,13.89,0,0,0,4.15-.71,13.19,13.19,0,0,0,3.52-1.83,9.2,9.2,0,0,0,2.65-3,6.74,6.74,0,0,0,.78-3.72,8.17,8.17,0,0,0-3.09-6.52,11.68,11.68,0,0,0-7.45-2.15q-14.53.18-27.69,16.11-7.15,8.76-15.13,23.88a20.35,20.35,0,0,1-1.62,3.6q-.19.65-.53,1.56a20.21,20.21,0,0,0-.65,2.15q-.31,2.42,1.12,3.19,2.87-.65,8.29-8.85.44-.47.75-.06.56.41.13.88l-4.12,5.49q-2.74,3.72-5.36,3.72-3.37,0-3.93-3-3.44,3.15-6.81,3.15-4.62,0-4.61-5.31,0-6.19,5.92-11.8,3.8-3.6,7.36-3.6a4.09,4.09,0,0,1,3.74,1.71Q149.2.25,172.53.25q13.22,0,13.84,9.79A9.31,9.31,0,0,1,182.38,18.54ZM125.94,34.12q-2.24,0-5.05,3.36a26.86,26.86,0,0,0-3.49,5.81,14.1,14.1,0,0,0-1.19,5.52q0,3,2.06,3,3.74,0,7-6.84a24.3,24.3,0,0,1,.81-2.39q.5-1.27,1.12-2.63a12.86,12.86,0,0,0,.5-3.19Q127.75,34.12,125.94,34.12Z" transform="translate(0.01)"/><path class="cls-1" d="M156.07,49.46q-2.62,3.72-5.43,3.72-3.62,0-4-3.3a10.09,10.09,0,0,1-6.49,2.83q-4.55,0-4.55-5.31,0-6.2,5.86-11.74,3.74-3.54,7.42-3.54a3.86,3.86,0,0,1,4.18,3l.37-.35a6,6,0,0,1,4.64-1.07q-2.81,4.07-4.71,7.43a48.12,48.12,0,0,0-3,6.08q-1.25,3.07-.75,4.25a.93.93,0,0,0,.94.65q2.68,0,8.67-9a.54.54,0,0,1,.87-.06.56.56,0,0,1,.09.79l-.09.09Zm-7.73-15.93q-2.43,0-5.05,3.36-4.8,6-4.8,11.39,0,3,2.18,3,4.24,0,7.73-8.5a17.71,17.71,0,0,0,1.67-6.72q0-2.53-1.74-2.53Z" transform="translate(0.01)"/><path class="cls-1" d="M214.43,19.25a13.45,13.45,0,0,1-9.6,2.66q-10.17-.53-11-7.61c.17.32.31.57.44.77l.31.47a12,12,0,0,0,10.23,4.6,14.76,14.76,0,0,0,4.21-.68,12.56,12.56,0,0,0,3.52-1.8,7.91,7.91,0,0,0,3.53-6.73,8.39,8.39,0,0,0-3.13-6.56,11.77,11.77,0,0,0-7.55-2.15q-14.47.18-27.69,16.22a103,103,0,0,0-8.51,12q-4.27,6.93-8.7,16a12.25,12.25,0,0,0-.75,3.72q0,1.95,1.56,2t4.05-2.66l1.37-1.71q1.18-1.47,3.37-4.31.5-.53.87-.18a.32.32,0,0,1,.25.35.5.5,0,0,1-.19.35,26,26,0,0,1-4.3,5.66q-3.49,3.76-5.79,3.76a3.69,3.69,0,0,1-3-1.36,4.73,4.73,0,0,1-1-3.25,14.12,14.12,0,0,1,.78-4.25,33,33,0,0,1,2.36-5.44Q179.88,1,204.64,1q13.1,0,13.72,9.79A9,9,0,0,1,214.43,19.25Z" transform="translate(0.01)"/><path class="cls-1" d="M187.8,43.79l-.12.24q-5.93,9.2-11.54,9.2a5.46,5.46,0,0,1-4.43-2,7,7,0,0,1-1.62-4.6q0-6.08,7-11.21,3.3-2.42,5.8-2.42,3.18,0,3.18,2.83t-5.67,5.84q-1.12.65-2.59,1.56t-3.21,2.15q-.94.88-.94,3.83t2.49,3q4.3,0,9.17-6.9l1.87-2.42q.69,0,.69.65A.44.44,0,0,1,187.8,43.79Zm-3.24-8.67q-.06.18-.56-.83a.79.79,0,0,1-.44-.18.86.86,0,0,0-.5-.18q-1.68,0-4.68,4.19a21.35,21.35,0,0,0-3.24,5.66q1.43-.88,3.4-2.3T183,38a6.2,6.2,0,0,0,1.56-2.88Z" transform="translate(0.01)"/><path class="cls-1" d="M200.65,53.59q-3.58,0-3.58-3.22a9.54,9.54,0,0,1,.25-2.77,28.77,28.77,0,0,0,4.3-11q.5-2.54-1.5-2.54-3.31,0-7.67,6-1.19,2.24-2.87,5.6t-4.05,7.91q-.69,0-1.12-1.06a29.15,29.15,0,0,1,.75-4.78,8.79,8.79,0,0,1,.65-1.71q.53-1.12,1.4-2.77h-.06a31.4,31.4,0,0,1,2.06-3.36,8.36,8.36,0,0,0,1.37-3,4.49,4.49,0,0,0-1-2.42.19.19,0,0,1-.12-.18q0-.88,4.61-.88a4,4,0,0,0-.16.94,8.13,8.13,0,0,1-.16,1.3q3.74-3,7.23-3,3.93,0,3.93,4,0,3.42-3.49,10.44a.72.72,0,0,1-.25.53,14.47,14.47,0,0,0-1.43,3.66.71.71,0,0,0,.13.71q.06.59.81.59,2.49,0,9.92-9a.52.52,0,0,1,.87,0,.75.75,0,0,1,0,.83Q203.64,53.59,200.65,53.59Z" transform="translate(0.01)"/><path class="cls-1" d="M229.4,49.46q-2.62,3.72-5.43,3.72-3.62,0-4-3.3a10.09,10.09,0,0,1-6.49,2.83q-4.55,0-4.55-5.31,0-6.2,5.86-11.74,3.74-3.54,7.42-3.54a3.86,3.86,0,0,1,4.18,3l.37-.35a6,6,0,0,1,4.61-1.06q-2.81,4.07-4.71,7.43a48.12,48.12,0,0,0-3,6.08q-1.25,3.07-.75,4.25a.93.93,0,0,0,.94.65q2.68,0,8.67-9a.54.54,0,0,1,.87-.06.56.56,0,0,1,.09.79l-.09.09Zm-7.73-15.93q-2.43,0-5.05,3.36-4.8,6-4.8,11.39,0,3,2.18,3,4.24,0,7.73-8.5a17.71,17.71,0,0,0,1.68-6.67q0-2.58-1.75-2.58Z" transform="translate(0.01)"/><path d="M109.91,65.21h8.6q.29-1.6.43-2.7a14.32,14.32,0,0,0,.14-1.74,4.58,4.58,0,0,0,0-.67,5.89,5.89,0,0,0-.13-.63,7,7,0,0,1,.88-.38,2.16,2.16,0,0,1,.68-.12.67.67,0,0,1,.55.24,1.06,1.06,0,0,1,.2.68,14.31,14.31,0,0,1-.39,2.17q-.26,1.17-.4,1.89-.55,2.6-.86,4.68a23.7,23.7,0,0,0-.3,3.11,5.29,5.29,0,0,0,0,.62c0,.23.08.51.14.86a6.47,6.47,0,0,1-.92.38,2.39,2.39,0,0,1-.69.12.71.71,0,0,1-.58-.24,1.07,1.07,0,0,1-.2-.7,19.62,19.62,0,0,1,.45-2.46q.45-2.07.73-3.73h-8.61q-.35,1.89-.53,3.25a16.59,16.59,0,0,0-.18,2,4.13,4.13,0,0,0,.05.62q.05.34.13.73a6.08,6.08,0,0,1-.91.38,2.38,2.38,0,0,1-.68.12.8.8,0,0,1-.63-.24,1,1,0,0,1-.21-.71,12.86,12.86,0,0,1,.39-2.15l.25-1.09q.66-2.94,1-5.28a24.28,24.28,0,0,0,.38-3.48,4.17,4.17,0,0,0-.05-.63c0-.22-.08-.45-.13-.67a5.08,5.08,0,0,1,.86-.38,2.3,2.3,0,0,1,.69-.12.84.84,0,0,1,.64.24,1,1,0,0,1,.22.69,19.44,19.44,0,0,1-.45,2.51Q110.13,64.1,109.91,65.21Z" transform="translate(0.01)"/><path d="M124.82,73.27a6.77,6.77,0,0,1-.85.34,2.08,2.08,0,0,1-.59.1.6.6,0,0,1-.48-.21.81.81,0,0,1-.18-.55,10.83,10.83,0,0,1,.36-2l.12-.55q.41-1.76.64-3.22a15.61,15.61,0,0,0,.23-2.13,3.82,3.82,0,0,0,0-.55,3.35,3.35,0,0,0-.12-.54,5.7,5.7,0,0,1,.84-.33,2.21,2.21,0,0,1,.61-.11.71.71,0,0,1,.55.21.9.9,0,0,1,.19.62,10.15,10.15,0,0,1-.34,1.72q-.16.65-.25,1-.4,1.7-.61,3a13,13,0,0,0-.21,2,5.65,5.65,0,0,0,0,.67A3.9,3.9,0,0,0,124.82,73.27Zm1.14-14a1.1,1.1,0,0,1,.8.3,1.06,1.06,0,0,1,.3.79,1.41,1.41,0,0,1-.4,1,1.34,1.34,0,0,1-1,.41,1.14,1.14,0,0,1-.83-.3,1.05,1.05,0,0,1-.31-.79,1.36,1.36,0,0,1,.43-1A1.39,1.39,0,0,1,126,59.22Z" transform="translate(0.01)"/><path d="M136.46,65.4a8,8,0,0,1,1.85-1.48,3.62,3.62,0,0,1,1.72-.45,2.66,2.66,0,0,1,2.09.89,3.42,3.42,0,0,1,.79,2.36,16.37,16.37,0,0,1-.34,2.7,16.66,16.66,0,0,0-.34,2.76,3.29,3.29,0,0,0,0,.55,2.87,2.87,0,0,0,.14.51,4.93,4.93,0,0,1-.76.36,1.66,1.66,0,0,1-.53.11.72.72,0,0,1-.55-.2.81.81,0,0,1-.19-.58,11.22,11.22,0,0,1,.29-1.66c.06-.25.11-.45.13-.58q.38-1.79.49-2.52a8,8,0,0,0,.11-1.17,2.56,2.56,0,0,0-.46-1.64,1.61,1.61,0,0,0-1.33-.56,3,3,0,0,0-1.4.36,7.24,7.24,0,0,0-1.56,1.19c0,.06,0,.14,0,.22s0,.14,0,.16a15.68,15.68,0,0,1-.34,2.6,15.68,15.68,0,0,0-.34,2.73,5.21,5.21,0,0,0,0,.64,4.63,4.63,0,0,0,.11.58,8.67,8.67,0,0,1-.83.34,1.61,1.61,0,0,1-.5.1.64.64,0,0,1-.5-.21.82.82,0,0,1-.19-.57,11.22,11.22,0,0,1,.29-1.66c.05-.25.1-.45.13-.58q.38-1.79.49-2.52a8.08,8.08,0,0,0,.11-1.17,2.57,2.57,0,0,0-.46-1.62,1.52,1.52,0,0,0-1.27-.58,2.7,2.7,0,0,0-1.27.36,7.62,7.62,0,0,0-1.54,1.19q-.48,2.18-.72,3.58a14,14,0,0,0-.24,2.11,4.85,4.85,0,0,0,0,.65,4.67,4.67,0,0,0,.11.59,6.35,6.35,0,0,1-.77.33,1.76,1.76,0,0,1-.55.11.67.67,0,0,1-.52-.2.8.8,0,0,1-.18-.56,9.51,9.51,0,0,1,.33-1.83q.12-.48.17-.73.49-2.1.72-3.5a14.89,14.89,0,0,0,.23-2.26,3.68,3.68,0,0,0,0-.44c0-.16-.05-.34-.09-.55l.4-.11a1.75,1.75,0,0,1,.32,0,1,1,0,0,1,.72.26,1,1,0,0,1,.25.75c0,.13,0,.24,0,.32s0,.16,0,.25a7.24,7.24,0,0,1,1.6-1.21,3.09,3.09,0,0,1,1.45-.4,2.71,2.71,0,0,1,1.64.5A2.86,2.86,0,0,1,136.46,65.4Z" transform="translate(0.01)"/><path d="M153.87,65.4a8,8,0,0,1,1.85-1.48,3.62,3.62,0,0,1,1.72-.45,2.66,2.66,0,0,1,2.09.89,3.42,3.42,0,0,1,.79,2.36,16.37,16.37,0,0,1-.34,2.7,16.66,16.66,0,0,0-.34,2.76,3.29,3.29,0,0,0,0,.55,2.87,2.87,0,0,0,.14.51,4.93,4.93,0,0,1-.76.36,1.66,1.66,0,0,1-.53.11.72.72,0,0,1-.55-.2.81.81,0,0,1-.19-.58,11.22,11.22,0,0,1,.29-1.66c.06-.25.11-.45.13-.58q.38-1.79.49-2.52a8,8,0,0,0,.11-1.17,2.56,2.56,0,0,0-.46-1.64,1.61,1.61,0,0,0-1.33-.56,3,3,0,0,0-1.4.36,7.24,7.24,0,0,0-1.56,1.19c0,.06,0,.14,0,.22s0,.14,0,.16a15.68,15.68,0,0,1-.34,2.6,15.68,15.68,0,0,0-.34,2.73,5.21,5.21,0,0,0,0,.64,4.63,4.63,0,0,0,.11.58,8.67,8.67,0,0,1-.83.34,1.61,1.61,0,0,1-.5.1.64.64,0,0,1-.5-.21.82.82,0,0,1-.19-.57,11.22,11.22,0,0,1,.29-1.66c.05-.25.1-.45.13-.58q.38-1.79.49-2.52a8.08,8.08,0,0,0,.11-1.17,2.57,2.57,0,0,0-.46-1.62,1.52,1.52,0,0,0-1.27-.58,2.7,2.7,0,0,0-1.27.36A7.63,7.63,0,0,0,148,66.34q-.48,2.18-.72,3.58a14,14,0,0,0-.24,2.11,4.85,4.85,0,0,0,0,.65,4.67,4.67,0,0,0,.11.59,6.35,6.35,0,0,1-.77.33,1.76,1.76,0,0,1-.55.11.67.67,0,0,1-.52-.2.8.8,0,0,1-.18-.56,9.51,9.51,0,0,1,.33-1.83q.12-.48.17-.73.49-2.1.72-3.5a14.89,14.89,0,0,0,.23-2.26,3.68,3.68,0,0,0,0-.44c0-.16-.05-.34-.09-.55l.4-.11a1.75,1.75,0,0,1,.32,0,1,1,0,0,1,.72.26,1,1,0,0,1,.25.75c0,.13,0,.24,0,.32s0,.16,0,.25a7.25,7.25,0,0,1,1.6-1.21,3.09,3.09,0,0,1,1.45-.4,2.71,2.71,0,0,1,1.64.5A2.86,2.86,0,0,1,153.87,65.4Z" transform="translate(0.01)"/><path d="M164.39,68.46q-.05.26-.08.47a3.54,3.54,0,0,0,0,.43,3.34,3.34,0,0,0,.79,2.34,2.74,2.74,0,0,0,2.13.87,3.26,3.26,0,0,0,1.36-.29,3.13,3.13,0,0,0,1.11-.84,1.1,1.1,0,0,1,.38.38,1,1,0,0,1,.12.52q0,.64-.89,1.12a4.66,4.66,0,0,1-2.21.48,4.33,4.33,0,0,1-3.22-1.22,4.43,4.43,0,0,1-1.21-3.26,6.64,6.64,0,0,1,1.3-3.95,5.49,5.49,0,0,1,1.86-1.61,4.82,4.82,0,0,1,2.29-.57,3.61,3.61,0,0,1,2.42.77,2.56,2.56,0,0,1,.91,2,2.21,2.21,0,0,1-1,2,5.58,5.58,0,0,1-3,.67,13.44,13.44,0,0,1-1.57-.09A11.37,11.37,0,0,1,164.39,68.46Zm.28-1.14a7.76,7.76,0,0,0,1.25.23,14,14,0,0,0,1.46.07,4.18,4.18,0,0,0,1.91-.33,1.1,1.1,0,0,0,.62-1,1.45,1.45,0,0,0-.54-1.17,2.17,2.17,0,0,0-1.44-.45,3,3,0,0,0-1.92.71A4.48,4.48,0,0,0,164.67,67.32Z" transform="translate(0.01)"/><path d="M175,73.26a5.6,5.6,0,0,1-.79.34,2,2,0,0,1-.61.11.73.73,0,0,1-.55-.2.77.77,0,0,1-.19-.56,21.07,21.07,0,0,1,.47-2.69q.38-1.8.61-3,.5-2.64.75-4.42a21,21,0,0,0,.25-2.68,3.66,3.66,0,0,0,0-.55,3.74,3.74,0,0,0-.12-.54,6.12,6.12,0,0,1,.86-.37,2,2,0,0,1,.54-.09.84.84,0,0,1,.6.19.78.78,0,0,1,.19.58,18.57,18.57,0,0,1-.42,2.4q-.42,2-.66,3.21-.58,3.07-.82,4.61a17.39,17.39,0,0,0-.23,2.38,5.65,5.65,0,0,0,0,.67A3.62,3.62,0,0,0,175,73.26Z" transform="translate(0.01)"/><path d="M183.25,65.31a2.23,2.23,0,0,0-.62-.33,2.08,2.08,0,0,0-.67-.11,1.9,1.9,0,0,0-1.27.45,1.35,1.35,0,0,0-.53,1.06,3.31,3.31,0,0,0,1,1.79c.21.23.36.41.46.54a4.58,4.58,0,0,1,.71,1.1,2.65,2.65,0,0,1,.19,1,2.82,2.82,0,0,1-1.07,2.22,3.9,3.9,0,0,1-2.62.91,1.73,1.73,0,0,1-1-.23.8.8,0,0,1-.33-.7,1.32,1.32,0,0,1,.08-.43,3.08,3.08,0,0,1,.26-.53,2.39,2.39,0,0,0,.7.33,3,3,0,0,0,.83.11,2.11,2.11,0,0,0,1.3-.36,1.17,1.17,0,0,0,.48-1,3.42,3.42,0,0,0-1-1.8l-.28-.32a6.09,6.09,0,0,1-.94-1.31,2.37,2.37,0,0,1-.21-1,2.68,2.68,0,0,1,.43-1.41,3.94,3.94,0,0,1,1.16-1.2,4.39,4.39,0,0,1,1.13-.56,3.77,3.77,0,0,1,1.17-.19,1.33,1.33,0,0,1,.82.21.75.75,0,0,1,.27.63,1.27,1.27,0,0,1-.11.46A3.79,3.79,0,0,1,183.25,65.31Z" transform="translate(0.01)"/><path d="M188.52,64.16l.93-.06.58,0a1,1,0,0,1,.6.14.49.49,0,0,1,.19.43,1,1,0,0,1-.08.35,2.56,2.56,0,0,1-.25.47,2.89,2.89,0,0,0-.49-.12,3.56,3.56,0,0,0-.57,0h-.74l-.47,0q-.47,2.11-.73,3.68a15.5,15.5,0,0,0-.26,2.24,1.56,1.56,0,0,0,.19.88.69.69,0,0,0,.61.28,1,1,0,0,0,.38-.08,1.62,1.62,0,0,0,.39-.23.51.51,0,0,1,.09.19,1,1,0,0,1,0,.22,1.13,1.13,0,0,1-.43.94,1.86,1.86,0,0,1-1.19.34,1.63,1.63,0,0,1-1.29-.52,2.16,2.16,0,0,1-.46-1.47,34.13,34.13,0,0,1,.73-4.35q.27-1.3.4-2h-.59a1.43,1.43,0,0,1-.7-.12.45.45,0,0,1-.2-.42,1,1,0,0,1,.06-.31,2.58,2.58,0,0,1,.17-.38l.51.07.37,0h.25l.43,0q.12-.82.17-1.33c0-.34.05-.63.05-.85a2.61,2.61,0,0,0,0-.37,3.61,3.61,0,0,0-.09-.42,4.15,4.15,0,0,1,.68-.26,2.24,2.24,0,0,1,.56-.08.78.78,0,0,1,.54.17.64.64,0,0,1,.18.5,9.35,9.35,0,0,1-.24,1.24Z" transform="translate(0.01)"/><path d="M198.56,70.41q.41-1.88.62-3.23a15.36,15.36,0,0,0,.21-2.16,3.52,3.52,0,0,0,0-.58,3.16,3.16,0,0,0-.14-.55,4.52,4.52,0,0,1,.7-.27,2,2,0,0,1,.53-.09.72.72,0,0,1,.8.8,11,11,0,0,1-.29,1.73l-.05.19q-.53,2.46-.75,3.73a12.67,12.67,0,0,0-.21,1.9,4.15,4.15,0,0,0,.06.76,2.43,2.43,0,0,0,.19.61,5.29,5.29,0,0,1-.74.35,1.65,1.65,0,0,1-.56.11.6.6,0,0,1-.48-.21.86.86,0,0,1-.17-.57,3,3,0,0,1,0-.45q0-.26.11-.58a6.68,6.68,0,0,1-1.8,1.49,4,4,0,0,1-1.88.48,2.76,2.76,0,0,1-2-.74,2.58,2.58,0,0,1-.77-1.94,16.2,16.2,0,0,1,.45-3,16.29,16.29,0,0,0,.45-3.16,3.26,3.26,0,0,0,0-.52,5.91,5.91,0,0,0-.14-.6,4.38,4.38,0,0,1,.7-.29,1.93,1.93,0,0,1,.53-.09.82.82,0,0,1,.58.21.72.72,0,0,1,.21.54,9.2,9.2,0,0,1-.25,1.46l-.2.88q-.4,1.84-.55,2.75a9.06,9.06,0,0,0-.15,1.38,2,2,0,0,0,.42,1.36,1.55,1.55,0,0,0,1.21.47,3.15,3.15,0,0,0,1.67-.54A7.34,7.34,0,0,0,198.56,70.41ZM196.15,59.5a1.16,1.16,0,0,1,.81.27,1,1,0,0,1,.3.73,1.23,1.23,0,0,1-.37.91,1.3,1.3,0,0,1-.95.37,1.17,1.17,0,0,1-.83-.29,1,1,0,0,1-.31-.77,1.14,1.14,0,0,1,.39-.87A1.38,1.38,0,0,1,196.15,59.5Zm3.53,0a1.2,1.2,0,0,1,.82.27.93.93,0,0,1,.31.73,1.21,1.21,0,0,1-.38.91,1.33,1.33,0,0,1-1,.37,1.11,1.11,0,0,1-.81-.29,1,1,0,0,1-.3-.77,1.16,1.16,0,0,1,.38-.87A1.32,1.32,0,0,1,199.67,59.5Z" transform="translate(0.01)"/><path d="M209,66a1.29,1.29,0,0,0-.26-.64.65.65,0,0,0-.5-.19,1.88,1.88,0,0,0-1.18.62,9,9,0,0,0-1.4,1.77q-.33,1.36-.51,2.48A11.61,11.61,0,0,0,205,71.8a5.12,5.12,0,0,0,.06.8,3.48,3.48,0,0,0,.17.67,4.39,4.39,0,0,1-.75.33,2,2,0,0,1-.62.11.83.83,0,0,1-.62-.22.88.88,0,0,1-.21-.64,10.81,10.81,0,0,1,.35-1.73l.17-.73q.51-2.19.74-3.54a13.5,13.5,0,0,0,.23-2.19c0-.15,0-.31,0-.48a4.68,4.68,0,0,0-.11-.53l.44-.11.28,0a1.07,1.07,0,0,1,.73.24.84.84,0,0,1,.27.66,7.63,7.63,0,0,1-.21,1.35c0,.19-.07.32-.08.4a9.51,9.51,0,0,1,1.65-2,2.31,2.31,0,0,1,1.46-.66,1.16,1.16,0,0,1,.84.32,1.08,1.08,0,0,1,.33.81,1.28,1.28,0,0,1-.27.78A2,2,0,0,1,209,66Z" transform="translate(0.01)"/><path d="M219.41,65.4a8,8,0,0,1,1.85-1.48,3.62,3.62,0,0,1,1.72-.45,2.66,2.66,0,0,1,2.09.89,3.42,3.42,0,0,1,.79,2.36,16.37,16.37,0,0,1-.34,2.7,16.66,16.66,0,0,0-.34,2.76,3.29,3.29,0,0,0,0,.55,2.87,2.87,0,0,0,.14.51,4.93,4.93,0,0,1-.76.36,1.66,1.66,0,0,1-.53.11.72.72,0,0,1-.55-.2.81.81,0,0,1-.19-.58,11.22,11.22,0,0,1,.29-1.66c.06-.25.11-.45.13-.58q.38-1.79.49-2.52a8,8,0,0,0,.11-1.17,2.56,2.56,0,0,0-.46-1.64,1.61,1.61,0,0,0-1.33-.56,3,3,0,0,0-1.4.36,7.24,7.24,0,0,0-1.56,1.19c0,.06,0,.14,0,.22s0,.14,0,.16a15.68,15.68,0,0,1-.34,2.6,15.68,15.68,0,0,0-.34,2.73,5.21,5.21,0,0,0,0,.64,4.63,4.63,0,0,0,.11.58,8.67,8.67,0,0,1-.83.34,1.61,1.61,0,0,1-.5.1.64.64,0,0,1-.5-.21.82.82,0,0,1-.19-.57,11.22,11.22,0,0,1,.29-1.66c.05-.25.1-.45.13-.58q.38-1.79.49-2.52a8.08,8.08,0,0,0,.11-1.17,2.57,2.57,0,0,0-.46-1.62,1.52,1.52,0,0,0-1.27-.58,2.7,2.7,0,0,0-1.27.36,7.63,7.63,0,0,0-1.54,1.19q-.48,2.18-.72,3.58a14,14,0,0,0-.24,2.11,4.85,4.85,0,0,0,0,.65,4.67,4.67,0,0,0,.11.59,6.35,6.35,0,0,1-.77.33,1.76,1.76,0,0,1-.55.11.67.67,0,0,1-.52-.2.8.8,0,0,1-.18-.56,9.51,9.51,0,0,1,.33-1.83q.12-.48.17-.73.49-2.1.72-3.5a14.89,14.89,0,0,0,.23-2.26,3.68,3.68,0,0,0,0-.44c0-.16-.05-.34-.09-.55l.4-.11a1.75,1.75,0,0,1,.32,0,1,1,0,0,1,.72.26,1,1,0,0,1,.25.75c0,.13,0,.24,0,.32s0,.16,0,.25a7.25,7.25,0,0,1,1.6-1.21,3.09,3.09,0,0,1,1.45-.4,2.71,2.71,0,0,1,1.64.5A2.86,2.86,0,0,1,219.41,65.4Z" transform="translate(0.01)"/><path d="M229.93,68.46q-.05.26-.08.47a3.54,3.54,0,0,0,0,.43,3.34,3.34,0,0,0,.79,2.34,2.74,2.74,0,0,0,2.13.87,3.26,3.26,0,0,0,1.36-.29,3.13,3.13,0,0,0,1.11-.84,1.1,1.1,0,0,1,.38.38,1,1,0,0,1,.12.52q0,.64-.89,1.12a4.66,4.66,0,0,1-2.21.48,4.33,4.33,0,0,1-3.22-1.22,4.43,4.43,0,0,1-1.21-3.26,6.64,6.64,0,0,1,1.3-3.95,5.49,5.49,0,0,1,1.86-1.61,4.82,4.82,0,0,1,2.29-.57,3.61,3.61,0,0,1,2.42.77,2.56,2.56,0,0,1,.91,2,2.21,2.21,0,0,1-1,2,5.58,5.58,0,0,1-3,.67,13.44,13.44,0,0,1-1.57-.09A11.37,11.37,0,0,1,229.93,68.46Zm.28-1.14a7.76,7.76,0,0,0,1.25.23,14,14,0,0,0,1.46.07,4.18,4.18,0,0,0,1.91-.33,1.1,1.1,0,0,0,.62-1,1.45,1.45,0,0,0-.54-1.17,2.17,2.17,0,0,0-1.44-.45,3,3,0,0,0-1.92.71A4.48,4.48,0,0,0,230.21,67.32Z" transform="translate(0.01)"/><path d="M244.32,66a1.29,1.29,0,0,0-.26-.64.65.65,0,0,0-.5-.19,1.88,1.88,0,0,0-1.18.62,9,9,0,0,0-1.4,1.77q-.33,1.36-.51,2.48a11.61,11.61,0,0,0-.18,1.75,5.12,5.12,0,0,0,.06.8,3.48,3.48,0,0,0,.17.67,4.39,4.39,0,0,1-.75.33,2,2,0,0,1-.62.11.83.83,0,0,1-.62-.22.88.88,0,0,1-.21-.64,10.81,10.81,0,0,1,.35-1.73l.17-.73q.51-2.19.74-3.54a13.5,13.5,0,0,0,.23-2.19c0-.15,0-.31,0-.48a4.68,4.68,0,0,0-.11-.53l.44-.11.28,0a1.07,1.07,0,0,1,.73.24.84.84,0,0,1,.27.66,7.63,7.63,0,0,1-.21,1.35c0,.19-.07.32-.08.4a9.51,9.51,0,0,1,1.65-2,2.31,2.31,0,0,1,1.46-.66,1.16,1.16,0,0,1,.84.32,1.08,1.08,0,0,1,.33.81,1.28,1.28,0,0,1-.27.78A2,2,0,0,1,244.32,66Z" transform="translate(0.01)"/><path d="M248.23,73.27a6.77,6.77,0,0,1-.85.34,2.08,2.08,0,0,1-.59.1.6.6,0,0,1-.48-.21.81.81,0,0,1-.18-.55,10.83,10.83,0,0,1,.36-2l.12-.55q.41-1.76.64-3.22a15.61,15.61,0,0,0,.23-2.13,3.82,3.82,0,0,0,0-.55,3.35,3.35,0,0,0-.12-.54,5.7,5.7,0,0,1,.84-.33,2.21,2.21,0,0,1,.61-.11.71.71,0,0,1,.55.21.9.9,0,0,1,.19.62,10.15,10.15,0,0,1-.34,1.72q-.16.65-.25,1-.4,1.7-.61,3a13,13,0,0,0-.21,2,5.65,5.65,0,0,0,0,.67A3.9,3.9,0,0,0,248.23,73.27Zm1.14-14a1.1,1.1,0,0,1,.8.3,1.06,1.06,0,0,1,.3.79,1.41,1.41,0,0,1-.4,1,1.34,1.34,0,0,1-1,.41,1.14,1.14,0,0,1-.83-.3,1.05,1.05,0,0,1-.31-.79,1.36,1.36,0,0,1,.43-1A1.39,1.39,0,0,1,249.36,59.22Z" transform="translate(0.01)"/><path d="M254.21,65.14A7.54,7.54,0,0,1,256,63.91a4.05,4.05,0,0,1,1.71-.41,2.78,2.78,0,0,1,2.13.87,3.24,3.24,0,0,1,.81,2.3,16.31,16.31,0,0,1-.35,2.7,16.34,16.34,0,0,0-.35,2.79,3.19,3.19,0,0,0,0,.55,2.87,2.87,0,0,0,.14.51,7.86,7.86,0,0,1-.83.36,1.65,1.65,0,0,1-.5.11.72.72,0,0,1-.55-.2.81.81,0,0,1-.19-.58,10.33,10.33,0,0,1,.3-1.69l.12-.55q.38-1.67.5-2.43a8.37,8.37,0,0,0,.12-1.3,2.34,2.34,0,0,0-.47-1.59,1.77,1.77,0,0,0-1.39-.53,3.49,3.49,0,0,0-1.53.39,7.08,7.08,0,0,0-1.64,1.16q-.48,2-.72,3.46a14,14,0,0,0-.24,2.19,5.8,5.8,0,0,0,0,.67,3.59,3.59,0,0,0,.11.57,7.63,7.63,0,0,1-.82.33,1.84,1.84,0,0,1-.55.11.67.67,0,0,1-.52-.2.8.8,0,0,1-.18-.56,9.51,9.51,0,0,1,.33-1.83q.12-.48.17-.73.5-2.15.72-3.48a13.56,13.56,0,0,0,.22-2.11,5.47,5.47,0,0,0,0-.55c0-.19-.05-.39-.09-.6l.37-.11a1.4,1.4,0,0,1,.29,0,1.14,1.14,0,0,1,.8.26,1,1,0,0,1,.28.74c0,.08,0,.17,0,.27S254.23,65,254.21,65.14Z" transform="translate(0.01)"/></svg>
